<?xml version="1.0" encoding="UTF-8" standalone="no"?>
<!DOCTYPE svg PUBLIC "-//W3C//DTD SVG 1.1//EN"
 "http://www.w3.org/Graphics/SVG/1.1/DTD/svg11.dtd">
<!-- Generated by graphviz version 2.30.1 (20130611.0131)
 -->
<!-- Title: Perl Pages: 1 -->
<svg width="1180pt" height="235pt"
 viewBox="0.00 0.00 1180.00 235.00" xmlns="http://www.w3.org/2000/svg" xmlns:xlink="http://www.w3.org/1999/xlink">
<g id="graph0" class="graph" transform="scale(1 1) rotate(0) translate(4 231)">
<title>Perl</title>
<polygon fill="white" stroke="white" points="-4,5 -4,-231 1177,-231 1177,5 -4,5"/>
<text text-anchor="middle" x="586" y="-7.8" font-family="Times,serif" font-size="14.00">c.ast.bnf</text>
<!-- translationUnit -->
<g id="node1" class="node"><title>translationUnit</title>
<path fill="lightgreen" stroke="black" d="M551,-180C551,-180 625,-180 625,-180 631,-180 637,-186 637,-192 637,-192 637,-214 637,-214 637,-220 631,-226 625,-226 625,-226 551,-226 551,-226 545,-226 539,-220 539,-214 539,-214 539,-192 539,-192 539,-186 545,-180 551,-180"/>
<text text-anchor="middle" x="588" y="-210.8" font-family="Times,serif" font-size="14.00">:start</text>
<polyline fill="none" stroke="black" points="539,-203 637,-203 "/>
<text text-anchor="middle" x="588" y="-187.8" font-family="Times,serif" font-size="14.00">translationUnit</text>
</g>
<!-- ꞉default -->
<g id="node2" class="node"><title>꞉default</title>
<polygon fill="lightblue" stroke="black" points="347.5,-143 290.5,-143 290.5,-107 347.5,-107 347.5,-143"/>
<text text-anchor="middle" x="319" y="-121.3" font-family="Times,serif" font-size="14.00">꞉default</text>
</g>
<!-- translationUnit&#45;&gt;꞉default -->
<g id="edge1" class="edge"><title>translationUnit&#45;&gt;꞉default</title>
<path fill="none" stroke="grey" d="M538.974,-188.149C486.769,-173.399 405.229,-150.362 357.464,-136.867"/>
<polygon fill="grey" stroke="grey" points="358.382,-133.49 347.807,-134.139 356.479,-140.226 358.382,-133.49"/>
</g>
<!-- ꞉discard -->
<g id="node4" class="node"><title>꞉discard</title>
<polygon fill="lightblue" stroke="black" points="617.25,-143 558.75,-143 558.75,-107 617.25,-107 617.25,-143"/>
<text text-anchor="middle" x="588" y="-121.3" font-family="Times,serif" font-size="14.00">꞉discard</text>
</g>
<!-- translationUnit&#45;&gt;꞉discard -->
<g id="edge3" class="edge"><title>translationUnit&#45;&gt;꞉discard</title>
<path fill="none" stroke="grey" d="M588,-179.609C588,-171.481 588,-162.2 588,-153.671"/>
<polygon fill="grey" stroke="grey" points="591.5,-153.412 588,-143.412 584.5,-153.412 591.5,-153.412"/>
</g>
<!-- lexeme default -->
<g id="node11" class="node"><title>lexeme default</title>
<polygon fill="lightblue" stroke="black" points="967.5,-143 870.5,-143 870.5,-107 967.5,-107 967.5,-143"/>
<text text-anchor="middle" x="919" y="-121.3" font-family="Times,serif" font-size="14.00">lexeme default</text>
</g>
<!-- translationUnit&#45;&gt;lexeme default -->
<g id="edge10" class="edge"><title>translationUnit&#45;&gt;lexeme default</title>
<path fill="none" stroke="grey" d="M637.197,-190.704C696.771,-177.025 797.001,-154.012 860.482,-139.436"/>
<polygon fill="grey" stroke="grey" points="861.38,-142.821 870.343,-137.172 859.813,-135.999 861.38,-142.821"/>
</g>
<!-- ꞉default_1 -->
<g id="node3" class="node"><title>꞉default_1</title>
<path fill="lightblue" stroke="black" d="M11.5,-24C11.5,-24 104.5,-24 104.5,-24 110.5,-24 116.5,-30 116.5,-36 116.5,-36 116.5,-58 116.5,-58 116.5,-64 110.5,-70 104.5,-70 104.5,-70 11.5,-70 11.5,-70 5.5,-70 -0.5,-64 -0.5,-58 -0.5,-58 -0.5,-36 -0.5,-36 -0.5,-30 5.5,-24 11.5,-24"/>
<text text-anchor="middle" x="58" y="-54.8" font-family="Times,serif" font-size="14.00">action =&gt; [values]</text>
<polyline fill="none" stroke="black" points="-0.5,-47 116.5,-47 "/>
<text text-anchor="middle" x="58" y="-31.8" font-family="Times,serif" font-size="14.00">bless =&gt; ꞉꞉lhs</text>
</g>
<!-- ꞉default&#45;&gt;꞉default_1 -->
<g id="edge2" class="edge"><title>꞉default&#45;&gt;꞉default_1</title>
<path fill="none" stroke="grey" d="M290.237,-116.756C254.071,-107.515 189.892,-90.6771 126.508,-71.3959"/>
<polygon fill="grey" stroke="grey" points="127.343,-67.9913 116.756,-68.4079 125.292,-74.6841 127.343,-67.9913"/>
</g>
<!-- Cplusplus style comment -->
<g id="node5" class="node"><title>Cplusplus style comment</title>
<polygon fill="lightblue" stroke="black" points="289.25,-65 134.75,-65 134.75,-29 289.25,-29 289.25,-65"/>
<text text-anchor="middle" x="212" y="-43.3" font-family="Times,serif" font-size="14.00">Cplusplus style comment</text>
</g>
<!-- ꞉discard&#45;&gt;Cplusplus style comment -->
<g id="edge4" class="edge"><title>꞉discard&#45;&gt;Cplusplus style comment</title>
<path fill="none" stroke="grey" d="M558.725,-119.398C506.367,-110.997 393.337,-92.0871 299,-71 294.076,-69.8993 289.009,-68.7102 283.915,-67.4726"/>
<polygon fill="grey" stroke="grey" points="284.662,-64.0519 274.113,-65.0433 282.978,-70.8463 284.662,-64.0519"/>
</g>
<!-- C style comment -->
<g id="node6" class="node"><title>C style comment</title>
<polygon fill="lightblue" stroke="black" points="418,-65 308,-65 308,-29 418,-29 418,-65"/>
<text text-anchor="middle" x="363" y="-43.3" font-family="Times,serif" font-size="14.00">C style comment</text>
</g>
<!-- ꞉discard&#45;&gt;C style comment -->
<g id="edge5" class="edge"><title>꞉discard&#45;&gt;C style comment</title>
<path fill="none" stroke="grey" d="M558.541,-114.566C526.198,-104.147 472.772,-86.7552 427,-71 424.607,-70.1762 422.165,-69.3291 419.701,-68.4683"/>
<polygon fill="grey" stroke="grey" points="420.728,-65.1195 410.133,-65.1013 418.404,-71.7225 420.728,-65.1195"/>
</g>
<!-- MSVS annotation directive -->
<g id="node7" class="node"><title>MSVS annotation directive</title>
<polygon fill="lightblue" stroke="black" points="602,-65 436,-65 436,-29 602,-29 602,-65"/>
<text text-anchor="middle" x="519" y="-43.3" font-family="Times,serif" font-size="14.00">MSVS annotation directive</text>
</g>
<!-- ꞉discard&#45;&gt;MSVS annotation directive -->
<g id="edge6" class="edge"><title>꞉discard&#45;&gt;MSVS annotation directive</title>
<path fill="none" stroke="grey" d="M572.343,-106.754C563.256,-96.7458 551.654,-83.9664 541.592,-72.8836"/>
<polygon fill="grey" stroke="grey" points="543.908,-70.2285 534.595,-65.1773 538.726,-74.9338 543.908,-70.2285"/>
</g>
<!-- WS_many -->
<g id="node8" class="node"><title>WS_many</title>
<polygon fill="lightblue" stroke="black" points="695.25,-65 620.75,-65 620.75,-29 695.25,-29 695.25,-65"/>
<text text-anchor="middle" x="658" y="-43.3" font-family="Times,serif" font-size="14.00">WS_many</text>
</g>
<!-- ꞉discard&#45;&gt;WS_many -->
<g id="edge7" class="edge"><title>꞉discard&#45;&gt;WS_many</title>
<path fill="none" stroke="grey" d="M603.884,-106.754C613.192,-96.6487 625.102,-83.718 635.378,-72.5613"/>
<polygon fill="grey" stroke="grey" points="637.978,-74.904 642.179,-65.1773 632.83,-70.1616 637.978,-74.904"/>
</g>
<!-- ANYTHING_ELSE -->
<g id="node9" class="node"><title>ANYTHING_ELSE</title>
<polygon fill="lightblue" stroke="black" points="840.25,-65 713.75,-65 713.75,-29 840.25,-29 840.25,-65"/>
<text text-anchor="middle" x="777" y="-43.3" font-family="Times,serif" font-size="14.00">ANYTHING_ELSE</text>
</g>
<!-- ꞉discard&#45;&gt;ANYTHING_ELSE -->
<g id="edge8" class="edge"><title>꞉discard&#45;&gt;ANYTHING_ELSE</title>
<path fill="none" stroke="grey" d="M617.531,-112.125C646.286,-100.562 690.594,-82.7452 725.215,-68.8235"/>
<polygon fill="grey" stroke="grey" points="726.73,-71.9868 734.702,-65.0086 724.119,-65.4922 726.73,-71.9868"/>
</g>
<!-- Cpp style directive -->
<g id="node10" class="node"><title>Cpp style directive</title>
<polygon fill="lightblue" stroke="black" points="977.25,-65 858.75,-65 858.75,-29 977.25,-29 977.25,-65"/>
<text text-anchor="middle" x="918" y="-43.3" font-family="Times,serif" font-size="14.00">Cpp style directive</text>
</g>
<!-- ꞉discard&#45;&gt;Cpp style directive -->
<g id="edge9" class="edge"><title>꞉discard&#45;&gt;Cpp style directive</title>
<path fill="none" stroke="grey" d="M617.627,-119.192C666.32,-111.02 766.136,-93.1365 849,-71 852.397,-70.0926 855.871,-69.1105 859.365,-68.0807"/>
<polygon fill="grey" stroke="grey" points="860.676,-71.34 869.22,-65.0745 858.634,-64.6446 860.676,-71.34"/>
</g>
<!-- lexeme default_1 -->
<g id="node12" class="node"><title>lexeme default_1</title>
<path fill="lightblue" stroke="black" d="M1008,-29C1008,-29 1160,-29 1160,-29 1166,-29 1172,-35 1172,-41 1172,-41 1172,-53 1172,-53 1172,-59 1166,-65 1160,-65 1160,-65 1008,-65 1008,-65 1002,-65 996,-59 996,-53 996,-53 996,-41 996,-41 996,-35 1002,-29 1008,-29"/>
<text text-anchor="middle" x="1084" y="-43.3" font-family="Times,serif" font-size="14.00">action =&gt; [start,length,value]</text>
</g>
<!-- lexeme default&#45;&gt;lexeme default_1 -->
<g id="edge11" class="edge"><title>lexeme default&#45;&gt;lexeme default_1</title>
<path fill="none" stroke="grey" d="M956.029,-106.944C980.147,-95.8355 1011.8,-81.2542 1037.6,-69.3737"/>
<polygon fill="grey" stroke="grey" points="1039.19,-72.4929 1046.81,-65.1303 1036.26,-66.1349 1039.19,-72.4929"/>
</g>
</g>
</svg>
