<?xml version="1.0" encoding="UTF-8" standalone="no"?>
<!DOCTYPE svg PUBLIC "-//W3C//DTD SVG 1.1//EN"
 "http://www.w3.org/Graphics/SVG/1.1/DTD/svg11.dtd">
<!-- Generated by graphviz version 2.30.1 (20130611.0131)
 -->
<!-- Title: Perl Pages: 1 -->
<svg width="507pt" height="655pt"
 viewBox="0.00 0.00 507.00 655.00" xmlns="http://www.w3.org/2000/svg" xmlns:xlink="http://www.w3.org/1999/xlink">
<g id="graph0" class="graph" transform="scale(1 1) rotate(0) translate(4 651)">
<title>Perl</title>
<polygon fill="white" stroke="white" points="-4,5 -4,-651 504,-651 504,5 -4,5"/>
<text text-anchor="middle" x="249.5" y="-7.8" font-family="Times,serif" font-size="14.00">fake.1.bnf</text>
<!-- json -->
<g id="node1" class="node"><title>json</title>
<path fill="lightgreen" stroke="black" d="M209,-600C209,-600 239,-600 239,-600 245,-600 251,-606 251,-612 251,-612 251,-634 251,-634 251,-640 245,-646 239,-646 239,-646 209,-646 209,-646 203,-646 197,-640 197,-634 197,-634 197,-612 197,-612 197,-606 203,-600 209,-600"/>
<text text-anchor="middle" x="224" y="-630.8" font-family="Times,serif" font-size="14.00">:start</text>
<polyline fill="none" stroke="black" points="197,-623 251,-623 "/>
<text text-anchor="middle" x="224" y="-607.8" font-family="Times,serif" font-size="14.00">json</text>
</g>
<!-- ꞉discard -->
<g id="node2" class="node"><title>꞉discard</title>
<polygon fill="lightblue" stroke="black" points="112.25,-563 53.75,-563 53.75,-527 112.25,-527 112.25,-563"/>
<text text-anchor="middle" x="83" y="-541.3" font-family="Times,serif" font-size="14.00">꞉discard</text>
</g>
<!-- json&#45;&gt;꞉discard -->
<g id="edge1" class="edge"><title>json&#45;&gt;꞉discard</title>
<path fill="none" stroke="grey" d="M196.814,-607.346C175.384,-595.796 145.236,-579.546 121.353,-566.672"/>
<polygon fill="grey" stroke="grey" points="123,-563.584 112.537,-561.921 119.679,-569.746 123,-563.584"/>
</g>
<!-- object -->
<g id="node4" class="node"><title>object</title>
<polygon fill="white" stroke="black" points="251,-563 197,-563 197,-527 251,-527 251,-563"/>
<text text-anchor="middle" x="224" y="-541.3" font-family="Times,serif" font-size="14.00">object</text>
</g>
<!-- json&#45;&gt;object -->
<g id="edge3" class="edge"><title>json&#45;&gt;object</title>
<path fill="none" stroke="grey" d="M224,-599.609C224,-591.481 224,-582.2 224,-573.671"/>
<polygon fill="grey" stroke="grey" points="227.5,-573.412 224,-563.412 220.5,-573.412 227.5,-573.412"/>
</g>
<!-- array -->
<g id="node5" class="node"><title>array</title>
<polygon fill="white" stroke="black" points="381,-275 327,-275 327,-239 381,-239 381,-275"/>
<text text-anchor="middle" x="354" y="-253.3" font-family="Times,serif" font-size="14.00">array</text>
</g>
<!-- json&#45;&gt;array -->
<g id="edge4" class="edge"><title>json&#45;&gt;array</title>
<path fill="none" stroke="grey" d="M251.252,-607.082C289.372,-583.987 354,-535.73 354,-474 354,-474 354,-474 354,-400 354,-359.996 354,-313.653 354,-285.08"/>
<polygon fill="grey" stroke="grey" points="357.5,-285.049 354,-275.049 350.5,-285.049 357.5,-285.049"/>
</g>
<!-- whitespace -->
<g id="node3" class="node"><title>whitespace</title>
<polygon fill="lightblue" stroke="black" points="76.25,-491 -0.25,-491 -0.25,-455 76.25,-455 76.25,-491"/>
<text text-anchor="middle" x="38" y="-469.3" font-family="Times,serif" font-size="14.00">whitespace</text>
</g>
<!-- ꞉discard&#45;&gt;whitespace -->
<g id="edge2" class="edge"><title>꞉discard&#45;&gt;whitespace</title>
<path fill="none" stroke="grey" d="M71.8764,-526.697C66.645,-518.559 60.3001,-508.689 54.5222,-499.701"/>
<polygon fill="grey" stroke="grey" points="57.3474,-497.623 48.9956,-491.104 51.4591,-501.409 57.3474,-497.623"/>
</g>
<!-- [\\s] -->
<g id="node26" class="node"><title>[\\s]</title>
<polygon fill="white" stroke="black" points="58,-419 4,-419 4,-383 58,-383 58,-419"/>
<text text-anchor="middle" x="31" y="-397.3" font-family="Times,serif" font-size="14.00">[\s]</text>
</g>
<!-- whitespace&#45;&gt;[\\s] -->
<g id="edge34" class="edge"><title>whitespace&#45;&gt;[\\s]</title>
<path fill="none" stroke="grey" d="M36.2697,-454.697C35.4983,-446.983 34.5712,-437.712 33.7112,-429.112"/>
<polygon fill="grey" stroke="grey" points="37.1882,-428.706 32.7104,-419.104 30.2229,-429.403 37.1882,-428.706"/>
</g>
<!-- &#39;{&#39; &#39;}&#39; -->
<g id="node6" class="node"><title>&#39;{&#39; &#39;}&#39;</title>
<polygon fill="white" stroke="black" points="157,-491 103,-491 103,-455 157,-455 157,-491"/>
<text text-anchor="middle" x="130" y="-469.3" font-family="Times,serif" font-size="14.00">&#39;{&#39; &#39;}&#39;</text>
</g>
<!-- object&#45;&gt;&#39;{&#39; &#39;}&#39; -->
<g id="edge5" class="edge"><title>object&#45;&gt;&#39;{&#39; &#39;}&#39;</title>
<path fill="none" stroke="grey" d="M200.764,-526.697C188.812,-517.796 174.077,-506.823 161.153,-497.199"/>
<polygon fill="grey" stroke="grey" points="163.08,-494.27 152.969,-491.104 158.899,-499.884 163.08,-494.27"/>
</g>
<!-- &#39;{&#39; members &#39;}&#39; -->
<g id="node10" class="node"><title>&#39;{&#39; members &#39;}&#39;</title>
<polygon fill="white" stroke="black" points="272.5,-491 175.5,-491 175.5,-455 272.5,-455 272.5,-491"/>
<text text-anchor="middle" x="224" y="-469.3" font-family="Times,serif" font-size="14.00">&#39;{&#39; members &#39;}&#39;</text>
</g>
<!-- object&#45;&gt;&#39;{&#39; members &#39;}&#39; -->
<g id="edge9" class="edge"><title>object&#45;&gt;&#39;{&#39; members &#39;}&#39;</title>
<path fill="none" stroke="grey" d="M224,-526.697C224,-518.983 224,-509.712 224,-501.112"/>
<polygon fill="grey" stroke="grey" points="227.5,-501.104 224,-491.104 220.5,-501.104 227.5,-501.104"/>
</g>
<!-- &#39;[&#39; &#39;]&#39; -->
<g id="node15" class="node"><title>&#39;[&#39; &#39;]&#39;</title>
<polygon fill="white" stroke="black" points="472,-203 418,-203 418,-167 472,-167 472,-203"/>
<text text-anchor="middle" x="445" y="-181.3" font-family="Times,serif" font-size="14.00">&#39;[&#39; &#39;]&#39;</text>
</g>
<!-- array&#45;&gt;&#39;[&#39; &#39;]&#39; -->
<g id="edge19" class="edge"><title>array&#45;&gt;&#39;[&#39; &#39;]&#39;</title>
<path fill="none" stroke="grey" d="M376.494,-238.697C387.955,-229.881 402.058,-219.032 414.484,-209.474"/>
<polygon fill="grey" stroke="grey" points="416.972,-211.976 422.764,-203.104 412.704,-206.427 416.972,-211.976"/>
</g>
<!-- &#39;[&#39; elements &#39;]&#39; -->
<g id="node19" class="node"><title>&#39;[&#39; elements &#39;]&#39;</title>
<polygon fill="white" stroke="black" points="399.25,-203 308.75,-203 308.75,-167 399.25,-167 399.25,-203"/>
<text text-anchor="middle" x="354" y="-181.3" font-family="Times,serif" font-size="14.00">&#39;[&#39; elements &#39;]&#39;</text>
</g>
<!-- array&#45;&gt;&#39;[&#39; elements &#39;]&#39; -->
<g id="edge23" class="edge"><title>array&#45;&gt;&#39;[&#39; elements &#39;]&#39;</title>
<path fill="none" stroke="grey" d="M354,-238.697C354,-230.983 354,-221.712 354,-213.112"/>
<polygon fill="grey" stroke="grey" points="357.5,-213.104 354,-203.104 350.5,-213.104 357.5,-213.104"/>
</g>
<!-- &#39;{&#39; -->
<g id="node7" class="node"><title>&#39;{&#39;</title>
<polygon fill="white" stroke="black" points="130,-419 76,-419 76,-383 130,-383 130,-419"/>
<text text-anchor="middle" x="103" y="-397.3" font-family="Times,serif" font-size="14.00">&#39;{&#39;</text>
</g>
<!-- &#39;{&#39; &#39;}&#39;&#45;&gt;&#39;{&#39; -->
<g id="edge6" class="edge"><title>&#39;{&#39; &#39;}&#39;&#45;&gt;&#39;{&#39;</title>
<path fill="none" stroke="grey" d="M123.326,-454.697C120.285,-446.813 116.617,-437.304 113.239,-428.546"/>
<polygon fill="grey" stroke="grey" points="116.462,-427.175 109.597,-419.104 109.931,-429.694 116.462,-427.175"/>
</g>
<!-- &#39;}&#39; -->
<g id="node9" class="node"><title>&#39;}&#39;</title>
<polygon fill="white" stroke="black" points="202,-419 148,-419 148,-383 202,-383 202,-419"/>
<text text-anchor="middle" x="175" y="-397.3" font-family="Times,serif" font-size="14.00">&#39;}&#39;</text>
</g>
<!-- &#39;{&#39; &#39;}&#39;&#45;&gt;&#39;}&#39; -->
<g id="edge8" class="edge"><title>&#39;{&#39; &#39;}&#39;&#45;&gt;&#39;}&#39;</title>
<path fill="none" stroke="grey" d="M141.124,-454.697C146.355,-446.559 152.7,-436.689 158.478,-427.701"/>
<polygon fill="grey" stroke="grey" points="161.541,-429.409 164.004,-419.104 155.653,-425.623 161.541,-429.409"/>
</g>
<!-- &#39;{&#39;_0 -->
<g id="node8" class="node"><title>&#39;{&#39;_0</title>
<polygon fill="white" stroke="black" points="164.25,-347 41.75,-347 41.75,-311 164.25,-311 164.25,-347"/>
<text text-anchor="middle" x="103" y="-325.3" font-family="Times,serif" font-size="14.00">HASH(0x3696838)</text>
</g>
<!-- &#39;{&#39;&#45;&gt;&#39;{&#39;_0 -->
<g id="edge7" class="edge"><title>&#39;{&#39;&#45;&gt;&#39;{&#39;_0</title>
<path fill="none" stroke="grey" d="M97.0843,-382.697C96.2886,-374.983 96.0621,-365.712 96.4047,-357.112"/>
<polygon fill="grey" stroke="grey" points="99.8984,-357.324 97.105,-347.104 92.9154,-356.836 99.8984,-357.324"/>
</g>
<!-- &#39;{&#39;&#45;&gt;&#39;{&#39;_0 -->
<g id="edge11" class="edge"><title>&#39;{&#39;&#45;&gt;&#39;{&#39;_0</title>
<path fill="none" stroke="grey" d="M108.916,-382.697C109.711,-374.983 109.938,-365.712 109.595,-357.112"/>
<polygon fill="grey" stroke="grey" points="113.085,-356.836 108.895,-347.104 106.102,-357.324 113.085,-356.836"/>
</g>
<!-- &#39;{&#39; members &#39;}&#39;&#45;&gt;&#39;{&#39; -->
<g id="edge10" class="edge"><title>&#39;{&#39; members &#39;}&#39;&#45;&gt;&#39;{&#39;</title>
<path fill="none" stroke="grey" d="M194.4,-454.876C177.718,-445.225 156.751,-433.096 139.108,-422.889"/>
<polygon fill="grey" stroke="grey" points="140.634,-419.728 130.225,-417.75 137.129,-425.787 140.634,-419.728"/>
</g>
<!-- members -->
<g id="node11" class="node"><title>members</title>
<polygon fill="white" stroke="black" points="288,-419 220,-419 220,-383 288,-383 288,-419"/>
<text text-anchor="middle" x="254" y="-397.3" font-family="Times,serif" font-size="14.00">members</text>
</g>
<!-- &#39;{&#39; members &#39;}&#39;&#45;&gt;members -->
<g id="edge12" class="edge"><title>&#39;{&#39; members &#39;}&#39;&#45;&gt;members</title>
<path fill="none" stroke="grey" d="M231.416,-454.697C234.794,-446.813 238.87,-437.304 242.623,-428.546"/>
<polygon fill="grey" stroke="grey" points="245.947,-429.675 246.67,-419.104 239.513,-426.917 245.947,-429.675"/>
</g>
<!-- &#39;{&#39; members &#39;}&#39;&#45;&gt;&#39;}&#39; -->
<g id="edge13" class="edge"><title>&#39;{&#39; members &#39;}&#39;&#45;&gt;&#39;}&#39;</title>
<path fill="none" stroke="grey" d="M211.888,-454.697C206.132,-446.474 199.138,-436.483 192.794,-427.421"/>
<polygon fill="grey" stroke="grey" points="195.575,-425.29 186.973,-419.104 189.84,-429.304 195.575,-425.29"/>
</g>
<!-- value -->
<g id="node12" class="node"><title>value</title>
<polygon fill="white" stroke="black" points="294,-347 240,-347 240,-311 294,-311 294,-347"/>
<text text-anchor="middle" x="267" y="-325.3" font-family="Times,serif" font-size="14.00">value</text>
</g>
<!-- members&#45;&gt;value -->
<g id="edge14" class="edge"><title>members&#45;&gt;value</title>
<path fill="none" stroke="grey" d="M257.213,-382.697C258.646,-374.983 260.368,-365.712 261.965,-357.112"/>
<polygon fill="grey" stroke="grey" points="265.439,-357.575 263.823,-347.104 258.556,-356.297 265.439,-357.575"/>
</g>
<!-- int -->
<g id="node13" class="node"><title>int</title>
<polygon fill="white" stroke="black" points="218,-203 164,-203 164,-167 218,-167 218,-203"/>
<text text-anchor="middle" x="191" y="-181.3" font-family="Times,serif" font-size="14.00">int</text>
</g>
<!-- value&#45;&gt;int -->
<g id="edge15" class="edge"><title>value&#45;&gt;int</title>
<path fill="none" stroke="grey" d="M258.68,-310.777C249.872,-292.73 235.415,-263.633 222,-239 217.133,-230.063 211.584,-220.42 206.54,-211.842"/>
<polygon fill="grey" stroke="grey" points="209.43,-209.853 201.32,-203.034 203.408,-213.422 209.43,-209.853"/>
</g>
<!-- value&#45;&gt;object -->
<g id="edge16" class="edge"><title>value&#45;&gt;object</title>
<path fill="none" stroke="grey" d="M279.727,-347.155C286.286,-357.077 293.607,-370.117 297,-383 301.075,-398.472 298.746,-403.096 297,-419 293.423,-451.585 297.294,-462.556 281,-491 274.703,-501.992 265.374,-512.042 256.078,-520.364"/>
<polygon fill="grey" stroke="grey" points="253.701,-517.791 248.344,-526.932 258.232,-523.127 253.701,-517.791"/>
</g>
<!-- number -->
<g id="node14" class="node"><title>number</title>
<polygon fill="white" stroke="black" points="213.25,-275 154.75,-275 154.75,-239 213.25,-239 213.25,-275"/>
<text text-anchor="middle" x="184" y="-253.3" font-family="Times,serif" font-size="14.00">number</text>
</g>
<!-- value&#45;&gt;number -->
<g id="edge17" class="edge"><title>value&#45;&gt;number</title>
<path fill="none" stroke="grey" d="M246.483,-310.697C236.131,-301.965 223.414,-291.24 212.161,-281.75"/>
<polygon fill="grey" stroke="grey" points="214.182,-278.876 204.281,-275.104 209.669,-284.227 214.182,-278.876"/>
</g>
<!-- value&#45;&gt;array -->
<g id="edge18" class="edge"><title>value&#45;&gt;array</title>
<path fill="none" stroke="grey" d="M288.506,-310.697C299.463,-301.881 312.946,-291.032 324.825,-281.474"/>
<polygon fill="grey" stroke="grey" points="327.145,-284.1 332.742,-275.104 322.756,-278.646 327.145,-284.1"/>
</g>
<!-- digits -->
<g id="node21" class="node"><title>digits</title>
<polygon fill="white" stroke="black" points="218,-131 164,-131 164,-95 218,-95 218,-131"/>
<text text-anchor="middle" x="191" y="-109.3" font-family="Times,serif" font-size="14.00">digits</text>
</g>
<!-- int&#45;&gt;digits -->
<g id="edge30" class="edge"><title>int&#45;&gt;digits</title>
<path fill="none" stroke="grey" d="M191,-166.697C191,-158.983 191,-149.712 191,-141.112"/>
<polygon fill="grey" stroke="grey" points="194.5,-141.104 191,-131.104 187.5,-141.104 194.5,-141.104"/>
</g>
<!-- number&#45;&gt;int -->
<g id="edge29" class="edge"><title>number&#45;&gt;int</title>
<path fill="none" stroke="grey" d="M185.73,-238.697C186.502,-230.983 187.429,-221.712 188.289,-213.112"/>
<polygon fill="grey" stroke="grey" points="191.777,-213.403 189.29,-203.104 184.812,-212.706 191.777,-213.403"/>
</g>
<!-- &#39;[&#39; -->
<g id="node16" class="node"><title>&#39;[&#39;</title>
<polygon fill="white" stroke="black" points="465,-131 411,-131 411,-95 465,-95 465,-131"/>
<text text-anchor="middle" x="438" y="-109.3" font-family="Times,serif" font-size="14.00">&#39;[&#39;</text>
</g>
<!-- &#39;[&#39; &#39;]&#39;&#45;&gt;&#39;[&#39; -->
<g id="edge20" class="edge"><title>&#39;[&#39; &#39;]&#39;&#45;&gt;&#39;[&#39;</title>
<path fill="none" stroke="grey" d="M443.27,-166.697C442.498,-158.983 441.571,-149.712 440.711,-141.112"/>
<polygon fill="grey" stroke="grey" points="444.188,-140.706 439.71,-131.104 437.223,-141.403 444.188,-140.706"/>
</g>
<!-- &#39;]&#39; -->
<g id="node18" class="node"><title>&#39;]&#39;</title>
<polygon fill="white" stroke="black" points="391,-131 337,-131 337,-95 391,-95 391,-131"/>
<text text-anchor="middle" x="364" y="-109.3" font-family="Times,serif" font-size="14.00">&#39;]&#39;</text>
</g>
<!-- &#39;[&#39; &#39;]&#39;&#45;&gt;&#39;]&#39; -->
<g id="edge22" class="edge"><title>&#39;[&#39; &#39;]&#39;&#45;&gt;&#39;]&#39;</title>
<path fill="none" stroke="grey" d="M424.978,-166.697C414.874,-157.965 402.464,-147.24 391.482,-137.75"/>
<polygon fill="grey" stroke="grey" points="393.647,-134.995 383.792,-131.104 389.07,-140.291 393.647,-134.995"/>
</g>
<!-- &#39;[&#39;_0 -->
<g id="node17" class="node"><title>&#39;[&#39;_0</title>
<polygon fill="white" stroke="black" points="499,-59 377,-59 377,-23 499,-23 499,-59"/>
<text text-anchor="middle" x="438" y="-37.3" font-family="Times,serif" font-size="14.00">HASH(0x33eb258)</text>
</g>
<!-- &#39;[&#39;&#45;&gt;&#39;[&#39;_0 -->
<g id="edge21" class="edge"><title>&#39;[&#39;&#45;&gt;&#39;[&#39;_0</title>
<path fill="none" stroke="grey" d="M432.084,-94.6966C431.289,-86.9827 431.062,-77.7125 431.405,-69.1124"/>
<polygon fill="grey" stroke="grey" points="434.898,-69.3243 432.105,-59.1043 427.915,-68.8356 434.898,-69.3243"/>
</g>
<!-- &#39;[&#39;&#45;&gt;&#39;[&#39;_0 -->
<g id="edge25" class="edge"><title>&#39;[&#39;&#45;&gt;&#39;[&#39;_0</title>
<path fill="none" stroke="grey" d="M443.916,-94.6966C444.711,-86.9827 444.938,-77.7125 444.595,-69.1124"/>
<polygon fill="grey" stroke="grey" points="448.085,-68.8356 443.895,-59.1043 441.102,-69.3243 448.085,-68.8356"/>
</g>
<!-- &#39;[&#39; elements &#39;]&#39;&#45;&gt;&#39;[&#39; -->
<g id="edge24" class="edge"><title>&#39;[&#39; elements &#39;]&#39;&#45;&gt;&#39;[&#39;</title>
<path fill="none" stroke="grey" d="M374.764,-166.697C385.241,-157.965 398.111,-147.24 409.5,-137.75"/>
<polygon fill="grey" stroke="grey" points="412.033,-140.195 417.475,-131.104 407.552,-134.817 412.033,-140.195"/>
</g>
<!-- elements -->
<g id="node20" class="node"><title>elements</title>
<polygon fill="white" stroke="black" points="314.25,-131 249.75,-131 249.75,-95 314.25,-95 314.25,-131"/>
<text text-anchor="middle" x="282" y="-109.3" font-family="Times,serif" font-size="14.00">elements</text>
</g>
<!-- &#39;[&#39; elements &#39;]&#39;&#45;&gt;elements -->
<g id="edge26" class="edge"><title>&#39;[&#39; elements &#39;]&#39;&#45;&gt;elements</title>
<path fill="none" stroke="grey" d="M336.202,-166.697C327.396,-158.135 316.618,-147.656 306.999,-138.304"/>
<polygon fill="grey" stroke="grey" points="309.203,-135.566 299.593,-131.104 304.323,-140.585 309.203,-135.566"/>
</g>
<!-- &#39;[&#39; elements &#39;]&#39;&#45;&gt;&#39;]&#39; -->
<g id="edge27" class="edge"><title>&#39;[&#39; elements &#39;]&#39;&#45;&gt;&#39;]&#39;</title>
<path fill="none" stroke="grey" d="M356.472,-166.697C357.574,-158.983 358.898,-149.712 360.127,-141.112"/>
<polygon fill="grey" stroke="grey" points="363.607,-141.499 361.557,-131.104 356.677,-140.509 363.607,-141.499"/>
</g>
<!-- elements&#45;&gt;value -->
<g id="edge28" class="edge"><title>elements&#45;&gt;value</title>
<path fill="none" stroke="grey" d="M280.792,-131.232C278.192,-168.324 272.048,-255.981 268.913,-300.712"/>
<polygon fill="grey" stroke="grey" points="265.41,-300.629 268.202,-310.849 272.393,-301.118 265.41,-300.629"/>
</g>
<!-- [\\d] -->
<g id="node22" class="node"><title>[\\d]</title>
<polygon fill="white" stroke="black" points="218,-59 164,-59 164,-23 218,-23 218,-59"/>
<text text-anchor="middle" x="191" y="-37.3" font-family="Times,serif" font-size="14.00">[\d]</text>
</g>
<!-- digits&#45;&gt;[\\d] -->
<g id="edge31" class="edge"><title>digits&#45;&gt;[\\d]</title>
<path fill="none" stroke="grey" d="M191,-94.6966C191,-86.9827 191,-77.7125 191,-69.1124"/>
<polygon fill="grey" stroke="grey" points="194.5,-69.1043 191,-59.1043 187.5,-69.1044 194.5,-69.1043"/>
</g>
<!-- &#39;,&#39; -->
<g id="node23" class="node"><title>&#39;,&#39;</title>
<polygon fill="white" stroke="black" points="436,-563 382,-563 382,-527 436,-527 436,-563"/>
<text text-anchor="middle" x="409" y="-541.3" font-family="Times,serif" font-size="14.00">&#39;,&#39;</text>
</g>
<!-- comma1 -->
<g id="node24" class="node"><title>comma1</title>
<polygon fill="lightgrey" stroke="black" points="399.25,-641 334.75,-641 334.75,-605 399.25,-605 399.25,-641"/>
<text text-anchor="middle" x="367" y="-619.3" font-family="Times,serif" font-size="14.00">comma1</text>
</g>
<!-- comma1&#45;&gt;&#39;,&#39; -->
<g id="edge32" class="edge"><title>comma1&#45;&gt;&#39;,&#39;</title>
<path fill="none" stroke="grey" d="M376.53,-604.754C381.847,-595.135 388.578,-582.955 394.531,-572.182"/>
<polygon fill="grey" stroke="grey" points="397.734,-573.623 399.507,-563.177 391.607,-570.237 397.734,-573.623"/>
</g>
<!-- comma2 -->
<g id="node25" class="node"><title>comma2</title>
<polygon fill="lightgrey" stroke="black" points="482.25,-641 417.75,-641 417.75,-605 482.25,-605 482.25,-641"/>
<text text-anchor="middle" x="450" y="-619.3" font-family="Times,serif" font-size="14.00">comma2</text>
</g>
<!-- comma2&#45;&gt;&#39;,&#39; -->
<g id="edge33" class="edge"><title>comma2&#45;&gt;&#39;,&#39;</title>
<path fill="none" stroke="grey" d="M440.696,-604.754C435.507,-595.135 428.936,-582.955 423.125,-572.182"/>
<polygon fill="grey" stroke="grey" points="426.095,-570.317 418.267,-563.177 419.934,-573.64 426.095,-570.317"/>
</g>
</g>
</svg>
