<?xml version="1.0" encoding="UTF-8" standalone="no"?>
<!DOCTYPE svg PUBLIC "-//W3C//DTD SVG 1.1//EN"
 "http://www.w3.org/Graphics/SVG/1.1/DTD/svg11.dtd">
<!-- Generated by graphviz version 2.30.1 (20130611.0131)
 -->
<!-- Title: Perl Pages: 1 -->
<svg width="1201pt" height="659pt"
 viewBox="0.00 0.00 1201.00 659.00" xmlns="http://www.w3.org/2000/svg" xmlns:xlink="http://www.w3.org/1999/xlink">
<g id="graph0" class="graph" transform="scale(1 1) rotate(0) translate(4 655)">
<title>Perl</title>
<polygon fill="white" stroke="white" points="-4,5 -4,-655 1198,-655 1198,5 -4,5"/>
<text text-anchor="middle" x="596.5" y="-7.8" font-family="Times,serif" font-size="14.00">fake.1.bnf</text>
<!-- json -->
<g id="node1" class="node"><title>json</title>
<path fill="lightgreen" stroke="black" d="M479,-604C479,-604 509,-604 509,-604 515,-604 521,-610 521,-616 521,-616 521,-638 521,-638 521,-644 515,-650 509,-650 509,-650 479,-650 479,-650 473,-650 467,-644 467,-638 467,-638 467,-616 467,-616 467,-610 473,-604 479,-604"/>
<text text-anchor="middle" x="494" y="-634.8" font-family="Times,serif" font-size="14.00">:start</text>
<polyline fill="none" stroke="black" points="467,-627 521,-627 "/>
<text text-anchor="middle" x="494" y="-611.8" font-family="Times,serif" font-size="14.00">json</text>
</g>
<!-- ꞉discard -->
<g id="node2" class="node"><title>꞉discard</title>
<polygon fill="lightblue" stroke="black" points="367.25,-567 308.75,-567 308.75,-531 367.25,-531 367.25,-567"/>
<text text-anchor="middle" x="338" y="-545.3" font-family="Times,serif" font-size="14.00">꞉discard</text>
</g>
<!-- json&#45;&gt;꞉discard -->
<g id="edge1" class="edge"><title>json&#45;&gt;꞉discard</title>
<path fill="none" stroke="grey" d="M466.827,-612.762C441.886,-600.611 404.666,-582.478 376.637,-568.823"/>
<polygon fill="grey" stroke="grey" points="378.037,-565.612 367.514,-564.379 374.971,-571.905 378.037,-565.612"/>
</g>
<!-- object -->
<g id="node4" class="node"><title>object</title>
<polygon fill="white" stroke="black" points="521,-567 467,-567 467,-531 521,-531 521,-567"/>
<text text-anchor="middle" x="494" y="-545.3" font-family="Times,serif" font-size="14.00">object</text>
</g>
<!-- json&#45;&gt;object -->
<g id="edge3" class="edge"><title>json&#45;&gt;object</title>
<path fill="none" stroke="grey" d="M494,-603.609C494,-595.481 494,-586.2 494,-577.671"/>
<polygon fill="grey" stroke="grey" points="497.5,-577.412 494,-567.412 490.5,-577.412 497.5,-577.412"/>
</g>
<!-- array -->
<g id="node5" class="node"><title>array</title>
<polygon fill="white" stroke="black" points="786,-277 732,-277 732,-241 786,-241 786,-277"/>
<text text-anchor="middle" x="759" y="-255.3" font-family="Times,serif" font-size="14.00">array</text>
</g>
<!-- json&#45;&gt;array -->
<g id="edge4" class="edge"><title>json&#45;&gt;array</title>
<path fill="none" stroke="grey" d="M521.333,-623.337C588.087,-615.178 754,-584.217 754,-478 754,-478 754,-478 754,-404 754,-363.408 756.009,-316.419 757.48,-287.451"/>
<polygon fill="grey" stroke="grey" points="760.985,-287.452 758.012,-277.283 753.994,-287.086 760.985,-287.452"/>
</g>
<!-- whitespace -->
<g id="node3" class="node"><title>whitespace</title>
<polygon fill="lightblue" stroke="black" points="339.25,-495 262.75,-495 262.75,-459 339.25,-459 339.25,-495"/>
<text text-anchor="middle" x="301" y="-473.3" font-family="Times,serif" font-size="14.00">whitespace</text>
</g>
<!-- ꞉discard&#45;&gt;whitespace -->
<g id="edge2" class="edge"><title>꞉discard&#45;&gt;whitespace</title>
<path fill="none" stroke="grey" d="M328.854,-530.697C324.597,-522.644 319.444,-512.894 314.734,-503.982"/>
<polygon fill="grey" stroke="grey" points="317.808,-502.31 310.041,-495.104 311.62,-505.581 317.808,-502.31"/>
</g>
<!-- [\\s] -->
<g id="node32" class="node"><title>[\\s]</title>
<polygon fill="white" stroke="black" points="298,-423 244,-423 244,-387 298,-387 298,-423"/>
<text text-anchor="middle" x="271" y="-401.3" font-family="Times,serif" font-size="14.00">[\s]</text>
</g>
<!-- whitespace&#45;&gt;[\\s] -->
<g id="edge40" class="edge"><title>whitespace&#45;&gt;[\\s]</title>
<path fill="none" stroke="grey" d="M293.584,-458.697C290.206,-450.813 286.13,-441.304 282.377,-432.546"/>
<polygon fill="grey" stroke="grey" points="285.487,-430.917 278.33,-423.104 279.053,-433.675 285.487,-430.917"/>
</g>
<!-- &#39;{&#39; &#39;}&#39; -->
<g id="node6" class="node"><title>&#39;{&#39; &#39;}&#39;</title>
<polygon fill="white" stroke="black" points="427,-495 373,-495 373,-459 427,-459 427,-495"/>
<text text-anchor="middle" x="400" y="-473.3" font-family="Times,serif" font-size="14.00">&#39;{&#39; &#39;}&#39;</text>
</g>
<!-- object&#45;&gt;&#39;{&#39; &#39;}&#39; -->
<g id="edge5" class="edge"><title>object&#45;&gt;&#39;{&#39; &#39;}&#39;</title>
<path fill="none" stroke="grey" d="M470.764,-530.697C458.812,-521.796 444.077,-510.823 431.153,-501.199"/>
<polygon fill="grey" stroke="grey" points="433.08,-498.27 422.969,-495.104 428.899,-503.884 433.08,-498.27"/>
</g>
<!-- &#39;{&#39; members &#39;}&#39; -->
<g id="node11" class="node"><title>&#39;{&#39; members &#39;}&#39;</title>
<polygon fill="white" stroke="black" points="542.5,-495 445.5,-495 445.5,-459 542.5,-459 542.5,-495"/>
<text text-anchor="middle" x="494" y="-473.3" font-family="Times,serif" font-size="14.00">&#39;{&#39; members &#39;}&#39;</text>
</g>
<!-- object&#45;&gt;&#39;{&#39; members &#39;}&#39; -->
<g id="edge10" class="edge"><title>object&#45;&gt;&#39;{&#39; members &#39;}&#39;</title>
<path fill="none" stroke="grey" d="M494,-530.697C494,-522.983 494,-513.712 494,-505.112"/>
<polygon fill="grey" stroke="grey" points="497.5,-505.104 494,-495.104 490.5,-505.104 497.5,-505.104"/>
</g>
<!-- &#39;[&#39; &#39;]&#39; -->
<g id="node18" class="node"><title>&#39;[&#39; &#39;]&#39;</title>
<polygon fill="white" stroke="black" points="882,-205 828,-205 828,-169 882,-169 882,-205"/>
<text text-anchor="middle" x="855" y="-183.3" font-family="Times,serif" font-size="14.00">&#39;[&#39; &#39;]&#39;</text>
</g>
<!-- array&#45;&gt;&#39;[&#39; &#39;]&#39; -->
<g id="edge22" class="edge"><title>array&#45;&gt;&#39;[&#39; &#39;]&#39;</title>
<path fill="none" stroke="grey" d="M782.73,-240.697C794.937,-231.796 809.985,-220.823 823.184,-211.199"/>
<polygon fill="grey" stroke="grey" points="825.525,-213.824 831.543,-205.104 821.4,-208.168 825.525,-213.824"/>
</g>
<!-- &#39;[&#39; elements &#39;]&#39; -->
<g id="node23" class="node"><title>&#39;[&#39; elements &#39;]&#39;</title>
<polygon fill="white" stroke="black" points="809.25,-205 718.75,-205 718.75,-169 809.25,-169 809.25,-205"/>
<text text-anchor="middle" x="764" y="-183.3" font-family="Times,serif" font-size="14.00">&#39;[&#39; elements &#39;]&#39;</text>
</g>
<!-- array&#45;&gt;&#39;[&#39; elements &#39;]&#39; -->
<g id="edge27" class="edge"><title>array&#45;&gt;&#39;[&#39; elements &#39;]&#39;</title>
<path fill="none" stroke="grey" d="M760.236,-240.697C760.787,-232.983 761.449,-223.712 762.063,-215.112"/>
<polygon fill="grey" stroke="grey" points="765.557,-215.328 762.778,-205.104 758.575,-214.83 765.557,-215.328"/>
</g>
<!-- &#39;{&#39; -->
<g id="node7" class="node"><title>&#39;{&#39;</title>
<polygon fill="white" stroke="black" points="442,-423 388,-423 388,-387 442,-387 442,-423"/>
<text text-anchor="middle" x="415" y="-401.3" font-family="Times,serif" font-size="14.00">&#39;{&#39;</text>
</g>
<!-- &#39;{&#39; &#39;}&#39;&#45;&gt;&#39;{&#39; -->
<g id="edge6" class="edge"><title>&#39;{&#39; &#39;}&#39;&#45;&gt;&#39;{&#39;</title>
<path fill="none" stroke="grey" d="M403.708,-458.697C405.361,-450.983 407.347,-441.712 409.19,-433.112"/>
<polygon fill="grey" stroke="grey" points="412.662,-433.616 411.335,-423.104 405.817,-432.149 412.662,-433.616"/>
</g>
<!-- &#39;}&#39; -->
<g id="node9" class="node"><title>&#39;}&#39;</title>
<polygon fill="white" stroke="black" points="370,-423 316,-423 316,-387 370,-387 370,-423"/>
<text text-anchor="middle" x="343" y="-401.3" font-family="Times,serif" font-size="14.00">&#39;}&#39;</text>
</g>
<!-- &#39;{&#39; &#39;}&#39;&#45;&gt;&#39;}&#39; -->
<g id="edge8" class="edge"><title>&#39;{&#39; &#39;}&#39;&#45;&gt;&#39;}&#39;</title>
<path fill="none" stroke="grey" d="M385.91,-458.697C379.077,-450.305 370.743,-440.07 363.244,-430.861"/>
<polygon fill="grey" stroke="grey" points="365.956,-428.649 356.928,-423.104 360.528,-433.069 365.956,-428.649"/>
</g>
<!-- &#39;{&#39;_0 -->
<g id="node8" class="node"><title>&#39;{&#39;_0</title>
<path fill="white" stroke="black" d="M343,-314C343,-314 487,-314 487,-314 493,-314 499,-320 499,-326 499,-326 499,-338 499,-338 499,-344 493,-350 487,-350 487,-350 343,-350 343,-350 337,-350 331,-344 331,-338 331,-338 331,-326 331,-326 331,-320 337,-314 343,-314"/>
<text text-anchor="middle" x="415" y="-328.3" font-family="Times,serif" font-size="14.00">action =&gt; do_empty_object</text>
</g>
<!-- &#39;{&#39;&#45;&gt;&#39;{&#39;_0 -->
<g id="edge7" class="edge"><title>&#39;{&#39;&#45;&gt;&#39;{&#39;_0</title>
<path fill="none" stroke="grey" d="M409.122,-386.813C408.282,-378.789 408.049,-369.047 408.422,-360.069"/>
<polygon fill="grey" stroke="grey" points="411.918,-360.253 409.138,-350.029 404.936,-359.754 411.918,-360.253"/>
</g>
<!-- &#39;{&#39;&#45;&gt;&#39;{&#39;_0 -->
<g id="edge12" class="edge"><title>&#39;{&#39;&#45;&gt;&#39;{&#39;_0</title>
<path fill="none" stroke="grey" d="M420.878,-386.813C421.718,-378.789 421.951,-369.047 421.578,-360.069"/>
<polygon fill="grey" stroke="grey" points="425.064,-359.754 420.862,-350.029 418.082,-360.253 425.064,-359.754"/>
</g>
<!-- &#39;}&#39;_1 -->
<g id="node10" class="node"><title>&#39;}&#39;_1</title>
<path fill="white" stroke="black" d="M157,-314C157,-314 301,-314 301,-314 307,-314 313,-320 313,-326 313,-326 313,-338 313,-338 313,-344 307,-350 301,-350 301,-350 157,-350 157,-350 151,-350 145,-344 145,-338 145,-338 145,-326 145,-326 145,-320 151,-314 157,-314"/>
<text text-anchor="middle" x="229" y="-328.3" font-family="Times,serif" font-size="14.00">action =&gt; do_empty_object</text>
</g>
<!-- &#39;}&#39;&#45;&gt;&#39;}&#39;_1 -->
<g id="edge9" class="edge"><title>&#39;}&#39;&#45;&gt;&#39;}&#39;_1</title>
<path fill="none" stroke="grey" d="M315.984,-387.174C300.873,-377.763 281.832,-365.904 265.42,-355.683"/>
<polygon fill="grey" stroke="grey" points="266.953,-352.514 256.614,-350.198 263.252,-358.456 266.953,-352.514"/>
</g>
<!-- &#39;}&#39;_2 -->
<g id="node14" class="node"><title>&#39;}&#39;_2</title>
<path fill="white" stroke="black" d="M11.5,-314C11.5,-314 114.5,-314 114.5,-314 120.5,-314 126.5,-320 126.5,-326 126.5,-326 126.5,-338 126.5,-338 126.5,-344 120.5,-350 114.5,-350 114.5,-350 11.5,-350 11.5,-350 5.5,-350 -0.5,-344 -0.5,-338 -0.5,-338 -0.5,-326 -0.5,-326 -0.5,-320 5.5,-314 11.5,-314"/>
<text text-anchor="middle" x="63" y="-328.3" font-family="Times,serif" font-size="14.00">action =&gt; do_object</text>
</g>
<!-- &#39;}&#39;&#45;&gt;&#39;}&#39;_2 -->
<g id="edge16" class="edge"><title>&#39;}&#39;&#45;&gt;&#39;}&#39;_2</title>
<path fill="none" stroke="grey" d="M315.756,-390.328C312.838,-389.107 309.883,-387.969 307,-387 236.403,-363.264 213.58,-367.855 136.823,-351.106"/>
<polygon fill="grey" stroke="grey" points="137.193,-347.602 126.671,-348.836 135.666,-354.434 137.193,-347.602"/>
</g>
<!-- &#39;{&#39; members &#39;}&#39;&#45;&gt;&#39;{&#39; -->
<g id="edge11" class="edge"><title>&#39;{&#39; members &#39;}&#39;&#45;&gt;&#39;{&#39;</title>
<path fill="none" stroke="grey" d="M474.472,-458.697C464.618,-449.965 452.514,-439.24 441.804,-429.75"/>
<polygon fill="grey" stroke="grey" points="444.109,-427.117 434.303,-423.104 439.467,-432.356 444.109,-427.117"/>
</g>
<!-- members -->
<g id="node12" class="node"><title>members</title>
<polygon fill="white" stroke="black" points="615,-423 547,-423 547,-387 615,-387 615,-423"/>
<text text-anchor="middle" x="581" y="-401.3" font-family="Times,serif" font-size="14.00">members</text>
</g>
<!-- &#39;{&#39; members &#39;}&#39;&#45;&gt;members -->
<g id="edge13" class="edge"><title>&#39;{&#39; members &#39;}&#39;&#45;&gt;members</title>
<path fill="none" stroke="grey" d="M515.506,-458.697C526.463,-449.881 539.946,-439.032 551.825,-429.474"/>
<polygon fill="grey" stroke="grey" points="554.145,-432.1 559.742,-423.104 549.756,-426.646 554.145,-432.1"/>
</g>
<!-- &#39;{&#39; members &#39;}&#39;&#45;&gt;&#39;}&#39; -->
<g id="edge15" class="edge"><title>&#39;{&#39; members &#39;}&#39;&#45;&gt;&#39;}&#39;</title>
<path fill="none" stroke="grey" d="M456.669,-458.902C436.173,-449.49 410.1,-437.479 379.355,-423.148"/>
<polygon fill="grey" stroke="grey" points="380.656,-419.893 370.114,-418.837 377.696,-426.237 380.656,-419.893"/>
</g>
<!-- members_1 -->
<g id="node13" class="node"><title>members_1</title>
<path fill="white" stroke="black" d="M529.5,-314C529.5,-314 632.5,-314 632.5,-314 638.5,-314 644.5,-320 644.5,-326 644.5,-326 644.5,-338 644.5,-338 644.5,-344 638.5,-350 632.5,-350 632.5,-350 529.5,-350 529.5,-350 523.5,-350 517.5,-344 517.5,-338 517.5,-338 517.5,-326 517.5,-326 517.5,-320 523.5,-314 529.5,-314"/>
<text text-anchor="middle" x="581" y="-328.3" font-family="Times,serif" font-size="14.00">action =&gt; do_object</text>
</g>
<!-- members&#45;&gt;members_1 -->
<g id="edge14" class="edge"><title>members&#45;&gt;members_1</title>
<path fill="none" stroke="grey" d="M581,-386.813C581,-378.789 581,-369.047 581,-360.069"/>
<polygon fill="grey" stroke="grey" points="584.5,-360.029 581,-350.029 577.5,-360.029 584.5,-360.029"/>
</g>
<!-- value -->
<g id="node15" class="node"><title>value</title>
<polygon fill="white" stroke="black" points="717,-350 663,-350 663,-314 717,-314 717,-350"/>
<text text-anchor="middle" x="690" y="-328.3" font-family="Times,serif" font-size="14.00">value</text>
</g>
<!-- members&#45;&gt;value -->
<g id="edge17" class="edge"><title>members&#45;&gt;value</title>
<path fill="none" stroke="grey" d="M607.108,-386.994C621.563,-377.579 639.713,-365.755 655.343,-355.575"/>
<polygon fill="grey" stroke="grey" points="657.258,-358.504 663.727,-350.114 653.438,-352.639 657.258,-358.504"/>
</g>
<!-- int -->
<g id="node16" class="node"><title>int</title>
<polygon fill="white" stroke="black" points="601,-205 547,-205 547,-169 601,-169 601,-205"/>
<text text-anchor="middle" x="574" y="-183.3" font-family="Times,serif" font-size="14.00">int</text>
</g>
<!-- value&#45;&gt;int -->
<g id="edge18" class="edge"><title>value&#45;&gt;int</title>
<path fill="none" stroke="grey" d="M662.745,-317.299C635.717,-303.481 597.669,-283.316 593,-277 579.827,-259.181 575.385,-234.173 574.062,-215.201"/>
<polygon fill="grey" stroke="grey" points="577.553,-214.93 573.605,-205.098 570.56,-215.246 577.553,-214.93"/>
</g>
<!-- value&#45;&gt;object -->
<g id="edge19" class="edge"><title>value&#45;&gt;object</title>
<path fill="none" stroke="grey" d="M678.604,-350.2C666.018,-368.781 644.774,-398.954 624,-423 594.209,-457.484 583.912,-463.481 551,-495 540.989,-504.587 529.849,-515.001 520.092,-524.039"/>
<polygon fill="grey" stroke="grey" points="517.581,-521.594 512.612,-530.951 522.332,-526.735 517.581,-521.594"/>
</g>
<!-- number -->
<g id="node17" class="node"><title>number</title>
<polygon fill="white" stroke="black" points="661.25,-277 602.75,-277 602.75,-241 661.25,-241 661.25,-277"/>
<text text-anchor="middle" x="632" y="-255.3" font-family="Times,serif" font-size="14.00">number</text>
</g>
<!-- value&#45;&gt;number -->
<g id="edge20" class="edge"><title>value&#45;&gt;number</title>
<path fill="none" stroke="grey" d="M675.96,-313.813C668.907,-305.179 660.228,-294.555 652.45,-285.034"/>
<polygon fill="grey" stroke="grey" points="654.948,-282.559 645.911,-277.029 649.527,-286.988 654.948,-282.559"/>
</g>
<!-- value&#45;&gt;array -->
<g id="edge21" class="edge"><title>value&#45;&gt;array</title>
<path fill="none" stroke="grey" d="M706.703,-313.813C715.263,-305.005 725.836,-294.125 735.231,-284.458"/>
<polygon fill="grey" stroke="grey" points="737.991,-286.64 742.451,-277.029 732.971,-281.761 737.991,-286.64"/>
</g>
<!-- digits -->
<g id="node27" class="node"><title>digits</title>
<polygon fill="white" stroke="black" points="572,-133 518,-133 518,-97 572,-97 572,-133"/>
<text text-anchor="middle" x="545" y="-111.3" font-family="Times,serif" font-size="14.00">digits</text>
</g>
<!-- int&#45;&gt;digits -->
<g id="edge36" class="edge"><title>int&#45;&gt;digits</title>
<path fill="none" stroke="grey" d="M566.831,-168.697C563.565,-160.813 559.626,-151.304 555.998,-142.546"/>
<polygon fill="grey" stroke="grey" points="559.147,-141.003 552.086,-133.104 552.68,-143.683 559.147,-141.003"/>
</g>
<!-- number&#45;&gt;int -->
<g id="edge35" class="edge"><title>number&#45;&gt;int</title>
<path fill="none" stroke="grey" d="M617.663,-240.697C610.709,-232.305 602.23,-222.07 594.599,-212.861"/>
<polygon fill="grey" stroke="grey" points="597.247,-210.571 588.172,-205.104 591.857,-215.038 597.247,-210.571"/>
</g>
<!-- &#39;[&#39; -->
<g id="node19" class="node"><title>&#39;[&#39;</title>
<polygon fill="white" stroke="black" points="817,-133 763,-133 763,-97 817,-97 817,-133"/>
<text text-anchor="middle" x="790" y="-111.3" font-family="Times,serif" font-size="14.00">&#39;[&#39;</text>
</g>
<!-- &#39;[&#39; &#39;]&#39;&#45;&gt;&#39;[&#39; -->
<g id="edge23" class="edge"><title>&#39;[&#39; &#39;]&#39;&#45;&gt;&#39;[&#39;</title>
<path fill="none" stroke="grey" d="M838.933,-168.697C831.061,-160.22 821.445,-149.864 812.827,-140.583"/>
<polygon fill="grey" stroke="grey" points="815.252,-138.051 805.883,-133.104 810.122,-142.814 815.252,-138.051"/>
</g>
<!-- &#39;]&#39; -->
<g id="node21" class="node"><title>&#39;]&#39;</title>
<polygon fill="white" stroke="black" points="943,-133 889,-133 889,-97 943,-97 943,-133"/>
<text text-anchor="middle" x="916" y="-111.3" font-family="Times,serif" font-size="14.00">&#39;]&#39;</text>
</g>
<!-- &#39;[&#39; &#39;]&#39;&#45;&gt;&#39;]&#39; -->
<g id="edge25" class="edge"><title>&#39;[&#39; &#39;]&#39;&#45;&gt;&#39;]&#39;</title>
<path fill="none" stroke="grey" d="M870.079,-168.697C877.392,-160.305 886.31,-150.07 894.335,-140.861"/>
<polygon fill="grey" stroke="grey" points="897.164,-142.943 901.095,-133.104 891.886,-138.344 897.164,-142.943"/>
</g>
<!-- &#39;[&#39;_0 -->
<g id="node20" class="node"><title>&#39;[&#39;_0</title>
<path fill="white" stroke="black" d="M720.5,-24C720.5,-24 859.5,-24 859.5,-24 865.5,-24 871.5,-30 871.5,-36 871.5,-36 871.5,-48 871.5,-48 871.5,-54 865.5,-60 859.5,-60 859.5,-60 720.5,-60 720.5,-60 714.5,-60 708.5,-54 708.5,-48 708.5,-48 708.5,-36 708.5,-36 708.5,-30 714.5,-24 720.5,-24"/>
<text text-anchor="middle" x="790" y="-38.3" font-family="Times,serif" font-size="14.00">action =&gt; do_empty_array</text>
</g>
<!-- &#39;[&#39;&#45;&gt;&#39;[&#39;_0 -->
<g id="edge24" class="edge"><title>&#39;[&#39;&#45;&gt;&#39;[&#39;_0</title>
<path fill="none" stroke="grey" d="M784.122,-96.8129C783.282,-88.7895 783.049,-79.0475 783.422,-70.0691"/>
<polygon fill="grey" stroke="grey" points="786.918,-70.2526 784.138,-60.0288 779.936,-69.7544 786.918,-70.2526"/>
</g>
<!-- &#39;[&#39;&#45;&gt;&#39;[&#39;_0 -->
<g id="edge29" class="edge"><title>&#39;[&#39;&#45;&gt;&#39;[&#39;_0</title>
<path fill="none" stroke="grey" d="M795.878,-96.8129C796.718,-88.7895 796.951,-79.0475 796.578,-70.0691"/>
<polygon fill="grey" stroke="grey" points="800.064,-69.7544 795.862,-60.0288 793.082,-70.2526 800.064,-69.7544"/>
</g>
<!-- &#39;]&#39;_1 -->
<g id="node22" class="node"><title>&#39;]&#39;_1</title>
<path fill="white" stroke="black" d="M901.5,-24C901.5,-24 1040.5,-24 1040.5,-24 1046.5,-24 1052.5,-30 1052.5,-36 1052.5,-36 1052.5,-48 1052.5,-48 1052.5,-54 1046.5,-60 1040.5,-60 1040.5,-60 901.5,-60 901.5,-60 895.5,-60 889.5,-54 889.5,-48 889.5,-48 889.5,-36 889.5,-36 889.5,-30 895.5,-24 901.5,-24"/>
<text text-anchor="middle" x="971" y="-38.3" font-family="Times,serif" font-size="14.00">action =&gt; do_empty_array</text>
</g>
<!-- &#39;]&#39;&#45;&gt;&#39;]&#39;_1 -->
<g id="edge26" class="edge"><title>&#39;]&#39;&#45;&gt;&#39;]&#39;_1</title>
<path fill="none" stroke="grey" d="M929.314,-96.8129C936.002,-88.179 944.232,-77.5551 951.607,-68.0341"/>
<polygon fill="grey" stroke="grey" points="954.452,-70.0778 957.809,-60.0288 948.918,-65.791 954.452,-70.0778"/>
</g>
<!-- &#39;]&#39;_2 -->
<g id="node26" class="node"><title>&#39;]&#39;_2</title>
<path fill="white" stroke="black" d="M1083,-24C1083,-24 1181,-24 1181,-24 1187,-24 1193,-30 1193,-36 1193,-36 1193,-48 1193,-48 1193,-54 1187,-60 1181,-60 1181,-60 1083,-60 1083,-60 1077,-60 1071,-54 1071,-48 1071,-48 1071,-36 1071,-36 1071,-30 1077,-24 1083,-24"/>
<text text-anchor="middle" x="1132" y="-38.3" font-family="Times,serif" font-size="14.00">action =&gt; do_array</text>
</g>
<!-- &#39;]&#39;&#45;&gt;&#39;]&#39;_2 -->
<g id="edge33" class="edge"><title>&#39;]&#39;&#45;&gt;&#39;]&#39;_2</title>
<path fill="none" stroke="grey" d="M943.357,-105.008C975.162,-94.5531 1028.65,-76.9723 1070.56,-63.1951"/>
<polygon fill="grey" stroke="grey" points="1071.72,-66.4977 1080.13,-60.05 1069.54,-59.8478 1071.72,-66.4977"/>
</g>
<!-- &#39;[&#39; elements &#39;]&#39;&#45;&gt;&#39;[&#39; -->
<g id="edge28" class="edge"><title>&#39;[&#39; elements &#39;]&#39;&#45;&gt;&#39;[&#39;</title>
<path fill="none" stroke="grey" d="M770.427,-168.697C773.355,-160.813 776.887,-151.304 780.14,-142.546"/>
<polygon fill="grey" stroke="grey" points="783.446,-143.697 783.647,-133.104 776.884,-141.26 783.446,-143.697"/>
</g>
<!-- elements -->
<g id="node24" class="node"><title>elements</title>
<polygon fill="white" stroke="black" points="722.25,-133 657.75,-133 657.75,-97 722.25,-97 722.25,-133"/>
<text text-anchor="middle" x="690" y="-111.3" font-family="Times,serif" font-size="14.00">elements</text>
</g>
<!-- &#39;[&#39; elements &#39;]&#39;&#45;&gt;elements -->
<g id="edge30" class="edge"><title>&#39;[&#39; elements &#39;]&#39;&#45;&gt;elements</title>
<path fill="none" stroke="grey" d="M745.708,-168.697C736.567,-160.05 725.36,-149.449 715.4,-140.027"/>
<polygon fill="grey" stroke="grey" points="717.752,-137.434 708.082,-133.104 712.941,-142.519 717.752,-137.434"/>
</g>
<!-- &#39;[&#39; elements &#39;]&#39;&#45;&gt;&#39;]&#39; -->
<g id="edge32" class="edge"><title>&#39;[&#39; elements &#39;]&#39;&#45;&gt;&#39;]&#39;</title>
<path fill="none" stroke="grey" d="M801.183,-168.876C824.975,-157.919 855.705,-143.767 879.385,-132.862"/>
<polygon fill="grey" stroke="grey" points="881.116,-135.918 888.735,-128.556 878.188,-129.56 881.116,-135.918"/>
</g>
<!-- elements_1 -->
<g id="node25" class="node"><title>elements_1</title>
<path fill="white" stroke="black" d="M580,-24C580,-24 678,-24 678,-24 684,-24 690,-30 690,-36 690,-36 690,-48 690,-48 690,-54 684,-60 678,-60 678,-60 580,-60 580,-60 574,-60 568,-54 568,-48 568,-48 568,-36 568,-36 568,-30 574,-24 580,-24"/>
<text text-anchor="middle" x="629" y="-38.3" font-family="Times,serif" font-size="14.00">action =&gt; do_array</text>
</g>
<!-- elements&#45;&gt;elements_1 -->
<g id="edge31" class="edge"><title>elements&#45;&gt;elements_1</title>
<path fill="none" stroke="grey" d="M675.234,-96.8129C667.741,-88.0918 658.504,-77.3402 650.261,-67.7459"/>
<polygon fill="grey" stroke="grey" points="652.802,-65.333 643.63,-60.0288 647.492,-69.8947 652.802,-65.333"/>
</g>
<!-- elements&#45;&gt;value -->
<g id="edge34" class="edge"><title>elements&#45;&gt;value</title>
<path fill="none" stroke="grey" d="M690,-133.015C690,-170.098 690,-258.488 690,-303.557"/>
<polygon fill="grey" stroke="grey" points="686.5,-303.769 690,-313.769 693.5,-303.769 686.5,-303.769"/>
</g>
<!-- [\\d] -->
<g id="node28" class="node"><title>[\\d]</title>
<polygon fill="white" stroke="black" points="550,-60 496,-60 496,-24 550,-24 550,-60"/>
<text text-anchor="middle" x="523" y="-38.3" font-family="Times,serif" font-size="14.00">[\d]</text>
</g>
<!-- digits&#45;&gt;[\\d] -->
<g id="edge37" class="edge"><title>digits&#45;&gt;[\\d]</title>
<path fill="none" stroke="grey" d="M539.674,-96.8129C537.161,-88.7023 534.104,-78.8355 531.297,-69.7766"/>
<polygon fill="grey" stroke="grey" points="534.58,-68.5449 528.277,-60.0288 527.893,-70.6167 534.58,-68.5449"/>
</g>
<!-- &#39;,&#39; -->
<g id="node29" class="node"><title>&#39;,&#39;</title>
<polygon fill="white" stroke="black" points="836,-567 782,-567 782,-531 836,-531 836,-567"/>
<text text-anchor="middle" x="809" y="-545.3" font-family="Times,serif" font-size="14.00">&#39;,&#39;</text>
</g>
<!-- comma1 -->
<g id="node30" class="node"><title>comma1</title>
<polygon fill="lightgrey" stroke="black" points="799.25,-645 734.75,-645 734.75,-609 799.25,-609 799.25,-645"/>
<text text-anchor="middle" x="767" y="-623.3" font-family="Times,serif" font-size="14.00">comma1</text>
</g>
<!-- comma1&#45;&gt;&#39;,&#39; -->
<g id="edge38" class="edge"><title>comma1&#45;&gt;&#39;,&#39;</title>
<path fill="none" stroke="grey" d="M776.53,-608.754C781.847,-599.135 788.578,-586.955 794.531,-576.182"/>
<polygon fill="grey" stroke="grey" points="797.734,-577.623 799.507,-567.177 791.607,-574.237 797.734,-577.623"/>
</g>
<!-- comma2 -->
<g id="node31" class="node"><title>comma2</title>
<polygon fill="lightgrey" stroke="black" points="882.25,-645 817.75,-645 817.75,-609 882.25,-609 882.25,-645"/>
<text text-anchor="middle" x="850" y="-623.3" font-family="Times,serif" font-size="14.00">comma2</text>
</g>
<!-- comma2&#45;&gt;&#39;,&#39; -->
<g id="edge39" class="edge"><title>comma2&#45;&gt;&#39;,&#39;</title>
<path fill="none" stroke="grey" d="M840.696,-608.754C835.507,-599.135 828.936,-586.955 823.125,-576.182"/>
<polygon fill="grey" stroke="grey" points="826.095,-574.317 818.267,-567.177 819.934,-577.64 826.095,-574.317"/>
</g>
</g>
</svg>
