<?xml version="1.0" encoding="UTF-8" standalone="no"?>
<!DOCTYPE svg PUBLIC "-//W3C//DTD SVG 1.1//EN"
 "http://www.w3.org/Graphics/SVG/1.1/DTD/svg11.dtd">
<!-- Generated by graphviz version 2.30.1 (20130611.0131)
 -->
<!-- Title: Perl Pages: 1 -->
<svg width="839pt" height="511pt"
 viewBox="0.00 0.00 839.00 511.00" xmlns="http://www.w3.org/2000/svg" xmlns:xlink="http://www.w3.org/1999/xlink">
<g id="graph0" class="graph" transform="scale(1 1) rotate(0) translate(4 507)">
<title>Perl</title>
<polygon fill="white" stroke="white" points="-4,5 -4,-507 836,-507 836,5 -4,5"/>
<text text-anchor="middle" x="415.5" y="-7.8" font-family="Times,serif" font-size="14.00">fake.1.bnf</text>
<!-- json -->
<g id="node1" class="node"><title>json</title>
<path fill="lightgreen" stroke="black" d="M481,-456C481,-456 511,-456 511,-456 517,-456 523,-462 523,-468 523,-468 523,-490 523,-490 523,-496 517,-502 511,-502 511,-502 481,-502 481,-502 475,-502 469,-496 469,-490 469,-490 469,-468 469,-468 469,-462 475,-456 481,-456"/>
<text text-anchor="middle" x="496" y="-486.8" font-family="Times,serif" font-size="14.00">:start</text>
<polyline fill="none" stroke="black" points="469,-479 523,-479 "/>
<text text-anchor="middle" x="496" y="-463.8" font-family="Times,serif" font-size="14.00">json</text>
</g>
<!-- ꞉discard -->
<g id="node2" class="node"><title>꞉discard</title>
<polygon fill="lightblue" stroke="black" points="100.25,-419 41.75,-419 41.75,-383 100.25,-383 100.25,-419"/>
<text text-anchor="middle" x="71" y="-397.3" font-family="Times,serif" font-size="14.00">꞉discard</text>
</g>
<!-- json&#45;&gt;꞉discard -->
<g id="edge1" class="edge"><title>json&#45;&gt;꞉discard</title>
<path fill="none" stroke="grey" d="M468.796,-475.811C405.724,-470.298 244.976,-453.739 115,-419 113.368,-418.564 111.714,-418.088 110.051,-417.581"/>
<polygon fill="grey" stroke="grey" points="111.128,-414.25 100.534,-414.405 108.912,-420.891 111.128,-414.25"/>
</g>
<!-- json&#45;&gt;json -->
<g id="edge3" class="edge"><title>json&#45;&gt;json</title>
<path fill="none" stroke="grey" d="M523.241,-493.611C533.024,-493.925 541,-489.055 541,-479 541,-472.716 537.884,-468.457 533.159,-466.223"/>
<polygon fill="grey" stroke="grey" points="533.71,-462.766 523.241,-464.389 532.438,-469.649 533.71,-462.766"/>
</g>
<!-- object -->
<g id="node4" class="node"><title>object</title>
<polygon fill="white" stroke="black" points="184,-275 130,-275 130,-239 184,-239 184,-275"/>
<text text-anchor="middle" x="157" y="-253.3" font-family="Times,serif" font-size="14.00">object</text>
</g>
<!-- json&#45;&gt;object -->
<g id="edge4" class="edge"><title>json&#45;&gt;object</title>
<path fill="none" stroke="grey" d="M468.883,-477.629C395.102,-475.991 193.542,-467.111 153,-419 121.515,-381.637 134.878,-320.263 146.532,-285.068"/>
<polygon fill="grey" stroke="grey" points="149.895,-286.054 149.889,-275.459 143.287,-283.746 149.895,-286.054"/>
</g>
<!-- json&#45;&gt;json -->
<g id="edge5" class="edge"><title>json&#45;&gt;json</title>
<path fill="none" stroke="grey" d="M523.241,-493.611C533.024,-493.925 541,-489.055 541,-479 541,-472.716 537.884,-468.457 533.159,-466.223"/>
<polygon fill="grey" stroke="grey" points="533.71,-462.766 523.241,-464.389 532.438,-469.649 533.71,-462.766"/>
</g>
<!-- array -->
<g id="node5" class="node"><title>array</title>
<polygon fill="white" stroke="black" points="626,-275 572,-275 572,-239 626,-239 626,-275"/>
<text text-anchor="middle" x="599" y="-253.3" font-family="Times,serif" font-size="14.00">array</text>
</g>
<!-- json&#45;&gt;array -->
<g id="edge6" class="edge"><title>json&#45;&gt;array</title>
<path fill="none" stroke="grey" d="M522.541,-455.837C533.335,-445.605 545.1,-432.694 553,-419 577.904,-375.829 590.082,-318.272 595.411,-284.96"/>
<polygon fill="grey" stroke="grey" points="598.875,-285.456 596.907,-275.046 591.954,-284.411 598.875,-285.456"/>
</g>
<!-- json&#45;&gt;object -->
<g id="edge7" class="edge"><title>json&#45;&gt;object</title>
<path fill="none" stroke="grey" d="M468.549,-476.204C402.658,-471.025 239.212,-454.132 200,-419 161.538,-384.54 151.379,-321.476 151.704,-285.35"/>
<polygon fill="grey" stroke="grey" points="155.213,-285.199 152.121,-275.065 148.218,-284.915 155.213,-285.199"/>
</g>
<!-- json&#45;&gt;object -->
<g id="edge9" class="edge"><title>json&#45;&gt;object</title>
<path fill="none" stroke="grey" d="M468.617,-475.416C405.918,-469.436 255.413,-452.52 218,-419 179.538,-384.54 169.379,-321.476 163.873,-285.35"/>
<polygon fill="grey" stroke="grey" points="167.271,-284.415 162.288,-275.065 160.352,-285.482 167.271,-284.415"/>
</g>
<!-- members -->
<g id="node8" class="node"><title>members</title>
<polygon fill="white" stroke="black" points="357,-419 289,-419 289,-383 357,-383 357,-419"/>
<text text-anchor="middle" x="323" y="-397.3" font-family="Times,serif" font-size="14.00">members</text>
</g>
<!-- json&#45;&gt;members -->
<g id="edge11" class="edge"><title>json&#45;&gt;members</title>
<path fill="none" stroke="grey" d="M468.969,-466.125C441.55,-454.08 398.681,-435.247 366.481,-421.102"/>
<polygon fill="grey" stroke="grey" points="367.846,-417.878 357.283,-417.061 365.03,-424.287 367.846,-417.878"/>
</g>
<!-- value -->
<g id="node9" class="node"><title>value</title>
<polygon fill="white" stroke="black" points="523,-347 469,-347 469,-311 523,-311 523,-347"/>
<text text-anchor="middle" x="496" y="-325.3" font-family="Times,serif" font-size="14.00">value</text>
</g>
<!-- json&#45;&gt;value -->
<g id="edge13" class="edge"><title>json&#45;&gt;value</title>
<path fill="none" stroke="grey" d="M481.053,-455.843C474.397,-429.529 474.007,-385.641 479.882,-357.267"/>
<polygon fill="grey" stroke="grey" points="483.365,-357.776 482.441,-347.222 476.581,-356.048 483.365,-357.776"/>
</g>
<!-- json&#45;&gt;value -->
<g id="edge15" class="edge"><title>json&#45;&gt;value</title>
<path fill="none" stroke="grey" d="M491.018,-455.843C488.799,-429.529 488.669,-385.641 490.627,-357.267"/>
<polygon fill="grey" stroke="grey" points="494.122,-357.482 491.48,-347.222 487.147,-356.89 494.122,-357.482"/>
</g>
<!-- json&#45;&gt;value -->
<g id="edge17" class="edge"><title>json&#45;&gt;value</title>
<path fill="none" stroke="grey" d="M500.982,-455.843C503.201,-429.529 503.331,-385.641 501.373,-357.267"/>
<polygon fill="grey" stroke="grey" points="504.853,-356.89 500.52,-347.222 497.878,-357.482 504.853,-356.89"/>
</g>
<!-- json&#45;&gt;value -->
<g id="edge19" class="edge"><title>json&#45;&gt;value</title>
<path fill="none" stroke="grey" d="M510.947,-455.843C517.603,-429.529 517.993,-385.641 512.118,-357.267"/>
<polygon fill="grey" stroke="grey" points="515.419,-356.048 509.559,-347.222 508.635,-357.776 515.419,-356.048"/>
</g>
<!-- json&#45;&gt;array -->
<g id="edge21" class="edge"><title>json&#45;&gt;array</title>
<path fill="none" stroke="grey" d="M523.178,-458.565C537.892,-448.509 555.231,-434.98 567,-419 595.932,-379.714 596.285,-320.109 596.227,-285.515"/>
<polygon fill="grey" stroke="grey" points="599.727,-285.22 596.229,-275.22 592.727,-285.219 599.727,-285.22"/>
</g>
<!-- json&#45;&gt;array -->
<g id="edge23" class="edge"><title>json&#45;&gt;array</title>
<path fill="none" stroke="grey" d="M523.127,-467.753C543.156,-457.624 569.138,-440.539 585,-419 614.057,-379.544 614.288,-319.593 608.618,-285.067"/>
<polygon fill="grey" stroke="grey" points="612.047,-284.363 606.694,-275.22 605.177,-285.705 612.047,-284.363"/>
</g>
<!-- elements -->
<g id="node14" class="node"><title>elements</title>
<polygon fill="white" stroke="black" points="440.25,-419 375.75,-419 375.75,-383 440.25,-383 440.25,-419"/>
<text text-anchor="middle" x="408" y="-397.3" font-family="Times,serif" font-size="14.00">elements</text>
</g>
<!-- json&#45;&gt;elements -->
<g id="edge25" class="edge"><title>json&#45;&gt;elements</title>
<path fill="none" stroke="grey" d="M470.073,-455.609C459.221,-446.236 446.594,-435.331 435.572,-425.813"/>
<polygon fill="grey" stroke="grey" points="437.735,-423.056 427.879,-419.168 433.16,-428.354 437.735,-423.056"/>
</g>
<!-- number -->
<g id="node11" class="node"><title>number</title>
<polygon fill="white" stroke="black" points="525.25,-275 466.75,-275 466.75,-239 525.25,-239 525.25,-275"/>
<text text-anchor="middle" x="496" y="-253.3" font-family="Times,serif" font-size="14.00">number</text>
</g>
<!-- json&#45;&gt;number -->
<g id="edge27" class="edge"><title>json&#45;&gt;number</title>
<path fill="none" stroke="grey" d="M516.142,-455.929C524.303,-445.522 532.785,-432.45 537,-419 542.827,-400.404 535.907,-322.296 532,-311 528.654,-301.325 523.061,-291.757 517.269,-283.469"/>
<polygon fill="grey" stroke="grey" points="520.014,-281.294 511.247,-275.345 514.39,-285.463 520.014,-281.294"/>
</g>
<!-- int -->
<g id="node10" class="node"><title>int</title>
<polygon fill="white" stroke="black" points="395,-203 341,-203 341,-167 395,-167 395,-203"/>
<text text-anchor="middle" x="368" y="-181.3" font-family="Times,serif" font-size="14.00">int</text>
</g>
<!-- json&#45;&gt;int -->
<g id="edge29" class="edge"><title>json&#45;&gt;int</title>
<path fill="none" stroke="grey" d="M468.97,-474.678C416.288,-467.589 303,-449.125 280,-419 229.874,-353.346 303.558,-255.934 344.187,-210.718"/>
<polygon fill="grey" stroke="grey" points="346.94,-212.894 351.114,-203.156 341.779,-208.166 346.94,-212.894"/>
</g>
<!-- digits -->
<g id="node15" class="node"><title>digits</title>
<polygon fill="white" stroke="black" points="322,-131 268,-131 268,-95 322,-95 322,-131"/>
<text text-anchor="middle" x="295" y="-109.3" font-family="Times,serif" font-size="14.00">digits</text>
</g>
<!-- json&#45;&gt;digits -->
<g id="edge31" class="edge"><title>json&#45;&gt;digits</title>
<path fill="none" stroke="grey" d="M468.939,-478.602C421.265,-478.217 321.626,-470.755 261,-419 228.288,-391.075 223,-373.01 223,-330 223,-330 223,-330 223,-256 223,-211.355 251.662,-166.519 272.818,-139.505"/>
<polygon fill="grey" stroke="grey" points="275.817,-141.362 279.377,-131.383 270.371,-136.964 275.817,-141.362"/>
</g>
<!-- comma1 -->
<g id="node17" class="node"><title>comma1</title>
<polygon fill="white" stroke="black" points="748.25,-419 683.75,-419 683.75,-383 748.25,-383 748.25,-419"/>
<text text-anchor="middle" x="716" y="-397.3" font-family="Times,serif" font-size="14.00">comma1</text>
</g>
<!-- json&#45;&gt;comma1 -->
<g id="edge33" class="edge"><title>json&#45;&gt;comma1</title>
<path fill="none" stroke="grey" d="M523.022,-468.956C557.111,-457.507 617.504,-437.092 669,-419 670.632,-418.427 672.295,-417.839 673.974,-417.244"/>
<polygon fill="grey" stroke="grey" points="675.425,-420.443 683.666,-413.784 673.071,-413.85 675.425,-420.443"/>
</g>
<!-- comma2 -->
<g id="node19" class="node"><title>comma2</title>
<polygon fill="white" stroke="black" points="831.25,-419 766.75,-419 766.75,-383 831.25,-383 831.25,-419"/>
<text text-anchor="middle" x="799" y="-397.3" font-family="Times,serif" font-size="14.00">comma2</text>
</g>
<!-- json&#45;&gt;comma2 -->
<g id="edge35" class="edge"><title>json&#45;&gt;comma2</title>
<path fill="none" stroke="grey" d="M523.057,-473.383C570.881,-464.892 673.21,-445.237 757,-419 757.099,-418.969 757.197,-418.938 757.296,-418.907"/>
<polygon fill="grey" stroke="grey" points="758.305,-422.261 766.63,-415.708 756.036,-415.639 758.305,-422.261"/>
</g>
<!-- whitespace -->
<g id="node3" class="node"><title>whitespace</title>
<polygon fill="lightblue" stroke="black" points="76.25,-347 -0.25,-347 -0.25,-311 76.25,-311 76.25,-347"/>
<text text-anchor="middle" x="38" y="-325.3" font-family="Times,serif" font-size="14.00">whitespace</text>
</g>
<!-- json&#45;&gt;whitespace -->
<g id="edge37" class="edge"><title>json&#45;&gt;whitespace</title>
<path fill="none" stroke="grey" d="M468.674,-476.593C373.545,-471.42 61.086,-452.019 32,-419 17.268,-402.276 20.9958,-376.229 27.0842,-356.626"/>
<polygon fill="grey" stroke="grey" points="30.4367,-357.641 30.398,-347.046 23.8212,-355.352 30.4367,-357.641"/>
</g>
<!-- ꞉discard&#45;&gt;whitespace -->
<g id="edge2" class="edge"><title>꞉discard&#45;&gt;whitespace</title>
<path fill="none" stroke="grey" d="M62.8427,-382.697C59.0862,-374.728 54.5469,-365.1 50.3817,-356.264"/>
<polygon fill="grey" stroke="grey" points="53.4936,-354.657 46.0635,-347.104 47.1619,-357.642 53.4936,-354.657"/>
</g>
<!-- [\\s] -->
<g id="node20" class="node"><title>[\\s]</title>
<polygon fill="white" stroke="black" points="65,-275 11,-275 11,-239 65,-239 65,-275"/>
<text text-anchor="middle" x="38" y="-253.3" font-family="Times,serif" font-size="14.00">[\s]</text>
</g>
<!-- whitespace&#45;&gt;[\\s] -->
<g id="edge38" class="edge"><title>whitespace&#45;&gt;[\\s]</title>
<path fill="none" stroke="grey" d="M38,-310.697C38,-302.983 38,-293.712 38,-285.112"/>
<polygon fill="grey" stroke="grey" points="41.5001,-285.104 38,-275.104 34.5001,-285.104 41.5001,-285.104"/>
</g>
<!-- &#39;{&#39; &#39;}&#39; -->
<g id="node6" class="node"><title>&#39;{&#39; &#39;}&#39;</title>
<polygon fill="white" stroke="black" points="79,-203 25,-203 25,-167 79,-167 79,-203"/>
<text text-anchor="middle" x="52" y="-181.3" font-family="Times,serif" font-size="14.00">&#39;{&#39; &#39;}&#39;</text>
</g>
<!-- object&#45;&gt;&#39;{&#39; &#39;}&#39; -->
<g id="edge8" class="edge"><title>object&#45;&gt;&#39;{&#39; &#39;}&#39;</title>
<path fill="none" stroke="grey" d="M131.314,-238.876C117.712,-229.808 100.828,-218.552 86.1388,-208.759"/>
<polygon fill="grey" stroke="grey" points="88.0466,-205.825 77.7846,-203.19 84.1637,-211.649 88.0466,-205.825"/>
</g>
<!-- &#39;{&#39; members &#39;}&#39; -->
<g id="node7" class="node"><title>&#39;{&#39; members &#39;}&#39;</title>
<polygon fill="white" stroke="black" points="194.5,-203 97.5,-203 97.5,-167 194.5,-167 194.5,-203"/>
<text text-anchor="middle" x="146" y="-181.3" font-family="Times,serif" font-size="14.00">&#39;{&#39; members &#39;}&#39;</text>
</g>
<!-- object&#45;&gt;&#39;{&#39; members &#39;}&#39; -->
<g id="edge10" class="edge"><title>object&#45;&gt;&#39;{&#39; members &#39;}&#39;</title>
<path fill="none" stroke="grey" d="M154.281,-238.697C153.069,-230.983 151.612,-221.712 150.261,-213.112"/>
<polygon fill="grey" stroke="grey" points="153.698,-212.44 148.688,-203.104 146.783,-213.526 153.698,-212.44"/>
</g>
<!-- &#39;[&#39; &#39;]&#39; -->
<g id="node12" class="node"><title>&#39;[&#39; &#39;]&#39;</title>
<polygon fill="white" stroke="black" points="536,-203 482,-203 482,-167 536,-167 536,-203"/>
<text text-anchor="middle" x="509" y="-181.3" font-family="Times,serif" font-size="14.00">&#39;[&#39; &#39;]&#39;</text>
</g>
<!-- array&#45;&gt;&#39;[&#39; &#39;]&#39; -->
<g id="edge22" class="edge"><title>array&#45;&gt;&#39;[&#39; &#39;]&#39;</title>
<path fill="none" stroke="grey" d="M576.753,-238.697C565.418,-229.881 551.47,-219.032 539.181,-209.474"/>
<polygon fill="grey" stroke="grey" points="541.034,-206.481 530.991,-203.104 536.736,-212.007 541.034,-206.481"/>
</g>
<!-- &#39;[&#39; elements &#39;]&#39; -->
<g id="node13" class="node"><title>&#39;[&#39; elements &#39;]&#39;</title>
<polygon fill="white" stroke="black" points="645.25,-203 554.75,-203 554.75,-167 645.25,-167 645.25,-203"/>
<text text-anchor="middle" x="600" y="-181.3" font-family="Times,serif" font-size="14.00">&#39;[&#39; elements &#39;]&#39;</text>
</g>
<!-- array&#45;&gt;&#39;[&#39; elements &#39;]&#39; -->
<g id="edge24" class="edge"><title>array&#45;&gt;&#39;[&#39; elements &#39;]&#39;</title>
<path fill="none" stroke="grey" d="M599.247,-238.697C599.357,-230.983 599.49,-221.712 599.613,-213.112"/>
<polygon fill="grey" stroke="grey" points="603.112,-213.153 599.756,-203.104 596.113,-213.053 603.112,-213.153"/>
</g>
<!-- members&#45;&gt;value -->
<g id="edge12" class="edge"><title>members&#45;&gt;value</title>
<path fill="none" stroke="grey" d="M357.179,-386.17C386.768,-374.198 429.44,-356.932 459.648,-344.709"/>
<polygon fill="grey" stroke="grey" points="461.028,-347.926 468.985,-340.931 458.402,-341.437 461.028,-347.926"/>
</g>
<!-- value&#45;&gt;int -->
<g id="edge14" class="edge"><title>value&#45;&gt;int</title>
<path fill="none" stroke="grey" d="M480.56,-310.871C458.072,-285.924 416.18,-239.45 390.331,-210.773"/>
<polygon fill="grey" stroke="grey" points="392.79,-208.274 383.495,-203.189 387.59,-212.96 392.79,-208.274"/>
</g>
<!-- value&#45;&gt;object -->
<g id="edge16" class="edge"><title>value&#45;&gt;object</title>
<path fill="none" stroke="grey" d="M468.831,-322.39C408.456,-309.923 263.053,-279.899 194.264,-265.695"/>
<polygon fill="grey" stroke="grey" points="194.799,-262.231 184.298,-263.637 193.384,-269.087 194.799,-262.231"/>
</g>
<!-- value&#45;&gt;number -->
<g id="edge18" class="edge"><title>value&#45;&gt;number</title>
<path fill="none" stroke="grey" d="M496,-310.697C496,-302.983 496,-293.712 496,-285.112"/>
<polygon fill="grey" stroke="grey" points="499.5,-285.104 496,-275.104 492.5,-285.104 499.5,-285.104"/>
</g>
<!-- value&#45;&gt;array -->
<g id="edge20" class="edge"><title>value&#45;&gt;array</title>
<path fill="none" stroke="grey" d="M521.197,-310.876C534.414,-301.893 550.792,-290.763 565.107,-281.034"/>
<polygon fill="grey" stroke="grey" points="567.403,-283.705 573.707,-275.19 563.468,-277.916 567.403,-283.705"/>
</g>
<!-- int&#45;&gt;digits -->
<g id="edge30" class="edge"><title>int&#45;&gt;digits</title>
<path fill="none" stroke="grey" d="M349.955,-166.697C340.938,-158.05 329.882,-147.449 320.057,-138.027"/>
<polygon fill="grey" stroke="grey" points="322.478,-135.499 312.837,-131.104 317.633,-140.552 322.478,-135.499"/>
</g>
<!-- number&#45;&gt;int -->
<g id="edge28" class="edge"><title>number&#45;&gt;int</title>
<path fill="none" stroke="grey" d="M466.634,-239.941C448.029,-229.766 423.835,-216.535 404.065,-205.723"/>
<polygon fill="grey" stroke="grey" points="405.498,-202.518 395.045,-200.79 402.14,-208.659 405.498,-202.518"/>
</g>
<!-- elements&#45;&gt;value -->
<g id="edge26" class="edge"><title>elements&#45;&gt;value</title>
<path fill="none" stroke="grey" d="M429.753,-382.697C440.836,-373.881 454.474,-363.032 466.49,-353.474"/>
<polygon fill="grey" stroke="grey" points="468.85,-356.069 474.497,-347.104 464.493,-350.59 468.85,-356.069"/>
</g>
<!-- [\\d] -->
<g id="node16" class="node"><title>[\\d]</title>
<polygon fill="white" stroke="black" points="322,-59 268,-59 268,-23 322,-23 322,-59"/>
<text text-anchor="middle" x="295" y="-37.3" font-family="Times,serif" font-size="14.00">[\d]</text>
</g>
<!-- digits&#45;&gt;[\\d] -->
<g id="edge32" class="edge"><title>digits&#45;&gt;[\\d]</title>
<path fill="none" stroke="grey" d="M295,-94.6966C295,-86.9827 295,-77.7125 295,-69.1124"/>
<polygon fill="grey" stroke="grey" points="298.5,-69.1043 295,-59.1043 291.5,-69.1044 298.5,-69.1043"/>
</g>
<!-- &#39;,&#39; -->
<g id="node18" class="node"><title>&#39;,&#39;</title>
<polygon fill="white" stroke="black" points="784,-347 730,-347 730,-311 784,-311 784,-347"/>
<text text-anchor="middle" x="757" y="-325.3" font-family="Times,serif" font-size="14.00">&#39;,&#39;</text>
</g>
<!-- comma1&#45;&gt;&#39;,&#39; -->
<g id="edge34" class="edge"><title>comma1&#45;&gt;&#39;,&#39;</title>
<path fill="none" stroke="grey" d="M726.135,-382.697C730.852,-374.644 736.562,-364.894 741.782,-355.982"/>
<polygon fill="grey" stroke="grey" points="744.948,-357.502 746.982,-347.104 738.908,-353.964 744.948,-357.502"/>
</g>
<!-- comma2&#45;&gt;&#39;,&#39; -->
<g id="edge36" class="edge"><title>comma2&#45;&gt;&#39;,&#39;</title>
<path fill="none" stroke="grey" d="M788.618,-382.697C783.735,-374.559 777.813,-364.689 772.421,-355.701"/>
<polygon fill="grey" stroke="grey" points="775.409,-353.879 767.263,-347.104 769.406,-357.48 775.409,-353.879"/>
</g>
</g>
</svg>
