<?xml version="1.0" encoding="UTF-8" standalone="no"?>
<!DOCTYPE svg PUBLIC "-//W3C//DTD SVG 1.1//EN"
 "http://www.w3.org/Graphics/SVG/1.1/DTD/svg11.dtd">
<!-- Generated by graphviz version 2.38.0 (20140413.2041)
 -->
<!-- Title: Perl Pages: 1 -->
<svg width="301pt" height="158pt"
 viewBox="0.00 0.00 301.00 158.00" xmlns="http://www.w3.org/2000/svg" xmlns:xlink="http://www.w3.org/1999/xlink">
<g id="graph0" class="graph" transform="scale(1 1) rotate(0) translate(4 154)">
<title>Perl</title>
<polygon fill="white" stroke="none" points="-4,4 -4,-154 297,-154 297,4 -4,4"/>
<text text-anchor="middle" x="146.5" y="-7.8" font-family="Times,serif" font-size="14.00">json.1.bnf</text>
<!-- Legend -->
<g id="node1" class="node"><title>Legend</title>
<polygon fill="lightgrey" stroke="none" points="293,-150 0,-150 0,-23 293,-23 293,-150"/>
<polygon fill="white" stroke="none" points="8,-27 8,-146 285,-146 285,-27 8,-27"/>
<polygon fill="lightgreen" stroke="none" points="11.5,-121.5 11.5,-142.5 282.5,-142.5 282.5,-121.5 11.5,-121.5"/>
<polygon fill="none" stroke="black" points="11.5,-121.5 11.5,-142.5 282.5,-142.5 282.5,-121.5 11.5,-121.5"/>
<text text-anchor="start" x="58" y="-128.3" font-family="Times,serif" font-size="14.00">The green node is the start node</text>
<polygon fill="lightblue" stroke="none" points="11.5,-98.5 11.5,-119.5 282.5,-119.5 282.5,-98.5 11.5,-98.5"/>
<polygon fill="none" stroke="black" points="11.5,-98.5 11.5,-119.5 282.5,-119.5 282.5,-98.5 11.5,-98.5"/>
<text text-anchor="start" x="14.5" y="-105.3" font-family="Times,serif" font-size="14.00">Lightblue nodes are for reserved rule names, etc</text>
<polygon fill="orchid" stroke="none" points="11.5,-75.5 11.5,-96.5 282.5,-96.5 282.5,-75.5 11.5,-75.5"/>
<polygon fill="none" stroke="black" points="11.5,-75.5 11.5,-96.5 282.5,-96.5 282.5,-75.5 11.5,-75.5"/>
<text text-anchor="start" x="65.5" y="-82.3" font-family="Times,serif" font-size="14.00">Orchid nodes are for lexemes</text>
<polygon fill="goldenrod" stroke="none" points="11.5,-52.5 11.5,-73.5 282.5,-73.5 282.5,-52.5 11.5,-52.5"/>
<polygon fill="none" stroke="black" points="11.5,-52.5 11.5,-73.5 282.5,-73.5 282.5,-52.5 11.5,-52.5"/>
<text text-anchor="start" x="67" y="-59.3" font-family="Times,serif" font-size="14.00">Golden nodes are for actions</text>
<polygon fill="#ff3030" stroke="none" points="11.5,-29.5 11.5,-50.5 282.5,-50.5 282.5,-29.5 11.5,-29.5"/>
<polygon fill="none" stroke="black" points="11.5,-29.5 11.5,-50.5 282.5,-50.5 282.5,-29.5 11.5,-29.5"/>
<text text-anchor="start" x="79" y="-36.3" font-family="Times,serif" font-size="14.00">Red nodes are for events</text>
<polygon fill="none" stroke="black" points="8,-27 8,-146 285,-146 285,-27 8,-27"/>
</g>
</g>
</svg>
