<?xml version="1.0" encoding="UTF-8" standalone="no"?>
<!DOCTYPE svg PUBLIC "-//W3C//DTD SVG 1.1//EN"
 "http://www.w3.org/Graphics/SVG/1.1/DTD/svg11.dtd">
<!-- Generated by graphviz version 2.38.0 (20140413.2041)
 -->
<!-- Title: Perl Pages: 1 -->
<svg width="426pt" height="302pt"
 viewBox="0.00 0.00 426.00 302.00" xmlns="http://www.w3.org/2000/svg" xmlns:xlink="http://www.w3.org/1999/xlink">
<g id="graph0" class="graph" transform="scale(1 1) rotate(0) translate(4 298)">
<title>Perl</title>
<polygon fill="white" stroke="none" points="-4,4 -4,-298 422,-298 422,4 -4,4"/>
<text text-anchor="middle" x="209" y="-7.8" font-family="Times,serif" font-size="14.00">json.2.bnf</text>
<!-- ꞉default -->
<g id="node1" class="node"><title>꞉default</title>
<polygon fill="lightblue" stroke="black" points="83,-222 24,-222 24,-186 83,-186 83,-222"/>
<text text-anchor="middle" x="53.5" y="-200.3" font-family="Times,serif" font-size="14.00">꞉default</text>
</g>
<!-- ꞉default_1 -->
<g id="node3" class="node"><title>꞉default_1</title>
<path fill="goldenrod" stroke="black" d="M12,-68.5C12,-68.5 95,-68.5 95,-68.5 101,-68.5 107,-74.5 107,-80.5 107,-80.5 107,-92.5 107,-92.5 107,-98.5 101,-104.5 95,-104.5 95,-104.5 12,-104.5 12,-104.5 6,-104.5 -7.10543e-15,-98.5 -7.10543e-15,-92.5 -7.10543e-15,-92.5 -7.10543e-15,-80.5 -7.10543e-15,-80.5 -7.10543e-15,-74.5 6,-68.5 12,-68.5"/>
<text text-anchor="middle" x="53.5" y="-82.8" font-family="Times,serif" font-size="14.00">action =&gt; ::array</text>
</g>
<!-- ꞉default&#45;&gt;꞉default_1 -->
<g id="edge2" class="edge"><title>꞉default&#45;&gt;꞉default_1</title>
<path fill="none" stroke="grey" d="M53.5,-185.958C53.5,-167.191 53.5,-136.756 53.5,-114.687"/>
<polygon fill="grey" stroke="grey" points="57.0001,-114.612 53.5,-104.612 50.0001,-114.612 57.0001,-114.612"/>
</g>
<!-- BNF -->
<g id="node2" class="node"><title>BNF</title>
<polygon fill="lightgrey" stroke="black" points="80.5,-294 26.5,-294 26.5,-258 80.5,-258 80.5,-294"/>
<text text-anchor="middle" x="53.5" y="-272.3" font-family="Times,serif" font-size="14.00">BNF</text>
</g>
<!-- BNF&#45;&gt;꞉default -->
<g id="edge1" class="edge"><title>BNF&#45;&gt;꞉default</title>
<path fill="none" stroke="grey" d="M53.5,-257.697C53.5,-249.983 53.5,-240.712 53.5,-232.112"/>
<polygon fill="grey" stroke="grey" points="57.0001,-232.104 53.5,-222.104 50.0001,-232.104 57.0001,-232.104"/>
</g>
<!-- Legend -->
<g id="node4" class="node"><title>Legend</title>
<polygon fill="lightgrey" stroke="none" points="418,-150 125,-150 125,-23 418,-23 418,-150"/>
<polygon fill="white" stroke="none" points="133,-27 133,-146 410,-146 410,-27 133,-27"/>
<polygon fill="lightgreen" stroke="none" points="136.5,-121.5 136.5,-142.5 407.5,-142.5 407.5,-121.5 136.5,-121.5"/>
<polygon fill="none" stroke="black" points="136.5,-121.5 136.5,-142.5 407.5,-142.5 407.5,-121.5 136.5,-121.5"/>
<text text-anchor="start" x="183" y="-128.3" font-family="Times,serif" font-size="14.00">The green node is the start node</text>
<polygon fill="lightblue" stroke="none" points="136.5,-98.5 136.5,-119.5 407.5,-119.5 407.5,-98.5 136.5,-98.5"/>
<polygon fill="none" stroke="black" points="136.5,-98.5 136.5,-119.5 407.5,-119.5 407.5,-98.5 136.5,-98.5"/>
<text text-anchor="start" x="139.5" y="-105.3" font-family="Times,serif" font-size="14.00">Lightblue nodes are for reserved rule names, etc</text>
<polygon fill="orchid" stroke="none" points="136.5,-75.5 136.5,-96.5 407.5,-96.5 407.5,-75.5 136.5,-75.5"/>
<polygon fill="none" stroke="black" points="136.5,-75.5 136.5,-96.5 407.5,-96.5 407.5,-75.5 136.5,-75.5"/>
<text text-anchor="start" x="190.5" y="-82.3" font-family="Times,serif" font-size="14.00">Orchid nodes are for lexemes</text>
<polygon fill="goldenrod" stroke="none" points="136.5,-52.5 136.5,-73.5 407.5,-73.5 407.5,-52.5 136.5,-52.5"/>
<polygon fill="none" stroke="black" points="136.5,-52.5 136.5,-73.5 407.5,-73.5 407.5,-52.5 136.5,-52.5"/>
<text text-anchor="start" x="192" y="-59.3" font-family="Times,serif" font-size="14.00">Golden nodes are for actions</text>
<polygon fill="#ff3030" stroke="none" points="136.5,-29.5 136.5,-50.5 407.5,-50.5 407.5,-29.5 136.5,-29.5"/>
<polygon fill="none" stroke="black" points="136.5,-29.5 136.5,-50.5 407.5,-50.5 407.5,-29.5 136.5,-29.5"/>
<text text-anchor="start" x="204" y="-36.3" font-family="Times,serif" font-size="14.00">Red nodes are for events</text>
<polygon fill="none" stroke="black" points="133,-27 133,-146 410,-146 410,-27 133,-27"/>
</g>
</g>
</svg>
