<?xml version="1.0" encoding="UTF-8" standalone="no"?>
<!DOCTYPE svg PUBLIC "-//W3C//DTD SVG 1.1//EN"
 "http://www.w3.org/Graphics/SVG/1.1/DTD/svg11.dtd">
<!-- Generated by graphviz version 2.30.1 (20130611.0131)
 -->
<!-- Title: Perl Pages: 1 -->
<svg width="1663pt" height="223pt"
 viewBox="0.00 0.00 1663.00 223.00" xmlns="http://www.w3.org/2000/svg" xmlns:xlink="http://www.w3.org/1999/xlink">
<g id="graph0" class="graph" transform="scale(1 1) rotate(0) translate(4 219)">
<title>Perl</title>
<polygon fill="white" stroke="white" points="-4,5 -4,-219 1660,-219 1660,5 -4,5"/>
<text text-anchor="middle" x="827.5" y="-7.8" font-family="Times,serif" font-size="14.00">json.1.bnf</text>
<!-- json -->
<g id="node1" class="node"><title>json</title>
<path fill="lightgreen" stroke="black" d="M23,-168C23,-168 53,-168 53,-168 59,-168 65,-174 65,-180 65,-180 65,-202 65,-202 65,-208 59,-214 53,-214 53,-214 23,-214 23,-214 17,-214 11,-208 11,-202 11,-202 11,-180 11,-180 11,-174 17,-168 23,-168"/>
<text text-anchor="middle" x="38" y="-198.8" font-family="Times,serif" font-size="14.00">:start</text>
<polyline fill="none" stroke="black" points="11,-191 65,-191 "/>
<text text-anchor="middle" x="38" y="-175.8" font-family="Times,serif" font-size="14.00">json</text>
</g>
<!-- ꞉discard -->
<g id="node2" class="node"><title>꞉discard</title>
<polygon fill="lightblue" stroke="black" points="67.25,-131 8.75,-131 8.75,-95 67.25,-95 67.25,-131"/>
<text text-anchor="middle" x="38" y="-109.3" font-family="Times,serif" font-size="14.00">꞉discard</text>
</g>
<!-- json&#45;&gt;꞉discard -->
<g id="edge1" class="edge"><title>json&#45;&gt;꞉discard</title>
<path fill="none" stroke="grey" d="M38,-167.609C38,-159.481 38,-150.2 38,-141.671"/>
<polygon fill="grey" stroke="grey" points="41.5001,-141.412 38,-131.412 34.5001,-141.412 41.5001,-141.412"/>
</g>
<!-- whitespace -->
<g id="node3" class="node"><title>whitespace</title>
<polygon fill="lightblue" stroke="black" points="76.25,-59 -0.25,-59 -0.25,-23 76.25,-23 76.25,-59"/>
<text text-anchor="middle" x="38" y="-37.3" font-family="Times,serif" font-size="14.00">whitespace</text>
</g>
<!-- ꞉discard&#45;&gt;whitespace -->
<g id="edge2" class="edge"><title>꞉discard&#45;&gt;whitespace</title>
<path fill="none" stroke="grey" d="M38,-94.6966C38,-86.9827 38,-77.7125 38,-69.1124"/>
<polygon fill="grey" stroke="grey" points="41.5001,-69.1043 38,-59.1043 34.5001,-69.1044 41.5001,-69.1043"/>
</g>
<!-- object -->
<g id="node4" class="node"><title>object</title>
<polygon fill="white" stroke="black" points="137,-209 83,-209 83,-173 137,-173 137,-209"/>
<text text-anchor="middle" x="110" y="-187.3" font-family="Times,serif" font-size="14.00">object</text>
</g>
<!-- members -->
<g id="node5" class="node"><title>members</title>
<polygon fill="white" stroke="black" points="223,-209 155,-209 155,-173 223,-173 223,-209"/>
<text text-anchor="middle" x="189" y="-187.3" font-family="Times,serif" font-size="14.00">members</text>
</g>
<!-- pair -->
<g id="node6" class="node"><title>pair</title>
<polygon fill="white" stroke="black" points="295,-209 241,-209 241,-173 295,-173 295,-209"/>
<text text-anchor="middle" x="268" y="-187.3" font-family="Times,serif" font-size="14.00">pair</text>
</g>
<!-- value -->
<g id="node7" class="node"><title>value</title>
<polygon fill="white" stroke="black" points="367,-209 313,-209 313,-173 367,-173 367,-209"/>
<text text-anchor="middle" x="340" y="-187.3" font-family="Times,serif" font-size="14.00">value</text>
</g>
<!-- array -->
<g id="node8" class="node"><title>array</title>
<polygon fill="white" stroke="black" points="439,-209 385,-209 385,-173 439,-173 439,-209"/>
<text text-anchor="middle" x="412" y="-187.3" font-family="Times,serif" font-size="14.00">array</text>
</g>
<!-- elements -->
<g id="node9" class="node"><title>elements</title>
<polygon fill="white" stroke="black" points="522.25,-209 457.75,-209 457.75,-173 522.25,-173 522.25,-209"/>
<text text-anchor="middle" x="490" y="-187.3" font-family="Times,serif" font-size="14.00">elements</text>
</g>
<!-- number -->
<g id="node10" class="node"><title>number</title>
<polygon fill="white" stroke="black" points="599.25,-209 540.75,-209 540.75,-173 599.25,-173 599.25,-209"/>
<text text-anchor="middle" x="570" y="-187.3" font-family="Times,serif" font-size="14.00">number</text>
</g>
<!-- int -->
<g id="node11" class="node"><title>int</title>
<polygon fill="white" stroke="black" points="672,-209 618,-209 618,-173 672,-173 672,-209"/>
<text text-anchor="middle" x="645" y="-187.3" font-family="Times,serif" font-size="14.00">int</text>
</g>
<!-- digits -->
<g id="node12" class="node"><title>digits</title>
<polygon fill="white" stroke="black" points="744,-209 690,-209 690,-173 744,-173 744,-209"/>
<text text-anchor="middle" x="717" y="-187.3" font-family="Times,serif" font-size="14.00">digits</text>
</g>
<!-- frac -->
<g id="node13" class="node"><title>frac</title>
<polygon fill="white" stroke="black" points="816,-209 762,-209 762,-173 816,-173 816,-209"/>
<text text-anchor="middle" x="789" y="-187.3" font-family="Times,serif" font-size="14.00">frac</text>
</g>
<!-- exp -->
<g id="node14" class="node"><title>exp</title>
<polygon fill="white" stroke="black" points="888,-209 834,-209 834,-173 888,-173 888,-209"/>
<text text-anchor="middle" x="861" y="-187.3" font-family="Times,serif" font-size="14.00">exp</text>
</g>
<!-- e -->
<g id="node15" class="node"><title>e</title>
<polygon fill="white" stroke="black" points="960,-209 906,-209 906,-173 960,-173 960,-209"/>
<text text-anchor="middle" x="933" y="-187.3" font-family="Times,serif" font-size="14.00">e</text>
</g>
<!-- string -->
<g id="node16" class="node"><title>string</title>
<polygon fill="white" stroke="black" points="1032,-209 978,-209 978,-173 1032,-173 1032,-209"/>
<text text-anchor="middle" x="1005" y="-187.3" font-family="Times,serif" font-size="14.00">string</text>
</g>
<!-- lstring -->
<g id="node17" class="node"><title>lstring</title>
<polygon fill="white" stroke="black" points="1104,-209 1050,-209 1050,-173 1104,-173 1104,-209"/>
<text text-anchor="middle" x="1077" y="-187.3" font-family="Times,serif" font-size="14.00">lstring</text>
</g>
<!-- quote -->
<g id="node18" class="node"><title>quote</title>
<polygon fill="white" stroke="black" points="1176,-209 1122,-209 1122,-173 1176,-173 1176,-209"/>
<text text-anchor="middle" x="1149" y="-187.3" font-family="Times,serif" font-size="14.00">quote</text>
</g>
<!-- in_string -->
<g id="node19" class="node"><title>in_string</title>
<polygon fill="white" stroke="black" points="1259.25,-209 1194.75,-209 1194.75,-173 1259.25,-173 1259.25,-209"/>
<text text-anchor="middle" x="1227" y="-187.3" font-family="Times,serif" font-size="14.00">in_string</text>
</g>
<!-- in_string_char -->
<g id="node20" class="node"><title>in_string_char</title>
<polygon fill="white" stroke="black" points="1372.25,-209 1277.75,-209 1277.75,-173 1372.25,-173 1372.25,-209"/>
<text text-anchor="middle" x="1325" y="-187.3" font-family="Times,serif" font-size="14.00">in_string_char</text>
</g>
<!-- four_hex_digits -->
<g id="node21" class="node"><title>four_hex_digits</title>
<polygon fill="white" stroke="black" points="1492.5,-209 1391.5,-209 1391.5,-173 1492.5,-173 1492.5,-209"/>
<text text-anchor="middle" x="1442" y="-187.3" font-family="Times,serif" font-size="14.00">four_hex_digits</text>
</g>
<!-- hex_digit -->
<g id="node22" class="node"><title>hex_digit</title>
<polygon fill="white" stroke="black" points="1579,-209 1511,-209 1511,-173 1579,-173 1579,-209"/>
<text text-anchor="middle" x="1545" y="-187.3" font-family="Times,serif" font-size="14.00">hex_digit</text>
</g>
<!-- comma -->
<g id="node23" class="node"><title>comma</title>
<polygon fill="white" stroke="black" points="1654.5,-209 1597.5,-209 1597.5,-173 1654.5,-173 1654.5,-209"/>
<text text-anchor="middle" x="1626" y="-187.3" font-family="Times,serif" font-size="14.00">comma</text>
</g>
</g>
</svg>
