<?xml version="1.0" encoding="UTF-8" standalone="no"?>
<!DOCTYPE svg PUBLIC "-//W3C//DTD SVG 1.1//EN"
 "http://www.w3.org/Graphics/SVG/1.1/DTD/svg11.dtd">
<!-- Generated by graphviz version 2.38.0 (20140413.2041)
 -->
<!-- Title: Perl Pages: 1 -->
<svg width="2680pt" height="230pt"
 viewBox="0.00 0.00 2679.50 230.00" xmlns="http://www.w3.org/2000/svg" xmlns:xlink="http://www.w3.org/1999/xlink">
<g id="graph0" class="graph" transform="scale(1 1) rotate(0) translate(4 226)">
<title>Perl</title>
<polygon fill="white" stroke="none" points="-4,4 -4,-226 2675.5,-226 2675.5,4 -4,4"/>
<text text-anchor="middle" x="1335.75" y="-7.8" font-family="Times,serif" font-size="14.00">json.3.bnf</text>
<!-- action -->
<g id="node1" class="node"><title>action</title>
<polygon fill="white" stroke="black" points="54,-104.5 0,-104.5 0,-68.5 54,-68.5 54,-104.5"/>
</g>
<!-- BNF -->
<g id="node2" class="node"><title>BNF</title>
<polygon fill="lightgrey" stroke="black" points="1350,-222 1296,-222 1296,-186 1350,-186 1350,-222"/>
<text text-anchor="middle" x="1323" y="-200.3" font-family="Times,serif" font-size="14.00">BNF</text>
</g>
<!-- BNF&#45;&gt;action -->
<g id="edge1" class="edge"><title>BNF&#45;&gt;action</title>
<path fill="none" stroke="grey" d="M1295.92,-202.599C1117.63,-199.864 117.554,-183.083 63,-150 49.8604,-142.032 41.0456,-127.341 35.4287,-114.204"/>
<polygon fill="grey" stroke="grey" points="38.5916,-112.677 31.7381,-104.597 32.0573,-115.187 38.5916,-112.677"/>
</g>
<!-- latm_specification -->
<g id="node3" class="node"><title>latm_specification</title>
<polygon fill="white" stroke="black" points="126,-104.5 72,-104.5 72,-68.5 126,-68.5 126,-104.5"/>
<text text-anchor="middle" x="99" y="-82.8" font-family="Times,serif" font-size="14.00">rhs</text>
</g>
<!-- BNF&#45;&gt;latm_specification -->
<g id="edge2" class="edge"><title>BNF&#45;&gt;latm_specification</title>
<path fill="none" stroke="grey" d="M1295.82,-202.525C1123.31,-199.42 186.237,-181.161 135,-150 121.871,-142.015 113.056,-127.324 107.437,-114.19"/>
<polygon fill="grey" stroke="grey" points="110.6,-112.665 103.744,-104.587 104.067,-115.177 110.6,-112.665"/>
</g>
<!-- rhs rhs -->
<g id="node4" class="node"><title>rhs rhs</title>
<polygon fill="white" stroke="black" points="221.5,-104.5 144.5,-104.5 144.5,-68.5 221.5,-68.5 221.5,-104.5"/>
<text text-anchor="middle" x="183" y="-82.8" font-family="Times,serif" font-size="14.00">alternative</text>
</g>
<!-- BNF&#45;&gt;rhs rhs -->
<g id="edge3" class="edge"><title>BNF&#45;&gt;rhs rhs</title>
<path fill="none" stroke="grey" d="M1295.8,-203.048C1134.11,-203.213 309.733,-201.783 212,-150 197.278,-142.2 185.87,-127.516 179.965,-114.34"/>
<polygon fill="grey" stroke="grey" points="183.19,-112.96 176.558,-104.698 176.589,-115.292 183.19,-112.96"/>
</g>
<!-- BNF&#45;&gt;rhs rhs -->
<g id="edge5" class="edge"><title>BNF&#45;&gt;rhs rhs</title>
<path fill="none" stroke="grey" d="M1295.77,-203.053C1136.25,-203.18 326.789,-201.283 230,-150 214.989,-142.047 203.424,-126.937 195.522,-113.567"/>
<polygon fill="grey" stroke="grey" points="198.528,-111.77 190.64,-104.698 192.396,-115.146 198.528,-111.77"/>
</g>
<!-- BNF&#45;&gt;rhs rhs -->
<g id="edge14" class="edge"><title>BNF&#45;&gt;rhs rhs</title>
<path fill="none" stroke="grey" d="M1295.87,-203.056C1137.65,-203.136 343.792,-200.755 248,-150 232.701,-141.894 220.981,-126.353 210.845,-112.797"/>
<polygon fill="grey" stroke="grey" points="213.544,-110.564 204.721,-104.698 207.96,-114.785 213.544,-110.564"/>
</g>
<!-- parenthesized_rhs_primary_list rhs parenthesized_rhs_primary_list -->
<g id="node5" class="node"><title>parenthesized_rhs_primary_list rhs parenthesized_rhs_primary_list</title>
<polygon fill="white" stroke="black" points="634.5,-104.5 239.5,-104.5 239.5,-68.5 634.5,-68.5 634.5,-104.5"/>
<text text-anchor="middle" x="437" y="-82.8" font-family="Times,serif" font-size="14.00">parenthesized_rhs_primary_list parenthesized_rhs_primary_list rhs</text>
</g>
<!-- BNF&#45;&gt;parenthesized_rhs_primary_list rhs parenthesized_rhs_primary_list -->
<g id="edge4" class="edge"><title>BNF&#45;&gt;parenthesized_rhs_primary_list rhs parenthesized_rhs_primary_list</title>
<path fill="none" stroke="grey" d="M1295.7,-203.013C1200.65,-202.724 881.59,-198.331 625,-150 573.416,-140.284 516.428,-122.417 478.465,-108.267"/>
<polygon fill="grey" stroke="grey" points="479.352,-104.859 468.761,-104.571 476.86,-111.401 479.352,-104.859"/>
</g>
<!-- BNF&#45;&gt;parenthesized_rhs_primary_list rhs parenthesized_rhs_primary_list -->
<g id="edge11" class="edge"><title>BNF&#45;&gt;parenthesized_rhs_primary_list rhs parenthesized_rhs_primary_list</title>
<path fill="none" stroke="grey" d="M1295.84,-202.985C1203.49,-202.49 893.481,-197.18 643,-150 590.977,-140.201 533.458,-122.112 492.451,-107.906"/>
<polygon fill="grey" stroke="grey" points="493.513,-104.57 482.918,-104.571 491.201,-111.177 493.513,-104.57"/>
</g>
<!-- BNF&#45;&gt;parenthesized_rhs_primary_list rhs parenthesized_rhs_primary_list -->
<g id="edge19" class="edge"><title>BNF&#45;&gt;parenthesized_rhs_primary_list rhs parenthesized_rhs_primary_list</title>
<path fill="none" stroke="grey" d="M1295.78,-202.932C1204.25,-202.162 904.499,-195.865 661,-150 608.758,-140.16 550.972,-121.959 506.845,-107.727"/>
<polygon fill="grey" stroke="grey" points="507.667,-104.314 497.075,-104.571 505.515,-110.975 507.667,-104.314"/>
</g>
<!-- rhs parenthesized_rhs_primary_list rhs -->
<g id="node6" class="node"><title>rhs parenthesized_rhs_primary_list rhs</title>
<polygon fill="white" stroke="black" points="867.5,-104.5 652.5,-104.5 652.5,-68.5 867.5,-68.5 867.5,-104.5"/>
<text text-anchor="middle" x="760" y="-82.8" font-family="Times,serif" font-size="14.00">parenthesized_rhs_primary_list rhs</text>
</g>
<!-- BNF&#45;&gt;rhs parenthesized_rhs_primary_list rhs -->
<g id="edge6" class="edge"><title>BNF&#45;&gt;rhs parenthesized_rhs_primary_list rhs</title>
<path fill="none" stroke="grey" d="M1295.89,-203.235C1225.18,-203.116 1030.06,-198.093 877,-150 847.325,-140.676 816.394,-123.792 793.793,-109.921"/>
<polygon fill="grey" stroke="grey" points="795.589,-106.917 785.255,-104.582 791.877,-112.852 795.589,-106.917"/>
</g>
<!-- rhs rhs rhs rhs rhs rhs rhs -->
<g id="node7" class="node"><title>rhs rhs rhs rhs rhs rhs rhs</title>
<polygon fill="white" stroke="black" points="1278,-104.5 886,-104.5 886,-68.5 1278,-68.5 1278,-104.5"/>
<text text-anchor="middle" x="1082" y="-82.8" font-family="Times,serif" font-size="14.00">alternative alternative alternative alternative alternative alternative</text>
</g>
<!-- BNF&#45;&gt;rhs rhs rhs rhs rhs rhs rhs -->
<g id="edge7" class="edge"><title>BNF&#45;&gt;rhs rhs rhs rhs rhs rhs rhs</title>
<path fill="none" stroke="grey" d="M1295.82,-189.975C1254.77,-170.3 1176.47,-132.777 1126.87,-109.006"/>
<polygon fill="grey" stroke="grey" points="1128.19,-105.755 1117.66,-104.59 1125.16,-112.068 1128.19,-105.755"/>
</g>
<!-- rhs -->
<g id="node8" class="node"><title>rhs</title>
<polygon fill="white" stroke="black" points="1350,-104.5 1296,-104.5 1296,-68.5 1350,-68.5 1350,-104.5"/>
<text text-anchor="middle" x="1323" y="-82.8" font-family="Times,serif" font-size="14.00">rhs</text>
</g>
<!-- BNF&#45;&gt;rhs -->
<g id="edge8" class="edge"><title>BNF&#45;&gt;rhs</title>
<path fill="none" stroke="grey" d="M1296,-200.693C1218.49,-186.544 1215.15,-111.477 1285.98,-92.0783"/>
<polygon fill="grey" stroke="grey" points="1286.99,-95.4381 1295.97,-89.8127 1285.44,-88.6115 1286.99,-95.4381"/>
</g>
<!-- BNF&#45;&gt;rhs -->
<g id="edge9" class="edge"><title>BNF&#45;&gt;rhs</title>
<path fill="none" stroke="grey" d="M1295.9,-199.668C1236.49,-183.794 1233.22,-115.72 1286.11,-94.1105"/>
<polygon fill="grey" stroke="grey" points="1287.48,-97.3419 1295.85,-90.8456 1285.26,-90.7047 1287.48,-97.3419"/>
</g>
<!-- BNF&#45;&gt;rhs -->
<g id="edge10" class="edge"><title>BNF&#45;&gt;rhs</title>
<path fill="none" stroke="grey" d="M1295.71,-197.737C1254.33,-179.883 1251.33,-121.416 1286.7,-97.6658"/>
<polygon fill="grey" stroke="grey" points="1288.82,-100.499 1295.95,-92.6618 1285.49,-94.3429 1288.82,-100.499"/>
</g>
<!-- BNF&#45;&gt;rhs -->
<g id="edge15" class="edge"><title>BNF&#45;&gt;rhs</title>
<path fill="none" stroke="grey" d="M1295.62,-193.548C1271.64,-173.908 1269.37,-128.474 1288.79,-103.934"/>
<polygon fill="grey" stroke="grey" points="1291.33,-106.34 1295.85,-96.7596 1286.34,-101.427 1291.33,-106.34"/>
</g>
<!-- BNF&#45;&gt;rhs -->
<g id="edge16" class="edge"><title>BNF&#45;&gt;rhs</title>
<path fill="none" stroke="grey" d="M1298.22,-185.958C1287.81,-166.935 1286.46,-135.924 1294.17,-113.789"/>
<polygon fill="grey" stroke="grey" points="1297.38,-115.177 1298.18,-104.612 1290.97,-112.37 1297.38,-115.177"/>
</g>
<!-- BNF&#45;&gt;rhs -->
<g id="edge17" class="edge"><title>BNF&#45;&gt;rhs</title>
<path fill="none" stroke="grey" d="M1308.13,-185.958C1301.94,-167.106 1301.09,-136.479 1305.58,-114.386"/>
<polygon fill="grey" stroke="grey" points="1308.99,-115.171 1308.11,-104.612 1302.21,-113.414 1308.99,-115.171"/>
</g>
<!-- BNF&#45;&gt;rhs -->
<g id="edge20" class="edge"><title>BNF&#45;&gt;rhs</title>
<path fill="none" stroke="grey" d="M1318.04,-185.958C1315.99,-167.191 1315.7,-136.756 1317.17,-114.687"/>
<polygon fill="grey" stroke="grey" points="1320.67,-114.875 1318.04,-104.612 1313.69,-114.276 1320.67,-114.875"/>
</g>
<!-- BNF&#45;&gt;rhs -->
<g id="edge23" class="edge"><title>BNF&#45;&gt;rhs</title>
<path fill="none" stroke="grey" d="M1327.96,-185.958C1330.01,-167.191 1330.3,-136.756 1328.83,-114.687"/>
<polygon fill="grey" stroke="grey" points="1332.31,-114.276 1327.96,-104.612 1325.33,-114.875 1332.31,-114.276"/>
</g>
<!-- BNF&#45;&gt;rhs -->
<g id="edge24" class="edge"><title>BNF&#45;&gt;rhs</title>
<path fill="none" stroke="grey" d="M1337.87,-185.958C1344.06,-167.106 1344.91,-136.479 1340.42,-114.386"/>
<polygon fill="grey" stroke="grey" points="1343.79,-113.414 1337.89,-104.612 1337.01,-115.171 1343.79,-113.414"/>
</g>
<!-- BNF&#45;&gt;rhs -->
<g id="edge26" class="edge"><title>BNF&#45;&gt;rhs</title>
<path fill="none" stroke="grey" d="M1347.78,-185.958C1358.19,-166.935 1359.54,-135.924 1351.83,-113.789"/>
<polygon fill="grey" stroke="grey" points="1355.03,-112.37 1347.82,-104.612 1348.62,-115.177 1355.03,-112.37"/>
</g>
<!-- BNF&#45;&gt;rhs -->
<g id="edge27" class="edge"><title>BNF&#45;&gt;rhs</title>
<path fill="none" stroke="grey" d="M1350.38,-193.548C1374.36,-173.908 1376.63,-128.474 1357.21,-103.934"/>
<polygon fill="grey" stroke="grey" points="1359.66,-101.427 1350.15,-96.7596 1354.67,-106.34 1359.66,-101.427"/>
</g>
<!-- BNF&#45;&gt;rhs -->
<g id="edge28" class="edge"><title>BNF&#45;&gt;rhs</title>
<path fill="none" stroke="grey" d="M1350.29,-197.737C1391.67,-179.883 1394.67,-121.416 1359.3,-97.6658"/>
<polygon fill="grey" stroke="grey" points="1360.51,-94.3429 1350.05,-92.6618 1357.18,-100.499 1360.51,-94.3429"/>
</g>
<!-- BNF&#45;&gt;rhs -->
<g id="edge29" class="edge"><title>BNF&#45;&gt;rhs</title>
<path fill="none" stroke="grey" d="M1350.1,-199.668C1409.51,-183.794 1412.78,-115.72 1359.89,-94.1105"/>
<polygon fill="grey" stroke="grey" points="1360.74,-90.7047 1350.15,-90.8456 1358.52,-97.3419 1360.74,-90.7047"/>
</g>
<!-- BNF&#45;&gt;rhs -->
<g id="edge30" class="edge"><title>BNF&#45;&gt;rhs</title>
<path fill="none" stroke="grey" d="M1350,-200.693C1427.51,-186.544 1430.85,-111.477 1360.02,-92.0783"/>
<polygon fill="grey" stroke="grey" points="1360.56,-88.6115 1350.03,-89.8127 1359.01,-95.4381 1360.56,-88.6115"/>
</g>
<!-- rhs separator -->
<g id="node9" class="node"><title>rhs separator</title>
<polygon fill="white" stroke="black" points="1422,-104.5 1368,-104.5 1368,-68.5 1422,-68.5 1422,-104.5"/>
<text text-anchor="middle" x="1395" y="-82.8" font-family="Times,serif" font-size="14.00">rhs</text>
</g>
<!-- BNF&#45;&gt;rhs separator -->
<g id="edge12" class="edge"><title>BNF&#45;&gt;rhs separator</title>
<path fill="none" stroke="grey" d="M1335.33,-185.549C1342.44,-175.316 1351.44,-162.066 1359,-150 1366.37,-138.228 1374.12,-124.921 1380.53,-113.621"/>
<polygon fill="grey" stroke="grey" points="1383.7,-115.11 1385.56,-104.679 1377.6,-111.678 1383.7,-115.11"/>
</g>
<!-- rhs rhs alternative rhs rhs rhs -->
<g id="node10" class="node"><title>rhs rhs alternative rhs rhs rhs</title>
<polygon fill="white" stroke="black" points="1643.5,-104.5 1440.5,-104.5 1440.5,-68.5 1643.5,-68.5 1643.5,-104.5"/>
<text text-anchor="middle" x="1542" y="-82.8" font-family="Times,serif" font-size="14.00">alternative rhs rhs alternative rhs</text>
</g>
<!-- BNF&#45;&gt;rhs rhs alternative rhs rhs rhs -->
<g id="edge13" class="edge"><title>BNF&#45;&gt;rhs rhs alternative rhs rhs rhs</title>
<path fill="none" stroke="grey" d="M1350.29,-190.135C1372.25,-179.653 1403.83,-164.301 1431,-150 1455.49,-137.111 1482.55,-121.89 1503.83,-109.697"/>
<polygon fill="grey" stroke="grey" points="1505.64,-112.691 1512.57,-104.672 1502.16,-106.622 1505.64,-112.691"/>
</g>
<!-- rhs rhs rhs rhs rhs rhs -->
<g id="node11" class="node"><title>rhs rhs rhs rhs rhs rhs</title>
<polygon fill="white" stroke="black" points="1990.5,-104.5 1661.5,-104.5 1661.5,-68.5 1990.5,-68.5 1990.5,-104.5"/>
<text text-anchor="middle" x="1826" y="-82.8" font-family="Times,serif" font-size="14.00">alternative alternative alternative alternative alternative</text>
</g>
<!-- BNF&#45;&gt;rhs rhs rhs rhs rhs rhs -->
<g id="edge18" class="edge"><title>BNF&#45;&gt;rhs rhs rhs rhs rhs rhs</title>
<path fill="none" stroke="grey" d="M1350.3,-200.366C1407.26,-194.491 1542.61,-178.536 1653,-150 1695.39,-139.042 1742,-121.893 1776.15,-108.329"/>
<polygon fill="grey" stroke="grey" points="1777.46,-111.576 1785.44,-104.606 1774.85,-105.078 1777.46,-111.576"/>
</g>
<!-- rhs rhs rhs -->
<g id="node12" class="node"><title>rhs rhs rhs</title>
<polygon fill="white" stroke="black" points="2148,-104.5 2008,-104.5 2008,-68.5 2148,-68.5 2148,-104.5"/>
<text text-anchor="middle" x="2078" y="-82.8" font-family="Times,serif" font-size="14.00">alternative alternative</text>
</g>
<!-- BNF&#45;&gt;rhs rhs rhs -->
<g id="edge21" class="edge"><title>BNF&#45;&gt;rhs rhs rhs</title>
<path fill="none" stroke="grey" d="M1350.07,-202.977C1459.92,-202.529 1870.83,-197.557 1991,-150 2012.16,-141.626 2032.11,-125.431 2047.75,-111.624"/>
<polygon fill="grey" stroke="grey" points="2050.39,-113.952 2055.51,-104.676 2045.73,-108.735 2050.39,-113.952"/>
</g>
<!-- BNF&#45;&gt;rhs rhs rhs -->
<g id="edge25" class="edge"><title>BNF&#45;&gt;rhs rhs rhs</title>
<path fill="none" stroke="grey" d="M1350.05,-202.998C1461.88,-202.706 1886.5,-198.479 2009,-150 2029.77,-141.78 2049.38,-126.022 2062.59,-112.387"/>
<polygon fill="grey" stroke="grey" points="2065.46,-114.432 2069.59,-104.676 2060.28,-109.726 2065.46,-114.432"/>
</g>
<!-- parenthesized_rhs_primary_list rhs -->
<g id="node13" class="node"><title>parenthesized_rhs_primary_list rhs</title>
<polygon fill="white" stroke="black" points="2360,-104.5 2166,-104.5 2166,-68.5 2360,-68.5 2360,-104.5"/>
<text text-anchor="middle" x="2263" y="-82.8" font-family="Times,serif" font-size="14.00">parenthesized_rhs_primary_list</text>
</g>
<!-- BNF&#45;&gt;parenthesized_rhs_primary_list rhs -->
<g id="edge22" class="edge"><title>BNF&#45;&gt;parenthesized_rhs_primary_list rhs</title>
<path fill="none" stroke="grey" d="M1350.28,-202.964C1476.14,-202.541 2001.15,-197.886 2157,-150 2184.52,-141.545 2212.44,-124.674 2232.71,-110.59"/>
<polygon fill="grey" stroke="grey" points="2234.79,-113.407 2240.9,-104.757 2230.73,-107.704 2234.79,-113.407"/>
</g>
<!-- Legend -->
<g id="node14" class="node"><title>Legend</title>
<polygon fill="lightgrey" stroke="none" points="2671.5,-150 2378.5,-150 2378.5,-23 2671.5,-23 2671.5,-150"/>
<polygon fill="white" stroke="none" points="2386.5,-27 2386.5,-146 2663.5,-146 2663.5,-27 2386.5,-27"/>
<polygon fill="lightgreen" stroke="none" points="2390,-121.5 2390,-142.5 2661,-142.5 2661,-121.5 2390,-121.5"/>
<polygon fill="none" stroke="black" points="2390,-121.5 2390,-142.5 2661,-142.5 2661,-121.5 2390,-121.5"/>
<text text-anchor="start" x="2436.5" y="-128.3" font-family="Times,serif" font-size="14.00">The green node is the start node</text>
<polygon fill="lightblue" stroke="none" points="2390,-98.5 2390,-119.5 2661,-119.5 2661,-98.5 2390,-98.5"/>
<polygon fill="none" stroke="black" points="2390,-98.5 2390,-119.5 2661,-119.5 2661,-98.5 2390,-98.5"/>
<text text-anchor="start" x="2393" y="-105.3" font-family="Times,serif" font-size="14.00">Lightblue nodes are for reserved rule names, etc</text>
<polygon fill="orchid" stroke="none" points="2390,-75.5 2390,-96.5 2661,-96.5 2661,-75.5 2390,-75.5"/>
<polygon fill="none" stroke="black" points="2390,-75.5 2390,-96.5 2661,-96.5 2661,-75.5 2390,-75.5"/>
<text text-anchor="start" x="2444" y="-82.3" font-family="Times,serif" font-size="14.00">Orchid nodes are for lexemes</text>
<polygon fill="goldenrod" stroke="none" points="2390,-52.5 2390,-73.5 2661,-73.5 2661,-52.5 2390,-52.5"/>
<polygon fill="none" stroke="black" points="2390,-52.5 2390,-73.5 2661,-73.5 2661,-52.5 2390,-52.5"/>
<text text-anchor="start" x="2445.5" y="-59.3" font-family="Times,serif" font-size="14.00">Golden nodes are for actions</text>
<polygon fill="#ff3030" stroke="none" points="2390,-29.5 2390,-50.5 2661,-50.5 2661,-29.5 2390,-29.5"/>
<polygon fill="none" stroke="black" points="2390,-29.5 2390,-50.5 2661,-50.5 2661,-29.5 2390,-29.5"/>
<text text-anchor="start" x="2457.5" y="-36.3" font-family="Times,serif" font-size="14.00">Red nodes are for events</text>
<polygon fill="none" stroke="black" points="2386.5,-27 2386.5,-146 2663.5,-146 2663.5,-27 2386.5,-27"/>
</g>
</g>
</svg>
