<?xml version="1.0" encoding="UTF-8" standalone="no"?>
<!DOCTYPE svg PUBLIC "-//W3C//DTD SVG 1.1//EN"
 "http://www.w3.org/Graphics/SVG/1.1/DTD/svg11.dtd">
<!-- Generated by graphviz version 2.38.0 (20140413.2041)
 -->
<!-- Title: Perl Pages: 1 -->
<svg width="3074pt" height="230pt"
 viewBox="0.00 0.00 3073.50 230.00" xmlns="http://www.w3.org/2000/svg" xmlns:xlink="http://www.w3.org/1999/xlink">
<g id="graph0" class="graph" transform="scale(1 1) rotate(0) translate(4 226)">
<title>Perl</title>
<polygon fill="white" stroke="none" points="-4,4 -4,-226 3069.5,-226 3069.5,4 -4,4"/>
<text text-anchor="middle" x="1532.75" y="-7.8" font-family="Times,serif" font-size="14.00">json.2.bnf</text>
<!-- action -->
<g id="node1" class="node"><title>action</title>
<polygon fill="white" stroke="black" points="54,-104.5 0,-104.5 0,-68.5 54,-68.5 54,-104.5"/>
</g>
<!-- BNF -->
<g id="node2" class="node"><title>BNF</title>
<polygon fill="lightgrey" stroke="black" points="198,-222 144,-222 144,-186 198,-186 198,-222"/>
<text text-anchor="middle" x="171" y="-200.3" font-family="Times,serif" font-size="14.00">BNF</text>
</g>
<!-- BNF&#45;&gt;action -->
<g id="edge1" class="edge"><title>BNF&#45;&gt;action</title>
<path fill="none" stroke="grey" d="M143.951,-194.768C120.353,-186.501 86.3334,-171.834 63,-150 52.3223,-140.009 43.895,-126.127 37.8868,-113.983"/>
<polygon fill="grey" stroke="grey" points="40.9746,-112.322 33.5903,-104.724 34.6249,-115.269 40.9746,-112.322"/>
</g>
<!-- latm_specification -->
<g id="node3" class="node"><title>latm_specification</title>
<polygon fill="white" stroke="black" points="126,-104.5 72,-104.5 72,-68.5 126,-68.5 126,-104.5"/>
</g>
<!-- BNF&#45;&gt;latm_specification -->
<g id="edge2" class="edge"><title>BNF&#45;&gt;latm_specification</title>
<path fill="none" stroke="grey" d="M158.669,-185.549C151.558,-175.316 142.558,-162.066 135,-150 127.625,-138.228 119.882,-124.921 113.474,-113.621"/>
<polygon fill="grey" stroke="grey" points="116.397,-111.678 108.443,-104.679 110.296,-115.11 116.397,-111.678"/>
</g>
<!-- rhs -->
<g id="node4" class="node"><title>rhs</title>
<polygon fill="white" stroke="black" points="198,-104.5 144,-104.5 144,-68.5 198,-68.5 198,-104.5"/>
</g>
<!-- BNF&#45;&gt;rhs -->
<g id="edge3" class="edge"><title>BNF&#45;&gt;rhs</title>
<path fill="none" stroke="grey" d="M143.988,-200.259C75.5559,-185.312 72.1792,-113.565 133.858,-93.0126"/>
<polygon fill="grey" stroke="grey" points="135.153,-96.2868 143.871,-90.2668 133.301,-89.536 135.153,-96.2868"/>
</g>
<!-- BNF&#45;&gt;rhs -->
<g id="edge6" class="edge"><title>BNF&#45;&gt;rhs</title>
<path fill="none" stroke="grey" d="M143.879,-198.889C93.472,-182.087 90.2591,-118.44 134.24,-95.666"/>
<polygon fill="grey" stroke="grey" points="135.817,-98.7993 143.666,-91.6822 133.092,-92.3516 135.817,-98.7993"/>
</g>
<!-- BNF&#45;&gt;rhs -->
<g id="edge10" class="edge"><title>BNF&#45;&gt;rhs</title>
<path fill="none" stroke="grey" d="M143.994,-196.291C111.105,-177.632 108.269,-124.885 135.488,-100.348"/>
<polygon fill="grey" stroke="grey" points="137.905,-102.92 143.962,-94.2275 133.806,-97.2457 137.905,-102.92"/>
</g>
<!-- BNF&#45;&gt;rhs -->
<g id="edge13" class="edge"><title>BNF&#45;&gt;rhs</title>
<path fill="none" stroke="grey" d="M143.673,-189.297C128.08,-169.568 126.33,-132.951 138.424,-109.432"/>
<polygon fill="grey" stroke="grey" points="141.494,-111.13 143.972,-100.829 135.611,-107.336 141.494,-111.13"/>
</g>
<!-- BNF&#45;&gt;rhs -->
<g id="edge14" class="edge"><title>BNF&#45;&gt;rhs</title>
<path fill="none" stroke="grey" d="M151.178,-185.958C142.887,-167.021 141.778,-136.202 147.852,-114.087"/>
<polygon fill="grey" stroke="grey" points="151.168,-115.207 151.148,-104.612 144.557,-112.907 151.168,-115.207"/>
</g>
<!-- BNF&#45;&gt;rhs -->
<g id="edge15" class="edge"><title>BNF&#45;&gt;rhs</title>
<path fill="none" stroke="grey" d="M161.089,-185.958C156.981,-167.191 156.399,-136.756 159.345,-114.687"/>
<polygon fill="grey" stroke="grey" points="162.832,-115.06 161.074,-104.612 155.933,-113.876 162.832,-115.06"/>
</g>
<!-- BNF&#45;&gt;rhs -->
<g id="edge17" class="edge"><title>BNF&#45;&gt;rhs</title>
<path fill="none" stroke="grey" d="M171,-185.958C171,-167.191 171,-136.756 171,-114.687"/>
<polygon fill="grey" stroke="grey" points="174.5,-114.612 171,-104.612 167.5,-114.612 174.5,-114.612"/>
</g>
<!-- BNF&#45;&gt;rhs -->
<g id="edge19" class="edge"><title>BNF&#45;&gt;rhs</title>
<path fill="none" stroke="grey" d="M180.911,-185.958C185.019,-167.191 185.601,-136.756 182.655,-114.687"/>
<polygon fill="grey" stroke="grey" points="186.067,-113.876 180.926,-104.612 179.168,-115.06 186.067,-113.876"/>
</g>
<!-- BNF&#45;&gt;rhs -->
<g id="edge20" class="edge"><title>BNF&#45;&gt;rhs</title>
<path fill="none" stroke="grey" d="M190.822,-185.958C199.113,-167.021 200.222,-136.202 194.148,-114.087"/>
<polygon fill="grey" stroke="grey" points="197.443,-112.907 190.852,-104.612 190.832,-115.207 197.443,-112.907"/>
</g>
<!-- BNF&#45;&gt;rhs -->
<g id="edge22" class="edge"><title>BNF&#45;&gt;rhs</title>
<path fill="none" stroke="grey" d="M198.327,-189.297C213.92,-169.568 215.67,-132.951 203.576,-109.432"/>
<polygon fill="grey" stroke="grey" points="206.389,-107.336 198.028,-100.829 200.506,-111.13 206.389,-107.336"/>
</g>
<!-- BNF&#45;&gt;rhs -->
<g id="edge23" class="edge"><title>BNF&#45;&gt;rhs</title>
<path fill="none" stroke="grey" d="M198.006,-196.291C230.895,-177.632 233.731,-124.885 206.512,-100.348"/>
<polygon fill="grey" stroke="grey" points="208.194,-97.2457 198.038,-94.2275 204.095,-102.92 208.194,-97.2457"/>
</g>
<!-- BNF&#45;&gt;rhs -->
<g id="edge24" class="edge"><title>BNF&#45;&gt;rhs</title>
<path fill="none" stroke="grey" d="M198.121,-198.889C248.528,-182.087 251.741,-118.44 207.76,-95.666"/>
<polygon fill="grey" stroke="grey" points="208.908,-92.3516 198.334,-91.6822 206.183,-98.7993 208.908,-92.3516"/>
</g>
<!-- BNF&#45;&gt;rhs -->
<g id="edge25" class="edge"><title>BNF&#45;&gt;rhs</title>
<path fill="none" stroke="grey" d="M198.012,-200.259C266.444,-185.312 269.821,-113.565 208.142,-93.0126"/>
<polygon fill="grey" stroke="grey" points="208.699,-89.536 198.129,-90.2668 206.847,-96.2868 208.699,-89.536"/>
</g>
<!-- rhs alternative action -->
<g id="node5" class="node"><title>rhs alternative action</title>
<polygon fill="white" stroke="black" points="288,-104.5 216,-104.5 216,-68.5 288,-68.5 288,-104.5"/>
<text text-anchor="middle" x="252" y="-82.8" font-family="Times,serif" font-size="14.00">action rhs</text>
</g>
<!-- BNF&#45;&gt;rhs alternative action -->
<g id="edge4" class="edge"><title>BNF&#45;&gt;rhs alternative action</title>
<path fill="none" stroke="grey" d="M182.952,-185.958C196.472,-166.679 218.627,-135.087 234.187,-112.9"/>
<polygon fill="grey" stroke="grey" points="237.123,-114.809 239.999,-104.612 231.392,-110.79 237.123,-114.809"/>
</g>
<!-- parenthesized_rhs_primary_list rhs parenthesized_rhs_primary_list -->
<g id="node6" class="node"><title>parenthesized_rhs_primary_list rhs parenthesized_rhs_primary_list</title>
<polygon fill="white" stroke="black" points="764,-104.5 306,-104.5 306,-68.5 764,-68.5 764,-104.5"/>
<text text-anchor="middle" x="535" y="-82.8" font-family="Times,serif" font-size="14.00">parenthesized_rhs_primary_list parenthesized_rhs_primary_list blessing_name</text>
</g>
<!-- BNF&#45;&gt;parenthesized_rhs_primary_list rhs parenthesized_rhs_primary_list -->
<g id="edge5" class="edge"><title>BNF&#45;&gt;parenthesized_rhs_primary_list rhs parenthesized_rhs_primary_list</title>
<path fill="none" stroke="grey" d="M198.062,-194.413C255.534,-176.177 391.087,-133.165 471.654,-107.6"/>
<polygon fill="grey" stroke="grey" points="472.725,-110.932 481.198,-104.572 470.608,-104.26 472.725,-110.932"/>
</g>
<!-- rhs parenthesized_rhs_primary_list -->
<g id="node7" class="node"><title>rhs parenthesized_rhs_primary_list</title>
<polygon fill="white" stroke="black" points="997.5,-104.5 782.5,-104.5 782.5,-68.5 997.5,-68.5 997.5,-104.5"/>
<text text-anchor="middle" x="890" y="-82.8" font-family="Times,serif" font-size="14.00">parenthesized_rhs_primary_list rhs</text>
</g>
<!-- BNF&#45;&gt;rhs parenthesized_rhs_primary_list -->
<g id="edge7" class="edge"><title>BNF&#45;&gt;rhs parenthesized_rhs_primary_list</title>
<path fill="none" stroke="grey" d="M198.19,-202.052C300.61,-198.258 662.886,-182.766 773,-150 803.008,-141.071 834.142,-123.998 856.742,-109.951"/>
<polygon fill="grey" stroke="grey" points="858.698,-112.854 865.268,-104.542 854.949,-106.943 858.698,-112.854"/>
</g>
<!-- rhs alternative action rhs alternative action rhs alternative blessing_name rhs -->
<g id="node8" class="node"><title>rhs alternative action rhs alternative action rhs alternative blessing_name rhs</title>
<polygon fill="white" stroke="black" points="1478.5,-104.5 1015.5,-104.5 1015.5,-68.5 1478.5,-68.5 1478.5,-104.5"/>
<text text-anchor="middle" x="1247" y="-82.8" font-family="Times,serif" font-size="14.00">action rhs alternative action rhs alternative blessing_name rhs alternative action</text>
</g>
<!-- BNF&#45;&gt;rhs alternative action rhs alternative action rhs alternative blessing_name rhs -->
<g id="edge8" class="edge"><title>BNF&#45;&gt;rhs alternative action rhs alternative action rhs alternative blessing_name rhs</title>
<path fill="none" stroke="grey" d="M198.274,-203.159C303.404,-203.373 692.168,-200.496 1007,-150 1068.05,-140.208 1136.13,-121.734 1184.14,-107.401"/>
<polygon fill="grey" stroke="grey" points="1185.2,-110.736 1193.77,-104.501 1183.19,-104.033 1185.2,-110.736"/>
</g>
<!-- parenthesized_rhs_primary_list alternative parenthesized_rhs_primary_list parenthesized_rhs_primary_list action -->
<g id="node9" class="node"><title>parenthesized_rhs_primary_list alternative parenthesized_rhs_primary_list parenthesized_rhs_primary_list action</title>
<polygon fill="white" stroke="black" points="2071.5,-104.5 1496.5,-104.5 1496.5,-68.5 2071.5,-68.5 2071.5,-104.5"/>
<text text-anchor="middle" x="1784" y="-82.8" font-family="Times,serif" font-size="14.00">parenthesized_rhs_primary_list parenthesized_rhs_primary_list rhs parenthesized_rhs_primary_list</text>
</g>
<!-- BNF&#45;&gt;parenthesized_rhs_primary_list alternative parenthesized_rhs_primary_list parenthesized_rhs_primary_list action -->
<g id="edge9" class="edge"><title>BNF&#45;&gt;parenthesized_rhs_primary_list alternative parenthesized_rhs_primary_list parenthesized_rhs_primary_list action</title>
<path fill="none" stroke="grey" d="M198.187,-202.528C362.578,-199.583 1225.45,-182.766 1488,-150 1564,-140.516 1649.45,-121.559 1708.93,-106.997"/>
<polygon fill="grey" stroke="grey" points="1710.12,-110.31 1718.99,-104.517 1708.44,-103.514 1710.12,-110.31"/>
</g>
<!-- rhs rhs alternative rhs rhs rhs -->
<g id="node10" class="node"><title>rhs rhs alternative rhs rhs rhs</title>
<polygon fill="white" stroke="black" points="2292.5,-104.5 2089.5,-104.5 2089.5,-68.5 2292.5,-68.5 2292.5,-104.5"/>
<text text-anchor="middle" x="2191" y="-82.8" font-family="Times,serif" font-size="14.00">alternative rhs rhs alternative rhs</text>
</g>
<!-- BNF&#45;&gt;rhs rhs alternative rhs rhs rhs -->
<g id="edge11" class="edge"><title>BNF&#45;&gt;rhs rhs alternative rhs rhs rhs</title>
<path fill="none" stroke="grey" d="M198.219,-203.041C417.45,-203.269 1891.79,-202.817 2081,-150 2109.82,-141.955 2139.12,-124.773 2160.22,-110.457"/>
<polygon fill="grey" stroke="grey" points="2162.24,-113.316 2168.46,-104.735 2158.25,-107.567 2162.24,-113.316"/>
</g>
<!-- rhs rhs -->
<g id="node11" class="node"><title>rhs rhs</title>
<polygon fill="white" stroke="black" points="2408,-104.5 2310,-104.5 2310,-68.5 2408,-68.5 2408,-104.5"/>
<text text-anchor="middle" x="2359" y="-82.8" font-family="Times,serif" font-size="14.00">alternative rhs</text>
</g>
<!-- BNF&#45;&gt;rhs rhs -->
<g id="edge12" class="edge"><title>BNF&#45;&gt;rhs rhs</title>
<path fill="none" stroke="grey" d="M198.341,-202.922C439.101,-202.195 2184.15,-195.566 2284,-150 2301.31,-142.1 2315.7,-126.186 2328.02,-112.395"/>
<polygon fill="grey" stroke="grey" points="2330.96,-114.369 2335.05,-104.596 2325.76,-109.684 2330.96,-114.369"/>
</g>
<!-- BNF&#45;&gt;rhs rhs -->
<g id="edge18" class="edge"><title>BNF&#45;&gt;rhs rhs</title>
<path fill="none" stroke="grey" d="M198.106,-202.933C438.667,-202.264 2201.63,-195.806 2302,-150 2318.99,-142.248 2333.16,-126.778 2343.13,-113.17"/>
<polygon fill="grey" stroke="grey" points="2346.25,-114.812 2349.05,-104.596 2340.49,-110.831 2346.25,-114.812"/>
</g>
<!-- BNF&#45;&gt;rhs rhs -->
<g id="edge21" class="edge"><title>BNF&#45;&gt;rhs rhs</title>
<path fill="none" stroke="grey" d="M198.042,-202.942C439.998,-202.324 2219.15,-196.022 2320,-150 2336.66,-142.395 2350.62,-127.365 2358.47,-113.95"/>
<polygon fill="grey" stroke="grey" points="2361.8,-115.115 2363.06,-104.596 2355.51,-112.033 2361.8,-115.115"/>
</g>
<!-- rhs rhs rhs rhs rhs rhs -->
<g id="node12" class="node"><title>rhs rhs rhs rhs rhs rhs</title>
<polygon fill="white" stroke="black" points="2754.5,-104.5 2425.5,-104.5 2425.5,-68.5 2754.5,-68.5 2754.5,-104.5"/>
<text text-anchor="middle" x="2590" y="-82.8" font-family="Times,serif" font-size="14.00">alternative alternative alternative alternative alternative</text>
</g>
<!-- BNF&#45;&gt;rhs rhs rhs rhs rhs rhs -->
<g id="edge16" class="edge"><title>BNF&#45;&gt;rhs rhs rhs rhs rhs rhs</title>
<path fill="none" stroke="grey" d="M198.223,-202.889C438.159,-201.845 2188.53,-192.788 2417,-150 2461.62,-141.644 2510.02,-123.3 2544.25,-108.635"/>
<polygon fill="grey" stroke="grey" points="2545.74,-111.804 2553.51,-104.608 2542.95,-105.385 2545.74,-111.804"/>
</g>
<!-- Legend -->
<g id="node13" class="node"><title>Legend</title>
<polygon fill="lightgrey" stroke="none" points="3065.5,-150 2772.5,-150 2772.5,-23 3065.5,-23 3065.5,-150"/>
<polygon fill="white" stroke="none" points="2780.5,-27 2780.5,-146 3057.5,-146 3057.5,-27 2780.5,-27"/>
<polygon fill="lightgreen" stroke="none" points="2784,-121.5 2784,-142.5 3055,-142.5 3055,-121.5 2784,-121.5"/>
<polygon fill="none" stroke="black" points="2784,-121.5 2784,-142.5 3055,-142.5 3055,-121.5 2784,-121.5"/>
<text text-anchor="start" x="2830.5" y="-128.3" font-family="Times,serif" font-size="14.00">The green node is the start node</text>
<polygon fill="lightblue" stroke="none" points="2784,-98.5 2784,-119.5 3055,-119.5 3055,-98.5 2784,-98.5"/>
<polygon fill="none" stroke="black" points="2784,-98.5 2784,-119.5 3055,-119.5 3055,-98.5 2784,-98.5"/>
<text text-anchor="start" x="2787" y="-105.3" font-family="Times,serif" font-size="14.00">Lightblue nodes are for reserved rule names, etc</text>
<polygon fill="orchid" stroke="none" points="2784,-75.5 2784,-96.5 3055,-96.5 3055,-75.5 2784,-75.5"/>
<polygon fill="none" stroke="black" points="2784,-75.5 2784,-96.5 3055,-96.5 3055,-75.5 2784,-75.5"/>
<text text-anchor="start" x="2838" y="-82.3" font-family="Times,serif" font-size="14.00">Orchid nodes are for lexemes</text>
<polygon fill="goldenrod" stroke="none" points="2784,-52.5 2784,-73.5 3055,-73.5 3055,-52.5 2784,-52.5"/>
<polygon fill="none" stroke="black" points="2784,-52.5 2784,-73.5 3055,-73.5 3055,-52.5 2784,-52.5"/>
<text text-anchor="start" x="2839.5" y="-59.3" font-family="Times,serif" font-size="14.00">Golden nodes are for actions</text>
<polygon fill="#ff3030" stroke="none" points="2784,-29.5 2784,-50.5 3055,-50.5 3055,-29.5 2784,-29.5"/>
<polygon fill="none" stroke="black" points="2784,-29.5 2784,-50.5 3055,-50.5 3055,-29.5 2784,-29.5"/>
<text text-anchor="start" x="2851.5" y="-36.3" font-family="Times,serif" font-size="14.00">Red nodes are for events</text>
<polygon fill="none" stroke="black" points="2780.5,-27 2780.5,-146 3057.5,-146 3057.5,-27 2780.5,-27"/>
</g>
</g>
</svg>
