<?xml version="1.0" encoding="UTF-8" standalone="no"?>
<!DOCTYPE svg PUBLIC "-//W3C//DTD SVG 1.1//EN"
 "http://www.w3.org/Graphics/SVG/1.1/DTD/svg11.dtd">
<!-- Generated by graphviz version 2.38.0 (20140413.2041)
 -->
<!-- Title: Perl Pages: 1 -->
<svg width="494pt" height="302pt"
 viewBox="0.00 0.00 493.50 302.00" xmlns="http://www.w3.org/2000/svg" xmlns:xlink="http://www.w3.org/1999/xlink">
<g id="graph0" class="graph" transform="scale(1 1) rotate(0) translate(4 298)">
<title>Perl</title>
<polygon fill="white" stroke="none" points="-4,4 -4,-298 489.5,-298 489.5,4 -4,4"/>
<text text-anchor="middle" x="242.75" y="-7.8" font-family="Times,serif" font-size="14.00">json.1.bnf</text>
<!-- lexeme default -->
<g id="node1" class="node"><title>lexeme default</title>
<polygon fill="lightblue" stroke="black" points="98,-222 0,-222 0,-186 98,-186 98,-222"/>
<text text-anchor="middle" x="49" y="-200.3" font-family="Times,serif" font-size="14.00">lexeme default</text>
</g>
<!-- BNF -->
<g id="node2" class="node"><title>BNF</title>
<polygon fill="lightgrey" stroke="black" points="124,-294 70,-294 70,-258 124,-258 124,-294"/>
<text text-anchor="middle" x="97" y="-272.3" font-family="Times,serif" font-size="14.00">BNF</text>
</g>
<!-- BNF&#45;&gt;lexeme default -->
<g id="edge1" class="edge"><title>BNF&#45;&gt;lexeme default</title>
<path fill="none" stroke="grey" d="M85.1348,-257.697C79.4965,-249.474 72.6457,-239.483 66.4313,-230.421"/>
<polygon fill="grey" stroke="grey" points="69.2706,-228.372 60.7287,-222.104 63.4975,-232.331 69.2706,-228.372"/>
</g>
<!-- ꞉discard -->
<g id="node3" class="node"><title>꞉discard</title>
<polygon fill="lightblue" stroke="black" points="176,-222 116,-222 116,-186 176,-186 176,-222"/>
<text text-anchor="middle" x="146" y="-200.3" font-family="Times,serif" font-size="14.00">꞉discard</text>
</g>
<!-- BNF&#45;&gt;꞉discard -->
<g id="edge2" class="edge"><title>BNF&#45;&gt;꞉discard</title>
<path fill="none" stroke="grey" d="M109.112,-257.697C114.868,-249.474 121.862,-239.483 128.206,-230.421"/>
<polygon fill="grey" stroke="grey" points="131.16,-232.304 134.027,-222.104 125.425,-228.29 131.16,-232.304"/>
</g>
<!-- lexeme -->
<g id="node4" class="node"><title>lexeme</title>
<polygon fill="lightblue" stroke="black" points="174,-104.5 118,-104.5 118,-68.5 174,-68.5 174,-104.5"/>
<text text-anchor="middle" x="146" y="-82.8" font-family="Times,serif" font-size="14.00">lexeme</text>
</g>
<!-- ꞉discard&#45;&gt;lexeme -->
<g id="edge3" class="edge"><title>꞉discard&#45;&gt;lexeme</title>
<path fill="none" stroke="grey" d="M146,-185.958C146,-167.191 146,-136.756 146,-114.687"/>
<polygon fill="grey" stroke="grey" points="149.5,-114.612 146,-104.612 142.5,-114.612 149.5,-114.612"/>
</g>
<!-- Legend -->
<g id="node5" class="node"><title>Legend</title>
<polygon fill="lightgrey" stroke="none" points="485.5,-150 192.5,-150 192.5,-23 485.5,-23 485.5,-150"/>
<polygon fill="white" stroke="none" points="200.5,-27 200.5,-146 477.5,-146 477.5,-27 200.5,-27"/>
<polygon fill="lightgreen" stroke="none" points="204,-121.5 204,-142.5 475,-142.5 475,-121.5 204,-121.5"/>
<polygon fill="none" stroke="black" points="204,-121.5 204,-142.5 475,-142.5 475,-121.5 204,-121.5"/>
<text text-anchor="start" x="250.5" y="-128.3" font-family="Times,serif" font-size="14.00">The green node is the start node</text>
<polygon fill="lightblue" stroke="none" points="204,-98.5 204,-119.5 475,-119.5 475,-98.5 204,-98.5"/>
<polygon fill="none" stroke="black" points="204,-98.5 204,-119.5 475,-119.5 475,-98.5 204,-98.5"/>
<text text-anchor="start" x="207" y="-105.3" font-family="Times,serif" font-size="14.00">Lightblue nodes are for reserved rule names, etc</text>
<polygon fill="orchid" stroke="none" points="204,-75.5 204,-96.5 475,-96.5 475,-75.5 204,-75.5"/>
<polygon fill="none" stroke="black" points="204,-75.5 204,-96.5 475,-96.5 475,-75.5 204,-75.5"/>
<text text-anchor="start" x="258" y="-82.3" font-family="Times,serif" font-size="14.00">Orchid nodes are for lexemes</text>
<polygon fill="goldenrod" stroke="none" points="204,-52.5 204,-73.5 475,-73.5 475,-52.5 204,-52.5"/>
<polygon fill="none" stroke="black" points="204,-52.5 204,-73.5 475,-73.5 475,-52.5 204,-52.5"/>
<text text-anchor="start" x="259.5" y="-59.3" font-family="Times,serif" font-size="14.00">Golden nodes are for actions</text>
<polygon fill="#ff3030" stroke="none" points="204,-29.5 204,-50.5 475,-50.5 475,-29.5 204,-29.5"/>
<polygon fill="none" stroke="black" points="204,-29.5 204,-50.5 475,-50.5 475,-29.5 204,-29.5"/>
<text text-anchor="start" x="271.5" y="-36.3" font-family="Times,serif" font-size="14.00">Red nodes are for events</text>
<polygon fill="none" stroke="black" points="200.5,-27 200.5,-146 477.5,-146 477.5,-27 200.5,-27"/>
</g>
</g>
</svg>
