<?xml version="1.0" encoding="UTF-8" standalone="no"?>
<!DOCTYPE svg PUBLIC "-//W3C//DTD SVG 1.1//EN"
 "http://www.w3.org/Graphics/SVG/1.1/DTD/svg11.dtd">
<!-- Generated by graphviz version 2.30.1 (20130611.0131)
 -->
<!-- Title: Perl Pages: 1 -->
<svg width="962pt" height="1089pt"
 viewBox="0.00 0.00 962.00 1089.00" xmlns="http://www.w3.org/2000/svg" xmlns:xlink="http://www.w3.org/1999/xlink">
<g id="graph0" class="graph" transform="scale(1 1) rotate(0) translate(4 1085)">
<title>Perl</title>
<polygon fill="white" stroke="white" points="-4,5 -4,-1085 959,-1085 959,5 -4,5"/>
<text text-anchor="middle" x="477" y="-7.8" font-family="Times,serif" font-size="14.00">json.2.bnf</text>
<!-- json -->
<g id="node1" class="node"><title>json</title>
<path fill="lightgreen" stroke="black" d="M416,-1034C416,-1034 446,-1034 446,-1034 452,-1034 458,-1040 458,-1046 458,-1046 458,-1068 458,-1068 458,-1074 452,-1080 446,-1080 446,-1080 416,-1080 416,-1080 410,-1080 404,-1074 404,-1068 404,-1068 404,-1046 404,-1046 404,-1040 410,-1034 416,-1034"/>
<text text-anchor="middle" x="431" y="-1064.8" font-family="Times,serif" font-size="14.00">:start</text>
<polyline fill="none" stroke="black" points="404,-1057 458,-1057 "/>
<text text-anchor="middle" x="431" y="-1041.8" font-family="Times,serif" font-size="14.00">json</text>
</g>
<!-- ꞉default -->
<g id="node2" class="node"><title>꞉default</title>
<polygon fill="lightblue" stroke="black" points="299.5,-997 242.5,-997 242.5,-961 299.5,-961 299.5,-997"/>
<text text-anchor="middle" x="271" y="-975.3" font-family="Times,serif" font-size="14.00">꞉default</text>
</g>
<!-- json&#45;&gt;꞉default -->
<g id="edge1" class="edge"><title>json&#45;&gt;꞉default</title>
<path fill="none" stroke="grey" d="M403.858,-1043.11C377.712,-1030.69 337.93,-1011.79 308.711,-997.913"/>
<polygon fill="grey" stroke="grey" points="310.161,-994.727 299.626,-993.598 307.157,-1001.05 310.161,-994.727"/>
</g>
<!-- ꞉discard -->
<g id="node4" class="node"><title>꞉discard</title>
<polygon fill="lightblue" stroke="black" points="414.25,-997 355.75,-997 355.75,-961 414.25,-961 414.25,-997"/>
<text text-anchor="middle" x="385" y="-975.3" font-family="Times,serif" font-size="14.00">꞉discard</text>
</g>
<!-- json&#45;&gt;꞉discard -->
<g id="edge3" class="edge"><title>json&#45;&gt;꞉discard</title>
<path fill="none" stroke="grey" d="M417.447,-1033.61C412.2,-1024.94 406.159,-1014.96 400.722,-1005.98"/>
<polygon fill="grey" stroke="grey" points="403.711,-1004.15 395.539,-997.412 397.723,-1007.78 403.711,-1004.15"/>
</g>
<!-- object -->
<g id="node6" class="node"><title>object</title>
<polygon fill="white" stroke="black" points="505,-997 451,-997 451,-961 505,-961 505,-997"/>
<text text-anchor="middle" x="478" y="-975.3" font-family="Times,serif" font-size="14.00">object</text>
</g>
<!-- json&#45;&gt;object -->
<g id="edge5" class="edge"><title>json&#45;&gt;object</title>
<path fill="none" stroke="grey" d="M444.847,-1033.61C450.209,-1024.94 456.381,-1014.96 461.936,-1005.98"/>
<polygon fill="grey" stroke="grey" points="464.949,-1007.76 467.232,-997.412 458.995,-1004.08 464.949,-1007.76"/>
</g>
<!-- array -->
<g id="node7" class="node"><title>array</title>
<polygon fill="white" stroke="black" points="795,-563 741,-563 741,-527 795,-527 795,-563"/>
<text text-anchor="middle" x="768" y="-541.3" font-family="Times,serif" font-size="14.00">array</text>
</g>
<!-- json&#45;&gt;array -->
<g id="edge6" class="edge"><title>json&#45;&gt;array</title>
<path fill="none" stroke="grey" d="M458.174,-1053.9C527.227,-1046.93 704,-1018.23 704,-907 704,-907 704,-907 704,-688 704,-644.079 729.763,-598.73 748.597,-571.444"/>
<polygon fill="grey" stroke="grey" points="751.485,-573.423 754.427,-563.245 745.78,-569.367 751.485,-573.423"/>
</g>
<!-- ꞉default_1 -->
<g id="node3" class="node"><title>꞉default_1</title>
<path fill="lightblue" stroke="black" d="M209.5,-888C209.5,-888 294.5,-888 294.5,-888 300.5,-888 306.5,-894 306.5,-900 306.5,-900 306.5,-912 306.5,-912 306.5,-918 300.5,-924 294.5,-924 294.5,-924 209.5,-924 209.5,-924 203.5,-924 197.5,-918 197.5,-912 197.5,-912 197.5,-900 197.5,-900 197.5,-894 203.5,-888 209.5,-888"/>
<text text-anchor="middle" x="252" y="-902.3" font-family="Times,serif" font-size="14.00">action =&gt; ꞉꞉array</text>
</g>
<!-- ꞉default&#45;&gt;꞉default_1 -->
<g id="edge2" class="edge"><title>꞉default&#45;&gt;꞉default_1</title>
<path fill="none" stroke="grey" d="M266.401,-960.813C264.23,-952.702 261.59,-942.836 259.166,-933.777"/>
<polygon fill="grey" stroke="grey" points="262.523,-932.784 256.557,-924.029 255.761,-934.594 262.523,-932.784"/>
</g>
<!-- whitespace -->
<g id="node5" class="node"><title>whitespace</title>
<polygon fill="lightblue" stroke="black" points="401.25,-924 324.75,-924 324.75,-888 401.25,-888 401.25,-924"/>
<text text-anchor="middle" x="363" y="-902.3" font-family="Times,serif" font-size="14.00">whitespace</text>
</g>
<!-- ꞉discard&#45;&gt;whitespace -->
<g id="edge4" class="edge"><title>꞉discard&#45;&gt;whitespace</title>
<path fill="none" stroke="grey" d="M379.674,-960.813C377.161,-952.702 374.104,-942.836 371.297,-933.777"/>
<polygon fill="grey" stroke="grey" points="374.58,-932.545 368.277,-924.029 367.893,-934.617 374.58,-932.545"/>
</g>
<!-- [\\s] -->
<g id="node63" class="node"><title>[\\s]</title>
<polygon fill="white" stroke="black" points="313,-851 259,-851 259,-815 313,-815 313,-851"/>
<text text-anchor="middle" x="286" y="-829.3" font-family="Times,serif" font-size="14.00">[\s]</text>
</g>
<!-- whitespace&#45;&gt;[\\s] -->
<g id="edge74" class="edge"><title>whitespace&#45;&gt;[\\s]</title>
<path fill="none" stroke="grey" d="M344.36,-887.813C334.619,-878.83 322.541,-867.693 311.904,-857.886"/>
<polygon fill="grey" stroke="grey" points="314.192,-855.235 304.468,-851.029 309.447,-860.381 314.192,-855.235"/>
</g>
<!-- (&#39;{&#39;) members (&#39;}&#39;) -->
<g id="node8" class="node"><title>(&#39;{&#39;) members (&#39;}&#39;)</title>
<polygon fill="white" stroke="black" points="535.5,-924 420.5,-924 420.5,-888 535.5,-888 535.5,-924"/>
<text text-anchor="middle" x="478" y="-902.3" font-family="Times,serif" font-size="14.00">(&#39;{&#39;) members (&#39;}&#39;)</text>
</g>
<!-- object&#45;&gt;(&#39;{&#39;) members (&#39;}&#39;) -->
<g id="edge7" class="edge"><title>object&#45;&gt;(&#39;{&#39;) members (&#39;}&#39;)</title>
<path fill="none" stroke="grey" d="M478,-960.813C478,-952.789 478,-943.047 478,-934.069"/>
<polygon fill="grey" stroke="grey" points="481.5,-934.029 478,-924.029 474.5,-934.029 481.5,-934.029"/>
</g>
<!-- (&#39;[&#39; &#39;]&#39;) -->
<g id="node22" class="node"><title>(&#39;[&#39; &#39;]&#39;)</title>
<polygon fill="white" stroke="black" points="685,-491 631,-491 631,-455 685,-455 685,-491"/>
<text text-anchor="middle" x="658" y="-469.3" font-family="Times,serif" font-size="14.00">(&#39;[&#39; &#39;]&#39;)</text>
</g>
<!-- array&#45;&gt;(&#39;[&#39; &#39;]&#39;) -->
<g id="edge24" class="edge"><title>array&#45;&gt;(&#39;[&#39; &#39;]&#39;)</title>
<path fill="none" stroke="grey" d="M741.091,-526.876C726.842,-517.808 709.154,-506.552 693.764,-496.759"/>
<polygon fill="grey" stroke="grey" points="695.328,-493.606 685.012,-491.19 691.57,-499.511 695.328,-493.606"/>
</g>
<!-- (&#39;[&#39;) elements (&#39;]&#39;) -->
<g id="node25" class="node"><title>(&#39;[&#39;) elements (&#39;]&#39;)</title>
<polygon fill="white" stroke="black" points="862.25,-491 753.75,-491 753.75,-455 862.25,-455 862.25,-491"/>
<text text-anchor="middle" x="808" y="-469.3" font-family="Times,serif" font-size="14.00">(&#39;[&#39;) elements (&#39;]&#39;)</text>
</g>
<!-- array&#45;&gt;(&#39;[&#39;) elements (&#39;]&#39;) -->
<g id="edge27" class="edge"><title>array&#45;&gt;(&#39;[&#39;) elements (&#39;]&#39;)</title>
<path fill="none" stroke="grey" d="M777.888,-526.697C782.489,-518.644 788.06,-508.894 793.153,-499.982"/>
<polygon fill="grey" stroke="grey" points="796.304,-501.523 798.226,-491.104 790.226,-498.05 796.304,-501.523"/>
</g>
<!-- (&#39;{&#39;) -->
<g id="node9" class="node"><title>(&#39;{&#39;)</title>
<polygon fill="white" stroke="black" points="543,-851 489,-851 489,-815 543,-815 543,-851"/>
<text text-anchor="middle" x="516" y="-829.3" font-family="Times,serif" font-size="14.00">(&#39;{&#39;)</text>
</g>
<!-- (&#39;{&#39;) members (&#39;}&#39;)&#45;&gt;(&#39;{&#39;) -->
<g id="edge8" class="edge"><title>(&#39;{&#39;) members (&#39;}&#39;)&#45;&gt;(&#39;{&#39;)</title>
<path fill="none" stroke="grey" d="M487.199,-887.813C491.68,-879.441 497.162,-869.197 502.137,-859.903"/>
<polygon fill="grey" stroke="grey" points="505.253,-861.497 506.886,-851.029 499.081,-858.194 505.253,-861.497"/>
</g>
<!-- members -->
<g id="node11" class="node"><title>members</title>
<polygon fill="white" stroke="black" points="471,-851 403,-851 403,-815 471,-815 471,-851"/>
<text text-anchor="middle" x="437" y="-829.3" font-family="Times,serif" font-size="14.00">members</text>
</g>
<!-- (&#39;{&#39;) members (&#39;}&#39;)&#45;&gt;members -->
<g id="edge10" class="edge"><title>(&#39;{&#39;) members (&#39;}&#39;)&#45;&gt;members</title>
<path fill="none" stroke="grey" d="M468.075,-887.813C463.24,-879.441 457.325,-869.197 451.958,-859.903"/>
<polygon fill="grey" stroke="grey" points="454.865,-857.938 446.834,-851.029 448.803,-861.439 454.865,-857.938"/>
</g>
<!-- (&#39;}&#39;) -->
<g id="node12" class="node"><title>(&#39;}&#39;)</title>
<polygon fill="white" stroke="black" points="385,-851 331,-851 331,-815 385,-815 385,-851"/>
<text text-anchor="middle" x="358" y="-829.3" font-family="Times,serif" font-size="14.00">(&#39;}&#39;)</text>
</g>
<!-- (&#39;{&#39;) members (&#39;}&#39;)&#45;&gt;(&#39;}&#39;) -->
<g id="edge11" class="edge"><title>(&#39;{&#39;) members (&#39;}&#39;)&#45;&gt;(&#39;}&#39;)</title>
<path fill="none" stroke="grey" d="M449.257,-887.994C432.724,-878.212 411.799,-865.831 394.157,-855.393"/>
<polygon fill="grey" stroke="grey" points="395.661,-852.216 385.272,-850.136 392.096,-858.24 395.661,-852.216"/>
</g>
<!-- (&#39;{&#39;)_0 -->
<g id="node10" class="node"><title>(&#39;{&#39;)_0</title>
<polygon fill="white" stroke="black" points="560,-779 438,-779 438,-743 560,-743 560,-779"/>
<text text-anchor="middle" x="499" y="-757.3" font-family="Times,serif" font-size="14.00">HASH(0x2572aa8)</text>
</g>
<!-- (&#39;{&#39;)&#45;&gt;(&#39;{&#39;)_0 -->
<g id="edge9" class="edge"><title>(&#39;{&#39;)&#45;&gt;(&#39;{&#39;)_0</title>
<path fill="none" stroke="grey" d="M511.798,-814.697C509.904,-806.898 507.623,-797.509 505.516,-788.829"/>
<polygon fill="grey" stroke="grey" points="508.915,-787.996 503.154,-779.104 502.113,-789.648 508.915,-787.996"/>
</g>
<!-- pair -->
<g id="node13" class="node"><title>pair</title>
<polygon fill="white" stroke="black" points="420,-779 366,-779 366,-743 420,-743 420,-779"/>
<text text-anchor="middle" x="393" y="-757.3" font-family="Times,serif" font-size="14.00">pair</text>
</g>
<!-- members&#45;&gt;pair -->
<g id="edge12" class="edge"><title>members&#45;&gt;pair</title>
<path fill="none" stroke="grey" d="M426.124,-814.697C421.008,-806.559 414.805,-796.689 409.155,-787.701"/>
<polygon fill="grey" stroke="grey" points="412.036,-785.708 403.751,-779.104 406.11,-789.433 412.036,-785.708"/>
</g>
<!-- string (&#39;꞉&#39;) value -->
<g id="node14" class="node"><title>string (&#39;꞉&#39;) value</title>
<polygon fill="white" stroke="black" points="443.25,-707 342.75,-707 342.75,-671 443.25,-671 443.25,-707"/>
<text text-anchor="middle" x="393" y="-685.3" font-family="Times,serif" font-size="14.00">string (&#39;꞉&#39;) value</text>
</g>
<!-- pair&#45;&gt;string (&#39;꞉&#39;) value -->
<g id="edge13" class="edge"><title>pair&#45;&gt;string (&#39;꞉&#39;) value</title>
<path fill="none" stroke="grey" d="M393,-742.697C393,-734.983 393,-725.712 393,-717.112"/>
<polygon fill="grey" stroke="grey" points="396.5,-717.104 393,-707.104 389.5,-717.104 396.5,-717.104"/>
</g>
<!-- string -->
<g id="node15" class="node"><title>string</title>
<polygon fill="white" stroke="black" points="385,-563 331,-563 331,-527 385,-527 385,-563"/>
<text text-anchor="middle" x="358" y="-541.3" font-family="Times,serif" font-size="14.00">string</text>
</g>
<!-- string (&#39;꞉&#39;) value&#45;&gt;string -->
<g id="edge14" class="edge"><title>string (&#39;꞉&#39;) value&#45;&gt;string</title>
<path fill="none" stroke="grey" d="M389.775,-670.84C386.291,-652.844 380.376,-623.788 374,-599 371.787,-590.397 369.087,-581.098 366.539,-572.726"/>
<polygon fill="grey" stroke="grey" points="369.854,-571.6 363.55,-563.085 363.168,-573.672 369.854,-571.6"/>
</g>
<!-- (&#39;꞉&#39;) -->
<g id="node16" class="node"><title>(&#39;꞉&#39;)</title>
<polygon fill="white" stroke="black" points="365,-635 311,-635 311,-599 365,-599 365,-635"/>
<text text-anchor="middle" x="338" y="-613.3" font-family="Times,serif" font-size="14.00">(&#39;꞉&#39;)</text>
</g>
<!-- string (&#39;꞉&#39;) value&#45;&gt;(&#39;꞉&#39;) -->
<g id="edge15" class="edge"><title>string (&#39;꞉&#39;) value&#45;&gt;(&#39;꞉&#39;)</title>
<path fill="none" stroke="grey" d="M379.404,-670.697C372.877,-662.389 364.932,-652.277 357.753,-643.141"/>
<polygon fill="grey" stroke="grey" points="360.369,-640.805 351.439,-635.104 354.865,-645.13 360.369,-640.805"/>
</g>
<!-- value -->
<g id="node17" class="node"><title>value</title>
<polygon fill="white" stroke="black" points="607,-635 553,-635 553,-599 607,-599 607,-635"/>
<text text-anchor="middle" x="580" y="-613.3" font-family="Times,serif" font-size="14.00">value</text>
</g>
<!-- string (&#39;꞉&#39;) value&#45;&gt;value -->
<g id="edge16" class="edge"><title>string (&#39;꞉&#39;) value&#45;&gt;value</title>
<path fill="none" stroke="grey" d="M438.745,-670.876C470.9,-658.839 513.356,-642.947 543.299,-631.738"/>
<polygon fill="grey" stroke="grey" points="544.802,-634.913 552.94,-628.129 542.348,-628.357 544.802,-634.913"/>
</g>
<!-- string lexeme -->
<g id="node50" class="node"><title>string lexeme</title>
<polygon fill="white" stroke="black" points="310.25,-491 219.75,-491 219.75,-455 310.25,-455 310.25,-491"/>
<text text-anchor="middle" x="265" y="-469.3" font-family="Times,serif" font-size="14.00">string lexeme</text>
</g>
<!-- string&#45;&gt;string lexeme -->
<g id="edge61" class="edge"><title>string&#45;&gt;string lexeme</title>
<path fill="none" stroke="grey" d="M335.011,-526.697C323.186,-517.796 308.608,-506.823 295.821,-497.199"/>
<polygon fill="grey" stroke="grey" points="297.819,-494.322 287.724,-491.104 293.609,-499.915 297.819,-494.322"/>
</g>
<!-- value&#45;&gt;string -->
<g id="edge17" class="edge"><title>value&#45;&gt;string</title>
<path fill="none" stroke="grey" d="M552.755,-609.722C517.897,-601.371 455.628,-585.386 394.689,-562.969"/>
<polygon fill="grey" stroke="grey" points="395.91,-559.689 385.318,-559.466 393.459,-566.246 395.91,-559.689"/>
</g>
<!-- value&#45;&gt;object -->
<g id="edge18" class="edge"><title>value&#45;&gt;object</title>
<path fill="none" stroke="grey" d="M581.581,-635.032C583.912,-661.668 588,-714.814 588,-760 588,-834 588,-834 588,-834 588,-884.827 544.188,-928.854 511.864,-954.42"/>
<polygon fill="grey" stroke="grey" points="509.319,-951.961 503.513,-960.823 513.578,-957.516 509.319,-951.961"/>
</g>
<!-- number -->
<g id="node18" class="node"><title>number</title>
<polygon fill="white" stroke="black" points="534.25,-563 475.75,-563 475.75,-527 534.25,-527 534.25,-563"/>
<text text-anchor="middle" x="505" y="-541.3" font-family="Times,serif" font-size="14.00">number</text>
</g>
<!-- value&#45;&gt;number -->
<g id="edge19" class="edge"><title>value&#45;&gt;number</title>
<path fill="none" stroke="grey" d="M561.461,-598.697C552.197,-590.05 540.838,-579.449 530.743,-570.027"/>
<polygon fill="grey" stroke="grey" points="533.025,-567.369 523.326,-563.104 528.249,-572.486 533.025,-567.369"/>
</g>
<!-- value&#45;&gt;array -->
<g id="edge20" class="edge"><title>value&#45;&gt;array</title>
<path fill="none" stroke="grey" d="M607.235,-606.611C636.852,-596.302 685.512,-579.07 727,-563 728.392,-562.461 729.808,-561.906 731.237,-561.34"/>
<polygon fill="grey" stroke="grey" points="732.757,-564.502 740.725,-557.519 730.141,-558.009 732.757,-564.502"/>
</g>
<!-- &#39;true&#39; -->
<g id="node19" class="node"><title>&#39;true&#39;</title>
<polygon fill="white" stroke="black" points="607,-563 553,-563 553,-527 607,-527 607,-563"/>
<text text-anchor="middle" x="580" y="-541.3" font-family="Times,serif" font-size="14.00">&#39;true&#39;</text>
</g>
<!-- value&#45;&gt;&#39;true&#39; -->
<g id="edge21" class="edge"><title>value&#45;&gt;&#39;true&#39;</title>
<path fill="none" stroke="grey" d="M580,-598.697C580,-590.983 580,-581.712 580,-573.112"/>
<polygon fill="grey" stroke="grey" points="583.5,-573.104 580,-563.104 576.5,-573.104 583.5,-573.104"/>
</g>
<!-- &#39;false&#39; -->
<g id="node20" class="node"><title>&#39;false&#39;</title>
<polygon fill="white" stroke="black" points="679,-563 625,-563 625,-527 679,-527 679,-563"/>
<text text-anchor="middle" x="652" y="-541.3" font-family="Times,serif" font-size="14.00">&#39;false&#39;</text>
</g>
<!-- value&#45;&gt;&#39;false&#39; -->
<g id="edge22" class="edge"><title>value&#45;&gt;&#39;false&#39;</title>
<path fill="none" stroke="grey" d="M597.798,-598.697C606.604,-590.135 617.382,-579.656 627.001,-570.304"/>
<polygon fill="grey" stroke="grey" points="629.677,-572.585 634.407,-563.104 624.797,-567.566 629.677,-572.585"/>
</g>
<!-- &#39;null&#39; -->
<g id="node21" class="node"><title>&#39;null&#39;</title>
<polygon fill="white" stroke="black" points="457,-563 403,-563 403,-527 457,-527 457,-563"/>
<text text-anchor="middle" x="430" y="-541.3" font-family="Times,serif" font-size="14.00">&#39;null&#39;</text>
</g>
<!-- value&#45;&gt;&#39;null&#39; -->
<g id="edge23" class="edge"><title>value&#45;&gt;&#39;null&#39;</title>
<path fill="none" stroke="grey" d="M552.799,-603.409C531.585,-593.578 501.158,-579.45 466.506,-563.226"/>
<polygon fill="grey" stroke="grey" points="467.659,-559.901 457.119,-558.827 464.689,-566.239 467.659,-559.901"/>
</g>
<!-- int -->
<g id="node30" class="node"><title>int</title>
<polygon fill="white" stroke="black" points="476,-419 422,-419 422,-383 476,-383 476,-419"/>
<text text-anchor="middle" x="449" y="-397.3" font-family="Times,serif" font-size="14.00">int</text>
</g>
<!-- number&#45;&gt;int -->
<g id="edge33" class="edge"><title>number&#45;&gt;int</title>
<path fill="none" stroke="grey" d="M480.211,-526.801C469.113,-517.596 457.159,-505.224 451,-491 442.581,-471.556 442.606,-447.414 444.445,-429.181"/>
<polygon fill="grey" stroke="grey" points="447.924,-429.565 445.687,-419.209 440.978,-428.7 447.924,-429.565"/>
</g>
<!-- int frac -->
<g id="node31" class="node"><title>int frac</title>
<polygon fill="white" stroke="black" points="612.5,-491 557.5,-491 557.5,-455 612.5,-455 612.5,-491"/>
<text text-anchor="middle" x="585" y="-469.3" font-family="Times,serif" font-size="14.00">int frac</text>
</g>
<!-- number&#45;&gt;int frac -->
<g id="edge34" class="edge"><title>number&#45;&gt;int frac</title>
<path fill="none" stroke="grey" d="M524.775,-526.697C534.754,-517.965 547.011,-507.24 557.857,-497.75"/>
<polygon fill="grey" stroke="grey" points="560.231,-500.323 565.452,-491.104 555.622,-495.055 560.231,-500.323"/>
</g>
<!-- int exp -->
<g id="node33" class="node"><title>int exp</title>
<polygon fill="white" stroke="black" points="404,-491 350,-491 350,-455 404,-455 404,-491"/>
<text text-anchor="middle" x="377" y="-469.3" font-family="Times,serif" font-size="14.00">int exp</text>
</g>
<!-- number&#45;&gt;int exp -->
<g id="edge37" class="edge"><title>number&#45;&gt;int exp</title>
<path fill="none" stroke="grey" d="M475.634,-527.941C457.029,-517.766 432.835,-504.535 413.065,-493.723"/>
<polygon fill="grey" stroke="grey" points="414.498,-490.518 404.045,-488.79 411.14,-496.659 414.498,-490.518"/>
</g>
<!-- int frac exp -->
<g id="node35" class="node"><title>int frac exp</title>
<polygon fill="white" stroke="black" points="539.25,-491 460.75,-491 460.75,-455 539.25,-455 539.25,-491"/>
<text text-anchor="middle" x="500" y="-469.3" font-family="Times,serif" font-size="14.00">int frac exp</text>
</g>
<!-- number&#45;&gt;int frac exp -->
<g id="edge40" class="edge"><title>number&#45;&gt;int frac exp</title>
<path fill="none" stroke="grey" d="M503.764,-526.697C503.213,-518.983 502.551,-509.712 501.937,-501.112"/>
<polygon fill="grey" stroke="grey" points="505.425,-500.83 501.222,-491.104 498.443,-501.328 505.425,-500.83"/>
</g>
<!-- (&#39;[&#39; -->
<g id="node23" class="node"><title>(&#39;[&#39;</title>
<polygon fill="white" stroke="black" points="620,-419 566,-419 566,-383 620,-383 620,-419"/>
<text text-anchor="middle" x="593" y="-397.3" font-family="Times,serif" font-size="14.00">(&#39;[&#39;</text>
</g>
<!-- (&#39;[&#39; &#39;]&#39;)&#45;&gt;(&#39;[&#39; -->
<g id="edge25" class="edge"><title>(&#39;[&#39; &#39;]&#39;)&#45;&gt;(&#39;[&#39;</title>
<path fill="none" stroke="grey" d="M641.933,-454.697C634.061,-446.22 624.445,-435.864 615.827,-426.583"/>
<polygon fill="grey" stroke="grey" points="618.252,-424.051 608.883,-419.104 613.122,-428.814 618.252,-424.051"/>
</g>
<!-- &#39;]&#39;) -->
<g id="node24" class="node"><title>&#39;]&#39;)</title>
<polygon fill="white" stroke="black" points="692,-419 638,-419 638,-383 692,-383 692,-419"/>
<text text-anchor="middle" x="665" y="-397.3" font-family="Times,serif" font-size="14.00">&#39;]&#39;)</text>
</g>
<!-- (&#39;[&#39; &#39;]&#39;)&#45;&gt;&#39;]&#39;) -->
<g id="edge26" class="edge"><title>(&#39;[&#39; &#39;]&#39;)&#45;&gt;&#39;]&#39;)</title>
<path fill="none" stroke="grey" d="M659.73,-454.697C660.502,-446.983 661.429,-437.712 662.289,-429.112"/>
<polygon fill="grey" stroke="grey" points="665.777,-429.403 663.29,-419.104 658.812,-428.706 665.777,-429.403"/>
</g>
<!-- (&#39;[&#39;) -->
<g id="node26" class="node"><title>(&#39;[&#39;)</title>
<polygon fill="white" stroke="black" points="920,-419 866,-419 866,-383 920,-383 920,-419"/>
<text text-anchor="middle" x="893" y="-397.3" font-family="Times,serif" font-size="14.00">(&#39;[&#39;)</text>
</g>
<!-- (&#39;[&#39;) elements (&#39;]&#39;)&#45;&gt;(&#39;[&#39;) -->
<g id="edge28" class="edge"><title>(&#39;[&#39;) elements (&#39;]&#39;)&#45;&gt;(&#39;[&#39;)</title>
<path fill="none" stroke="grey" d="M829.011,-454.697C839.716,-445.881 852.89,-435.032 864.496,-425.474"/>
<polygon fill="grey" stroke="grey" points="866.736,-428.163 872.23,-419.104 862.286,-422.76 866.736,-428.163"/>
</g>
<!-- elements -->
<g id="node28" class="node"><title>elements</title>
<polygon fill="white" stroke="black" points="775.25,-419 710.75,-419 710.75,-383 775.25,-383 775.25,-419"/>
<text text-anchor="middle" x="743" y="-397.3" font-family="Times,serif" font-size="14.00">elements</text>
</g>
<!-- (&#39;[&#39;) elements (&#39;]&#39;)&#45;&gt;elements -->
<g id="edge30" class="edge"><title>(&#39;[&#39;) elements (&#39;]&#39;)&#45;&gt;elements</title>
<path fill="none" stroke="grey" d="M791.933,-454.697C784.061,-446.22 774.445,-435.864 765.827,-426.583"/>
<polygon fill="grey" stroke="grey" points="768.252,-424.051 758.883,-419.104 763.122,-428.814 768.252,-424.051"/>
</g>
<!-- (&#39;]&#39;) -->
<g id="node29" class="node"><title>(&#39;]&#39;)</title>
<polygon fill="white" stroke="black" points="848,-419 794,-419 794,-383 848,-383 848,-419"/>
<text text-anchor="middle" x="821" y="-397.3" font-family="Times,serif" font-size="14.00">(&#39;]&#39;)</text>
</g>
<!-- (&#39;[&#39;) elements (&#39;]&#39;)&#45;&gt;(&#39;]&#39;) -->
<g id="edge31" class="edge"><title>(&#39;[&#39;) elements (&#39;]&#39;)&#45;&gt;(&#39;]&#39;)</title>
<path fill="none" stroke="grey" d="M811.213,-454.697C812.646,-446.983 814.368,-437.712 815.965,-429.112"/>
<polygon fill="grey" stroke="grey" points="819.439,-429.575 817.823,-419.104 812.556,-428.297 819.439,-429.575"/>
</g>
<!-- (&#39;[&#39;)_0 -->
<g id="node27" class="node"><title>(&#39;[&#39;)_0</title>
<polygon fill="white" stroke="black" points="954.25,-347 831.75,-347 831.75,-311 954.25,-311 954.25,-347"/>
<text text-anchor="middle" x="893" y="-325.3" font-family="Times,serif" font-size="14.00">HASH(0x229b020)</text>
</g>
<!-- (&#39;[&#39;)&#45;&gt;(&#39;[&#39;)_0 -->
<g id="edge29" class="edge"><title>(&#39;[&#39;)&#45;&gt;(&#39;[&#39;)_0</title>
<path fill="none" stroke="grey" d="M893,-382.697C893,-374.983 893,-365.712 893,-357.112"/>
<polygon fill="grey" stroke="grey" points="896.5,-357.104 893,-347.104 889.5,-357.104 896.5,-357.104"/>
</g>
<!-- elements&#45;&gt;value -->
<g id="edge32" class="edge"><title>elements&#45;&gt;value</title>
<path fill="none" stroke="grey" d="M741.433,-419.175C737.675,-451.155 725.475,-520.434 688,-563 669.282,-584.261 640.084,-597.87 616.765,-605.968"/>
<polygon fill="grey" stroke="grey" points="615.592,-602.669 607.178,-609.107 617.771,-609.321 615.592,-602.669"/>
</g>
<!-- digits -->
<g id="node36" class="node"><title>digits</title>
<polygon fill="white" stroke="black" points="472,-275 418,-275 418,-239 472,-239 472,-275"/>
<text text-anchor="middle" x="445" y="-253.3" font-family="Times,serif" font-size="14.00">digits</text>
</g>
<!-- int&#45;&gt;digits -->
<g id="edge44" class="edge"><title>int&#45;&gt;digits</title>
<path fill="none" stroke="grey" d="M448.518,-382.871C447.836,-358.67 446.583,-314.211 445.772,-285.393"/>
<polygon fill="grey" stroke="grey" points="449.264,-285.087 445.484,-275.189 442.267,-285.284 449.264,-285.087"/>
</g>
<!-- &#39;&#45;&#39; digits -->
<g id="node37" class="node"><title>&#39;&#45;&#39; digits</title>
<polygon fill="white" stroke="black" points="528.25,-347 469.75,-347 469.75,-311 528.25,-311 528.25,-347"/>
<text text-anchor="middle" x="499" y="-325.3" font-family="Times,serif" font-size="14.00">&#39;&#45;&#39; digits</text>
</g>
<!-- int&#45;&gt;&#39;&#45;&#39; digits -->
<g id="edge45" class="edge"><title>int&#45;&gt;&#39;&#45;&#39; digits</title>
<path fill="none" stroke="grey" d="M461.36,-382.697C467.233,-374.474 474.369,-364.483 480.842,-355.421"/>
<polygon fill="grey" stroke="grey" points="483.818,-357.276 486.783,-347.104 478.122,-353.207 483.818,-357.276"/>
</g>
<!-- int frac&#45;&gt;int -->
<g id="edge35" class="edge"><title>int frac&#45;&gt;int</title>
<path fill="none" stroke="grey" d="M557.478,-457.834C536.604,-447.09 507.728,-432.227 485.016,-420.538"/>
<polygon fill="grey" stroke="grey" points="486.51,-417.37 476.017,-415.906 483.306,-423.594 486.51,-417.37"/>
</g>
<!-- frac -->
<g id="node32" class="node"><title>frac</title>
<polygon fill="white" stroke="black" points="548,-419 494,-419 494,-383 548,-383 548,-419"/>
<text text-anchor="middle" x="521" y="-397.3" font-family="Times,serif" font-size="14.00">frac</text>
</g>
<!-- int frac&#45;&gt;frac -->
<g id="edge36" class="edge"><title>int frac&#45;&gt;frac</title>
<path fill="none" stroke="grey" d="M569.18,-454.697C561.43,-446.22 551.961,-435.864 543.476,-426.583"/>
<polygon fill="grey" stroke="grey" points="545.969,-424.123 536.638,-419.104 540.803,-428.846 545.969,-424.123"/>
</g>
<!-- &#39;.&#39; digits -->
<g id="node40" class="node"><title>&#39;.&#39; digits</title>
<polygon fill="white" stroke="black" points="605.25,-347 546.75,-347 546.75,-311 605.25,-311 605.25,-347"/>
<text text-anchor="middle" x="576" y="-325.3" font-family="Times,serif" font-size="14.00">&#39;.&#39; digits</text>
</g>
<!-- frac&#45;&gt;&#39;.&#39; digits -->
<g id="edge49" class="edge"><title>frac&#45;&gt;&#39;.&#39; digits</title>
<path fill="none" stroke="grey" d="M534.596,-382.697C541.123,-374.389 549.068,-364.277 556.247,-355.141"/>
<polygon fill="grey" stroke="grey" points="559.135,-357.13 562.561,-347.104 553.631,-352.805 559.135,-357.13"/>
</g>
<!-- int exp&#45;&gt;int -->
<g id="edge38" class="edge"><title>int exp&#45;&gt;int</title>
<path fill="none" stroke="grey" d="M394.798,-454.697C403.604,-446.135 414.382,-435.656 424.001,-426.304"/>
<polygon fill="grey" stroke="grey" points="426.677,-428.585 431.407,-419.104 421.797,-423.566 426.677,-428.585"/>
</g>
<!-- exp -->
<g id="node34" class="node"><title>exp</title>
<polygon fill="white" stroke="black" points="404,-419 350,-419 350,-383 404,-383 404,-419"/>
<text text-anchor="middle" x="377" y="-397.3" font-family="Times,serif" font-size="14.00">exp</text>
</g>
<!-- int exp&#45;&gt;exp -->
<g id="edge39" class="edge"><title>int exp&#45;&gt;exp</title>
<path fill="none" stroke="grey" d="M377,-454.697C377,-446.983 377,-437.712 377,-429.112"/>
<polygon fill="grey" stroke="grey" points="380.5,-429.104 377,-419.104 373.5,-429.104 380.5,-429.104"/>
</g>
<!-- e digits -->
<g id="node42" class="node"><title>e digits</title>
<polygon fill="white" stroke="black" points="404.5,-347 349.5,-347 349.5,-311 404.5,-311 404.5,-347"/>
<text text-anchor="middle" x="377" y="-325.3" font-family="Times,serif" font-size="14.00">e digits</text>
</g>
<!-- exp&#45;&gt;e digits -->
<g id="edge52" class="edge"><title>exp&#45;&gt;e digits</title>
<path fill="none" stroke="grey" d="M377,-382.697C377,-374.983 377,-365.712 377,-357.112"/>
<polygon fill="grey" stroke="grey" points="380.5,-357.104 377,-347.104 373.5,-357.104 380.5,-357.104"/>
</g>
<!-- int frac exp&#45;&gt;int -->
<g id="edge41" class="edge"><title>int frac exp&#45;&gt;int</title>
<path fill="none" stroke="grey" d="M487.393,-454.697C481.403,-446.474 474.124,-436.483 467.521,-427.421"/>
<polygon fill="grey" stroke="grey" points="470.179,-425.126 461.462,-419.104 464.522,-429.248 470.179,-425.126"/>
</g>
<!-- int frac exp&#45;&gt;frac -->
<g id="edge42" class="edge"><title>int frac exp&#45;&gt;frac</title>
<path fill="none" stroke="grey" d="M505.191,-454.697C507.531,-446.898 510.347,-437.509 512.951,-428.829"/>
<polygon fill="grey" stroke="grey" points="516.348,-429.688 515.869,-419.104 509.643,-427.677 516.348,-429.688"/>
</g>
<!-- int frac exp&#45;&gt;exp -->
<g id="edge43" class="edge"><title>int frac exp&#45;&gt;exp</title>
<path fill="none" stroke="grey" d="M469.911,-454.876C452.832,-445.156 431.335,-432.922 413.321,-422.671"/>
<polygon fill="grey" stroke="grey" points="414.683,-419.419 404.261,-417.514 411.221,-425.502 414.683,-419.419"/>
</g>
<!-- [\\d] -->
<g id="node39" class="node"><title>[\\d]</title>
<polygon fill="white" stroke="black" points="652,-203 598,-203 598,-167 652,-167 652,-203"/>
<text text-anchor="middle" x="625" y="-181.3" font-family="Times,serif" font-size="14.00">[\d]</text>
</g>
<!-- digits&#45;&gt;[\\d] -->
<g id="edge48" class="edge"><title>digits&#45;&gt;[\\d]</title>
<path fill="none" stroke="grey" d="M472.368,-242.663C475.262,-241.377 478.177,-240.132 481,-239 525.208,-221.268 540.277,-221.711 588.273,-203.052"/>
<polygon fill="grey" stroke="grey" points="589.629,-206.279 597.632,-199.337 587.046,-199.773 589.629,-206.279"/>
</g>
<!-- &#39;&#45;&#39; -->
<g id="node38" class="node"><title>&#39;&#45;&#39;</title>
<polygon fill="white" stroke="black" points="544,-275 490,-275 490,-239 544,-239 544,-275"/>
<text text-anchor="middle" x="517" y="-253.3" font-family="Times,serif" font-size="14.00">&#39;&#45;&#39;</text>
</g>
<!-- &#39;&#45;&#39; digits&#45;&gt;&#39;&#45;&#39; -->
<g id="edge46" class="edge"><title>&#39;&#45;&#39; digits&#45;&gt;&#39;&#45;&#39;</title>
<path fill="none" stroke="grey" d="M503.449,-310.697C505.455,-302.898 507.869,-293.509 510.101,-284.829"/>
<polygon fill="grey" stroke="grey" points="513.501,-285.661 512.602,-275.104 506.722,-283.918 513.501,-285.661"/>
</g>
<!-- &#39;&#45;&#39; digits&#45;&gt;digits -->
<g id="edge47" class="edge"><title>&#39;&#45;&#39; digits&#45;&gt;digits</title>
<path fill="none" stroke="grey" d="M485.652,-310.697C479.243,-302.389 471.442,-292.277 464.394,-283.141"/>
<polygon fill="grey" stroke="grey" points="467.074,-280.884 458.195,-275.104 461.532,-285.16 467.074,-280.884"/>
</g>
<!-- &#39;.&#39; -->
<g id="node41" class="node"><title>&#39;.&#39;</title>
<polygon fill="white" stroke="black" points="616,-275 562,-275 562,-239 616,-239 616,-275"/>
<text text-anchor="middle" x="589" y="-253.3" font-family="Times,serif" font-size="14.00">&#39;.&#39;</text>
</g>
<!-- &#39;.&#39; digits&#45;&gt;&#39;.&#39; -->
<g id="edge50" class="edge"><title>&#39;.&#39; digits&#45;&gt;&#39;.&#39;</title>
<path fill="none" stroke="grey" d="M579.213,-310.697C580.646,-302.983 582.368,-293.712 583.965,-285.112"/>
<polygon fill="grey" stroke="grey" points="587.439,-285.575 585.823,-275.104 580.556,-284.297 587.439,-285.575"/>
</g>
<!-- &#39;.&#39; digits&#45;&gt;digits -->
<g id="edge51" class="edge"><title>&#39;.&#39; digits&#45;&gt;digits</title>
<path fill="none" stroke="grey" d="M546.601,-312.291C527.238,-301.944 501.753,-288.326 481.151,-277.317"/>
<polygon fill="grey" stroke="grey" points="482.538,-274.09 472.069,-272.464 479.239,-280.264 482.538,-274.09"/>
</g>
<!-- e -->
<g id="node43" class="node"><title>e</title>
<polygon fill="white" stroke="black" points="400,-275 346,-275 346,-239 400,-239 400,-275"/>
<text text-anchor="middle" x="373" y="-253.3" font-family="Times,serif" font-size="14.00">e</text>
</g>
<!-- e digits&#45;&gt;e -->
<g id="edge53" class="edge"><title>e digits&#45;&gt;e</title>
<path fill="none" stroke="grey" d="M376.011,-310.697C375.57,-302.983 375.041,-293.712 374.549,-285.112"/>
<polygon fill="grey" stroke="grey" points="378.042,-284.888 373.977,-275.104 371.054,-285.288 378.042,-284.888"/>
</g>
<!-- e digits&#45;&gt;digits -->
<g id="edge54" class="edge"><title>e digits&#45;&gt;digits</title>
<path fill="none" stroke="grey" d="M393.809,-310.697C402.126,-302.135 412.305,-291.656 421.39,-282.304"/>
<polygon fill="grey" stroke="grey" points="423.927,-284.716 428.384,-275.104 418.906,-279.838 423.927,-284.716"/>
</g>
<!-- &#39;e&#39; -->
<g id="node44" class="node"><title>&#39;e&#39;</title>
<polygon fill="white" stroke="black" points="364,-203 310,-203 310,-167 364,-167 364,-203"/>
<text text-anchor="middle" x="337" y="-181.3" font-family="Times,serif" font-size="14.00">&#39;e&#39;</text>
</g>
<!-- e&#45;&gt;&#39;e&#39; -->
<g id="edge55" class="edge"><title>e&#45;&gt;&#39;e&#39;</title>
<path fill="none" stroke="grey" d="M364.101,-238.697C360.003,-230.728 355.051,-221.1 350.507,-212.264"/>
<polygon fill="grey" stroke="grey" points="353.483,-210.396 345.797,-203.104 347.258,-213.598 353.483,-210.396"/>
</g>
<!-- &#39;e+&#39; -->
<g id="node45" class="node"><title>&#39;e+&#39;</title>
<polygon fill="white" stroke="black" points="436,-203 382,-203 382,-167 436,-167 436,-203"/>
<text text-anchor="middle" x="409" y="-181.3" font-family="Times,serif" font-size="14.00">&#39;e+&#39;</text>
</g>
<!-- e&#45;&gt;&#39;e+&#39; -->
<g id="edge56" class="edge"><title>e&#45;&gt;&#39;e+&#39;</title>
<path fill="none" stroke="grey" d="M381.899,-238.697C385.997,-230.728 390.949,-221.1 395.493,-212.264"/>
<polygon fill="grey" stroke="grey" points="398.742,-213.598 400.203,-203.104 392.517,-210.396 398.742,-213.598"/>
</g>
<!-- &#39;e&#45;&#39; -->
<g id="node46" class="node"><title>&#39;e&#45;&#39;</title>
<polygon fill="white" stroke="black" points="508,-203 454,-203 454,-167 508,-167 508,-203"/>
<text text-anchor="middle" x="481" y="-181.3" font-family="Times,serif" font-size="14.00">&#39;e&#45;&#39;</text>
</g>
<!-- e&#45;&gt;&#39;e&#45;&#39; -->
<g id="edge57" class="edge"><title>e&#45;&gt;&#39;e&#45;&#39;</title>
<path fill="none" stroke="grey" d="M399.42,-238.876C413.41,-229.808 430.776,-218.552 445.886,-208.759"/>
<polygon fill="grey" stroke="grey" points="447.991,-211.566 454.479,-203.19 444.183,-205.692 447.991,-211.566"/>
</g>
<!-- &#39;E&#39; -->
<g id="node47" class="node"><title>&#39;E&#39;</title>
<polygon fill="white" stroke="black" points="580,-203 526,-203 526,-167 580,-167 580,-203"/>
<text text-anchor="middle" x="553" y="-181.3" font-family="Times,serif" font-size="14.00">&#39;E&#39;</text>
</g>
<!-- e&#45;&gt;&#39;E&#39; -->
<g id="edge58" class="edge"><title>e&#45;&gt;&#39;E&#39;</title>
<path fill="none" stroke="grey" d="M400.368,-242.663C403.262,-241.377 406.177,-240.132 409,-239 453.208,-221.268 468.277,-221.711 516.273,-203.052"/>
<polygon fill="grey" stroke="grey" points="517.629,-206.279 525.632,-199.337 515.046,-199.773 517.629,-206.279"/>
</g>
<!-- &#39;E+&#39; -->
<g id="node48" class="node"><title>&#39;E+&#39;</title>
<polygon fill="white" stroke="black" points="220,-203 166,-203 166,-167 220,-167 220,-203"/>
<text text-anchor="middle" x="193" y="-181.3" font-family="Times,serif" font-size="14.00">&#39;E+&#39;</text>
</g>
<!-- e&#45;&gt;&#39;E+&#39; -->
<g id="edge59" class="edge"><title>e&#45;&gt;&#39;E+&#39;</title>
<path fill="none" stroke="grey" d="M345.918,-246.837C318.645,-237.435 275.228,-221.994 229.492,-203.037"/>
<polygon fill="grey" stroke="grey" points="230.587,-199.701 220.011,-199.069 227.885,-206.158 230.587,-199.701"/>
</g>
<!-- &#39;E&#45;&#39; -->
<g id="node49" class="node"><title>&#39;E&#45;&#39;</title>
<polygon fill="white" stroke="black" points="292,-203 238,-203 238,-167 292,-167 292,-203"/>
<text text-anchor="middle" x="265" y="-181.3" font-family="Times,serif" font-size="14.00">&#39;E&#45;&#39;</text>
</g>
<!-- e&#45;&gt;&#39;E&#45;&#39; -->
<g id="edge60" class="edge"><title>e&#45;&gt;&#39;E&#45;&#39;</title>
<path fill="none" stroke="grey" d="M346.58,-238.876C332.59,-229.808 315.224,-218.552 300.114,-208.759"/>
<polygon fill="grey" stroke="grey" points="301.817,-205.692 291.521,-203.19 298.009,-211.566 301.817,-205.692"/>
</g>
<!-- quote string contents quote -->
<g id="node51" class="node"><title>quote string contents quote</title>
<polygon fill="white" stroke="black" points="329,-419 165,-419 165,-383 329,-383 329,-419"/>
<text text-anchor="middle" x="247" y="-397.3" font-family="Times,serif" font-size="14.00">quote string contents quote</text>
</g>
<!-- string lexeme&#45;&gt;quote string contents quote -->
<g id="edge62" class="edge"><title>string lexeme&#45;&gt;quote string contents quote</title>
<path fill="none" stroke="grey" d="M260.551,-454.697C258.545,-446.898 256.131,-437.509 253.899,-428.829"/>
<polygon fill="grey" stroke="grey" points="257.278,-427.918 251.398,-419.104 250.499,-429.661 257.278,-427.918"/>
</g>
<!-- quote -->
<g id="node52" class="node"><title>quote</title>
<polygon fill="white" stroke="black" points="274,-347 220,-347 220,-311 274,-311 274,-347"/>
<text text-anchor="middle" x="247" y="-325.3" font-family="Times,serif" font-size="14.00">quote</text>
</g>
<!-- quote string contents quote&#45;&gt;quote -->
<g id="edge63" class="edge"><title>quote string contents quote&#45;&gt;quote</title>
<path fill="none" stroke="grey" d="M247,-382.697C247,-374.983 247,-365.712 247,-357.112"/>
<polygon fill="grey" stroke="grey" points="250.5,-357.104 247,-347.104 243.5,-357.104 250.5,-357.104"/>
</g>
<!-- string contents -->
<g id="node53" class="node"><title>string contents</title>
<polygon fill="white" stroke="black" points="162,-347 66,-347 66,-311 162,-311 162,-347"/>
<text text-anchor="middle" x="114" y="-325.3" font-family="Times,serif" font-size="14.00">string contents</text>
</g>
<!-- quote string contents quote&#45;&gt;string contents -->
<g id="edge64" class="edge"><title>quote string contents quote&#45;&gt;string contents</title>
<path fill="none" stroke="grey" d="M214.465,-382.876C196.753,-373.554 174.647,-361.919 155.684,-351.939"/>
<polygon fill="grey" stroke="grey" points="157.14,-348.75 146.661,-347.19 153.88,-354.944 157.14,-348.75"/>
</g>
<!-- quote string contents quote&#45;&gt;quote -->
<g id="edge65" class="edge"><title>quote string contents quote&#45;&gt;quote</title>
<path fill="none" stroke="grey" d="M247,-382.697C247,-374.983 247,-365.712 247,-357.112"/>
<polygon fill="grey" stroke="grey" points="250.5,-357.104 247,-347.104 243.5,-357.104 250.5,-357.104"/>
</g>
<!-- [ꞌꞌ] -->
<g id="node54" class="node"><title>[ꞌꞌ]</title>
<polygon fill="white" stroke="black" points="274,-275 220,-275 220,-239 274,-239 274,-275"/>
<text text-anchor="middle" x="247" y="-253.3" font-family="Times,serif" font-size="14.00">[ꞌꞌ]</text>
</g>
<!-- quote&#45;&gt;[ꞌꞌ] -->
<g id="edge66" class="edge"><title>quote&#45;&gt;[ꞌꞌ]</title>
<path fill="none" stroke="grey" d="M247,-310.697C247,-302.983 247,-293.712 247,-285.112"/>
<polygon fill="grey" stroke="grey" points="250.5,-285.104 247,-275.104 243.5,-285.104 250.5,-285.104"/>
</g>
<!-- string char -->
<g id="node55" class="node"><title>string char</title>
<polygon fill="white" stroke="black" points="147,-275 73,-275 73,-239 147,-239 147,-275"/>
<text text-anchor="middle" x="110" y="-253.3" font-family="Times,serif" font-size="14.00">string char</text>
</g>
<!-- string contents&#45;&gt;string char -->
<g id="edge67" class="edge"><title>string contents&#45;&gt;string char</title>
<path fill="none" stroke="grey" d="M113.011,-310.697C112.57,-302.983 112.041,-293.712 111.549,-285.112"/>
<polygon fill="grey" stroke="grey" points="115.042,-284.888 110.977,-275.104 108.054,-285.288 115.042,-284.888"/>
</g>
<!-- [^ꞌꞌ\\\\] -->
<g id="node56" class="node"><title>[^ꞌꞌ\\\\]</title>
<polygon fill="white" stroke="black" points="54,-203 0,-203 0,-167 54,-167 54,-203"/>
<text text-anchor="middle" x="27" y="-181.3" font-family="Times,serif" font-size="14.00">[^ꞌꞌ\\]</text>
</g>
<!-- string char&#45;&gt;[^ꞌꞌ\\\\] -->
<g id="edge68" class="edge"><title>string char&#45;&gt;[^ꞌꞌ\\\\]</title>
<path fill="none" stroke="grey" d="M89.4831,-238.697C79.1305,-229.965 66.4137,-219.24 55.161,-209.75"/>
<polygon fill="grey" stroke="grey" points="57.1817,-206.876 47.2809,-203.104 52.6687,-212.227 57.1817,-206.876"/>
</g>
<!-- &#39;\\&#39; any char -->
<g id="node57" class="node"><title>&#39;\\&#39; any char</title>
<polygon fill="white" stroke="black" points="147.25,-203 72.75,-203 72.75,-167 147.25,-167 147.25,-203"/>
<text text-anchor="middle" x="110" y="-181.3" font-family="Times,serif" font-size="14.00">&#39;\&#39; any char</text>
</g>
<!-- string char&#45;&gt;&#39;\\&#39; any char -->
<g id="edge69" class="edge"><title>string char&#45;&gt;&#39;\\&#39; any char</title>
<path fill="none" stroke="grey" d="M110,-238.697C110,-230.983 110,-221.712 110,-213.112"/>
<polygon fill="grey" stroke="grey" points="113.5,-213.104 110,-203.104 106.5,-213.104 113.5,-213.104"/>
</g>
<!-- &#39;\\&#39; -->
<g id="node58" class="node"><title>&#39;\\&#39;</title>
<polygon fill="white" stroke="black" points="99,-131 45,-131 45,-95 99,-95 99,-131"/>
<text text-anchor="middle" x="72" y="-109.3" font-family="Times,serif" font-size="14.00">&#39;\&#39;</text>
</g>
<!-- &#39;\\&#39; any char&#45;&gt;&#39;\\&#39; -->
<g id="edge70" class="edge"><title>&#39;\\&#39; any char&#45;&gt;&#39;\\&#39;</title>
<path fill="none" stroke="grey" d="M100.607,-166.697C96.2351,-158.644 90.9427,-148.894 86.1047,-139.982"/>
<polygon fill="grey" stroke="grey" points="89.1322,-138.223 81.2852,-131.104 82.9802,-141.563 89.1322,-138.223"/>
</g>
<!-- any char -->
<g id="node59" class="node"><title>any char</title>
<polygon fill="white" stroke="black" points="180.25,-131 117.75,-131 117.75,-95 180.25,-95 180.25,-131"/>
<text text-anchor="middle" x="149" y="-109.3" font-family="Times,serif" font-size="14.00">any char</text>
</g>
<!-- &#39;\\&#39; any char&#45;&gt;any char -->
<g id="edge71" class="edge"><title>&#39;\\&#39; any char&#45;&gt;any char</title>
<path fill="none" stroke="grey" d="M119.64,-166.697C124.127,-158.644 129.559,-148.894 134.524,-139.982"/>
<polygon fill="grey" stroke="grey" points="137.661,-141.544 139.47,-131.104 131.546,-138.137 137.661,-141.544"/>
</g>
<!-- [\\d\\D] -->
<g id="node60" class="node"><title>[\\d\\D]</title>
<polygon fill="white" stroke="black" points="176,-59 122,-59 122,-23 176,-23 176,-59"/>
<text text-anchor="middle" x="149" y="-37.3" font-family="Times,serif" font-size="14.00">[\d\D]</text>
</g>
<!-- any char&#45;&gt;[\\d\\D] -->
<g id="edge72" class="edge"><title>any char&#45;&gt;[\\d\\D]</title>
<path fill="none" stroke="grey" d="M149,-94.6966C149,-86.9827 149,-77.7125 149,-69.1124"/>
<polygon fill="grey" stroke="grey" points="152.5,-69.1043 149,-59.1043 145.5,-69.1044 152.5,-69.1043"/>
</g>
<!-- &#39;,&#39; -->
<g id="node61" class="node"><title>&#39;,&#39;</title>
<polygon fill="white" stroke="black" points="786,-997 732,-997 732,-961 786,-961 786,-997"/>
<text text-anchor="middle" x="759" y="-975.3" font-family="Times,serif" font-size="14.00">&#39;,&#39;</text>
</g>
<!-- comma -->
<g id="node62" class="node"><title>comma</title>
<polygon fill="lightgrey" stroke="black" points="787.5,-1075 730.5,-1075 730.5,-1039 787.5,-1039 787.5,-1075"/>
<text text-anchor="middle" x="759" y="-1053.3" font-family="Times,serif" font-size="14.00">comma</text>
</g>
<!-- comma&#45;&gt;&#39;,&#39; -->
<g id="edge73" class="edge"><title>comma&#45;&gt;&#39;,&#39;</title>
<path fill="none" stroke="grey" d="M759,-1038.75C759,-1029.52 759,-1017.93 759,-1007.49"/>
<polygon fill="grey" stroke="grey" points="762.5,-1007.18 759,-997.177 755.5,-1007.18 762.5,-1007.18"/>
</g>
</g>
</svg>
