<?xml version="1.0" encoding="UTF-8" standalone="no"?>
<!DOCTYPE svg PUBLIC "-//W3C//DTD SVG 1.1//EN"
 "http://www.w3.org/Graphics/SVG/1.1/DTD/svg11.dtd">
<!-- Generated by graphviz version 2.38.0 (20140413.2041)
 -->
<!-- Title: Perl Pages: 1 -->
<svg width="2350pt" height="230pt"
 viewBox="0.00 0.00 2349.50 230.00" xmlns="http://www.w3.org/2000/svg" xmlns:xlink="http://www.w3.org/1999/xlink">
<g id="graph0" class="graph" transform="scale(1 1) rotate(0) translate(4 226)">
<title>Perl</title>
<polygon fill="white" stroke="none" points="-4,4 -4,-226 2345.5,-226 2345.5,4 -4,4"/>
<text text-anchor="middle" x="1170.75" y="-7.8" font-family="Times,serif" font-size="14.00">json.1.bnf</text>
<!-- latm_specification -->
<g id="node1" class="node"><title>latm_specification</title>
<polygon fill="white" stroke="black" points="54,-104.5 0,-104.5 0,-68.5 54,-68.5 54,-104.5"/>
</g>
<!-- BNF -->
<g id="node2" class="node"><title>BNF</title>
<polygon fill="lightgrey" stroke="black" points="210,-222 156,-222 156,-186 210,-186 210,-222"/>
<text text-anchor="middle" x="183" y="-200.3" font-family="Times,serif" font-size="14.00">BNF</text>
</g>
<!-- BNF&#45;&gt;latm_specification -->
<g id="edge1" class="edge"><title>BNF&#45;&gt;latm_specification</title>
<path fill="none" stroke="grey" d="M155.972,-196.364C129.702,-188.787 89.9345,-174.204 63,-150 52.0497,-140.16 43.5643,-126.175 37.5895,-113.929"/>
<polygon fill="grey" stroke="grey" points="40.6672,-112.242 33.3369,-104.593 34.2969,-115.144 40.6672,-112.242"/>
</g>
<!-- rhs -->
<g id="node3" class="node"><title>rhs</title>
<polygon fill="white" stroke="black" points="126,-104.5 72,-104.5 72,-68.5 126,-68.5 126,-104.5"/>
</g>
<!-- BNF&#45;&gt;rhs -->
<g id="edge2" class="edge"><title>BNF&#45;&gt;rhs</title>
<path fill="none" stroke="grey" d="M155.582,-202.058C86.7182,-197.046 61.6583,-172.883 45,-150 29.3182,-128.458 14.8338,-99.547 62.0741,-90.4001"/>
<polygon fill="grey" stroke="grey" points="62.6364,-93.8549 71.9933,-88.8851 61.5795,-86.9351 62.6364,-93.8549"/>
</g>
<!-- BNF&#45;&gt;rhs -->
<g id="edge12" class="edge"><title>BNF&#45;&gt;rhs</title>
<path fill="none" stroke="grey" d="M155.781,-201.543C103.187,-195.563 79.1469,-172.18 63,-150 48.5069,-130.091 35.0366,-103.888 62.2092,-92.809"/>
<polygon fill="grey" stroke="grey" points="63.415,-96.1016 71.9907,-89.8801 61.407,-89.3958 63.415,-96.1016"/>
</g>
<!-- BNF&#45;&gt;rhs -->
<g id="edge13" class="edge"><title>BNF&#45;&gt;rhs</title>
<path fill="none" stroke="grey" d="M155.935,-200.47C118.707,-193.133 96.3066,-171.026 81,-150 69.1508,-133.723 57.9853,-113.239 64.6962,-100.252"/>
<polygon fill="grey" stroke="grey" points="67.3747,-102.519 71.8602,-92.9205 62.368,-97.6268 67.3747,-102.519"/>
</g>
<!-- BNF&#45;&gt;rhs -->
<g id="edge14" class="edge"><title>BNF&#45;&gt;rhs</title>
<path fill="none" stroke="grey" d="M155.804,-197.762C132.184,-188.607 112.736,-168.868 99,-150 90.9577,-138.953 83.2304,-125.967 79.7993,-114.703"/>
<polygon fill="grey" stroke="grey" points="83.1861,-113.764 77.9559,-104.55 76.2987,-115.015 83.1861,-113.764"/>
</g>
<!-- BNF&#45;&gt;rhs -->
<g id="edge16" class="edge"><title>BNF&#45;&gt;rhs</title>
<path fill="none" stroke="grey" d="M155.831,-190.591C142.167,-180.247 127.813,-164.854 117,-150 108.792,-138.725 100.912,-125.431 96.1103,-114.008"/>
<polygon fill="grey" stroke="grey" points="99.3964,-112.803 92.7523,-104.55 92.7998,-115.145 99.3964,-112.803"/>
</g>
<!-- BNF&#45;&gt;rhs -->
<g id="edge18" class="edge"><title>BNF&#45;&gt;rhs</title>
<path fill="none" stroke="grey" d="M165.559,-185.662C155.978,-175.683 144.206,-162.646 135,-150 126.709,-138.611 118.753,-125.162 112.438,-113.663"/>
<polygon fill="grey" stroke="grey" points="115.361,-111.707 107.549,-104.55 109.193,-115.017 115.361,-111.707"/>
</g>
<!-- BNF&#45;&gt;rhs -->
<g id="edge19" class="edge"><title>BNF&#45;&gt;rhs</title>
<path fill="none" stroke="grey" d="M181.413,-185.662C173.978,-175.683 162.206,-162.646 153,-150 144.543,-138.383 136.435,-124.623 128.44,-112.975"/>
<polygon fill="grey" stroke="grey" points="131.042,-110.601 122.345,-104.55 125.371,-114.704 131.042,-110.601"/>
</g>
<!-- BNF&#45;&gt;rhs -->
<g id="edge22" class="edge"><title>BNF&#45;&gt;rhs</title>
<path fill="none" stroke="grey" d="M197.267,-185.662C191.978,-175.683 180.206,-162.646 171,-150 159.641,-134.396 148.91,-114.926 134.311,-101.901"/>
<polygon fill="grey" stroke="grey" points="136.359,-99.0603 126.301,-95.7318 132.088,-104.606 136.359,-99.0603"/>
</g>
<!-- BNF&#45;&gt;rhs -->
<g id="edge23" class="edge"><title>BNF&#45;&gt;rhs</title>
<path fill="none" stroke="grey" d="M210.16,-197.762C222.184,-188.607 202.736,-168.868 189,-150 175.294,-131.173 162.503,-106.715 135.827,-94.7444"/>
<polygon fill="grey" stroke="grey" points="136.82,-91.3798 126.227,-91.1895 134.389,-97.9443 136.82,-91.3798"/>
</g>
<!-- BNF&#45;&gt;rhs -->
<g id="edge24" class="edge"><title>BNF&#45;&gt;rhs</title>
<path fill="none" stroke="grey" d="M210.259,-201.018C245.888,-194.295 222.708,-171.578 207,-150 191.927,-129.294 177.959,-101.779 136.233,-91.5523"/>
<polygon fill="grey" stroke="grey" points="136.773,-88.0905 126.277,-89.539 135.385,-94.9517 136.773,-88.0905"/>
</g>
<!-- BNF&#45;&gt;rhs -->
<g id="edge25" class="edge"><title>BNF&#45;&gt;rhs</title>
<path fill="none" stroke="grey" d="M210.308,-201.886C266.17,-196.516 241.476,-172.632 225,-150 209.083,-128.135 194.4,-98.6784 136.154,-90.002"/>
<polygon fill="grey" stroke="grey" points="136.367,-86.5019 126.014,-88.7511 135.51,-93.4492 136.367,-86.5019"/>
</g>
<!-- rhs rhs -->
<g id="node4" class="node"><title>rhs rhs</title>
<polygon fill="white" stroke="black" points="221.5,-104.5 144.5,-104.5 144.5,-68.5 221.5,-68.5 221.5,-104.5"/>
<text text-anchor="middle" x="183" y="-82.8" font-family="Times,serif" font-size="14.00">alternative</text>
</g>
<!-- BNF&#45;&gt;rhs rhs -->
<g id="edge3" class="edge"><title>BNF&#45;&gt;rhs rhs</title>
<path fill="none" stroke="grey" d="M163.178,-185.958C154.887,-167.021 153.778,-136.202 159.852,-114.087"/>
<polygon fill="grey" stroke="grey" points="163.168,-115.207 163.148,-104.612 156.557,-112.907 163.168,-115.207"/>
</g>
<!-- BNF&#45;&gt;rhs rhs -->
<g id="edge6" class="edge"><title>BNF&#45;&gt;rhs rhs</title>
<path fill="none" stroke="grey" d="M173.089,-185.958C168.981,-167.191 168.399,-136.756 171.345,-114.687"/>
<polygon fill="grey" stroke="grey" points="174.832,-115.06 173.074,-104.612 167.933,-113.876 174.832,-115.06"/>
</g>
<!-- BNF&#45;&gt;rhs rhs -->
<g id="edge11" class="edge"><title>BNF&#45;&gt;rhs rhs</title>
<path fill="none" stroke="grey" d="M183,-185.958C183,-167.191 183,-136.756 183,-114.687"/>
<polygon fill="grey" stroke="grey" points="186.5,-114.612 183,-104.612 179.5,-114.612 186.5,-114.612"/>
</g>
<!-- BNF&#45;&gt;rhs rhs -->
<g id="edge17" class="edge"><title>BNF&#45;&gt;rhs rhs</title>
<path fill="none" stroke="grey" d="M192.911,-185.958C197.019,-167.191 197.601,-136.756 194.655,-114.687"/>
<polygon fill="grey" stroke="grey" points="198.067,-113.876 192.926,-104.612 191.168,-115.06 198.067,-113.876"/>
</g>
<!-- BNF&#45;&gt;rhs rhs -->
<g id="edge21" class="edge"><title>BNF&#45;&gt;rhs rhs</title>
<path fill="none" stroke="grey" d="M202.822,-185.958C211.113,-167.021 212.222,-136.202 206.148,-114.087"/>
<polygon fill="grey" stroke="grey" points="209.443,-112.907 202.852,-104.612 202.832,-115.207 209.443,-112.907"/>
</g>
<!-- rhs action rhs rhs -->
<g id="node5" class="node"><title>rhs action rhs rhs</title>
<polygon fill="white" stroke="black" points="396,-104.5 240,-104.5 240,-68.5 396,-68.5 396,-104.5"/>
<text text-anchor="middle" x="318" y="-82.8" font-family="Times,serif" font-size="14.00">rhs alternative rhs action</text>
</g>
<!-- BNF&#45;&gt;rhs action rhs rhs -->
<g id="edge4" class="edge"><title>BNF&#45;&gt;rhs action rhs rhs</title>
<path fill="none" stroke="grey" d="M197.964,-185.958C219.02,-166.082 257.351,-133.119 285.141,-110.866"/>
<polygon fill="grey" stroke="grey" points="287.37,-113.565 293.036,-104.612 283.024,-108.078 287.37,-113.565"/>
</g>
<!-- BNF&#45;&gt;rhs action rhs rhs -->
<g id="edge8" class="edge"><title>BNF&#45;&gt;rhs action rhs rhs</title>
<path fill="none" stroke="grey" d="M207.875,-185.958C233.063,-166.253 271.344,-133.684 295.61,-111.441"/>
<polygon fill="grey" stroke="grey" points="298.017,-113.983 302.962,-104.612 293.253,-108.854 298.017,-113.983"/>
</g>
<!-- rhs action -->
<g id="node6" class="node"><title>rhs action</title>
<polygon fill="white" stroke="black" points="482,-104.5 414,-104.5 414,-68.5 482,-68.5 482,-104.5"/>
<text text-anchor="middle" x="448" y="-82.8" font-family="Times,serif" font-size="14.00">separator</text>
</g>
<!-- BNF&#45;&gt;rhs action -->
<g id="edge5" class="edge"><title>BNF&#45;&gt;rhs action</title>
<path fill="none" stroke="grey" d="M210.096,-202.35C253.229,-199.937 337.838,-189.899 396,-150 409.325,-140.859 419.754,-126.125 427.993,-113.258"/>
<polygon fill="grey" stroke="grey" points="430.99,-115.067 433.356,-104.74 425.066,-111.338 430.99,-115.067"/>
</g>
<!-- BNF&#45;&gt;rhs action -->
<g id="edge9" class="edge"><title>BNF&#45;&gt;rhs action</title>
<path fill="none" stroke="grey" d="M210.043,-202.821C256.294,-201.458 350.773,-193.373 414,-150 427.069,-141.035 437.352,-126.69 443.646,-114.002"/>
<polygon fill="grey" stroke="grey" points="446.895,-115.307 447.662,-104.74 440.473,-112.522 446.895,-115.307"/>
</g>
<!-- rhs rhs rhs rhs rhs alternative action rhs -->
<g id="node7" class="node"><title>rhs rhs rhs rhs rhs alternative action rhs</title>
<polygon fill="white" stroke="black" points="925.5,-104.5 500.5,-104.5 500.5,-68.5 925.5,-68.5 925.5,-104.5"/>
<text text-anchor="middle" x="713" y="-82.8" font-family="Times,serif" font-size="14.00">alternative alternative alternative alternative action rhs alternative action</text>
</g>
<!-- BNF&#45;&gt;rhs rhs rhs rhs rhs alternative action rhs -->
<g id="edge7" class="edge"><title>BNF&#45;&gt;rhs rhs rhs rhs rhs alternative action rhs</title>
<path fill="none" stroke="grey" d="M210.381,-199.265C264.392,-191.684 388.332,-173.219 491,-150 544.735,-137.847 604.839,-120.703 648.943,-107.444"/>
<polygon fill="grey" stroke="grey" points="650.105,-110.749 658.665,-104.506 648.08,-104.048 650.105,-110.749"/>
</g>
<!-- rhs rhs alternative rhs rhs rhs -->
<g id="node8" class="node"><title>rhs rhs alternative rhs rhs rhs</title>
<polygon fill="white" stroke="black" points="1146.5,-104.5 943.5,-104.5 943.5,-68.5 1146.5,-68.5 1146.5,-104.5"/>
<text text-anchor="middle" x="1045" y="-82.8" font-family="Times,serif" font-size="14.00">alternative rhs rhs alternative rhs</text>
</g>
<!-- BNF&#45;&gt;rhs rhs alternative rhs rhs rhs -->
<g id="edge10" class="edge"><title>BNF&#45;&gt;rhs rhs alternative rhs rhs rhs</title>
<path fill="none" stroke="grey" d="M210.302,-202.69C328.366,-201.102 795.311,-192.222 935,-150 963.331,-141.437 992.314,-124.572 1013.41,-110.517"/>
<polygon fill="grey" stroke="grey" points="1015.66,-113.223 1021.95,-104.698 1011.71,-107.44 1015.66,-113.223"/>
</g>
<!-- rhs rhs rhs rhs rhs rhs -->
<g id="node9" class="node"><title>rhs rhs rhs rhs rhs rhs</title>
<polygon fill="white" stroke="black" points="1493.5,-104.5 1164.5,-104.5 1164.5,-68.5 1493.5,-68.5 1493.5,-104.5"/>
<text text-anchor="middle" x="1329" y="-82.8" font-family="Times,serif" font-size="14.00">alternative alternative alternative alternative alternative</text>
</g>
<!-- BNF&#45;&gt;rhs rhs rhs rhs rhs rhs -->
<g id="edge15" class="edge"><title>BNF&#45;&gt;rhs rhs rhs rhs rhs rhs</title>
<path fill="none" stroke="grey" d="M210.386,-202.586C348.328,-200.338 967.836,-188.25 1156,-150 1200.2,-141.016 1248.28,-122.924 1282.51,-108.507"/>
<polygon fill="grey" stroke="grey" points="1283.96,-111.694 1291.78,-104.549 1281.21,-105.256 1283.96,-111.694"/>
</g>
<!-- rhs rhs alternative rhs rhs alternative rhs rhs alternative rhs rhs rhs rhs alternative -->
<g id="node10" class="node"><title>rhs rhs alternative rhs rhs alternative rhs rhs alternative rhs rhs rhs rhs alternative</title>
<polygon fill="white" stroke="black" points="2030,-104.5 1512,-104.5 1512,-68.5 2030,-68.5 2030,-104.5"/>
<text text-anchor="middle" x="1771" y="-82.8" font-family="Times,serif" font-size="14.00">alternative rhs rhs alternative rhs rhs alternative rhs rhs alternative rhs alternative rhs rhs</text>
</g>
<!-- BNF&#45;&gt;rhs rhs alternative rhs rhs alternative rhs rhs alternative rhs rhs rhs rhs alternative -->
<g id="edge20" class="edge"><title>BNF&#45;&gt;rhs rhs alternative rhs rhs alternative rhs rhs alternative rhs rhs rhs rhs alternative</title>
<path fill="none" stroke="grey" d="M210.259,-202.608C375.084,-200.129 1240.21,-185.592 1503,-150 1571.86,-140.673 1648.98,-121.77 1702.75,-107.182"/>
<polygon fill="grey" stroke="grey" points="1703.79,-110.527 1712.51,-104.512 1701.95,-103.775 1703.79,-110.527"/>
</g>
<!-- Legend -->
<g id="node11" class="node"><title>Legend</title>
<polygon fill="lightgrey" stroke="none" points="2341.5,-150 2048.5,-150 2048.5,-23 2341.5,-23 2341.5,-150"/>
<polygon fill="white" stroke="none" points="2056.5,-27 2056.5,-146 2333.5,-146 2333.5,-27 2056.5,-27"/>
<polygon fill="lightgreen" stroke="none" points="2060,-121.5 2060,-142.5 2331,-142.5 2331,-121.5 2060,-121.5"/>
<polygon fill="none" stroke="black" points="2060,-121.5 2060,-142.5 2331,-142.5 2331,-121.5 2060,-121.5"/>
<text text-anchor="start" x="2106.5" y="-128.3" font-family="Times,serif" font-size="14.00">The green node is the start node</text>
<polygon fill="lightblue" stroke="none" points="2060,-98.5 2060,-119.5 2331,-119.5 2331,-98.5 2060,-98.5"/>
<polygon fill="none" stroke="black" points="2060,-98.5 2060,-119.5 2331,-119.5 2331,-98.5 2060,-98.5"/>
<text text-anchor="start" x="2063" y="-105.3" font-family="Times,serif" font-size="14.00">Lightblue nodes are for reserved rule names, etc</text>
<polygon fill="orchid" stroke="none" points="2060,-75.5 2060,-96.5 2331,-96.5 2331,-75.5 2060,-75.5"/>
<polygon fill="none" stroke="black" points="2060,-75.5 2060,-96.5 2331,-96.5 2331,-75.5 2060,-75.5"/>
<text text-anchor="start" x="2114" y="-82.3" font-family="Times,serif" font-size="14.00">Orchid nodes are for lexemes</text>
<polygon fill="goldenrod" stroke="none" points="2060,-52.5 2060,-73.5 2331,-73.5 2331,-52.5 2060,-52.5"/>
<polygon fill="none" stroke="black" points="2060,-52.5 2060,-73.5 2331,-73.5 2331,-52.5 2060,-52.5"/>
<text text-anchor="start" x="2115.5" y="-59.3" font-family="Times,serif" font-size="14.00">Golden nodes are for actions</text>
<polygon fill="#ff3030" stroke="none" points="2060,-29.5 2060,-50.5 2331,-50.5 2331,-29.5 2060,-29.5"/>
<polygon fill="none" stroke="black" points="2060,-29.5 2060,-50.5 2331,-50.5 2331,-29.5 2060,-29.5"/>
<text text-anchor="start" x="2127.5" y="-36.3" font-family="Times,serif" font-size="14.00">Red nodes are for events</text>
<polygon fill="none" stroke="black" points="2056.5,-27 2056.5,-146 2333.5,-146 2333.5,-27 2056.5,-27"/>
</g>
</g>
</svg>
