<?xml version="1.0" encoding="UTF-8" standalone="no"?>
<!DOCTYPE svg PUBLIC "-//W3C//DTD SVG 1.1//EN"
 "http://www.w3.org/Graphics/SVG/1.1/DTD/svg11.dtd">
<!-- Generated by graphviz version 2.30.1 (20130611.0131)
 -->
<!-- Title: Perl Pages: 1 -->
<svg width="1004pt" height="1093pt"
 viewBox="0.00 0.00 1004.00 1093.00" xmlns="http://www.w3.org/2000/svg" xmlns:xlink="http://www.w3.org/1999/xlink">
<g id="graph0" class="graph" transform="scale(1 1) rotate(0) translate(4 1089)">
<title>Perl</title>
<polygon fill="white" stroke="white" points="-4,5 -4,-1089 1001,-1089 1001,5 -4,5"/>
<text text-anchor="middle" x="498" y="-7.8" font-family="Times,serif" font-size="14.00">json.2.bnf</text>
<!-- json -->
<g id="node1" class="node"><title>json</title>
<path fill="lightgreen" stroke="black" d="M421,-1038C421,-1038 451,-1038 451,-1038 457,-1038 463,-1044 463,-1050 463,-1050 463,-1072 463,-1072 463,-1078 457,-1084 451,-1084 451,-1084 421,-1084 421,-1084 415,-1084 409,-1078 409,-1072 409,-1072 409,-1050 409,-1050 409,-1044 415,-1038 421,-1038"/>
<text text-anchor="middle" x="436" y="-1068.8" font-family="Times,serif" font-size="14.00">:start</text>
<polyline fill="none" stroke="black" points="409,-1061 463,-1061 "/>
<text text-anchor="middle" x="436" y="-1045.8" font-family="Times,serif" font-size="14.00">json</text>
</g>
<!-- ꞉default -->
<g id="node2" class="node"><title>꞉default</title>
<polygon fill="lightblue" stroke="black" points="304.5,-1001 247.5,-1001 247.5,-965 304.5,-965 304.5,-1001"/>
<text text-anchor="middle" x="276" y="-979.3" font-family="Times,serif" font-size="14.00">꞉default</text>
</g>
<!-- json&#45;&gt;꞉default -->
<g id="edge1" class="edge"><title>json&#45;&gt;꞉default</title>
<path fill="none" stroke="grey" d="M408.858,-1047.11C382.712,-1034.69 342.93,-1015.79 313.711,-1001.91"/>
<polygon fill="grey" stroke="grey" points="315.161,-998.727 304.626,-997.598 312.157,-1005.05 315.161,-998.727"/>
</g>
<!-- ꞉discard -->
<g id="node4" class="node"><title>꞉discard</title>
<polygon fill="lightblue" stroke="black" points="419.25,-1001 360.75,-1001 360.75,-965 419.25,-965 419.25,-1001"/>
<text text-anchor="middle" x="390" y="-979.3" font-family="Times,serif" font-size="14.00">꞉discard</text>
</g>
<!-- json&#45;&gt;꞉discard -->
<g id="edge3" class="edge"><title>json&#45;&gt;꞉discard</title>
<path fill="none" stroke="grey" d="M422.447,-1037.61C417.2,-1028.94 411.159,-1018.96 405.722,-1009.98"/>
<polygon fill="grey" stroke="grey" points="408.711,-1008.15 400.539,-1001.41 402.723,-1011.78 408.711,-1008.15"/>
</g>
<!-- object -->
<g id="node6" class="node"><title>object</title>
<polygon fill="white" stroke="black" points="510,-1001 456,-1001 456,-965 510,-965 510,-1001"/>
<text text-anchor="middle" x="483" y="-979.3" font-family="Times,serif" font-size="14.00">object</text>
</g>
<!-- json&#45;&gt;object -->
<g id="edge5" class="edge"><title>json&#45;&gt;object</title>
<path fill="none" stroke="grey" d="M449.847,-1037.61C455.209,-1028.94 461.381,-1018.96 466.936,-1009.98"/>
<polygon fill="grey" stroke="grey" points="469.949,-1011.76 472.232,-1001.41 463.995,-1008.08 469.949,-1011.76"/>
</g>
<!-- array -->
<g id="node7" class="node"><title>array</title>
<polygon fill="white" stroke="black" points="798,-565 744,-565 744,-529 798,-529 798,-565"/>
<text text-anchor="middle" x="771" y="-543.3" font-family="Times,serif" font-size="14.00">array</text>
</g>
<!-- json&#45;&gt;array -->
<g id="edge6" class="edge"><title>json&#45;&gt;array</title>
<path fill="none" stroke="grey" d="M463.323,-1054.11C519.975,-1040.11 645,-999.232 645,-911 645,-911 645,-911 645,-690 645,-635.23 698.093,-591.731 735.35,-567.949"/>
<polygon fill="grey" stroke="grey" points="737.309,-570.853 743.97,-562.614 733.625,-564.901 737.309,-570.853"/>
</g>
<!-- ꞉default_1 -->
<g id="node3" class="node"><title>꞉default_1</title>
<path fill="lightblue" stroke="black" d="M214.5,-892C214.5,-892 299.5,-892 299.5,-892 305.5,-892 311.5,-898 311.5,-904 311.5,-904 311.5,-916 311.5,-916 311.5,-922 305.5,-928 299.5,-928 299.5,-928 214.5,-928 214.5,-928 208.5,-928 202.5,-922 202.5,-916 202.5,-916 202.5,-904 202.5,-904 202.5,-898 208.5,-892 214.5,-892"/>
<text text-anchor="middle" x="257" y="-906.3" font-family="Times,serif" font-size="14.00">action =&gt; ꞉꞉array</text>
</g>
<!-- ꞉default&#45;&gt;꞉default_1 -->
<g id="edge2" class="edge"><title>꞉default&#45;&gt;꞉default_1</title>
<path fill="none" stroke="grey" d="M271.401,-964.813C269.23,-956.702 266.59,-946.836 264.166,-937.777"/>
<polygon fill="grey" stroke="grey" points="267.523,-936.784 261.557,-928.029 260.761,-938.594 267.523,-936.784"/>
</g>
<!-- whitespace -->
<g id="node5" class="node"><title>whitespace</title>
<polygon fill="lightblue" stroke="black" points="406.25,-928 329.75,-928 329.75,-892 406.25,-892 406.25,-928"/>
<text text-anchor="middle" x="368" y="-906.3" font-family="Times,serif" font-size="14.00">whitespace</text>
</g>
<!-- ꞉discard&#45;&gt;whitespace -->
<g id="edge4" class="edge"><title>꞉discard&#45;&gt;whitespace</title>
<path fill="none" stroke="grey" d="M384.674,-964.813C382.161,-956.702 379.104,-946.836 376.297,-937.777"/>
<polygon fill="grey" stroke="grey" points="379.58,-936.545 373.277,-928.029 372.893,-938.617 379.58,-936.545"/>
</g>
<!-- [\\s] -->
<g id="node67" class="node"><title>[\\s]</title>
<polygon fill="white" stroke="black" points="314,-855 260,-855 260,-819 314,-819 314,-855"/>
<text text-anchor="middle" x="287" y="-833.3" font-family="Times,serif" font-size="14.00">[\s]</text>
</g>
<!-- whitespace&#45;&gt;[\\s] -->
<g id="edge78" class="edge"><title>whitespace&#45;&gt;[\\s]</title>
<path fill="none" stroke="grey" d="M348.392,-891.813C338.144,-882.83 325.439,-871.693 314.25,-861.886"/>
<polygon fill="grey" stroke="grey" points="316.254,-858.988 306.427,-855.029 311.64,-864.253 316.254,-858.988"/>
</g>
<!-- (&#39;{&#39;) members (&#39;}&#39;) -->
<g id="node8" class="node"><title>(&#39;{&#39;) members (&#39;}&#39;)</title>
<polygon fill="white" stroke="black" points="540.5,-928 425.5,-928 425.5,-892 540.5,-892 540.5,-928"/>
<text text-anchor="middle" x="483" y="-906.3" font-family="Times,serif" font-size="14.00">(&#39;{&#39;) members (&#39;}&#39;)</text>
</g>
<!-- object&#45;&gt;(&#39;{&#39;) members (&#39;}&#39;) -->
<g id="edge7" class="edge"><title>object&#45;&gt;(&#39;{&#39;) members (&#39;}&#39;)</title>
<path fill="none" stroke="grey" d="M483,-964.813C483,-956.789 483,-947.047 483,-938.069"/>
<polygon fill="grey" stroke="grey" points="486.5,-938.029 483,-928.029 479.5,-938.029 486.5,-938.029"/>
</g>
<!-- (&#39;[&#39; &#39;]&#39;) -->
<g id="node24" class="node"><title>(&#39;[&#39; &#39;]&#39;)</title>
<polygon fill="white" stroke="black" points="688,-493 634,-493 634,-457 688,-457 688,-493"/>
<text text-anchor="middle" x="661" y="-471.3" font-family="Times,serif" font-size="14.00">(&#39;[&#39; &#39;]&#39;)</text>
</g>
<!-- array&#45;&gt;(&#39;[&#39; &#39;]&#39;) -->
<g id="edge26" class="edge"><title>array&#45;&gt;(&#39;[&#39; &#39;]&#39;)</title>
<path fill="none" stroke="grey" d="M744.091,-528.876C729.842,-519.808 712.154,-508.552 696.764,-498.759"/>
<polygon fill="grey" stroke="grey" points="698.328,-495.606 688.012,-493.19 694.57,-501.511 698.328,-495.606"/>
</g>
<!-- (&#39;[&#39;) elements (&#39;]&#39;) -->
<g id="node27" class="node"><title>(&#39;[&#39;) elements (&#39;]&#39;)</title>
<polygon fill="white" stroke="black" points="865.25,-493 756.75,-493 756.75,-457 865.25,-457 865.25,-493"/>
<text text-anchor="middle" x="811" y="-471.3" font-family="Times,serif" font-size="14.00">(&#39;[&#39;) elements (&#39;]&#39;)</text>
</g>
<!-- array&#45;&gt;(&#39;[&#39;) elements (&#39;]&#39;) -->
<g id="edge29" class="edge"><title>array&#45;&gt;(&#39;[&#39;) elements (&#39;]&#39;)</title>
<path fill="none" stroke="grey" d="M780.888,-528.697C785.489,-520.644 791.06,-510.894 796.153,-501.982"/>
<polygon fill="grey" stroke="grey" points="799.304,-503.523 801.226,-493.104 793.226,-500.05 799.304,-503.523"/>
</g>
<!-- (&#39;{&#39;) -->
<g id="node9" class="node"><title>(&#39;{&#39;)</title>
<polygon fill="white" stroke="black" points="386,-855 332,-855 332,-819 386,-819 386,-855"/>
<text text-anchor="middle" x="359" y="-833.3" font-family="Times,serif" font-size="14.00">(&#39;{&#39;)</text>
</g>
<!-- (&#39;{&#39;) members (&#39;}&#39;)&#45;&gt;(&#39;{&#39;) -->
<g id="edge8" class="edge"><title>(&#39;{&#39;) members (&#39;}&#39;)&#45;&gt;(&#39;{&#39;)</title>
<path fill="none" stroke="grey" d="M453.299,-891.994C435.812,-881.981 413.569,-869.245 395.078,-858.658"/>
<polygon fill="grey" stroke="grey" points="396.757,-855.586 386.339,-853.654 393.278,-861.66 396.757,-855.586"/>
</g>
<!-- members -->
<g id="node11" class="node"><title>members</title>
<polygon fill="white" stroke="black" points="544,-855 476,-855 476,-819 544,-819 544,-855"/>
<text text-anchor="middle" x="510" y="-833.3" font-family="Times,serif" font-size="14.00">members</text>
</g>
<!-- (&#39;{&#39;) members (&#39;}&#39;)&#45;&gt;members -->
<g id="edge10" class="edge"><title>(&#39;{&#39;) members (&#39;}&#39;)&#45;&gt;members</title>
<path fill="none" stroke="grey" d="M489.536,-891.813C492.653,-883.615 496.453,-873.623 499.928,-864.485"/>
<polygon fill="grey" stroke="grey" points="503.241,-865.62 503.524,-855.029 496.698,-863.132 503.241,-865.62"/>
</g>
<!-- (&#39;}&#39;) -->
<g id="node13" class="node"><title>(&#39;}&#39;)</title>
<polygon fill="white" stroke="black" points="458,-855 404,-855 404,-819 458,-819 458,-855"/>
<text text-anchor="middle" x="431" y="-833.3" font-family="Times,serif" font-size="14.00">(&#39;}&#39;)</text>
</g>
<!-- (&#39;{&#39;) members (&#39;}&#39;)&#45;&gt;(&#39;}&#39;) -->
<g id="edge12" class="edge"><title>(&#39;{&#39;) members (&#39;}&#39;)&#45;&gt;(&#39;}&#39;)</title>
<path fill="none" stroke="grey" d="M470.412,-891.813C464.153,-883.266 456.465,-872.769 449.546,-863.323"/>
<polygon fill="grey" stroke="grey" points="452.204,-861.028 443.472,-855.029 446.557,-865.165 452.204,-861.028"/>
</g>
<!-- (&#39;{&#39;)_0 -->
<g id="node10" class="node"><title>(&#39;{&#39;)_0</title>
<path fill="white" stroke="black" d="M199,-746C199,-746 267,-746 267,-746 273,-746 279,-752 279,-758 279,-758 279,-770 279,-770 279,-776 273,-782 267,-782 267,-782 199,-782 199,-782 193,-782 187,-776 187,-770 187,-770 187,-758 187,-758 187,-752 193,-746 199,-746"/>
<text text-anchor="middle" x="233" y="-760.3" font-family="Times,serif" font-size="14.00">bless =&gt; hash</text>
</g>
<!-- (&#39;{&#39;)&#45;&gt;(&#39;{&#39;)_0 -->
<g id="edge9" class="edge"><title>(&#39;{&#39;)&#45;&gt;(&#39;{&#39;)_0</title>
<path fill="none" stroke="grey" d="M331.97,-820.769C314.616,-810.99 291.786,-798.125 272.426,-787.216"/>
<polygon fill="grey" stroke="grey" points="273.955,-784.061 263.525,-782.201 270.519,-790.159 273.955,-784.061"/>
</g>
<!-- members_1 -->
<g id="node12" class="node"><title>members_1</title>
<path fill="white" stroke="black" d="M419,-746C419,-746 487,-746 487,-746 493,-746 499,-752 499,-758 499,-758 499,-770 499,-770 499,-776 493,-782 487,-782 487,-782 419,-782 419,-782 413,-782 407,-776 407,-770 407,-770 407,-758 407,-758 407,-752 413,-746 419,-746"/>
<text text-anchor="middle" x="453" y="-760.3" font-family="Times,serif" font-size="14.00">bless =&gt; hash</text>
</g>
<!-- members&#45;&gt;members_1 -->
<g id="edge11" class="edge"><title>members&#45;&gt;members_1</title>
<path fill="none" stroke="grey" d="M496.202,-818.813C489.27,-810.179 480.741,-799.555 473.098,-790.034"/>
<polygon fill="grey" stroke="grey" points="475.661,-787.636 466.671,-782.029 470.202,-792.018 475.661,-787.636"/>
</g>
<!-- pair -->
<g id="node15" class="node"><title>pair</title>
<polygon fill="white" stroke="black" points="571,-782 517,-782 517,-746 571,-746 571,-782"/>
<text text-anchor="middle" x="544" y="-760.3" font-family="Times,serif" font-size="14.00">pair</text>
</g>
<!-- members&#45;&gt;pair -->
<g id="edge14" class="edge"><title>members&#45;&gt;pair</title>
<path fill="none" stroke="grey" d="M518.23,-818.813C522.198,-810.528 527.043,-800.41 531.457,-791.193"/>
<polygon fill="grey" stroke="grey" points="534.683,-792.56 535.845,-782.029 528.37,-789.536 534.683,-792.56"/>
</g>
<!-- (&#39;}&#39;)_2 -->
<g id="node14" class="node"><title>(&#39;}&#39;)_2</title>
<path fill="white" stroke="black" d="M309,-746C309,-746 377,-746 377,-746 383,-746 389,-752 389,-758 389,-758 389,-770 389,-770 389,-776 383,-782 377,-782 377,-782 309,-782 309,-782 303,-782 297,-776 297,-770 297,-770 297,-758 297,-758 297,-752 303,-746 309,-746"/>
<text text-anchor="middle" x="343" y="-760.3" font-family="Times,serif" font-size="14.00">bless =&gt; hash</text>
</g>
<!-- (&#39;}&#39;)&#45;&gt;(&#39;}&#39;)_2 -->
<g id="edge13" class="edge"><title>(&#39;}&#39;)&#45;&gt;(&#39;}&#39;)_2</title>
<path fill="none" stroke="grey" d="M409.698,-818.813C398.348,-809.656 384.224,-798.26 371.899,-788.316"/>
<polygon fill="grey" stroke="grey" points="374.087,-785.584 364.106,-782.029 369.691,-791.032 374.087,-785.584"/>
</g>
<!-- string (&#39;꞉&#39;) value -->
<g id="node16" class="node"><title>string (&#39;꞉&#39;) value</title>
<polygon fill="white" stroke="black" points="570.25,-709 469.75,-709 469.75,-673 570.25,-673 570.25,-709"/>
<text text-anchor="middle" x="520" y="-687.3" font-family="Times,serif" font-size="14.00">string (&#39;꞉&#39;) value</text>
</g>
<!-- pair&#45;&gt;string (&#39;꞉&#39;) value -->
<g id="edge15" class="edge"><title>pair&#45;&gt;string (&#39;꞉&#39;) value</title>
<path fill="none" stroke="grey" d="M538.19,-745.813C535.449,-737.702 532.113,-727.836 529.051,-718.777"/>
<polygon fill="grey" stroke="grey" points="532.274,-717.381 525.756,-709.029 525.643,-719.623 532.274,-717.381"/>
</g>
<!-- string -->
<g id="node17" class="node"><title>string</title>
<polygon fill="white" stroke="black" points="388,-565 334,-565 334,-529 388,-529 388,-565"/>
<text text-anchor="middle" x="361" y="-543.3" font-family="Times,serif" font-size="14.00">string</text>
</g>
<!-- string (&#39;꞉&#39;) value&#45;&gt;string -->
<g id="edge16" class="edge"><title>string (&#39;꞉&#39;) value&#45;&gt;string</title>
<path fill="none" stroke="grey" d="M521.04,-672.73C521.269,-653.001 518.581,-620.886 501,-601 470.564,-566.573 445.5,-581.36 397.878,-564.897"/>
<polygon fill="grey" stroke="grey" points="398.973,-561.57 388.381,-561.303 396.495,-568.116 398.973,-561.57"/>
</g>
<!-- (&#39;꞉&#39;) -->
<g id="node18" class="node"><title>(&#39;꞉&#39;)</title>
<polygon fill="white" stroke="black" points="492,-637 438,-637 438,-601 492,-601 492,-637"/>
<text text-anchor="middle" x="465" y="-615.3" font-family="Times,serif" font-size="14.00">(&#39;꞉&#39;)</text>
</g>
<!-- string (&#39;꞉&#39;) value&#45;&gt;(&#39;꞉&#39;) -->
<g id="edge17" class="edge"><title>string (&#39;꞉&#39;) value&#45;&gt;(&#39;꞉&#39;)</title>
<path fill="none" stroke="grey" d="M506.404,-672.697C499.877,-664.389 491.932,-654.277 484.753,-645.141"/>
<polygon fill="grey" stroke="grey" points="487.369,-642.805 478.439,-637.104 481.865,-647.13 487.369,-642.805"/>
</g>
<!-- value -->
<g id="node19" class="node"><title>value</title>
<polygon fill="white" stroke="black" points="610,-637 556,-637 556,-601 610,-601 610,-637"/>
<text text-anchor="middle" x="583" y="-615.3" font-family="Times,serif" font-size="14.00">value</text>
</g>
<!-- string (&#39;꞉&#39;) value&#45;&gt;value -->
<g id="edge18" class="edge"><title>string (&#39;꞉&#39;) value&#45;&gt;value</title>
<path fill="none" stroke="grey" d="M535.573,-672.697C543.202,-664.22 552.523,-653.864 560.876,-644.583"/>
<polygon fill="grey" stroke="grey" points="563.518,-646.879 567.606,-637.104 558.315,-642.196 563.518,-646.879"/>
</g>
<!-- string lexeme -->
<g id="node54" class="node"><title>string lexeme</title>
<polygon fill="white" stroke="black" points="305.25,-493 214.75,-493 214.75,-457 305.25,-457 305.25,-493"/>
<text text-anchor="middle" x="260" y="-471.3" font-family="Times,serif" font-size="14.00">string lexeme</text>
</g>
<!-- string&#45;&gt;string lexeme -->
<g id="edge65" class="edge"><title>string&#45;&gt;string lexeme</title>
<path fill="none" stroke="grey" d="M336.293,-528.876C323.331,-519.893 307.272,-508.763 293.235,-499.034"/>
<polygon fill="grey" stroke="grey" points="295.015,-496.009 284.802,-493.19 291.028,-501.763 295.015,-496.009"/>
</g>
<!-- value&#45;&gt;string -->
<g id="edge19" class="edge"><title>value&#45;&gt;string</title>
<path fill="none" stroke="grey" d="M555.908,-608.184C548.814,-605.728 541.15,-603.176 534,-601 476.713,-583.564 457.981,-586.208 397.888,-564.989"/>
<polygon fill="grey" stroke="grey" points="398.89,-561.629 388.296,-561.526 396.513,-568.213 398.89,-561.629"/>
</g>
<!-- value&#45;&gt;object -->
<g id="edge20" class="edge"><title>value&#45;&gt;object</title>
<path fill="none" stroke="grey" d="M586.161,-637.1C590.824,-663.854 599,-717.284 599,-763 599,-838 599,-838 599,-838 599,-889.938 552.668,-933.743 518.567,-958.95"/>
<polygon fill="grey" stroke="grey" points="516.284,-956.28 510.197,-964.951 520.363,-961.969 516.284,-956.28"/>
</g>
<!-- number -->
<g id="node20" class="node"><title>number</title>
<polygon fill="white" stroke="black" points="537.25,-565 478.75,-565 478.75,-529 537.25,-529 537.25,-565"/>
<text text-anchor="middle" x="508" y="-543.3" font-family="Times,serif" font-size="14.00">number</text>
</g>
<!-- value&#45;&gt;number -->
<g id="edge21" class="edge"><title>value&#45;&gt;number</title>
<path fill="none" stroke="grey" d="M564.461,-600.697C555.197,-592.05 543.838,-581.449 533.743,-572.027"/>
<polygon fill="grey" stroke="grey" points="536.025,-569.369 526.326,-565.104 531.249,-574.486 536.025,-569.369"/>
</g>
<!-- value&#45;&gt;array -->
<g id="edge22" class="edge"><title>value&#45;&gt;array</title>
<path fill="none" stroke="grey" d="M610.266,-608.343C646.258,-595.564 707.675,-573.647 730,-565 731.392,-564.461 732.808,-563.906 734.237,-563.34"/>
<polygon fill="grey" stroke="grey" points="735.757,-566.502 743.725,-559.519 733.141,-560.009 735.757,-566.502"/>
</g>
<!-- &#39;true&#39; -->
<g id="node21" class="node"><title>&#39;true&#39;</title>
<polygon fill="white" stroke="black" points="610,-565 556,-565 556,-529 610,-529 610,-565"/>
<text text-anchor="middle" x="583" y="-543.3" font-family="Times,serif" font-size="14.00">&#39;true&#39;</text>
</g>
<!-- value&#45;&gt;&#39;true&#39; -->
<g id="edge23" class="edge"><title>value&#45;&gt;&#39;true&#39;</title>
<path fill="none" stroke="grey" d="M583,-600.697C583,-592.983 583,-583.712 583,-575.112"/>
<polygon fill="grey" stroke="grey" points="586.5,-575.104 583,-565.104 579.5,-575.104 586.5,-575.104"/>
</g>
<!-- &#39;false&#39; -->
<g id="node22" class="node"><title>&#39;false&#39;</title>
<polygon fill="white" stroke="black" points="682,-565 628,-565 628,-529 682,-529 682,-565"/>
<text text-anchor="middle" x="655" y="-543.3" font-family="Times,serif" font-size="14.00">&#39;false&#39;</text>
</g>
<!-- value&#45;&gt;&#39;false&#39; -->
<g id="edge24" class="edge"><title>value&#45;&gt;&#39;false&#39;</title>
<path fill="none" stroke="grey" d="M600.798,-600.697C609.604,-592.135 620.382,-581.656 630.001,-572.304"/>
<polygon fill="grey" stroke="grey" points="632.677,-574.585 637.407,-565.104 627.797,-569.566 632.677,-574.585"/>
</g>
<!-- &#39;null&#39; -->
<g id="node23" class="node"><title>&#39;null&#39;</title>
<polygon fill="white" stroke="black" points="460,-565 406,-565 406,-529 460,-529 460,-565"/>
<text text-anchor="middle" x="433" y="-543.3" font-family="Times,serif" font-size="14.00">&#39;null&#39;</text>
</g>
<!-- value&#45;&gt;&#39;null&#39; -->
<g id="edge25" class="edge"><title>value&#45;&gt;&#39;null&#39;</title>
<path fill="none" stroke="grey" d="M555.799,-605.409C534.585,-595.578 504.158,-581.45 469.506,-565.226"/>
<polygon fill="grey" stroke="grey" points="470.659,-561.901 460.119,-560.827 467.689,-568.239 470.659,-561.901"/>
</g>
<!-- int -->
<g id="node34" class="node"><title>int</title>
<polygon fill="white" stroke="black" points="479,-421 425,-421 425,-385 479,-385 479,-421"/>
<text text-anchor="middle" x="452" y="-399.3" font-family="Times,serif" font-size="14.00">int</text>
</g>
<!-- number&#45;&gt;int -->
<g id="edge37" class="edge"><title>number&#45;&gt;int</title>
<path fill="none" stroke="grey" d="M483.211,-528.801C472.113,-519.596 460.159,-507.224 454,-493 445.581,-473.556 445.606,-449.414 447.445,-431.181"/>
<polygon fill="grey" stroke="grey" points="450.924,-431.565 448.687,-421.209 443.978,-430.7 450.924,-431.565"/>
</g>
<!-- int frac -->
<g id="node35" class="node"><title>int frac</title>
<polygon fill="white" stroke="black" points="615.5,-493 560.5,-493 560.5,-457 615.5,-457 615.5,-493"/>
<text text-anchor="middle" x="588" y="-471.3" font-family="Times,serif" font-size="14.00">int frac</text>
</g>
<!-- number&#45;&gt;int frac -->
<g id="edge38" class="edge"><title>number&#45;&gt;int frac</title>
<path fill="none" stroke="grey" d="M527.775,-528.697C537.754,-519.965 550.011,-509.24 560.857,-499.75"/>
<polygon fill="grey" stroke="grey" points="563.231,-502.323 568.452,-493.104 558.622,-497.055 563.231,-502.323"/>
</g>
<!-- int exp -->
<g id="node37" class="node"><title>int exp</title>
<polygon fill="white" stroke="black" points="407,-493 353,-493 353,-457 407,-457 407,-493"/>
<text text-anchor="middle" x="380" y="-471.3" font-family="Times,serif" font-size="14.00">int exp</text>
</g>
<!-- number&#45;&gt;int exp -->
<g id="edge41" class="edge"><title>number&#45;&gt;int exp</title>
<path fill="none" stroke="grey" d="M478.634,-529.941C460.029,-519.766 435.835,-506.535 416.065,-495.723"/>
<polygon fill="grey" stroke="grey" points="417.498,-492.518 407.045,-490.79 414.14,-498.659 417.498,-492.518"/>
</g>
<!-- int frac exp -->
<g id="node39" class="node"><title>int frac exp</title>
<polygon fill="white" stroke="black" points="542.25,-493 463.75,-493 463.75,-457 542.25,-457 542.25,-493"/>
<text text-anchor="middle" x="503" y="-471.3" font-family="Times,serif" font-size="14.00">int frac exp</text>
</g>
<!-- number&#45;&gt;int frac exp -->
<g id="edge44" class="edge"><title>number&#45;&gt;int frac exp</title>
<path fill="none" stroke="grey" d="M506.764,-528.697C506.213,-520.983 505.551,-511.712 504.937,-503.112"/>
<polygon fill="grey" stroke="grey" points="508.425,-502.83 504.222,-493.104 501.443,-503.328 508.425,-502.83"/>
</g>
<!-- (&#39;[&#39; -->
<g id="node25" class="node"><title>(&#39;[&#39;</title>
<polygon fill="white" stroke="black" points="623,-421 569,-421 569,-385 623,-385 623,-421"/>
<text text-anchor="middle" x="596" y="-399.3" font-family="Times,serif" font-size="14.00">(&#39;[&#39;</text>
</g>
<!-- (&#39;[&#39; &#39;]&#39;)&#45;&gt;(&#39;[&#39; -->
<g id="edge27" class="edge"><title>(&#39;[&#39; &#39;]&#39;)&#45;&gt;(&#39;[&#39;</title>
<path fill="none" stroke="grey" d="M644.933,-456.697C637.061,-448.22 627.445,-437.864 618.827,-428.583"/>
<polygon fill="grey" stroke="grey" points="621.252,-426.051 611.883,-421.104 616.122,-430.814 621.252,-426.051"/>
</g>
<!-- &#39;]&#39;) -->
<g id="node26" class="node"><title>&#39;]&#39;)</title>
<polygon fill="white" stroke="black" points="695,-421 641,-421 641,-385 695,-385 695,-421"/>
<text text-anchor="middle" x="668" y="-399.3" font-family="Times,serif" font-size="14.00">&#39;]&#39;)</text>
</g>
<!-- (&#39;[&#39; &#39;]&#39;)&#45;&gt;&#39;]&#39;) -->
<g id="edge28" class="edge"><title>(&#39;[&#39; &#39;]&#39;)&#45;&gt;&#39;]&#39;)</title>
<path fill="none" stroke="grey" d="M662.73,-456.697C663.502,-448.983 664.429,-439.712 665.289,-431.112"/>
<polygon fill="grey" stroke="grey" points="668.777,-431.403 666.29,-421.104 661.812,-430.706 668.777,-431.403"/>
</g>
<!-- (&#39;[&#39;) -->
<g id="node28" class="node"><title>(&#39;[&#39;)</title>
<polygon fill="white" stroke="black" points="947,-421 893,-421 893,-385 947,-385 947,-421"/>
<text text-anchor="middle" x="920" y="-399.3" font-family="Times,serif" font-size="14.00">(&#39;[&#39;)</text>
</g>
<!-- (&#39;[&#39;) elements (&#39;]&#39;)&#45;&gt;(&#39;[&#39;) -->
<g id="edge30" class="edge"><title>(&#39;[&#39;) elements (&#39;]&#39;)&#45;&gt;(&#39;[&#39;)</title>
<path fill="none" stroke="grey" d="M837.664,-456.876C851.784,-447.808 869.311,-436.552 884.561,-426.759"/>
<polygon fill="grey" stroke="grey" points="886.71,-429.538 893.233,-421.19 882.927,-423.648 886.71,-429.538"/>
</g>
<!-- elements -->
<g id="node30" class="node"><title>elements</title>
<polygon fill="white" stroke="black" points="778.25,-421 713.75,-421 713.75,-385 778.25,-385 778.25,-421"/>
<text text-anchor="middle" x="746" y="-399.3" font-family="Times,serif" font-size="14.00">elements</text>
</g>
<!-- (&#39;[&#39;) elements (&#39;]&#39;)&#45;&gt;elements -->
<g id="edge32" class="edge"><title>(&#39;[&#39;) elements (&#39;]&#39;)&#45;&gt;elements</title>
<path fill="none" stroke="grey" d="M794.933,-456.697C787.061,-448.22 777.445,-437.864 768.827,-428.583"/>
<polygon fill="grey" stroke="grey" points="771.252,-426.051 761.883,-421.104 766.122,-430.814 771.252,-426.051"/>
</g>
<!-- (&#39;]&#39;) -->
<g id="node32" class="node"><title>(&#39;]&#39;)</title>
<polygon fill="white" stroke="black" points="851,-421 797,-421 797,-385 851,-385 851,-421"/>
<text text-anchor="middle" x="824" y="-399.3" font-family="Times,serif" font-size="14.00">(&#39;]&#39;)</text>
</g>
<!-- (&#39;[&#39;) elements (&#39;]&#39;)&#45;&gt;(&#39;]&#39;) -->
<g id="edge34" class="edge"><title>(&#39;[&#39;) elements (&#39;]&#39;)&#45;&gt;(&#39;]&#39;)</title>
<path fill="none" stroke="grey" d="M814.213,-456.697C815.646,-448.983 817.368,-439.712 818.965,-431.112"/>
<polygon fill="grey" stroke="grey" points="822.439,-431.575 820.823,-421.104 815.556,-430.297 822.439,-431.575"/>
</g>
<!-- (&#39;[&#39;)_0 -->
<g id="node29" class="node"><title>(&#39;[&#39;)_0</title>
<path fill="white" stroke="black" d="M905.5,-312C905.5,-312 984.5,-312 984.5,-312 990.5,-312 996.5,-318 996.5,-324 996.5,-324 996.5,-336 996.5,-336 996.5,-342 990.5,-348 984.5,-348 984.5,-348 905.5,-348 905.5,-348 899.5,-348 893.5,-342 893.5,-336 893.5,-336 893.5,-324 893.5,-324 893.5,-318 899.5,-312 905.5,-312"/>
<text text-anchor="middle" x="945" y="-326.3" font-family="Times,serif" font-size="14.00">action =&gt; ꞉꞉first</text>
</g>
<!-- (&#39;[&#39;)&#45;&gt;(&#39;[&#39;)_0 -->
<g id="edge31" class="edge"><title>(&#39;[&#39;)&#45;&gt;(&#39;[&#39;)_0</title>
<path fill="none" stroke="grey" d="M926.052,-384.813C928.938,-376.615 932.457,-366.623 935.674,-357.485"/>
<polygon fill="grey" stroke="grey" points="938.984,-358.624 939.004,-348.029 932.381,-356.299 938.984,-358.624"/>
</g>
<!-- elements_1 -->
<g id="node31" class="node"><title>elements_1</title>
<path fill="white" stroke="black" d="M663.5,-312C663.5,-312 742.5,-312 742.5,-312 748.5,-312 754.5,-318 754.5,-324 754.5,-324 754.5,-336 754.5,-336 754.5,-342 748.5,-348 742.5,-348 742.5,-348 663.5,-348 663.5,-348 657.5,-348 651.5,-342 651.5,-336 651.5,-336 651.5,-324 651.5,-324 651.5,-318 657.5,-312 663.5,-312"/>
<text text-anchor="middle" x="703" y="-326.3" font-family="Times,serif" font-size="14.00">action =&gt; ꞉꞉first</text>
</g>
<!-- elements&#45;&gt;elements_1 -->
<g id="edge33" class="edge"><title>elements&#45;&gt;elements_1</title>
<path fill="none" stroke="grey" d="M735.591,-384.813C730.468,-376.353 724.187,-365.984 718.512,-356.612"/>
<polygon fill="grey" stroke="grey" points="721.487,-354.769 713.313,-348.029 715.5,-358.396 721.487,-354.769"/>
</g>
<!-- elements&#45;&gt;value -->
<g id="edge36" class="edge"><title>elements&#45;&gt;value</title>
<path fill="none" stroke="grey" d="M744.433,-421.175C740.675,-453.155 728.475,-522.434 691,-565 680.846,-576.534 646.681,-592.32 619.464,-603.658"/>
<polygon fill="grey" stroke="grey" points="618.1,-600.435 610.178,-607.469 620.758,-606.911 618.1,-600.435"/>
</g>
<!-- (&#39;]&#39;)_2 -->
<g id="node33" class="node"><title>(&#39;]&#39;)_2</title>
<path fill="white" stroke="black" d="M784.5,-312C784.5,-312 863.5,-312 863.5,-312 869.5,-312 875.5,-318 875.5,-324 875.5,-324 875.5,-336 875.5,-336 875.5,-342 869.5,-348 863.5,-348 863.5,-348 784.5,-348 784.5,-348 778.5,-348 772.5,-342 772.5,-336 772.5,-336 772.5,-324 772.5,-324 772.5,-318 778.5,-312 784.5,-312"/>
<text text-anchor="middle" x="824" y="-326.3" font-family="Times,serif" font-size="14.00">action =&gt; ꞉꞉first</text>
</g>
<!-- (&#39;]&#39;)&#45;&gt;(&#39;]&#39;)_2 -->
<g id="edge35" class="edge"><title>(&#39;]&#39;)&#45;&gt;(&#39;]&#39;)_2</title>
<path fill="none" stroke="grey" d="M824,-384.813C824,-376.789 824,-367.047 824,-358.069"/>
<polygon fill="grey" stroke="grey" points="827.5,-358.029 824,-348.029 820.5,-358.029 827.5,-358.029"/>
</g>
<!-- digits -->
<g id="node40" class="node"><title>digits</title>
<polygon fill="white" stroke="black" points="472,-275 418,-275 418,-239 472,-239 472,-275"/>
<text text-anchor="middle" x="445" y="-253.3" font-family="Times,serif" font-size="14.00">digits</text>
</g>
<!-- int&#45;&gt;digits -->
<g id="edge48" class="edge"><title>int&#45;&gt;digits</title>
<path fill="none" stroke="grey" d="M451.17,-384.916C449.975,-360.341 447.759,-314.753 446.333,-285.427"/>
<polygon fill="grey" stroke="grey" points="449.811,-284.88 445.829,-275.062 442.819,-285.22 449.811,-284.88"/>
</g>
<!-- &#39;&#45;&#39; digits -->
<g id="node41" class="node"><title>&#39;&#45;&#39; digits</title>
<polygon fill="white" stroke="black" points="526.25,-348 467.75,-348 467.75,-312 526.25,-312 526.25,-348"/>
<text text-anchor="middle" x="497" y="-326.3" font-family="Times,serif" font-size="14.00">&#39;&#45;&#39; digits</text>
</g>
<!-- int&#45;&gt;&#39;&#45;&#39; digits -->
<g id="edge49" class="edge"><title>int&#45;&gt;&#39;&#45;&#39; digits</title>
<path fill="none" stroke="grey" d="M462.893,-384.813C468.255,-376.353 474.827,-365.984 480.767,-356.612"/>
<polygon fill="grey" stroke="grey" points="483.81,-358.349 486.207,-348.029 477.897,-354.602 483.81,-358.349"/>
</g>
<!-- int frac&#45;&gt;int -->
<g id="edge39" class="edge"><title>int frac&#45;&gt;int</title>
<path fill="none" stroke="grey" d="M560.478,-459.834C539.604,-449.09 510.728,-434.227 488.016,-422.538"/>
<polygon fill="grey" stroke="grey" points="489.51,-419.37 479.017,-417.906 486.306,-425.594 489.51,-419.37"/>
</g>
<!-- frac -->
<g id="node36" class="node"><title>frac</title>
<polygon fill="white" stroke="black" points="551,-421 497,-421 497,-385 551,-385 551,-421"/>
<text text-anchor="middle" x="524" y="-399.3" font-family="Times,serif" font-size="14.00">frac</text>
</g>
<!-- int frac&#45;&gt;frac -->
<g id="edge40" class="edge"><title>int frac&#45;&gt;frac</title>
<path fill="none" stroke="grey" d="M572.18,-456.697C564.43,-448.22 554.961,-437.864 546.476,-428.583"/>
<polygon fill="grey" stroke="grey" points="548.969,-426.123 539.638,-421.104 543.803,-430.846 548.969,-426.123"/>
</g>
<!-- &#39;.&#39; digits -->
<g id="node44" class="node"><title>&#39;.&#39; digits</title>
<polygon fill="white" stroke="black" points="603.25,-348 544.75,-348 544.75,-312 603.25,-312 603.25,-348"/>
<text text-anchor="middle" x="574" y="-326.3" font-family="Times,serif" font-size="14.00">&#39;.&#39; digits</text>
</g>
<!-- frac&#45;&gt;&#39;.&#39; digits -->
<g id="edge53" class="edge"><title>frac&#45;&gt;&#39;.&#39; digits</title>
<path fill="none" stroke="grey" d="M536.104,-384.813C542.122,-376.266 549.514,-365.769 556.167,-356.323"/>
<polygon fill="grey" stroke="grey" points="559.112,-358.22 562.008,-348.029 553.388,-354.19 559.112,-358.22"/>
</g>
<!-- int exp&#45;&gt;int -->
<g id="edge42" class="edge"><title>int exp&#45;&gt;int</title>
<path fill="none" stroke="grey" d="M397.798,-456.697C406.604,-448.135 417.382,-437.656 427.001,-428.304"/>
<polygon fill="grey" stroke="grey" points="429.677,-430.585 434.407,-421.104 424.797,-425.566 429.677,-430.585"/>
</g>
<!-- exp -->
<g id="node38" class="node"><title>exp</title>
<polygon fill="white" stroke="black" points="407,-421 353,-421 353,-385 407,-385 407,-421"/>
<text text-anchor="middle" x="380" y="-399.3" font-family="Times,serif" font-size="14.00">exp</text>
</g>
<!-- int exp&#45;&gt;exp -->
<g id="edge43" class="edge"><title>int exp&#45;&gt;exp</title>
<path fill="none" stroke="grey" d="M380,-456.697C380,-448.983 380,-439.712 380,-431.112"/>
<polygon fill="grey" stroke="grey" points="383.5,-431.104 380,-421.104 376.5,-431.104 383.5,-431.104"/>
</g>
<!-- e digits -->
<g id="node46" class="node"><title>e digits</title>
<polygon fill="white" stroke="black" points="407.5,-348 352.5,-348 352.5,-312 407.5,-312 407.5,-348"/>
<text text-anchor="middle" x="380" y="-326.3" font-family="Times,serif" font-size="14.00">e digits</text>
</g>
<!-- exp&#45;&gt;e digits -->
<g id="edge56" class="edge"><title>exp&#45;&gt;e digits</title>
<path fill="none" stroke="grey" d="M380,-384.813C380,-376.789 380,-367.047 380,-358.069"/>
<polygon fill="grey" stroke="grey" points="383.5,-358.029 380,-348.029 376.5,-358.029 383.5,-358.029"/>
</g>
<!-- int frac exp&#45;&gt;int -->
<g id="edge45" class="edge"><title>int frac exp&#45;&gt;int</title>
<path fill="none" stroke="grey" d="M490.393,-456.697C484.403,-448.474 477.124,-438.483 470.521,-429.421"/>
<polygon fill="grey" stroke="grey" points="473.179,-427.126 464.462,-421.104 467.522,-431.248 473.179,-427.126"/>
</g>
<!-- int frac exp&#45;&gt;frac -->
<g id="edge46" class="edge"><title>int frac exp&#45;&gt;frac</title>
<path fill="none" stroke="grey" d="M508.191,-456.697C510.531,-448.898 513.347,-439.509 515.951,-430.829"/>
<polygon fill="grey" stroke="grey" points="519.348,-431.688 518.869,-421.104 512.643,-429.677 519.348,-431.688"/>
</g>
<!-- int frac exp&#45;&gt;exp -->
<g id="edge47" class="edge"><title>int frac exp&#45;&gt;exp</title>
<path fill="none" stroke="grey" d="M472.911,-456.876C455.832,-447.156 434.335,-434.922 416.321,-424.671"/>
<polygon fill="grey" stroke="grey" points="417.683,-421.419 407.261,-419.514 414.221,-427.502 417.683,-421.419"/>
</g>
<!-- [\\d] -->
<g id="node43" class="node"><title>[\\d]</title>
<polygon fill="white" stroke="black" points="652,-203 598,-203 598,-167 652,-167 652,-203"/>
<text text-anchor="middle" x="625" y="-181.3" font-family="Times,serif" font-size="14.00">[\d]</text>
</g>
<!-- digits&#45;&gt;[\\d] -->
<g id="edge52" class="edge"><title>digits&#45;&gt;[\\d]</title>
<path fill="none" stroke="grey" d="M472.368,-242.663C475.262,-241.377 478.177,-240.132 481,-239 525.208,-221.268 540.277,-221.711 588.273,-203.052"/>
<polygon fill="grey" stroke="grey" points="589.629,-206.279 597.632,-199.337 587.046,-199.773 589.629,-206.279"/>
</g>
<!-- &#39;&#45;&#39; -->
<g id="node42" class="node"><title>&#39;&#45;&#39;</title>
<polygon fill="white" stroke="black" points="544,-275 490,-275 490,-239 544,-239 544,-275"/>
<text text-anchor="middle" x="517" y="-253.3" font-family="Times,serif" font-size="14.00">&#39;&#45;&#39;</text>
</g>
<!-- &#39;&#45;&#39; digits&#45;&gt;&#39;&#45;&#39; -->
<g id="edge50" class="edge"><title>&#39;&#45;&#39; digits&#45;&gt;&#39;&#45;&#39;</title>
<path fill="none" stroke="grey" d="M501.841,-311.813C504.126,-303.702 506.905,-293.836 509.457,-284.777"/>
<polygon fill="grey" stroke="grey" points="512.861,-285.603 512.203,-275.029 506.123,-283.705 512.861,-285.603"/>
</g>
<!-- &#39;&#45;&#39; digits&#45;&gt;digits -->
<g id="edge51" class="edge"><title>&#39;&#45;&#39; digits&#45;&gt;digits</title>
<path fill="none" stroke="grey" d="M484.412,-311.813C478.153,-303.266 470.465,-292.769 463.546,-283.323"/>
<polygon fill="grey" stroke="grey" points="466.204,-281.028 457.472,-275.029 460.557,-285.165 466.204,-281.028"/>
</g>
<!-- &#39;.&#39; -->
<g id="node45" class="node"><title>&#39;.&#39;</title>
<polygon fill="white" stroke="black" points="616,-275 562,-275 562,-239 616,-239 616,-275"/>
<text text-anchor="middle" x="589" y="-253.3" font-family="Times,serif" font-size="14.00">&#39;.&#39;</text>
</g>
<!-- &#39;.&#39; digits&#45;&gt;&#39;.&#39; -->
<g id="edge54" class="edge"><title>&#39;.&#39; digits&#45;&gt;&#39;.&#39;</title>
<path fill="none" stroke="grey" d="M577.631,-311.813C579.326,-303.789 581.384,-294.047 583.281,-285.069"/>
<polygon fill="grey" stroke="grey" points="586.76,-285.536 585.402,-275.029 579.911,-284.089 586.76,-285.536"/>
</g>
<!-- &#39;.&#39; digits&#45;&gt;digits -->
<g id="edge55" class="edge"><title>&#39;.&#39; digits&#45;&gt;digits</title>
<path fill="none" stroke="grey" d="M544.728,-312.889C525.904,-302.529 501.307,-288.991 481.251,-277.952"/>
<polygon fill="grey" stroke="grey" points="482.84,-274.832 472.392,-273.076 479.465,-280.964 482.84,-274.832"/>
</g>
<!-- e -->
<g id="node47" class="node"><title>e</title>
<polygon fill="white" stroke="black" points="400,-275 346,-275 346,-239 400,-239 400,-275"/>
<text text-anchor="middle" x="373" y="-253.3" font-family="Times,serif" font-size="14.00">e</text>
</g>
<!-- e digits&#45;&gt;e -->
<g id="edge57" class="edge"><title>e digits&#45;&gt;e</title>
<path fill="none" stroke="grey" d="M378.305,-311.813C377.514,-303.789 376.554,-294.047 375.669,-285.069"/>
<polygon fill="grey" stroke="grey" points="379.143,-284.637 374.679,-275.029 372.177,-285.324 379.143,-284.637"/>
</g>
<!-- e digits&#45;&gt;digits -->
<g id="edge58" class="edge"><title>e digits&#45;&gt;digits</title>
<path fill="none" stroke="grey" d="M395.735,-311.813C403.799,-303.005 413.759,-292.125 422.608,-282.458"/>
<polygon fill="grey" stroke="grey" points="425.239,-284.768 429.41,-275.029 420.076,-280.041 425.239,-284.768"/>
</g>
<!-- &#39;e&#39; -->
<g id="node48" class="node"><title>&#39;e&#39;</title>
<polygon fill="white" stroke="black" points="364,-203 310,-203 310,-167 364,-167 364,-203"/>
<text text-anchor="middle" x="337" y="-181.3" font-family="Times,serif" font-size="14.00">&#39;e&#39;</text>
</g>
<!-- e&#45;&gt;&#39;e&#39; -->
<g id="edge59" class="edge"><title>e&#45;&gt;&#39;e&#39;</title>
<path fill="none" stroke="grey" d="M364.101,-238.697C360.003,-230.728 355.051,-221.1 350.507,-212.264"/>
<polygon fill="grey" stroke="grey" points="353.483,-210.396 345.797,-203.104 347.258,-213.598 353.483,-210.396"/>
</g>
<!-- &#39;e+&#39; -->
<g id="node49" class="node"><title>&#39;e+&#39;</title>
<polygon fill="white" stroke="black" points="436,-203 382,-203 382,-167 436,-167 436,-203"/>
<text text-anchor="middle" x="409" y="-181.3" font-family="Times,serif" font-size="14.00">&#39;e+&#39;</text>
</g>
<!-- e&#45;&gt;&#39;e+&#39; -->
<g id="edge60" class="edge"><title>e&#45;&gt;&#39;e+&#39;</title>
<path fill="none" stroke="grey" d="M381.899,-238.697C385.997,-230.728 390.949,-221.1 395.493,-212.264"/>
<polygon fill="grey" stroke="grey" points="398.742,-213.598 400.203,-203.104 392.517,-210.396 398.742,-213.598"/>
</g>
<!-- &#39;e&#45;&#39; -->
<g id="node50" class="node"><title>&#39;e&#45;&#39;</title>
<polygon fill="white" stroke="black" points="508,-203 454,-203 454,-167 508,-167 508,-203"/>
<text text-anchor="middle" x="481" y="-181.3" font-family="Times,serif" font-size="14.00">&#39;e&#45;&#39;</text>
</g>
<!-- e&#45;&gt;&#39;e&#45;&#39; -->
<g id="edge61" class="edge"><title>e&#45;&gt;&#39;e&#45;&#39;</title>
<path fill="none" stroke="grey" d="M399.42,-238.876C413.41,-229.808 430.776,-218.552 445.886,-208.759"/>
<polygon fill="grey" stroke="grey" points="447.991,-211.566 454.479,-203.19 444.183,-205.692 447.991,-211.566"/>
</g>
<!-- &#39;E&#39; -->
<g id="node51" class="node"><title>&#39;E&#39;</title>
<polygon fill="white" stroke="black" points="580,-203 526,-203 526,-167 580,-167 580,-203"/>
<text text-anchor="middle" x="553" y="-181.3" font-family="Times,serif" font-size="14.00">&#39;E&#39;</text>
</g>
<!-- e&#45;&gt;&#39;E&#39; -->
<g id="edge62" class="edge"><title>e&#45;&gt;&#39;E&#39;</title>
<path fill="none" stroke="grey" d="M400.368,-242.663C403.262,-241.377 406.177,-240.132 409,-239 453.208,-221.268 468.277,-221.711 516.273,-203.052"/>
<polygon fill="grey" stroke="grey" points="517.629,-206.279 525.632,-199.337 515.046,-199.773 517.629,-206.279"/>
</g>
<!-- &#39;E+&#39; -->
<g id="node52" class="node"><title>&#39;E+&#39;</title>
<polygon fill="white" stroke="black" points="220,-203 166,-203 166,-167 220,-167 220,-203"/>
<text text-anchor="middle" x="193" y="-181.3" font-family="Times,serif" font-size="14.00">&#39;E+&#39;</text>
</g>
<!-- e&#45;&gt;&#39;E+&#39; -->
<g id="edge63" class="edge"><title>e&#45;&gt;&#39;E+&#39;</title>
<path fill="none" stroke="grey" d="M345.918,-246.837C318.645,-237.435 275.228,-221.994 229.492,-203.037"/>
<polygon fill="grey" stroke="grey" points="230.587,-199.701 220.011,-199.069 227.885,-206.158 230.587,-199.701"/>
</g>
<!-- &#39;E&#45;&#39; -->
<g id="node53" class="node"><title>&#39;E&#45;&#39;</title>
<polygon fill="white" stroke="black" points="292,-203 238,-203 238,-167 292,-167 292,-203"/>
<text text-anchor="middle" x="265" y="-181.3" font-family="Times,serif" font-size="14.00">&#39;E&#45;&#39;</text>
</g>
<!-- e&#45;&gt;&#39;E&#45;&#39; -->
<g id="edge64" class="edge"><title>e&#45;&gt;&#39;E&#45;&#39;</title>
<path fill="none" stroke="grey" d="M346.58,-238.876C332.59,-229.808 315.224,-218.552 300.114,-208.759"/>
<polygon fill="grey" stroke="grey" points="301.817,-205.692 291.521,-203.19 298.009,-211.566 301.817,-205.692"/>
</g>
<!-- quote string contents quote -->
<g id="node55" class="node"><title>quote string contents quote</title>
<polygon fill="white" stroke="black" points="324,-421 160,-421 160,-385 324,-385 324,-421"/>
<text text-anchor="middle" x="242" y="-399.3" font-family="Times,serif" font-size="14.00">quote string contents quote</text>
</g>
<!-- string lexeme&#45;&gt;quote string contents quote -->
<g id="edge66" class="edge"><title>string lexeme&#45;&gt;quote string contents quote</title>
<path fill="none" stroke="grey" d="M255.551,-456.697C253.545,-448.898 251.131,-439.509 248.899,-430.829"/>
<polygon fill="grey" stroke="grey" points="252.278,-429.918 246.398,-421.104 245.499,-431.661 252.278,-429.918"/>
</g>
<!-- quote -->
<g id="node56" class="node"><title>quote</title>
<polygon fill="white" stroke="black" points="269,-348 215,-348 215,-312 269,-312 269,-348"/>
<text text-anchor="middle" x="242" y="-326.3" font-family="Times,serif" font-size="14.00">quote</text>
</g>
<!-- quote string contents quote&#45;&gt;quote -->
<g id="edge67" class="edge"><title>quote string contents quote&#45;&gt;quote</title>
<path fill="none" stroke="grey" d="M242,-384.813C242,-376.789 242,-367.047 242,-358.069"/>
<polygon fill="grey" stroke="grey" points="245.5,-358.029 242,-348.029 238.5,-358.029 245.5,-358.029"/>
</g>
<!-- string contents -->
<g id="node57" class="node"><title>string contents</title>
<polygon fill="white" stroke="black" points="159,-348 63,-348 63,-312 159,-312 159,-348"/>
<text text-anchor="middle" x="111" y="-326.3" font-family="Times,serif" font-size="14.00">string contents</text>
</g>
<!-- quote string contents quote&#45;&gt;string contents -->
<g id="edge68" class="edge"><title>quote string contents quote&#45;&gt;string contents</title>
<path fill="none" stroke="grey" d="M210.622,-384.994C192.929,-375.404 170.627,-363.317 151.612,-353.011"/>
<polygon fill="grey" stroke="grey" points="153.035,-349.802 142.576,-348.114 149.7,-355.956 153.035,-349.802"/>
</g>
<!-- quote string contents quote&#45;&gt;quote -->
<g id="edge69" class="edge"><title>quote string contents quote&#45;&gt;quote</title>
<path fill="none" stroke="grey" d="M242,-384.813C242,-376.789 242,-367.047 242,-358.069"/>
<polygon fill="grey" stroke="grey" points="245.5,-358.029 242,-348.029 238.5,-358.029 245.5,-358.029"/>
</g>
<!-- [ꞌꞌ] -->
<g id="node58" class="node"><title>[ꞌꞌ]</title>
<polygon fill="white" stroke="black" points="269,-275 215,-275 215,-239 269,-239 269,-275"/>
<text text-anchor="middle" x="242" y="-253.3" font-family="Times,serif" font-size="14.00">[ꞌꞌ]</text>
</g>
<!-- quote&#45;&gt;[ꞌꞌ] -->
<g id="edge70" class="edge"><title>quote&#45;&gt;[ꞌꞌ]</title>
<path fill="none" stroke="grey" d="M242,-311.813C242,-303.789 242,-294.047 242,-285.069"/>
<polygon fill="grey" stroke="grey" points="245.5,-285.029 242,-275.029 238.5,-285.029 245.5,-285.029"/>
</g>
<!-- string char -->
<g id="node59" class="node"><title>string char</title>
<polygon fill="white" stroke="black" points="147,-275 73,-275 73,-239 147,-239 147,-275"/>
<text text-anchor="middle" x="110" y="-253.3" font-family="Times,serif" font-size="14.00">string char</text>
</g>
<!-- string contents&#45;&gt;string char -->
<g id="edge71" class="edge"><title>string contents&#45;&gt;string char</title>
<path fill="none" stroke="grey" d="M110.758,-311.813C110.645,-303.789 110.508,-294.047 110.381,-285.069"/>
<polygon fill="grey" stroke="grey" points="113.88,-284.979 110.24,-275.029 106.881,-285.077 113.88,-284.979"/>
</g>
<!-- [^ꞌꞌ\\\\] -->
<g id="node60" class="node"><title>[^ꞌꞌ\\\\]</title>
<polygon fill="white" stroke="black" points="54,-203 0,-203 0,-167 54,-167 54,-203"/>
<text text-anchor="middle" x="27" y="-181.3" font-family="Times,serif" font-size="14.00">[^ꞌꞌ\\]</text>
</g>
<!-- string char&#45;&gt;[^ꞌꞌ\\\\] -->
<g id="edge72" class="edge"><title>string char&#45;&gt;[^ꞌꞌ\\\\]</title>
<path fill="none" stroke="grey" d="M89.4831,-238.697C79.1305,-229.965 66.4137,-219.24 55.161,-209.75"/>
<polygon fill="grey" stroke="grey" points="57.1817,-206.876 47.2809,-203.104 52.6687,-212.227 57.1817,-206.876"/>
</g>
<!-- &#39;\\&#39; any char -->
<g id="node61" class="node"><title>&#39;\\&#39; any char</title>
<polygon fill="white" stroke="black" points="147.25,-203 72.75,-203 72.75,-167 147.25,-167 147.25,-203"/>
<text text-anchor="middle" x="110" y="-181.3" font-family="Times,serif" font-size="14.00">&#39;\&#39; any char</text>
</g>
<!-- string char&#45;&gt;&#39;\\&#39; any char -->
<g id="edge73" class="edge"><title>string char&#45;&gt;&#39;\\&#39; any char</title>
<path fill="none" stroke="grey" d="M110,-238.697C110,-230.983 110,-221.712 110,-213.112"/>
<polygon fill="grey" stroke="grey" points="113.5,-213.104 110,-203.104 106.5,-213.104 113.5,-213.104"/>
</g>
<!-- &#39;\\&#39; -->
<g id="node62" class="node"><title>&#39;\\&#39;</title>
<polygon fill="white" stroke="black" points="99,-131 45,-131 45,-95 99,-95 99,-131"/>
<text text-anchor="middle" x="72" y="-109.3" font-family="Times,serif" font-size="14.00">&#39;\&#39;</text>
</g>
<!-- &#39;\\&#39; any char&#45;&gt;&#39;\\&#39; -->
<g id="edge74" class="edge"><title>&#39;\\&#39; any char&#45;&gt;&#39;\\&#39;</title>
<path fill="none" stroke="grey" d="M100.607,-166.697C96.2351,-158.644 90.9427,-148.894 86.1047,-139.982"/>
<polygon fill="grey" stroke="grey" points="89.1322,-138.223 81.2852,-131.104 82.9802,-141.563 89.1322,-138.223"/>
</g>
<!-- any char -->
<g id="node63" class="node"><title>any char</title>
<polygon fill="white" stroke="black" points="180.25,-131 117.75,-131 117.75,-95 180.25,-95 180.25,-131"/>
<text text-anchor="middle" x="149" y="-109.3" font-family="Times,serif" font-size="14.00">any char</text>
</g>
<!-- &#39;\\&#39; any char&#45;&gt;any char -->
<g id="edge75" class="edge"><title>&#39;\\&#39; any char&#45;&gt;any char</title>
<path fill="none" stroke="grey" d="M119.64,-166.697C124.127,-158.644 129.559,-148.894 134.524,-139.982"/>
<polygon fill="grey" stroke="grey" points="137.661,-141.544 139.47,-131.104 131.546,-138.137 137.661,-141.544"/>
</g>
<!-- [\\d\\D] -->
<g id="node64" class="node"><title>[\\d\\D]</title>
<polygon fill="white" stroke="black" points="176,-59 122,-59 122,-23 176,-23 176,-59"/>
<text text-anchor="middle" x="149" y="-37.3" font-family="Times,serif" font-size="14.00">[\d\D]</text>
</g>
<!-- any char&#45;&gt;[\\d\\D] -->
<g id="edge76" class="edge"><title>any char&#45;&gt;[\\d\\D]</title>
<path fill="none" stroke="grey" d="M149,-94.6966C149,-86.9827 149,-77.7125 149,-69.1124"/>
<polygon fill="grey" stroke="grey" points="152.5,-69.1043 149,-59.1043 145.5,-69.1044 152.5,-69.1043"/>
</g>
<!-- &#39;,&#39; -->
<g id="node65" class="node"><title>&#39;,&#39;</title>
<polygon fill="white" stroke="black" points="727,-1001 673,-1001 673,-965 727,-965 727,-1001"/>
<text text-anchor="middle" x="700" y="-979.3" font-family="Times,serif" font-size="14.00">&#39;,&#39;</text>
</g>
<!-- comma -->
<g id="node66" class="node"><title>comma</title>
<polygon fill="lightgrey" stroke="black" points="728.5,-1079 671.5,-1079 671.5,-1043 728.5,-1043 728.5,-1079"/>
<text text-anchor="middle" x="700" y="-1057.3" font-family="Times,serif" font-size="14.00">comma</text>
</g>
<!-- comma&#45;&gt;&#39;,&#39; -->
<g id="edge77" class="edge"><title>comma&#45;&gt;&#39;,&#39;</title>
<path fill="none" stroke="grey" d="M700,-1042.75C700,-1033.52 700,-1021.93 700,-1011.49"/>
<polygon fill="grey" stroke="grey" points="703.5,-1011.18 700,-1001.18 696.5,-1011.18 703.5,-1011.18"/>
</g>
</g>
</svg>
