<?xml version="1.0" encoding="UTF-8" standalone="no"?>
<!DOCTYPE svg PUBLIC "-//W3C//DTD SVG 1.1//EN"
 "http://www.w3.org/Graphics/SVG/1.1/DTD/svg11.dtd">
<!-- Generated by graphviz version 2.30.1 (20130611.0131)
 -->
<!-- Title: Perl Pages: 1 -->
<svg width="211pt" height="225pt"
 viewBox="0.00 0.00 211.00 225.00" xmlns="http://www.w3.org/2000/svg" xmlns:xlink="http://www.w3.org/1999/xlink">
<g id="graph0" class="graph" transform="scale(1 1) rotate(0) translate(4 221)">
<title>Perl</title>
<polygon fill="white" stroke="white" points="-4,5 -4,-221 208,-221 208,5 -4,5"/>
<text text-anchor="middle" x="101.5" y="-7.8" font-family="Times,serif" font-size="14.00">json.2.bnf</text>
<!-- json -->
<g id="node1" class="node"><title>json</title>
<path fill="lightgreen" stroke="black" d="M94,-170C94,-170 124,-170 124,-170 130,-170 136,-176 136,-182 136,-182 136,-204 136,-204 136,-210 130,-216 124,-216 124,-216 94,-216 94,-216 88,-216 82,-210 82,-204 82,-204 82,-182 82,-182 82,-176 88,-170 94,-170"/>
<text text-anchor="middle" x="109" y="-200.8" font-family="Times,serif" font-size="14.00">:start</text>
<polyline fill="none" stroke="black" points="82,-193 136,-193 "/>
<text text-anchor="middle" x="109" y="-177.8" font-family="Times,serif" font-size="14.00">json</text>
</g>
<!-- :default -->
<g id="node2" class="node"><title>:default</title>
<polygon fill="lightblue" stroke="black" points="90.5,-133 33.5,-133 33.5,-97 90.5,-97 90.5,-133"/>
<text text-anchor="middle" x="62" y="-111.3" font-family="Times,serif" font-size="14.00">:default</text>
</g>
<!-- json&#45;&gt;:default -->
<g id="edge1" class="edge"><title>json&#45;&gt;:default</title>
<path fill="none" stroke="grey" d="M95.1527,-169.609C89.7913,-160.939 83.6185,-150.958 78.0638,-141.976"/>
<polygon fill="grey" stroke="grey" points="81.0045,-140.076 72.768,-133.412 75.051,-143.758 81.0045,-140.076"/>
</g>
<!-- :discard -->
<g id="node4" class="node"><title>:discard</title>
<polygon fill="lightblue" stroke="black" points="185.25,-133 126.75,-133 126.75,-97 185.25,-97 185.25,-133"/>
<text text-anchor="middle" x="156" y="-111.3" font-family="Times,serif" font-size="14.00">:discard</text>
</g>
<!-- json&#45;&gt;:discard -->
<g id="edge3" class="edge"><title>json&#45;&gt;:discard</title>
<path fill="none" stroke="grey" d="M122.847,-169.609C128.209,-160.939 134.381,-150.958 139.936,-141.976"/>
<polygon fill="grey" stroke="grey" points="142.949,-143.758 145.232,-133.412 136.995,-140.076 142.949,-143.758"/>
</g>
<!-- :default_1 -->
<g id="node3" class="node"><title>:default_1</title>
<path fill="lightblue" stroke="black" d="M11.5,-24C11.5,-24 96.5,-24 96.5,-24 102.5,-24 108.5,-30 108.5,-36 108.5,-36 108.5,-48 108.5,-48 108.5,-54 102.5,-60 96.5,-60 96.5,-60 11.5,-60 11.5,-60 5.5,-60 -0.5,-54 -0.5,-48 -0.5,-48 -0.5,-36 -0.5,-36 -0.5,-30 5.5,-24 11.5,-24"/>
<text text-anchor="middle" x="54" y="-38.3" font-family="Times,serif" font-size="14.00">action =&gt; ::array</text>
</g>
<!-- :default&#45;&gt;:default_1 -->
<g id="edge2" class="edge"><title>:default&#45;&gt;:default_1</title>
<path fill="none" stroke="grey" d="M60.0634,-96.8129C59.1594,-88.7895 58.0617,-79.0475 57.05,-70.0691"/>
<polygon fill="grey" stroke="grey" points="60.5165,-69.574 55.9187,-60.0288 53.5605,-70.3579 60.5165,-69.574"/>
</g>
<!-- whitespace -->
<g id="node5" class="node"><title>whitespace</title>
<polygon fill="lightblue" stroke="black" points="203.25,-60 126.75,-60 126.75,-24 203.25,-24 203.25,-60"/>
<text text-anchor="middle" x="165" y="-38.3" font-family="Times,serif" font-size="14.00">whitespace</text>
</g>
<!-- :discard&#45;&gt;whitespace -->
<g id="edge4" class="edge"><title>:discard&#45;&gt;whitespace</title>
<path fill="none" stroke="grey" d="M158.179,-96.8129C159.196,-88.7895 160.431,-79.0475 161.569,-70.0691"/>
<polygon fill="grey" stroke="grey" points="165.056,-70.3896 162.841,-60.0288 158.112,-69.5093 165.056,-70.3896"/>
</g>
</g>
</svg>
