<?xml version="1.0" encoding="UTF-8" standalone="no"?>
<!DOCTYPE svg PUBLIC "-//W3C//DTD SVG 1.1//EN"
 "http://www.w3.org/Graphics/SVG/1.1/DTD/svg11.dtd">
<!-- Generated by graphviz version 2.38.0 (20140413.2041)
 -->
<!-- Title: Perl Pages: 1 -->
<svg width="674pt" height="313pt"
 viewBox="0.00 0.00 674.00 313.00" xmlns="http://www.w3.org/2000/svg" xmlns:xlink="http://www.w3.org/1999/xlink">
<g id="graph0" class="graph" transform="scale(1 1) rotate(0) translate(4 309)">
<title>Perl</title>
<polygon fill="white" stroke="none" points="-4,4 -4,-309 670,-309 670,4 -4,4"/>
<text text-anchor="middle" x="333" y="-7.8" font-family="Times,serif" font-size="14.00">json.2.bnf</text>
<!-- ꞉default -->
<g id="node1" class="node"><title>꞉default</title>
<polygon fill="lightblue" stroke="black" points="88,-227.5 29,-227.5 29,-191.5 88,-191.5 88,-227.5"/>
<text text-anchor="middle" x="58.5" y="-205.8" font-family="Times,serif" font-size="14.00">꞉default</text>
</g>
<!-- ꞉default_1 -->
<g id="node3" class="node"><title>꞉default_1</title>
<path fill="goldenrod" stroke="black" d="M12,-68.5C12,-68.5 95,-68.5 95,-68.5 101,-68.5 107,-74.5 107,-80.5 107,-80.5 107,-92.5 107,-92.5 107,-98.5 101,-104.5 95,-104.5 95,-104.5 12,-104.5 12,-104.5 6,-104.5 0,-98.5 0,-92.5 0,-92.5 0,-80.5 0,-80.5 0,-74.5 6,-68.5 12,-68.5"/>
<text text-anchor="middle" x="53.5" y="-82.8" font-family="Times,serif" font-size="14.00">action =&gt; ::array</text>
</g>
<!-- ꞉default&#45;&gt;꞉default_1 -->
<g id="edge2" class="edge"><title>꞉default&#45;&gt;꞉default_1</title>
<path fill="none" stroke="grey" d="M57.7942,-191.42C56.9725,-171.535 55.6042,-138.423 54.6332,-114.923"/>
<polygon fill="grey" stroke="grey" points="58.1284,-114.732 54.2184,-104.885 51.1343,-115.021 58.1284,-114.732"/>
</g>
<!-- BNF -->
<g id="node2" class="node"><title>BNF</title>
<polygon fill="lightgrey" stroke="black" points="231.5,-305 177.5,-305 177.5,-269 231.5,-269 231.5,-305"/>
<text text-anchor="middle" x="204.5" y="-283.3" font-family="Times,serif" font-size="14.00">BNF</text>
</g>
<!-- BNF&#45;&gt;꞉default -->
<g id="edge1" class="edge"><title>BNF&#45;&gt;꞉default</title>
<path fill="none" stroke="grey" d="M177.174,-272.529C155.905,-261.966 125.699,-246.795 99.5,-233 98.8265,-232.645 98.1473,-232.286 97.4638,-231.924"/>
<polygon fill="grey" stroke="grey" points="98.9078,-228.727 88.4409,-227.086 95.5998,-234.896 98.9078,-228.727"/>
</g>
<!-- lexeme default -->
<g id="node4" class="node"><title>lexeme default</title>
<polygon fill="lightblue" stroke="black" points="206.5,-227.5 108.5,-227.5 108.5,-191.5 206.5,-191.5 206.5,-227.5"/>
<text text-anchor="middle" x="157.5" y="-205.8" font-family="Times,serif" font-size="14.00">lexeme default</text>
</g>
<!-- BNF&#45;&gt;lexeme default -->
<g id="edge3" class="edge"><title>BNF&#45;&gt;lexeme default</title>
<path fill="none" stroke="grey" d="M193.835,-268.868C187.826,-259.215 180.201,-246.967 173.49,-236.186"/>
<polygon fill="grey" stroke="grey" points="176.379,-234.204 168.123,-227.564 170.436,-237.903 176.379,-234.204"/>
</g>
<!-- json -->
<g id="node6" class="node"><title>json</title>
<path fill="lightgreen" stroke="black" d="M236.5,-186.5C236.5,-186.5 266.5,-186.5 266.5,-186.5 272.5,-186.5 278.5,-192.5 278.5,-198.5 278.5,-198.5 278.5,-220.5 278.5,-220.5 278.5,-226.5 272.5,-232.5 266.5,-232.5 266.5,-232.5 236.5,-232.5 236.5,-232.5 230.5,-232.5 224.5,-226.5 224.5,-220.5 224.5,-220.5 224.5,-198.5 224.5,-198.5 224.5,-192.5 230.5,-186.5 236.5,-186.5"/>
<text text-anchor="middle" x="251.5" y="-217.3" font-family="Times,serif" font-size="14.00">:start</text>
<polyline fill="none" stroke="black" points="224.5,-209.5 278.5,-209.5 "/>
<text text-anchor="middle" x="251.5" y="-194.3" font-family="Times,serif" font-size="14.00">json</text>
</g>
<!-- BNF&#45;&gt;json -->
<g id="edge5" class="edge"><title>BNF&#45;&gt;json</title>
<path fill="none" stroke="grey" d="M215.165,-268.868C220.214,-260.757 226.403,-250.815 232.233,-241.45"/>
<polygon fill="grey" stroke="grey" points="235.35,-243.066 237.664,-232.727 229.407,-239.366 235.35,-243.066"/>
</g>
<!-- ꞉discard -->
<g id="node7" class="node"><title>꞉discard</title>
<polygon fill="lightblue" stroke="black" points="356.5,-227.5 296.5,-227.5 296.5,-191.5 356.5,-191.5 356.5,-227.5"/>
<text text-anchor="middle" x="326.5" y="-205.8" font-family="Times,serif" font-size="14.00">꞉discard</text>
</g>
<!-- BNF&#45;&gt;꞉discard -->
<g id="edge6" class="edge"><title>BNF&#45;&gt;꞉discard</title>
<path fill="none" stroke="grey" d="M231.576,-269.244C248.787,-258.593 271.281,-244.673 290.052,-233.056"/>
<polygon fill="grey" stroke="grey" points="291.993,-235.971 298.654,-227.732 288.309,-230.019 291.993,-235.971"/>
</g>
<!-- lexeme default_1 -->
<g id="node5" class="node"><title>lexeme default_1</title>
<path fill="lightblue" stroke="black" d="M137,-68.5C137,-68.5 184,-68.5 184,-68.5 190,-68.5 196,-74.5 196,-80.5 196,-80.5 196,-92.5 196,-92.5 196,-98.5 190,-104.5 184,-104.5 184,-104.5 137,-104.5 137,-104.5 131,-104.5 125,-98.5 125,-92.5 125,-92.5 125,-80.5 125,-80.5 125,-74.5 131,-68.5 137,-68.5"/>
<text text-anchor="middle" x="160.5" y="-82.8" font-family="Times,serif" font-size="14.00">latm =&gt; 1</text>
</g>
<!-- lexeme default&#45;&gt;lexeme default_1 -->
<g id="edge4" class="edge"><title>lexeme default&#45;&gt;lexeme default_1</title>
<path fill="none" stroke="grey" d="M157.923,-191.42C158.416,-171.535 159.237,-138.423 159.82,-114.923"/>
<polygon fill="grey" stroke="grey" points="163.32,-114.968 160.069,-104.885 156.322,-114.795 163.32,-114.968"/>
</g>
<!-- lexeme -->
<g id="node8" class="node"><title>lexeme</title>
<polygon fill="lightblue" stroke="black" points="354.5,-104.5 298.5,-104.5 298.5,-68.5 354.5,-68.5 354.5,-104.5"/>
<text text-anchor="middle" x="326.5" y="-82.8" font-family="Times,serif" font-size="14.00">lexeme</text>
</g>
<!-- ꞉discard&#45;&gt;lexeme -->
<g id="edge7" class="edge"><title>꞉discard&#45;&gt;lexeme</title>
<path fill="none" stroke="grey" d="M326.5,-191.42C326.5,-171.535 326.5,-138.423 326.5,-114.923"/>
<polygon fill="grey" stroke="grey" points="330,-114.885 326.5,-104.885 323,-114.885 330,-114.885"/>
</g>
<!-- Legend -->
<g id="node9" class="node"><title>Legend</title>
<polygon fill="lightgrey" stroke="none" points="666,-150 373,-150 373,-23 666,-23 666,-150"/>
<polygon fill="white" stroke="none" points="381,-27 381,-146 658,-146 658,-27 381,-27"/>
<polygon fill="lightgreen" stroke="none" points="384.5,-121.5 384.5,-142.5 655.5,-142.5 655.5,-121.5 384.5,-121.5"/>
<polygon fill="none" stroke="black" points="384.5,-121.5 384.5,-142.5 655.5,-142.5 655.5,-121.5 384.5,-121.5"/>
<text text-anchor="start" x="431" y="-128.3" font-family="Times,serif" font-size="14.00">The green node is the start node</text>
<polygon fill="lightblue" stroke="none" points="384.5,-98.5 384.5,-119.5 655.5,-119.5 655.5,-98.5 384.5,-98.5"/>
<polygon fill="none" stroke="black" points="384.5,-98.5 384.5,-119.5 655.5,-119.5 655.5,-98.5 384.5,-98.5"/>
<text text-anchor="start" x="387.5" y="-105.3" font-family="Times,serif" font-size="14.00">Lightblue nodes are for reserved rule names, etc</text>
<polygon fill="orchid" stroke="none" points="384.5,-75.5 384.5,-96.5 655.5,-96.5 655.5,-75.5 384.5,-75.5"/>
<polygon fill="none" stroke="black" points="384.5,-75.5 384.5,-96.5 655.5,-96.5 655.5,-75.5 384.5,-75.5"/>
<text text-anchor="start" x="438.5" y="-82.3" font-family="Times,serif" font-size="14.00">Orchid nodes are for lexemes</text>
<polygon fill="goldenrod" stroke="none" points="384.5,-52.5 384.5,-73.5 655.5,-73.5 655.5,-52.5 384.5,-52.5"/>
<polygon fill="none" stroke="black" points="384.5,-52.5 384.5,-73.5 655.5,-73.5 655.5,-52.5 384.5,-52.5"/>
<text text-anchor="start" x="440" y="-59.3" font-family="Times,serif" font-size="14.00">Golden nodes are for actions</text>
<polygon fill="#ff3030" stroke="none" points="384.5,-29.5 384.5,-50.5 655.5,-50.5 655.5,-29.5 384.5,-29.5"/>
<polygon fill="none" stroke="black" points="384.5,-29.5 384.5,-50.5 655.5,-50.5 655.5,-29.5 384.5,-29.5"/>
<text text-anchor="start" x="452" y="-36.3" font-family="Times,serif" font-size="14.00">Red nodes are for events</text>
<polygon fill="none" stroke="black" points="381,-27 381,-146 658,-146 658,-27 381,-27"/>
</g>
</g>
</svg>
