<?xml version="1.0" encoding="UTF-8" standalone="no"?>
<!DOCTYPE svg PUBLIC "-//W3C//DTD SVG 1.1//EN"
 "http://www.w3.org/Graphics/SVG/1.1/DTD/svg11.dtd">
<!-- Generated by graphviz version 2.38.0 (20140413.2041)
 -->
<!-- Title: Perl Pages: 1 -->
<svg width="334pt" height="158pt"
 viewBox="0.00 0.00 334.00 158.00" xmlns="http://www.w3.org/2000/svg" xmlns:xlink="http://www.w3.org/1999/xlink">
<g id="graph0" class="graph" transform="scale(1 1) rotate(0) translate(4 154)">
<title>Perl</title>
<polygon fill="white" stroke="none" points="-4,4 -4,-154 330,-154 330,4 -4,4"/>
<text text-anchor="middle" x="163" y="-7.8" font-family="Times,serif" font-size="14.00">json.1.bnf</text>
<!-- json -->
<g id="node1" class="node"><title>json</title>
<path fill="lightgreen" stroke="black" d="M12,-63.5C12,-63.5 42,-63.5 42,-63.5 48,-63.5 54,-69.5 54,-75.5 54,-75.5 54,-97.5 54,-97.5 54,-103.5 48,-109.5 42,-109.5 42,-109.5 12,-109.5 12,-109.5 6,-109.5 0,-103.5 0,-97.5 0,-97.5 0,-75.5 0,-75.5 0,-69.5 6,-63.5 12,-63.5"/>
<text text-anchor="middle" x="27" y="-94.3" font-family="Times,serif" font-size="14.00">:start</text>
<polyline fill="none" stroke="black" points="0,-86.5 54,-86.5 "/>
<text text-anchor="middle" x="27" y="-71.3" font-family="Times,serif" font-size="14.00">json</text>
</g>
<!-- Legend -->
<g id="node2" class="node"><title>Legend</title>
<polygon fill="lightgrey" stroke="none" points="326,-150 72,-150 72,-23 326,-23 326,-150"/>
<polygon fill="white" stroke="none" points="80,-27 80,-146 318,-146 318,-27 80,-27"/>
<polygon fill="lightgreen" stroke="none" points="83,-121.5 83,-142.5 315,-142.5 315,-121.5 83,-121.5"/>
<polygon fill="none" stroke="black" points="83,-121.5 83,-142.5 315,-142.5 315,-121.5 83,-121.5"/>
<text text-anchor="start" x="111.5" y="-128.3" font-family="Times,serif" font-size="14.00">The green node is the start node</text>
<polygon fill="lightblue" stroke="none" points="83,-98.5 83,-119.5 315,-119.5 315,-98.5 83,-98.5"/>
<polygon fill="none" stroke="black" points="83,-98.5 83,-119.5 315,-119.5 315,-98.5 83,-98.5"/>
<text text-anchor="start" x="86" y="-105.3" font-family="Times,serif" font-size="14.00">Lightblue nodes are for lexeme attributes</text>
<polygon fill="orchid" stroke="none" points="83,-75.5 83,-96.5 315,-96.5 315,-75.5 83,-75.5"/>
<polygon fill="none" stroke="black" points="83,-75.5 83,-96.5 315,-96.5 315,-75.5 83,-75.5"/>
<text text-anchor="start" x="118" y="-82.3" font-family="Times,serif" font-size="14.00">Orchid nodes are for lexemes</text>
<polygon fill="goldenrod" stroke="none" points="83,-52.5 83,-73.5 315,-73.5 315,-52.5 83,-52.5"/>
<polygon fill="none" stroke="black" points="83,-52.5 83,-73.5 315,-73.5 315,-52.5 83,-52.5"/>
<text text-anchor="start" x="120.5" y="-59.3" font-family="Times,serif" font-size="14.00">Golden nodes are for actions</text>
<polygon fill="#ff3030" stroke="none" points="83,-29.5 83,-50.5 315,-50.5 315,-29.5 83,-29.5"/>
<polygon fill="none" stroke="black" points="83,-29.5 83,-50.5 315,-50.5 315,-29.5 83,-29.5"/>
<text text-anchor="start" x="131" y="-36.3" font-family="Times,serif" font-size="14.00">Red nodes are for events</text>
<polygon fill="none" stroke="black" points="80,-27 80,-146 318,-146 318,-27 80,-27"/>
</g>
</g>
</svg>
