<?xml version="1.0" encoding="UTF-8" standalone="no"?>
<!DOCTYPE svg PUBLIC "-//W3C//DTD SVG 1.1//EN"
 "http://www.w3.org/Graphics/SVG/1.1/DTD/svg11.dtd">
<!-- Generated by graphviz version 2.30.1 (20130611.0131)
 -->
<!-- Title: Perl Pages: 1 -->
<svg width="1280pt" height="801pt"
 viewBox="0.00 0.00 1280.00 801.00" xmlns="http://www.w3.org/2000/svg" xmlns:xlink="http://www.w3.org/1999/xlink">
<g id="graph0" class="graph" transform="scale(1 1) rotate(0) translate(4 797)">
<title>Perl</title>
<polygon fill="white" stroke="white" points="-4,5 -4,-797 1277,-797 1277,5 -4,5"/>
<text text-anchor="middle" x="636" y="-7.8" font-family="Times,serif" font-size="14.00">json.2.bnf</text>
<!-- json -->
<g id="node1" class="node"><title>json</title>
<path fill="lightgreen" stroke="black" d="M670,-746C670,-746 700,-746 700,-746 706,-746 712,-752 712,-758 712,-758 712,-780 712,-780 712,-786 706,-792 700,-792 700,-792 670,-792 670,-792 664,-792 658,-786 658,-780 658,-780 658,-758 658,-758 658,-752 664,-746 670,-746"/>
<text text-anchor="middle" x="685" y="-776.8" font-family="Times,serif" font-size="14.00">:start</text>
<polyline fill="none" stroke="black" points="658,-769 712,-769 "/>
<text text-anchor="middle" x="685" y="-753.8" font-family="Times,serif" font-size="14.00">json</text>
</g>
<!-- ꞉default -->
<g id="node2" class="node"><title>꞉default</title>
<polygon fill="lightblue" stroke="black" points="387.5,-709 330.5,-709 330.5,-673 387.5,-673 387.5,-709"/>
<text text-anchor="middle" x="359" y="-687.3" font-family="Times,serif" font-size="14.00">꞉default</text>
</g>
<!-- json&#45;&gt;꞉default -->
<g id="edge1" class="edge"><title>json&#45;&gt;꞉default</title>
<path fill="none" stroke="grey" d="M657.96,-762.613C609.597,-752.847 505.186,-731.17 418,-709 411.337,-707.306 404.285,-705.386 397.465,-703.462"/>
<polygon fill="grey" stroke="grey" points="398.287,-700.057 387.71,-700.666 396.358,-706.786 398.287,-700.057"/>
</g>
<!-- ꞉discard -->
<g id="node4" class="node"><title>꞉discard</title>
<polygon fill="lightblue" stroke="black" points="486.25,-709 427.75,-709 427.75,-673 486.25,-673 486.25,-709"/>
<text text-anchor="middle" x="457" y="-687.3" font-family="Times,serif" font-size="14.00">꞉discard</text>
</g>
<!-- json&#45;&gt;꞉discard -->
<g id="edge3" class="edge"><title>json&#45;&gt;꞉discard</title>
<path fill="none" stroke="grey" d="M657.793,-759.303C622.486,-747.967 559.005,-727.411 505,-709 502.082,-708.005 499.068,-706.966 496.038,-705.913"/>
<polygon fill="grey" stroke="grey" points="497.003,-702.542 486.408,-702.539 494.689,-709.148 497.003,-702.542"/>
</g>
<!-- object -->
<g id="node6" class="node"><title>object</title>
<polygon fill="white" stroke="black" points="712,-709 658,-709 658,-673 712,-673 712,-709"/>
<text text-anchor="middle" x="685" y="-687.3" font-family="Times,serif" font-size="14.00">object</text>
</g>
<!-- json&#45;&gt;object -->
<g id="edge5" class="edge"><title>json&#45;&gt;object</title>
<path fill="none" stroke="grey" d="M685,-745.609C685,-737.481 685,-728.2 685,-719.671"/>
<polygon fill="grey" stroke="grey" points="688.5,-719.412 685,-709.412 681.5,-719.412 688.5,-719.412"/>
</g>
<!-- action -->
<g id="node7" class="node"><title>action</title>
<polygon fill="white" stroke="black" points="1020,-419 966,-419 966,-383 1020,-383 1020,-419"/>
<text text-anchor="middle" x="993" y="-397.3" font-family="Times,serif" font-size="14.00">action</text>
</g>
<!-- json&#45;&gt;action -->
<g id="edge6" class="edge"><title>json&#45;&gt;action</title>
<path fill="none" stroke="grey" d="M712.384,-760.879C765.86,-745.138 879,-702.025 879,-619 879,-619 879,-619 879,-544 879,-492.997 924.274,-449.884 957.759,-424.971"/>
<polygon fill="grey" stroke="grey" points="959.923,-427.726 965.984,-419.036 955.826,-422.05 959.923,-427.726"/>
</g>
<!-- =&gt; -->
<g id="node8" class="node"><title>=&gt;</title>
<polygon fill="white" stroke="black" points="400,-419 346,-419 346,-383 400,-383 400,-419"/>
<text text-anchor="middle" x="373" y="-397.3" font-family="Times,serif" font-size="14.00">=&gt;</text>
</g>
<!-- json&#45;&gt;=&gt; -->
<g id="edge7" class="edge"><title>json&#45;&gt;=&gt;</title>
<path fill="none" stroke="grey" d="M657.96,-758.217C610.922,-739.259 519,-692.773 519,-619 519,-619 519,-619 519,-544 519,-512.674 449.058,-456.686 405.993,-425.182"/>
<polygon fill="grey" stroke="grey" points="407.918,-422.255 397.767,-419.222 403.811,-427.924 407.918,-422.255"/>
</g>
<!-- ꞉꞉first -->
<g id="node9" class="node"><title>꞉꞉first</title>
<polygon fill="white" stroke="black" points="1092,-419 1038,-419 1038,-383 1092,-383 1092,-419"/>
<text text-anchor="middle" x="1065" y="-397.3" font-family="Times,serif" font-size="14.00">꞉꞉first</text>
</g>
<!-- json&#45;&gt;꞉꞉first -->
<g id="edge8" class="edge"><title>json&#45;&gt;꞉꞉first</title>
<path fill="none" stroke="grey" d="M712.228,-765.216C778.725,-756.763 944,-725.085 944,-619 944,-619 944,-619 944,-544 944,-491.001 993.436,-447.739 1029.11,-423.419"/>
<polygon fill="grey" stroke="grey" points="1031.43,-426.082 1037.85,-417.65 1027.57,-420.241 1031.43,-426.082"/>
</g>
<!-- array -->
<g id="node10" class="node"><title>array</title>
<polygon fill="white" stroke="black" points="1164,-419 1110,-419 1110,-383 1164,-383 1164,-419"/>
<text text-anchor="middle" x="1137" y="-397.3" font-family="Times,serif" font-size="14.00">array</text>
</g>
<!-- json&#45;&gt;array -->
<g id="edge9" class="edge"><title>json&#45;&gt;array</title>
<path fill="none" stroke="grey" d="M712.135,-764.04C802.717,-750.071 1089,-699.551 1089,-619 1089,-619 1089,-619 1089,-544 1089,-501.866 1108.2,-456.227 1122.31,-428.371"/>
<polygon fill="grey" stroke="grey" points="1125.53,-429.778 1127.05,-419.294 1119.32,-426.538 1125.53,-429.778"/>
</g>
<!-- ꞉default_1 -->
<g id="node3" class="node"><title>꞉default_1</title>
<path fill="lightblue" stroke="black" d="M298.5,-600C298.5,-600 383.5,-600 383.5,-600 389.5,-600 395.5,-606 395.5,-612 395.5,-612 395.5,-624 395.5,-624 395.5,-630 389.5,-636 383.5,-636 383.5,-636 298.5,-636 298.5,-636 292.5,-636 286.5,-630 286.5,-624 286.5,-624 286.5,-612 286.5,-612 286.5,-606 292.5,-600 298.5,-600"/>
<text text-anchor="middle" x="341" y="-614.3" font-family="Times,serif" font-size="14.00">action =&gt; ꞉꞉array</text>
</g>
<!-- ꞉default&#45;&gt;꞉default_1 -->
<g id="edge2" class="edge"><title>꞉default&#45;&gt;꞉default_1</title>
<path fill="none" stroke="grey" d="M354.643,-672.813C352.586,-664.702 350.085,-654.836 347.788,-645.777"/>
<polygon fill="grey" stroke="grey" points="351.167,-644.862 345.317,-636.029 344.382,-646.582 351.167,-644.862"/>
</g>
<!-- whitespace -->
<g id="node5" class="node"><title>whitespace</title>
<polygon fill="lightblue" stroke="black" points="490.25,-636 413.75,-636 413.75,-600 490.25,-600 490.25,-636"/>
<text text-anchor="middle" x="452" y="-614.3" font-family="Times,serif" font-size="14.00">whitespace</text>
</g>
<!-- ꞉discard&#45;&gt;whitespace -->
<g id="edge4" class="edge"><title>꞉discard&#45;&gt;whitespace</title>
<path fill="none" stroke="grey" d="M455.79,-672.813C455.225,-664.789 454.539,-655.047 453.906,-646.069"/>
<polygon fill="grey" stroke="grey" points="457.393,-645.758 453.199,-636.029 450.41,-646.25 457.393,-645.758"/>
</g>
<!-- [\\s] -->
<g id="node55" class="node"><title>[\\s]</title>
<polygon fill="white" stroke="black" points="479,-563 425,-563 425,-527 479,-527 479,-563"/>
<text text-anchor="middle" x="452" y="-541.3" font-family="Times,serif" font-size="14.00">[\s]</text>
</g>
<!-- whitespace&#45;&gt;[\\s] -->
<g id="edge81" class="edge"><title>whitespace&#45;&gt;[\\s]</title>
<path fill="none" stroke="grey" d="M452,-599.813C452,-591.789 452,-582.047 452,-573.069"/>
<polygon fill="grey" stroke="grey" points="455.5,-573.029 452,-563.029 448.5,-573.029 455.5,-573.029"/>
</g>
<!-- (&#39;{&#39;) -->
<g id="node11" class="node"><title>(&#39;{&#39;)</title>
<polygon fill="white" stroke="black" points="673,-636 619,-636 619,-600 673,-600 673,-636"/>
<text text-anchor="middle" x="646" y="-614.3" font-family="Times,serif" font-size="14.00">(&#39;{&#39;)</text>
</g>
<!-- object&#45;&gt;(&#39;{&#39;) -->
<g id="edge10" class="edge"><title>object&#45;&gt;(&#39;{&#39;)</title>
<path fill="none" stroke="grey" d="M675.559,-672.813C670.96,-664.441 665.334,-654.197 660.228,-644.903"/>
<polygon fill="grey" stroke="grey" points="663.236,-643.109 655.354,-636.029 657.101,-646.479 663.236,-643.109"/>
</g>
<!-- members -->
<g id="node12" class="node"><title>members</title>
<polygon fill="white" stroke="black" points="759,-636 691,-636 691,-600 759,-600 759,-636"/>
<text text-anchor="middle" x="725" y="-614.3" font-family="Times,serif" font-size="14.00">members</text>
</g>
<!-- object&#45;&gt;members -->
<g id="edge11" class="edge"><title>object&#45;&gt;members</title>
<path fill="none" stroke="grey" d="M694.683,-672.813C699.4,-664.441 705.171,-654.197 710.407,-644.903"/>
<polygon fill="grey" stroke="grey" points="713.547,-646.459 715.406,-636.029 707.448,-643.023 713.547,-646.459"/>
</g>
<!-- (&#39;}&#39;) -->
<g id="node13" class="node"><title>(&#39;}&#39;)</title>
<polygon fill="white" stroke="black" points="601,-636 547,-636 547,-600 601,-600 601,-636"/>
<text text-anchor="middle" x="574" y="-614.3" font-family="Times,serif" font-size="14.00">(&#39;}&#39;)</text>
</g>
<!-- object&#45;&gt;(&#39;}&#39;) -->
<g id="edge12" class="edge"><title>object&#45;&gt;(&#39;}&#39;)</title>
<path fill="none" stroke="grey" d="M658.413,-672.994C643.693,-663.579 625.209,-651.755 609.293,-641.575"/>
<polygon fill="grey" stroke="grey" points="611.065,-638.554 600.755,-636.114 607.293,-644.45 611.065,-638.554"/>
</g>
<!-- (&#39;[&#39; -->
<g id="node25" class="node"><title>(&#39;[&#39;</title>
<polygon fill="white" stroke="black" points="1272,-347 1218,-347 1218,-311 1272,-311 1272,-347"/>
<text text-anchor="middle" x="1245" y="-325.3" font-family="Times,serif" font-size="14.00">(&#39;[&#39;</text>
</g>
<!-- array&#45;&gt;(&#39;[&#39; -->
<g id="edge42" class="edge"><title>array&#45;&gt;(&#39;[&#39;</title>
<path fill="none" stroke="grey" d="M1163.42,-382.876C1177.41,-373.808 1194.78,-362.552 1209.89,-352.759"/>
<polygon fill="grey" stroke="grey" points="1211.99,-355.566 1218.48,-347.19 1208.18,-349.692 1211.99,-355.566"/>
</g>
<!-- &#39;]&#39;) -->
<g id="node26" class="node"><title>&#39;]&#39;)</title>
<polygon fill="white" stroke="black" points="1056,-347 1002,-347 1002,-311 1056,-311 1056,-347"/>
<text text-anchor="middle" x="1029" y="-325.3" font-family="Times,serif" font-size="14.00">&#39;]&#39;)</text>
</g>
<!-- array&#45;&gt;&#39;]&#39;) -->
<g id="edge43" class="edge"><title>array&#45;&gt;&#39;]&#39;)</title>
<path fill="none" stroke="grey" d="M1110.58,-382.876C1096.59,-373.808 1079.22,-362.552 1064.11,-352.759"/>
<polygon fill="grey" stroke="grey" points="1065.82,-349.692 1055.52,-347.19 1062.01,-355.566 1065.82,-349.692"/>
</g>
<!-- (&#39;[&#39;) -->
<g id="node27" class="node"><title>(&#39;[&#39;)</title>
<polygon fill="white" stroke="black" points="1128,-347 1074,-347 1074,-311 1128,-311 1128,-347"/>
<text text-anchor="middle" x="1101" y="-325.3" font-family="Times,serif" font-size="14.00">(&#39;[&#39;)</text>
</g>
<!-- array&#45;&gt;(&#39;[&#39;) -->
<g id="edge44" class="edge"><title>array&#45;&gt;(&#39;[&#39;)</title>
<path fill="none" stroke="grey" d="M1128.1,-382.697C1124,-374.728 1119.05,-365.1 1114.51,-356.264"/>
<polygon fill="grey" stroke="grey" points="1117.48,-354.396 1109.8,-347.104 1111.26,-357.598 1117.48,-354.396"/>
</g>
<!-- elements -->
<g id="node28" class="node"><title>elements</title>
<polygon fill="white" stroke="black" points="825.25,-347 760.75,-347 760.75,-311 825.25,-311 825.25,-347"/>
<text text-anchor="middle" x="793" y="-325.3" font-family="Times,serif" font-size="14.00">elements</text>
</g>
<!-- array&#45;&gt;elements -->
<g id="edge45" class="edge"><title>array&#45;&gt;elements</title>
<path fill="none" stroke="grey" d="M1109.79,-386.218C1106.87,-385.019 1103.9,-383.916 1101,-383 1008.99,-353.954 896.196,-339.687 835.885,-333.683"/>
<polygon fill="grey" stroke="grey" points="835.895,-330.168 825.605,-332.689 835.222,-337.135 835.895,-330.168"/>
</g>
<!-- (&#39;]&#39;) -->
<g id="node29" class="node"><title>(&#39;]&#39;)</title>
<polygon fill="white" stroke="black" points="1200,-347 1146,-347 1146,-311 1200,-311 1200,-347"/>
<text text-anchor="middle" x="1173" y="-325.3" font-family="Times,serif" font-size="14.00">(&#39;]&#39;)</text>
</g>
<!-- array&#45;&gt;(&#39;]&#39;) -->
<g id="edge46" class="edge"><title>array&#45;&gt;(&#39;]&#39;)</title>
<path fill="none" stroke="grey" d="M1145.9,-382.697C1150,-374.728 1154.95,-365.1 1159.49,-356.264"/>
<polygon fill="grey" stroke="grey" points="1162.74,-357.598 1164.2,-347.104 1156.52,-354.396 1162.74,-357.598"/>
</g>
<!-- pair -->
<g id="node14" class="node"><title>pair</title>
<polygon fill="white" stroke="black" points="717,-563 663,-563 663,-527 717,-527 717,-563"/>
<text text-anchor="middle" x="690" y="-541.3" font-family="Times,serif" font-size="14.00">pair</text>
</g>
<!-- members&#45;&gt;pair -->
<g id="edge13" class="edge"><title>members&#45;&gt;pair</title>
<path fill="none" stroke="grey" d="M716.527,-599.813C712.443,-591.528 707.456,-581.41 702.912,-572.193"/>
<polygon fill="grey" stroke="grey" points="705.955,-570.451 698.395,-563.029 699.677,-573.546 705.955,-570.451"/>
</g>
<!-- string -->
<g id="node15" class="node"><title>string</title>
<polygon fill="white" stroke="black" points="328,-419 274,-419 274,-383 328,-383 328,-419"/>
<text text-anchor="middle" x="301" y="-397.3" font-family="Times,serif" font-size="14.00">string</text>
</g>
<!-- pair&#45;&gt;string -->
<g id="edge14" class="edge"><title>pair&#45;&gt;string</title>
<path fill="none" stroke="grey" d="M686.243,-526.677C680.767,-505.948 668.459,-471.922 644,-455 533.672,-378.668 472.001,-453.165 337.939,-418.622"/>
<polygon fill="grey" stroke="grey" points="338.73,-415.21 328.16,-415.943 336.88,-421.961 338.73,-415.21"/>
</g>
<!-- (&#39;꞉&#39;) -->
<g id="node16" class="node"><title>(&#39;꞉&#39;)</title>
<polygon fill="white" stroke="black" points="635,-491 581,-491 581,-455 635,-455 635,-491"/>
<text text-anchor="middle" x="608" y="-469.3" font-family="Times,serif" font-size="14.00">(&#39;꞉&#39;)</text>
</g>
<!-- pair&#45;&gt;(&#39;꞉&#39;) -->
<g id="edge15" class="edge"><title>pair&#45;&gt;(&#39;꞉&#39;)</title>
<path fill="none" stroke="grey" d="M669.73,-526.697C659.502,-517.965 646.939,-507.24 635.822,-497.75"/>
<polygon fill="grey" stroke="grey" points="637.915,-494.935 628.037,-491.104 633.37,-500.259 637.915,-494.935"/>
</g>
<!-- value -->
<g id="node17" class="node"><title>value</title>
<polygon fill="white" stroke="black" points="745,-491 691,-491 691,-455 745,-455 745,-491"/>
<text text-anchor="middle" x="718" y="-469.3" font-family="Times,serif" font-size="14.00">value</text>
</g>
<!-- pair&#45;&gt;value -->
<g id="edge16" class="edge"><title>pair&#45;&gt;value</title>
<path fill="none" stroke="grey" d="M696.921,-526.697C700.075,-518.813 703.878,-509.304 707.381,-500.546"/>
<polygon fill="grey" stroke="grey" points="710.694,-501.689 711.158,-491.104 704.195,-499.089 710.694,-501.689"/>
</g>
<!-- string lexeme -->
<g id="node44" class="node"><title>string lexeme</title>
<polygon fill="white" stroke="black" points="118.25,-347 27.75,-347 27.75,-311 118.25,-311 118.25,-347"/>
<text text-anchor="middle" x="73" y="-325.3" font-family="Times,serif" font-size="14.00">string lexeme</text>
</g>
<!-- string&#45;&gt;string lexeme -->
<g id="edge70" class="edge"><title>string&#45;&gt;string lexeme</title>
<path fill="none" stroke="grey" d="M273.95,-391.695C238.159,-380.707 174.217,-361.075 128.058,-346.904"/>
<polygon fill="grey" stroke="grey" points="129.082,-343.557 118.495,-343.968 127.027,-350.249 129.082,-343.557"/>
</g>
<!-- value&#45;&gt;string -->
<g id="edge17" class="edge"><title>value&#45;&gt;string</title>
<path fill="none" stroke="grey" d="M690.58,-459.37C686.113,-457.68 681.481,-456.141 677,-455 532.905,-418.318 485.356,-458.23 338.003,-418.698"/>
<polygon fill="grey" stroke="grey" points="338.721,-415.265 328.151,-415.977 336.858,-422.013 338.721,-415.265"/>
</g>
<!-- value&#45;&gt;action -->
<g id="edge18" class="edge"><title>value&#45;&gt;action</title>
<path fill="none" stroke="grey" d="M745.06,-468.02C788.178,-461.25 875.069,-445.86 955.918,-418.976"/>
<polygon fill="grey" stroke="grey" points="957.401,-422.169 965.745,-415.64 955.15,-415.541 957.401,-422.169"/>
</g>
<!-- value&#45;&gt;=&gt; -->
<g id="edge19" class="edge"><title>value&#45;&gt;=&gt;</title>
<path fill="none" stroke="grey" d="M690.997,-459.651C686.396,-457.882 681.613,-456.243 677,-455 564.02,-424.546 526.244,-451.556 409.81,-418.696"/>
<polygon fill="grey" stroke="grey" points="410.754,-415.326 400.175,-415.893 408.799,-422.047 410.754,-415.326"/>
</g>
<!-- value&#45;&gt;꞉꞉first -->
<g id="edge20" class="edge"><title>value&#45;&gt;꞉꞉first</title>
<path fill="none" stroke="grey" d="M745.206,-469.869C798.398,-465.177 919.738,-451.882 1028.03,-418.834"/>
<polygon fill="grey" stroke="grey" points="1029.29,-422.106 1037.79,-415.787 1027.2,-415.424 1029.29,-422.106"/>
</g>
<!-- value&#45;&gt;object -->
<g id="edge21" class="edge"><title>value&#45;&gt;object</title>
<path fill="none" stroke="grey" d="M731.645,-491.081C754.393,-521.781 795.025,-587.679 768,-637 758.087,-655.091 739.081,-667.902 721.756,-676.392"/>
<polygon fill="grey" stroke="grey" points="720.019,-673.337 712.371,-680.67 722.922,-679.706 720.019,-673.337"/>
</g>
<!-- value&#45;&gt;action -->
<g id="edge22" class="edge"><title>value&#45;&gt;action</title>
<path fill="none" stroke="grey" d="M745.06,-468.02C788.178,-461.25 875.069,-445.86 955.918,-418.976"/>
<polygon fill="grey" stroke="grey" points="957.401,-422.169 965.745,-415.64 955.15,-415.541 957.401,-422.169"/>
</g>
<!-- value&#45;&gt;=&gt; -->
<g id="edge23" class="edge"><title>value&#45;&gt;=&gt;</title>
<path fill="none" stroke="grey" d="M690.997,-459.651C686.396,-457.882 681.613,-456.243 677,-455 564.02,-424.546 526.244,-451.556 409.81,-418.696"/>
<polygon fill="grey" stroke="grey" points="410.754,-415.326 400.175,-415.893 408.799,-422.047 410.754,-415.326"/>
</g>
<!-- value&#45;&gt;꞉꞉first -->
<g id="edge24" class="edge"><title>value&#45;&gt;꞉꞉first</title>
<path fill="none" stroke="grey" d="M745.206,-469.869C798.398,-465.177 919.738,-451.882 1028.03,-418.834"/>
<polygon fill="grey" stroke="grey" points="1029.29,-422.106 1037.79,-415.787 1027.2,-415.424 1029.29,-422.106"/>
</g>
<!-- number -->
<g id="node18" class="node"><title>number</title>
<polygon fill="white" stroke="black" points="477.25,-419 418.75,-419 418.75,-383 477.25,-383 477.25,-419"/>
<text text-anchor="middle" x="448" y="-397.3" font-family="Times,serif" font-size="14.00">number</text>
</g>
<!-- value&#45;&gt;number -->
<g id="edge25" class="edge"><title>value&#45;&gt;number</title>
<path fill="none" stroke="grey" d="M690.931,-459.883C686.338,-458.086 681.574,-456.378 677,-455 596.796,-430.837 572.492,-442.185 492,-419 490.377,-418.533 488.73,-418.03 487.073,-417.501"/>
<polygon fill="grey" stroke="grey" points="488.174,-414.178 477.579,-414.245 485.902,-420.8 488.174,-414.178"/>
</g>
<!-- value&#45;&gt;action -->
<g id="edge26" class="edge"><title>value&#45;&gt;action</title>
<path fill="none" stroke="grey" d="M745.06,-468.02C788.178,-461.25 875.069,-445.86 955.918,-418.976"/>
<polygon fill="grey" stroke="grey" points="957.401,-422.169 965.745,-415.64 955.15,-415.541 957.401,-422.169"/>
</g>
<!-- value&#45;&gt;=&gt; -->
<g id="edge27" class="edge"><title>value&#45;&gt;=&gt;</title>
<path fill="none" stroke="grey" d="M690.997,-459.651C686.396,-457.882 681.613,-456.243 677,-455 564.02,-424.546 526.244,-451.556 409.81,-418.696"/>
<polygon fill="grey" stroke="grey" points="410.754,-415.326 400.175,-415.893 408.799,-422.047 410.754,-415.326"/>
</g>
<!-- value&#45;&gt;꞉꞉first -->
<g id="edge28" class="edge"><title>value&#45;&gt;꞉꞉first</title>
<path fill="none" stroke="grey" d="M745.206,-469.869C798.398,-465.177 919.738,-451.882 1028.03,-418.834"/>
<polygon fill="grey" stroke="grey" points="1029.29,-422.106 1037.79,-415.787 1027.2,-415.424 1029.29,-422.106"/>
</g>
<!-- value&#45;&gt;array -->
<g id="edge29" class="edge"><title>value&#45;&gt;array</title>
<path fill="none" stroke="grey" d="M745.058,-471.064C807.031,-468.333 963.784,-458.089 1100.05,-418.763"/>
<polygon fill="grey" stroke="grey" points="1101.22,-422.066 1109.82,-415.881 1099.24,-415.352 1101.22,-422.066"/>
</g>
<!-- value&#45;&gt;action -->
<g id="edge30" class="edge"><title>value&#45;&gt;action</title>
<path fill="none" stroke="grey" d="M745.06,-468.02C788.178,-461.25 875.069,-445.86 955.918,-418.976"/>
<polygon fill="grey" stroke="grey" points="957.401,-422.169 965.745,-415.64 955.15,-415.541 957.401,-422.169"/>
</g>
<!-- value&#45;&gt;=&gt; -->
<g id="edge31" class="edge"><title>value&#45;&gt;=&gt;</title>
<path fill="none" stroke="grey" d="M690.997,-459.651C686.396,-457.882 681.613,-456.243 677,-455 564.02,-424.546 526.244,-451.556 409.81,-418.696"/>
<polygon fill="grey" stroke="grey" points="410.754,-415.326 400.175,-415.893 408.799,-422.047 410.754,-415.326"/>
</g>
<!-- value&#45;&gt;꞉꞉first -->
<g id="edge32" class="edge"><title>value&#45;&gt;꞉꞉first</title>
<path fill="none" stroke="grey" d="M745.206,-469.869C798.398,-465.177 919.738,-451.882 1028.03,-418.834"/>
<polygon fill="grey" stroke="grey" points="1029.29,-422.106 1037.79,-415.787 1027.2,-415.424 1029.29,-422.106"/>
</g>
<!-- &#39;true&#39; -->
<g id="node19" class="node"><title>&#39;true&#39;</title>
<polygon fill="white" stroke="black" points="588,-419 534,-419 534,-383 588,-383 588,-419"/>
<text text-anchor="middle" x="561" y="-397.3" font-family="Times,serif" font-size="14.00">&#39;true&#39;</text>
</g>
<!-- value&#45;&gt;&#39;true&#39; -->
<g id="edge33" class="edge"><title>value&#45;&gt;&#39;true&#39;</title>
<path fill="none" stroke="grey" d="M690.99,-460.429C668.325,-450.663 634.891,-436.125 597.638,-419.236"/>
<polygon fill="grey" stroke="grey" points="598.64,-415.847 588.089,-414.892 595.742,-422.219 598.64,-415.847"/>
</g>
<!-- bless -->
<g id="node20" class="node"><title>bless</title>
<polygon fill="white" stroke="black" points="660,-419 606,-419 606,-383 660,-383 660,-419"/>
<text text-anchor="middle" x="633" y="-397.3" font-family="Times,serif" font-size="14.00">bless</text>
</g>
<!-- value&#45;&gt;bless -->
<g id="edge34" class="edge"><title>value&#45;&gt;bless</title>
<path fill="none" stroke="grey" d="M696.989,-454.697C686.284,-445.881 673.11,-435.032 661.504,-425.474"/>
<polygon fill="grey" stroke="grey" points="663.714,-422.76 653.77,-419.104 659.264,-428.163 663.714,-422.76"/>
</g>
<!-- value&#45;&gt;=&gt; -->
<g id="edge35" class="edge"><title>value&#45;&gt;=&gt;</title>
<path fill="none" stroke="grey" d="M690.997,-459.651C686.396,-457.882 681.613,-456.243 677,-455 564.02,-424.546 526.244,-451.556 409.81,-418.696"/>
<polygon fill="grey" stroke="grey" points="410.754,-415.326 400.175,-415.893 408.799,-422.047 410.754,-415.326"/>
</g>
<!-- true -->
<g id="node21" class="node"><title>true</title>
<polygon fill="white" stroke="black" points="732,-419 678,-419 678,-383 732,-383 732,-419"/>
<text text-anchor="middle" x="705" y="-397.3" font-family="Times,serif" font-size="14.00">true</text>
</g>
<!-- value&#45;&gt;true -->
<g id="edge36" class="edge"><title>value&#45;&gt;true</title>
<path fill="none" stroke="grey" d="M714.787,-454.697C713.354,-446.983 711.632,-437.712 710.035,-429.112"/>
<polygon fill="grey" stroke="grey" points="713.444,-428.297 708.177,-419.104 706.561,-429.575 713.444,-428.297"/>
</g>
<!-- &#39;false&#39; -->
<g id="node22" class="node"><title>&#39;false&#39;</title>
<polygon fill="white" stroke="black" points="804,-419 750,-419 750,-383 804,-383 804,-419"/>
<text text-anchor="middle" x="777" y="-397.3" font-family="Times,serif" font-size="14.00">&#39;false&#39;</text>
</g>
<!-- value&#45;&gt;&#39;false&#39; -->
<g id="edge37" class="edge"><title>value&#45;&gt;&#39;false&#39;</title>
<path fill="none" stroke="grey" d="M732.584,-454.697C739.658,-446.305 748.283,-436.07 756.045,-426.861"/>
<polygon fill="grey" stroke="grey" points="758.815,-429.006 762.583,-419.104 753.463,-424.495 758.815,-429.006"/>
</g>
<!-- value&#45;&gt;bless -->
<g id="edge38" class="edge"><title>value&#45;&gt;bless</title>
<path fill="none" stroke="grey" d="M696.989,-454.697C686.284,-445.881 673.11,-435.032 661.504,-425.474"/>
<polygon fill="grey" stroke="grey" points="663.714,-422.76 653.77,-419.104 659.264,-428.163 663.714,-422.76"/>
</g>
<!-- value&#45;&gt;=&gt; -->
<g id="edge39" class="edge"><title>value&#45;&gt;=&gt;</title>
<path fill="none" stroke="grey" d="M690.997,-459.651C686.396,-457.882 681.613,-456.243 677,-455 564.02,-424.546 526.244,-451.556 409.81,-418.696"/>
<polygon fill="grey" stroke="grey" points="410.754,-415.326 400.175,-415.893 408.799,-422.047 410.754,-415.326"/>
</g>
<!-- false -->
<g id="node23" class="node"><title>false</title>
<polygon fill="white" stroke="black" points="876,-419 822,-419 822,-383 876,-383 876,-419"/>
<text text-anchor="middle" x="849" y="-397.3" font-family="Times,serif" font-size="14.00">false</text>
</g>
<!-- value&#45;&gt;false -->
<g id="edge40" class="edge"><title>value&#45;&gt;false</title>
<path fill="none" stroke="grey" d="M745.143,-457.496C764.816,-446.984 791.616,-432.663 813.064,-421.203"/>
<polygon fill="grey" stroke="grey" points="814.721,-424.285 821.891,-416.485 811.422,-418.111 814.721,-424.285"/>
</g>
<!-- &#39;null&#39; -->
<g id="node24" class="node"><title>&#39;null&#39;</title>
<polygon fill="white" stroke="black" points="948,-419 894,-419 894,-383 948,-383 948,-419"/>
<text text-anchor="middle" x="921" y="-397.3" font-family="Times,serif" font-size="14.00">&#39;null&#39;</text>
</g>
<!-- value&#45;&gt;&#39;null&#39; -->
<g id="edge41" class="edge"><title>value&#45;&gt;&#39;null&#39;</title>
<path fill="none" stroke="grey" d="M745.287,-464.558C776.852,-455.687 830.451,-439.819 884.304,-419.035"/>
<polygon fill="grey" stroke="grey" points="885.611,-422.282 893.649,-415.379 883.061,-415.763 885.611,-422.282"/>
</g>
<!-- int -->
<g id="node30" class="node"><title>int</title>
<polygon fill="white" stroke="black" points="475,-347 421,-347 421,-311 475,-311 475,-347"/>
<text text-anchor="middle" x="448" y="-325.3" font-family="Times,serif" font-size="14.00">int</text>
</g>
<!-- number&#45;&gt;int -->
<g id="edge48" class="edge"><title>number&#45;&gt;int</title>
<path fill="none" stroke="grey" d="M442.084,-382.697C441.289,-374.983 441.062,-365.712 441.405,-357.112"/>
<polygon fill="grey" stroke="grey" points="444.898,-357.324 442.105,-347.104 437.915,-356.836 444.898,-357.324"/>
</g>
<!-- number&#45;&gt;int -->
<g id="edge49" class="edge"><title>number&#45;&gt;int</title>
<path fill="none" stroke="grey" d="M453.916,-382.697C454.711,-374.983 454.938,-365.712 454.595,-357.112"/>
<polygon fill="grey" stroke="grey" points="458.085,-356.836 453.895,-347.104 451.102,-357.324 458.085,-356.836"/>
</g>
<!-- frac -->
<g id="node31" class="node"><title>frac</title>
<polygon fill="white" stroke="black" points="547,-347 493,-347 493,-311 547,-311 547,-347"/>
<text text-anchor="middle" x="520" y="-325.3" font-family="Times,serif" font-size="14.00">frac</text>
</g>
<!-- number&#45;&gt;frac -->
<g id="edge50" class="edge"><title>number&#45;&gt;frac</title>
<path fill="none" stroke="grey" d="M465.798,-382.697C474.604,-374.135 485.382,-363.656 495.001,-354.304"/>
<polygon fill="grey" stroke="grey" points="497.677,-356.585 502.407,-347.104 492.797,-351.566 497.677,-356.585"/>
</g>
<!-- number&#45;&gt;int -->
<g id="edge51" class="edge"><title>number&#45;&gt;int</title>
<path fill="none" stroke="grey" d="M448,-382.697C448,-374.983 448,-365.712 448,-357.112"/>
<polygon fill="grey" stroke="grey" points="451.5,-357.104 448,-347.104 444.5,-357.104 451.5,-357.104"/>
</g>
<!-- exp -->
<g id="node32" class="node"><title>exp</title>
<polygon fill="white" stroke="black" points="403,-347 349,-347 349,-311 403,-311 403,-347"/>
<text text-anchor="middle" x="376" y="-325.3" font-family="Times,serif" font-size="14.00">exp</text>
</g>
<!-- number&#45;&gt;exp -->
<g id="edge52" class="edge"><title>number&#45;&gt;exp</title>
<path fill="none" stroke="grey" d="M430.202,-382.697C421.396,-374.135 410.618,-363.656 400.999,-354.304"/>
<polygon fill="grey" stroke="grey" points="403.203,-351.566 393.593,-347.104 398.323,-356.585 403.203,-351.566"/>
</g>
<!-- number&#45;&gt;int -->
<g id="edge53" class="edge"><title>number&#45;&gt;int</title>
<path fill="none" stroke="grey" d="M448,-382.697C448,-374.983 448,-365.712 448,-357.112"/>
<polygon fill="grey" stroke="grey" points="451.5,-357.104 448,-347.104 444.5,-357.104 451.5,-357.104"/>
</g>
<!-- number&#45;&gt;frac -->
<g id="edge54" class="edge"><title>number&#45;&gt;frac</title>
<path fill="none" stroke="grey" d="M465.798,-382.697C474.604,-374.135 485.382,-363.656 495.001,-354.304"/>
<polygon fill="grey" stroke="grey" points="497.677,-356.585 502.407,-347.104 492.797,-351.566 497.677,-356.585"/>
</g>
<!-- number&#45;&gt;exp -->
<g id="edge55" class="edge"><title>number&#45;&gt;exp</title>
<path fill="none" stroke="grey" d="M430.202,-382.697C421.396,-374.135 410.618,-363.656 400.999,-354.304"/>
<polygon fill="grey" stroke="grey" points="403.203,-351.566 393.593,-347.104 398.323,-356.585 403.203,-351.566"/>
</g>
<!-- elements&#45;&gt;value -->
<g id="edge47" class="edge"><title>elements&#45;&gt;value</title>
<path fill="none" stroke="grey" d="M760.598,-331.451C695.928,-335.098 554.507,-347.087 525,-383 514.843,-395.363 515.075,-406.45 525,-419 568.064,-473.454 610.944,-433.636 677,-455 678.421,-455.459 679.861,-455.947 681.31,-456.455"/>
<polygon fill="grey" stroke="grey" points="680.289,-459.81 690.881,-460.041 682.745,-453.255 680.289,-459.81"/>
</g>
<!-- digits -->
<g id="node33" class="node"><title>digits</title>
<polygon fill="white" stroke="black" points="475,-275 421,-275 421,-239 475,-239 475,-275"/>
<text text-anchor="middle" x="448" y="-253.3" font-family="Times,serif" font-size="14.00">digits</text>
</g>
<!-- int&#45;&gt;digits -->
<g id="edge56" class="edge"><title>int&#45;&gt;digits</title>
<path fill="none" stroke="grey" d="M448,-310.697C448,-302.983 448,-293.712 448,-285.112"/>
<polygon fill="grey" stroke="grey" points="451.5,-285.104 448,-275.104 444.5,-285.104 451.5,-285.104"/>
</g>
<!-- &#39;&#45;&#39; -->
<g id="node34" class="node"><title>&#39;&#45;&#39;</title>
<polygon fill="white" stroke="black" points="547,-275 493,-275 493,-239 547,-239 547,-275"/>
<text text-anchor="middle" x="520" y="-253.3" font-family="Times,serif" font-size="14.00">&#39;&#45;&#39;</text>
</g>
<!-- int&#45;&gt;&#39;&#45;&#39; -->
<g id="edge57" class="edge"><title>int&#45;&gt;&#39;&#45;&#39;</title>
<path fill="none" stroke="grey" d="M465.798,-310.697C474.604,-302.135 485.382,-291.656 495.001,-282.304"/>
<polygon fill="grey" stroke="grey" points="497.677,-284.585 502.407,-275.104 492.797,-279.566 497.677,-284.585"/>
</g>
<!-- int&#45;&gt;digits -->
<g id="edge58" class="edge"><title>int&#45;&gt;digits</title>
<path fill="none" stroke="grey" d="M448,-310.697C448,-302.983 448,-293.712 448,-285.112"/>
<polygon fill="grey" stroke="grey" points="451.5,-285.104 448,-275.104 444.5,-285.104 451.5,-285.104"/>
</g>
<!-- &#39;.&#39; -->
<g id="node36" class="node"><title>&#39;.&#39;</title>
<polygon fill="white" stroke="black" points="619,-275 565,-275 565,-239 619,-239 619,-275"/>
<text text-anchor="middle" x="592" y="-253.3" font-family="Times,serif" font-size="14.00">&#39;.&#39;</text>
</g>
<!-- frac&#45;&gt;&#39;.&#39; -->
<g id="edge60" class="edge"><title>frac&#45;&gt;&#39;.&#39;</title>
<path fill="none" stroke="grey" d="M537.798,-310.697C546.604,-302.135 557.382,-291.656 567.001,-282.304"/>
<polygon fill="grey" stroke="grey" points="569.677,-284.585 574.407,-275.104 564.797,-279.566 569.677,-284.585"/>
</g>
<!-- frac&#45;&gt;digits -->
<g id="edge61" class="edge"><title>frac&#45;&gt;digits</title>
<path fill="none" stroke="grey" d="M502.202,-310.697C493.396,-302.135 482.618,-291.656 472.999,-282.304"/>
<polygon fill="grey" stroke="grey" points="475.203,-279.566 465.593,-275.104 470.323,-284.585 475.203,-279.566"/>
</g>
<!-- e -->
<g id="node37" class="node"><title>e</title>
<polygon fill="white" stroke="black" points="403,-275 349,-275 349,-239 403,-239 403,-275"/>
<text text-anchor="middle" x="376" y="-253.3" font-family="Times,serif" font-size="14.00">e</text>
</g>
<!-- exp&#45;&gt;e -->
<g id="edge62" class="edge"><title>exp&#45;&gt;e</title>
<path fill="none" stroke="grey" d="M376,-310.697C376,-302.983 376,-293.712 376,-285.112"/>
<polygon fill="grey" stroke="grey" points="379.5,-285.104 376,-275.104 372.5,-285.104 379.5,-285.104"/>
</g>
<!-- exp&#45;&gt;digits -->
<g id="edge63" class="edge"><title>exp&#45;&gt;digits</title>
<path fill="none" stroke="grey" d="M393.798,-310.697C402.604,-302.135 413.382,-291.656 423.001,-282.304"/>
<polygon fill="grey" stroke="grey" points="425.677,-284.585 430.407,-275.104 420.797,-279.566 425.677,-284.585"/>
</g>
<!-- [\\d] -->
<g id="node35" class="node"><title>[\\d]</title>
<polygon fill="white" stroke="black" points="655,-203 601,-203 601,-167 655,-167 655,-203"/>
<text text-anchor="middle" x="628" y="-181.3" font-family="Times,serif" font-size="14.00">[\d]</text>
</g>
<!-- digits&#45;&gt;[\\d] -->
<g id="edge59" class="edge"><title>digits&#45;&gt;[\\d]</title>
<path fill="none" stroke="grey" d="M475.368,-242.663C478.262,-241.377 481.177,-240.132 484,-239 528.208,-221.268 543.277,-221.711 591.273,-203.052"/>
<polygon fill="grey" stroke="grey" points="592.629,-206.279 600.632,-199.337 590.046,-199.773 592.629,-206.279"/>
</g>
<!-- &#39;e&#39; -->
<g id="node38" class="node"><title>&#39;e&#39;</title>
<polygon fill="white" stroke="black" points="223,-203 169,-203 169,-167 223,-167 223,-203"/>
<text text-anchor="middle" x="196" y="-181.3" font-family="Times,serif" font-size="14.00">&#39;e&#39;</text>
</g>
<!-- e&#45;&gt;&#39;e&#39; -->
<g id="edge64" class="edge"><title>e&#45;&gt;&#39;e&#39;</title>
<path fill="none" stroke="grey" d="M348.918,-246.837C321.645,-237.435 278.228,-221.994 232.492,-203.037"/>
<polygon fill="grey" stroke="grey" points="233.587,-199.701 223.011,-199.069 230.885,-206.158 233.587,-199.701"/>
</g>
<!-- &#39;e+&#39; -->
<g id="node39" class="node"><title>&#39;e+&#39;</title>
<polygon fill="white" stroke="black" points="295,-203 241,-203 241,-167 295,-167 295,-203"/>
<text text-anchor="middle" x="268" y="-181.3" font-family="Times,serif" font-size="14.00">&#39;e+&#39;</text>
</g>
<!-- e&#45;&gt;&#39;e+&#39; -->
<g id="edge65" class="edge"><title>e&#45;&gt;&#39;e+&#39;</title>
<path fill="none" stroke="grey" d="M349.58,-238.876C335.59,-229.808 318.224,-218.552 303.114,-208.759"/>
<polygon fill="grey" stroke="grey" points="304.817,-205.692 294.521,-203.19 301.009,-211.566 304.817,-205.692"/>
</g>
<!-- &#39;e&#45;&#39; -->
<g id="node40" class="node"><title>&#39;e&#45;&#39;</title>
<polygon fill="white" stroke="black" points="367,-203 313,-203 313,-167 367,-167 367,-203"/>
<text text-anchor="middle" x="340" y="-181.3" font-family="Times,serif" font-size="14.00">&#39;e&#45;&#39;</text>
</g>
<!-- e&#45;&gt;&#39;e&#45;&#39; -->
<g id="edge66" class="edge"><title>e&#45;&gt;&#39;e&#45;&#39;</title>
<path fill="none" stroke="grey" d="M367.101,-238.697C363.003,-230.728 358.051,-221.1 353.507,-212.264"/>
<polygon fill="grey" stroke="grey" points="356.483,-210.396 348.797,-203.104 350.258,-213.598 356.483,-210.396"/>
</g>
<!-- &#39;E&#39; -->
<g id="node41" class="node"><title>&#39;E&#39;</title>
<polygon fill="white" stroke="black" points="439,-203 385,-203 385,-167 439,-167 439,-203"/>
<text text-anchor="middle" x="412" y="-181.3" font-family="Times,serif" font-size="14.00">&#39;E&#39;</text>
</g>
<!-- e&#45;&gt;&#39;E&#39; -->
<g id="edge67" class="edge"><title>e&#45;&gt;&#39;E&#39;</title>
<path fill="none" stroke="grey" d="M384.899,-238.697C388.997,-230.728 393.949,-221.1 398.493,-212.264"/>
<polygon fill="grey" stroke="grey" points="401.742,-213.598 403.203,-203.104 395.517,-210.396 401.742,-213.598"/>
</g>
<!-- &#39;E+&#39; -->
<g id="node42" class="node"><title>&#39;E+&#39;</title>
<polygon fill="white" stroke="black" points="511,-203 457,-203 457,-167 511,-167 511,-203"/>
<text text-anchor="middle" x="484" y="-181.3" font-family="Times,serif" font-size="14.00">&#39;E+&#39;</text>
</g>
<!-- e&#45;&gt;&#39;E+&#39; -->
<g id="edge68" class="edge"><title>e&#45;&gt;&#39;E+&#39;</title>
<path fill="none" stroke="grey" d="M402.42,-238.876C416.41,-229.808 433.776,-218.552 448.886,-208.759"/>
<polygon fill="grey" stroke="grey" points="450.991,-211.566 457.479,-203.19 447.183,-205.692 450.991,-211.566"/>
</g>
<!-- &#39;E&#45;&#39; -->
<g id="node43" class="node"><title>&#39;E&#45;&#39;</title>
<polygon fill="white" stroke="black" points="583,-203 529,-203 529,-167 583,-167 583,-203"/>
<text text-anchor="middle" x="556" y="-181.3" font-family="Times,serif" font-size="14.00">&#39;E&#45;&#39;</text>
</g>
<!-- e&#45;&gt;&#39;E&#45;&#39; -->
<g id="edge69" class="edge"><title>e&#45;&gt;&#39;E&#45;&#39;</title>
<path fill="none" stroke="grey" d="M403.368,-242.663C406.262,-241.377 409.177,-240.132 412,-239 456.208,-221.268 471.277,-221.711 519.273,-203.052"/>
<polygon fill="grey" stroke="grey" points="520.629,-206.279 528.632,-199.337 518.046,-199.773 520.629,-206.279"/>
</g>
<!-- quote -->
<g id="node45" class="node"><title>quote</title>
<polygon fill="white" stroke="black" points="54,-275 0,-275 0,-239 54,-239 54,-275"/>
<text text-anchor="middle" x="27" y="-253.3" font-family="Times,serif" font-size="14.00">quote</text>
</g>
<!-- string lexeme&#45;&gt;quote -->
<g id="edge71" class="edge"><title>string lexeme&#45;&gt;quote</title>
<path fill="none" stroke="grey" d="M61.6292,-310.697C56.2815,-302.559 49.7957,-292.689 43.8894,-283.701"/>
<polygon fill="grey" stroke="grey" points="46.6568,-281.539 38.24,-275.104 40.8068,-285.384 46.6568,-281.539"/>
</g>
<!-- string contents -->
<g id="node46" class="node"><title>string contents</title>
<polygon fill="white" stroke="black" points="168,-275 72,-275 72,-239 168,-239 168,-275"/>
<text text-anchor="middle" x="120" y="-253.3" font-family="Times,serif" font-size="14.00">string contents</text>
</g>
<!-- string lexeme&#45;&gt;string contents -->
<g id="edge72" class="edge"><title>string lexeme&#45;&gt;string contents</title>
<path fill="none" stroke="grey" d="M84.618,-310.697C90.1388,-302.474 96.847,-292.483 102.932,-283.421"/>
<polygon fill="grey" stroke="grey" points="105.847,-285.358 108.516,-275.104 100.035,-281.456 105.847,-285.358"/>
</g>
<!-- string lexeme&#45;&gt;quote -->
<g id="edge73" class="edge"><title>string lexeme&#45;&gt;quote</title>
<path fill="none" stroke="grey" d="M61.6292,-310.697C56.2815,-302.559 49.7957,-292.689 43.8894,-283.701"/>
<polygon fill="grey" stroke="grey" points="46.6568,-281.539 38.24,-275.104 40.8068,-285.384 46.6568,-281.539"/>
</g>
<!-- [ꞌꞌ] -->
<g id="node47" class="node"><title>[ꞌꞌ]</title>
<polygon fill="white" stroke="black" points="54,-203 0,-203 0,-167 54,-167 54,-203"/>
<text text-anchor="middle" x="27" y="-181.3" font-family="Times,serif" font-size="14.00">[ꞌꞌ]</text>
</g>
<!-- quote&#45;&gt;[ꞌꞌ] -->
<g id="edge74" class="edge"><title>quote&#45;&gt;[ꞌꞌ]</title>
<path fill="none" stroke="grey" d="M27,-238.697C27,-230.983 27,-221.712 27,-213.112"/>
<polygon fill="grey" stroke="grey" points="30.5001,-213.104 27,-203.104 23.5001,-213.104 30.5001,-213.104"/>
</g>
<!-- string char -->
<g id="node48" class="node"><title>string char</title>
<polygon fill="white" stroke="black" points="151,-203 77,-203 77,-167 151,-167 151,-203"/>
<text text-anchor="middle" x="114" y="-181.3" font-family="Times,serif" font-size="14.00">string char</text>
</g>
<!-- string contents&#45;&gt;string char -->
<g id="edge75" class="edge"><title>string contents&#45;&gt;string char</title>
<path fill="none" stroke="grey" d="M118.517,-238.697C117.856,-230.983 117.061,-221.712 116.324,-213.112"/>
<polygon fill="grey" stroke="grey" points="119.807,-212.769 115.466,-203.104 112.833,-213.367 119.807,-212.769"/>
</g>
<!-- [^ꞌꞌ\\\\] -->
<g id="node49" class="node"><title>[^ꞌꞌ\\\\]</title>
<polygon fill="white" stroke="black" points="69,-131 15,-131 15,-95 69,-95 69,-131"/>
<text text-anchor="middle" x="42" y="-109.3" font-family="Times,serif" font-size="14.00">[^ꞌꞌ\\]</text>
</g>
<!-- string char&#45;&gt;[^ꞌꞌ\\\\] -->
<g id="edge76" class="edge"><title>string char&#45;&gt;[^ꞌꞌ\\\\]</title>
<path fill="none" stroke="grey" d="M96.2022,-166.697C87.396,-158.135 76.6179,-147.656 66.9989,-138.304"/>
<polygon fill="grey" stroke="grey" points="69.2028,-135.566 59.593,-131.104 64.3232,-140.585 69.2028,-135.566"/>
</g>
<!-- &#39;\\&#39; -->
<g id="node50" class="node"><title>&#39;\\&#39;</title>
<polygon fill="white" stroke="black" points="141,-131 87,-131 87,-95 141,-95 141,-131"/>
<text text-anchor="middle" x="114" y="-109.3" font-family="Times,serif" font-size="14.00">&#39;\&#39;</text>
</g>
<!-- string char&#45;&gt;&#39;\\&#39; -->
<g id="edge77" class="edge"><title>string char&#45;&gt;&#39;\\&#39;</title>
<path fill="none" stroke="grey" d="M114,-166.697C114,-158.983 114,-149.712 114,-141.112"/>
<polygon fill="grey" stroke="grey" points="117.5,-141.104 114,-131.104 110.5,-141.104 117.5,-141.104"/>
</g>
<!-- any char -->
<g id="node51" class="node"><title>any char</title>
<polygon fill="white" stroke="black" points="222.25,-131 159.75,-131 159.75,-95 222.25,-95 222.25,-131"/>
<text text-anchor="middle" x="191" y="-109.3" font-family="Times,serif" font-size="14.00">any char</text>
</g>
<!-- string char&#45;&gt;any char -->
<g id="edge78" class="edge"><title>string char&#45;&gt;any char</title>
<path fill="none" stroke="grey" d="M133.034,-166.697C142.545,-158.05 154.207,-147.449 164.57,-138.027"/>
<polygon fill="grey" stroke="grey" points="167.14,-140.421 172.185,-131.104 162.431,-135.241 167.14,-140.421"/>
</g>
<!-- [\\d\\D] -->
<g id="node52" class="node"><title>[\\d\\D]</title>
<polygon fill="white" stroke="black" points="218,-59 164,-59 164,-23 218,-23 218,-59"/>
<text text-anchor="middle" x="191" y="-37.3" font-family="Times,serif" font-size="14.00">[\d\D]</text>
</g>
<!-- any char&#45;&gt;[\\d\\D] -->
<g id="edge79" class="edge"><title>any char&#45;&gt;[\\d\\D]</title>
<path fill="none" stroke="grey" d="M191,-94.6966C191,-86.9827 191,-77.7125 191,-69.1124"/>
<polygon fill="grey" stroke="grey" points="194.5,-69.1043 191,-59.1043 187.5,-69.1044 194.5,-69.1043"/>
</g>
<!-- comma -->
<g id="node53" class="node"><title>comma</title>
<polygon fill="white" stroke="black" points="1172.5,-787 1115.5,-787 1115.5,-751 1172.5,-751 1172.5,-787"/>
<text text-anchor="middle" x="1144" y="-765.3" font-family="Times,serif" font-size="14.00">comma</text>
</g>
<!-- &#39;,&#39; -->
<g id="node54" class="node"><title>&#39;,&#39;</title>
<polygon fill="white" stroke="black" points="1171,-709 1117,-709 1117,-673 1171,-673 1171,-709"/>
<text text-anchor="middle" x="1144" y="-687.3" font-family="Times,serif" font-size="14.00">&#39;,&#39;</text>
</g>
<!-- comma&#45;&gt;&#39;,&#39; -->
<g id="edge80" class="edge"><title>comma&#45;&gt;&#39;,&#39;</title>
<path fill="none" stroke="grey" d="M1144,-750.754C1144,-741.523 1144,-729.935 1144,-719.495"/>
<polygon fill="grey" stroke="grey" points="1147.5,-719.177 1144,-709.177 1140.5,-719.177 1147.5,-719.177"/>
</g>
</g>
</svg>
