<?xml version="1.0" encoding="UTF-8" standalone="no"?>
<!DOCTYPE svg PUBLIC "-//W3C//DTD SVG 1.1//EN"
 "http://www.w3.org/Graphics/SVG/1.1/DTD/svg11.dtd">
<!-- Generated by graphviz version 2.30.1 (20130611.0131)
 -->
<!-- Title: Perl Pages: 1 -->
<svg width="1415pt" height="871pt"
 viewBox="0.00 0.00 1415.00 871.00" xmlns="http://www.w3.org/2000/svg" xmlns:xlink="http://www.w3.org/1999/xlink">
<g id="graph0" class="graph" transform="scale(1 1) rotate(0) translate(4 867)">
<title>Perl</title>
<polygon fill="white" stroke="white" points="-4,5 -4,-867 1412,-867 1412,5 -4,5"/>
<text text-anchor="middle" x="703.5" y="-7.8" font-family="Times,serif" font-size="14.00">json.1.bnf</text>
<!-- json -->
<g id="node1" class="node"><title>json</title>
<path fill="lightgreen" stroke="black" d="M624,-816C624,-816 654,-816 654,-816 660,-816 666,-822 666,-828 666,-828 666,-850 666,-850 666,-856 660,-862 654,-862 654,-862 624,-862 624,-862 618,-862 612,-856 612,-850 612,-850 612,-828 612,-828 612,-822 618,-816 624,-816"/>
<text text-anchor="middle" x="639" y="-846.8" font-family="Times,serif" font-size="14.00">:start</text>
<polyline fill="none" stroke="black" points="612,-839 666,-839 "/>
<text text-anchor="middle" x="639" y="-823.8" font-family="Times,serif" font-size="14.00">json</text>
</g>
<!-- ꞉discard -->
<g id="node2" class="node"><title>꞉discard</title>
<polygon fill="lightblue" stroke="black" points="453.25,-779 394.75,-779 394.75,-743 453.25,-743 453.25,-779"/>
<text text-anchor="middle" x="424" y="-757.3" font-family="Times,serif" font-size="14.00">꞉discard</text>
</g>
<!-- json&#45;&gt;꞉discard -->
<g id="edge1" class="edge"><title>json&#45;&gt;꞉discard</title>
<path fill="none" stroke="grey" d="M611.77,-828.375C574.136,-815.071 506.009,-790.989 462.985,-775.781"/>
<polygon fill="grey" stroke="grey" points="464.009,-772.431 453.414,-772.398 461.676,-779.03 464.009,-772.431"/>
</g>
<!-- object -->
<g id="node4" class="node"><title>object</title>
<polygon fill="white" stroke="black" points="666,-779 612,-779 612,-743 666,-743 666,-779"/>
<text text-anchor="middle" x="639" y="-757.3" font-family="Times,serif" font-size="14.00">object</text>
</g>
<!-- json&#45;&gt;object -->
<g id="edge3" class="edge"><title>json&#45;&gt;object</title>
<path fill="none" stroke="grey" d="M639,-815.609C639,-807.481 639,-798.2 639,-789.671"/>
<polygon fill="grey" stroke="grey" points="642.5,-789.412 639,-779.412 635.5,-789.412 642.5,-789.412"/>
</g>
<!-- array -->
<g id="node5" class="node"><title>array</title>
<polygon fill="white" stroke="black" points="1212,-491 1158,-491 1158,-455 1212,-455 1212,-491"/>
<text text-anchor="middle" x="1185" y="-469.3" font-family="Times,serif" font-size="14.00">array</text>
</g>
<!-- json&#45;&gt;array -->
<g id="edge4" class="edge"><title>json&#45;&gt;array</title>
<path fill="none" stroke="grey" d="M666.121,-836.2C772.703,-828.398 1157,-793.116 1157,-690 1157,-690 1157,-690 1157,-616 1157,-575.27 1168.23,-529.189 1176.46,-500.862"/>
<polygon fill="grey" stroke="grey" points="1179.82,-501.856 1179.33,-491.272 1173.11,-499.847 1179.82,-501.856"/>
</g>
<!-- whitespace -->
<g id="node3" class="node"><title>whitespace</title>
<polygon fill="lightblue" stroke="black" points="322.25,-707 245.75,-707 245.75,-671 322.25,-671 322.25,-707"/>
<text text-anchor="middle" x="284" y="-685.3" font-family="Times,serif" font-size="14.00">whitespace</text>
</g>
<!-- ꞉discard&#45;&gt;whitespace -->
<g id="edge2" class="edge"><title>꞉discard&#45;&gt;whitespace</title>
<path fill="none" stroke="grey" d="M394.651,-745.326C375.147,-735.574 349.2,-722.6 327.334,-711.667"/>
<polygon fill="grey" stroke="grey" points="328.753,-708.464 318.244,-707.122 325.623,-714.725 328.753,-708.464"/>
</g>
<!-- [\\s] -->
<g id="node60" class="node"><title>[\\s]</title>
<polygon fill="white" stroke="black" points="311,-635 257,-635 257,-599 311,-599 311,-635"/>
<text text-anchor="middle" x="284" y="-613.3" font-family="Times,serif" font-size="14.00">[\s]</text>
</g>
<!-- whitespace&#45;&gt;[\\s] -->
<g id="edge92" class="edge"><title>whitespace&#45;&gt;[\\s]</title>
<path fill="none" stroke="grey" d="M284,-670.697C284,-662.983 284,-653.712 284,-645.112"/>
<polygon fill="grey" stroke="grey" points="287.5,-645.104 284,-635.104 280.5,-645.104 287.5,-645.104"/>
</g>
<!-- &#39;{&#39; -->
<g id="node6" class="node"><title>&#39;{&#39;</title>
<polygon fill="white" stroke="black" points="721,-707 667,-707 667,-671 721,-671 721,-707"/>
<text text-anchor="middle" x="694" y="-685.3" font-family="Times,serif" font-size="14.00">&#39;{&#39;</text>
</g>
<!-- object&#45;&gt;&#39;{&#39; -->
<g id="edge5" class="edge"><title>object&#45;&gt;&#39;{&#39;</title>
<path fill="none" stroke="grey" d="M652.596,-742.697C659.123,-734.389 667.068,-724.277 674.247,-715.141"/>
<polygon fill="grey" stroke="grey" points="677.135,-717.13 680.561,-707.104 671.631,-712.805 677.135,-717.13"/>
</g>
<!-- &#39;}&#39; -->
<g id="node7" class="node"><title>&#39;}&#39;</title>
<polygon fill="white" stroke="black" points="611,-707 557,-707 557,-671 611,-671 611,-707"/>
<text text-anchor="middle" x="584" y="-685.3" font-family="Times,serif" font-size="14.00">&#39;}&#39;</text>
</g>
<!-- object&#45;&gt;&#39;}&#39; -->
<g id="edge6" class="edge"><title>object&#45;&gt;&#39;}&#39;</title>
<path fill="none" stroke="grey" d="M625.404,-742.697C618.877,-734.389 610.932,-724.277 603.753,-715.141"/>
<polygon fill="grey" stroke="grey" points="606.369,-712.805 597.439,-707.104 600.865,-717.13 606.369,-712.805"/>
</g>
<!-- action -->
<g id="node8" class="node"><title>action</title>
<polygon fill="white" stroke="black" points="754,-419 700,-419 700,-383 754,-383 754,-419"/>
<text text-anchor="middle" x="727" y="-397.3" font-family="Times,serif" font-size="14.00">action</text>
</g>
<!-- object&#45;&gt;action -->
<g id="edge7" class="edge"><title>object&#45;&gt;action</title>
<path fill="none" stroke="grey" d="M635.419,-742.832C626.21,-694.231 605.913,-552.887 658,-455 665.437,-441.023 678.351,-429.607 691.01,-420.998"/>
<polygon fill="grey" stroke="grey" points="693.107,-423.812 699.662,-415.489 689.347,-417.907 693.107,-423.812"/>
</g>
<!-- =&gt; -->
<g id="node9" class="node"><title>=&gt;</title>
<polygon fill="white" stroke="black" points="959,-419 905,-419 905,-383 959,-383 959,-419"/>
<text text-anchor="middle" x="932" y="-397.3" font-family="Times,serif" font-size="14.00">=&gt;</text>
</g>
<!-- object&#45;&gt;=&gt; -->
<g id="edge8" class="edge"><title>object&#45;&gt;=&gt;</title>
<path fill="none" stroke="grey" d="M666.317,-757.447C764.256,-747.552 1092,-707.734 1092,-618 1092,-618 1092,-618 1092,-544 1092,-503.553 1099.39,-485.653 1073,-455 1046.83,-424.598 1001.39,-411.601 969.179,-406.066"/>
<polygon fill="grey" stroke="grey" points="969.645,-402.596 959.226,-404.518 968.57,-409.513 969.645,-402.596"/>
</g>
<!-- do_empty_object -->
<g id="node10" class="node"><title>do_empty_object</title>
<polygon fill="white" stroke="black" points="538.25,-707 427.75,-707 427.75,-671 538.25,-671 538.25,-707"/>
<text text-anchor="middle" x="483" y="-685.3" font-family="Times,serif" font-size="14.00">do_empty_object</text>
</g>
<!-- object&#45;&gt;do_empty_object -->
<g id="edge9" class="edge"><title>object&#45;&gt;do_empty_object</title>
<path fill="none" stroke="grey" d="M611.827,-747.807C589.338,-737.716 556.863,-723.144 530.147,-711.156"/>
<polygon fill="grey" stroke="grey" points="531.519,-707.935 520.962,-707.034 528.653,-714.322 531.519,-707.935"/>
</g>
<!-- object&#45;&gt;&#39;{&#39; -->
<g id="edge10" class="edge"><title>object&#45;&gt;&#39;{&#39;</title>
<path fill="none" stroke="grey" d="M652.596,-742.697C659.123,-734.389 667.068,-724.277 674.247,-715.141"/>
<polygon fill="grey" stroke="grey" points="677.135,-717.13 680.561,-707.104 671.631,-712.805 677.135,-717.13"/>
</g>
<!-- members -->
<g id="node11" class="node"><title>members</title>
<polygon fill="white" stroke="black" points="409,-707 341,-707 341,-671 409,-671 409,-707"/>
<text text-anchor="middle" x="375" y="-685.3" font-family="Times,serif" font-size="14.00">members</text>
</g>
<!-- object&#45;&gt;members -->
<g id="edge11" class="edge"><title>object&#45;&gt;members</title>
<path fill="none" stroke="grey" d="M611.789,-754.765C571.468,-746.732 493.41,-730.124 418.678,-706.992"/>
<polygon fill="grey" stroke="grey" points="419.7,-703.645 409.111,-703.989 417.603,-710.323 419.7,-703.645"/>
</g>
<!-- object&#45;&gt;&#39;}&#39; -->
<g id="edge12" class="edge"><title>object&#45;&gt;&#39;}&#39;</title>
<path fill="none" stroke="grey" d="M625.404,-742.697C618.877,-734.389 610.932,-724.277 603.753,-715.141"/>
<polygon fill="grey" stroke="grey" points="606.369,-712.805 597.439,-707.104 600.865,-717.13 606.369,-712.805"/>
</g>
<!-- &#39;[&#39; -->
<g id="node21" class="node"><title>&#39;[&#39;</title>
<polygon fill="white" stroke="black" points="1212,-419 1158,-419 1158,-383 1212,-383 1212,-419"/>
<text text-anchor="middle" x="1185" y="-397.3" font-family="Times,serif" font-size="14.00">&#39;[&#39;</text>
</g>
<!-- array&#45;&gt;&#39;[&#39; -->
<g id="edge30" class="edge"><title>array&#45;&gt;&#39;[&#39;</title>
<path fill="none" stroke="grey" d="M1185,-454.697C1185,-446.983 1185,-437.712 1185,-429.112"/>
<polygon fill="grey" stroke="grey" points="1188.5,-429.104 1185,-419.104 1181.5,-429.104 1188.5,-429.104"/>
</g>
<!-- &#39;]&#39; -->
<g id="node22" class="node"><title>&#39;]&#39;</title>
<polygon fill="white" stroke="black" points="1284,-419 1230,-419 1230,-383 1284,-383 1284,-419"/>
<text text-anchor="middle" x="1257" y="-397.3" font-family="Times,serif" font-size="14.00">&#39;]&#39;</text>
</g>
<!-- array&#45;&gt;&#39;]&#39; -->
<g id="edge31" class="edge"><title>array&#45;&gt;&#39;]&#39;</title>
<path fill="none" stroke="grey" d="M1202.8,-454.697C1211.6,-446.135 1222.38,-435.656 1232,-426.304"/>
<polygon fill="grey" stroke="grey" points="1234.68,-428.585 1239.41,-419.104 1229.8,-423.566 1234.68,-428.585"/>
</g>
<!-- array&#45;&gt;action -->
<g id="edge32" class="edge"><title>array&#45;&gt;action</title>
<path fill="none" stroke="grey" d="M1157.72,-467.831C1079.36,-455.855 853.523,-421.338 764.098,-407.67"/>
<polygon fill="grey" stroke="grey" points="764.549,-404.198 754.135,-406.147 763.492,-411.118 764.549,-404.198"/>
</g>
<!-- array&#45;&gt;=&gt; -->
<g id="edge33" class="edge"><title>array&#45;&gt;=&gt;</title>
<path fill="none" stroke="grey" d="M1157.92,-464.509C1112.39,-451.911 1020.43,-426.468 968.987,-412.233"/>
<polygon fill="grey" stroke="grey" points="969.834,-408.837 959.263,-409.543 967.968,-415.583 969.834,-408.837"/>
</g>
<!-- do_empty_array -->
<g id="node23" class="node"><title>do_empty_array</title>
<polygon fill="white" stroke="black" points="1407.5,-419 1302.5,-419 1302.5,-383 1407.5,-383 1407.5,-419"/>
<text text-anchor="middle" x="1355" y="-397.3" font-family="Times,serif" font-size="14.00">do_empty_array</text>
</g>
<!-- array&#45;&gt;do_empty_array -->
<g id="edge34" class="edge"><title>array&#45;&gt;do_empty_array</title>
<path fill="none" stroke="grey" d="M1212.31,-460.753C1236.96,-450.605 1273.85,-435.413 1303.95,-423.019"/>
<polygon fill="grey" stroke="grey" points="1305.55,-426.148 1313.46,-419.104 1302.88,-419.675 1305.55,-426.148"/>
</g>
<!-- array&#45;&gt;&#39;[&#39; -->
<g id="edge35" class="edge"><title>array&#45;&gt;&#39;[&#39;</title>
<path fill="none" stroke="grey" d="M1185,-454.697C1185,-446.983 1185,-437.712 1185,-429.112"/>
<polygon fill="grey" stroke="grey" points="1188.5,-429.104 1185,-419.104 1181.5,-429.104 1188.5,-429.104"/>
</g>
<!-- elements -->
<g id="node24" class="node"><title>elements</title>
<polygon fill="white" stroke="black" points="1139.25,-419 1074.75,-419 1074.75,-383 1139.25,-383 1139.25,-419"/>
<text text-anchor="middle" x="1107" y="-397.3" font-family="Times,serif" font-size="14.00">elements</text>
</g>
<!-- array&#45;&gt;elements -->
<g id="edge36" class="edge"><title>array&#45;&gt;elements</title>
<path fill="none" stroke="grey" d="M1165.72,-454.697C1156.08,-446.05 1144.27,-435.449 1133.77,-426.027"/>
<polygon fill="grey" stroke="grey" points="1135.84,-423.179 1126.06,-419.104 1131.16,-428.388 1135.84,-423.179"/>
</g>
<!-- array&#45;&gt;&#39;]&#39; -->
<g id="edge37" class="edge"><title>array&#45;&gt;&#39;]&#39;</title>
<path fill="none" stroke="grey" d="M1202.8,-454.697C1211.6,-446.135 1222.38,-435.656 1232,-426.304"/>
<polygon fill="grey" stroke="grey" points="1234.68,-428.585 1239.41,-419.104 1229.8,-423.566 1234.68,-428.585"/>
</g>
<!-- pair -->
<g id="node12" class="node"><title>pair</title>
<polygon fill="white" stroke="black" points="458,-635 404,-635 404,-599 458,-599 458,-635"/>
<text text-anchor="middle" x="431" y="-613.3" font-family="Times,serif" font-size="14.00">pair</text>
</g>
<!-- members&#45;&gt;pair -->
<g id="edge13" class="edge"><title>members&#45;&gt;pair</title>
<path fill="none" stroke="grey" d="M388.843,-670.697C395.489,-662.389 403.578,-652.277 410.887,-643.141"/>
<polygon fill="grey" stroke="grey" points="413.803,-645.099 417.317,-635.104 408.336,-640.727 413.803,-645.099"/>
</g>
<!-- string -->
<g id="node13" class="node"><title>string</title>
<polygon fill="white" stroke="black" points="430,-491 376,-491 376,-455 430,-455 430,-491"/>
<text text-anchor="middle" x="403" y="-469.3" font-family="Times,serif" font-size="14.00">string</text>
</g>
<!-- pair&#45;&gt;string -->
<g id="edge14" class="edge"><title>pair&#45;&gt;string</title>
<path fill="none" stroke="grey" d="M427.623,-598.871C422.829,-574.564 414.007,-529.819 408.327,-501.013"/>
<polygon fill="grey" stroke="grey" points="411.758,-500.323 406.389,-491.189 404.89,-501.677 411.758,-500.323"/>
</g>
<!-- &#39;꞉&#39; -->
<g id="node14" class="node"><title>&#39;꞉&#39;</title>
<polygon fill="white" stroke="black" points="485,-563 431,-563 431,-527 485,-527 485,-563"/>
<text text-anchor="middle" x="458" y="-541.3" font-family="Times,serif" font-size="14.00">&#39;꞉&#39;</text>
</g>
<!-- pair&#45;&gt;&#39;꞉&#39; -->
<g id="edge15" class="edge"><title>pair&#45;&gt;&#39;꞉&#39;</title>
<path fill="none" stroke="grey" d="M437.674,-598.697C440.715,-590.813 444.383,-581.304 447.761,-572.546"/>
<polygon fill="grey" stroke="grey" points="451.069,-573.694 451.403,-563.104 444.538,-571.175 451.069,-573.694"/>
</g>
<!-- value -->
<g id="node15" class="node"><title>value</title>
<polygon fill="white" stroke="black" points="823,-563 769,-563 769,-527 823,-527 823,-563"/>
<text text-anchor="middle" x="796" y="-541.3" font-family="Times,serif" font-size="14.00">value</text>
</g>
<!-- pair&#45;&gt;value -->
<g id="edge16" class="edge"><title>pair&#45;&gt;value</title>
<path fill="none" stroke="grey" d="M458.136,-610.796C522.541,-598.444 684.734,-567.339 758.47,-553.198"/>
<polygon fill="grey" stroke="grey" points="759.523,-556.559 768.685,-551.238 758.205,-549.685 759.523,-556.559"/>
</g>
<!-- lstring -->
<g id="node39" class="node"><title>lstring</title>
<polygon fill="white" stroke="black" points="159,-419 105,-419 105,-383 159,-383 159,-419"/>
<text text-anchor="middle" x="132" y="-397.3" font-family="Times,serif" font-size="14.00">lstring</text>
</g>
<!-- string&#45;&gt;lstring -->
<g id="edge61" class="edge"><title>string&#45;&gt;lstring</title>
<path fill="none" stroke="grey" d="M375.775,-464.968C326.874,-452.337 224.135,-425.799 168.937,-411.541"/>
<polygon fill="grey" stroke="grey" points="169.765,-408.14 159.207,-409.028 168.014,-414.917 169.765,-408.14"/>
</g>
<!-- value&#45;&gt;string -->
<g id="edge17" class="edge"><title>value&#45;&gt;string</title>
<path fill="none" stroke="grey" d="M768.988,-539.189C700.278,-526.95 518.741,-494.615 440.146,-480.616"/>
<polygon fill="grey" stroke="grey" points="440.66,-477.153 430.202,-478.845 439.433,-484.044 440.66,-477.153"/>
</g>
<!-- value&#45;&gt;object -->
<g id="edge18" class="edge"><title>value&#45;&gt;object</title>
<path fill="none" stroke="grey" d="M792.775,-563.201C786.071,-594.92 767.981,-663.364 730,-707 715.281,-723.911 693.783,-736.781 675.378,-745.602"/>
<polygon fill="grey" stroke="grey" points="673.73,-742.507 666.088,-749.846 676.638,-748.875 673.73,-742.507"/>
</g>
<!-- number -->
<g id="node16" class="node"><title>number</title>
<polygon fill="white" stroke="black" points="581.25,-491 522.75,-491 522.75,-455 581.25,-455 581.25,-491"/>
<text text-anchor="middle" x="552" y="-469.3" font-family="Times,serif" font-size="14.00">number</text>
</g>
<!-- value&#45;&gt;number -->
<g id="edge19" class="edge"><title>value&#45;&gt;number</title>
<path fill="none" stroke="grey" d="M768.955,-536.241C725.773,-523.853 641.054,-499.548 591.218,-485.251"/>
<polygon fill="grey" stroke="grey" points="592.017,-481.839 581.44,-482.446 590.087,-488.568 592.017,-481.839"/>
</g>
<!-- value&#45;&gt;array -->
<g id="edge20" class="edge"><title>value&#45;&gt;array</title>
<path fill="none" stroke="grey" d="M823.098,-542.114C882.282,-537.511 1027.15,-523.602 1144,-491 1145.44,-490.599 1146.89,-490.161 1148.35,-489.694"/>
<polygon fill="grey" stroke="grey" points="1149.72,-492.922 1157.98,-486.28 1147.38,-486.325 1149.72,-492.922"/>
</g>
<!-- &#39;true&#39; -->
<g id="node17" class="node"><title>&#39;true&#39;</title>
<polygon fill="white" stroke="black" points="916,-491 862,-491 862,-455 916,-455 916,-491"/>
<text text-anchor="middle" x="889" y="-469.3" font-family="Times,serif" font-size="14.00">&#39;true&#39;</text>
</g>
<!-- value&#45;&gt;&#39;true&#39; -->
<g id="edge21" class="edge"><title>value&#45;&gt;&#39;true&#39;</title>
<path fill="none" stroke="grey" d="M818.989,-526.697C830.814,-517.796 845.392,-506.823 858.179,-497.199"/>
<polygon fill="grey" stroke="grey" points="860.391,-499.915 866.276,-491.104 856.181,-494.322 860.391,-499.915"/>
</g>
<!-- value&#45;&gt;action -->
<g id="edge22" class="edge"><title>value&#45;&gt;action</title>
<path fill="none" stroke="grey" d="M787.677,-526.871C775.762,-502.35 753.741,-457.032 739.76,-428.259"/>
<polygon fill="grey" stroke="grey" points="742.871,-426.654 735.353,-419.189 736.575,-429.713 742.871,-426.654"/>
</g>
<!-- value&#45;&gt;=&gt; -->
<g id="edge23" class="edge"><title>value&#45;&gt;=&gt;</title>
<path fill="none" stroke="grey" d="M804.281,-526.805C814.052,-507.726 831.693,-476.766 853,-455 865.534,-442.197 881.631,-430.727 896.022,-421.76"/>
<polygon fill="grey" stroke="grey" points="897.963,-424.676 904.714,-416.51 894.344,-418.684 897.963,-424.676"/>
</g>
<!-- do_true -->
<g id="node18" class="node"><title>do_true</title>
<polygon fill="white" stroke="black" points="991.5,-491 934.5,-491 934.5,-455 991.5,-455 991.5,-491"/>
<text text-anchor="middle" x="963" y="-469.3" font-family="Times,serif" font-size="14.00">do_true</text>
</g>
<!-- value&#45;&gt;do_true -->
<g id="edge24" class="edge"><title>value&#45;&gt;do_true</title>
<path fill="none" stroke="grey" d="M823.282,-533.076C849.462,-522.525 890.065,-505.987 925,-491 925.095,-490.959 925.191,-490.918 925.287,-490.877"/>
<polygon fill="grey" stroke="grey" points="926.637,-494.106 934.408,-486.905 923.842,-487.689 926.637,-494.106"/>
</g>
<!-- &#39;false&#39; -->
<g id="node19" class="node"><title>&#39;false&#39;</title>
<polygon fill="white" stroke="black" points="1064,-491 1010,-491 1010,-455 1064,-455 1064,-491"/>
<text text-anchor="middle" x="1037" y="-469.3" font-family="Times,serif" font-size="14.00">&#39;false&#39;</text>
</g>
<!-- value&#45;&gt;&#39;false&#39; -->
<g id="edge25" class="edge"><title>value&#45;&gt;&#39;false&#39;</title>
<path fill="none" stroke="grey" d="M823.189,-538.539C862.728,-530.239 938.13,-513.056 1000,-491 1000.1,-490.964 1000.2,-490.929 1000.3,-490.893"/>
<polygon fill="grey" stroke="grey" points="1001.72,-494.095 1009.74,-487.175 999.157,-487.581 1001.72,-494.095"/>
</g>
<!-- value&#45;&gt;action -->
<g id="edge26" class="edge"><title>value&#45;&gt;action</title>
<path fill="none" stroke="grey" d="M768.778,-541.495C738.126,-537.055 689.647,-524.789 667,-491 658.092,-477.709 660.423,-469.586 667,-455 672.41,-443.003 682.026,-432.63 691.997,-424.321"/>
<polygon fill="grey" stroke="grey" points="694.245,-427.007 699.996,-418.108 689.951,-421.478 694.245,-427.007"/>
</g>
<!-- value&#45;&gt;=&gt; -->
<g id="edge27" class="edge"><title>value&#45;&gt;=&gt;</title>
<path fill="none" stroke="grey" d="M797.136,-526.996C799.267,-507.516 805.393,-475.636 823,-455 841.643,-433.15 871.395,-419.533 895.108,-411.581"/>
<polygon fill="grey" stroke="grey" points="896.364,-414.855 904.851,-408.513 894.261,-408.178 896.364,-414.855"/>
</g>
<!-- value&#45;&gt;do_true -->
<g id="edge28" class="edge"><title>value&#45;&gt;do_true</title>
<path fill="none" stroke="grey" d="M823.282,-533.076C849.462,-522.525 890.065,-505.987 925,-491 925.095,-490.959 925.191,-490.918 925.287,-490.877"/>
<polygon fill="grey" stroke="grey" points="926.637,-494.106 934.408,-486.905 923.842,-487.689 926.637,-494.106"/>
</g>
<!-- &#39;null&#39; -->
<g id="node20" class="node"><title>&#39;null&#39;</title>
<polygon fill="white" stroke="black" points="730,-491 676,-491 676,-455 730,-455 730,-491"/>
<text text-anchor="middle" x="703" y="-469.3" font-family="Times,serif" font-size="14.00">&#39;null&#39;</text>
</g>
<!-- value&#45;&gt;&#39;null&#39; -->
<g id="edge29" class="edge"><title>value&#45;&gt;&#39;null&#39;</title>
<path fill="none" stroke="grey" d="M773.011,-526.697C761.186,-517.796 746.608,-506.823 733.821,-497.199"/>
<polygon fill="grey" stroke="grey" points="735.819,-494.322 725.724,-491.104 731.609,-499.915 735.819,-494.322"/>
</g>
<!-- int -->
<g id="node25" class="node"><title>int</title>
<polygon fill="white" stroke="black" points="579,-419 525,-419 525,-383 579,-383 579,-419"/>
<text text-anchor="middle" x="552" y="-397.3" font-family="Times,serif" font-size="14.00">int</text>
</g>
<!-- number&#45;&gt;int -->
<g id="edge39" class="edge"><title>number&#45;&gt;int</title>
<path fill="none" stroke="grey" d="M546.084,-454.697C545.289,-446.983 545.062,-437.712 545.405,-429.112"/>
<polygon fill="grey" stroke="grey" points="548.898,-429.324 546.105,-419.104 541.915,-428.836 548.898,-429.324"/>
</g>
<!-- number&#45;&gt;int -->
<g id="edge40" class="edge"><title>number&#45;&gt;int</title>
<path fill="none" stroke="grey" d="M557.916,-454.697C558.711,-446.983 558.938,-437.712 558.595,-429.112"/>
<polygon fill="grey" stroke="grey" points="562.085,-428.836 557.895,-419.104 555.102,-429.324 562.085,-428.836"/>
</g>
<!-- frac -->
<g id="node26" class="node"><title>frac</title>
<polygon fill="white" stroke="black" points="651,-419 597,-419 597,-383 651,-383 651,-419"/>
<text text-anchor="middle" x="624" y="-397.3" font-family="Times,serif" font-size="14.00">frac</text>
</g>
<!-- number&#45;&gt;frac -->
<g id="edge41" class="edge"><title>number&#45;&gt;frac</title>
<path fill="none" stroke="grey" d="M569.798,-454.697C578.604,-446.135 589.382,-435.656 599.001,-426.304"/>
<polygon fill="grey" stroke="grey" points="601.677,-428.585 606.407,-419.104 596.797,-423.566 601.677,-428.585"/>
</g>
<!-- number&#45;&gt;int -->
<g id="edge42" class="edge"><title>number&#45;&gt;int</title>
<path fill="none" stroke="grey" d="M552,-454.697C552,-446.983 552,-437.712 552,-429.112"/>
<polygon fill="grey" stroke="grey" points="555.5,-429.104 552,-419.104 548.5,-429.104 555.5,-429.104"/>
</g>
<!-- exp -->
<g id="node27" class="node"><title>exp</title>
<polygon fill="white" stroke="black" points="507,-419 453,-419 453,-383 507,-383 507,-419"/>
<text text-anchor="middle" x="480" y="-397.3" font-family="Times,serif" font-size="14.00">exp</text>
</g>
<!-- number&#45;&gt;exp -->
<g id="edge43" class="edge"><title>number&#45;&gt;exp</title>
<path fill="none" stroke="grey" d="M534.202,-454.697C525.396,-446.135 514.618,-435.656 504.999,-426.304"/>
<polygon fill="grey" stroke="grey" points="507.203,-423.566 497.593,-419.104 502.323,-428.585 507.203,-423.566"/>
</g>
<!-- number&#45;&gt;int -->
<g id="edge44" class="edge"><title>number&#45;&gt;int</title>
<path fill="none" stroke="grey" d="M552,-454.697C552,-446.983 552,-437.712 552,-429.112"/>
<polygon fill="grey" stroke="grey" points="555.5,-429.104 552,-419.104 548.5,-429.104 555.5,-429.104"/>
</g>
<!-- number&#45;&gt;frac -->
<g id="edge45" class="edge"><title>number&#45;&gt;frac</title>
<path fill="none" stroke="grey" d="M569.798,-454.697C578.604,-446.135 589.382,-435.656 599.001,-426.304"/>
<polygon fill="grey" stroke="grey" points="601.677,-428.585 606.407,-419.104 596.797,-423.566 601.677,-428.585"/>
</g>
<!-- number&#45;&gt;exp -->
<g id="edge46" class="edge"><title>number&#45;&gt;exp</title>
<path fill="none" stroke="grey" d="M534.202,-454.697C525.396,-446.135 514.618,-435.656 504.999,-426.304"/>
<polygon fill="grey" stroke="grey" points="507.203,-423.566 497.593,-419.104 502.323,-428.585 507.203,-423.566"/>
</g>
<!-- elements&#45;&gt;value -->
<g id="edge38" class="edge"><title>elements&#45;&gt;value</title>
<path fill="none" stroke="grey" d="M1105.36,-419.269C1102.47,-439.619 1094.55,-472.94 1073,-491 1037.11,-521.075 900.224,-535.795 833.292,-541.316"/>
<polygon fill="grey" stroke="grey" points="832.866,-537.839 823.177,-542.124 833.424,-544.817 832.866,-537.839"/>
</g>
<!-- digits -->
<g id="node28" class="node"><title>digits</title>
<polygon fill="white" stroke="black" points="615,-347 561,-347 561,-311 615,-311 615,-347"/>
<text text-anchor="middle" x="588" y="-325.3" font-family="Times,serif" font-size="14.00">digits</text>
</g>
<!-- int&#45;&gt;digits -->
<g id="edge47" class="edge"><title>int&#45;&gt;digits</title>
<path fill="none" stroke="grey" d="M560.899,-382.697C564.997,-374.728 569.949,-365.1 574.493,-356.264"/>
<polygon fill="grey" stroke="grey" points="577.742,-357.598 579.203,-347.104 571.517,-354.396 577.742,-357.598"/>
</g>
<!-- &#39;&#45;&#39; -->
<g id="node29" class="node"><title>&#39;&#45;&#39;</title>
<polygon fill="white" stroke="black" points="543,-347 489,-347 489,-311 543,-311 543,-347"/>
<text text-anchor="middle" x="516" y="-325.3" font-family="Times,serif" font-size="14.00">&#39;&#45;&#39;</text>
</g>
<!-- int&#45;&gt;&#39;&#45;&#39; -->
<g id="edge48" class="edge"><title>int&#45;&gt;&#39;&#45;&#39;</title>
<path fill="none" stroke="grey" d="M543.101,-382.697C539.003,-374.728 534.051,-365.1 529.507,-356.264"/>
<polygon fill="grey" stroke="grey" points="532.483,-354.396 524.797,-347.104 526.258,-357.598 532.483,-354.396"/>
</g>
<!-- int&#45;&gt;digits -->
<g id="edge49" class="edge"><title>int&#45;&gt;digits</title>
<path fill="none" stroke="grey" d="M560.899,-382.697C564.997,-374.728 569.949,-365.1 574.493,-356.264"/>
<polygon fill="grey" stroke="grey" points="577.742,-357.598 579.203,-347.104 571.517,-354.396 577.742,-357.598"/>
</g>
<!-- &#39;.&#39; -->
<g id="node31" class="node"><title>&#39;.&#39;</title>
<polygon fill="white" stroke="black" points="687,-347 633,-347 633,-311 687,-311 687,-347"/>
<text text-anchor="middle" x="660" y="-325.3" font-family="Times,serif" font-size="14.00">&#39;.&#39;</text>
</g>
<!-- frac&#45;&gt;&#39;.&#39; -->
<g id="edge51" class="edge"><title>frac&#45;&gt;&#39;.&#39;</title>
<path fill="none" stroke="grey" d="M632.899,-382.697C636.997,-374.728 641.949,-365.1 646.493,-356.264"/>
<polygon fill="grey" stroke="grey" points="649.742,-357.598 651.203,-347.104 643.517,-354.396 649.742,-357.598"/>
</g>
<!-- frac&#45;&gt;digits -->
<g id="edge52" class="edge"><title>frac&#45;&gt;digits</title>
<path fill="none" stroke="grey" d="M615.101,-382.697C611.003,-374.728 606.051,-365.1 601.507,-356.264"/>
<polygon fill="grey" stroke="grey" points="604.483,-354.396 596.797,-347.104 598.258,-357.598 604.483,-354.396"/>
</g>
<!-- e -->
<g id="node32" class="node"><title>e</title>
<polygon fill="white" stroke="black" points="471,-347 417,-347 417,-311 471,-311 471,-347"/>
<text text-anchor="middle" x="444" y="-325.3" font-family="Times,serif" font-size="14.00">e</text>
</g>
<!-- exp&#45;&gt;e -->
<g id="edge53" class="edge"><title>exp&#45;&gt;e</title>
<path fill="none" stroke="grey" d="M471.101,-382.697C467.003,-374.728 462.051,-365.1 457.507,-356.264"/>
<polygon fill="grey" stroke="grey" points="460.483,-354.396 452.797,-347.104 454.258,-357.598 460.483,-354.396"/>
</g>
<!-- exp&#45;&gt;digits -->
<g id="edge54" class="edge"><title>exp&#45;&gt;digits</title>
<path fill="none" stroke="grey" d="M506.42,-382.876C520.41,-373.808 537.776,-362.552 552.886,-352.759"/>
<polygon fill="grey" stroke="grey" points="554.991,-355.566 561.479,-347.19 551.183,-349.692 554.991,-355.566"/>
</g>
<!-- [\\d] -->
<g id="node30" class="node"><title>[\\d]</title>
<polygon fill="white" stroke="black" points="723,-275 669,-275 669,-239 723,-239 723,-275"/>
<text text-anchor="middle" x="696" y="-253.3" font-family="Times,serif" font-size="14.00">[\d]</text>
</g>
<!-- digits&#45;&gt;[\\d] -->
<g id="edge50" class="edge"><title>digits&#45;&gt;[\\d]</title>
<path fill="none" stroke="grey" d="M614.42,-310.876C628.41,-301.808 645.776,-290.552 660.886,-280.759"/>
<polygon fill="grey" stroke="grey" points="662.991,-283.566 669.479,-275.19 659.183,-277.692 662.991,-283.566"/>
</g>
<!-- &#39;e&#39; -->
<g id="node33" class="node"><title>&#39;e&#39;</title>
<polygon fill="white" stroke="black" points="291,-275 237,-275 237,-239 291,-239 291,-275"/>
<text text-anchor="middle" x="264" y="-253.3" font-family="Times,serif" font-size="14.00">&#39;e&#39;</text>
</g>
<!-- e&#45;&gt;&#39;e&#39; -->
<g id="edge55" class="edge"><title>e&#45;&gt;&#39;e&#39;</title>
<path fill="none" stroke="grey" d="M416.918,-318.837C389.645,-309.435 346.228,-293.994 300.492,-275.037"/>
<polygon fill="grey" stroke="grey" points="301.587,-271.701 291.011,-271.069 298.885,-278.158 301.587,-271.701"/>
</g>
<!-- &#39;e+&#39; -->
<g id="node34" class="node"><title>&#39;e+&#39;</title>
<polygon fill="white" stroke="black" points="363,-275 309,-275 309,-239 363,-239 363,-275"/>
<text text-anchor="middle" x="336" y="-253.3" font-family="Times,serif" font-size="14.00">&#39;e+&#39;</text>
</g>
<!-- e&#45;&gt;&#39;e+&#39; -->
<g id="edge56" class="edge"><title>e&#45;&gt;&#39;e+&#39;</title>
<path fill="none" stroke="grey" d="M417.58,-310.876C403.59,-301.808 386.224,-290.552 371.114,-280.759"/>
<polygon fill="grey" stroke="grey" points="372.817,-277.692 362.521,-275.19 369.009,-283.566 372.817,-277.692"/>
</g>
<!-- &#39;e&#45;&#39; -->
<g id="node35" class="node"><title>&#39;e&#45;&#39;</title>
<polygon fill="white" stroke="black" points="435,-275 381,-275 381,-239 435,-239 435,-275"/>
<text text-anchor="middle" x="408" y="-253.3" font-family="Times,serif" font-size="14.00">&#39;e&#45;&#39;</text>
</g>
<!-- e&#45;&gt;&#39;e&#45;&#39; -->
<g id="edge57" class="edge"><title>e&#45;&gt;&#39;e&#45;&#39;</title>
<path fill="none" stroke="grey" d="M435.101,-310.697C431.003,-302.728 426.051,-293.1 421.507,-284.264"/>
<polygon fill="grey" stroke="grey" points="424.483,-282.396 416.797,-275.104 418.258,-285.598 424.483,-282.396"/>
</g>
<!-- &#39;E&#39; -->
<g id="node36" class="node"><title>&#39;E&#39;</title>
<polygon fill="white" stroke="black" points="507,-275 453,-275 453,-239 507,-239 507,-275"/>
<text text-anchor="middle" x="480" y="-253.3" font-family="Times,serif" font-size="14.00">&#39;E&#39;</text>
</g>
<!-- e&#45;&gt;&#39;E&#39; -->
<g id="edge58" class="edge"><title>e&#45;&gt;&#39;E&#39;</title>
<path fill="none" stroke="grey" d="M452.899,-310.697C456.997,-302.728 461.949,-293.1 466.493,-284.264"/>
<polygon fill="grey" stroke="grey" points="469.742,-285.598 471.203,-275.104 463.517,-282.396 469.742,-285.598"/>
</g>
<!-- &#39;E+&#39; -->
<g id="node37" class="node"><title>&#39;E+&#39;</title>
<polygon fill="white" stroke="black" points="579,-275 525,-275 525,-239 579,-239 579,-275"/>
<text text-anchor="middle" x="552" y="-253.3" font-family="Times,serif" font-size="14.00">&#39;E+&#39;</text>
</g>
<!-- e&#45;&gt;&#39;E+&#39; -->
<g id="edge59" class="edge"><title>e&#45;&gt;&#39;E+&#39;</title>
<path fill="none" stroke="grey" d="M470.42,-310.876C484.41,-301.808 501.776,-290.552 516.886,-280.759"/>
<polygon fill="grey" stroke="grey" points="518.991,-283.566 525.479,-275.19 515.183,-277.692 518.991,-283.566"/>
</g>
<!-- &#39;E&#45;&#39; -->
<g id="node38" class="node"><title>&#39;E&#45;&#39;</title>
<polygon fill="white" stroke="black" points="651,-275 597,-275 597,-239 651,-239 651,-275"/>
<text text-anchor="middle" x="624" y="-253.3" font-family="Times,serif" font-size="14.00">&#39;E&#45;&#39;</text>
</g>
<!-- e&#45;&gt;&#39;E&#45;&#39; -->
<g id="edge60" class="edge"><title>e&#45;&gt;&#39;E&#45;&#39;</title>
<path fill="none" stroke="grey" d="M471.368,-314.663C474.262,-313.377 477.177,-312.132 480,-311 524.208,-293.268 539.277,-293.711 587.273,-275.052"/>
<polygon fill="grey" stroke="grey" points="588.629,-278.279 596.632,-271.337 586.046,-271.773 588.629,-278.279"/>
</g>
<!-- quote -->
<g id="node40" class="node"><title>quote</title>
<polygon fill="white" stroke="black" points="120,-347 66,-347 66,-311 120,-311 120,-347"/>
<text text-anchor="middle" x="93" y="-325.3" font-family="Times,serif" font-size="14.00">quote</text>
</g>
<!-- lstring&#45;&gt;quote -->
<g id="edge62" class="edge"><title>lstring&#45;&gt;quote</title>
<path fill="none" stroke="grey" d="M122.36,-382.697C117.873,-374.644 112.441,-364.894 107.476,-355.982"/>
<polygon fill="grey" stroke="grey" points="110.454,-354.137 102.53,-347.104 104.339,-357.544 110.454,-354.137"/>
</g>
<!-- in_string -->
<g id="node41" class="node"><title>in_string</title>
<polygon fill="white" stroke="black" points="203.25,-347 138.75,-347 138.75,-311 203.25,-311 203.25,-347"/>
<text text-anchor="middle" x="171" y="-325.3" font-family="Times,serif" font-size="14.00">in_string</text>
</g>
<!-- lstring&#45;&gt;in_string -->
<g id="edge63" class="edge"><title>lstring&#45;&gt;in_string</title>
<path fill="none" stroke="grey" d="M141.64,-382.697C146.127,-374.644 151.559,-364.894 156.524,-355.982"/>
<polygon fill="grey" stroke="grey" points="159.661,-357.544 161.47,-347.104 153.546,-354.137 159.661,-357.544"/>
</g>
<!-- lstring&#45;&gt;quote -->
<g id="edge64" class="edge"><title>lstring&#45;&gt;quote</title>
<path fill="none" stroke="grey" d="M122.36,-382.697C117.873,-374.644 112.441,-364.894 107.476,-355.982"/>
<polygon fill="grey" stroke="grey" points="110.454,-354.137 102.53,-347.104 104.339,-357.544 110.454,-354.137"/>
</g>
<!-- [\\ꞌꞌ] -->
<g id="node42" class="node"><title>[\\ꞌꞌ]</title>
<polygon fill="white" stroke="black" points="105,-275 51,-275 51,-239 105,-239 105,-275"/>
<text text-anchor="middle" x="78" y="-253.3" font-family="Times,serif" font-size="14.00">[\ꞌꞌ]</text>
</g>
<!-- quote&#45;&gt;[\\ꞌꞌ] -->
<g id="edge65" class="edge"><title>quote&#45;&gt;[\\ꞌꞌ]</title>
<path fill="none" stroke="grey" d="M89.2921,-310.697C87.6392,-302.983 85.6527,-293.712 83.8098,-285.112"/>
<polygon fill="grey" stroke="grey" points="87.1829,-284.149 81.6652,-275.104 80.3383,-285.616 87.1829,-284.149"/>
</g>
<!-- in_string_char -->
<g id="node43" class="node"><title>in_string_char</title>
<polygon fill="white" stroke="black" points="218.25,-275 123.75,-275 123.75,-239 218.25,-239 218.25,-275"/>
<text text-anchor="middle" x="171" y="-253.3" font-family="Times,serif" font-size="14.00">in_string_char</text>
</g>
<!-- in_string&#45;&gt;in_string_char -->
<g id="edge66" class="edge"><title>in_string&#45;&gt;in_string_char</title>
<path fill="none" stroke="grey" d="M171,-310.697C171,-302.983 171,-293.712 171,-285.112"/>
<polygon fill="grey" stroke="grey" points="174.5,-285.104 171,-275.104 167.5,-285.104 174.5,-285.104"/>
</g>
<!-- [^ꞌꞌ\\\\] -->
<g id="node44" class="node"><title>[^ꞌꞌ\\\\]</title>
<polygon fill="white" stroke="black" points="54,-203 0,-203 0,-167 54,-167 54,-203"/>
<text text-anchor="middle" x="27" y="-181.3" font-family="Times,serif" font-size="14.00">[^ꞌꞌ\\]</text>
</g>
<!-- in_string_char&#45;&gt;[^ꞌꞌ\\\\] -->
<g id="edge67" class="edge"><title>in_string_char&#45;&gt;[^ꞌꞌ\\\\]</title>
<path fill="none" stroke="grey" d="M135.774,-238.876C113.771,-228.18 85.5059,-214.44 63.3033,-203.647"/>
<polygon fill="grey" stroke="grey" points="64.7189,-200.444 54.195,-199.22 61.6585,-206.74 64.7189,-200.444"/>
</g>
<!-- &#39;\\&#39; -->
<g id="node45" class="node"><title>&#39;\\&#39;</title>
<polygon fill="white" stroke="black" points="126,-203 72,-203 72,-167 126,-167 126,-203"/>
<text text-anchor="middle" x="99" y="-181.3" font-family="Times,serif" font-size="14.00">&#39;\&#39;</text>
</g>
<!-- in_string_char&#45;&gt;&#39;\\&#39; -->
<g id="edge68" class="edge"><title>in_string_char&#45;&gt;&#39;\\&#39;</title>
<path fill="none" stroke="grey" d="M153.202,-238.697C144.396,-230.135 133.618,-219.656 123.999,-210.304"/>
<polygon fill="grey" stroke="grey" points="126.203,-207.566 116.593,-203.104 121.323,-212.585 126.203,-207.566"/>
</g>
<!-- &#39;ꞌꞌ&#39; -->
<g id="node46" class="node"><title>&#39;ꞌꞌ&#39;</title>
<polygon fill="white" stroke="black" points="198,-203 144,-203 144,-167 198,-167 198,-203"/>
<text text-anchor="middle" x="171" y="-181.3" font-family="Times,serif" font-size="14.00">&#39;ꞌꞌ&#39;</text>
</g>
<!-- in_string_char&#45;&gt;&#39;ꞌꞌ&#39; -->
<g id="edge69" class="edge"><title>in_string_char&#45;&gt;&#39;ꞌꞌ&#39;</title>
<path fill="none" stroke="grey" d="M171,-238.697C171,-230.983 171,-221.712 171,-213.112"/>
<polygon fill="grey" stroke="grey" points="174.5,-213.104 171,-203.104 167.5,-213.104 174.5,-213.104"/>
</g>
<!-- in_string_char&#45;&gt;&#39;\\&#39; -->
<g id="edge70" class="edge"><title>in_string_char&#45;&gt;&#39;\\&#39;</title>
<path fill="none" stroke="grey" d="M153.202,-238.697C144.396,-230.135 133.618,-219.656 123.999,-210.304"/>
<polygon fill="grey" stroke="grey" points="126.203,-207.566 116.593,-203.104 121.323,-212.585 126.203,-207.566"/>
</g>
<!-- &#39;b&#39; -->
<g id="node47" class="node"><title>&#39;b&#39;</title>
<polygon fill="white" stroke="black" points="270,-203 216,-203 216,-167 270,-167 270,-203"/>
<text text-anchor="middle" x="243" y="-181.3" font-family="Times,serif" font-size="14.00">&#39;b&#39;</text>
</g>
<!-- in_string_char&#45;&gt;&#39;b&#39; -->
<g id="edge71" class="edge"><title>in_string_char&#45;&gt;&#39;b&#39;</title>
<path fill="none" stroke="grey" d="M188.798,-238.697C197.604,-230.135 208.382,-219.656 218.001,-210.304"/>
<polygon fill="grey" stroke="grey" points="220.677,-212.585 225.407,-203.104 215.797,-207.566 220.677,-212.585"/>
</g>
<!-- in_string_char&#45;&gt;&#39;\\&#39; -->
<g id="edge72" class="edge"><title>in_string_char&#45;&gt;&#39;\\&#39;</title>
<path fill="none" stroke="grey" d="M153.202,-238.697C144.396,-230.135 133.618,-219.656 123.999,-210.304"/>
<polygon fill="grey" stroke="grey" points="126.203,-207.566 116.593,-203.104 121.323,-212.585 126.203,-207.566"/>
</g>
<!-- &#39;f&#39; -->
<g id="node48" class="node"><title>&#39;f&#39;</title>
<polygon fill="white" stroke="black" points="342,-203 288,-203 288,-167 342,-167 342,-203"/>
<text text-anchor="middle" x="315" y="-181.3" font-family="Times,serif" font-size="14.00">&#39;f&#39;</text>
</g>
<!-- in_string_char&#45;&gt;&#39;f&#39; -->
<g id="edge73" class="edge"><title>in_string_char&#45;&gt;&#39;f&#39;</title>
<path fill="none" stroke="grey" d="M206.226,-238.876C228.229,-228.18 256.494,-214.44 278.697,-203.647"/>
<polygon fill="grey" stroke="grey" points="280.341,-206.74 287.805,-199.22 277.281,-200.444 280.341,-206.74"/>
</g>
<!-- in_string_char&#45;&gt;&#39;\\&#39; -->
<g id="edge74" class="edge"><title>in_string_char&#45;&gt;&#39;\\&#39;</title>
<path fill="none" stroke="grey" d="M153.202,-238.697C144.396,-230.135 133.618,-219.656 123.999,-210.304"/>
<polygon fill="grey" stroke="grey" points="126.203,-207.566 116.593,-203.104 121.323,-212.585 126.203,-207.566"/>
</g>
<!-- &#39;t&#39; -->
<g id="node49" class="node"><title>&#39;t&#39;</title>
<polygon fill="white" stroke="black" points="414,-203 360,-203 360,-167 414,-167 414,-203"/>
<text text-anchor="middle" x="387" y="-181.3" font-family="Times,serif" font-size="14.00">&#39;t&#39;</text>
</g>
<!-- in_string_char&#45;&gt;&#39;t&#39; -->
<g id="edge75" class="edge"><title>in_string_char&#45;&gt;&#39;t&#39;</title>
<path fill="none" stroke="grey" d="M218.272,-241.881C221.563,-240.904 224.831,-239.936 228,-239 279.745,-223.711 296.046,-223.231 350.255,-203.011"/>
<polygon fill="grey" stroke="grey" points="351.561,-206.259 359.674,-199.445 349.083,-199.713 351.561,-206.259"/>
</g>
<!-- in_string_char&#45;&gt;&#39;\\&#39; -->
<g id="edge76" class="edge"><title>in_string_char&#45;&gt;&#39;\\&#39;</title>
<path fill="none" stroke="grey" d="M153.202,-238.697C144.396,-230.135 133.618,-219.656 123.999,-210.304"/>
<polygon fill="grey" stroke="grey" points="126.203,-207.566 116.593,-203.104 121.323,-212.585 126.203,-207.566"/>
</g>
<!-- &#39;n&#39; -->
<g id="node50" class="node"><title>&#39;n&#39;</title>
<polygon fill="white" stroke="black" points="486,-203 432,-203 432,-167 486,-167 486,-203"/>
<text text-anchor="middle" x="459" y="-181.3" font-family="Times,serif" font-size="14.00">&#39;n&#39;</text>
</g>
<!-- in_string_char&#45;&gt;&#39;n&#39; -->
<g id="edge77" class="edge"><title>in_string_char&#45;&gt;&#39;n&#39;</title>
<path fill="none" stroke="grey" d="M218.482,-241.424C221.693,-240.566 224.888,-239.749 228,-239 310.672,-219.101 337.257,-229.262 422.251,-202.789"/>
<polygon fill="grey" stroke="grey" points="423.319,-206.122 431.78,-199.746 421.189,-199.454 423.319,-206.122"/>
</g>
<!-- in_string_char&#45;&gt;&#39;\\&#39; -->
<g id="edge78" class="edge"><title>in_string_char&#45;&gt;&#39;\\&#39;</title>
<path fill="none" stroke="grey" d="M153.202,-238.697C144.396,-230.135 133.618,-219.656 123.999,-210.304"/>
<polygon fill="grey" stroke="grey" points="126.203,-207.566 116.593,-203.104 121.323,-212.585 126.203,-207.566"/>
</g>
<!-- &#39;r&#39; -->
<g id="node51" class="node"><title>&#39;r&#39;</title>
<polygon fill="white" stroke="black" points="558,-203 504,-203 504,-167 558,-167 558,-203"/>
<text text-anchor="middle" x="531" y="-181.3" font-family="Times,serif" font-size="14.00">&#39;r&#39;</text>
</g>
<!-- in_string_char&#45;&gt;&#39;r&#39; -->
<g id="edge79" class="edge"><title>in_string_char&#45;&gt;&#39;r&#39;</title>
<path fill="none" stroke="grey" d="M218.442,-241.248C221.663,-240.433 224.87,-239.673 228,-239 341.975,-214.476 378.269,-235.777 494.226,-202.7"/>
<polygon fill="grey" stroke="grey" points="495.21,-206.059 503.825,-199.891 493.244,-199.341 495.21,-206.059"/>
</g>
<!-- in_string_char&#45;&gt;&#39;\\&#39; -->
<g id="edge80" class="edge"><title>in_string_char&#45;&gt;&#39;\\&#39;</title>
<path fill="none" stroke="grey" d="M153.202,-238.697C144.396,-230.135 133.618,-219.656 123.999,-210.304"/>
<polygon fill="grey" stroke="grey" points="126.203,-207.566 116.593,-203.104 121.323,-212.585 126.203,-207.566"/>
</g>
<!-- &#39;u&#39; -->
<g id="node52" class="node"><title>&#39;u&#39;</title>
<polygon fill="white" stroke="black" points="630,-203 576,-203 576,-167 630,-167 630,-203"/>
<text text-anchor="middle" x="603" y="-181.3" font-family="Times,serif" font-size="14.00">&#39;u&#39;</text>
</g>
<!-- in_string_char&#45;&gt;&#39;u&#39; -->
<g id="edge81" class="edge"><title>in_string_char&#45;&gt;&#39;u&#39;</title>
<path fill="none" stroke="grey" d="M218.421,-241.145C221.647,-240.355 224.861,-239.629 228,-239 373.367,-209.862 419.155,-242.461 566.027,-202.701"/>
<polygon fill="grey" stroke="grey" points="567.149,-206.022 575.849,-199.976 565.277,-199.277 567.149,-206.022"/>
</g>
<!-- four_hex_digits -->
<g id="node53" class="node"><title>four_hex_digits</title>
<polygon fill="white" stroke="black" points="749.5,-203 648.5,-203 648.5,-167 749.5,-167 749.5,-203"/>
<text text-anchor="middle" x="699" y="-181.3" font-family="Times,serif" font-size="14.00">four_hex_digits</text>
</g>
<!-- in_string_char&#45;&gt;four_hex_digits -->
<g id="edge82" class="edge"><title>in_string_char&#45;&gt;four_hex_digits</title>
<path fill="none" stroke="grey" d="M218.408,-241.078C221.637,-240.304 224.856,-239.6 228,-239 404.948,-205.225 456.837,-235.053 638.54,-202.846"/>
<polygon fill="grey" stroke="grey" points="639.203,-206.282 648.42,-201.056 637.956,-199.394 639.203,-206.282"/>
</g>
<!-- in_string_char&#45;&gt;&#39;\\&#39; -->
<g id="edge83" class="edge"><title>in_string_char&#45;&gt;&#39;\\&#39;</title>
<path fill="none" stroke="grey" d="M153.202,-238.697C144.396,-230.135 133.618,-219.656 123.999,-210.304"/>
<polygon fill="grey" stroke="grey" points="126.203,-207.566 116.593,-203.104 121.323,-212.585 126.203,-207.566"/>
</g>
<!-- &#39;/&#39; -->
<g id="node54" class="node"><title>&#39;/&#39;</title>
<polygon fill="white" stroke="black" points="822,-203 768,-203 768,-167 822,-167 822,-203"/>
<text text-anchor="middle" x="795" y="-181.3" font-family="Times,serif" font-size="14.00">&#39;/&#39;</text>
</g>
<!-- in_string_char&#45;&gt;&#39;/&#39; -->
<g id="edge84" class="edge"><title>in_string_char&#45;&gt;&#39;/&#39;</title>
<path fill="none" stroke="grey" d="M218.395,-241.007C221.627,-240.25 224.85,-239.569 228,-239 460.333,-197.002 529.198,-261.242 758,-203 758.103,-202.974 758.206,-202.947 758.308,-202.921"/>
<polygon fill="grey" stroke="grey" points="759.511,-206.21 767.927,-199.773 757.334,-199.557 759.511,-206.21"/>
</g>
<!-- &#39;\\\\&#39; -->
<g id="node55" class="node"><title>&#39;\\\\&#39;</title>
<polygon fill="white" stroke="black" points="894,-203 840,-203 840,-167 894,-167 894,-203"/>
<text text-anchor="middle" x="867" y="-181.3" font-family="Times,serif" font-size="14.00">&#39;\\&#39;</text>
</g>
<!-- in_string_char&#45;&gt;&#39;\\\\&#39; -->
<g id="edge85" class="edge"><title>in_string_char&#45;&gt;&#39;\\\\&#39;</title>
<path fill="none" stroke="grey" d="M218.389,-240.977C221.623,-240.228 224.848,-239.557 228,-239 489.161,-192.895 568.952,-267.661 830.12,-202.593"/>
<polygon fill="grey" stroke="grey" points="831.054,-205.967 839.887,-200.116 829.333,-199.181 831.054,-205.967"/>
</g>
<!-- hex_digit -->
<g id="node56" class="node"><title>hex_digit</title>
<polygon fill="white" stroke="black" points="733,-131 665,-131 665,-95 733,-95 733,-131"/>
<text text-anchor="middle" x="699" y="-109.3" font-family="Times,serif" font-size="14.00">hex_digit</text>
</g>
<!-- four_hex_digits&#45;&gt;hex_digit -->
<g id="edge86" class="edge"><title>four_hex_digits&#45;&gt;hex_digit</title>
<path fill="none" stroke="grey" d="M681.253,-166.697C678.866,-158.983 678.186,-149.712 679.214,-141.112"/>
<polygon fill="grey" stroke="grey" points="682.686,-141.61 681.315,-131.104 675.835,-140.172 682.686,-141.61"/>
</g>
<!-- four_hex_digits&#45;&gt;hex_digit -->
<g id="edge87" class="edge"><title>four_hex_digits&#45;&gt;hex_digit</title>
<path fill="none" stroke="grey" d="M693.084,-166.697C692.289,-158.983 692.062,-149.712 692.405,-141.112"/>
<polygon fill="grey" stroke="grey" points="695.898,-141.324 693.105,-131.104 688.915,-140.836 695.898,-141.324"/>
</g>
<!-- four_hex_digits&#45;&gt;hex_digit -->
<g id="edge88" class="edge"><title>four_hex_digits&#45;&gt;hex_digit</title>
<path fill="none" stroke="grey" d="M704.916,-166.697C705.711,-158.983 705.938,-149.712 705.595,-141.112"/>
<polygon fill="grey" stroke="grey" points="709.085,-140.836 704.895,-131.104 702.102,-141.324 709.085,-140.836"/>
</g>
<!-- four_hex_digits&#45;&gt;hex_digit -->
<g id="edge89" class="edge"><title>four_hex_digits&#45;&gt;hex_digit</title>
<path fill="none" stroke="grey" d="M716.747,-166.697C719.134,-158.983 719.814,-149.712 718.786,-141.112"/>
<polygon fill="grey" stroke="grey" points="722.165,-140.172 716.685,-131.104 715.314,-141.61 722.165,-140.172"/>
</g>
<!-- [0&#45;9a&#45;fA&#45;F] -->
<g id="node57" class="node"><title>[0&#45;9a&#45;fA&#45;F]</title>
<polygon fill="white" stroke="black" points="739,-59 659,-59 659,-23 739,-23 739,-59"/>
<text text-anchor="middle" x="699" y="-37.3" font-family="Times,serif" font-size="14.00">[0&#45;9a&#45;fA&#45;F]</text>
</g>
<!-- hex_digit&#45;&gt;[0&#45;9a&#45;fA&#45;F] -->
<g id="edge90" class="edge"><title>hex_digit&#45;&gt;[0&#45;9a&#45;fA&#45;F]</title>
<path fill="none" stroke="grey" d="M699,-94.6966C699,-86.9827 699,-77.7125 699,-69.1124"/>
<polygon fill="grey" stroke="grey" points="702.5,-69.1043 699,-59.1043 695.5,-69.1044 702.5,-69.1043"/>
</g>
<!-- comma -->
<g id="node58" class="node"><title>comma</title>
<polygon fill="white" stroke="black" points="1240.5,-857 1183.5,-857 1183.5,-821 1240.5,-821 1240.5,-857"/>
<text text-anchor="middle" x="1212" y="-835.3" font-family="Times,serif" font-size="14.00">comma</text>
</g>
<!-- &#39;,&#39; -->
<g id="node59" class="node"><title>&#39;,&#39;</title>
<polygon fill="white" stroke="black" points="1239,-779 1185,-779 1185,-743 1239,-743 1239,-779"/>
<text text-anchor="middle" x="1212" y="-757.3" font-family="Times,serif" font-size="14.00">&#39;,&#39;</text>
</g>
<!-- comma&#45;&gt;&#39;,&#39; -->
<g id="edge91" class="edge"><title>comma&#45;&gt;&#39;,&#39;</title>
<path fill="none" stroke="grey" d="M1212,-820.754C1212,-811.523 1212,-799.935 1212,-789.495"/>
<polygon fill="grey" stroke="grey" points="1215.5,-789.177 1212,-779.177 1208.5,-789.177 1215.5,-789.177"/>
</g>
</g>
</svg>
