<?xml version="1.0" encoding="UTF-8" standalone="no"?>
<!DOCTYPE svg PUBLIC "-//W3C//DTD SVG 1.1//EN"
 "http://www.w3.org/Graphics/SVG/1.1/DTD/svg11.dtd">
<!-- Generated by graphviz version 2.30.1 (20130611.0131)
 -->
<!-- Title: Perl Pages: 1 -->
<svg width="1160pt" height="801pt"
 viewBox="0.00 0.00 1160.00 801.00" xmlns="http://www.w3.org/2000/svg" xmlns:xlink="http://www.w3.org/1999/xlink">
<g id="graph0" class="graph" transform="scale(1 1) rotate(0) translate(4 797)">
<title>Perl</title>
<polygon fill="white" stroke="white" points="-4,5 -4,-797 1157,-797 1157,5 -4,5"/>
<text text-anchor="middle" x="576" y="-7.8" font-family="Times,serif" font-size="14.00">json.2.bnf</text>
<!-- :default -->
<g id="node1" class="node"><title>:default</title>
<polygon fill="lightblue" stroke="black" points="100.5,-709 43.5,-709 43.5,-673 100.5,-673 100.5,-709"/>
<text text-anchor="middle" x="72" y="-687.3" font-family="Times,serif" font-size="14.00">:default</text>
</g>
<!-- :default_1 -->
<g id="node3" class="node"><title>:default_1</title>
<path fill="lightblue" stroke="black" d="M11.5,-600C11.5,-600 96.5,-600 96.5,-600 102.5,-600 108.5,-606 108.5,-612 108.5,-612 108.5,-624 108.5,-624 108.5,-630 102.5,-636 96.5,-636 96.5,-636 11.5,-636 11.5,-636 5.5,-636 -0.5,-630 -0.5,-624 -0.5,-624 -0.5,-612 -0.5,-612 -0.5,-606 5.5,-600 11.5,-600"/>
<text text-anchor="middle" x="54" y="-614.3" font-family="Times,serif" font-size="14.00">action =&gt; ::array</text>
</g>
<!-- :default&#45;&gt;:default_1 -->
<g id="edge2" class="edge"><title>:default&#45;&gt;:default_1</title>
<path fill="none" stroke="grey" d="M67.6427,-672.813C65.5865,-664.702 63.0851,-654.836 60.7884,-645.777"/>
<polygon fill="grey" stroke="grey" points="64.1674,-644.862 58.3172,-636.029 57.382,-646.582 64.1674,-644.862"/>
</g>
<!-- json -->
<g id="node2" class="node"><title>json</title>
<path fill="lightgreen" stroke="black" d="M255,-746C255,-746 285,-746 285,-746 291,-746 297,-752 297,-758 297,-758 297,-780 297,-780 297,-786 291,-792 285,-792 285,-792 255,-792 255,-792 249,-792 243,-786 243,-780 243,-780 243,-758 243,-758 243,-752 249,-746 255,-746"/>
<text text-anchor="middle" x="270" y="-776.8" font-family="Times,serif" font-size="14.00">:start</text>
<polyline fill="none" stroke="black" points="243,-769 297,-769 "/>
<text text-anchor="middle" x="270" y="-753.8" font-family="Times,serif" font-size="14.00">json</text>
</g>
<!-- json&#45;&gt;:default -->
<g id="edge1" class="edge"><title>json&#45;&gt;:default</title>
<path fill="none" stroke="grey" d="M242.884,-757.592C208.515,-744.4 149.07,-721.582 110.139,-706.639"/>
<polygon fill="grey" stroke="grey" points="111.302,-703.337 100.712,-703.021 108.793,-709.872 111.302,-703.337"/>
</g>
<!-- :discard -->
<g id="node4" class="node"><title>:discard</title>
<polygon fill="lightblue" stroke="black" points="199.25,-709 140.75,-709 140.75,-673 199.25,-673 199.25,-709"/>
<text text-anchor="middle" x="170" y="-687.3" font-family="Times,serif" font-size="14.00">:discard</text>
</g>
<!-- json&#45;&gt;:discard -->
<g id="edge3" class="edge"><title>json&#45;&gt;:discard</title>
<path fill="none" stroke="grey" d="M242.939,-747.433C229.91,-737.531 214.227,-725.613 200.748,-715.369"/>
<polygon fill="grey" stroke="grey" points="202.763,-712.504 192.684,-709.24 198.528,-718.077 202.763,-712.504"/>
</g>
<!-- ꞉꞉first -->
<g id="node6" class="node"><title>꞉꞉first</title>
<polygon fill="white" stroke="black" points="233,-419 179,-419 179,-383 233,-383 233,-419"/>
<text text-anchor="middle" x="206" y="-397.3" font-family="Times,serif" font-size="14.00">꞉꞉first</text>
</g>
<!-- json&#45;&gt;꞉꞉first -->
<g id="edge5" class="edge"><title>json&#45;&gt;꞉꞉first</title>
<path fill="none" stroke="grey" d="M260.607,-745.733C249.354,-716.993 232,-665.184 232,-619 232,-619 232,-619 232,-544 232,-503.553 221.667,-457.67 214.03,-429.279"/>
<polygon fill="grey" stroke="grey" points="217.308,-428.002 211.261,-419.302 210.562,-429.873 217.308,-428.002"/>
</g>
<!-- =\&gt; -->
<g id="node7" class="node"><title>=\&gt;</title>
<polygon fill="white" stroke="black" points="925,-419 871,-419 871,-383 925,-383 925,-419"/>
<text text-anchor="middle" x="898" y="-397.3" font-family="Times,serif" font-size="14.00">=&gt;</text>
</g>
<!-- json&#45;&gt;=\&gt; -->
<g id="edge6" class="edge"><title>json&#45;&gt;=\&gt;</title>
<path fill="none" stroke="grey" d="M297.063,-767.343C372.221,-763.946 578,-743.296 578,-619 578,-619 578,-619 578,-544 578,-513.301 777.311,-442.613 861.338,-414.176"/>
<polygon fill="grey" stroke="grey" points="862.634,-417.433 870.993,-410.923 860.399,-410.8 862.634,-417.433"/>
</g>
<!-- action -->
<g id="node8" class="node"><title>action</title>
<polygon fill="white" stroke="black" points="305,-419 251,-419 251,-383 305,-383 305,-419"/>
<text text-anchor="middle" x="278" y="-397.3" font-family="Times,serif" font-size="14.00">action</text>
</g>
<!-- json&#45;&gt;action -->
<g id="edge7" class="edge"><title>json&#45;&gt;action</title>
<path fill="none" stroke="grey" d="M270,-745.785C270,-716.669 270,-664.01 270,-619 270,-619 270,-619 270,-544 270,-503.933 273.214,-457.606 275.568,-429.054"/>
<polygon fill="grey" stroke="grey" points="279.06,-429.292 276.419,-419.032 272.085,-428.7 279.06,-429.292"/>
</g>
<!-- object -->
<g id="node9" class="node"><title>object</title>
<polygon fill="white" stroke="black" points="424,-709 370,-709 370,-673 424,-673 424,-709"/>
<text text-anchor="middle" x="397" y="-687.3" font-family="Times,serif" font-size="14.00">object</text>
</g>
<!-- json&#45;&gt;object -->
<g id="edge8" class="edge"><title>json&#45;&gt;object</title>
<path fill="none" stroke="grey" d="M297.245,-751.696C315.91,-740.526 340.862,-725.595 361.14,-713.459"/>
<polygon fill="grey" stroke="grey" points="363.017,-716.415 369.8,-708.277 359.422,-710.409 363.017,-716.415"/>
</g>
<!-- array -->
<g id="node10" class="node"><title>array</title>
<polygon fill="white" stroke="black" points="997,-419 943,-419 943,-383 997,-383 997,-419"/>
<text text-anchor="middle" x="970" y="-397.3" font-family="Times,serif" font-size="14.00">array</text>
</g>
<!-- json&#45;&gt;array -->
<g id="edge9" class="edge"><title>json&#45;&gt;array</title>
<path fill="none" stroke="grey" d="M297.215,-766.37C406.034,-759.125 804,-725.356 804,-619 804,-619 804,-619 804,-544 804,-509.993 885.465,-453.945 934.257,-423.427"/>
<polygon fill="grey" stroke="grey" points="936.301,-426.277 942.96,-418.036 932.615,-420.326 936.301,-426.277"/>
</g>
<!-- whitespace -->
<g id="node5" class="node"><title>whitespace</title>
<polygon fill="lightblue" stroke="black" points="203.25,-636 126.75,-636 126.75,-600 203.25,-600 203.25,-636"/>
<text text-anchor="middle" x="165" y="-614.3" font-family="Times,serif" font-size="14.00">whitespace</text>
</g>
<!-- :discard&#45;&gt;whitespace -->
<g id="edge4" class="edge"><title>:discard&#45;&gt;whitespace</title>
<path fill="none" stroke="grey" d="M168.79,-672.813C168.225,-664.789 167.539,-655.047 166.906,-646.069"/>
<polygon fill="grey" stroke="grey" points="170.393,-645.758 166.199,-636.029 163.41,-646.25 170.393,-645.758"/>
</g>
<!-- [\\s] -->
<g id="node55" class="node"><title>[\\s]</title>
<polygon fill="white" stroke="black" points="192,-563 138,-563 138,-527 192,-527 192,-563"/>
<text text-anchor="middle" x="165" y="-541.3" font-family="Times,serif" font-size="14.00">[\s]</text>
</g>
<!-- whitespace&#45;&gt;[\\s] -->
<g id="edge81" class="edge"><title>whitespace&#45;&gt;[\\s]</title>
<path fill="none" stroke="grey" d="M165,-599.813C165,-591.789 165,-582.047 165,-573.069"/>
<polygon fill="grey" stroke="grey" points="168.5,-573.029 165,-563.029 161.5,-573.029 168.5,-573.029"/>
</g>
<!-- (&#39;{&#39;) -->
<g id="node11" class="node"><title>(&#39;{&#39;)</title>
<polygon fill="white" stroke="black" points="352,-636 298,-636 298,-600 352,-600 352,-636"/>
<text text-anchor="middle" x="325" y="-614.3" font-family="Times,serif" font-size="14.00">(&#39;{&#39;)</text>
</g>
<!-- object&#45;&gt;(&#39;{&#39;) -->
<g id="edge10" class="edge"><title>object&#45;&gt;(&#39;{&#39;)</title>
<path fill="none" stroke="grey" d="M379.571,-672.813C370.55,-663.917 359.387,-652.909 349.512,-643.172"/>
<polygon fill="grey" stroke="grey" points="351.847,-640.558 342.269,-636.029 346.932,-645.542 351.847,-640.558"/>
</g>
<!-- (&#39;}&#39;) -->
<g id="node12" class="node"><title>(&#39;}&#39;)</title>
<polygon fill="white" stroke="black" points="424,-636 370,-636 370,-600 424,-600 424,-636"/>
<text text-anchor="middle" x="397" y="-614.3" font-family="Times,serif" font-size="14.00">(&#39;}&#39;)</text>
</g>
<!-- object&#45;&gt;(&#39;}&#39;) -->
<g id="edge11" class="edge"><title>object&#45;&gt;(&#39;}&#39;)</title>
<path fill="none" stroke="grey" d="M397,-672.813C397,-664.789 397,-655.047 397,-646.069"/>
<polygon fill="grey" stroke="grey" points="400.5,-646.029 397,-636.029 393.5,-646.029 400.5,-646.029"/>
</g>
<!-- members -->
<g id="node13" class="node"><title>members</title>
<polygon fill="white" stroke="black" points="510,-636 442,-636 442,-600 510,-600 510,-636"/>
<text text-anchor="middle" x="476" y="-614.3" font-family="Times,serif" font-size="14.00">members</text>
</g>
<!-- object&#45;&gt;members -->
<g id="edge12" class="edge"><title>object&#45;&gt;members</title>
<path fill="none" stroke="grey" d="M416.124,-672.813C426.119,-663.83 438.51,-652.693 449.423,-642.886"/>
<polygon fill="grey" stroke="grey" points="451.954,-645.316 457.052,-636.029 447.275,-640.11 451.954,-645.316"/>
</g>
<!-- &#39;]&#39;) -->
<g id="node25" class="node"><title>&#39;]&#39;)</title>
<polygon fill="white" stroke="black" points="1080,-347 1026,-347 1026,-311 1080,-311 1080,-347"/>
<text text-anchor="middle" x="1053" y="-325.3" font-family="Times,serif" font-size="14.00">&#39;]&#39;)</text>
</g>
<!-- array&#45;&gt;&#39;]&#39;) -->
<g id="edge42" class="edge"><title>array&#45;&gt;&#39;]&#39;)</title>
<path fill="none" stroke="grey" d="M990.517,-382.697C1000.87,-373.965 1013.59,-363.24 1024.84,-353.75"/>
<polygon fill="grey" stroke="grey" points="1027.33,-356.227 1032.72,-347.104 1022.82,-350.876 1027.33,-356.227"/>
</g>
<!-- (&#39;[&#39; -->
<g id="node26" class="node"><title>(&#39;[&#39;</title>
<polygon fill="white" stroke="black" points="1152,-347 1098,-347 1098,-311 1152,-311 1152,-347"/>
<text text-anchor="middle" x="1125" y="-325.3" font-family="Times,serif" font-size="14.00">(&#39;[&#39;</text>
</g>
<!-- array&#45;&gt;(&#39;[&#39; -->
<g id="edge43" class="edge"><title>array&#45;&gt;(&#39;[&#39;</title>
<path fill="none" stroke="grey" d="M997.016,-388.172C1019.3,-378.372 1051.94,-363.912 1088.52,-347.177"/>
<polygon fill="grey" stroke="grey" points="1090.27,-350.224 1097.9,-342.874 1087.35,-343.862 1090.27,-350.224"/>
</g>
<!-- (&#39;[&#39;) -->
<g id="node27" class="node"><title>(&#39;[&#39;)</title>
<polygon fill="white" stroke="black" points="936,-347 882,-347 882,-311 936,-311 936,-347"/>
<text text-anchor="middle" x="909" y="-325.3" font-family="Times,serif" font-size="14.00">(&#39;[&#39;)</text>
</g>
<!-- array&#45;&gt;(&#39;[&#39;) -->
<g id="edge44" class="edge"><title>array&#45;&gt;(&#39;[&#39;)</title>
<path fill="none" stroke="grey" d="M954.921,-382.697C947.608,-374.305 938.69,-364.07 930.665,-354.861"/>
<polygon fill="grey" stroke="grey" points="933.114,-352.344 923.905,-347.104 927.836,-356.943 933.114,-352.344"/>
</g>
<!-- (&#39;]&#39;) -->
<g id="node28" class="node"><title>(&#39;]&#39;)</title>
<polygon fill="white" stroke="black" points="1008,-347 954,-347 954,-311 1008,-311 1008,-347"/>
<text text-anchor="middle" x="981" y="-325.3" font-family="Times,serif" font-size="14.00">(&#39;]&#39;)</text>
</g>
<!-- array&#45;&gt;(&#39;]&#39;) -->
<g id="edge45" class="edge"><title>array&#45;&gt;(&#39;]&#39;)</title>
<path fill="none" stroke="grey" d="M972.719,-382.697C973.931,-374.983 975.388,-365.712 976.739,-357.112"/>
<polygon fill="grey" stroke="grey" points="980.217,-357.526 978.312,-347.104 973.302,-356.44 980.217,-357.526"/>
</g>
<!-- elements -->
<g id="node29" class="node"><title>elements</title>
<polygon fill="white" stroke="black" points="863.25,-347 798.75,-347 798.75,-311 863.25,-311 863.25,-347"/>
<text text-anchor="middle" x="831" y="-325.3" font-family="Times,serif" font-size="14.00">elements</text>
</g>
<!-- array&#45;&gt;elements -->
<g id="edge46" class="edge"><title>array&#45;&gt;elements</title>
<path fill="none" stroke="grey" d="M942.869,-386.337C922.871,-376.266 895.303,-362.383 872.539,-350.919"/>
<polygon fill="grey" stroke="grey" points="873.941,-347.706 863.436,-346.335 870.793,-353.958 873.941,-347.706"/>
</g>
<!-- pair -->
<g id="node14" class="node"><title>pair</title>
<polygon fill="white" stroke="black" points="492,-563 438,-563 438,-527 492,-527 492,-563"/>
<text text-anchor="middle" x="465" y="-541.3" font-family="Times,serif" font-size="14.00">pair</text>
</g>
<!-- members&#45;&gt;pair -->
<g id="edge13" class="edge"><title>members&#45;&gt;pair</title>
<path fill="none" stroke="grey" d="M473.337,-599.813C472.094,-591.789 470.585,-582.047 469.194,-573.069"/>
<polygon fill="grey" stroke="grey" points="472.628,-572.375 467.638,-563.029 465.711,-573.447 472.628,-572.375"/>
</g>
<!-- (&#39;꞉&#39;) -->
<g id="node15" class="node"><title>(&#39;꞉&#39;)</title>
<polygon fill="white" stroke="black" points="425,-491 371,-491 371,-455 425,-455 425,-491"/>
<text text-anchor="middle" x="398" y="-469.3" font-family="Times,serif" font-size="14.00">(&#39;꞉&#39;)</text>
</g>
<!-- pair&#45;&gt;(&#39;꞉&#39;) -->
<g id="edge14" class="edge"><title>pair&#45;&gt;(&#39;꞉&#39;)</title>
<path fill="none" stroke="grey" d="M448.438,-526.697C440.325,-518.22 430.412,-507.864 421.529,-498.583"/>
<polygon fill="grey" stroke="grey" points="423.814,-495.908 414.371,-491.104 418.757,-500.749 423.814,-495.908"/>
</g>
<!-- string -->
<g id="node16" class="node"><title>string</title>
<polygon fill="white" stroke="black" points="161,-419 107,-419 107,-383 161,-383 161,-419"/>
<text text-anchor="middle" x="134" y="-397.3" font-family="Times,serif" font-size="14.00">string</text>
</g>
<!-- pair&#45;&gt;string -->
<g id="edge15" class="edge"><title>pair&#45;&gt;string</title>
<path fill="none" stroke="grey" d="M464.179,-526.939C462.213,-506.473 455.657,-472.714 434,-455 344.843,-382.077 286.771,-448.813 171.073,-418.664"/>
<polygon fill="grey" stroke="grey" points="171.75,-415.219 161.177,-415.887 169.859,-421.959 171.75,-415.219"/>
</g>
<!-- value -->
<g id="node17" class="node"><title>value</title>
<polygon fill="white" stroke="black" points="535,-491 481,-491 481,-455 535,-455 535,-491"/>
<text text-anchor="middle" x="508" y="-469.3" font-family="Times,serif" font-size="14.00">value</text>
</g>
<!-- pair&#45;&gt;value -->
<g id="edge16" class="edge"><title>pair&#45;&gt;value</title>
<path fill="none" stroke="grey" d="M475.629,-526.697C480.628,-518.559 486.691,-508.689 492.212,-499.701"/>
<polygon fill="grey" stroke="grey" points="495.241,-501.457 497.493,-491.104 489.277,-497.793 495.241,-501.457"/>
</g>
<!-- string lexeme -->
<g id="node44" class="node"><title>string lexeme</title>
<polygon fill="white" stroke="black" points="160.25,-347 69.75,-347 69.75,-311 160.25,-311 160.25,-347"/>
<text text-anchor="middle" x="115" y="-325.3" font-family="Times,serif" font-size="14.00">string lexeme</text>
</g>
<!-- string&#45;&gt;string lexeme -->
<g id="edge70" class="edge"><title>string&#45;&gt;string lexeme</title>
<path fill="none" stroke="grey" d="M129.303,-382.697C127.187,-374.898 124.638,-365.509 122.282,-356.829"/>
<polygon fill="grey" stroke="grey" points="125.64,-355.838 119.643,-347.104 118.884,-357.672 125.64,-355.838"/>
</g>
<!-- value&#45;&gt;꞉꞉first -->
<g id="edge17" class="edge"><title>value&#45;&gt;꞉꞉first</title>
<path fill="none" stroke="grey" d="M480.969,-459.75C476.372,-457.969 471.597,-456.301 467,-455 372.602,-428.278 340.742,-447.624 242.879,-418.764"/>
<polygon fill="grey" stroke="grey" points="243.783,-415.381 233.198,-415.817 241.745,-422.078 243.783,-415.381"/>
</g>
<!-- value&#45;&gt;=\&gt; -->
<g id="edge18" class="edge"><title>value&#45;&gt;=\&gt;</title>
<path fill="none" stroke="grey" d="M535.098,-462.745C544.197,-459.914 554.457,-457.019 564,-455 692.36,-427.843 730.129,-452.432 857,-419 858.257,-418.669 859.527,-418.307 860.802,-417.921"/>
<polygon fill="grey" stroke="grey" points="862.245,-421.126 870.563,-414.564 859.968,-414.507 862.245,-421.126"/>
</g>
<!-- value&#45;&gt;action -->
<g id="edge19" class="edge"><title>value&#45;&gt;action</title>
<path fill="none" stroke="grey" d="M480.883,-460.036C476.296,-458.22 471.547,-456.467 467,-455 403.504,-434.515 381.888,-441.339 315.014,-418.96"/>
<polygon fill="grey" stroke="grey" points="315.863,-415.55 305.268,-415.602 313.583,-422.169 315.863,-415.55"/>
</g>
<!-- value&#45;&gt;string -->
<g id="edge20" class="edge"><title>value&#45;&gt;string</title>
<path fill="none" stroke="grey" d="M480.565,-459.429C476.1,-457.732 471.472,-456.174 467,-455 341.535,-422.048 299.792,-454.211 170.999,-418.725"/>
<polygon fill="grey" stroke="grey" points="171.739,-415.297 161.163,-415.931 169.827,-422.03 171.739,-415.297"/>
</g>
<!-- value&#45;&gt;꞉꞉first -->
<g id="edge21" class="edge"><title>value&#45;&gt;꞉꞉first</title>
<path fill="none" stroke="grey" d="M480.969,-459.75C476.372,-457.969 471.597,-456.301 467,-455 372.602,-428.278 340.742,-447.624 242.879,-418.764"/>
<polygon fill="grey" stroke="grey" points="243.783,-415.381 233.198,-415.817 241.745,-422.078 243.783,-415.381"/>
</g>
<!-- value&#45;&gt;=\&gt; -->
<g id="edge22" class="edge"><title>value&#45;&gt;=\&gt;</title>
<path fill="none" stroke="grey" d="M535.098,-462.745C544.197,-459.914 554.457,-457.019 564,-455 692.36,-427.843 730.129,-452.432 857,-419 858.257,-418.669 859.527,-418.307 860.802,-417.921"/>
<polygon fill="grey" stroke="grey" points="862.245,-421.126 870.563,-414.564 859.968,-414.507 862.245,-421.126"/>
</g>
<!-- value&#45;&gt;action -->
<g id="edge23" class="edge"><title>value&#45;&gt;action</title>
<path fill="none" stroke="grey" d="M480.883,-460.036C476.296,-458.22 471.547,-456.467 467,-455 403.504,-434.515 381.888,-441.339 315.014,-418.96"/>
<polygon fill="grey" stroke="grey" points="315.863,-415.55 305.268,-415.602 313.583,-422.169 315.863,-415.55"/>
</g>
<!-- value&#45;&gt;object -->
<g id="edge24" class="edge"><title>value&#45;&gt;object</title>
<path fill="none" stroke="grey" d="M515.416,-491.178C527.855,-522.903 548.788,-591.582 519,-637 500.332,-665.463 462.716,-678.72 434.161,-684.845"/>
<polygon fill="grey" stroke="grey" points="433.253,-681.456 424.102,-686.794 434.585,-688.328 433.253,-681.456"/>
</g>
<!-- value&#45;&gt;꞉꞉first -->
<g id="edge25" class="edge"><title>value&#45;&gt;꞉꞉first</title>
<path fill="none" stroke="grey" d="M480.969,-459.75C476.372,-457.969 471.597,-456.301 467,-455 372.602,-428.278 340.742,-447.624 242.879,-418.764"/>
<polygon fill="grey" stroke="grey" points="243.783,-415.381 233.198,-415.817 241.745,-422.078 243.783,-415.381"/>
</g>
<!-- value&#45;&gt;=\&gt; -->
<g id="edge26" class="edge"><title>value&#45;&gt;=\&gt;</title>
<path fill="none" stroke="grey" d="M535.098,-462.745C544.197,-459.914 554.457,-457.019 564,-455 692.36,-427.843 730.129,-452.432 857,-419 858.257,-418.669 859.527,-418.307 860.802,-417.921"/>
<polygon fill="grey" stroke="grey" points="862.245,-421.126 870.563,-414.564 859.968,-414.507 862.245,-421.126"/>
</g>
<!-- value&#45;&gt;action -->
<g id="edge27" class="edge"><title>value&#45;&gt;action</title>
<path fill="none" stroke="grey" d="M480.883,-460.036C476.296,-458.22 471.547,-456.467 467,-455 403.504,-434.515 381.888,-441.339 315.014,-418.96"/>
<polygon fill="grey" stroke="grey" points="315.863,-415.55 305.268,-415.602 313.583,-422.169 315.863,-415.55"/>
</g>
<!-- number -->
<g id="node18" class="node"><title>number</title>
<polygon fill="white" stroke="black" points="382.25,-419 323.75,-419 323.75,-383 382.25,-383 382.25,-419"/>
<text text-anchor="middle" x="353" y="-397.3" font-family="Times,serif" font-size="14.00">number</text>
</g>
<!-- value&#45;&gt;number -->
<g id="edge28" class="edge"><title>value&#45;&gt;number</title>
<path fill="none" stroke="grey" d="M480.646,-459.647C456.001,-448.517 419.501,-432.033 391.837,-419.539"/>
<polygon fill="grey" stroke="grey" points="393.008,-416.228 382.454,-415.302 390.127,-422.608 393.008,-416.228"/>
</g>
<!-- value&#45;&gt;꞉꞉first -->
<g id="edge29" class="edge"><title>value&#45;&gt;꞉꞉first</title>
<path fill="none" stroke="grey" d="M480.969,-459.75C476.372,-457.969 471.597,-456.301 467,-455 372.602,-428.278 340.742,-447.624 242.879,-418.764"/>
<polygon fill="grey" stroke="grey" points="243.783,-415.381 233.198,-415.817 241.745,-422.078 243.783,-415.381"/>
</g>
<!-- value&#45;&gt;=\&gt; -->
<g id="edge30" class="edge"><title>value&#45;&gt;=\&gt;</title>
<path fill="none" stroke="grey" d="M535.098,-462.745C544.197,-459.914 554.457,-457.019 564,-455 692.36,-427.843 730.129,-452.432 857,-419 858.257,-418.669 859.527,-418.307 860.802,-417.921"/>
<polygon fill="grey" stroke="grey" points="862.245,-421.126 870.563,-414.564 859.968,-414.507 862.245,-421.126"/>
</g>
<!-- value&#45;&gt;action -->
<g id="edge31" class="edge"><title>value&#45;&gt;action</title>
<path fill="none" stroke="grey" d="M480.883,-460.036C476.296,-458.22 471.547,-456.467 467,-455 403.504,-434.515 381.888,-441.339 315.014,-418.96"/>
<polygon fill="grey" stroke="grey" points="315.863,-415.55 305.268,-415.602 313.583,-422.169 315.863,-415.55"/>
</g>
<!-- value&#45;&gt;array -->
<g id="edge32" class="edge"><title>value&#45;&gt;array</title>
<path fill="none" stroke="grey" d="M535.013,-471.586C601.801,-469.949 779.761,-461.842 932.791,-418.807"/>
<polygon fill="grey" stroke="grey" points="934.189,-422.047 942.834,-415.922 932.256,-415.32 934.189,-422.047"/>
</g>
<!-- &#39;true&#39; -->
<g id="node19" class="node"><title>&#39;true&#39;</title>
<polygon fill="white" stroke="black" points="455,-419 401,-419 401,-383 455,-383 455,-419"/>
<text text-anchor="middle" x="428" y="-397.3" font-family="Times,serif" font-size="14.00">&#39;true&#39;</text>
</g>
<!-- value&#45;&gt;&#39;true&#39; -->
<g id="edge33" class="edge"><title>value&#45;&gt;&#39;true&#39;</title>
<path fill="none" stroke="grey" d="M488.225,-454.697C478.246,-445.965 465.989,-435.24 455.143,-425.75"/>
<polygon fill="grey" stroke="grey" points="457.378,-423.055 447.548,-419.104 452.769,-428.323 457.378,-423.055"/>
</g>
<!-- value&#45;&gt;=\&gt; -->
<g id="edge34" class="edge"><title>value&#45;&gt;=\&gt;</title>
<path fill="none" stroke="grey" d="M535.098,-462.745C544.197,-459.914 554.457,-457.019 564,-455 692.36,-427.843 730.129,-452.432 857,-419 858.257,-418.669 859.527,-418.307 860.802,-417.921"/>
<polygon fill="grey" stroke="grey" points="862.245,-421.126 870.563,-414.564 859.968,-414.507 862.245,-421.126"/>
</g>
<!-- bless -->
<g id="node20" class="node"><title>bless</title>
<polygon fill="white" stroke="black" points="527,-419 473,-419 473,-383 527,-383 527,-419"/>
<text text-anchor="middle" x="500" y="-397.3" font-family="Times,serif" font-size="14.00">bless</text>
</g>
<!-- value&#45;&gt;bless -->
<g id="edge35" class="edge"><title>value&#45;&gt;bless</title>
<path fill="none" stroke="grey" d="M506.022,-454.697C505.141,-446.983 504.081,-437.712 503.099,-429.112"/>
<polygon fill="grey" stroke="grey" points="506.568,-428.642 501.955,-419.104 499.613,-429.437 506.568,-428.642"/>
</g>
<!-- true -->
<g id="node21" class="node"><title>true</title>
<polygon fill="white" stroke="black" points="599,-419 545,-419 545,-383 599,-383 599,-419"/>
<text text-anchor="middle" x="572" y="-397.3" font-family="Times,serif" font-size="14.00">true</text>
</g>
<!-- value&#45;&gt;true -->
<g id="edge36" class="edge"><title>value&#45;&gt;true</title>
<path fill="none" stroke="grey" d="M523.82,-454.697C531.57,-446.22 541.039,-435.864 549.524,-426.583"/>
<polygon fill="grey" stroke="grey" points="552.197,-428.846 556.362,-419.104 547.031,-424.123 552.197,-428.846"/>
</g>
<!-- &#39;false&#39; -->
<g id="node22" class="node"><title>&#39;false&#39;</title>
<polygon fill="white" stroke="black" points="671,-419 617,-419 617,-383 671,-383 671,-419"/>
<text text-anchor="middle" x="644" y="-397.3" font-family="Times,serif" font-size="14.00">&#39;false&#39;</text>
</g>
<!-- value&#45;&gt;&#39;false&#39; -->
<g id="edge37" class="edge"><title>value&#45;&gt;&#39;false&#39;</title>
<path fill="none" stroke="grey" d="M535.195,-458.003C556.042,-447.272 585.01,-432.362 607.815,-420.625"/>
<polygon fill="grey" stroke="grey" points="609.563,-423.662 616.852,-415.973 606.359,-417.438 609.563,-423.662"/>
</g>
<!-- value&#45;&gt;=\&gt; -->
<g id="edge38" class="edge"><title>value&#45;&gt;=\&gt;</title>
<path fill="none" stroke="grey" d="M535.098,-462.745C544.197,-459.914 554.457,-457.019 564,-455 692.36,-427.843 730.129,-452.432 857,-419 858.257,-418.669 859.527,-418.307 860.802,-417.921"/>
<polygon fill="grey" stroke="grey" points="862.245,-421.126 870.563,-414.564 859.968,-414.507 862.245,-421.126"/>
</g>
<!-- value&#45;&gt;bless -->
<g id="edge39" class="edge"><title>value&#45;&gt;bless</title>
<path fill="none" stroke="grey" d="M506.022,-454.697C505.141,-446.983 504.081,-437.712 503.099,-429.112"/>
<polygon fill="grey" stroke="grey" points="506.568,-428.642 501.955,-419.104 499.613,-429.437 506.568,-428.642"/>
</g>
<!-- false -->
<g id="node23" class="node"><title>false</title>
<polygon fill="white" stroke="black" points="743,-419 689,-419 689,-383 743,-383 743,-419"/>
<text text-anchor="middle" x="716" y="-397.3" font-family="Times,serif" font-size="14.00">false</text>
</g>
<!-- value&#45;&gt;false -->
<g id="edge40" class="edge"><title>value&#45;&gt;false</title>
<path fill="none" stroke="grey" d="M535.023,-463.783C575.672,-451.41 650.262,-428.648 679.113,-418.834"/>
<polygon fill="grey" stroke="grey" points="680.431,-422.079 688.658,-415.403 678.064,-415.492 680.431,-422.079"/>
</g>
<!-- &#39;null&#39; -->
<g id="node24" class="node"><title>&#39;null&#39;</title>
<polygon fill="white" stroke="black" points="815,-419 761,-419 761,-383 815,-383 815,-419"/>
<text text-anchor="middle" x="788" y="-397.3" font-family="Times,serif" font-size="14.00">&#39;null&#39;</text>
</g>
<!-- value&#45;&gt;&#39;null&#39; -->
<g id="edge41" class="edge"><title>value&#45;&gt;&#39;null&#39;</title>
<path fill="none" stroke="grey" d="M535.184,-463.118C544.288,-460.312 554.53,-457.337 564,-455 643.53,-435.372 669.217,-444.617 751.055,-418.864"/>
<polygon fill="grey" stroke="grey" points="752.332,-422.129 760.774,-415.726 750.182,-415.468 752.332,-422.129"/>
</g>
<!-- int -->
<g id="node30" class="node"><title>int</title>
<polygon fill="white" stroke="black" points="380,-347 326,-347 326,-311 380,-311 380,-347"/>
<text text-anchor="middle" x="353" y="-325.3" font-family="Times,serif" font-size="14.00">int</text>
</g>
<!-- number&#45;&gt;int -->
<g id="edge48" class="edge"><title>number&#45;&gt;int</title>
<path fill="none" stroke="grey" d="M353,-382.697C353,-374.983 353,-365.712 353,-357.112"/>
<polygon fill="grey" stroke="grey" points="356.5,-357.104 353,-347.104 349.5,-357.104 356.5,-357.104"/>
</g>
<!-- frac -->
<g id="node31" class="node"><title>frac</title>
<polygon fill="white" stroke="black" points="452,-347 398,-347 398,-311 452,-311 452,-347"/>
<text text-anchor="middle" x="425" y="-325.3" font-family="Times,serif" font-size="14.00">frac</text>
</g>
<!-- number&#45;&gt;frac -->
<g id="edge49" class="edge"><title>number&#45;&gt;frac</title>
<path fill="none" stroke="grey" d="M370.798,-382.697C379.604,-374.135 390.382,-363.656 400.001,-354.304"/>
<polygon fill="grey" stroke="grey" points="402.677,-356.585 407.407,-347.104 397.797,-351.566 402.677,-356.585"/>
</g>
<!-- number&#45;&gt;int -->
<g id="edge50" class="edge"><title>number&#45;&gt;int</title>
<path fill="none" stroke="grey" d="M353,-382.697C353,-374.983 353,-365.712 353,-357.112"/>
<polygon fill="grey" stroke="grey" points="356.5,-357.104 353,-347.104 349.5,-357.104 356.5,-357.104"/>
</g>
<!-- exp -->
<g id="node32" class="node"><title>exp</title>
<polygon fill="white" stroke="black" points="524,-347 470,-347 470,-311 524,-311 524,-347"/>
<text text-anchor="middle" x="497" y="-325.3" font-family="Times,serif" font-size="14.00">exp</text>
</g>
<!-- number&#45;&gt;exp -->
<g id="edge51" class="edge"><title>number&#45;&gt;exp</title>
<path fill="none" stroke="grey" d="M382.488,-385.666C405.152,-374.648 436.571,-359.375 460.767,-347.613"/>
<polygon fill="grey" stroke="grey" points="462.52,-350.653 469.983,-343.133 459.459,-344.357 462.52,-350.653"/>
</g>
<!-- number&#45;&gt;int -->
<g id="edge52" class="edge"><title>number&#45;&gt;int</title>
<path fill="none" stroke="grey" d="M353,-382.697C353,-374.983 353,-365.712 353,-357.112"/>
<polygon fill="grey" stroke="grey" points="356.5,-357.104 353,-347.104 349.5,-357.104 356.5,-357.104"/>
</g>
<!-- number&#45;&gt;exp -->
<g id="edge53" class="edge"><title>number&#45;&gt;exp</title>
<path fill="none" stroke="grey" d="M382.488,-385.666C405.152,-374.648 436.571,-359.375 460.767,-347.613"/>
<polygon fill="grey" stroke="grey" points="462.52,-350.653 469.983,-343.133 459.459,-344.357 462.52,-350.653"/>
</g>
<!-- number&#45;&gt;frac -->
<g id="edge54" class="edge"><title>number&#45;&gt;frac</title>
<path fill="none" stroke="grey" d="M370.798,-382.697C379.604,-374.135 390.382,-363.656 400.001,-354.304"/>
<polygon fill="grey" stroke="grey" points="402.677,-356.585 407.407,-347.104 397.797,-351.566 402.677,-356.585"/>
</g>
<!-- number&#45;&gt;int -->
<g id="edge55" class="edge"><title>number&#45;&gt;int</title>
<path fill="none" stroke="grey" d="M353,-382.697C353,-374.983 353,-365.712 353,-357.112"/>
<polygon fill="grey" stroke="grey" points="356.5,-357.104 353,-347.104 349.5,-357.104 356.5,-357.104"/>
</g>
<!-- elements&#45;&gt;value -->
<g id="edge47" class="edge"><title>elements&#45;&gt;value</title>
<path fill="none" stroke="grey" d="M835.349,-347.246C839.262,-367.258 841.966,-399.939 824,-419 783.992,-461.445 620.972,-442.49 564,-455 557.748,-456.373 551.182,-458.1 544.834,-459.923"/>
<polygon fill="grey" stroke="grey" points="543.694,-456.611 535.117,-462.83 545.701,-463.317 543.694,-456.611"/>
</g>
<!-- digits -->
<g id="node33" class="node"><title>digits</title>
<polygon fill="white" stroke="black" points="390,-275 336,-275 336,-239 390,-239 390,-275"/>
<text text-anchor="middle" x="363" y="-253.3" font-family="Times,serif" font-size="14.00">digits</text>
</g>
<!-- int&#45;&gt;digits -->
<g id="edge56" class="edge"><title>int&#45;&gt;digits</title>
<path fill="none" stroke="grey" d="M355.472,-310.697C356.574,-302.983 357.898,-293.712 359.127,-285.112"/>
<polygon fill="grey" stroke="grey" points="362.607,-285.499 360.557,-275.104 355.677,-284.509 362.607,-285.499"/>
</g>
<!-- &#39;&#45;&#39; -->
<g id="node34" class="node"><title>&#39;&#45;&#39;</title>
<polygon fill="white" stroke="black" points="318,-275 264,-275 264,-239 318,-239 318,-275"/>
<text text-anchor="middle" x="291" y="-253.3" font-family="Times,serif" font-size="14.00">&#39;&#45;&#39;</text>
</g>
<!-- int&#45;&gt;&#39;&#45;&#39; -->
<g id="edge57" class="edge"><title>int&#45;&gt;&#39;&#45;&#39;</title>
<path fill="none" stroke="grey" d="M337.674,-310.697C330.241,-302.305 321.177,-292.07 313.02,-282.861"/>
<polygon fill="grey" stroke="grey" points="315.4,-280.27 306.15,-275.104 310.16,-284.911 315.4,-280.27"/>
</g>
<!-- int&#45;&gt;digits -->
<g id="edge58" class="edge"><title>int&#45;&gt;digits</title>
<path fill="none" stroke="grey" d="M355.472,-310.697C356.574,-302.983 357.898,-293.712 359.127,-285.112"/>
<polygon fill="grey" stroke="grey" points="362.607,-285.499 360.557,-275.104 355.677,-284.509 362.607,-285.499"/>
</g>
<!-- &#39;.&#39; -->
<g id="node36" class="node"><title>&#39;.&#39;</title>
<polygon fill="white" stroke="black" points="462,-275 408,-275 408,-239 462,-239 462,-275"/>
<text text-anchor="middle" x="435" y="-253.3" font-family="Times,serif" font-size="14.00">&#39;.&#39;</text>
</g>
<!-- frac&#45;&gt;&#39;.&#39; -->
<g id="edge60" class="edge"><title>frac&#45;&gt;&#39;.&#39;</title>
<path fill="none" stroke="grey" d="M427.472,-310.697C428.574,-302.983 429.898,-293.712 431.127,-285.112"/>
<polygon fill="grey" stroke="grey" points="434.607,-285.499 432.557,-275.104 427.677,-284.509 434.607,-285.499"/>
</g>
<!-- frac&#45;&gt;digits -->
<g id="edge61" class="edge"><title>frac&#45;&gt;digits</title>
<path fill="none" stroke="grey" d="M409.674,-310.697C402.241,-302.305 393.177,-292.07 385.02,-282.861"/>
<polygon fill="grey" stroke="grey" points="387.4,-280.27 378.15,-275.104 382.16,-284.911 387.4,-280.27"/>
</g>
<!-- exp&#45;&gt;digits -->
<g id="edge62" class="edge"><title>exp&#45;&gt;digits</title>
<path fill="none" stroke="grey" d="M469.883,-313.834C449.541,-303.208 421.486,-288.553 399.224,-276.923"/>
<polygon fill="grey" stroke="grey" points="400.561,-273.672 390.077,-272.144 397.319,-279.877 400.561,-273.672"/>
</g>
<!-- e -->
<g id="node37" class="node"><title>e</title>
<polygon fill="white" stroke="black" points="570,-275 516,-275 516,-239 570,-239 570,-275"/>
<text text-anchor="middle" x="543" y="-253.3" font-family="Times,serif" font-size="14.00">e</text>
</g>
<!-- exp&#45;&gt;e -->
<g id="edge63" class="edge"><title>exp&#45;&gt;e</title>
<path fill="none" stroke="grey" d="M508.371,-310.697C513.718,-302.559 520.204,-292.689 526.111,-283.701"/>
<polygon fill="grey" stroke="grey" points="529.193,-285.384 531.76,-275.104 523.343,-281.539 529.193,-285.384"/>
</g>
<!-- [\\d] -->
<g id="node35" class="node"><title>[\\d]</title>
<polygon fill="white" stroke="black" points="354,-203 300,-203 300,-167 354,-167 354,-203"/>
<text text-anchor="middle" x="327" y="-181.3" font-family="Times,serif" font-size="14.00">[\d]</text>
</g>
<!-- digits&#45;&gt;[\\d] -->
<g id="edge59" class="edge"><title>digits&#45;&gt;[\\d]</title>
<path fill="none" stroke="grey" d="M354.101,-238.697C350.003,-230.728 345.051,-221.1 340.507,-212.264"/>
<polygon fill="grey" stroke="grey" points="343.483,-210.396 335.797,-203.104 337.258,-213.598 343.483,-210.396"/>
</g>
<!-- &#39;e&#39; -->
<g id="node38" class="node"><title>&#39;e&#39;</title>
<polygon fill="white" stroke="black" points="426,-203 372,-203 372,-167 426,-167 426,-203"/>
<text text-anchor="middle" x="399" y="-181.3" font-family="Times,serif" font-size="14.00">&#39;e&#39;</text>
</g>
<!-- e&#45;&gt;&#39;e&#39; -->
<g id="edge64" class="edge"><title>e&#45;&gt;&#39;e&#39;</title>
<path fill="none" stroke="grey" d="M515.915,-242.834C493.231,-231.807 460.643,-215.966 435.632,-203.807"/>
<polygon fill="grey" stroke="grey" points="436.977,-200.57 426.453,-199.345 433.917,-206.865 436.977,-200.57"/>
</g>
<!-- &#39;e+&#39; -->
<g id="node39" class="node"><title>&#39;e+&#39;</title>
<polygon fill="white" stroke="black" points="498,-203 444,-203 444,-167 498,-167 498,-203"/>
<text text-anchor="middle" x="471" y="-181.3" font-family="Times,serif" font-size="14.00">&#39;e+&#39;</text>
</g>
<!-- e&#45;&gt;&#39;e+&#39; -->
<g id="edge65" class="edge"><title>e&#45;&gt;&#39;e+&#39;</title>
<path fill="none" stroke="grey" d="M525.202,-238.697C516.396,-230.135 505.618,-219.656 495.999,-210.304"/>
<polygon fill="grey" stroke="grey" points="498.203,-207.566 488.593,-203.104 493.323,-212.585 498.203,-207.566"/>
</g>
<!-- &#39;e&#45;&#39; -->
<g id="node40" class="node"><title>&#39;e&#45;&#39;</title>
<polygon fill="white" stroke="black" points="570,-203 516,-203 516,-167 570,-167 570,-203"/>
<text text-anchor="middle" x="543" y="-181.3" font-family="Times,serif" font-size="14.00">&#39;e&#45;&#39;</text>
</g>
<!-- e&#45;&gt;&#39;e&#45;&#39; -->
<g id="edge66" class="edge"><title>e&#45;&gt;&#39;e&#45;&#39;</title>
<path fill="none" stroke="grey" d="M543,-238.697C543,-230.983 543,-221.712 543,-213.112"/>
<polygon fill="grey" stroke="grey" points="546.5,-213.104 543,-203.104 539.5,-213.104 546.5,-213.104"/>
</g>
<!-- &#39;E&#39; -->
<g id="node41" class="node"><title>&#39;E&#39;</title>
<polygon fill="white" stroke="black" points="642,-203 588,-203 588,-167 642,-167 642,-203"/>
<text text-anchor="middle" x="615" y="-181.3" font-family="Times,serif" font-size="14.00">&#39;E&#39;</text>
</g>
<!-- e&#45;&gt;&#39;E&#39; -->
<g id="edge67" class="edge"><title>e&#45;&gt;&#39;E&#39;</title>
<path fill="none" stroke="grey" d="M560.798,-238.697C569.604,-230.135 580.382,-219.656 590.001,-210.304"/>
<polygon fill="grey" stroke="grey" points="592.677,-212.585 597.407,-203.104 587.797,-207.566 592.677,-212.585"/>
</g>
<!-- &#39;E+&#39; -->
<g id="node42" class="node"><title>&#39;E+&#39;</title>
<polygon fill="white" stroke="black" points="714,-203 660,-203 660,-167 714,-167 714,-203"/>
<text text-anchor="middle" x="687" y="-181.3" font-family="Times,serif" font-size="14.00">&#39;E+&#39;</text>
</g>
<!-- e&#45;&gt;&#39;E+&#39; -->
<g id="edge68" class="edge"><title>e&#45;&gt;&#39;E+&#39;</title>
<path fill="none" stroke="grey" d="M570.085,-242.834C592.769,-231.807 625.357,-215.966 650.368,-203.807"/>
<polygon fill="grey" stroke="grey" points="652.083,-206.865 659.547,-199.345 649.023,-200.57 652.083,-206.865"/>
</g>
<!-- &#39;E&#45;&#39; -->
<g id="node43" class="node"><title>&#39;E&#45;&#39;</title>
<polygon fill="white" stroke="black" points="786,-203 732,-203 732,-167 786,-167 786,-203"/>
<text text-anchor="middle" x="759" y="-181.3" font-family="Times,serif" font-size="14.00">&#39;E&#45;&#39;</text>
</g>
<!-- e&#45;&gt;&#39;E&#45;&#39; -->
<g id="edge69" class="edge"><title>e&#45;&gt;&#39;E&#45;&#39;</title>
<path fill="none" stroke="grey" d="M570.268,-249.378C604.098,-240.86 663.587,-224.897 722.266,-203.004"/>
<polygon fill="grey" stroke="grey" points="723.561,-206.256 731.672,-199.44 721.081,-199.71 723.561,-206.256"/>
</g>
<!-- quote -->
<g id="node45" class="node"><title>quote</title>
<polygon fill="white" stroke="black" points="132,-275 78,-275 78,-239 132,-239 132,-275"/>
<text text-anchor="middle" x="105" y="-253.3" font-family="Times,serif" font-size="14.00">quote</text>
</g>
<!-- string lexeme&#45;&gt;quote -->
<g id="edge71" class="edge"><title>string lexeme&#45;&gt;quote</title>
<path fill="none" stroke="grey" d="M106.612,-310.697C104.715,-302.983 103.164,-293.712 102.278,-285.112"/>
<polygon fill="grey" stroke="grey" points="105.766,-284.823 101.548,-275.104 98.7848,-285.332 105.766,-284.823"/>
</g>
<!-- string lexeme&#45;&gt;quote -->
<g id="edge72" class="edge"><title>string lexeme&#45;&gt;quote</title>
<path fill="none" stroke="grey" d="M118.444,-310.697C118.138,-302.983 117.04,-293.712 115.468,-285.112"/>
<polygon fill="grey" stroke="grey" points="118.844,-284.157 113.339,-275.104 111.997,-285.614 118.844,-284.157"/>
</g>
<!-- string contents -->
<g id="node46" class="node"><title>string contents</title>
<polygon fill="white" stroke="black" points="246,-275 150,-275 150,-239 246,-239 246,-275"/>
<text text-anchor="middle" x="198" y="-253.3" font-family="Times,serif" font-size="14.00">string contents</text>
</g>
<!-- string lexeme&#45;&gt;string contents -->
<g id="edge73" class="edge"><title>string lexeme&#45;&gt;string contents</title>
<path fill="none" stroke="grey" d="M135.517,-310.697C145.869,-301.965 158.586,-291.24 169.839,-281.75"/>
<polygon fill="grey" stroke="grey" points="172.331,-284.227 177.719,-275.104 167.818,-278.876 172.331,-284.227"/>
</g>
<!-- [ꞌꞌ] -->
<g id="node47" class="node"><title>[ꞌꞌ]</title>
<polygon fill="white" stroke="black" points="132,-203 78,-203 78,-167 132,-167 132,-203"/>
<text text-anchor="middle" x="105" y="-181.3" font-family="Times,serif" font-size="14.00">[ꞌꞌ]</text>
</g>
<!-- quote&#45;&gt;[ꞌꞌ] -->
<g id="edge74" class="edge"><title>quote&#45;&gt;[ꞌꞌ]</title>
<path fill="none" stroke="grey" d="M105,-238.697C105,-230.983 105,-221.712 105,-213.112"/>
<polygon fill="grey" stroke="grey" points="108.5,-213.104 105,-203.104 101.5,-213.104 108.5,-213.104"/>
</g>
<!-- string char -->
<g id="node48" class="node"><title>string char</title>
<polygon fill="white" stroke="black" points="235,-203 161,-203 161,-167 235,-167 235,-203"/>
<text text-anchor="middle" x="198" y="-181.3" font-family="Times,serif" font-size="14.00">string char</text>
</g>
<!-- string contents&#45;&gt;string char -->
<g id="edge75" class="edge"><title>string contents&#45;&gt;string char</title>
<path fill="none" stroke="grey" d="M198,-238.697C198,-230.983 198,-221.712 198,-213.112"/>
<polygon fill="grey" stroke="grey" points="201.5,-213.104 198,-203.104 194.5,-213.104 201.5,-213.104"/>
</g>
<!-- [^ꞌꞌ\\\\] -->
<g id="node49" class="node"><title>[^ꞌꞌ\\\\]</title>
<polygon fill="white" stroke="black" points="153,-131 99,-131 99,-95 153,-95 153,-131"/>
<text text-anchor="middle" x="126" y="-109.3" font-family="Times,serif" font-size="14.00">[^ꞌꞌ\\]</text>
</g>
<!-- string char&#45;&gt;[^ꞌꞌ\\\\] -->
<g id="edge76" class="edge"><title>string char&#45;&gt;[^ꞌꞌ\\\\]</title>
<path fill="none" stroke="grey" d="M180.202,-166.697C171.396,-158.135 160.618,-147.656 150.999,-138.304"/>
<polygon fill="grey" stroke="grey" points="153.203,-135.566 143.593,-131.104 148.323,-140.585 153.203,-135.566"/>
</g>
<!-- &#39;\\&#39; -->
<g id="node50" class="node"><title>&#39;\\&#39;</title>
<polygon fill="white" stroke="black" points="225,-131 171,-131 171,-95 225,-95 225,-131"/>
<text text-anchor="middle" x="198" y="-109.3" font-family="Times,serif" font-size="14.00">&#39;\&#39;</text>
</g>
<!-- string char&#45;&gt;&#39;\\&#39; -->
<g id="edge77" class="edge"><title>string char&#45;&gt;&#39;\\&#39;</title>
<path fill="none" stroke="grey" d="M198,-166.697C198,-158.983 198,-149.712 198,-141.112"/>
<polygon fill="grey" stroke="grey" points="201.5,-141.104 198,-131.104 194.5,-141.104 201.5,-141.104"/>
</g>
<!-- any char -->
<g id="node51" class="node"><title>any char</title>
<polygon fill="white" stroke="black" points="306.25,-131 243.75,-131 243.75,-95 306.25,-95 306.25,-131"/>
<text text-anchor="middle" x="275" y="-109.3" font-family="Times,serif" font-size="14.00">any char</text>
</g>
<!-- string char&#45;&gt;any char -->
<g id="edge78" class="edge"><title>string char&#45;&gt;any char</title>
<path fill="none" stroke="grey" d="M217.034,-166.697C226.545,-158.05 238.207,-147.449 248.57,-138.027"/>
<polygon fill="grey" stroke="grey" points="251.14,-140.421 256.185,-131.104 246.431,-135.241 251.14,-140.421"/>
</g>
<!-- [\\d\\D] -->
<g id="node52" class="node"><title>[\\d\\D]</title>
<polygon fill="white" stroke="black" points="302,-59 248,-59 248,-23 302,-23 302,-59"/>
<text text-anchor="middle" x="275" y="-37.3" font-family="Times,serif" font-size="14.00">[\d\D]</text>
</g>
<!-- any char&#45;&gt;[\\d\\D] -->
<g id="edge79" class="edge"><title>any char&#45;&gt;[\\d\\D]</title>
<path fill="none" stroke="grey" d="M275,-94.6966C275,-86.9827 275,-77.7125 275,-69.1124"/>
<polygon fill="grey" stroke="grey" points="278.5,-69.1043 275,-59.1043 271.5,-69.1044 278.5,-69.1043"/>
</g>
<!-- comma -->
<g id="node53" class="node"><title>comma</title>
<polygon fill="white" stroke="black" points="887.5,-787 830.5,-787 830.5,-751 887.5,-751 887.5,-787"/>
<text text-anchor="middle" x="859" y="-765.3" font-family="Times,serif" font-size="14.00">comma</text>
</g>
<!-- &#39;,&#39; -->
<g id="node54" class="node"><title>&#39;,&#39;</title>
<polygon fill="white" stroke="black" points="886,-709 832,-709 832,-673 886,-673 886,-709"/>
<text text-anchor="middle" x="859" y="-687.3" font-family="Times,serif" font-size="14.00">&#39;,&#39;</text>
</g>
<!-- comma&#45;&gt;&#39;,&#39; -->
<g id="edge80" class="edge"><title>comma&#45;&gt;&#39;,&#39;</title>
<path fill="none" stroke="grey" d="M859,-750.754C859,-741.523 859,-729.935 859,-719.495"/>
<polygon fill="grey" stroke="grey" points="862.5,-719.177 859,-709.177 855.5,-719.177 862.5,-719.177"/>
</g>
</g>
</svg>
