<?xml version="1.0" encoding="UTF-8" standalone="no"?>
<!DOCTYPE svg PUBLIC "-//W3C//DTD SVG 1.1//EN"
 "http://www.w3.org/Graphics/SVG/1.1/DTD/svg11.dtd">
<!-- Generated by graphviz version 2.38.0 (20140413.2041)
 -->
<!-- Title: Perl Pages: 1 -->
<svg width="566pt" height="313pt"
 viewBox="0.00 0.00 565.50 313.00" xmlns="http://www.w3.org/2000/svg" xmlns:xlink="http://www.w3.org/1999/xlink">
<g id="graph0" class="graph" transform="scale(1 1) rotate(0) translate(4 309)">
<title>Perl</title>
<polygon fill="white" stroke="none" points="-4,4 -4,-309 561.5,-309 561.5,4 -4,4"/>
<text text-anchor="middle" x="278.75" y="-7.8" font-family="Times,serif" font-size="14.00">json.1.bnf</text>
<!-- lexeme default -->
<g id="node1" class="node"><title>lexeme default</title>
<polygon fill="lightblue" stroke="black" points="98,-227.5 7.10543e-15,-227.5 7.10543e-15,-191.5 98,-191.5 98,-227.5"/>
<text text-anchor="middle" x="49" y="-205.8" font-family="Times,serif" font-size="14.00">lexeme default</text>
</g>
<!-- lexeme default_1 -->
<g id="node3" class="node"><title>lexeme default_1</title>
<path fill="lightblue" stroke="black" d="M25.5,-68.5C25.5,-68.5 72.5,-68.5 72.5,-68.5 78.5,-68.5 84.5,-74.5 84.5,-80.5 84.5,-80.5 84.5,-92.5 84.5,-92.5 84.5,-98.5 78.5,-104.5 72.5,-104.5 72.5,-104.5 25.5,-104.5 25.5,-104.5 19.5,-104.5 13.5,-98.5 13.5,-92.5 13.5,-92.5 13.5,-80.5 13.5,-80.5 13.5,-74.5 19.5,-68.5 25.5,-68.5"/>
<text text-anchor="middle" x="49" y="-82.8" font-family="Times,serif" font-size="14.00">latm =&gt; 1</text>
</g>
<!-- lexeme default&#45;&gt;lexeme default_1 -->
<g id="edge2" class="edge"><title>lexeme default&#45;&gt;lexeme default_1</title>
<path fill="none" stroke="grey" d="M49,-191.42C49,-171.535 49,-138.423 49,-114.923"/>
<polygon fill="grey" stroke="grey" points="52.5001,-114.885 49,-104.885 45.5001,-114.885 52.5001,-114.885"/>
</g>
<!-- BNF -->
<g id="node2" class="node"><title>BNF</title>
<polygon fill="lightgrey" stroke="black" points="170,-305 116,-305 116,-269 170,-269 170,-305"/>
<text text-anchor="middle" x="143" y="-283.3" font-family="Times,serif" font-size="14.00">BNF</text>
</g>
<!-- BNF&#45;&gt;lexeme default -->
<g id="edge1" class="edge"><title>BNF&#45;&gt;lexeme default</title>
<path fill="none" stroke="grey" d="M121.67,-268.868C108.81,-258.539 92.2519,-245.24 78.1899,-233.945"/>
<polygon fill="grey" stroke="grey" points="80.234,-231.098 70.2456,-227.564 75.8504,-236.555 80.234,-231.098"/>
</g>
<!-- json -->
<g id="node4" class="node"><title>json</title>
<path fill="lightgreen" stroke="black" d="M128,-186.5C128,-186.5 158,-186.5 158,-186.5 164,-186.5 170,-192.5 170,-198.5 170,-198.5 170,-220.5 170,-220.5 170,-226.5 164,-232.5 158,-232.5 158,-232.5 128,-232.5 128,-232.5 122,-232.5 116,-226.5 116,-220.5 116,-220.5 116,-198.5 116,-198.5 116,-192.5 122,-186.5 128,-186.5"/>
<text text-anchor="middle" x="143" y="-217.3" font-family="Times,serif" font-size="14.00">:start</text>
<polyline fill="none" stroke="black" points="116,-209.5 170,-209.5 "/>
<text text-anchor="middle" x="143" y="-194.3" font-family="Times,serif" font-size="14.00">json</text>
</g>
<!-- BNF&#45;&gt;json -->
<g id="edge3" class="edge"><title>BNF&#45;&gt;json</title>
<path fill="none" stroke="grey" d="M143,-268.868C143,-261.175 143,-251.835 143,-242.902"/>
<polygon fill="grey" stroke="grey" points="146.5,-242.727 143,-232.727 139.5,-242.727 146.5,-242.727"/>
</g>
<!-- ꞉discard -->
<g id="node5" class="node"><title>꞉discard</title>
<polygon fill="lightblue" stroke="black" points="248,-227.5 188,-227.5 188,-191.5 248,-191.5 248,-227.5"/>
<text text-anchor="middle" x="218" y="-205.8" font-family="Times,serif" font-size="14.00">꞉discard</text>
</g>
<!-- BNF&#45;&gt;꞉discard -->
<g id="edge4" class="edge"><title>BNF&#45;&gt;꞉discard</title>
<path fill="none" stroke="grey" d="M160.019,-268.868C169.991,-258.829 182.752,-245.983 193.762,-234.9"/>
<polygon fill="grey" stroke="grey" points="196.484,-237.126 201.049,-227.564 191.518,-232.192 196.484,-237.126"/>
</g>
<!-- lexeme -->
<g id="node6" class="node"><title>lexeme</title>
<polygon fill="lightblue" stroke="black" points="246,-104.5 190,-104.5 190,-68.5 246,-68.5 246,-104.5"/>
<text text-anchor="middle" x="218" y="-82.8" font-family="Times,serif" font-size="14.00">lexeme</text>
</g>
<!-- ꞉discard&#45;&gt;lexeme -->
<g id="edge5" class="edge"><title>꞉discard&#45;&gt;lexeme</title>
<path fill="none" stroke="grey" d="M218,-191.42C218,-171.535 218,-138.423 218,-114.923"/>
<polygon fill="grey" stroke="grey" points="221.5,-114.885 218,-104.885 214.5,-114.885 221.5,-114.885"/>
</g>
<!-- Legend -->
<g id="node7" class="node"><title>Legend</title>
<polygon fill="lightgrey" stroke="none" points="557.5,-150 264.5,-150 264.5,-23 557.5,-23 557.5,-150"/>
<polygon fill="white" stroke="none" points="272.5,-27 272.5,-146 549.5,-146 549.5,-27 272.5,-27"/>
<polygon fill="lightgreen" stroke="none" points="276,-121.5 276,-142.5 547,-142.5 547,-121.5 276,-121.5"/>
<polygon fill="none" stroke="black" points="276,-121.5 276,-142.5 547,-142.5 547,-121.5 276,-121.5"/>
<text text-anchor="start" x="322.5" y="-128.3" font-family="Times,serif" font-size="14.00">The green node is the start node</text>
<polygon fill="lightblue" stroke="none" points="276,-98.5 276,-119.5 547,-119.5 547,-98.5 276,-98.5"/>
<polygon fill="none" stroke="black" points="276,-98.5 276,-119.5 547,-119.5 547,-98.5 276,-98.5"/>
<text text-anchor="start" x="279" y="-105.3" font-family="Times,serif" font-size="14.00">Lightblue nodes are for reserved rule names, etc</text>
<polygon fill="orchid" stroke="none" points="276,-75.5 276,-96.5 547,-96.5 547,-75.5 276,-75.5"/>
<polygon fill="none" stroke="black" points="276,-75.5 276,-96.5 547,-96.5 547,-75.5 276,-75.5"/>
<text text-anchor="start" x="330" y="-82.3" font-family="Times,serif" font-size="14.00">Orchid nodes are for lexemes</text>
<polygon fill="goldenrod" stroke="none" points="276,-52.5 276,-73.5 547,-73.5 547,-52.5 276,-52.5"/>
<polygon fill="none" stroke="black" points="276,-52.5 276,-73.5 547,-73.5 547,-52.5 276,-52.5"/>
<text text-anchor="start" x="331.5" y="-59.3" font-family="Times,serif" font-size="14.00">Golden nodes are for actions</text>
<polygon fill="#ff3030" stroke="none" points="276,-29.5 276,-50.5 547,-50.5 547,-29.5 276,-29.5"/>
<polygon fill="none" stroke="black" points="276,-29.5 276,-50.5 547,-50.5 547,-29.5 276,-29.5"/>
<text text-anchor="start" x="343.5" y="-36.3" font-family="Times,serif" font-size="14.00">Red nodes are for events</text>
<polygon fill="none" stroke="black" points="272.5,-27 272.5,-146 549.5,-146 549.5,-27 272.5,-27"/>
</g>
</g>
</svg>
