<?xml version="1.0" encoding="UTF-8" standalone="no"?>
<!DOCTYPE svg PUBLIC "-//W3C//DTD SVG 1.1//EN"
 "http://www.w3.org/Graphics/SVG/1.1/DTD/svg11.dtd">
<!-- Generated by graphviz version 2.38.0 (20140413.2041)
 -->
<!-- Title: Perl Pages: 1 -->
<svg width="505pt" height="313pt"
 viewBox="0.00 0.00 504.50 313.00" xmlns="http://www.w3.org/2000/svg" xmlns:xlink="http://www.w3.org/1999/xlink">
<g id="graph0" class="graph" transform="scale(1 1) rotate(0) translate(4 309)">
<title>Perl</title>
<polygon fill="white" stroke="none" points="-4,4 -4,-309 500.5,-309 500.5,4 -4,4"/>
<text text-anchor="middle" x="248.25" y="-7.8" font-family="Times,serif" font-size="14.00">json.2.bnf</text>
<!-- json -->
<g id="node1" class="node"><title>json</title>
<path fill="lightgreen" stroke="black" d="M95,-258.5C95,-258.5 125,-258.5 125,-258.5 131,-258.5 137,-264.5 137,-270.5 137,-270.5 137,-292.5 137,-292.5 137,-298.5 131,-304.5 125,-304.5 125,-304.5 95,-304.5 95,-304.5 89,-304.5 83,-298.5 83,-292.5 83,-292.5 83,-270.5 83,-270.5 83,-264.5 89,-258.5 95,-258.5"/>
<text text-anchor="middle" x="110" y="-289.3" font-family="Times,serif" font-size="14.00">:start</text>
<polyline fill="none" stroke="black" points="83,-281.5 137,-281.5 "/>
<text text-anchor="middle" x="110" y="-266.3" font-family="Times,serif" font-size="14.00">json</text>
</g>
<!-- ꞉default -->
<g id="node2" class="node"><title>꞉default</title>
<polygon fill="lightblue" stroke="black" points="92.5,-222 33.5,-222 33.5,-186 92.5,-186 92.5,-222"/>
<text text-anchor="middle" x="63" y="-200.3" font-family="Times,serif" font-size="14.00">꞉default</text>
</g>
<!-- json&#45;&gt;꞉default -->
<g id="edge1" class="edge"><title>json&#45;&gt;꞉default</title>
<path fill="none" stroke="grey" d="M96.1527,-258.256C90.7913,-249.643 84.6185,-239.728 79.0638,-230.805"/>
<polygon fill="grey" stroke="grey" points="82.0242,-228.937 73.768,-222.298 76.0816,-232.637 82.0242,-228.937"/>
</g>
<!-- ꞉discard -->
<g id="node4" class="node"><title>꞉discard</title>
<polygon fill="lightblue" stroke="black" points="188,-222 128,-222 128,-186 188,-186 188,-222"/>
<text text-anchor="middle" x="158" y="-200.3" font-family="Times,serif" font-size="14.00">꞉discard</text>
</g>
<!-- json&#45;&gt;꞉discard -->
<g id="edge3" class="edge"><title>json&#45;&gt;꞉discard</title>
<path fill="none" stroke="grey" d="M124.142,-258.256C129.617,-249.643 135.922,-239.728 141.594,-230.805"/>
<polygon fill="grey" stroke="grey" points="144.591,-232.614 147.003,-222.298 138.684,-228.859 144.591,-232.614"/>
</g>
<!-- ꞉default_1 -->
<g id="node3" class="node"><title>꞉default_1</title>
<path fill="goldenrod" stroke="black" d="M12,-68.5C12,-68.5 98,-68.5 98,-68.5 104,-68.5 110,-74.5 110,-80.5 110,-80.5 110,-92.5 110,-92.5 110,-98.5 104,-104.5 98,-104.5 98,-104.5 12,-104.5 12,-104.5 6,-104.5 0,-98.5 0,-92.5 0,-92.5 0,-80.5 0,-80.5 0,-74.5 6,-68.5 12,-68.5"/>
<text text-anchor="middle" x="55" y="-82.8" font-family="Times,serif" font-size="14.00">action =&gt; ꞉꞉array</text>
</g>
<!-- ꞉default&#45;&gt;꞉default_1 -->
<g id="edge2" class="edge"><title>꞉default&#45;&gt;꞉default_1</title>
<path fill="none" stroke="grey" d="M61.8196,-185.958C60.5197,-167.191 58.4117,-136.756 56.8831,-114.687"/>
<polygon fill="grey" stroke="grey" points="60.368,-114.347 56.1853,-104.612 53.3847,-114.83 60.368,-114.347"/>
</g>
<!-- whitespace -->
<g id="node5" class="node"><title>whitespace</title>
<polygon fill="lightblue" stroke="black" points="205.5,-104.5 128.5,-104.5 128.5,-68.5 205.5,-68.5 205.5,-104.5"/>
<text text-anchor="middle" x="167" y="-82.8" font-family="Times,serif" font-size="14.00">whitespace</text>
</g>
<!-- ꞉discard&#45;&gt;whitespace -->
<g id="edge4" class="edge"><title>꞉discard&#45;&gt;whitespace</title>
<path fill="none" stroke="grey" d="M159.328,-185.958C160.79,-167.191 163.162,-136.756 164.882,-114.687"/>
<polygon fill="grey" stroke="grey" points="168.379,-114.854 165.667,-104.612 161.4,-114.31 168.379,-114.854"/>
</g>
<!-- Legend -->
<g id="node6" class="node"><title>Legend</title>
<polygon fill="lightgrey" stroke="none" points="496.5,-150 223.5,-150 223.5,-23 496.5,-23 496.5,-150"/>
<polygon fill="white" stroke="none" points="231.5,-27 231.5,-146 488.5,-146 488.5,-27 231.5,-27"/>
<polygon fill="lightgreen" stroke="none" points="235,-121.5 235,-142.5 486,-142.5 486,-121.5 235,-121.5"/>
<polygon fill="none" stroke="black" points="235,-121.5 235,-142.5 486,-142.5 486,-121.5 235,-121.5"/>
<text text-anchor="start" x="273" y="-128.3" font-family="Times,serif" font-size="14.00">The green node is the start node</text>
<polygon fill="lightblue" stroke="none" points="235,-98.5 235,-119.5 486,-119.5 486,-98.5 235,-98.5"/>
<polygon fill="none" stroke="black" points="235,-98.5 235,-119.5 486,-119.5 486,-98.5 235,-98.5"/>
<text text-anchor="start" x="238" y="-105.3" font-family="Times,serif" font-size="14.00">Lightblue nodes are for lexeme attributes etc</text>
<polygon fill="orchid" stroke="none" points="235,-75.5 235,-96.5 486,-96.5 486,-75.5 235,-75.5"/>
<polygon fill="none" stroke="black" points="235,-75.5 235,-96.5 486,-96.5 486,-75.5 235,-75.5"/>
<text text-anchor="start" x="279.5" y="-82.3" font-family="Times,serif" font-size="14.00">Orchid nodes are for lexemes</text>
<polygon fill="goldenrod" stroke="none" points="235,-52.5 235,-73.5 486,-73.5 486,-52.5 235,-52.5"/>
<polygon fill="none" stroke="black" points="235,-52.5 235,-73.5 486,-73.5 486,-52.5 235,-52.5"/>
<text text-anchor="start" x="282" y="-59.3" font-family="Times,serif" font-size="14.00">Golden nodes are for actions</text>
<polygon fill="#ff3030" stroke="none" points="235,-29.5 235,-50.5 486,-50.5 486,-29.5 235,-29.5"/>
<polygon fill="none" stroke="black" points="235,-29.5 235,-50.5 486,-50.5 486,-29.5 235,-29.5"/>
<text text-anchor="start" x="292.5" y="-36.3" font-family="Times,serif" font-size="14.00">Red nodes are for events</text>
<polygon fill="none" stroke="black" points="231.5,-27 231.5,-146 488.5,-146 488.5,-27 231.5,-27"/>
</g>
</g>
</svg>
