<?xml version="1.0" encoding="UTF-8" standalone="no"?>
<!DOCTYPE svg PUBLIC "-//W3C//DTD SVG 1.1//EN"
 "http://www.w3.org/Graphics/SVG/1.1/DTD/svg11.dtd">
<!-- Generated by graphviz version 2.30.1 (20130611.0131)
 -->
<!-- Title: Perl Pages: 1 -->
<svg width="84pt" height="223pt"
 viewBox="0.00 0.00 84.00 223.00" xmlns="http://www.w3.org/2000/svg" xmlns:xlink="http://www.w3.org/1999/xlink">
<g id="graph0" class="graph" transform="scale(1 1) rotate(0) translate(4 219)">
<title>Perl</title>
<polygon fill="white" stroke="white" points="-4,5 -4,-219 81,-219 81,5 -4,5"/>
<text text-anchor="middle" x="38" y="-7.8" font-family="Times,serif" font-size="14.00">json.1.bnf</text>
<!-- json -->
<g id="node1" class="node"><title>json</title>
<path fill="lightgreen" stroke="black" d="M23,-168C23,-168 53,-168 53,-168 59,-168 65,-174 65,-180 65,-180 65,-202 65,-202 65,-208 59,-214 53,-214 53,-214 23,-214 23,-214 17,-214 11,-208 11,-202 11,-202 11,-180 11,-180 11,-174 17,-168 23,-168"/>
<text text-anchor="middle" x="38" y="-198.8" font-family="Times,serif" font-size="14.00">:start</text>
<polyline fill="none" stroke="black" points="11,-191 65,-191 "/>
<text text-anchor="middle" x="38" y="-175.8" font-family="Times,serif" font-size="14.00">json</text>
</g>
<!-- ꞉discard -->
<g id="node2" class="node"><title>꞉discard</title>
<polygon fill="lightblue" stroke="black" points="67.25,-131 8.75,-131 8.75,-95 67.25,-95 67.25,-131"/>
<text text-anchor="middle" x="38" y="-109.3" font-family="Times,serif" font-size="14.00">꞉discard</text>
</g>
<!-- json&#45;&gt;꞉discard -->
<g id="edge1" class="edge"><title>json&#45;&gt;꞉discard</title>
<path fill="none" stroke="grey" d="M38,-167.609C38,-159.481 38,-150.2 38,-141.671"/>
<polygon fill="grey" stroke="grey" points="41.5001,-141.412 38,-131.412 34.5001,-141.412 41.5001,-141.412"/>
</g>
<!-- whitespace -->
<g id="node3" class="node"><title>whitespace</title>
<polygon fill="lightblue" stroke="black" points="76.25,-59 -0.25,-59 -0.25,-23 76.25,-23 76.25,-59"/>
<text text-anchor="middle" x="38" y="-37.3" font-family="Times,serif" font-size="14.00">whitespace</text>
</g>
<!-- ꞉discard&#45;&gt;whitespace -->
<g id="edge2" class="edge"><title>꞉discard&#45;&gt;whitespace</title>
<path fill="none" stroke="grey" d="M38,-94.6966C38,-86.9827 38,-77.7125 38,-69.1124"/>
<polygon fill="grey" stroke="grey" points="41.5001,-69.1043 38,-59.1043 34.5001,-69.1044 41.5001,-69.1043"/>
</g>
</g>
</svg>
