<?xml version="1.0" encoding="UTF-8" standalone="no"?>
<!DOCTYPE svg PUBLIC "-//W3C//DTD SVG 1.1//EN"
 "http://www.w3.org/Graphics/SVG/1.1/DTD/svg11.dtd">
<!-- Generated by graphviz version 2.38.0 (20140413.2041)
 -->
<!-- Title: Perl Pages: 1 -->
<svg width="660pt" height="302pt"
 viewBox="0.00 0.00 659.50 302.00" xmlns="http://www.w3.org/2000/svg" xmlns:xlink="http://www.w3.org/1999/xlink">
<g id="graph0" class="graph" transform="scale(1 1) rotate(0) translate(4 298)">
<title>Perl</title>
<polygon fill="white" stroke="none" points="-4,4 -4,-298 655.5,-298 655.5,4 -4,4"/>
<text text-anchor="middle" x="325.75" y="-7.8" font-family="Times,serif" font-size="14.00">json.3.bnf</text>
<!-- ꞉default -->
<g id="node1" class="node"><title>꞉default</title>
<polygon fill="lightblue" stroke="black" points="103.5,-222 44.5,-222 44.5,-186 103.5,-186 103.5,-222"/>
<text text-anchor="middle" x="74" y="-200.3" font-family="Times,serif" font-size="14.00">꞉default</text>
</g>
<!-- ꞉default_1 -->
<g id="node3" class="node"><title>꞉default_1</title>
<path fill="goldenrod" stroke="black" d="M12,-68.5C12,-68.5 90,-68.5 90,-68.5 96,-68.5 102,-74.5 102,-80.5 102,-80.5 102,-92.5 102,-92.5 102,-98.5 96,-104.5 90,-104.5 90,-104.5 12,-104.5 12,-104.5 6,-104.5 0,-98.5 0,-92.5 0,-92.5 0,-80.5 0,-80.5 0,-74.5 6,-68.5 12,-68.5"/>
<text text-anchor="middle" x="51" y="-82.8" font-family="Times,serif" font-size="14.00">action =&gt; ::first</text>
</g>
<!-- ꞉default&#45;&gt;꞉default_1 -->
<g id="edge2" class="edge"><title>꞉default&#45;&gt;꞉default_1</title>
<path fill="none" stroke="grey" d="M70.6063,-185.958C66.8693,-167.191 60.8086,-136.756 56.4138,-114.687"/>
<polygon fill="grey" stroke="grey" points="59.7933,-113.736 54.4077,-104.612 52.9281,-115.103 59.7933,-113.736"/>
</g>
<!-- BNF -->
<g id="node2" class="node"><title>BNF</title>
<polygon fill="lightgrey" stroke="black" points="220,-294 166,-294 166,-258 220,-258 220,-294"/>
<text text-anchor="middle" x="193" y="-272.3" font-family="Times,serif" font-size="14.00">BNF</text>
</g>
<!-- BNF&#45;&gt;꞉default -->
<g id="edge1" class="edge"><title>BNF&#45;&gt;꞉default</title>
<path fill="none" stroke="grey" d="M165.997,-259.116C149.997,-249.704 129.474,-237.632 111.873,-227.278"/>
<polygon fill="grey" stroke="grey" points="113.369,-224.098 102.975,-222.044 109.82,-230.131 113.369,-224.098"/>
</g>
<!-- lexeme default -->
<g id="node4" class="node"><title>lexeme default</title>
<polygon fill="lightblue" stroke="black" points="242,-222 144,-222 144,-186 242,-186 242,-222"/>
<text text-anchor="middle" x="193" y="-200.3" font-family="Times,serif" font-size="14.00">lexeme default</text>
</g>
<!-- BNF&#45;&gt;lexeme default -->
<g id="edge3" class="edge"><title>BNF&#45;&gt;lexeme default</title>
<path fill="none" stroke="grey" d="M193,-257.697C193,-249.983 193,-240.712 193,-232.112"/>
<polygon fill="grey" stroke="grey" points="196.5,-232.104 193,-222.104 189.5,-232.104 196.5,-232.104"/>
</g>
<!-- ꞉discard -->
<g id="node6" class="node"><title>꞉discard</title>
<polygon fill="lightblue" stroke="black" points="331,-222 271,-222 271,-186 331,-186 331,-222"/>
<text text-anchor="middle" x="301" y="-200.3" font-family="Times,serif" font-size="14.00">꞉discard</text>
</g>
<!-- BNF&#45;&gt;꞉discard -->
<g id="edge5" class="edge"><title>BNF&#45;&gt;꞉discard</title>
<path fill="none" stroke="grey" d="M219.42,-257.876C233.41,-248.808 250.776,-237.552 265.886,-227.759"/>
<polygon fill="grey" stroke="grey" points="267.991,-230.566 274.479,-222.19 264.183,-224.692 267.991,-230.566"/>
</g>
<!-- lexeme default_1 -->
<g id="node5" class="node"><title>lexeme default_1</title>
<path fill="lightblue" stroke="black" d="M132.5,-63.5C132.5,-63.5 253.5,-63.5 253.5,-63.5 259.5,-63.5 265.5,-69.5 265.5,-75.5 265.5,-75.5 265.5,-97.5 265.5,-97.5 265.5,-103.5 259.5,-109.5 253.5,-109.5 253.5,-109.5 132.5,-109.5 132.5,-109.5 126.5,-109.5 120.5,-103.5 120.5,-97.5 120.5,-97.5 120.5,-75.5 120.5,-75.5 120.5,-69.5 126.5,-63.5 132.5,-63.5"/>
<text text-anchor="middle" x="193" y="-94.3" font-family="Times,serif" font-size="14.00">latm =&gt; 1</text>
<polyline fill="none" stroke="black" points="120.5,-86.5 265.5,-86.5 "/>
<text text-anchor="middle" x="193" y="-71.3" font-family="Times,serif" font-size="14.00">action =&gt; [name,value]</text>
</g>
<!-- lexeme default&#45;&gt;lexeme default_1 -->
<g id="edge4" class="edge"><title>lexeme default&#45;&gt;lexeme default_1</title>
<path fill="none" stroke="grey" d="M193,-185.958C193,-168.672 193,-141.487 193,-120.058"/>
<polygon fill="grey" stroke="grey" points="196.5,-119.765 193,-109.765 189.5,-119.765 196.5,-119.765"/>
</g>
<!-- lexeme -->
<g id="node7" class="node"><title>lexeme</title>
<polygon fill="lightblue" stroke="black" points="340,-104.5 284,-104.5 284,-68.5 340,-68.5 340,-104.5"/>
<text text-anchor="middle" x="312" y="-82.8" font-family="Times,serif" font-size="14.00">lexeme</text>
</g>
<!-- ꞉discard&#45;&gt;lexeme -->
<g id="edge6" class="edge"><title>꞉discard&#45;&gt;lexeme</title>
<path fill="none" stroke="grey" d="M302.623,-185.958C304.41,-167.191 307.309,-136.756 309.411,-114.687"/>
<polygon fill="grey" stroke="grey" points="312.906,-114.899 310.37,-104.612 305.938,-114.235 312.906,-114.899"/>
</g>
<!-- Legend -->
<g id="node8" class="node"><title>Legend</title>
<polygon fill="lightgrey" stroke="none" points="651.5,-150 358.5,-150 358.5,-23 651.5,-23 651.5,-150"/>
<polygon fill="white" stroke="none" points="366.5,-27 366.5,-146 643.5,-146 643.5,-27 366.5,-27"/>
<polygon fill="lightgreen" stroke="none" points="370,-121.5 370,-142.5 641,-142.5 641,-121.5 370,-121.5"/>
<polygon fill="none" stroke="black" points="370,-121.5 370,-142.5 641,-142.5 641,-121.5 370,-121.5"/>
<text text-anchor="start" x="416.5" y="-128.3" font-family="Times,serif" font-size="14.00">The green node is the start node</text>
<polygon fill="lightblue" stroke="none" points="370,-98.5 370,-119.5 641,-119.5 641,-98.5 370,-98.5"/>
<polygon fill="none" stroke="black" points="370,-98.5 370,-119.5 641,-119.5 641,-98.5 370,-98.5"/>
<text text-anchor="start" x="373" y="-105.3" font-family="Times,serif" font-size="14.00">Lightblue nodes are for reserved rule names, etc</text>
<polygon fill="orchid" stroke="none" points="370,-75.5 370,-96.5 641,-96.5 641,-75.5 370,-75.5"/>
<polygon fill="none" stroke="black" points="370,-75.5 370,-96.5 641,-96.5 641,-75.5 370,-75.5"/>
<text text-anchor="start" x="424" y="-82.3" font-family="Times,serif" font-size="14.00">Orchid nodes are for lexemes</text>
<polygon fill="goldenrod" stroke="none" points="370,-52.5 370,-73.5 641,-73.5 641,-52.5 370,-52.5"/>
<polygon fill="none" stroke="black" points="370,-52.5 370,-73.5 641,-73.5 641,-52.5 370,-52.5"/>
<text text-anchor="start" x="425.5" y="-59.3" font-family="Times,serif" font-size="14.00">Golden nodes are for actions</text>
<polygon fill="#ff3030" stroke="none" points="370,-29.5 370,-50.5 641,-50.5 641,-29.5 370,-29.5"/>
<polygon fill="none" stroke="black" points="370,-29.5 370,-50.5 641,-50.5 641,-29.5 370,-29.5"/>
<text text-anchor="start" x="437.5" y="-36.3" font-family="Times,serif" font-size="14.00">Red nodes are for events</text>
<polygon fill="none" stroke="black" points="366.5,-27 366.5,-146 643.5,-146 643.5,-27 366.5,-27"/>
</g>
</g>
</svg>
