<?xml version="1.0" encoding="UTF-8" standalone="no"?>
<!DOCTYPE svg PUBLIC "-//W3C//DTD SVG 1.1//EN"
 "http://www.w3.org/Graphics/SVG/1.1/DTD/svg11.dtd">
<!-- Generated by graphviz version 2.38.0 (20140413.2041)
 -->
<!-- Title: Perl Pages: 1 -->
<svg width="422pt" height="302pt"
 viewBox="0.00 0.00 421.50 302.00" xmlns="http://www.w3.org/2000/svg" xmlns:xlink="http://www.w3.org/1999/xlink">
<g id="graph0" class="graph" transform="scale(1 1) rotate(0) translate(4 298)">
<title>Perl</title>
<polygon fill="white" stroke="none" points="-4,4 -4,-298 417.5,-298 417.5,4 -4,4"/>
<text text-anchor="middle" x="206.75" y="-7.8" font-family="Times,serif" font-size="14.00">json.3.bnf</text>
<!-- ꞉default -->
<g id="node1" class="node"><title>꞉default</title>
<polygon fill="lightblue" stroke="black" points="80.5,-222 21.5,-222 21.5,-186 80.5,-186 80.5,-222"/>
<text text-anchor="middle" x="51" y="-200.3" font-family="Times,serif" font-size="14.00">꞉default</text>
</g>
<!-- ꞉default_1 -->
<g id="node3" class="node"><title>꞉default_1</title>
<path fill="goldenrod" stroke="black" d="M12,-68.5C12,-68.5 90,-68.5 90,-68.5 96,-68.5 102,-74.5 102,-80.5 102,-80.5 102,-92.5 102,-92.5 102,-98.5 96,-104.5 90,-104.5 90,-104.5 12,-104.5 12,-104.5 6,-104.5 -7.10543e-15,-98.5 -7.10543e-15,-92.5 -7.10543e-15,-92.5 -7.10543e-15,-80.5 -7.10543e-15,-80.5 -7.10543e-15,-74.5 6,-68.5 12,-68.5"/>
<text text-anchor="middle" x="51" y="-82.8" font-family="Times,serif" font-size="14.00">action =&gt; ::first</text>
</g>
<!-- ꞉default&#45;&gt;꞉default_1 -->
<g id="edge2" class="edge"><title>꞉default&#45;&gt;꞉default_1</title>
<path fill="none" stroke="grey" d="M51,-185.958C51,-167.191 51,-136.756 51,-114.687"/>
<polygon fill="grey" stroke="grey" points="54.5001,-114.612 51,-104.612 47.5001,-114.612 54.5001,-114.612"/>
</g>
<!-- BNF -->
<g id="node2" class="node"><title>BNF</title>
<polygon fill="lightgrey" stroke="black" points="78,-294 24,-294 24,-258 78,-258 78,-294"/>
<text text-anchor="middle" x="51" y="-272.3" font-family="Times,serif" font-size="14.00">BNF</text>
</g>
<!-- BNF&#45;&gt;꞉default -->
<g id="edge1" class="edge"><title>BNF&#45;&gt;꞉default</title>
<path fill="none" stroke="grey" d="M51,-257.697C51,-249.983 51,-240.712 51,-232.112"/>
<polygon fill="grey" stroke="grey" points="54.5001,-232.104 51,-222.104 47.5001,-232.104 54.5001,-232.104"/>
</g>
<!-- Legend -->
<g id="node4" class="node"><title>Legend</title>
<polygon fill="lightgrey" stroke="none" points="413.5,-150 120.5,-150 120.5,-23 413.5,-23 413.5,-150"/>
<polygon fill="white" stroke="none" points="128.5,-27 128.5,-146 405.5,-146 405.5,-27 128.5,-27"/>
<polygon fill="lightgreen" stroke="none" points="132,-121.5 132,-142.5 403,-142.5 403,-121.5 132,-121.5"/>
<polygon fill="none" stroke="black" points="132,-121.5 132,-142.5 403,-142.5 403,-121.5 132,-121.5"/>
<text text-anchor="start" x="178.5" y="-128.3" font-family="Times,serif" font-size="14.00">The green node is the start node</text>
<polygon fill="lightblue" stroke="none" points="132,-98.5 132,-119.5 403,-119.5 403,-98.5 132,-98.5"/>
<polygon fill="none" stroke="black" points="132,-98.5 132,-119.5 403,-119.5 403,-98.5 132,-98.5"/>
<text text-anchor="start" x="135" y="-105.3" font-family="Times,serif" font-size="14.00">Lightblue nodes are for reserved rule names, etc</text>
<polygon fill="orchid" stroke="none" points="132,-75.5 132,-96.5 403,-96.5 403,-75.5 132,-75.5"/>
<polygon fill="none" stroke="black" points="132,-75.5 132,-96.5 403,-96.5 403,-75.5 132,-75.5"/>
<text text-anchor="start" x="186" y="-82.3" font-family="Times,serif" font-size="14.00">Orchid nodes are for lexemes</text>
<polygon fill="goldenrod" stroke="none" points="132,-52.5 132,-73.5 403,-73.5 403,-52.5 132,-52.5"/>
<polygon fill="none" stroke="black" points="132,-52.5 132,-73.5 403,-73.5 403,-52.5 132,-52.5"/>
<text text-anchor="start" x="187.5" y="-59.3" font-family="Times,serif" font-size="14.00">Golden nodes are for actions</text>
<polygon fill="#ff3030" stroke="none" points="132,-29.5 132,-50.5 403,-50.5 403,-29.5 132,-29.5"/>
<polygon fill="none" stroke="black" points="132,-29.5 132,-50.5 403,-50.5 403,-29.5 132,-29.5"/>
<text text-anchor="start" x="199.5" y="-36.3" font-family="Times,serif" font-size="14.00">Red nodes are for events</text>
<polygon fill="none" stroke="black" points="128.5,-27 128.5,-146 405.5,-146 405.5,-27 128.5,-27"/>
</g>
</g>
</svg>
