<?xml version="1.0" encoding="UTF-8" standalone="no"?>
<!DOCTYPE svg PUBLIC "-//W3C//DTD SVG 1.1//EN"
 "http://www.w3.org/Graphics/SVG/1.1/DTD/svg11.dtd">
<!-- Generated by graphviz version 2.30.1 (20130611.0131)
 -->
<!-- Title: Perl Pages: 1 -->
<svg width="1487pt" height="871pt"
 viewBox="0.00 0.00 1487.00 871.00" xmlns="http://www.w3.org/2000/svg" xmlns:xlink="http://www.w3.org/1999/xlink">
<g id="graph0" class="graph" transform="scale(1 1) rotate(0) translate(4 867)">
<title>Perl</title>
<polygon fill="white" stroke="white" points="-4,5 -4,-867 1484,-867 1484,5 -4,5"/>
<text text-anchor="middle" x="739.5" y="-7.8" font-family="Times,serif" font-size="14.00">json.1.bnf</text>
<!-- :discard -->
<g id="node1" class="node"><title>:discard</title>
<polygon fill="lightblue" stroke="black" points="525.25,-779 466.75,-779 466.75,-743 525.25,-743 525.25,-779"/>
<text text-anchor="middle" x="496" y="-757.3" font-family="Times,serif" font-size="14.00">:discard</text>
</g>
<!-- whitespace -->
<g id="node3" class="node"><title>whitespace</title>
<polygon fill="lightblue" stroke="black" points="394.25,-707 317.75,-707 317.75,-671 394.25,-671 394.25,-707"/>
<text text-anchor="middle" x="356" y="-685.3" font-family="Times,serif" font-size="14.00">whitespace</text>
</g>
<!-- :discard&#45;&gt;whitespace -->
<g id="edge2" class="edge"><title>:discard&#45;&gt;whitespace</title>
<path fill="none" stroke="grey" d="M466.651,-745.326C447.147,-735.574 421.2,-722.6 399.334,-711.667"/>
<polygon fill="grey" stroke="grey" points="400.753,-708.464 390.244,-707.122 397.623,-714.725 400.753,-708.464"/>
</g>
<!-- json -->
<g id="node2" class="node"><title>json</title>
<path fill="lightgreen" stroke="black" d="M696,-816C696,-816 726,-816 726,-816 732,-816 738,-822 738,-828 738,-828 738,-850 738,-850 738,-856 732,-862 726,-862 726,-862 696,-862 696,-862 690,-862 684,-856 684,-850 684,-850 684,-828 684,-828 684,-822 690,-816 696,-816"/>
<text text-anchor="middle" x="711" y="-846.8" font-family="Times,serif" font-size="14.00">:start</text>
<polyline fill="none" stroke="black" points="684,-839 738,-839 "/>
<text text-anchor="middle" x="711" y="-823.8" font-family="Times,serif" font-size="14.00">json</text>
</g>
<!-- json&#45;&gt;:discard -->
<g id="edge1" class="edge"><title>json&#45;&gt;:discard</title>
<path fill="none" stroke="grey" d="M683.77,-828.375C646.136,-815.071 578.009,-790.989 534.985,-775.781"/>
<polygon fill="grey" stroke="grey" points="536.009,-772.431 525.414,-772.398 533.676,-779.03 536.009,-772.431"/>
</g>
<!-- object -->
<g id="node4" class="node"><title>object</title>
<polygon fill="white" stroke="black" points="738,-779 684,-779 684,-743 738,-743 738,-779"/>
<text text-anchor="middle" x="711" y="-757.3" font-family="Times,serif" font-size="14.00">object</text>
</g>
<!-- json&#45;&gt;object -->
<g id="edge3" class="edge"><title>json&#45;&gt;object</title>
<path fill="none" stroke="grey" d="M711,-815.609C711,-807.481 711,-798.2 711,-789.671"/>
<polygon fill="grey" stroke="grey" points="714.5,-789.412 711,-779.412 707.5,-789.412 714.5,-789.412"/>
</g>
<!-- array -->
<g id="node5" class="node"><title>array</title>
<polygon fill="white" stroke="black" points="1284,-491 1230,-491 1230,-455 1284,-455 1284,-491"/>
<text text-anchor="middle" x="1257" y="-469.3" font-family="Times,serif" font-size="14.00">array</text>
</g>
<!-- json&#45;&gt;array -->
<g id="edge4" class="edge"><title>json&#45;&gt;array</title>
<path fill="none" stroke="grey" d="M738.121,-836.2C844.703,-828.398 1229,-793.116 1229,-690 1229,-690 1229,-690 1229,-616 1229,-575.27 1240.23,-529.189 1248.46,-500.862"/>
<polygon fill="grey" stroke="grey" points="1251.82,-501.856 1251.33,-491.272 1245.11,-499.847 1251.82,-501.856"/>
</g>
<!-- \[\\s\] -->
<g id="node60" class="node"><title>\[\\s\]</title>
<polygon fill="white" stroke="black" points="383,-635 329,-635 329,-599 383,-599 383,-635"/>
<text text-anchor="middle" x="356" y="-613.3" font-family="Times,serif" font-size="14.00">[\s]</text>
</g>
<!-- whitespace&#45;&gt;\[\\s\] -->
<g id="edge92" class="edge"><title>whitespace&#45;&gt;\[\\s\]</title>
<path fill="none" stroke="grey" d="M356,-670.697C356,-662.983 356,-653.712 356,-645.112"/>
<polygon fill="grey" stroke="grey" points="359.5,-645.104 356,-635.104 352.5,-645.104 359.5,-645.104"/>
</g>
<!-- &#39;{&#39; -->
<g id="node6" class="node"><title>&#39;{&#39;</title>
<polygon fill="white" stroke="black" points="793,-707 739,-707 739,-671 793,-671 793,-707"/>
<text text-anchor="middle" x="766" y="-685.3" font-family="Times,serif" font-size="14.00">&#39;{&#39;</text>
</g>
<!-- object&#45;&gt;&#39;{&#39; -->
<g id="edge5" class="edge"><title>object&#45;&gt;&#39;{&#39;</title>
<path fill="none" stroke="grey" d="M724.596,-742.697C731.123,-734.389 739.068,-724.277 746.247,-715.141"/>
<polygon fill="grey" stroke="grey" points="749.135,-717.13 752.561,-707.104 743.631,-712.805 749.135,-717.13"/>
</g>
<!-- &#39;}&#39; -->
<g id="node7" class="node"><title>&#39;}&#39;</title>
<polygon fill="white" stroke="black" points="683,-707 629,-707 629,-671 683,-671 683,-707"/>
<text text-anchor="middle" x="656" y="-685.3" font-family="Times,serif" font-size="14.00">&#39;}&#39;</text>
</g>
<!-- object&#45;&gt;&#39;}&#39; -->
<g id="edge6" class="edge"><title>object&#45;&gt;&#39;}&#39;</title>
<path fill="none" stroke="grey" d="M697.404,-742.697C690.877,-734.389 682.932,-724.277 675.753,-715.141"/>
<polygon fill="grey" stroke="grey" points="678.369,-712.805 669.439,-707.104 672.865,-717.13 678.369,-712.805"/>
</g>
<!-- =\&gt; -->
<g id="node8" class="node"><title>=\&gt;</title>
<polygon fill="white" stroke="black" points="826,-419 772,-419 772,-383 826,-383 826,-419"/>
<text text-anchor="middle" x="799" y="-397.3" font-family="Times,serif" font-size="14.00">=&gt;</text>
</g>
<!-- object&#45;&gt;=\&gt; -->
<g id="edge7" class="edge"><title>object&#45;&gt;=\&gt;</title>
<path fill="none" stroke="grey" d="M707.419,-742.832C698.21,-694.231 677.913,-552.887 730,-455 737.437,-441.023 750.351,-429.607 763.01,-420.998"/>
<polygon fill="grey" stroke="grey" points="765.107,-423.812 771.662,-415.489 761.347,-417.907 765.107,-423.812"/>
</g>
<!-- action -->
<g id="node9" class="node"><title>action</title>
<polygon fill="white" stroke="black" points="1031,-419 977,-419 977,-383 1031,-383 1031,-419"/>
<text text-anchor="middle" x="1004" y="-397.3" font-family="Times,serif" font-size="14.00">action</text>
</g>
<!-- object&#45;&gt;action -->
<g id="edge8" class="edge"><title>object&#45;&gt;action</title>
<path fill="none" stroke="grey" d="M738.317,-757.447C836.256,-747.552 1164,-707.734 1164,-618 1164,-618 1164,-618 1164,-544 1164,-503.553 1171.39,-485.653 1145,-455 1118.83,-424.598 1073.39,-411.601 1041.18,-406.066"/>
<polygon fill="grey" stroke="grey" points="1041.64,-402.596 1031.23,-404.518 1040.57,-409.513 1041.64,-402.596"/>
</g>
<!-- do_empty_object -->
<g id="node10" class="node"><title>do_empty_object</title>
<polygon fill="white" stroke="black" points="610.25,-707 499.75,-707 499.75,-671 610.25,-671 610.25,-707"/>
<text text-anchor="middle" x="555" y="-685.3" font-family="Times,serif" font-size="14.00">do_empty_object</text>
</g>
<!-- object&#45;&gt;do_empty_object -->
<g id="edge9" class="edge"><title>object&#45;&gt;do_empty_object</title>
<path fill="none" stroke="grey" d="M683.827,-747.807C661.338,-737.716 628.863,-723.144 602.147,-711.156"/>
<polygon fill="grey" stroke="grey" points="603.519,-707.935 592.962,-707.034 600.653,-714.322 603.519,-707.935"/>
</g>
<!-- object&#45;&gt;&#39;{&#39; -->
<g id="edge10" class="edge"><title>object&#45;&gt;&#39;{&#39;</title>
<path fill="none" stroke="grey" d="M724.596,-742.697C731.123,-734.389 739.068,-724.277 746.247,-715.141"/>
<polygon fill="grey" stroke="grey" points="749.135,-717.13 752.561,-707.104 743.631,-712.805 749.135,-717.13"/>
</g>
<!-- object&#45;&gt;&#39;}&#39; -->
<g id="edge11" class="edge"><title>object&#45;&gt;&#39;}&#39;</title>
<path fill="none" stroke="grey" d="M697.404,-742.697C690.877,-734.389 682.932,-724.277 675.753,-715.141"/>
<polygon fill="grey" stroke="grey" points="678.369,-712.805 669.439,-707.104 672.865,-717.13 678.369,-712.805"/>
</g>
<!-- members -->
<g id="node11" class="node"><title>members</title>
<polygon fill="white" stroke="black" points="481,-707 413,-707 413,-671 481,-671 481,-707"/>
<text text-anchor="middle" x="447" y="-685.3" font-family="Times,serif" font-size="14.00">members</text>
</g>
<!-- object&#45;&gt;members -->
<g id="edge12" class="edge"><title>object&#45;&gt;members</title>
<path fill="none" stroke="grey" d="M683.789,-754.765C643.468,-746.732 565.41,-730.124 490.678,-706.992"/>
<polygon fill="grey" stroke="grey" points="491.7,-703.645 481.111,-703.989 489.603,-710.323 491.7,-703.645"/>
</g>
<!-- &#39;\[&#39; -->
<g id="node21" class="node"><title>&#39;\[&#39;</title>
<polygon fill="white" stroke="black" points="1284,-419 1230,-419 1230,-383 1284,-383 1284,-419"/>
<text text-anchor="middle" x="1257" y="-397.3" font-family="Times,serif" font-size="14.00">&#39;[&#39;</text>
</g>
<!-- array&#45;&gt;&#39;\[&#39; -->
<g id="edge30" class="edge"><title>array&#45;&gt;&#39;\[&#39;</title>
<path fill="none" stroke="grey" d="M1257,-454.697C1257,-446.983 1257,-437.712 1257,-429.112"/>
<polygon fill="grey" stroke="grey" points="1260.5,-429.104 1257,-419.104 1253.5,-429.104 1260.5,-429.104"/>
</g>
<!-- &#39;\]&#39; -->
<g id="node22" class="node"><title>&#39;\]&#39;</title>
<polygon fill="white" stroke="black" points="1356,-419 1302,-419 1302,-383 1356,-383 1356,-419"/>
<text text-anchor="middle" x="1329" y="-397.3" font-family="Times,serif" font-size="14.00">&#39;]&#39;</text>
</g>
<!-- array&#45;&gt;&#39;\]&#39; -->
<g id="edge31" class="edge"><title>array&#45;&gt;&#39;\]&#39;</title>
<path fill="none" stroke="grey" d="M1274.8,-454.697C1283.6,-446.135 1294.38,-435.656 1304,-426.304"/>
<polygon fill="grey" stroke="grey" points="1306.68,-428.585 1311.41,-419.104 1301.8,-423.566 1306.68,-428.585"/>
</g>
<!-- array&#45;&gt;=\&gt; -->
<g id="edge32" class="edge"><title>array&#45;&gt;=\&gt;</title>
<path fill="none" stroke="grey" d="M1229.72,-467.831C1151.36,-455.855 925.523,-421.338 836.098,-407.67"/>
<polygon fill="grey" stroke="grey" points="836.549,-404.198 826.135,-406.147 835.492,-411.118 836.549,-404.198"/>
</g>
<!-- array&#45;&gt;action -->
<g id="edge33" class="edge"><title>array&#45;&gt;action</title>
<path fill="none" stroke="grey" d="M1229.92,-464.509C1184.39,-451.911 1092.43,-426.468 1040.99,-412.233"/>
<polygon fill="grey" stroke="grey" points="1041.83,-408.837 1031.26,-409.543 1039.97,-415.583 1041.83,-408.837"/>
</g>
<!-- do_empty_array -->
<g id="node23" class="node"><title>do_empty_array</title>
<polygon fill="white" stroke="black" points="1479.5,-419 1374.5,-419 1374.5,-383 1479.5,-383 1479.5,-419"/>
<text text-anchor="middle" x="1427" y="-397.3" font-family="Times,serif" font-size="14.00">do_empty_array</text>
</g>
<!-- array&#45;&gt;do_empty_array -->
<g id="edge34" class="edge"><title>array&#45;&gt;do_empty_array</title>
<path fill="none" stroke="grey" d="M1284.31,-460.753C1308.96,-450.605 1345.85,-435.413 1375.95,-423.019"/>
<polygon fill="grey" stroke="grey" points="1377.55,-426.148 1385.46,-419.104 1374.88,-419.675 1377.55,-426.148"/>
</g>
<!-- array&#45;&gt;&#39;\[&#39; -->
<g id="edge35" class="edge"><title>array&#45;&gt;&#39;\[&#39;</title>
<path fill="none" stroke="grey" d="M1257,-454.697C1257,-446.983 1257,-437.712 1257,-429.112"/>
<polygon fill="grey" stroke="grey" points="1260.5,-429.104 1257,-419.104 1253.5,-429.104 1260.5,-429.104"/>
</g>
<!-- array&#45;&gt;&#39;\]&#39; -->
<g id="edge36" class="edge"><title>array&#45;&gt;&#39;\]&#39;</title>
<path fill="none" stroke="grey" d="M1274.8,-454.697C1283.6,-446.135 1294.38,-435.656 1304,-426.304"/>
<polygon fill="grey" stroke="grey" points="1306.68,-428.585 1311.41,-419.104 1301.8,-423.566 1306.68,-428.585"/>
</g>
<!-- elements -->
<g id="node24" class="node"><title>elements</title>
<polygon fill="white" stroke="black" points="1211.25,-419 1146.75,-419 1146.75,-383 1211.25,-383 1211.25,-419"/>
<text text-anchor="middle" x="1179" y="-397.3" font-family="Times,serif" font-size="14.00">elements</text>
</g>
<!-- array&#45;&gt;elements -->
<g id="edge37" class="edge"><title>array&#45;&gt;elements</title>
<path fill="none" stroke="grey" d="M1237.72,-454.697C1228.08,-446.05 1216.27,-435.449 1205.77,-426.027"/>
<polygon fill="grey" stroke="grey" points="1207.84,-423.179 1198.06,-419.104 1203.16,-428.388 1207.84,-423.179"/>
</g>
<!-- pair -->
<g id="node12" class="node"><title>pair</title>
<polygon fill="white" stroke="black" points="530,-635 476,-635 476,-599 530,-599 530,-635"/>
<text text-anchor="middle" x="503" y="-613.3" font-family="Times,serif" font-size="14.00">pair</text>
</g>
<!-- members&#45;&gt;pair -->
<g id="edge13" class="edge"><title>members&#45;&gt;pair</title>
<path fill="none" stroke="grey" d="M460.843,-670.697C467.489,-662.389 475.578,-652.277 482.887,-643.141"/>
<polygon fill="grey" stroke="grey" points="485.803,-645.099 489.317,-635.104 480.336,-640.727 485.803,-645.099"/>
</g>
<!-- &#39;꞉&#39; -->
<g id="node13" class="node"><title>&#39;꞉&#39;</title>
<polygon fill="white" stroke="black" points="557,-563 503,-563 503,-527 557,-527 557,-563"/>
<text text-anchor="middle" x="530" y="-541.3" font-family="Times,serif" font-size="14.00">&#39;꞉&#39;</text>
</g>
<!-- pair&#45;&gt;&#39;꞉&#39; -->
<g id="edge14" class="edge"><title>pair&#45;&gt;&#39;꞉&#39;</title>
<path fill="none" stroke="grey" d="M509.674,-598.697C512.715,-590.813 516.383,-581.304 519.761,-572.546"/>
<polygon fill="grey" stroke="grey" points="523.069,-573.694 523.403,-563.104 516.538,-571.175 523.069,-573.694"/>
</g>
<!-- string -->
<g id="node14" class="node"><title>string</title>
<polygon fill="white" stroke="black" points="502,-491 448,-491 448,-455 502,-455 502,-491"/>
<text text-anchor="middle" x="475" y="-469.3" font-family="Times,serif" font-size="14.00">string</text>
</g>
<!-- pair&#45;&gt;string -->
<g id="edge15" class="edge"><title>pair&#45;&gt;string</title>
<path fill="none" stroke="grey" d="M499.623,-598.871C494.829,-574.564 486.007,-529.819 480.327,-501.013"/>
<polygon fill="grey" stroke="grey" points="483.758,-500.323 478.389,-491.189 476.89,-501.677 483.758,-500.323"/>
</g>
<!-- value -->
<g id="node15" class="node"><title>value</title>
<polygon fill="white" stroke="black" points="895,-563 841,-563 841,-527 895,-527 895,-563"/>
<text text-anchor="middle" x="868" y="-541.3" font-family="Times,serif" font-size="14.00">value</text>
</g>
<!-- pair&#45;&gt;value -->
<g id="edge16" class="edge"><title>pair&#45;&gt;value</title>
<path fill="none" stroke="grey" d="M530.136,-610.796C594.541,-598.444 756.734,-567.339 830.47,-553.198"/>
<polygon fill="grey" stroke="grey" points="831.523,-556.559 840.685,-551.238 830.205,-549.685 831.523,-556.559"/>
</g>
<!-- lstring -->
<g id="node39" class="node"><title>lstring</title>
<polygon fill="white" stroke="black" points="291,-419 237,-419 237,-383 291,-383 291,-419"/>
<text text-anchor="middle" x="264" y="-397.3" font-family="Times,serif" font-size="14.00">lstring</text>
</g>
<!-- string&#45;&gt;lstring -->
<g id="edge61" class="edge"><title>string&#45;&gt;lstring</title>
<path fill="none" stroke="grey" d="M447.847,-462.992C410.34,-450.549 342.564,-428.064 300.611,-414.146"/>
<polygon fill="grey" stroke="grey" points="301.642,-410.8 291.048,-410.973 299.438,-417.444 301.642,-410.8"/>
</g>
<!-- value&#45;&gt;string -->
<g id="edge17" class="edge"><title>value&#45;&gt;string</title>
<path fill="none" stroke="grey" d="M840.988,-539.189C772.278,-526.95 590.741,-494.615 512.146,-480.616"/>
<polygon fill="grey" stroke="grey" points="512.66,-477.153 502.202,-478.845 511.433,-484.044 512.66,-477.153"/>
</g>
<!-- value&#45;&gt;object -->
<g id="edge18" class="edge"><title>value&#45;&gt;object</title>
<path fill="none" stroke="grey" d="M864.775,-563.201C858.071,-594.92 839.981,-663.364 802,-707 787.281,-723.911 765.783,-736.781 747.378,-745.602"/>
<polygon fill="grey" stroke="grey" points="745.73,-742.507 738.088,-749.846 748.638,-748.875 745.73,-742.507"/>
</g>
<!-- number -->
<g id="node16" class="node"><title>number</title>
<polygon fill="white" stroke="black" points="653.25,-491 594.75,-491 594.75,-455 653.25,-455 653.25,-491"/>
<text text-anchor="middle" x="624" y="-469.3" font-family="Times,serif" font-size="14.00">number</text>
</g>
<!-- value&#45;&gt;number -->
<g id="edge19" class="edge"><title>value&#45;&gt;number</title>
<path fill="none" stroke="grey" d="M840.955,-536.241C797.773,-523.853 713.054,-499.548 663.218,-485.251"/>
<polygon fill="grey" stroke="grey" points="664.017,-481.839 653.44,-482.446 662.087,-488.568 664.017,-481.839"/>
</g>
<!-- value&#45;&gt;array -->
<g id="edge20" class="edge"><title>value&#45;&gt;array</title>
<path fill="none" stroke="grey" d="M895.098,-542.114C954.282,-537.511 1099.15,-523.602 1216,-491 1217.44,-490.599 1218.89,-490.161 1220.35,-489.694"/>
<polygon fill="grey" stroke="grey" points="1221.72,-492.922 1229.98,-486.28 1219.38,-486.325 1221.72,-492.922"/>
</g>
<!-- &#39;true&#39; -->
<g id="node17" class="node"><title>&#39;true&#39;</title>
<polygon fill="white" stroke="black" points="988,-491 934,-491 934,-455 988,-455 988,-491"/>
<text text-anchor="middle" x="961" y="-469.3" font-family="Times,serif" font-size="14.00">&#39;true&#39;</text>
</g>
<!-- value&#45;&gt;&#39;true&#39; -->
<g id="edge21" class="edge"><title>value&#45;&gt;&#39;true&#39;</title>
<path fill="none" stroke="grey" d="M890.989,-526.697C902.814,-517.796 917.392,-506.823 930.179,-497.199"/>
<polygon fill="grey" stroke="grey" points="932.391,-499.915 938.276,-491.104 928.181,-494.322 932.391,-499.915"/>
</g>
<!-- value&#45;&gt;=\&gt; -->
<g id="edge22" class="edge"><title>value&#45;&gt;=\&gt;</title>
<path fill="none" stroke="grey" d="M859.677,-526.871C847.762,-502.35 825.741,-457.032 811.76,-428.259"/>
<polygon fill="grey" stroke="grey" points="814.871,-426.654 807.353,-419.189 808.575,-429.713 814.871,-426.654"/>
</g>
<!-- value&#45;&gt;action -->
<g id="edge23" class="edge"><title>value&#45;&gt;action</title>
<path fill="none" stroke="grey" d="M876.281,-526.805C886.052,-507.726 903.693,-476.766 925,-455 937.534,-442.197 953.631,-430.727 968.022,-421.76"/>
<polygon fill="grey" stroke="grey" points="969.963,-424.676 976.714,-416.51 966.344,-418.684 969.963,-424.676"/>
</g>
<!-- do_true -->
<g id="node18" class="node"><title>do_true</title>
<polygon fill="white" stroke="black" points="1063.5,-491 1006.5,-491 1006.5,-455 1063.5,-455 1063.5,-491"/>
<text text-anchor="middle" x="1035" y="-469.3" font-family="Times,serif" font-size="14.00">do_true</text>
</g>
<!-- value&#45;&gt;do_true -->
<g id="edge24" class="edge"><title>value&#45;&gt;do_true</title>
<path fill="none" stroke="grey" d="M895.282,-533.076C921.462,-522.525 962.065,-505.987 997,-491 997.095,-490.959 997.191,-490.918 997.287,-490.877"/>
<polygon fill="grey" stroke="grey" points="998.637,-494.106 1006.41,-486.905 995.842,-487.689 998.637,-494.106"/>
</g>
<!-- &#39;false&#39; -->
<g id="node19" class="node"><title>&#39;false&#39;</title>
<polygon fill="white" stroke="black" points="1136,-491 1082,-491 1082,-455 1136,-455 1136,-491"/>
<text text-anchor="middle" x="1109" y="-469.3" font-family="Times,serif" font-size="14.00">&#39;false&#39;</text>
</g>
<!-- value&#45;&gt;&#39;false&#39; -->
<g id="edge25" class="edge"><title>value&#45;&gt;&#39;false&#39;</title>
<path fill="none" stroke="grey" d="M895.189,-538.539C934.728,-530.239 1010.13,-513.056 1072,-491 1072.1,-490.964 1072.2,-490.929 1072.3,-490.893"/>
<polygon fill="grey" stroke="grey" points="1073.72,-494.095 1081.74,-487.175 1071.16,-487.581 1073.72,-494.095"/>
</g>
<!-- value&#45;&gt;=\&gt; -->
<g id="edge26" class="edge"><title>value&#45;&gt;=\&gt;</title>
<path fill="none" stroke="grey" d="M840.778,-541.495C810.126,-537.055 761.647,-524.789 739,-491 730.092,-477.709 732.423,-469.586 739,-455 744.41,-443.003 754.026,-432.63 763.997,-424.321"/>
<polygon fill="grey" stroke="grey" points="766.245,-427.007 771.996,-418.108 761.951,-421.478 766.245,-427.007"/>
</g>
<!-- value&#45;&gt;action -->
<g id="edge27" class="edge"><title>value&#45;&gt;action</title>
<path fill="none" stroke="grey" d="M869.136,-526.996C871.267,-507.516 877.393,-475.636 895,-455 913.643,-433.15 943.395,-419.533 967.108,-411.581"/>
<polygon fill="grey" stroke="grey" points="968.364,-414.855 976.851,-408.513 966.261,-408.178 968.364,-414.855"/>
</g>
<!-- value&#45;&gt;do_true -->
<g id="edge28" class="edge"><title>value&#45;&gt;do_true</title>
<path fill="none" stroke="grey" d="M895.282,-533.076C921.462,-522.525 962.065,-505.987 997,-491 997.095,-490.959 997.191,-490.918 997.287,-490.877"/>
<polygon fill="grey" stroke="grey" points="998.637,-494.106 1006.41,-486.905 995.842,-487.689 998.637,-494.106"/>
</g>
<!-- &#39;null&#39; -->
<g id="node20" class="node"><title>&#39;null&#39;</title>
<polygon fill="white" stroke="black" points="802,-491 748,-491 748,-455 802,-455 802,-491"/>
<text text-anchor="middle" x="775" y="-469.3" font-family="Times,serif" font-size="14.00">&#39;null&#39;</text>
</g>
<!-- value&#45;&gt;&#39;null&#39; -->
<g id="edge29" class="edge"><title>value&#45;&gt;&#39;null&#39;</title>
<path fill="none" stroke="grey" d="M845.011,-526.697C833.186,-517.796 818.608,-506.823 805.821,-497.199"/>
<polygon fill="grey" stroke="grey" points="807.819,-494.322 797.724,-491.104 803.609,-499.915 807.819,-494.322"/>
</g>
<!-- int -->
<g id="node25" class="node"><title>int</title>
<polygon fill="white" stroke="black" points="651,-419 597,-419 597,-383 651,-383 651,-419"/>
<text text-anchor="middle" x="624" y="-397.3" font-family="Times,serif" font-size="14.00">int</text>
</g>
<!-- number&#45;&gt;int -->
<g id="edge39" class="edge"><title>number&#45;&gt;int</title>
<path fill="none" stroke="grey" d="M624,-454.697C624,-446.983 624,-437.712 624,-429.112"/>
<polygon fill="grey" stroke="grey" points="627.5,-429.104 624,-419.104 620.5,-429.104 627.5,-429.104"/>
</g>
<!-- frac -->
<g id="node26" class="node"><title>frac</title>
<polygon fill="white" stroke="black" points="723,-419 669,-419 669,-383 723,-383 723,-419"/>
<text text-anchor="middle" x="696" y="-397.3" font-family="Times,serif" font-size="14.00">frac</text>
</g>
<!-- number&#45;&gt;frac -->
<g id="edge40" class="edge"><title>number&#45;&gt;frac</title>
<path fill="none" stroke="grey" d="M641.798,-454.697C650.604,-446.135 661.382,-435.656 671.001,-426.304"/>
<polygon fill="grey" stroke="grey" points="673.677,-428.585 678.407,-419.104 668.797,-423.566 673.677,-428.585"/>
</g>
<!-- number&#45;&gt;int -->
<g id="edge41" class="edge"><title>number&#45;&gt;int</title>
<path fill="none" stroke="grey" d="M624,-454.697C624,-446.983 624,-437.712 624,-429.112"/>
<polygon fill="grey" stroke="grey" points="627.5,-429.104 624,-419.104 620.5,-429.104 627.5,-429.104"/>
</g>
<!-- exp -->
<g id="node27" class="node"><title>exp</title>
<polygon fill="white" stroke="black" points="579,-419 525,-419 525,-383 579,-383 579,-419"/>
<text text-anchor="middle" x="552" y="-397.3" font-family="Times,serif" font-size="14.00">exp</text>
</g>
<!-- number&#45;&gt;exp -->
<g id="edge42" class="edge"><title>number&#45;&gt;exp</title>
<path fill="none" stroke="grey" d="M606.202,-454.697C597.396,-446.135 586.618,-435.656 576.999,-426.304"/>
<polygon fill="grey" stroke="grey" points="579.203,-423.566 569.593,-419.104 574.323,-428.585 579.203,-423.566"/>
</g>
<!-- number&#45;&gt;int -->
<g id="edge43" class="edge"><title>number&#45;&gt;int</title>
<path fill="none" stroke="grey" d="M624,-454.697C624,-446.983 624,-437.712 624,-429.112"/>
<polygon fill="grey" stroke="grey" points="627.5,-429.104 624,-419.104 620.5,-429.104 627.5,-429.104"/>
</g>
<!-- number&#45;&gt;exp -->
<g id="edge44" class="edge"><title>number&#45;&gt;exp</title>
<path fill="none" stroke="grey" d="M606.202,-454.697C597.396,-446.135 586.618,-435.656 576.999,-426.304"/>
<polygon fill="grey" stroke="grey" points="579.203,-423.566 569.593,-419.104 574.323,-428.585 579.203,-423.566"/>
</g>
<!-- number&#45;&gt;frac -->
<g id="edge45" class="edge"><title>number&#45;&gt;frac</title>
<path fill="none" stroke="grey" d="M641.798,-454.697C650.604,-446.135 661.382,-435.656 671.001,-426.304"/>
<polygon fill="grey" stroke="grey" points="673.677,-428.585 678.407,-419.104 668.797,-423.566 673.677,-428.585"/>
</g>
<!-- number&#45;&gt;int -->
<g id="edge46" class="edge"><title>number&#45;&gt;int</title>
<path fill="none" stroke="grey" d="M624,-454.697C624,-446.983 624,-437.712 624,-429.112"/>
<polygon fill="grey" stroke="grey" points="627.5,-429.104 624,-419.104 620.5,-429.104 627.5,-429.104"/>
</g>
<!-- elements&#45;&gt;value -->
<g id="edge38" class="edge"><title>elements&#45;&gt;value</title>
<path fill="none" stroke="grey" d="M1177.36,-419.269C1174.47,-439.619 1166.55,-472.94 1145,-491 1109.11,-521.075 972.224,-535.795 905.292,-541.316"/>
<polygon fill="grey" stroke="grey" points="904.866,-537.839 895.177,-542.124 905.424,-544.817 904.866,-537.839"/>
</g>
<!-- digits -->
<g id="node28" class="node"><title>digits</title>
<polygon fill="white" stroke="black" points="687,-347 633,-347 633,-311 687,-311 687,-347"/>
<text text-anchor="middle" x="660" y="-325.3" font-family="Times,serif" font-size="14.00">digits</text>
</g>
<!-- int&#45;&gt;digits -->
<g id="edge47" class="edge"><title>int&#45;&gt;digits</title>
<path fill="none" stroke="grey" d="M632.899,-382.697C636.997,-374.728 641.949,-365.1 646.493,-356.264"/>
<polygon fill="grey" stroke="grey" points="649.742,-357.598 651.203,-347.104 643.517,-354.396 649.742,-357.598"/>
</g>
<!-- &#39;&#45;&#39; -->
<g id="node29" class="node"><title>&#39;&#45;&#39;</title>
<polygon fill="white" stroke="black" points="615,-347 561,-347 561,-311 615,-311 615,-347"/>
<text text-anchor="middle" x="588" y="-325.3" font-family="Times,serif" font-size="14.00">&#39;&#45;&#39;</text>
</g>
<!-- int&#45;&gt;&#39;&#45;&#39; -->
<g id="edge48" class="edge"><title>int&#45;&gt;&#39;&#45;&#39;</title>
<path fill="none" stroke="grey" d="M615.101,-382.697C611.003,-374.728 606.051,-365.1 601.507,-356.264"/>
<polygon fill="grey" stroke="grey" points="604.483,-354.396 596.797,-347.104 598.258,-357.598 604.483,-354.396"/>
</g>
<!-- int&#45;&gt;digits -->
<g id="edge49" class="edge"><title>int&#45;&gt;digits</title>
<path fill="none" stroke="grey" d="M632.899,-382.697C636.997,-374.728 641.949,-365.1 646.493,-356.264"/>
<polygon fill="grey" stroke="grey" points="649.742,-357.598 651.203,-347.104 643.517,-354.396 649.742,-357.598"/>
</g>
<!-- &#39;.&#39; -->
<g id="node31" class="node"><title>&#39;.&#39;</title>
<polygon fill="white" stroke="black" points="759,-347 705,-347 705,-311 759,-311 759,-347"/>
<text text-anchor="middle" x="732" y="-325.3" font-family="Times,serif" font-size="14.00">&#39;.&#39;</text>
</g>
<!-- frac&#45;&gt;&#39;.&#39; -->
<g id="edge51" class="edge"><title>frac&#45;&gt;&#39;.&#39;</title>
<path fill="none" stroke="grey" d="M704.899,-382.697C708.997,-374.728 713.949,-365.1 718.493,-356.264"/>
<polygon fill="grey" stroke="grey" points="721.742,-357.598 723.203,-347.104 715.517,-354.396 721.742,-357.598"/>
</g>
<!-- frac&#45;&gt;digits -->
<g id="edge52" class="edge"><title>frac&#45;&gt;digits</title>
<path fill="none" stroke="grey" d="M687.101,-382.697C683.003,-374.728 678.051,-365.1 673.507,-356.264"/>
<polygon fill="grey" stroke="grey" points="676.483,-354.396 668.797,-347.104 670.258,-357.598 676.483,-354.396"/>
</g>
<!-- exp&#45;&gt;digits -->
<g id="edge53" class="edge"><title>exp&#45;&gt;digits</title>
<path fill="none" stroke="grey" d="M578.42,-382.876C592.41,-373.808 609.776,-362.552 624.886,-352.759"/>
<polygon fill="grey" stroke="grey" points="626.991,-355.566 633.479,-347.19 623.183,-349.692 626.991,-355.566"/>
</g>
<!-- e -->
<g id="node32" class="node"><title>e</title>
<polygon fill="white" stroke="black" points="543,-347 489,-347 489,-311 543,-311 543,-347"/>
<text text-anchor="middle" x="516" y="-325.3" font-family="Times,serif" font-size="14.00">e</text>
</g>
<!-- exp&#45;&gt;e -->
<g id="edge54" class="edge"><title>exp&#45;&gt;e</title>
<path fill="none" stroke="grey" d="M543.101,-382.697C539.003,-374.728 534.051,-365.1 529.507,-356.264"/>
<polygon fill="grey" stroke="grey" points="532.483,-354.396 524.797,-347.104 526.258,-357.598 532.483,-354.396"/>
</g>
<!-- \[\\d\] -->
<g id="node30" class="node"><title>\[\\d\]</title>
<polygon fill="white" stroke="black" points="795,-275 741,-275 741,-239 795,-239 795,-275"/>
<text text-anchor="middle" x="768" y="-253.3" font-family="Times,serif" font-size="14.00">[\d]</text>
</g>
<!-- digits&#45;&gt;\[\\d\] -->
<g id="edge50" class="edge"><title>digits&#45;&gt;\[\\d\]</title>
<path fill="none" stroke="grey" d="M686.42,-310.876C700.41,-301.808 717.776,-290.552 732.886,-280.759"/>
<polygon fill="grey" stroke="grey" points="734.991,-283.566 741.479,-275.19 731.183,-277.692 734.991,-283.566"/>
</g>
<!-- &#39;e&#39; -->
<g id="node33" class="node"><title>&#39;e&#39;</title>
<polygon fill="white" stroke="black" points="363,-275 309,-275 309,-239 363,-239 363,-275"/>
<text text-anchor="middle" x="336" y="-253.3" font-family="Times,serif" font-size="14.00">&#39;e&#39;</text>
</g>
<!-- e&#45;&gt;&#39;e&#39; -->
<g id="edge55" class="edge"><title>e&#45;&gt;&#39;e&#39;</title>
<path fill="none" stroke="grey" d="M488.918,-318.837C461.645,-309.435 418.228,-293.994 372.492,-275.037"/>
<polygon fill="grey" stroke="grey" points="373.587,-271.701 363.011,-271.069 370.885,-278.158 373.587,-271.701"/>
</g>
<!-- &#39;e+&#39; -->
<g id="node34" class="node"><title>&#39;e+&#39;</title>
<polygon fill="white" stroke="black" points="435,-275 381,-275 381,-239 435,-239 435,-275"/>
<text text-anchor="middle" x="408" y="-253.3" font-family="Times,serif" font-size="14.00">&#39;e+&#39;</text>
</g>
<!-- e&#45;&gt;&#39;e+&#39; -->
<g id="edge56" class="edge"><title>e&#45;&gt;&#39;e+&#39;</title>
<path fill="none" stroke="grey" d="M489.58,-310.876C475.59,-301.808 458.224,-290.552 443.114,-280.759"/>
<polygon fill="grey" stroke="grey" points="444.817,-277.692 434.521,-275.19 441.009,-283.566 444.817,-277.692"/>
</g>
<!-- &#39;e&#45;&#39; -->
<g id="node35" class="node"><title>&#39;e&#45;&#39;</title>
<polygon fill="white" stroke="black" points="507,-275 453,-275 453,-239 507,-239 507,-275"/>
<text text-anchor="middle" x="480" y="-253.3" font-family="Times,serif" font-size="14.00">&#39;e&#45;&#39;</text>
</g>
<!-- e&#45;&gt;&#39;e&#45;&#39; -->
<g id="edge57" class="edge"><title>e&#45;&gt;&#39;e&#45;&#39;</title>
<path fill="none" stroke="grey" d="M507.101,-310.697C503.003,-302.728 498.051,-293.1 493.507,-284.264"/>
<polygon fill="grey" stroke="grey" points="496.483,-282.396 488.797,-275.104 490.258,-285.598 496.483,-282.396"/>
</g>
<!-- &#39;E&#39; -->
<g id="node36" class="node"><title>&#39;E&#39;</title>
<polygon fill="white" stroke="black" points="579,-275 525,-275 525,-239 579,-239 579,-275"/>
<text text-anchor="middle" x="552" y="-253.3" font-family="Times,serif" font-size="14.00">&#39;E&#39;</text>
</g>
<!-- e&#45;&gt;&#39;E&#39; -->
<g id="edge58" class="edge"><title>e&#45;&gt;&#39;E&#39;</title>
<path fill="none" stroke="grey" d="M524.899,-310.697C528.997,-302.728 533.949,-293.1 538.493,-284.264"/>
<polygon fill="grey" stroke="grey" points="541.742,-285.598 543.203,-275.104 535.517,-282.396 541.742,-285.598"/>
</g>
<!-- &#39;E+&#39; -->
<g id="node37" class="node"><title>&#39;E+&#39;</title>
<polygon fill="white" stroke="black" points="651,-275 597,-275 597,-239 651,-239 651,-275"/>
<text text-anchor="middle" x="624" y="-253.3" font-family="Times,serif" font-size="14.00">&#39;E+&#39;</text>
</g>
<!-- e&#45;&gt;&#39;E+&#39; -->
<g id="edge59" class="edge"><title>e&#45;&gt;&#39;E+&#39;</title>
<path fill="none" stroke="grey" d="M542.42,-310.876C556.41,-301.808 573.776,-290.552 588.886,-280.759"/>
<polygon fill="grey" stroke="grey" points="590.991,-283.566 597.479,-275.19 587.183,-277.692 590.991,-283.566"/>
</g>
<!-- &#39;E&#45;&#39; -->
<g id="node38" class="node"><title>&#39;E&#45;&#39;</title>
<polygon fill="white" stroke="black" points="723,-275 669,-275 669,-239 723,-239 723,-275"/>
<text text-anchor="middle" x="696" y="-253.3" font-family="Times,serif" font-size="14.00">&#39;E&#45;&#39;</text>
</g>
<!-- e&#45;&gt;&#39;E&#45;&#39; -->
<g id="edge60" class="edge"><title>e&#45;&gt;&#39;E&#45;&#39;</title>
<path fill="none" stroke="grey" d="M543.368,-314.663C546.262,-313.377 549.177,-312.132 552,-311 596.208,-293.268 611.277,-293.711 659.273,-275.052"/>
<polygon fill="grey" stroke="grey" points="660.629,-278.279 668.632,-271.337 658.046,-271.773 660.629,-278.279"/>
</g>
<!-- in_string -->
<g id="node40" class="node"><title>in_string</title>
<polygon fill="white" stroke="black" points="210.25,-347 145.75,-347 145.75,-311 210.25,-311 210.25,-347"/>
<text text-anchor="middle" x="178" y="-325.3" font-family="Times,serif" font-size="14.00">in_string</text>
</g>
<!-- lstring&#45;&gt;in_string -->
<g id="edge62" class="edge"><title>lstring&#45;&gt;in_string</title>
<path fill="none" stroke="grey" d="M242.742,-382.697C231.911,-373.881 218.582,-363.032 206.84,-353.474"/>
<polygon fill="grey" stroke="grey" points="208.979,-350.703 199.014,-347.104 204.56,-356.132 208.979,-350.703"/>
</g>
<!-- quote -->
<g id="node41" class="node"><title>quote</title>
<polygon fill="white" stroke="black" points="291,-347 237,-347 237,-311 291,-311 291,-347"/>
<text text-anchor="middle" x="264" y="-325.3" font-family="Times,serif" font-size="14.00">quote</text>
</g>
<!-- lstring&#45;&gt;quote -->
<g id="edge63" class="edge"><title>lstring&#45;&gt;quote</title>
<path fill="none" stroke="grey" d="M258.084,-382.697C257.289,-374.983 257.062,-365.712 257.405,-357.112"/>
<polygon fill="grey" stroke="grey" points="260.898,-357.324 258.105,-347.104 253.915,-356.836 260.898,-357.324"/>
</g>
<!-- lstring&#45;&gt;quote -->
<g id="edge64" class="edge"><title>lstring&#45;&gt;quote</title>
<path fill="none" stroke="grey" d="M269.916,-382.697C270.711,-374.983 270.938,-365.712 270.595,-357.112"/>
<polygon fill="grey" stroke="grey" points="274.085,-356.836 269.895,-347.104 267.102,-357.324 274.085,-356.836"/>
</g>
<!-- in_string_char -->
<g id="node43" class="node"><title>in_string_char</title>
<polygon fill="white" stroke="black" points="218.25,-275 123.75,-275 123.75,-239 218.25,-239 218.25,-275"/>
<text text-anchor="middle" x="171" y="-253.3" font-family="Times,serif" font-size="14.00">in_string_char</text>
</g>
<!-- in_string&#45;&gt;in_string_char -->
<g id="edge66" class="edge"><title>in_string&#45;&gt;in_string_char</title>
<path fill="none" stroke="grey" d="M176.27,-310.697C175.498,-302.983 174.571,-293.712 173.711,-285.112"/>
<polygon fill="grey" stroke="grey" points="177.188,-284.706 172.71,-275.104 170.223,-285.403 177.188,-284.706"/>
</g>
<!-- \[\\Ꞌ\] -->
<g id="node42" class="node"><title>\[\\Ꞌ\]</title>
<polygon fill="white" stroke="black" points="291,-275 237,-275 237,-239 291,-239 291,-275"/>
<text text-anchor="middle" x="264" y="-253.3" font-family="Times,serif" font-size="14.00">[\Ꞌ]</text>
</g>
<!-- quote&#45;&gt;\[\\Ꞌ\] -->
<g id="edge65" class="edge"><title>quote&#45;&gt;\[\\Ꞌ\]</title>
<path fill="none" stroke="grey" d="M264,-310.697C264,-302.983 264,-293.712 264,-285.112"/>
<polygon fill="grey" stroke="grey" points="267.5,-285.104 264,-275.104 260.5,-285.104 267.5,-285.104"/>
</g>
<!-- \[^Ꞌ\\\\\] -->
<g id="node44" class="node"><title>\[^Ꞌ\\\\\]</title>
<polygon fill="white" stroke="black" points="54,-203 0,-203 0,-167 54,-167 54,-203"/>
<text text-anchor="middle" x="27" y="-181.3" font-family="Times,serif" font-size="14.00">[^Ꞌ\\]</text>
</g>
<!-- in_string_char&#45;&gt;\[^Ꞌ\\\\\] -->
<g id="edge67" class="edge"><title>in_string_char&#45;&gt;\[^Ꞌ\\\\\]</title>
<path fill="none" stroke="grey" d="M135.774,-238.876C113.771,-228.18 85.5059,-214.44 63.3033,-203.647"/>
<polygon fill="grey" stroke="grey" points="64.7189,-200.444 54.195,-199.22 61.6585,-206.74 64.7189,-200.444"/>
</g>
<!-- &#39;Ꞌ&#39; -->
<g id="node45" class="node"><title>&#39;Ꞌ&#39;</title>
<polygon fill="white" stroke="black" points="126,-203 72,-203 72,-167 126,-167 126,-203"/>
<text text-anchor="middle" x="99" y="-181.3" font-family="Times,serif" font-size="14.00">&#39;Ꞌ&#39;</text>
</g>
<!-- in_string_char&#45;&gt;&#39;Ꞌ&#39; -->
<g id="edge68" class="edge"><title>in_string_char&#45;&gt;&#39;Ꞌ&#39;</title>
<path fill="none" stroke="grey" d="M153.202,-238.697C144.396,-230.135 133.618,-219.656 123.999,-210.304"/>
<polygon fill="grey" stroke="grey" points="126.203,-207.566 116.593,-203.104 121.323,-212.585 126.203,-207.566"/>
</g>
<!-- &#39;\\&#39; -->
<g id="node46" class="node"><title>&#39;\\&#39;</title>
<polygon fill="white" stroke="black" points="198,-203 144,-203 144,-167 198,-167 198,-203"/>
<text text-anchor="middle" x="171" y="-181.3" font-family="Times,serif" font-size="14.00">&#39;\&#39;</text>
</g>
<!-- in_string_char&#45;&gt;&#39;\\&#39; -->
<g id="edge69" class="edge"><title>in_string_char&#45;&gt;&#39;\\&#39;</title>
<path fill="none" stroke="grey" d="M165.084,-238.697C164.289,-230.983 164.062,-221.712 164.405,-213.112"/>
<polygon fill="grey" stroke="grey" points="167.898,-213.324 165.105,-203.104 160.915,-212.836 167.898,-213.324"/>
</g>
<!-- in_string_char&#45;&gt;&#39;\\&#39; -->
<g id="edge70" class="edge"><title>in_string_char&#45;&gt;&#39;\\&#39;</title>
<path fill="none" stroke="grey" d="M176.916,-238.697C177.711,-230.983 177.938,-221.712 177.595,-213.112"/>
<polygon fill="grey" stroke="grey" points="181.085,-212.836 176.895,-203.104 174.102,-213.324 181.085,-212.836"/>
</g>
<!-- &#39;b&#39; -->
<g id="node47" class="node"><title>&#39;b&#39;</title>
<polygon fill="white" stroke="black" points="270,-203 216,-203 216,-167 270,-167 270,-203"/>
<text text-anchor="middle" x="243" y="-181.3" font-family="Times,serif" font-size="14.00">&#39;b&#39;</text>
</g>
<!-- in_string_char&#45;&gt;&#39;b&#39; -->
<g id="edge71" class="edge"><title>in_string_char&#45;&gt;&#39;b&#39;</title>
<path fill="none" stroke="grey" d="M188.798,-238.697C197.604,-230.135 208.382,-219.656 218.001,-210.304"/>
<polygon fill="grey" stroke="grey" points="220.677,-212.585 225.407,-203.104 215.797,-207.566 220.677,-212.585"/>
</g>
<!-- in_string_char&#45;&gt;&#39;\\&#39; -->
<g id="edge72" class="edge"><title>in_string_char&#45;&gt;&#39;\\&#39;</title>
<path fill="none" stroke="grey" d="M171,-238.697C171,-230.983 171,-221.712 171,-213.112"/>
<polygon fill="grey" stroke="grey" points="174.5,-213.104 171,-203.104 167.5,-213.104 174.5,-213.104"/>
</g>
<!-- &#39;f&#39; -->
<g id="node48" class="node"><title>&#39;f&#39;</title>
<polygon fill="white" stroke="black" points="342,-203 288,-203 288,-167 342,-167 342,-203"/>
<text text-anchor="middle" x="315" y="-181.3" font-family="Times,serif" font-size="14.00">&#39;f&#39;</text>
</g>
<!-- in_string_char&#45;&gt;&#39;f&#39; -->
<g id="edge73" class="edge"><title>in_string_char&#45;&gt;&#39;f&#39;</title>
<path fill="none" stroke="grey" d="M206.226,-238.876C228.229,-228.18 256.494,-214.44 278.697,-203.647"/>
<polygon fill="grey" stroke="grey" points="280.341,-206.74 287.805,-199.22 277.281,-200.444 280.341,-206.74"/>
</g>
<!-- in_string_char&#45;&gt;&#39;\\&#39; -->
<g id="edge74" class="edge"><title>in_string_char&#45;&gt;&#39;\\&#39;</title>
<path fill="none" stroke="grey" d="M171,-238.697C171,-230.983 171,-221.712 171,-213.112"/>
<polygon fill="grey" stroke="grey" points="174.5,-213.104 171,-203.104 167.5,-213.104 174.5,-213.104"/>
</g>
<!-- &#39;t&#39; -->
<g id="node49" class="node"><title>&#39;t&#39;</title>
<polygon fill="white" stroke="black" points="414,-203 360,-203 360,-167 414,-167 414,-203"/>
<text text-anchor="middle" x="387" y="-181.3" font-family="Times,serif" font-size="14.00">&#39;t&#39;</text>
</g>
<!-- in_string_char&#45;&gt;&#39;t&#39; -->
<g id="edge75" class="edge"><title>in_string_char&#45;&gt;&#39;t&#39;</title>
<path fill="none" stroke="grey" d="M218.272,-241.881C221.563,-240.904 224.831,-239.936 228,-239 279.745,-223.711 296.046,-223.231 350.255,-203.011"/>
<polygon fill="grey" stroke="grey" points="351.561,-206.259 359.674,-199.445 349.083,-199.713 351.561,-206.259"/>
</g>
<!-- in_string_char&#45;&gt;&#39;\\&#39; -->
<g id="edge76" class="edge"><title>in_string_char&#45;&gt;&#39;\\&#39;</title>
<path fill="none" stroke="grey" d="M171,-238.697C171,-230.983 171,-221.712 171,-213.112"/>
<polygon fill="grey" stroke="grey" points="174.5,-213.104 171,-203.104 167.5,-213.104 174.5,-213.104"/>
</g>
<!-- &#39;n&#39; -->
<g id="node50" class="node"><title>&#39;n&#39;</title>
<polygon fill="white" stroke="black" points="486,-203 432,-203 432,-167 486,-167 486,-203"/>
<text text-anchor="middle" x="459" y="-181.3" font-family="Times,serif" font-size="14.00">&#39;n&#39;</text>
</g>
<!-- in_string_char&#45;&gt;&#39;n&#39; -->
<g id="edge77" class="edge"><title>in_string_char&#45;&gt;&#39;n&#39;</title>
<path fill="none" stroke="grey" d="M218.482,-241.424C221.693,-240.566 224.888,-239.749 228,-239 310.672,-219.101 337.257,-229.262 422.251,-202.789"/>
<polygon fill="grey" stroke="grey" points="423.319,-206.122 431.78,-199.746 421.189,-199.454 423.319,-206.122"/>
</g>
<!-- in_string_char&#45;&gt;&#39;\\&#39; -->
<g id="edge78" class="edge"><title>in_string_char&#45;&gt;&#39;\\&#39;</title>
<path fill="none" stroke="grey" d="M171,-238.697C171,-230.983 171,-221.712 171,-213.112"/>
<polygon fill="grey" stroke="grey" points="174.5,-213.104 171,-203.104 167.5,-213.104 174.5,-213.104"/>
</g>
<!-- &#39;r&#39; -->
<g id="node51" class="node"><title>&#39;r&#39;</title>
<polygon fill="white" stroke="black" points="558,-203 504,-203 504,-167 558,-167 558,-203"/>
<text text-anchor="middle" x="531" y="-181.3" font-family="Times,serif" font-size="14.00">&#39;r&#39;</text>
</g>
<!-- in_string_char&#45;&gt;&#39;r&#39; -->
<g id="edge79" class="edge"><title>in_string_char&#45;&gt;&#39;r&#39;</title>
<path fill="none" stroke="grey" d="M218.442,-241.248C221.663,-240.433 224.87,-239.673 228,-239 341.975,-214.476 378.269,-235.777 494.226,-202.7"/>
<polygon fill="grey" stroke="grey" points="495.21,-206.059 503.825,-199.891 493.244,-199.341 495.21,-206.059"/>
</g>
<!-- in_string_char&#45;&gt;&#39;\\&#39; -->
<g id="edge80" class="edge"><title>in_string_char&#45;&gt;&#39;\\&#39;</title>
<path fill="none" stroke="grey" d="M171,-238.697C171,-230.983 171,-221.712 171,-213.112"/>
<polygon fill="grey" stroke="grey" points="174.5,-213.104 171,-203.104 167.5,-213.104 174.5,-213.104"/>
</g>
<!-- &#39;u&#39; -->
<g id="node52" class="node"><title>&#39;u&#39;</title>
<polygon fill="white" stroke="black" points="630,-203 576,-203 576,-167 630,-167 630,-203"/>
<text text-anchor="middle" x="603" y="-181.3" font-family="Times,serif" font-size="14.00">&#39;u&#39;</text>
</g>
<!-- in_string_char&#45;&gt;&#39;u&#39; -->
<g id="edge81" class="edge"><title>in_string_char&#45;&gt;&#39;u&#39;</title>
<path fill="none" stroke="grey" d="M218.421,-241.145C221.647,-240.355 224.861,-239.629 228,-239 373.367,-209.862 419.155,-242.461 566.027,-202.701"/>
<polygon fill="grey" stroke="grey" points="567.149,-206.022 575.849,-199.976 565.277,-199.277 567.149,-206.022"/>
</g>
<!-- four_hex_digits -->
<g id="node53" class="node"><title>four_hex_digits</title>
<polygon fill="white" stroke="black" points="749.5,-203 648.5,-203 648.5,-167 749.5,-167 749.5,-203"/>
<text text-anchor="middle" x="699" y="-181.3" font-family="Times,serif" font-size="14.00">four_hex_digits</text>
</g>
<!-- in_string_char&#45;&gt;four_hex_digits -->
<g id="edge82" class="edge"><title>in_string_char&#45;&gt;four_hex_digits</title>
<path fill="none" stroke="grey" d="M218.408,-241.078C221.637,-240.304 224.856,-239.6 228,-239 404.948,-205.225 456.837,-235.053 638.54,-202.846"/>
<polygon fill="grey" stroke="grey" points="639.203,-206.282 648.42,-201.056 637.956,-199.394 639.203,-206.282"/>
</g>
<!-- &#39;/&#39; -->
<g id="node54" class="node"><title>&#39;/&#39;</title>
<polygon fill="white" stroke="black" points="822,-203 768,-203 768,-167 822,-167 822,-203"/>
<text text-anchor="middle" x="795" y="-181.3" font-family="Times,serif" font-size="14.00">&#39;/&#39;</text>
</g>
<!-- in_string_char&#45;&gt;&#39;/&#39; -->
<g id="edge83" class="edge"><title>in_string_char&#45;&gt;&#39;/&#39;</title>
<path fill="none" stroke="grey" d="M218.395,-241.007C221.627,-240.25 224.85,-239.569 228,-239 460.333,-197.002 529.198,-261.242 758,-203 758.103,-202.974 758.206,-202.947 758.308,-202.921"/>
<polygon fill="grey" stroke="grey" points="759.511,-206.21 767.927,-199.773 757.334,-199.557 759.511,-206.21"/>
</g>
<!-- in_string_char&#45;&gt;&#39;\\&#39; -->
<g id="edge84" class="edge"><title>in_string_char&#45;&gt;&#39;\\&#39;</title>
<path fill="none" stroke="grey" d="M171,-238.697C171,-230.983 171,-221.712 171,-213.112"/>
<polygon fill="grey" stroke="grey" points="174.5,-213.104 171,-203.104 167.5,-213.104 174.5,-213.104"/>
</g>
<!-- &#39;\\\\&#39; -->
<g id="node55" class="node"><title>&#39;\\\\&#39;</title>
<polygon fill="white" stroke="black" points="894,-203 840,-203 840,-167 894,-167 894,-203"/>
<text text-anchor="middle" x="867" y="-181.3" font-family="Times,serif" font-size="14.00">&#39;\\&#39;</text>
</g>
<!-- in_string_char&#45;&gt;&#39;\\\\&#39; -->
<g id="edge85" class="edge"><title>in_string_char&#45;&gt;&#39;\\\\&#39;</title>
<path fill="none" stroke="grey" d="M218.389,-240.977C221.623,-240.228 224.848,-239.557 228,-239 489.161,-192.895 568.952,-267.661 830.12,-202.593"/>
<polygon fill="grey" stroke="grey" points="831.054,-205.967 839.887,-200.116 829.333,-199.181 831.054,-205.967"/>
</g>
<!-- hex_digit -->
<g id="node56" class="node"><title>hex_digit</title>
<polygon fill="white" stroke="black" points="733,-131 665,-131 665,-95 733,-95 733,-131"/>
<text text-anchor="middle" x="699" y="-109.3" font-family="Times,serif" font-size="14.00">hex_digit</text>
</g>
<!-- four_hex_digits&#45;&gt;hex_digit -->
<g id="edge86" class="edge"><title>four_hex_digits&#45;&gt;hex_digit</title>
<path fill="none" stroke="grey" d="M681.253,-166.697C678.866,-158.983 678.186,-149.712 679.214,-141.112"/>
<polygon fill="grey" stroke="grey" points="682.686,-141.61 681.315,-131.104 675.835,-140.172 682.686,-141.61"/>
</g>
<!-- four_hex_digits&#45;&gt;hex_digit -->
<g id="edge87" class="edge"><title>four_hex_digits&#45;&gt;hex_digit</title>
<path fill="none" stroke="grey" d="M693.084,-166.697C692.289,-158.983 692.062,-149.712 692.405,-141.112"/>
<polygon fill="grey" stroke="grey" points="695.898,-141.324 693.105,-131.104 688.915,-140.836 695.898,-141.324"/>
</g>
<!-- four_hex_digits&#45;&gt;hex_digit -->
<g id="edge88" class="edge"><title>four_hex_digits&#45;&gt;hex_digit</title>
<path fill="none" stroke="grey" d="M704.916,-166.697C705.711,-158.983 705.938,-149.712 705.595,-141.112"/>
<polygon fill="grey" stroke="grey" points="709.085,-140.836 704.895,-131.104 702.102,-141.324 709.085,-140.836"/>
</g>
<!-- four_hex_digits&#45;&gt;hex_digit -->
<g id="edge89" class="edge"><title>four_hex_digits&#45;&gt;hex_digit</title>
<path fill="none" stroke="grey" d="M716.747,-166.697C719.134,-158.983 719.814,-149.712 718.786,-141.112"/>
<polygon fill="grey" stroke="grey" points="722.165,-140.172 716.685,-131.104 715.314,-141.61 722.165,-140.172"/>
</g>
<!-- \[0&#45;\9\a&#45;fA&#45;F\] -->
<g id="node57" class="node"><title>\[0&#45;\9\a&#45;fA&#45;F\]</title>
<polygon fill="white" stroke="black" points="739,-59 659,-59 659,-23 739,-23 739,-59"/>
<text text-anchor="middle" x="699" y="-37.3" font-family="Times,serif" font-size="14.00">[0&#45;9a&#45;fA&#45;F]</text>
</g>
<!-- hex_digit&#45;&gt;\[0&#45;\9\a&#45;fA&#45;F\] -->
<g id="edge90" class="edge"><title>hex_digit&#45;&gt;\[0&#45;\9\a&#45;fA&#45;F\]</title>
<path fill="none" stroke="grey" d="M699,-94.6966C699,-86.9827 699,-77.7125 699,-69.1124"/>
<polygon fill="grey" stroke="grey" points="702.5,-69.1043 699,-59.1043 695.5,-69.1044 702.5,-69.1043"/>
</g>
<!-- comma -->
<g id="node58" class="node"><title>comma</title>
<polygon fill="white" stroke="black" points="1312.5,-857 1255.5,-857 1255.5,-821 1312.5,-821 1312.5,-857"/>
<text text-anchor="middle" x="1284" y="-835.3" font-family="Times,serif" font-size="14.00">comma</text>
</g>
<!-- &#39;,&#39; -->
<g id="node59" class="node"><title>&#39;,&#39;</title>
<polygon fill="white" stroke="black" points="1311,-779 1257,-779 1257,-743 1311,-743 1311,-779"/>
<text text-anchor="middle" x="1284" y="-757.3" font-family="Times,serif" font-size="14.00">&#39;,&#39;</text>
</g>
<!-- comma&#45;&gt;&#39;,&#39; -->
<g id="edge91" class="edge"><title>comma&#45;&gt;&#39;,&#39;</title>
<path fill="none" stroke="grey" d="M1284,-820.754C1284,-811.523 1284,-799.935 1284,-789.495"/>
<polygon fill="grey" stroke="grey" points="1287.5,-789.177 1284,-779.177 1280.5,-789.177 1287.5,-789.177"/>
</g>
</g>
</svg>
