<?xml version="1.0" encoding="UTF-8" standalone="no"?>
<!DOCTYPE svg PUBLIC "-//W3C//DTD SVG 1.1//EN"
 "http://www.w3.org/Graphics/SVG/1.1/DTD/svg11.dtd">
<!-- Generated by graphviz version 2.30.1 (20130611.0131)
 -->
<!-- Title: Perl Pages: 1 -->
<svg width="1657pt" height="225pt"
 viewBox="0.00 0.00 1657.00 225.00" xmlns="http://www.w3.org/2000/svg" xmlns:xlink="http://www.w3.org/1999/xlink">
<g id="graph0" class="graph" transform="scale(1 1) rotate(0) translate(4 221)">
<title>Perl</title>
<polygon fill="white" stroke="white" points="-4,5 -4,-221 1654,-221 1654,5 -4,5"/>
<text text-anchor="middle" x="824.5" y="-7.8" font-family="Times,serif" font-size="14.00">json.2.bnf</text>
<!-- json -->
<g id="node1" class="node"><title>json</title>
<path fill="lightgreen" stroke="black" d="M94,-170C94,-170 124,-170 124,-170 130,-170 136,-176 136,-182 136,-182 136,-204 136,-204 136,-210 130,-216 124,-216 124,-216 94,-216 94,-216 88,-216 82,-210 82,-204 82,-204 82,-182 82,-182 82,-176 88,-170 94,-170"/>
<text text-anchor="middle" x="109" y="-200.8" font-family="Times,serif" font-size="14.00">:start</text>
<polyline fill="none" stroke="black" points="82,-193 136,-193 "/>
<text text-anchor="middle" x="109" y="-177.8" font-family="Times,serif" font-size="14.00">json</text>
</g>
<!-- ꞉default -->
<g id="node2" class="node"><title>꞉default</title>
<polygon fill="lightblue" stroke="black" points="90.5,-133 33.5,-133 33.5,-97 90.5,-97 90.5,-133"/>
<text text-anchor="middle" x="62" y="-111.3" font-family="Times,serif" font-size="14.00">꞉default</text>
</g>
<!-- json&#45;&gt;꞉default -->
<g id="edge1" class="edge"><title>json&#45;&gt;꞉default</title>
<path fill="none" stroke="grey" d="M95.1527,-169.609C89.7913,-160.939 83.6185,-150.958 78.0638,-141.976"/>
<polygon fill="grey" stroke="grey" points="81.0045,-140.076 72.768,-133.412 75.051,-143.758 81.0045,-140.076"/>
</g>
<!-- ꞉discard -->
<g id="node4" class="node"><title>꞉discard</title>
<polygon fill="lightblue" stroke="black" points="185.25,-133 126.75,-133 126.75,-97 185.25,-97 185.25,-133"/>
<text text-anchor="middle" x="156" y="-111.3" font-family="Times,serif" font-size="14.00">꞉discard</text>
</g>
<!-- json&#45;&gt;꞉discard -->
<g id="edge3" class="edge"><title>json&#45;&gt;꞉discard</title>
<path fill="none" stroke="grey" d="M122.847,-169.609C128.209,-160.939 134.381,-150.958 139.936,-141.976"/>
<polygon fill="grey" stroke="grey" points="142.949,-143.758 145.232,-133.412 136.995,-140.076 142.949,-143.758"/>
</g>
<!-- ꞉default_1 -->
<g id="node3" class="node"><title>꞉default_1</title>
<path fill="lightblue" stroke="black" d="M11.5,-24C11.5,-24 96.5,-24 96.5,-24 102.5,-24 108.5,-30 108.5,-36 108.5,-36 108.5,-48 108.5,-48 108.5,-54 102.5,-60 96.5,-60 96.5,-60 11.5,-60 11.5,-60 5.5,-60 -0.5,-54 -0.5,-48 -0.5,-48 -0.5,-36 -0.5,-36 -0.5,-30 5.5,-24 11.5,-24"/>
<text text-anchor="middle" x="54" y="-38.3" font-family="Times,serif" font-size="14.00">action =&gt; ꞉꞉array</text>
</g>
<!-- ꞉default&#45;&gt;꞉default_1 -->
<g id="edge2" class="edge"><title>꞉default&#45;&gt;꞉default_1</title>
<path fill="none" stroke="grey" d="M60.0634,-96.8129C59.1594,-88.7895 58.0617,-79.0475 57.05,-70.0691"/>
<polygon fill="grey" stroke="grey" points="60.5165,-69.574 55.9187,-60.0288 53.5605,-70.3579 60.5165,-69.574"/>
</g>
<!-- whitespace -->
<g id="node5" class="node"><title>whitespace</title>
<polygon fill="lightblue" stroke="black" points="203.25,-60 126.75,-60 126.75,-24 203.25,-24 203.25,-60"/>
<text text-anchor="middle" x="165" y="-38.3" font-family="Times,serif" font-size="14.00">whitespace</text>
</g>
<!-- ꞉discard&#45;&gt;whitespace -->
<g id="edge4" class="edge"><title>꞉discard&#45;&gt;whitespace</title>
<path fill="none" stroke="grey" d="M158.179,-96.8129C159.196,-88.7895 160.431,-79.0475 161.569,-70.0691"/>
<polygon fill="grey" stroke="grey" points="165.056,-70.3896 162.841,-60.0288 158.112,-69.5093 165.056,-70.3896"/>
</g>
<!-- object -->
<g id="node6" class="node"><title>object</title>
<polygon fill="white" stroke="black" points="208,-211 154,-211 154,-175 208,-175 208,-211"/>
<text text-anchor="middle" x="181" y="-189.3" font-family="Times,serif" font-size="14.00">object</text>
</g>
<!-- members -->
<g id="node7" class="node"><title>members</title>
<polygon fill="white" stroke="black" points="294,-211 226,-211 226,-175 294,-175 294,-211"/>
<text text-anchor="middle" x="260" y="-189.3" font-family="Times,serif" font-size="14.00">members</text>
</g>
<!-- pair -->
<g id="node8" class="node"><title>pair</title>
<polygon fill="white" stroke="black" points="366,-211 312,-211 312,-175 366,-175 366,-211"/>
<text text-anchor="middle" x="339" y="-189.3" font-family="Times,serif" font-size="14.00">pair</text>
</g>
<!-- value -->
<g id="node9" class="node"><title>value</title>
<polygon fill="white" stroke="black" points="438,-211 384,-211 384,-175 438,-175 438,-211"/>
<text text-anchor="middle" x="411" y="-189.3" font-family="Times,serif" font-size="14.00">value</text>
</g>
<!-- array -->
<g id="node10" class="node"><title>array</title>
<polygon fill="white" stroke="black" points="510,-211 456,-211 456,-175 510,-175 510,-211"/>
<text text-anchor="middle" x="483" y="-189.3" font-family="Times,serif" font-size="14.00">array</text>
</g>
<!-- elements -->
<g id="node11" class="node"><title>elements</title>
<polygon fill="white" stroke="black" points="593.25,-211 528.75,-211 528.75,-175 593.25,-175 593.25,-211"/>
<text text-anchor="middle" x="561" y="-189.3" font-family="Times,serif" font-size="14.00">elements</text>
</g>
<!-- number -->
<g id="node12" class="node"><title>number</title>
<polygon fill="white" stroke="black" points="670.25,-211 611.75,-211 611.75,-175 670.25,-175 670.25,-211"/>
<text text-anchor="middle" x="641" y="-189.3" font-family="Times,serif" font-size="14.00">number</text>
</g>
<!-- int -->
<g id="node13" class="node"><title>int</title>
<polygon fill="white" stroke="black" points="743,-211 689,-211 689,-175 743,-175 743,-211"/>
<text text-anchor="middle" x="716" y="-189.3" font-family="Times,serif" font-size="14.00">int</text>
</g>
<!-- digits -->
<g id="node14" class="node"><title>digits</title>
<polygon fill="white" stroke="black" points="815,-211 761,-211 761,-175 815,-175 815,-211"/>
<text text-anchor="middle" x="788" y="-189.3" font-family="Times,serif" font-size="14.00">digits</text>
</g>
<!-- frac -->
<g id="node15" class="node"><title>frac</title>
<polygon fill="white" stroke="black" points="887,-211 833,-211 833,-175 887,-175 887,-211"/>
<text text-anchor="middle" x="860" y="-189.3" font-family="Times,serif" font-size="14.00">frac</text>
</g>
<!-- exp -->
<g id="node16" class="node"><title>exp</title>
<polygon fill="white" stroke="black" points="959,-211 905,-211 905,-175 959,-175 959,-211"/>
<text text-anchor="middle" x="932" y="-189.3" font-family="Times,serif" font-size="14.00">exp</text>
</g>
<!-- e -->
<g id="node17" class="node"><title>e</title>
<polygon fill="white" stroke="black" points="1031,-211 977,-211 977,-175 1031,-175 1031,-211"/>
<text text-anchor="middle" x="1004" y="-189.3" font-family="Times,serif" font-size="14.00">e</text>
</g>
<!-- string -->
<g id="node18" class="node"><title>string</title>
<polygon fill="white" stroke="black" points="1103,-211 1049,-211 1049,-175 1103,-175 1103,-211"/>
<text text-anchor="middle" x="1076" y="-189.3" font-family="Times,serif" font-size="14.00">string</text>
</g>
<!-- string lexeme -->
<g id="node19" class="node"><title>string lexeme</title>
<polygon fill="white" stroke="black" points="1212.25,-211 1121.75,-211 1121.75,-175 1212.25,-175 1212.25,-211"/>
<text text-anchor="middle" x="1167" y="-189.3" font-family="Times,serif" font-size="14.00">string lexeme</text>
</g>
<!-- quote -->
<g id="node20" class="node"><title>quote</title>
<polygon fill="white" stroke="black" points="1285,-211 1231,-211 1231,-175 1285,-175 1285,-211"/>
<text text-anchor="middle" x="1258" y="-189.3" font-family="Times,serif" font-size="14.00">quote</text>
</g>
<!-- string contents -->
<g id="node21" class="node"><title>string contents</title>
<polygon fill="white" stroke="black" points="1399,-211 1303,-211 1303,-175 1399,-175 1399,-211"/>
<text text-anchor="middle" x="1351" y="-189.3" font-family="Times,serif" font-size="14.00">string contents</text>
</g>
<!-- string char -->
<g id="node22" class="node"><title>string char</title>
<polygon fill="white" stroke="black" points="1491,-211 1417,-211 1417,-175 1491,-175 1491,-211"/>
<text text-anchor="middle" x="1454" y="-189.3" font-family="Times,serif" font-size="14.00">string char</text>
</g>
<!-- any char -->
<g id="node23" class="node"><title>any char</title>
<polygon fill="white" stroke="black" points="1572.25,-211 1509.75,-211 1509.75,-175 1572.25,-175 1572.25,-211"/>
<text text-anchor="middle" x="1541" y="-189.3" font-family="Times,serif" font-size="14.00">any char</text>
</g>
<!-- comma -->
<g id="node24" class="node"><title>comma</title>
<polygon fill="white" stroke="black" points="1648.5,-211 1591.5,-211 1591.5,-175 1648.5,-175 1648.5,-211"/>
<text text-anchor="middle" x="1620" y="-189.3" font-family="Times,serif" font-size="14.00">comma</text>
</g>
</g>
</svg>
