<?xml version="1.0" encoding="UTF-8" standalone="no"?>
<!DOCTYPE svg PUBLIC "-//W3C//DTD SVG 1.1//EN"
 "http://www.w3.org/Graphics/SVG/1.1/DTD/svg11.dtd">
<!-- Generated by graphviz version 2.38.0 (20140413.2041)
 -->
<!-- Title: Perl Pages: 1 -->
<svg width="773pt" height="325pt"
 viewBox="0.00 0.00 773.00 325.00" xmlns="http://www.w3.org/2000/svg" xmlns:xlink="http://www.w3.org/1999/xlink">
<g id="graph0" class="graph" transform="scale(1 1) rotate(0) translate(4 321)">
<title>Perl</title>
<polygon fill="white" stroke="none" points="-4,4 -4,-321 769,-321 769,4 -4,4"/>
<text text-anchor="middle" x="382.5" y="-7.8" font-family="Times,serif" font-size="14.00">metag.bnf</text>
<!-- ꞉default -->
<g id="node1" class="node"><title>꞉default</title>
<polygon fill="lightblue" stroke="black" points="172,-245 113,-245 113,-209 172,-209 172,-245"/>
<text text-anchor="middle" x="142.5" y="-223.3" font-family="Times,serif" font-size="14.00">꞉default</text>
</g>
<!-- ꞉default_1 -->
<g id="node3" class="node"><title>꞉default_1</title>
<path fill="goldenrod" stroke="black" d="M12,-75C12,-75 171,-75 171,-75 177,-75 183,-81 183,-87 183,-87 183,-109 183,-109 183,-115 177,-121 171,-121 171,-121 12,-121 12,-121 6,-121 0,-115 0,-109 0,-109 0,-87 0,-87 0,-81 6,-75 12,-75"/>
<text text-anchor="middle" x="91.5" y="-105.8" font-family="Times,serif" font-size="14.00">action =&gt; [start,length,values]</text>
<polyline fill="none" stroke="black" points="0,-98 183,-98 "/>
<text text-anchor="middle" x="91.5" y="-82.8" font-family="Times,serif" font-size="14.00">bless =&gt; ::lhs</text>
</g>
<!-- ꞉default&#45;&gt;꞉default_1 -->
<g id="edge2" class="edge"><title>꞉default&#45;&gt;꞉default_1</title>
<path fill="none" stroke="grey" d="M135.622,-208.872C127.605,-188.908 114.189,-155.499 104.251,-130.751"/>
<polygon fill="grey" stroke="grey" points="107.472,-129.381 100.498,-121.406 100.976,-131.99 107.472,-129.381"/>
</g>
<!-- BNF -->
<g id="node2" class="node"><title>BNF</title>
<polygon fill="lightgrey" stroke="black" points="317.5,-317 263.5,-317 263.5,-281 317.5,-281 317.5,-317"/>
<text text-anchor="middle" x="290.5" y="-295.3" font-family="Times,serif" font-size="14.00">BNF</text>
</g>
<!-- BNF&#45;&gt;꞉default -->
<g id="edge1" class="edge"><title>BNF&#45;&gt;꞉default</title>
<path fill="none" stroke="grey" d="M263.355,-285.161C240.315,-274.264 206.98,-258.497 181.154,-246.282"/>
<polygon fill="grey" stroke="grey" points="182.547,-243.07 172.011,-241.958 179.555,-249.398 182.547,-243.07"/>
</g>
<!-- lexeme default -->
<g id="node4" class="node"><title>lexeme default</title>
<polygon fill="lightblue" stroke="black" points="339.5,-245 241.5,-245 241.5,-209 339.5,-209 339.5,-245"/>
<text text-anchor="middle" x="290.5" y="-223.3" font-family="Times,serif" font-size="14.00">lexeme default</text>
</g>
<!-- BNF&#45;&gt;lexeme default -->
<g id="edge3" class="edge"><title>BNF&#45;&gt;lexeme default</title>
<path fill="none" stroke="grey" d="M290.5,-280.697C290.5,-272.983 290.5,-263.712 290.5,-255.112"/>
<polygon fill="grey" stroke="grey" points="294,-255.104 290.5,-245.104 287,-255.104 294,-255.104"/>
</g>
<!-- ꞉discard -->
<g id="node6" class="node"><title>꞉discard</title>
<polygon fill="lightblue" stroke="black" points="455.5,-245 395.5,-245 395.5,-209 455.5,-209 455.5,-245"/>
<text text-anchor="middle" x="425.5" y="-223.3" font-family="Times,serif" font-size="14.00">꞉discard</text>
</g>
<!-- BNF&#45;&gt;꞉discard -->
<g id="edge5" class="edge"><title>BNF&#45;&gt;꞉discard</title>
<path fill="none" stroke="grey" d="M317.819,-283.834C337.504,-273.627 364.358,-259.703 386.324,-248.314"/>
<polygon fill="grey" stroke="grey" points="388.136,-251.316 395.403,-243.606 384.914,-245.102 388.136,-251.316"/>
</g>
<!-- lexeme default_1 -->
<g id="node5" class="node"><title>lexeme default_1</title>
<path fill="orange" stroke="black" d="M213.5,-63.5C213.5,-63.5 367.5,-63.5 367.5,-63.5 373.5,-63.5 379.5,-69.5 379.5,-75.5 379.5,-75.5 379.5,-120.5 379.5,-120.5 379.5,-126.5 373.5,-132.5 367.5,-132.5 367.5,-132.5 213.5,-132.5 213.5,-132.5 207.5,-132.5 201.5,-126.5 201.5,-120.5 201.5,-120.5 201.5,-75.5 201.5,-75.5 201.5,-69.5 207.5,-63.5 213.5,-63.5"/>
<text text-anchor="middle" x="290.5" y="-117.3" font-family="Times,serif" font-size="14.00">action =&gt; [start,length,value]</text>
<polyline fill="none" stroke="black" points="201.5,-109.5 379.5,-109.5 "/>
<text text-anchor="middle" x="290.5" y="-94.3" font-family="Times,serif" font-size="14.00">bless =&gt; ::name</text>
<polyline fill="none" stroke="black" points="201.5,-86.5 379.5,-86.5 "/>
<text text-anchor="middle" x="290.5" y="-71.3" font-family="Times,serif" font-size="14.00">latm =&gt; 1</text>
</g>
<!-- lexeme default&#45;&gt;lexeme default_1 -->
<g id="edge4" class="edge"><title>lexeme default&#45;&gt;lexeme default_1</title>
<path fill="none" stroke="grey" d="M290.5,-208.872C290.5,-192.021 290.5,-165.591 290.5,-142.876"/>
<polygon fill="grey" stroke="grey" points="294,-142.748 290.5,-132.748 287,-142.748 294,-142.748"/>
</g>
<!-- lexeme -->
<g id="node7" class="node"><title>lexeme</title>
<polygon fill="lightblue" stroke="black" points="453.5,-116 397.5,-116 397.5,-80 453.5,-80 453.5,-116"/>
<text text-anchor="middle" x="425.5" y="-94.3" font-family="Times,serif" font-size="14.00">lexeme</text>
</g>
<!-- ꞉discard&#45;&gt;lexeme -->
<g id="edge6" class="edge"><title>꞉discard&#45;&gt;lexeme</title>
<path fill="none" stroke="grey" d="M420.711,-208.872C418.427,-187.663 418.138,-151.279 419.844,-126.227"/>
<polygon fill="grey" stroke="grey" points="423.331,-126.524 420.697,-116.262 416.357,-125.927 423.331,-126.524"/>
</g>
<!-- ꞉discard&#45;&gt;lexeme -->
<g id="edge7" class="edge"><title>꞉discard&#45;&gt;lexeme</title>
<path fill="none" stroke="grey" d="M430.289,-208.872C432.573,-187.663 432.862,-151.279 431.156,-126.227"/>
<polygon fill="grey" stroke="grey" points="434.643,-125.927 430.303,-116.262 427.669,-126.524 434.643,-125.927"/>
</g>
<!-- Legend -->
<g id="node8" class="node"><title>Legend</title>
<polygon fill="lightgrey" stroke="none" points="765,-173 472,-173 472,-23 765,-23 765,-173"/>
<polygon fill="white" stroke="none" points="480,-27 480,-169 757,-169 757,-27 480,-27"/>
<polygon fill="lightgreen" stroke="none" points="483.5,-145 483.5,-166 754.5,-166 754.5,-145 483.5,-145"/>
<polygon fill="none" stroke="black" points="483.5,-145 483.5,-166 754.5,-166 754.5,-145 483.5,-145"/>
<text text-anchor="start" x="530" y="-151.8" font-family="Times,serif" font-size="14.00">The green node is the start node</text>
<polygon fill="lightblue" stroke="none" points="483.5,-122 483.5,-143 754.5,-143 754.5,-122 483.5,-122"/>
<polygon fill="none" stroke="black" points="483.5,-122 483.5,-143 754.5,-143 754.5,-122 483.5,-122"/>
<text text-anchor="start" x="486.5" y="-128.8" font-family="Times,serif" font-size="14.00">Lightblue nodes are for reserved rule names, etc</text>
<polygon fill="orchid" stroke="none" points="483.5,-99 483.5,-120 754.5,-120 754.5,-99 483.5,-99"/>
<polygon fill="none" stroke="black" points="483.5,-99 483.5,-120 754.5,-120 754.5,-99 483.5,-99"/>
<text text-anchor="start" x="537.5" y="-105.8" font-family="Times,serif" font-size="14.00">Orchid nodes are for lexemes</text>
<polygon fill="goldenrod" stroke="none" points="483.5,-76 483.5,-97 754.5,-97 754.5,-76 483.5,-76"/>
<polygon fill="none" stroke="black" points="483.5,-76 483.5,-97 754.5,-97 754.5,-76 483.5,-76"/>
<text text-anchor="start" x="535.5" y="-82.8" font-family="Times,serif" font-size="14.00">Golden nodes are for &#39;:default&#39;</text>
<polygon fill="orange" stroke="none" points="483.5,-53 483.5,-74 754.5,-74 754.5,-53 483.5,-53"/>
<polygon fill="none" stroke="black" points="483.5,-53 483.5,-74 754.5,-74 754.5,-53 483.5,-53"/>
<text text-anchor="start" x="515.5" y="-59.8" font-family="Times,serif" font-size="14.00">Orange nodes are for &#39;lexeme default&#39;</text>
<polygon fill="#ff3030" stroke="none" points="483.5,-30 483.5,-51 754.5,-51 754.5,-30 483.5,-30"/>
<polygon fill="none" stroke="black" points="483.5,-30 483.5,-51 754.5,-51 754.5,-30 483.5,-30"/>
<text text-anchor="start" x="551" y="-36.8" font-family="Times,serif" font-size="14.00">Red nodes are for events</text>
<polygon fill="none" stroke="black" points="480,-27 480,-169 757,-169 757,-27 480,-27"/>
</g>
</g>
</svg>
