<?xml version="1.0" encoding="UTF-8" standalone="no"?>
<!DOCTYPE svg PUBLIC "-//W3C//DTD SVG 1.1//EN"
 "http://www.w3.org/Graphics/SVG/1.1/DTD/svg11.dtd">
<!-- Generated by graphviz version 2.38.0 (20140413.2041)
 -->
<!-- Title: Perl Pages: 1 -->
<svg width="802pt" height="359pt"
 viewBox="0.00 0.00 802.00 359.00" xmlns="http://www.w3.org/2000/svg" xmlns:xlink="http://www.w3.org/1999/xlink">
<g id="graph0" class="graph" transform="scale(1 1) rotate(0) translate(4 355)">
<title>Perl</title>
<polygon fill="white" stroke="none" points="-4,4 -4,-355 798,-355 798,4 -4,4"/>
<text text-anchor="middle" x="397" y="-7.8" font-family="Times,serif" font-size="14.00">metag.bnf</text>
<!-- ꞉default -->
<g id="node1" class="node"><title>꞉default</title>
<polygon fill="orange" stroke="black" points="172,-273.5 113,-273.5 113,-237.5 172,-237.5 172,-273.5"/>
<text text-anchor="middle" x="142.5" y="-251.8" font-family="Times,serif" font-size="14.00">꞉default</text>
</g>
<!-- ꞉default_1 -->
<g id="node3" class="node"><title>꞉default_1</title>
<path fill="orange" stroke="black" d="M12,-86.5C12,-86.5 171,-86.5 171,-86.5 177,-86.5 183,-92.5 183,-98.5 183,-98.5 183,-120.5 183,-120.5 183,-126.5 177,-132.5 171,-132.5 171,-132.5 12,-132.5 12,-132.5 6,-132.5 0,-126.5 0,-120.5 0,-120.5 0,-98.5 0,-98.5 0,-92.5 6,-86.5 12,-86.5"/>
<text text-anchor="middle" x="91.5" y="-117.3" font-family="Times,serif" font-size="14.00">action =&gt; [start,length,values]</text>
<polyline fill="none" stroke="black" points="0,-109.5 183,-109.5 "/>
<text text-anchor="middle" x="91.5" y="-94.3" font-family="Times,serif" font-size="14.00">bless =&gt; ::lhs</text>
</g>
<!-- ꞉default&#45;&gt;꞉default_1 -->
<g id="edge2" class="edge"><title>꞉default&#45;&gt;꞉default_1</title>
<path fill="none" stroke="grey" d="M136.449,-237.416C128.188,-214.091 113.223,-171.835 102.841,-142.522"/>
<polygon fill="grey" stroke="grey" points="106.016,-141.004 99.3788,-132.746 99.4181,-143.341 106.016,-141.004"/>
</g>
<!-- BNF -->
<g id="node2" class="node"><title>BNF</title>
<polygon fill="lightgrey" stroke="black" points="341.5,-351 287.5,-351 287.5,-315 341.5,-315 341.5,-351"/>
<text text-anchor="middle" x="314.5" y="-329.3" font-family="Times,serif" font-size="14.00">BNF</text>
</g>
<!-- BNF&#45;&gt;꞉default -->
<g id="edge1" class="edge"><title>BNF&#45;&gt;꞉default</title>
<path fill="none" stroke="grey" d="M287.246,-320.037C258.831,-307.564 214.027,-287.897 181.792,-273.747"/>
<polygon fill="grey" stroke="grey" points="182.787,-270.362 172.223,-269.547 179.973,-276.771 182.787,-270.362"/>
</g>
<!-- lexeme default -->
<g id="node4" class="node"><title>lexeme default</title>
<polygon fill="goldenrod" stroke="black" points="310.5,-273.5 212.5,-273.5 212.5,-237.5 310.5,-237.5 310.5,-273.5"/>
<text text-anchor="middle" x="261.5" y="-251.8" font-family="Times,serif" font-size="14.00">lexeme default</text>
</g>
<!-- BNF&#45;&gt;lexeme default -->
<g id="edge3" class="edge"><title>BNF&#45;&gt;lexeme default</title>
<path fill="none" stroke="grey" d="M302.473,-314.868C295.629,-305.118 286.927,-292.722 279.305,-281.863"/>
<polygon fill="grey" stroke="grey" points="282.089,-279.738 273.479,-273.564 276.36,-283.76 282.089,-279.738"/>
</g>
<!-- statements -->
<g id="node6" class="node"><title>statements</title>
<path fill="lightgreen" stroke="black" d="M341,-232.5C341,-232.5 394,-232.5 394,-232.5 400,-232.5 406,-238.5 406,-244.5 406,-244.5 406,-266.5 406,-266.5 406,-272.5 400,-278.5 394,-278.5 394,-278.5 341,-278.5 341,-278.5 335,-278.5 329,-272.5 329,-266.5 329,-266.5 329,-244.5 329,-244.5 329,-238.5 335,-232.5 341,-232.5"/>
<text text-anchor="middle" x="367.5" y="-263.3" font-family="Times,serif" font-size="14.00">꞉start</text>
<polyline fill="none" stroke="black" points="329,-255.5 406,-255.5 "/>
<text text-anchor="middle" x="367.5" y="-240.3" font-family="Times,serif" font-size="14.00">statements</text>
</g>
<!-- BNF&#45;&gt;statements -->
<g id="edge5" class="edge"><title>BNF&#45;&gt;statements</title>
<path fill="none" stroke="grey" d="M326.527,-314.868C332.279,-306.674 339.344,-296.61 345.977,-287.16"/>
<polygon fill="grey" stroke="grey" points="349.016,-288.922 351.897,-278.727 343.287,-284.9 349.016,-288.922"/>
</g>
<!-- ꞉discard -->
<g id="node7" class="node"><title>꞉discard</title>
<polygon fill="magenta" stroke="black" points="484.5,-273.5 424.5,-273.5 424.5,-237.5 484.5,-237.5 484.5,-273.5"/>
<text text-anchor="middle" x="454.5" y="-251.8" font-family="Times,serif" font-size="14.00">꞉discard</text>
</g>
<!-- BNF&#45;&gt;꞉discard -->
<g id="edge6" class="edge"><title>BNF&#45;&gt;꞉discard</title>
<path fill="none" stroke="grey" d="M341.762,-317.786C361.923,-307.218 390.013,-292.373 414.5,-279 414.802,-278.835 415.104,-278.67 415.408,-278.503"/>
<polygon fill="grey" stroke="grey" points="417.342,-281.434 424.404,-273.535 413.958,-275.306 417.342,-281.434"/>
</g>
<!-- lexeme default_1 -->
<g id="node5" class="node"><title>lexeme default_1</title>
<path fill="goldenrod" stroke="black" d="M213.5,-75C213.5,-75 367.5,-75 367.5,-75 373.5,-75 379.5,-81 379.5,-87 379.5,-87 379.5,-132 379.5,-132 379.5,-138 373.5,-144 367.5,-144 367.5,-144 213.5,-144 213.5,-144 207.5,-144 201.5,-138 201.5,-132 201.5,-132 201.5,-87 201.5,-87 201.5,-81 207.5,-75 213.5,-75"/>
<text text-anchor="middle" x="290.5" y="-128.8" font-family="Times,serif" font-size="14.00">action =&gt; [start,length,value]</text>
<polyline fill="none" stroke="black" points="201.5,-121 379.5,-121 "/>
<text text-anchor="middle" x="290.5" y="-105.8" font-family="Times,serif" font-size="14.00">bless =&gt; ::name</text>
<polyline fill="none" stroke="black" points="201.5,-98 379.5,-98 "/>
<text text-anchor="middle" x="290.5" y="-82.8" font-family="Times,serif" font-size="14.00">latm =&gt; 1</text>
</g>
<!-- lexeme default&#45;&gt;lexeme default_1 -->
<g id="edge4" class="edge"><title>lexeme default&#45;&gt;lexeme default_1</title>
<path fill="none" stroke="grey" d="M264.941,-237.416C269.043,-217.046 276.053,-182.238 281.695,-154.221"/>
<polygon fill="grey" stroke="grey" points="285.161,-154.74 283.704,-144.246 278.298,-153.358 285.161,-154.74"/>
</g>
<!-- lexeme -->
<g id="node8" class="node"><title>lexeme</title>
<polygon fill="magenta" stroke="black" points="482.5,-127.5 426.5,-127.5 426.5,-91.5 482.5,-91.5 482.5,-127.5"/>
<text text-anchor="middle" x="454.5" y="-105.8" font-family="Times,serif" font-size="14.00">lexeme</text>
</g>
<!-- ꞉discard&#45;&gt;lexeme -->
<g id="edge7" class="edge"><title>꞉discard&#45;&gt;lexeme</title>
<path fill="none" stroke="grey" d="M449.945,-237.416C447.338,-212.733 447.053,-166.851 449.092,-137.541"/>
<polygon fill="grey" stroke="grey" points="452.58,-137.825 449.948,-127.562 445.606,-137.226 452.58,-137.825"/>
</g>
<!-- ꞉discard&#45;&gt;lexeme -->
<g id="edge8" class="edge"><title>꞉discard&#45;&gt;lexeme</title>
<path fill="none" stroke="grey" d="M459.055,-237.416C461.662,-212.733 461.947,-166.851 459.908,-137.541"/>
<polygon fill="grey" stroke="grey" points="463.394,-137.226 459.052,-127.562 456.42,-137.825 463.394,-137.226"/>
</g>
<!-- Legend -->
<g id="node9" class="node"><title>Legend</title>
<polygon fill="lightgrey" stroke="none" points="794,-196 501,-196 501,-23 794,-23 794,-196"/>
<polygon fill="white" stroke="none" points="509,-27 509,-192 786,-192 786,-27 509,-27"/>
<polygon fill="lightgreen" stroke="none" points="512.5,-167.5 512.5,-188.5 783.5,-188.5 783.5,-167.5 512.5,-167.5"/>
<polygon fill="none" stroke="black" points="512.5,-167.5 512.5,-188.5 783.5,-188.5 783.5,-167.5 512.5,-167.5"/>
<text text-anchor="start" x="559" y="-174.3" font-family="Times,serif" font-size="14.00">The green node is the start node</text>
<polygon fill="lightblue" stroke="none" points="512.5,-144.5 512.5,-165.5 783.5,-165.5 783.5,-144.5 512.5,-144.5"/>
<polygon fill="none" stroke="black" points="512.5,-144.5 512.5,-165.5 783.5,-165.5 783.5,-144.5 512.5,-144.5"/>
<text text-anchor="start" x="515.5" y="-151.3" font-family="Times,serif" font-size="14.00">Lightblue nodes are for reserved rule names, etc</text>
<polygon fill="orchid" stroke="none" points="512.5,-121.5 512.5,-142.5 783.5,-142.5 783.5,-121.5 512.5,-121.5"/>
<polygon fill="none" stroke="black" points="512.5,-121.5 512.5,-142.5 783.5,-142.5 783.5,-121.5 512.5,-121.5"/>
<text text-anchor="start" x="566.5" y="-128.3" font-family="Times,serif" font-size="14.00">Orchid nodes are for lexemes</text>
<polygon fill="orange" stroke="none" points="512.5,-98.5 512.5,-119.5 783.5,-119.5 783.5,-98.5 512.5,-98.5"/>
<polygon fill="none" stroke="black" points="512.5,-98.5 512.5,-119.5 783.5,-119.5 783.5,-98.5 512.5,-98.5"/>
<text text-anchor="start" x="564.5" y="-105.3" font-family="Times,serif" font-size="14.00">Orange nodes are for &#39;:default&#39;</text>
<polygon fill="magenta" stroke="none" points="512.5,-75.5 512.5,-96.5 783.5,-96.5 783.5,-75.5 512.5,-75.5"/>
<polygon fill="none" stroke="black" points="512.5,-75.5 512.5,-96.5 783.5,-96.5 783.5,-75.5 512.5,-75.5"/>
<text text-anchor="start" x="560.5" y="-82.3" font-family="Times,serif" font-size="14.00">Magenta nodes are for &#39;:discard&#39;</text>
<polygon fill="goldenrod" stroke="none" points="512.5,-52.5 512.5,-73.5 783.5,-73.5 783.5,-52.5 512.5,-52.5"/>
<polygon fill="none" stroke="black" points="512.5,-52.5 512.5,-73.5 783.5,-73.5 783.5,-52.5 512.5,-52.5"/>
<text text-anchor="start" x="544.5" y="-59.3" font-family="Times,serif" font-size="14.00">Golden nodes are for &#39;lexeme default&#39;</text>
<polygon fill="#ff3030" stroke="none" points="512.5,-29.5 512.5,-50.5 783.5,-50.5 783.5,-29.5 512.5,-29.5"/>
<polygon fill="none" stroke="black" points="512.5,-29.5 512.5,-50.5 783.5,-50.5 783.5,-29.5 512.5,-29.5"/>
<text text-anchor="start" x="580" y="-36.3" font-family="Times,serif" font-size="14.00">Red nodes are for events</text>
<polygon fill="none" stroke="black" points="509,-27 509,-192 786,-192 786,-27 509,-27"/>
</g>
</g>
</svg>
