<?xml version="1.0" encoding="UTF-8" standalone="no"?>
<!DOCTYPE svg PUBLIC "-//W3C//DTD SVG 1.1//EN"
 "http://www.w3.org/Graphics/SVG/1.1/DTD/svg11.dtd">
<!-- Generated by graphviz version 2.38.0 (20140413.2041)
 -->
<!-- Title: Perl Pages: 1 -->
<svg width="588pt" height="302pt"
 viewBox="0.00 0.00 588.00 302.00" xmlns="http://www.w3.org/2000/svg" xmlns:xlink="http://www.w3.org/1999/xlink">
<g id="graph0" class="graph" transform="scale(1 1) rotate(0) translate(4 298)">
<title>Perl</title>
<polygon fill="white" stroke="none" points="-4,4 -4,-298 584,-298 584,4 -4,4"/>
<text text-anchor="middle" x="290" y="-7.8" font-family="Times,serif" font-size="14.00">numeric.expressions.bnf</text>
<!-- ꞉default -->
<g id="node1" class="node"><title>꞉default</title>
<polygon fill="lightblue" stroke="black" points="59,-222 0,-222 0,-186 59,-186 59,-222"/>
<text text-anchor="middle" x="29.5" y="-200.3" font-family="Times,serif" font-size="14.00">꞉default</text>
</g>
<!-- BNF -->
<g id="node2" class="node"><title>BNF</title>
<polygon fill="lightgrey" stroke="black" points="153.5,-294 99.5,-294 99.5,-258 153.5,-258 153.5,-294"/>
<text text-anchor="middle" x="126.5" y="-272.3" font-family="Times,serif" font-size="14.00">BNF</text>
</g>
<!-- BNF&#45;&gt;꞉default -->
<g id="edge1" class="edge"><title>BNF&#45;&gt;꞉default</title>
<path fill="none" stroke="grey" d="M102.522,-257.697C90.1887,-248.796 74.9836,-237.823 61.647,-228.199"/>
<polygon fill="grey" stroke="grey" points="63.3589,-225.118 53.2017,-222.104 59.2626,-230.794 63.3589,-225.118"/>
</g>
<!-- lexeme default -->
<g id="node3" class="node"><title>lexeme default</title>
<polygon fill="lightblue" stroke="black" points="175.5,-222 77.5,-222 77.5,-186 175.5,-186 175.5,-222"/>
<text text-anchor="middle" x="126.5" y="-200.3" font-family="Times,serif" font-size="14.00">lexeme default</text>
</g>
<!-- BNF&#45;&gt;lexeme default -->
<g id="edge2" class="edge"><title>BNF&#45;&gt;lexeme default</title>
<path fill="none" stroke="grey" d="M126.5,-257.697C126.5,-249.983 126.5,-240.712 126.5,-232.112"/>
<polygon fill="grey" stroke="grey" points="130,-232.104 126.5,-222.104 123,-232.104 130,-232.104"/>
</g>
<!-- ꞉discard -->
<g id="node5" class="node"><title>꞉discard</title>
<polygon fill="lightblue" stroke="black" points="264.5,-222 204.5,-222 204.5,-186 264.5,-186 264.5,-222"/>
<text text-anchor="middle" x="234.5" y="-200.3" font-family="Times,serif" font-size="14.00">꞉discard</text>
</g>
<!-- BNF&#45;&gt;꞉discard -->
<g id="edge4" class="edge"><title>BNF&#45;&gt;꞉discard</title>
<path fill="none" stroke="grey" d="M152.92,-257.876C166.91,-248.808 184.276,-237.552 199.386,-227.759"/>
<polygon fill="grey" stroke="grey" points="201.491,-230.566 207.979,-222.19 197.683,-224.692 201.491,-230.566"/>
</g>
<!-- lexeme default_1 -->
<g id="node4" class="node"><title>lexeme default_1</title>
<path fill="lightblue" stroke="black" d="M61,-63.5C61,-63.5 182,-63.5 182,-63.5 188,-63.5 194,-69.5 194,-75.5 194,-75.5 194,-97.5 194,-97.5 194,-103.5 188,-109.5 182,-109.5 182,-109.5 61,-109.5 61,-109.5 55,-109.5 49,-103.5 49,-97.5 49,-97.5 49,-75.5 49,-75.5 49,-69.5 55,-63.5 61,-63.5"/>
<text text-anchor="middle" x="121.5" y="-94.3" font-family="Times,serif" font-size="14.00">action =&gt; [name,value]</text>
<polyline fill="none" stroke="black" points="49,-86.5 194,-86.5 "/>
<text text-anchor="middle" x="121.5" y="-71.3" font-family="Times,serif" font-size="14.00">latm =&gt; 1</text>
</g>
<!-- lexeme default&#45;&gt;lexeme default_1 -->
<g id="edge3" class="edge"><title>lexeme default&#45;&gt;lexeme default_1</title>
<path fill="none" stroke="grey" d="M125.762,-185.958C125.011,-168.593 123.826,-141.239 122.897,-119.765"/>
<polygon fill="grey" stroke="grey" points="126.393,-119.605 122.464,-109.765 119.4,-119.907 126.393,-119.605"/>
</g>
<!-- lexeme -->
<g id="node6" class="node"><title>lexeme</title>
<polygon fill="lightblue" stroke="black" points="268.5,-104.5 212.5,-104.5 212.5,-68.5 268.5,-68.5 268.5,-104.5"/>
<text text-anchor="middle" x="240.5" y="-82.8" font-family="Times,serif" font-size="14.00">lexeme</text>
</g>
<!-- ꞉discard&#45;&gt;lexeme -->
<g id="edge5" class="edge"><title>꞉discard&#45;&gt;lexeme</title>
<path fill="none" stroke="grey" d="M235.385,-185.958C236.36,-167.191 237.941,-136.756 239.088,-114.687"/>
<polygon fill="grey" stroke="grey" points="242.587,-114.78 239.611,-104.612 235.597,-114.417 242.587,-114.78"/>
</g>
<!-- Legend -->
<g id="node7" class="node"><title>Legend</title>
<polygon fill="lightgrey" stroke="none" points="580,-150 287,-150 287,-23 580,-23 580,-150"/>
<polygon fill="white" stroke="none" points="295,-27 295,-146 572,-146 572,-27 295,-27"/>
<polygon fill="lightgreen" stroke="none" points="298.5,-121.5 298.5,-142.5 569.5,-142.5 569.5,-121.5 298.5,-121.5"/>
<polygon fill="none" stroke="black" points="298.5,-121.5 298.5,-142.5 569.5,-142.5 569.5,-121.5 298.5,-121.5"/>
<text text-anchor="start" x="345" y="-128.3" font-family="Times,serif" font-size="14.00">The green node is the start node</text>
<polygon fill="lightblue" stroke="none" points="298.5,-98.5 298.5,-119.5 569.5,-119.5 569.5,-98.5 298.5,-98.5"/>
<polygon fill="none" stroke="black" points="298.5,-98.5 298.5,-119.5 569.5,-119.5 569.5,-98.5 298.5,-98.5"/>
<text text-anchor="start" x="301.5" y="-105.3" font-family="Times,serif" font-size="14.00">Lightblue nodes are for reserved rule names, etc</text>
<polygon fill="orchid" stroke="none" points="298.5,-75.5 298.5,-96.5 569.5,-96.5 569.5,-75.5 298.5,-75.5"/>
<polygon fill="none" stroke="black" points="298.5,-75.5 298.5,-96.5 569.5,-96.5 569.5,-75.5 298.5,-75.5"/>
<text text-anchor="start" x="352.5" y="-82.3" font-family="Times,serif" font-size="14.00">Orchid nodes are for lexemes</text>
<polygon fill="goldenrod" stroke="none" points="298.5,-52.5 298.5,-73.5 569.5,-73.5 569.5,-52.5 298.5,-52.5"/>
<polygon fill="none" stroke="black" points="298.5,-52.5 298.5,-73.5 569.5,-73.5 569.5,-52.5 298.5,-52.5"/>
<text text-anchor="start" x="354" y="-59.3" font-family="Times,serif" font-size="14.00">Golden nodes are for actions</text>
<polygon fill="#ff3030" stroke="none" points="298.5,-29.5 298.5,-50.5 569.5,-50.5 569.5,-29.5 298.5,-29.5"/>
<polygon fill="none" stroke="black" points="298.5,-29.5 298.5,-50.5 569.5,-50.5 569.5,-29.5 298.5,-29.5"/>
<text text-anchor="start" x="366" y="-36.3" font-family="Times,serif" font-size="14.00">Red nodes are for events</text>
<polygon fill="none" stroke="black" points="295,-27 295,-146 572,-146 572,-27 295,-27"/>
</g>
</g>
</svg>
