<?xml version="1.0" encoding="UTF-8" standalone="no"?>
<!DOCTYPE svg PUBLIC "-//W3C//DTD SVG 1.1//EN"
 "http://www.w3.org/Graphics/SVG/1.1/DTD/svg11.dtd">
<!-- Generated by graphviz version 2.38.0 (20140413.2041)
 -->
<!-- Title: Perl Pages: 1 -->
<svg width="3931pt" height="422pt"
 viewBox="0.00 0.00 3930.50 422.00" xmlns="http://www.w3.org/2000/svg" xmlns:xlink="http://www.w3.org/1999/xlink">
<g id="graph0" class="graph" transform="scale(1 1) rotate(0) translate(4 418)">
<title>Perl</title>
<polygon fill="white" stroke="none" points="-4,4 -4,-418 3926.5,-418 3926.5,4 -4,4"/>
<text text-anchor="middle" x="1961.25" y="-7.8" font-family="Times,serif" font-size="14.00">stringparser.bnf</text>
<!-- ꞉default -->
<g id="node1" class="node"><title>꞉default</title>
<polygon fill="pink" stroke="black" points="110.5,-341.5 51.5,-341.5 51.5,-305.5 110.5,-305.5 110.5,-341.5"/>
<text text-anchor="middle" x="81" y="-319.8" font-family="Times,serif" font-size="14.00">꞉default</text>
</g>
<!-- ꞉default_1 -->
<g id="node3" class="node"><title>꞉default_1</title>
<path fill="pink" stroke="black" d="M12,-232.5C12,-232.5 104,-232.5 104,-232.5 110,-232.5 116,-238.5 116,-244.5 116,-244.5 116,-256.5 116,-256.5 116,-262.5 110,-268.5 104,-268.5 104,-268.5 12,-268.5 12,-268.5 6,-268.5 0,-262.5 0,-256.5 0,-256.5 0,-244.5 0,-244.5 0,-238.5 6,-232.5 12,-232.5"/>
<text text-anchor="middle" x="58" y="-246.8" font-family="Times,serif" font-size="14.00">action =&gt; [values]</text>
</g>
<!-- ꞉default&#45;&gt;꞉default_1 -->
<g id="edge2" class="edge"><title>꞉default&#45;&gt;꞉default_1</title>
<path fill="none" stroke="grey" d="M75.4323,-305.313C72.805,-297.202 69.6087,-287.336 66.6741,-278.277"/>
<polygon fill="grey" stroke="grey" points="69.9279,-276.963 63.5164,-268.529 63.2686,-279.121 69.9279,-276.963"/>
</g>
<!-- BNF -->
<g id="node2" class="node"><title>BNF</title>
<polygon fill="lightgrey" stroke="black" points="373,-414 319,-414 319,-378 373,-378 373,-414"/>
<text text-anchor="middle" x="346" y="-392.3" font-family="Times,serif" font-size="14.00">BNF</text>
</g>
<!-- BNF&#45;&gt;꞉default -->
<g id="edge1" class="edge"><title>BNF&#45;&gt;꞉default</title>
<path fill="none" stroke="grey" d="M318.82,-388.608C278.823,-379.09 201.837,-360.337 137,-342 131.609,-340.475 125.95,-338.798 120.386,-337.104"/>
<polygon fill="grey" stroke="grey" points="121.142,-333.674 110.554,-334.066 119.075,-340.362 121.142,-333.674"/>
</g>
<!-- discard default -->
<g id="node4" class="node"><title>discard default</title>
<polygon fill="orchid" stroke="black" points="244,-341.5 146,-341.5 146,-305.5 244,-305.5 244,-341.5"/>
<text text-anchor="middle" x="195" y="-319.8" font-family="Times,serif" font-size="14.00">discard default</text>
</g>
<!-- BNF&#45;&gt;discard default -->
<g id="edge3" class="edge"><title>BNF&#45;&gt;discard default</title>
<path fill="none" stroke="grey" d="M318.655,-382.233C296.931,-372.09 266.079,-357.686 240.626,-345.802"/>
<polygon fill="grey" stroke="grey" points="242.062,-342.61 231.521,-341.551 239.101,-348.953 242.062,-342.61"/>
</g>
<!-- ꞉discard -->
<g id="node6" class="node"><title>꞉discard</title>
<polygon fill="magenta" stroke="black" points="328,-341.5 268,-341.5 268,-305.5 328,-305.5 328,-341.5"/>
<text text-anchor="middle" x="298" y="-319.8" font-family="Times,serif" font-size="14.00">꞉discard</text>
</g>
<!-- BNF&#45;&gt;꞉discard -->
<g id="edge5" class="edge"><title>BNF&#45;&gt;꞉discard</title>
<path fill="none" stroke="grey" d="M334.381,-377.934C328.746,-369.658 321.857,-359.54 315.595,-350.343"/>
<polygon fill="grey" stroke="grey" points="318.367,-348.195 309.846,-341.899 312.581,-352.134 318.367,-348.195"/>
</g>
<!-- lexeme default -->
<g id="node9" class="node"><title>lexeme default</title>
<polygon fill="goldenrod" stroke="black" points="444,-341.5 346,-341.5 346,-305.5 444,-305.5 444,-341.5"/>
<text text-anchor="middle" x="395" y="-319.8" font-family="Times,serif" font-size="14.00">lexeme default</text>
</g>
<!-- BNF&#45;&gt;lexeme default -->
<g id="edge8" class="edge"><title>BNF&#45;&gt;lexeme default</title>
<path fill="none" stroke="grey" d="M357.862,-377.934C363.614,-369.658 370.646,-359.54 377.038,-350.343"/>
<polygon fill="grey" stroke="grey" points="380.074,-352.108 382.907,-341.899 374.326,-348.113 380.074,-352.108"/>
</g>
<!-- start -->
<g id="node11" class="node"><title>start</title>
<path fill="lightgreen" stroke="black" d="M474,-305.5C474,-305.5 504,-305.5 504,-305.5 510,-305.5 516,-311.5 516,-317.5 516,-317.5 516,-329.5 516,-329.5 516,-335.5 510,-341.5 504,-341.5 504,-341.5 474,-341.5 474,-341.5 468,-341.5 462,-335.5 462,-329.5 462,-329.5 462,-317.5 462,-317.5 462,-311.5 468,-305.5 474,-305.5"/>
<text text-anchor="middle" x="489" y="-319.8" font-family="Times,serif" font-size="14.00">꞉start</text>
</g>
<!-- BNF&#45;&gt;start -->
<g id="edge10" class="edge"><title>BNF&#45;&gt;start</title>
<path fill="none" stroke="grey" d="M373.234,-381.574C395.796,-370.45 428.055,-354.546 452.791,-342.351"/>
<polygon fill="grey" stroke="grey" points="454.446,-345.438 461.868,-337.876 451.351,-339.159 454.446,-345.438"/>
</g>
<!-- ꞉lexeme -->
<g id="node36" class="node"><title>꞉lexeme</title>
<polygon fill="lightblue" stroke="black" points="594,-341.5 534,-341.5 534,-305.5 594,-305.5 594,-341.5"/>
<text text-anchor="middle" x="564" y="-319.8" font-family="Times,serif" font-size="14.00">꞉lexeme</text>
</g>
<!-- BNF&#45;&gt;꞉lexeme -->
<g id="edge24" class="edge"><title>BNF&#45;&gt;꞉lexeme</title>
<path fill="none" stroke="grey" d="M373.054,-388.201C406.633,-379.502 465.724,-363.343 524.505,-341.949"/>
<polygon fill="grey" stroke="grey" points="525.762,-345.216 533.932,-338.471 523.339,-338.649 525.762,-345.216"/>
</g>
<!-- discard default_1 -->
<g id="node5" class="node"><title>discard default_1</title>
<path fill="orchid" stroke="black" d="M146,-232.5C146,-232.5 234,-232.5 234,-232.5 240,-232.5 246,-238.5 246,-244.5 246,-244.5 246,-256.5 246,-256.5 246,-262.5 240,-268.5 234,-268.5 234,-268.5 146,-268.5 146,-268.5 140,-268.5 134,-262.5 134,-256.5 134,-256.5 134,-244.5 134,-244.5 134,-238.5 140,-232.5 146,-232.5"/>
<text text-anchor="middle" x="190" y="-246.8" font-family="Times,serif" font-size="14.00">event =&gt; :symbol</text>
</g>
<!-- discard default&#45;&gt;discard default_1 -->
<g id="edge4" class="edge"><title>discard default&#45;&gt;discard default_1</title>
<path fill="none" stroke="grey" d="M193.79,-305.313C193.225,-297.289 192.539,-287.547 191.906,-278.569"/>
<polygon fill="grey" stroke="grey" points="195.393,-278.258 191.199,-268.529 188.41,-278.75 195.393,-278.258"/>
</g>
<!-- whitespace -->
<g id="node7" class="node"><title>whitespace</title>
<polygon fill="magenta" stroke="black" points="341.5,-268.5 264.5,-268.5 264.5,-232.5 341.5,-232.5 341.5,-268.5"/>
<text text-anchor="middle" x="303" y="-246.8" font-family="Times,serif" font-size="14.00">whitespace</text>
</g>
<!-- ꞉discard&#45;&gt;whitespace -->
<g id="edge6" class="edge"><title>꞉discard&#45;&gt;whitespace</title>
<path fill="none" stroke="grey" d="M299.21,-305.313C299.775,-297.289 300.461,-287.547 301.094,-278.569"/>
<polygon fill="grey" stroke="grey" points="304.59,-278.75 301.801,-268.529 297.607,-278.258 304.59,-278.75"/>
</g>
<!-- bare_name_1 -->
<g id="node8" class="node"><title>bare_name_1</title>
<path fill="white" stroke="black" d="M285,-91.5C285,-91.5 321,-91.5 321,-91.5 327,-91.5 333,-97.5 333,-103.5 333,-103.5 333,-115.5 333,-115.5 333,-121.5 327,-127.5 321,-127.5 321,-127.5 285,-127.5 285,-127.5 279,-127.5 273,-121.5 273,-115.5 273,-115.5 273,-103.5 273,-103.5 273,-97.5 279,-91.5 285,-91.5"/>
<text text-anchor="middle" x="303" y="-105.8" font-family="Times,serif" font-size="14.00">[s] =&gt; +</text>
</g>
<!-- whitespace&#45;&gt;bare_name_1 -->
<g id="edge7" class="edge"><title>whitespace&#45;&gt;bare_name_1</title>
<path fill="none" stroke="grey" d="M303,-232.456C303,-208.904 303,-166.139 303,-138.026"/>
<polygon fill="grey" stroke="grey" points="306.5,-137.684 303,-127.684 299.5,-137.684 306.5,-137.684"/>
</g>
<!-- lexeme default_1 -->
<g id="node10" class="node"><title>lexeme default_1</title>
<path fill="goldenrod" stroke="black" d="M371.5,-232.5C371.5,-232.5 418.5,-232.5 418.5,-232.5 424.5,-232.5 430.5,-238.5 430.5,-244.5 430.5,-244.5 430.5,-256.5 430.5,-256.5 430.5,-262.5 424.5,-268.5 418.5,-268.5 418.5,-268.5 371.5,-268.5 371.5,-268.5 365.5,-268.5 359.5,-262.5 359.5,-256.5 359.5,-256.5 359.5,-244.5 359.5,-244.5 359.5,-238.5 365.5,-232.5 371.5,-232.5"/>
<text text-anchor="middle" x="395" y="-246.8" font-family="Times,serif" font-size="14.00">latm =&gt; 1</text>
</g>
<!-- lexeme default&#45;&gt;lexeme default_1 -->
<g id="edge9" class="edge"><title>lexeme default&#45;&gt;lexeme default_1</title>
<path fill="none" stroke="grey" d="M395,-305.313C395,-297.289 395,-287.547 395,-278.569"/>
<polygon fill="grey" stroke="grey" points="398.5,-278.529 395,-268.529 391.5,-278.529 398.5,-278.529"/>
</g>
<!-- graph_grammar -->
<g id="node12" class="node"><title>graph_grammar</title>
<path fill="lightgreen" stroke="black" d="M461,-232.5C461,-232.5 543,-232.5 543,-232.5 549,-232.5 555,-238.5 555,-244.5 555,-244.5 555,-256.5 555,-256.5 555,-262.5 549,-268.5 543,-268.5 543,-268.5 461,-268.5 461,-268.5 455,-268.5 449,-262.5 449,-256.5 449,-256.5 449,-244.5 449,-244.5 449,-238.5 455,-232.5 461,-232.5"/>
<text text-anchor="middle" x="502" y="-246.8" font-family="Times,serif" font-size="14.00">graph_grammar</text>
</g>
<!-- start&#45;&gt;graph_grammar -->
<g id="edge11" class="edge"><title>start&#45;&gt;graph_grammar</title>
<path fill="none" stroke="grey" d="M492.147,-305.313C493.616,-297.289 495.4,-287.547 497.044,-278.569"/>
<polygon fill="grey" stroke="grey" points="500.524,-278.996 498.882,-268.529 493.638,-277.735 500.524,-278.996"/>
</g>
<!-- bare_name_2 -->
<g id="node13" class="node"><title>bare_name_2</title>
<path fill="white" stroke="black" d="M417.5,-91.5C417.5,-91.5 586.5,-91.5 586.5,-91.5 592.5,-91.5 598.5,-97.5 598.5,-103.5 598.5,-103.5 598.5,-115.5 598.5,-115.5 598.5,-121.5 592.5,-127.5 586.5,-127.5 586.5,-127.5 417.5,-127.5 417.5,-127.5 411.5,-127.5 405.5,-121.5 405.5,-115.5 405.5,-115.5 405.5,-103.5 405.5,-103.5 405.5,-97.5 411.5,-91.5 417.5,-91.5"/>
<text text-anchor="middle" x="502" y="-105.8" font-family="Times,serif" font-size="14.00">bare_name =&gt; graph_definition</text>
</g>
<!-- graph_grammar&#45;&gt;bare_name_2 -->
<g id="edge12" class="edge"><title>graph_grammar&#45;&gt;bare_name_2</title>
<path fill="none" stroke="grey" d="M502,-232.456C502,-208.904 502,-166.139 502,-138.026"/>
<polygon fill="grey" stroke="grey" points="505.5,-137.684 502,-127.684 498.5,-137.684 505.5,-137.684"/>
</g>
<!-- bare_name_3 -->
<g id="node14" class="node"><title>bare_name_3</title>
<path fill="white" stroke="black" d="M629,-91.5C629,-91.5 793,-91.5 793,-91.5 799,-91.5 805,-97.5 805,-103.5 805,-103.5 805,-115.5 805,-115.5 805,-121.5 799,-127.5 793,-127.5 793,-127.5 629,-127.5 629,-127.5 623,-127.5 617,-121.5 617,-115.5 617,-115.5 617,-103.5 617,-103.5 617,-97.5 623,-91.5 629,-91.5"/>
<text text-anchor="middle" x="711" y="-105.8" font-family="Times,serif" font-size="14.00">bare_name =&gt; node_definition</text>
</g>
<!-- graph_definition -->
<g id="node15" class="node"><title>graph_definition</title>
<polygon fill="lightgrey" stroke="black" points="766,-268.5 656,-268.5 656,-232.5 766,-232.5 766,-268.5"/>
<text text-anchor="middle" x="711" y="-246.8" font-family="Times,serif" font-size="14.00">graph_definition</text>
</g>
<!-- graph_definition&#45;&gt;bare_name_3 -->
<g id="edge13" class="edge"><title>graph_definition&#45;&gt;bare_name_3</title>
<path fill="none" stroke="grey" d="M711,-232.456C711,-208.904 711,-166.139 711,-138.026"/>
<polygon fill="grey" stroke="grey" points="714.5,-137.684 711,-127.684 707.5,-137.684 714.5,-137.684"/>
</g>
<!-- bare_name_4 -->
<g id="node16" class="node"><title>bare_name_4</title>
<path fill="white" stroke="black" d="M835.5,-91.5C835.5,-91.5 1000.5,-91.5 1000.5,-91.5 1006.5,-91.5 1012.5,-97.5 1012.5,-103.5 1012.5,-103.5 1012.5,-115.5 1012.5,-115.5 1012.5,-121.5 1006.5,-127.5 1000.5,-127.5 1000.5,-127.5 835.5,-127.5 835.5,-127.5 829.5,-127.5 823.5,-121.5 823.5,-115.5 823.5,-115.5 823.5,-103.5 823.5,-103.5 823.5,-97.5 829.5,-91.5 835.5,-91.5"/>
<text text-anchor="middle" x="918" y="-105.8" font-family="Times,serif" font-size="14.00">bare_name =&gt; node_statement</text>
</g>
<!-- node_definition -->
<g id="node17" class="node"><title>node_definition</title>
<polygon fill="lightgrey" stroke="black" points="970.5,-268.5 865.5,-268.5 865.5,-232.5 970.5,-232.5 970.5,-268.5"/>
<text text-anchor="middle" x="918" y="-246.8" font-family="Times,serif" font-size="14.00">node_definition</text>
</g>
<!-- node_definition&#45;&gt;bare_name_4 -->
<g id="edge14" class="edge"><title>node_definition&#45;&gt;bare_name_4</title>
<path fill="none" stroke="grey" d="M918,-232.456C918,-208.904 918,-166.139 918,-138.026"/>
<polygon fill="grey" stroke="grey" points="921.5,-137.684 918,-127.684 914.5,-137.684 921.5,-137.684"/>
</g>
<!-- bare_name_5 -->
<g id="node18" class="node"><title>bare_name_5</title>
<path fill="white" stroke="black" d="M1042.5,-91.5C1042.5,-91.5 1221.5,-91.5 1221.5,-91.5 1227.5,-91.5 1233.5,-97.5 1233.5,-103.5 1233.5,-103.5 1233.5,-115.5 1233.5,-115.5 1233.5,-121.5 1227.5,-127.5 1221.5,-127.5 1221.5,-127.5 1042.5,-127.5 1042.5,-127.5 1036.5,-127.5 1030.5,-121.5 1030.5,-115.5 1030.5,-115.5 1030.5,-103.5 1030.5,-103.5 1030.5,-97.5 1036.5,-91.5 1042.5,-91.5"/>
<text text-anchor="middle" x="1132" y="-105.8" font-family="Times,serif" font-size="14.00">bare_name =&gt; node_name_token</text>
</g>
<!-- node_statement -->
<g id="node19" class="node"><title>node_statement</title>
<polygon fill="lightgrey" stroke="black" points="1185,-268.5 1079,-268.5 1079,-232.5 1185,-232.5 1185,-268.5"/>
<text text-anchor="middle" x="1132" y="-246.8" font-family="Times,serif" font-size="14.00">node_statement</text>
</g>
<!-- node_statement&#45;&gt;bare_name_5 -->
<g id="edge15" class="edge"><title>node_statement&#45;&gt;bare_name_5</title>
<path fill="none" stroke="grey" d="M1132,-232.456C1132,-208.904 1132,-166.139 1132,-138.026"/>
<polygon fill="grey" stroke="grey" points="1135.5,-137.684 1132,-127.684 1128.5,-137.684 1135.5,-137.684"/>
</g>
<!-- bare_name_6 -->
<g id="node20" class="node"><title>bare_name_6</title>
<path fill="white" stroke="black" d="M1263.5,-86.5C1263.5,-86.5 1398.5,-86.5 1398.5,-86.5 1404.5,-86.5 1410.5,-92.5 1410.5,-98.5 1410.5,-98.5 1410.5,-120.5 1410.5,-120.5 1410.5,-126.5 1404.5,-132.5 1398.5,-132.5 1398.5,-132.5 1263.5,-132.5 1263.5,-132.5 1257.5,-132.5 1251.5,-126.5 1251.5,-120.5 1251.5,-120.5 1251.5,-98.5 1251.5,-98.5 1251.5,-92.5 1257.5,-86.5 1263.5,-86.5"/>
<text text-anchor="middle" x="1331" y="-117.3" font-family="Times,serif" font-size="14.00">bare_name =&gt; start_node</text>
<polyline fill="none" stroke="black" points="1251.5,-109.5 1410.5,-109.5 "/>
<text text-anchor="middle" x="1331" y="-94.3" font-family="Times,serif" font-size="14.00">bare_name =&gt; end_node</text>
</g>
<!-- node_name_token -->
<g id="node21" class="node"><title>node_name_token</title>
<polygon fill="lightgrey" stroke="black" points="1390.5,-268.5 1271.5,-268.5 1271.5,-232.5 1390.5,-232.5 1390.5,-268.5"/>
<text text-anchor="middle" x="1331" y="-246.8" font-family="Times,serif" font-size="14.00">node_name_token</text>
</g>
<!-- node_name_token&#45;&gt;bare_name_6 -->
<g id="edge16" class="edge"><title>node_name_token&#45;&gt;bare_name_6</title>
<path fill="none" stroke="grey" d="M1331,-232.456C1331,-210.214 1331,-170.837 1331,-142.847"/>
<polygon fill="grey" stroke="grey" points="1334.5,-142.736 1331,-132.736 1327.5,-142.736 1334.5,-142.736"/>
</g>
<!-- bare_name_7 -->
<g id="node22" class="node"><title>bare_name_7</title>
<path fill="white" stroke="black" d="M1440.5,-91.5C1440.5,-91.5 1603.5,-91.5 1603.5,-91.5 1609.5,-91.5 1615.5,-97.5 1615.5,-103.5 1615.5,-103.5 1615.5,-115.5 1615.5,-115.5 1615.5,-121.5 1609.5,-127.5 1603.5,-127.5 1603.5,-127.5 1440.5,-127.5 1440.5,-127.5 1434.5,-127.5 1428.5,-121.5 1428.5,-115.5 1428.5,-115.5 1428.5,-103.5 1428.5,-103.5 1428.5,-97.5 1434.5,-91.5 1440.5,-91.5"/>
<text text-anchor="middle" x="1522" y="-105.8" font-family="Times,serif" font-size="14.00">bare_name =&gt; edge_statement</text>
</g>
<!-- edge_definition -->
<g id="node23" class="node"><title>edge_definition</title>
<polygon fill="lightgrey" stroke="black" points="1573.5,-268.5 1470.5,-268.5 1470.5,-232.5 1573.5,-232.5 1573.5,-268.5"/>
<text text-anchor="middle" x="1522" y="-246.8" font-family="Times,serif" font-size="14.00">edge_definition</text>
</g>
<!-- edge_definition&#45;&gt;bare_name_7 -->
<g id="edge17" class="edge"><title>edge_definition&#45;&gt;bare_name_7</title>
<path fill="none" stroke="grey" d="M1522,-232.456C1522,-208.904 1522,-166.139 1522,-138.026"/>
<polygon fill="grey" stroke="grey" points="1525.5,-137.684 1522,-127.684 1518.5,-137.684 1525.5,-137.684"/>
</g>
<!-- bare_name_8 -->
<g id="node24" class="node"><title>bare_name_8</title>
<path fill="white" stroke="black" d="M1646,-91.5C1646,-91.5 1784,-91.5 1784,-91.5 1790,-91.5 1796,-97.5 1796,-103.5 1796,-103.5 1796,-115.5 1796,-115.5 1796,-121.5 1790,-127.5 1784,-127.5 1784,-127.5 1646,-127.5 1646,-127.5 1640,-127.5 1634,-121.5 1634,-115.5 1634,-115.5 1634,-103.5 1634,-103.5 1634,-97.5 1640,-91.5 1646,-91.5"/>
<text text-anchor="middle" x="1715" y="-105.8" font-family="Times,serif" font-size="14.00">bare_name =&gt; edge_name</text>
</g>
<!-- edge_statement -->
<g id="node25" class="node"><title>edge_statement</title>
<polygon fill="lightgrey" stroke="black" points="1767,-268.5 1663,-268.5 1663,-232.5 1767,-232.5 1767,-268.5"/>
<text text-anchor="middle" x="1715" y="-246.8" font-family="Times,serif" font-size="14.00">edge_statement</text>
</g>
<!-- edge_statement&#45;&gt;bare_name_8 -->
<g id="edge18" class="edge"><title>edge_statement&#45;&gt;bare_name_8</title>
<path fill="none" stroke="grey" d="M1715,-232.456C1715,-208.904 1715,-166.139 1715,-138.026"/>
<polygon fill="grey" stroke="grey" points="1718.5,-137.684 1715,-127.684 1711.5,-137.684 1718.5,-137.684"/>
</g>
<!-- bare_name_9 -->
<g id="node26" class="node"><title>bare_name_9</title>
<path fill="white" stroke="black" d="M1826,-91.5C1826,-91.5 1978,-91.5 1978,-91.5 1984,-91.5 1990,-97.5 1990,-103.5 1990,-103.5 1990,-115.5 1990,-115.5 1990,-121.5 1984,-127.5 1978,-127.5 1978,-127.5 1826,-127.5 1826,-127.5 1820,-127.5 1814,-121.5 1814,-115.5 1814,-115.5 1814,-103.5 1814,-103.5 1814,-97.5 1820,-91.5 1826,-91.5"/>
<text text-anchor="middle" x="1902" y="-105.8" font-family="Times,serif" font-size="14.00">bare_name =&gt; directed_edge</text>
</g>
<!-- edge_name -->
<g id="node27" class="node"><title>edge_name</title>
<polygon fill="lightgrey" stroke="black" points="1941.5,-268.5 1862.5,-268.5 1862.5,-232.5 1941.5,-232.5 1941.5,-268.5"/>
<text text-anchor="middle" x="1902" y="-246.8" font-family="Times,serif" font-size="14.00">edge_name</text>
</g>
<!-- edge_name&#45;&gt;bare_name_9 -->
<g id="edge19" class="edge"><title>edge_name&#45;&gt;bare_name_9</title>
<path fill="none" stroke="grey" d="M1902,-232.456C1902,-208.904 1902,-166.139 1902,-138.026"/>
<polygon fill="grey" stroke="grey" points="1905.5,-137.684 1902,-127.684 1898.5,-137.684 1905.5,-137.684"/>
</g>
<!-- bare_name_10 -->
<g id="node28" class="node"><title>bare_name_10</title>
<path fill="white" stroke="black" d="M2020,-91.5C2020,-91.5 2206,-91.5 2206,-91.5 2212,-91.5 2218,-97.5 2218,-103.5 2218,-103.5 2218,-115.5 2218,-115.5 2218,-121.5 2212,-127.5 2206,-127.5 2206,-127.5 2020,-127.5 2020,-127.5 2014,-127.5 2008,-121.5 2008,-115.5 2008,-115.5 2008,-103.5 2008,-103.5 2008,-97.5 2014,-91.5 2020,-91.5"/>
<text text-anchor="middle" x="2113" y="-105.8" font-family="Times,serif" font-size="14.00">bare_name =&gt; attribute_statement</text>
</g>
<!-- attribute_definition -->
<g id="node29" class="node"><title>attribute_definition</title>
<polygon fill="lightgrey" stroke="black" points="2176,-268.5 2050,-268.5 2050,-232.5 2176,-232.5 2176,-268.5"/>
<text text-anchor="middle" x="2113" y="-246.8" font-family="Times,serif" font-size="14.00">attribute_definition</text>
</g>
<!-- attribute_definition&#45;&gt;bare_name_10 -->
<g id="edge20" class="edge"><title>attribute_definition&#45;&gt;bare_name_10</title>
<path fill="none" stroke="grey" d="M2113,-232.456C2113,-208.904 2113,-166.139 2113,-138.026"/>
<polygon fill="grey" stroke="grey" points="2116.5,-137.684 2113,-127.684 2109.5,-137.684 2116.5,-137.684"/>
</g>
<!-- bare_name_11 -->
<g id="node30" class="node"><title>bare_name_11</title>
<path fill="white" stroke="black" d="M2248.5,-75C2248.5,-75 2417.5,-75 2417.5,-75 2423.5,-75 2429.5,-81 2429.5,-87 2429.5,-87 2429.5,-132 2429.5,-132 2429.5,-138 2423.5,-144 2417.5,-144 2417.5,-144 2248.5,-144 2248.5,-144 2242.5,-144 2236.5,-138 2236.5,-132 2236.5,-132 2236.5,-87 2236.5,-87 2236.5,-81 2242.5,-75 2248.5,-75"/>
<text text-anchor="middle" x="2333" y="-128.8" font-family="Times,serif" font-size="14.00">bare_name =&gt; start_attributes</text>
<polyline fill="none" stroke="black" points="2236.5,-121 2429.5,-121 "/>
<text text-anchor="middle" x="2333" y="-105.8" font-family="Times,serif" font-size="14.00">bare_name =&gt; string_token_set</text>
<polyline fill="none" stroke="black" points="2236.5,-98 2429.5,-98 "/>
<text text-anchor="middle" x="2333" y="-82.8" font-family="Times,serif" font-size="14.00">bare_name =&gt; end_attributes</text>
</g>
<!-- attribute_statement -->
<g id="node31" class="node"><title>attribute_statement</title>
<polygon fill="lightgrey" stroke="black" points="2396.5,-268.5 2269.5,-268.5 2269.5,-232.5 2396.5,-232.5 2396.5,-268.5"/>
<text text-anchor="middle" x="2333" y="-246.8" font-family="Times,serif" font-size="14.00">attribute_statement</text>
</g>
<!-- attribute_statement&#45;&gt;bare_name_11 -->
<g id="edge21" class="edge"><title>attribute_statement&#45;&gt;bare_name_11</title>
<path fill="none" stroke="grey" d="M2333,-232.456C2333,-213.128 2333,-180.861 2333,-154.37"/>
<polygon fill="grey" stroke="grey" points="2336.5,-154.17 2333,-144.17 2329.5,-154.17 2336.5,-154.17"/>
</g>
<!-- bare_name_12 -->
<g id="node32" class="node"><title>bare_name_12</title>
<path fill="white" stroke="black" d="M2459.5,-91.5C2459.5,-91.5 2634.5,-91.5 2634.5,-91.5 2640.5,-91.5 2646.5,-97.5 2646.5,-103.5 2646.5,-103.5 2646.5,-115.5 2646.5,-115.5 2646.5,-121.5 2640.5,-127.5 2634.5,-127.5 2634.5,-127.5 2459.5,-127.5 2459.5,-127.5 2453.5,-127.5 2447.5,-121.5 2447.5,-115.5 2447.5,-115.5 2447.5,-103.5 2447.5,-103.5 2447.5,-97.5 2453.5,-91.5 2459.5,-91.5"/>
<text text-anchor="middle" x="2547" y="-105.8" font-family="Times,serif" font-size="14.00">bare_name =&gt; string_token_pair</text>
</g>
<!-- string_token_set -->
<g id="node33" class="node"><title>string_token_set</title>
<polygon fill="lightgrey" stroke="black" points="2602,-268.5 2492,-268.5 2492,-232.5 2602,-232.5 2602,-268.5"/>
<text text-anchor="middle" x="2547" y="-246.8" font-family="Times,serif" font-size="14.00">string_token_set</text>
</g>
<!-- string_token_set&#45;&gt;bare_name_12 -->
<g id="edge22" class="edge"><title>string_token_set&#45;&gt;bare_name_12</title>
<path fill="none" stroke="grey" d="M2547,-232.456C2547,-208.904 2547,-166.139 2547,-138.026"/>
<polygon fill="grey" stroke="grey" points="2550.5,-137.684 2547,-127.684 2543.5,-137.684 2550.5,-137.684"/>
</g>
<!-- bare_name_13 -->
<g id="node34" class="node"><title>bare_name_13</title>
<path fill="white" stroke="black" d="M2677,-91.5C2677,-91.5 2819,-91.5 2819,-91.5 2825,-91.5 2831,-97.5 2831,-103.5 2831,-103.5 2831,-115.5 2831,-115.5 2831,-121.5 2825,-127.5 2819,-127.5 2819,-127.5 2677,-127.5 2677,-127.5 2671,-127.5 2665,-121.5 2665,-115.5 2665,-115.5 2665,-103.5 2665,-103.5 2665,-97.5 2671,-91.5 2677,-91.5"/>
<text text-anchor="middle" x="2748" y="-105.8" font-family="Times,serif" font-size="14.00">bare_name =&gt; literal_label</text>
</g>
<!-- string_token_pair -->
<g id="node35" class="node"><title>string_token_pair</title>
<polygon fill="lightgrey" stroke="black" points="2806,-268.5 2690,-268.5 2690,-232.5 2806,-232.5 2806,-268.5"/>
<text text-anchor="middle" x="2748" y="-246.8" font-family="Times,serif" font-size="14.00">string_token_pair</text>
</g>
<!-- string_token_pair&#45;&gt;bare_name_13 -->
<g id="edge23" class="edge"><title>string_token_pair&#45;&gt;bare_name_13</title>
<path fill="none" stroke="grey" d="M2748,-232.456C2748,-208.904 2748,-166.139 2748,-138.026"/>
<polygon fill="grey" stroke="grey" points="2751.5,-137.684 2748,-127.684 2744.5,-137.684 2751.5,-137.684"/>
</g>
<!-- bare_name_14 -->
<g id="node37" class="node"><title>bare_name_14</title>
<path fill="white" stroke="black" d="M2861,-91.5C2861,-91.5 3023,-91.5 3023,-91.5 3029,-91.5 3035,-97.5 3035,-103.5 3035,-103.5 3035,-115.5 3035,-115.5 3035,-121.5 3029,-127.5 3023,-127.5 3023,-127.5 2861,-127.5 2861,-127.5 2855,-127.5 2849,-121.5 2849,-115.5 2849,-115.5 2849,-103.5 2849,-103.5 2849,-97.5 2855,-91.5 2861,-91.5"/>
<text text-anchor="middle" x="2942" y="-105.8" font-family="Times,serif" font-size="14.00">bare_name =&gt; string_char_set</text>
</g>
<!-- attribute_name -->
<g id="node38" class="node"><title>attribute_name</title>
<polygon fill="lightgrey" stroke="black" points="2993,-268.5 2891,-268.5 2891,-232.5 2993,-232.5 2993,-268.5"/>
<text text-anchor="middle" x="2942" y="-246.8" font-family="Times,serif" font-size="14.00">attribute_name</text>
</g>
<!-- attribute_name&#45;&gt;bare_name_14 -->
<g id="edge25" class="edge"><title>attribute_name&#45;&gt;bare_name_14</title>
<path fill="none" stroke="grey" d="M2942,-232.456C2942,-208.904 2942,-166.139 2942,-138.026"/>
<polygon fill="grey" stroke="grey" points="2945.5,-137.684 2942,-127.684 2938.5,-137.684 2945.5,-137.684"/>
</g>
<!-- bare_name_15 -->
<g id="node39" class="node"><title>bare_name_15</title>
<path fill="white" stroke="black" d="M3065,-91.5C3065,-91.5 3227,-91.5 3227,-91.5 3233,-91.5 3239,-97.5 3239,-103.5 3239,-103.5 3239,-115.5 3239,-115.5 3239,-121.5 3233,-127.5 3227,-127.5 3227,-127.5 3065,-127.5 3065,-127.5 3059,-127.5 3053,-121.5 3053,-115.5 3053,-115.5 3053,-103.5 3053,-103.5 3053,-97.5 3059,-91.5 3065,-91.5"/>
<text text-anchor="middle" x="3146" y="-105.8" font-family="Times,serif" font-size="14.00">bare_name =&gt; string_char_set</text>
</g>
<!-- attribute_value -->
<g id="node40" class="node"><title>attribute_value</title>
<polygon fill="lightgrey" stroke="black" points="3196.5,-268.5 3095.5,-268.5 3095.5,-232.5 3196.5,-232.5 3196.5,-268.5"/>
<text text-anchor="middle" x="3146" y="-246.8" font-family="Times,serif" font-size="14.00">attribute_value</text>
</g>
<!-- attribute_value&#45;&gt;bare_name_15 -->
<g id="edge26" class="edge"><title>attribute_value&#45;&gt;bare_name_15</title>
<path fill="none" stroke="grey" d="M3146,-232.456C3146,-208.904 3146,-166.139 3146,-138.026"/>
<polygon fill="grey" stroke="grey" points="3149.5,-137.684 3146,-127.684 3142.5,-137.684 3149.5,-137.684"/>
</g>
<!-- bare_name_21 -->
<g id="node41" class="node"><title>bare_name_21</title>
<path fill="white" stroke="black" d="M3269,-91.5C3269,-91.5 3431,-91.5 3431,-91.5 3437,-91.5 3443,-97.5 3443,-103.5 3443,-103.5 3443,-115.5 3443,-115.5 3443,-121.5 3437,-127.5 3431,-127.5 3431,-127.5 3269,-127.5 3269,-127.5 3263,-127.5 3257,-121.5 3257,-115.5 3257,-115.5 3257,-103.5 3257,-103.5 3257,-97.5 3263,-91.5 3269,-91.5"/>
<text text-anchor="middle" x="3350" y="-105.8" font-family="Times,serif" font-size="14.00">bare_name =&gt; string_char_set</text>
</g>
<!-- node_name -->
<g id="node42" class="node"><title>node_name</title>
<polygon fill="lightgrey" stroke="black" points="3390.5,-268.5 3309.5,-268.5 3309.5,-232.5 3390.5,-232.5 3390.5,-268.5"/>
<text text-anchor="middle" x="3350" y="-246.8" font-family="Times,serif" font-size="14.00">node_name</text>
</g>
<!-- node_name&#45;&gt;bare_name_21 -->
<g id="edge27" class="edge"><title>node_name&#45;&gt;bare_name_21</title>
<path fill="none" stroke="grey" d="M3350,-232.456C3350,-208.904 3350,-166.139 3350,-138.026"/>
<polygon fill="grey" stroke="grey" points="3353.5,-137.684 3350,-127.684 3346.5,-137.684 3353.5,-137.684"/>
</g>
<!-- bare_name_24 -->
<g id="node43" class="node"><title>bare_name_24</title>
<path fill="white" stroke="black" d="M3473,-91.5C3473,-91.5 3623,-91.5 3623,-91.5 3629,-91.5 3635,-97.5 3635,-103.5 3635,-103.5 3635,-115.5 3635,-115.5 3635,-121.5 3629,-127.5 3623,-127.5 3623,-127.5 3473,-127.5 3473,-127.5 3467,-127.5 3461,-121.5 3461,-115.5 3461,-115.5 3461,-103.5 3461,-103.5 3461,-97.5 3467,-91.5 3473,-91.5"/>
<text text-anchor="middle" x="3548" y="-105.8" font-family="Times,serif" font-size="14.00">bare_name =&gt; escaped_char</text>
</g>
<!-- string_char_set -->
<g id="node44" class="node"><title>string_char_set</title>
<polygon fill="lightgrey" stroke="black" points="3599.5,-268.5 3496.5,-268.5 3496.5,-232.5 3599.5,-232.5 3599.5,-268.5"/>
<text text-anchor="middle" x="3548" y="-246.8" font-family="Times,serif" font-size="14.00">string_char_set</text>
</g>
<!-- string_char_set&#45;&gt;bare_name_24 -->
<g id="edge28" class="edge"><title>string_char_set&#45;&gt;bare_name_24</title>
<path fill="none" stroke="grey" d="M3548,-232.456C3548,-208.904 3548,-166.139 3548,-138.026"/>
<polygon fill="grey" stroke="grey" points="3551.5,-137.684 3548,-127.684 3544.5,-137.684 3551.5,-137.684"/>
</g>
<!-- Legend -->
<g id="node45" class="node"><title>Legend</title>
<polygon fill="lightgrey" stroke="none" points="3922.5,-196 3653.5,-196 3653.5,-23 3922.5,-23 3922.5,-196"/>
<polygon fill="white" stroke="none" points="3661.5,-27 3661.5,-192 3914.5,-192 3914.5,-27 3661.5,-27"/>
<polygon fill="pink" stroke="none" points="3665,-167.5 3665,-188.5 3912,-188.5 3912,-167.5 3665,-167.5"/>
<polygon fill="none" stroke="black" points="3665,-167.5 3665,-188.5 3912,-188.5 3912,-167.5 3665,-167.5"/>
<text text-anchor="start" x="3707.5" y="-174.3" font-family="Times,serif" font-size="14.00">Pink nodes are &#39;:default&#39; rules</text>
<polygon fill="magenta" stroke="none" points="3665,-144.5 3665,-165.5 3912,-165.5 3912,-144.5 3665,-144.5"/>
<polygon fill="none" stroke="black" points="3665,-144.5 3665,-165.5 3912,-165.5 3912,-144.5 3665,-144.5"/>
<text text-anchor="start" x="3695.5" y="-151.3" font-family="Times,serif" font-size="14.00">Magenta nodes are &#39;:discard&#39; rules</text>
<polygon fill="orchid" stroke="none" points="3665,-121.5 3665,-142.5 3912,-142.5 3912,-121.5 3665,-121.5"/>
<polygon fill="none" stroke="black" points="3665,-121.5 3665,-142.5 3912,-142.5 3912,-121.5 3665,-121.5"/>
<text text-anchor="start" x="3668.5" y="-128.3" font-family="Times,serif" font-size="14.00">The orchid node is the &#39;discard default&#39; rule</text>
<polygon fill="#ff3030" stroke="none" points="3665,-98.5 3665,-119.5 3912,-119.5 3912,-98.5 3665,-98.5"/>
<polygon fill="none" stroke="black" points="3665,-98.5 3665,-119.5 3912,-119.5 3912,-98.5 3665,-98.5"/>
<text text-anchor="start" x="3719.5" y="-105.3" font-family="Times,serif" font-size="14.00">Red nodes are the events</text>
<polygon fill="goldenrod" stroke="none" points="3665,-75.5 3665,-96.5 3912,-96.5 3912,-75.5 3665,-75.5"/>
<polygon fill="none" stroke="black" points="3665,-75.5 3665,-96.5 3912,-96.5 3912,-75.5 3665,-75.5"/>
<text text-anchor="start" x="3668" y="-82.3" font-family="Times,serif" font-size="14.00">The golden node is the &#39;lexeme default&#39; rule</text>
<polygon fill="lightblue" stroke="none" points="3665,-52.5 3665,-73.5 3912,-73.5 3912,-52.5 3665,-52.5"/>
<polygon fill="none" stroke="black" points="3665,-52.5 3665,-73.5 3912,-73.5 3912,-52.5 3665,-52.5"/>
<text text-anchor="start" x="3693" y="-59.3" font-family="Times,serif" font-size="14.00">Lightblue nodes are &#39;:lexeme&#39; rules</text>
<polygon fill="lightgreen" stroke="none" points="3665,-29.5 3665,-50.5 3912,-50.5 3912,-29.5 3665,-29.5"/>
<polygon fill="none" stroke="black" points="3665,-29.5 3665,-50.5 3912,-50.5 3912,-29.5 3665,-29.5"/>
<text text-anchor="start" x="3697.5" y="-36.3" font-family="Times,serif" font-size="14.00">The green node is the &#39;:start&#39; rule</text>
<polygon fill="none" stroke="black" points="3661.5,-27 3661.5,-192 3914.5,-192 3914.5,-27 3661.5,-27"/>
</g>
</g>
</svg>
