<?xml version="1.0" encoding="UTF-8" standalone="no"?>
<!DOCTYPE svg PUBLIC "-//W3C//DTD SVG 1.1//EN"
 "http://www.w3.org/Graphics/SVG/1.1/DTD/svg11.dtd">
<!-- Generated by graphviz version 2.30.1 (20130611.0131)
 -->
<!-- Title: Perl Pages: 1 -->
<svg width="857pt" height="309pt"
 viewBox="0.00 0.00 857.00 309.00" xmlns="http://www.w3.org/2000/svg" xmlns:xlink="http://www.w3.org/1999/xlink">
<g id="graph0" class="graph" transform="scale(1 1) rotate(0) translate(4 305)">
<title>Perl</title>
<polygon fill="white" stroke="white" points="-4,5 -4,-305 854,-305 854,5 -4,5"/>
<text text-anchor="middle" x="424.5" y="-7.8" font-family="Times,serif" font-size="14.00">stringparser.bnf</text>
<!-- graph_grammar -->
<g id="node1" class="node"><title>graph_grammar</title>
<path fill="lightgreen" stroke="black" d="M133,-254C133,-254 213,-254 213,-254 219,-254 225,-260 225,-266 225,-266 225,-288 225,-288 225,-294 219,-300 213,-300 213,-300 133,-300 133,-300 127,-300 121,-294 121,-288 121,-288 121,-266 121,-266 121,-260 127,-254 133,-254"/>
<text text-anchor="middle" x="173" y="-284.8" font-family="Times,serif" font-size="14.00">:start</text>
<polyline fill="none" stroke="black" points="121,-277 225,-277 "/>
<text text-anchor="middle" x="173" y="-261.8" font-family="Times,serif" font-size="14.00">graph_grammar</text>
</g>
<!-- :default -->
<g id="node2" class="node"><title>:default</title>
<polygon fill="lightblue" stroke="black" points="105.5,-217 48.5,-217 48.5,-181 105.5,-181 105.5,-217"/>
<text text-anchor="middle" x="77" y="-195.3" font-family="Times,serif" font-size="14.00">:default</text>
</g>
<!-- graph_grammar&#45;&gt;:default -->
<g id="edge1" class="edge"><title>graph_grammar&#45;&gt;:default</title>
<path fill="none" stroke="grey" d="M144.975,-253.813C132.924,-244.273 118.828,-233.114 106.607,-223.439"/>
<polygon fill="grey" stroke="grey" points="108.507,-220.479 98.4938,-217.016 104.162,-225.967 108.507,-220.479"/>
</g>
<!-- :discard -->
<g id="node4" class="node"><title>:discard</title>
<polygon fill="lightblue" stroke="black" points="202.25,-217 143.75,-217 143.75,-181 202.25,-181 202.25,-217"/>
<text text-anchor="middle" x="173" y="-195.3" font-family="Times,serif" font-size="14.00">:discard</text>
</g>
<!-- graph_grammar&#45;&gt;:discard -->
<g id="edge3" class="edge"><title>graph_grammar&#45;&gt;:discard</title>
<path fill="none" stroke="grey" d="M173,-253.609C173,-245.481 173,-236.2 173,-227.671"/>
<polygon fill="grey" stroke="grey" points="176.5,-227.412 173,-217.412 169.5,-227.412 176.5,-227.412"/>
</g>
<!-- :lexeme -->
<g id="node6" class="node"><title>:lexeme</title>
<polygon fill="lightblue" stroke="black" points="483.5,-217 424.5,-217 424.5,-181 483.5,-181 483.5,-217"/>
<text text-anchor="middle" x="454" y="-195.3" font-family="Times,serif" font-size="14.00">:lexeme</text>
</g>
<!-- graph_grammar&#45;&gt;:lexeme -->
<g id="edge5" class="edge"><title>graph_grammar&#45;&gt;:lexeme</title>
<path fill="none" stroke="grey" d="M225.195,-261.883C279.987,-247.064 364.91,-224.095 414.423,-210.704"/>
<polygon fill="grey" stroke="grey" points="415.391,-214.068 424.131,-208.079 413.564,-207.311 415.391,-214.068"/>
</g>
<!-- :default_1 -->
<g id="node3" class="node"><title>:default_1</title>
<path fill="lightblue" stroke="black" d="M11.5,-108C11.5,-108 104.5,-108 104.5,-108 110.5,-108 116.5,-114 116.5,-120 116.5,-120 116.5,-132 116.5,-132 116.5,-138 110.5,-144 104.5,-144 104.5,-144 11.5,-144 11.5,-144 5.5,-144 -0.5,-138 -0.5,-132 -0.5,-132 -0.5,-120 -0.5,-120 -0.5,-114 5.5,-108 11.5,-108"/>
<text text-anchor="middle" x="58" y="-122.3" font-family="Times,serif" font-size="14.00">action =&gt; [values]</text>
</g>
<!-- :default&#45;&gt;:default_1 -->
<g id="edge2" class="edge"><title>:default&#45;&gt;:default_1</title>
<path fill="none" stroke="grey" d="M72.4006,-180.813C70.2302,-172.702 67.5898,-162.836 65.1656,-153.777"/>
<polygon fill="grey" stroke="grey" points="68.5232,-152.784 62.557,-144.029 61.7611,-154.594 68.5232,-152.784"/>
</g>
<!-- whitespace -->
<g id="node5" class="node"><title>whitespace</title>
<polygon fill="lightblue" stroke="black" points="211.25,-144 134.75,-144 134.75,-108 211.25,-108 211.25,-144"/>
<text text-anchor="middle" x="173" y="-122.3" font-family="Times,serif" font-size="14.00">whitespace</text>
</g>
<!-- :discard&#45;&gt;whitespace -->
<g id="edge4" class="edge"><title>:discard&#45;&gt;whitespace</title>
<path fill="none" stroke="grey" d="M173,-180.813C173,-172.789 173,-163.047 173,-154.069"/>
<polygon fill="grey" stroke="grey" points="176.5,-154.029 173,-144.029 169.5,-154.029 176.5,-154.029"/>
</g>
<!-- start_node -->
<g id="node7" class="node"><title>start_node</title>
<polygon fill="lightblue" stroke="black" points="302.25,-144 229.75,-144 229.75,-108 302.25,-108 302.25,-144"/>
<text text-anchor="middle" x="266" y="-122.3" font-family="Times,serif" font-size="14.00">start_node</text>
</g>
<!-- :lexeme&#45;&gt;start_node -->
<g id="edge6" class="edge"><title>:lexeme&#45;&gt;start_node</title>
<path fill="none" stroke="grey" d="M424.304,-187.071C395.54,-176.449 350.713,-159.798 312,-145 311.905,-144.964 311.81,-144.927 311.714,-144.891"/>
<polygon fill="grey" stroke="grey" points="313.228,-141.723 302.638,-141.397 310.713,-148.256 313.228,-141.723"/>
</g>
<!-- end_node -->
<g id="node9" class="node"><title>end_node</title>
<polygon fill="lightblue" stroke="black" points="389.25,-144 320.75,-144 320.75,-108 389.25,-108 389.25,-144"/>
<text text-anchor="middle" x="355" y="-122.3" font-family="Times,serif" font-size="14.00">end_node</text>
</g>
<!-- :lexeme&#45;&gt;end_node -->
<g id="edge8" class="edge"><title>:lexeme&#45;&gt;end_node</title>
<path fill="none" stroke="grey" d="M430.287,-180.994C417.402,-171.753 401.282,-160.192 387.268,-150.142"/>
<polygon fill="grey" stroke="grey" points="389.029,-147.097 378.863,-144.114 384.949,-152.786 389.029,-147.097"/>
</g>
<!-- directed_edge -->
<g id="node10" class="node"><title>directed_edge</title>
<polygon fill="lightblue" stroke="black" points="500,-144 408,-144 408,-108 500,-108 500,-144"/>
<text text-anchor="middle" x="454" y="-122.3" font-family="Times,serif" font-size="14.00">directed_edge</text>
</g>
<!-- :lexeme&#45;&gt;directed_edge -->
<g id="edge9" class="edge"><title>:lexeme&#45;&gt;directed_edge</title>
<path fill="none" stroke="grey" d="M454,-180.813C454,-172.789 454,-163.047 454,-154.069"/>
<polygon fill="grey" stroke="grey" points="457.5,-154.029 454,-144.029 450.5,-154.029 457.5,-154.029"/>
</g>
<!-- undirected_edge -->
<g id="node12" class="node"><title>undirected_edge</title>
<polygon fill="lightblue" stroke="black" points="623.5,-144 518.5,-144 518.5,-108 623.5,-108 623.5,-144"/>
<text text-anchor="middle" x="571" y="-122.3" font-family="Times,serif" font-size="14.00">undirected_edge</text>
</g>
<!-- :lexeme&#45;&gt;undirected_edge -->
<g id="edge11" class="edge"><title>:lexeme&#45;&gt;undirected_edge</title>
<path fill="none" stroke="grey" d="M482.024,-180.994C497.54,-171.579 517.023,-159.755 533.799,-149.575"/>
<polygon fill="grey" stroke="grey" points="536.065,-152.294 542.799,-144.114 532.434,-146.309 536.065,-152.294"/>
</g>
<!-- start_attributes -->
<g id="node14" class="node"><title>start_attributes</title>
<polygon fill="lightblue" stroke="black" points="738.25,-144 641.75,-144 641.75,-108 738.25,-108 738.25,-144"/>
<text text-anchor="middle" x="690" y="-122.3" font-family="Times,serif" font-size="14.00">start_attributes</text>
</g>
<!-- :lexeme&#45;&gt;start_attributes -->
<g id="edge13" class="edge"><title>:lexeme&#45;&gt;start_attributes</title>
<path fill="none" stroke="grey" d="M483.637,-189.289C518.991,-178.872 579.865,-160.851 632,-145 632.098,-144.97 632.196,-144.941 632.293,-144.911"/>
<polygon fill="grey" stroke="grey" points="633.052,-148.339 641.592,-142.069 631.006,-141.645 633.052,-148.339"/>
</g>
<!-- end_attributes -->
<g id="node16" class="node"><title>end_attributes</title>
<polygon fill="lightblue" stroke="black" points="849.25,-144 756.75,-144 756.75,-108 849.25,-108 849.25,-144"/>
<text text-anchor="middle" x="803" y="-122.3" font-family="Times,serif" font-size="14.00">end_attributes</text>
</g>
<!-- :lexeme&#45;&gt;end_attributes -->
<g id="edge15" class="edge"><title>:lexeme&#45;&gt;end_attributes</title>
<path fill="none" stroke="grey" d="M483.803,-193.938C537.078,-186.384 651.965,-168.758 747,-145 747.099,-144.975 747.198,-144.95 747.297,-144.925"/>
<polygon fill="grey" stroke="grey" points="747.937,-148.378 756.688,-142.406 746.123,-141.617 747.937,-148.378"/>
</g>
<!-- :lexeme_1 -->
<g id="node8" class="node"><title>:lexeme_1</title>
<path fill="lightblue" stroke="black" d="M205,-24C205,-24 307,-24 307,-24 313,-24 319,-30 319,-36 319,-36 319,-58 319,-58 319,-64 313,-70 307,-70 307,-70 205,-70 205,-70 199,-70 193,-64 193,-58 193,-58 193,-36 193,-36 193,-30 199,-24 205,-24"/>
<text text-anchor="middle" x="256" y="-54.8" font-family="Times,serif" font-size="14.00">pause =&gt; before</text>
<polyline fill="none" stroke="black" points="193,-47 319,-47 "/>
<text text-anchor="middle" x="256" y="-31.8" font-family="Times,serif" font-size="14.00">event =&gt; start_node</text>
</g>
<!-- start_node&#45;&gt;:lexeme_1 -->
<g id="edge7" class="edge"><title>start_node&#45;&gt;:lexeme_1</title>
<path fill="none" stroke="grey" d="M263.781,-107.911C262.716,-99.7118 261.404,-89.6125 260.163,-80.0581"/>
<polygon fill="grey" stroke="grey" points="263.619,-79.4859 258.86,-70.02 256.677,-80.3875 263.619,-79.4859"/>
</g>
<!-- :lexeme_3 -->
<g id="node11" class="node"><title>:lexeme_3</title>
<path fill="lightblue" stroke="black" d="M349,-24C349,-24 471,-24 471,-24 477,-24 483,-30 483,-36 483,-36 483,-58 483,-58 483,-64 477,-70 471,-70 471,-70 349,-70 349,-70 343,-70 337,-64 337,-58 337,-58 337,-36 337,-36 337,-30 343,-24 349,-24"/>
<text text-anchor="middle" x="410" y="-54.8" font-family="Times,serif" font-size="14.00">pause =&gt; before</text>
<polyline fill="none" stroke="black" points="337,-47 483,-47 "/>
<text text-anchor="middle" x="410" y="-31.8" font-family="Times,serif" font-size="14.00">event =&gt; directed_edge</text>
</g>
<!-- directed_edge&#45;&gt;:lexeme_3 -->
<g id="edge10" class="edge"><title>directed_edge&#45;&gt;:lexeme_3</title>
<path fill="none" stroke="grey" d="M444.235,-107.911C439.35,-99.3629 433.285,-88.7496 427.624,-78.8415"/>
<polygon fill="grey" stroke="grey" points="430.583,-76.966 422.583,-70.02 424.505,-80.439 430.583,-76.966"/>
</g>
<!-- :lexeme_4 -->
<g id="node13" class="node"><title>:lexeme_4</title>
<path fill="lightblue" stroke="black" d="M513.5,-24C513.5,-24 648.5,-24 648.5,-24 654.5,-24 660.5,-30 660.5,-36 660.5,-36 660.5,-58 660.5,-58 660.5,-64 654.5,-70 648.5,-70 648.5,-70 513.5,-70 513.5,-70 507.5,-70 501.5,-64 501.5,-58 501.5,-58 501.5,-36 501.5,-36 501.5,-30 507.5,-24 513.5,-24"/>
<text text-anchor="middle" x="581" y="-54.8" font-family="Times,serif" font-size="14.00">pause =&gt; before</text>
<polyline fill="none" stroke="black" points="501.5,-47 660.5,-47 "/>
<text text-anchor="middle" x="581" y="-31.8" font-family="Times,serif" font-size="14.00">event =&gt; undirected_edge</text>
</g>
<!-- undirected_edge&#45;&gt;:lexeme_4 -->
<g id="edge12" class="edge"><title>undirected_edge&#45;&gt;:lexeme_4</title>
<path fill="none" stroke="grey" d="M573.219,-107.911C574.284,-99.7118 575.596,-89.6125 576.837,-80.0581"/>
<polygon fill="grey" stroke="grey" points="580.323,-80.3875 578.14,-70.02 573.381,-79.4859 580.323,-80.3875"/>
</g>
<!-- :lexeme_5 -->
<g id="node15" class="node"><title>:lexeme_5</title>
<path fill="lightblue" stroke="black" d="M690,-24C690,-24 816,-24 816,-24 822,-24 828,-30 828,-36 828,-36 828,-58 828,-58 828,-64 822,-70 816,-70 816,-70 690,-70 690,-70 684,-70 678,-64 678,-58 678,-58 678,-36 678,-36 678,-30 684,-24 690,-24"/>
<text text-anchor="middle" x="753" y="-54.8" font-family="Times,serif" font-size="14.00">pause =&gt; before</text>
<polyline fill="none" stroke="black" points="678,-47 828,-47 "/>
<text text-anchor="middle" x="753" y="-31.8" font-family="Times,serif" font-size="14.00">event =&gt; start_attributes</text>
</g>
<!-- start_attributes&#45;&gt;:lexeme_5 -->
<g id="edge14" class="edge"><title>start_attributes&#45;&gt;:lexeme_5</title>
<path fill="none" stroke="grey" d="M703.982,-107.911C711.19,-99.1012 720.193,-88.0979 728.509,-77.9337"/>
<polygon fill="grey" stroke="grey" points="731.36,-79.976 734.984,-70.02 725.942,-75.5433 731.36,-79.976"/>
</g>
</g>
</svg>
