<?xml version="1.0" encoding="UTF-8" standalone="no"?>
<!DOCTYPE svg PUBLIC "-//W3C//DTD SVG 1.1//EN"
 "http://www.w3.org/Graphics/SVG/1.1/DTD/svg11.dtd">
<!-- Generated by graphviz version 2.30.1 (20130611.0131)
 -->
<!-- Title: Perl Pages: 1 -->
<svg width="966pt" height="608pt"
 viewBox="0.00 0.00 966.00 608.00" xmlns="http://www.w3.org/2000/svg" xmlns:xlink="http://www.w3.org/1999/xlink">
<g id="graph0" class="graph" transform="scale(1 1) rotate(0) translate(4 604)">
<title>Perl</title>
<polygon fill="white" stroke="white" points="-4,5 -4,-604 963,-604 963,5 -4,5"/>
<!-- graph_grammar -->
<g id="node1" class="node"><title>graph_grammar</title>
<polygon fill="lightgreen" stroke="black" points="702,-600 598,-600 598,-564 702,-564 702,-600"/>
<text text-anchor="middle" x="650" y="-578.3" font-family="Times,serif" font-size="14.00">graph_grammar</text>
</g>
<!-- graph_definition -->
<g id="node2" class="node"><title>graph_definition</title>
<polygon fill="none" stroke="black" points="482.25,-511 375.75,-511 375.75,-475 482.25,-475 482.25,-511"/>
<text text-anchor="middle" x="429" y="-489.3" font-family="Times,serif" font-size="14.00">graph_definition</text>
</g>
<!-- graph_grammar&#45;&gt;graph_definition -->
<g id="edge1" class="edge"><title>graph_grammar&#45;&gt;graph_definition</title>
<path fill="none" stroke="grey" d="M606.601,-563.915C570.793,-549.819 519.854,-529.766 481.706,-514.748"/>
<polygon fill="grey" stroke="grey" points="482.887,-511.452 472.3,-511.046 480.322,-517.965 482.887,-511.452"/>
</g>
<!-- :default -->
<g id="node29" class="node"><title>:default</title>
<polygon fill="lightblue" stroke="black" points="640.5,-511 583.5,-511 583.5,-475 640.5,-475 640.5,-511"/>
<text text-anchor="middle" x="612" y="-489.3" font-family="Times,serif" font-size="14.00">:default</text>
</g>
<!-- graph_grammar&#45;&gt;:default -->
<g id="edge36" class="edge"><title>graph_grammar&#45;&gt;:default</title>
<path fill="none" stroke="grey" d="M642.492,-563.812C637.08,-551.419 629.674,-534.463 623.516,-520.365"/>
<polygon fill="grey" stroke="grey" points="626.702,-518.916 619.492,-511.153 620.287,-521.718 626.702,-518.916"/>
</g>
<!-- :discard -->
<g id="node31" class="node"><title>:discard</title>
<polygon fill="lightblue" stroke="black" points="718.25,-511 659.75,-511 659.75,-475 718.25,-475 718.25,-511"/>
<text text-anchor="middle" x="689" y="-489.3" font-family="Times,serif" font-size="14.00">:discard</text>
</g>
<!-- graph_grammar&#45;&gt;:discard -->
<g id="edge38" class="edge"><title>graph_grammar&#45;&gt;:discard</title>
<path fill="none" stroke="grey" d="M657.705,-563.812C663.26,-551.419 670.861,-534.463 677.181,-520.365"/>
<polygon fill="grey" stroke="grey" points="680.414,-521.71 681.311,-511.153 674.026,-518.846 680.414,-521.71"/>
</g>
<!-- event subtext = completed subtext/event &#39;A[]&#39; = nulled A/event &#39;^a&#39; = predicted A -->
<g id="node34" class="node"><title>event subtext = completed subtext/event &#39;A[]&#39; = nulled A/event &#39;^a&#39; = predicted A</title>
<polygon fill="lightblue" stroke="black" points="737,-458.5 737,-527.5 941,-527.5 941,-458.5 737,-458.5"/>
<text text-anchor="middle" x="839" y="-512.3" font-family="Times,serif" font-size="14.00">event subtext = completed subtext</text>
<polyline fill="none" stroke="black" points="737,-504.5 941,-504.5 "/>
<text text-anchor="middle" x="839" y="-489.3" font-family="Times,serif" font-size="14.00">event &#39;A[]&#39; = nulled A</text>
<polyline fill="none" stroke="black" points="737,-481.5 941,-481.5 "/>
<text text-anchor="middle" x="839" y="-466.3" font-family="Times,serif" font-size="14.00">event &#39;^a&#39; = predicted A</text>
</g>
<!-- graph_grammar&#45;&gt;event subtext = completed subtext/event &#39;A[]&#39; = nulled A/event &#39;^a&#39; = predicted A -->
<g id="edge41" class="edge"><title>graph_grammar&#45;&gt;event subtext = completed subtext/event &#39;A[]&#39; = nulled A/event &#39;^a&#39; = predicted A</title>
<path fill="none" stroke="grey" d="M687.34,-563.812C707.277,-554.634 732.651,-542.954 756.914,-531.786"/>
<polygon fill="grey" stroke="grey" points="758.525,-534.897 766.145,-527.536 755.598,-528.538 758.525,-534.897"/>
</g>
<!-- graph -->
<g id="node3" class="node"><title>graph</title>
<polygon fill="lightblue" stroke="black" points="204,-385 204,-421 300,-421 300,-385 204,-385"/>
<text text-anchor="middle" x="252" y="-399.3" font-family="Times,serif" font-size="14.00">action = graph</text>
</g>
<!-- graph_definition&#45;&gt;graph -->
<g id="edge2" class="edge"><title>graph_definition&#45;&gt;graph</title>
<path fill="none" stroke="grey" d="M394.452,-474.824C366.188,-460.772 326.052,-440.817 295.582,-425.668"/>
<polygon fill="grey" stroke="grey" points="296.973,-422.451 286.46,-421.133 293.857,-428.719 296.973,-422.451"/>
</g>
<!-- node_definition -->
<g id="node4" class="node"><title>node_definition</title>
<polygon fill="none" stroke="black" points="419.5,-421 318.5,-421 318.5,-385 419.5,-385 419.5,-421"/>
<text text-anchor="middle" x="369" y="-399.3" font-family="Times,serif" font-size="14.00">node_definition</text>
</g>
<!-- graph_definition&#45;&gt;node_definition -->
<g id="edge3" class="edge"><title>graph_definition&#45;&gt;node_definition</title>
<path fill="none" stroke="grey" d="M411.642,-474.614C401.584,-461.876 389.411,-444.372 380.493,-429.979"/>
<polygon fill="grey" stroke="grey" points="383.292,-427.839 375.158,-421.05 377.283,-431.43 383.292,-427.839"/>
</g>
<!-- edge_definition -->
<g id="node20" class="node"><title>edge_definition</title>
<polygon fill="none" stroke="black" points="539.25,-421 438.75,-421 438.75,-385 539.25,-385 539.25,-421"/>
<text text-anchor="middle" x="489" y="-399.3" font-family="Times,serif" font-size="14.00">edge_definition</text>
</g>
<!-- graph_definition&#45;&gt;edge_definition -->
<g id="edge22" class="edge"><title>graph_definition&#45;&gt;edge_definition</title>
<path fill="none" stroke="grey" d="M435.35,-474.614C442.801,-461.634 454.805,-443.704 465.679,-429.16"/>
<polygon fill="grey" stroke="grey" points="468.592,-431.113 471.908,-421.05 463.04,-426.849 468.592,-431.113"/>
</g>
<!-- node_statement -->
<g id="node5" class="node"><title>node_statement</title>
<polygon fill="none" stroke="black" points="419.5,-348 318.5,-348 318.5,-312 419.5,-312 419.5,-348"/>
<text text-anchor="middle" x="369" y="-326.3" font-family="Times,serif" font-size="14.00">node_statement</text>
</g>
<!-- node_definition&#45;&gt;node_statement -->
<g id="edge4" class="edge"><title>node_definition&#45;&gt;node_statement</title>
<path fill="none" stroke="grey" d="M363.122,-384.813C362.282,-376.789 362.049,-367.047 362.422,-358.069"/>
<polygon fill="grey" stroke="grey" points="365.918,-358.253 363.138,-348.029 358.936,-357.754 365.918,-358.253"/>
</g>
<!-- node_definition&#45;&gt;node_statement -->
<g id="edge20" class="edge"><title>node_definition&#45;&gt;node_statement</title>
<path fill="none" stroke="grey" d="M374.878,-384.813C375.718,-376.789 375.951,-367.047 375.578,-358.069"/>
<polygon fill="grey" stroke="grey" points="379.064,-357.754 374.862,-348.029 372.082,-358.253 379.064,-357.754"/>
</g>
<!-- node_definition&#45;&gt;graph_definition -->
<g id="edge21" class="edge"><title>node_definition&#45;&gt;graph_definition</title>
<path fill="none" stroke="grey" d="M386.092,-421.05C396.113,-433.703 408.295,-451.192 417.27,-465.64"/>
<polygon fill="grey" stroke="grey" points="414.506,-467.837 422.65,-474.614 420.51,-464.238 414.506,-467.837"/>
</g>
<!-- node_name -->
<g id="node6" class="node"><title>node_name</title>
<polygon fill="none" stroke="black" points="293,-276 213,-276 213,-240 293,-240 293,-276"/>
<text text-anchor="middle" x="253" y="-254.3" font-family="Times,serif" font-size="14.00">node_name</text>
</g>
<!-- node_statement&#45;&gt;node_name -->
<g id="edge5" class="edge"><title>node_statement&#45;&gt;node_name</title>
<path fill="none" stroke="grey" d="M334.726,-311.876C318.751,-302.808 299.941,-291.552 284.346,-281.759"/>
<polygon fill="grey" stroke="grey" points="285.899,-278.599 275.582,-276.19 282.145,-284.507 285.899,-278.599"/>
</g>
<!-- node_statement&#45;&gt;node_name -->
<g id="edge11" class="edge"><title>node_statement&#45;&gt;node_name</title>
<path fill="none" stroke="grey" d="M346.52,-311.876C332.179,-302.639 313.254,-291.131 296.14,-281.212"/>
<polygon fill="grey" stroke="grey" points="297.805,-278.132 287.39,-276.19 294.321,-284.203 297.805,-278.132"/>
</g>
<!-- attribute_definition -->
<g id="node12" class="node"><title>attribute_definition</title>
<polygon fill="none" stroke="black" points="433.25,-276 312.75,-276 312.75,-240 433.25,-240 433.25,-276"/>
<text text-anchor="middle" x="373" y="-254.3" font-family="Times,serif" font-size="14.00">attribute_definition</text>
</g>
<!-- node_statement&#45;&gt;attribute_definition -->
<g id="edge12" class="edge"><title>node_statement&#45;&gt;attribute_definition</title>
<path fill="none" stroke="grey" d="M369.989,-311.697C370.43,-303.983 370.959,-294.712 371.451,-286.112"/>
<polygon fill="grey" stroke="grey" points="374.946,-286.288 372.023,-276.104 367.958,-285.888 374.946,-286.288"/>
</g>
<!-- (&#39;,&#39;) -->
<g id="node19" class="node"><title>(&#39;,&#39;)</title>
<polygon fill="none" stroke="black" points="512,-276 458,-276 458,-240 512,-240 512,-276"/>
<text text-anchor="middle" x="485" y="-254.3" font-family="Times,serif" font-size="14.00">(&#39;,&#39;)</text>
</g>
<!-- node_statement&#45;&gt;(&#39;,&#39;) -->
<g id="edge19" class="edge"><title>node_statement&#45;&gt;(&#39;,&#39;)</title>
<path fill="none" stroke="grey" d="M397.377,-311.876C412.883,-302.519 432.252,-290.831 448.832,-280.825"/>
<polygon fill="grey" stroke="grey" points="450.961,-283.628 457.715,-275.465 447.345,-277.635 450.961,-283.628"/>
</g>
<!-- start_node -->
<g id="node7" class="node"><title>start_node</title>
<polygon fill="none" stroke="black" points="199.25,-204 126.75,-204 126.75,-168 199.25,-168 199.25,-204"/>
<text text-anchor="middle" x="163" y="-182.3" font-family="Times,serif" font-size="14.00">start_node</text>
</g>
<!-- node_name&#45;&gt;start_node -->
<g id="edge6" class="edge"><title>node_name&#45;&gt;start_node</title>
<path fill="none" stroke="grey" d="M230.753,-239.697C219.418,-230.881 205.47,-220.032 193.181,-210.474"/>
<polygon fill="grey" stroke="grey" points="195.034,-207.481 184.991,-204.104 190.736,-213.007 195.034,-207.481"/>
</g>
<!-- end_node -->
<g id="node10" class="node"><title>end_node</title>
<polygon fill="none" stroke="black" points="287.25,-204 218.75,-204 218.75,-168 287.25,-168 287.25,-204"/>
<text text-anchor="middle" x="253" y="-182.3" font-family="Times,serif" font-size="14.00">end_node</text>
</g>
<!-- node_name&#45;&gt;end_node -->
<g id="edge9" class="edge"><title>node_name&#45;&gt;end_node</title>
<path fill="none" stroke="grey" d="M253,-239.697C253,-231.983 253,-222.712 253,-214.112"/>
<polygon fill="grey" stroke="grey" points="256.5,-214.104 253,-204.104 249.5,-214.104 256.5,-214.104"/>
</g>
<!-- before/start_node -->
<g id="node8" class="node"><title>before/start_node</title>
<polygon fill="lightblue" stroke="black" points="0,-85 0,-131 118,-131 118,-85 0,-85"/>
<text text-anchor="middle" x="59" y="-115.8" font-family="Times,serif" font-size="14.00">event = start_node</text>
<polyline fill="none" stroke="black" points="0,-108 118,-108 "/>
<text text-anchor="middle" x="59" y="-92.8" font-family="Times,serif" font-size="14.00">pause = before</text>
</g>
<!-- start_node&#45;&gt;before/start_node -->
<g id="edge7" class="edge"><title>start_node&#45;&gt;before/start_node</title>
<path fill="none" stroke="grey" d="M139.66,-167.944C127.245,-158.871 111.659,-147.482 97.5065,-137.139"/>
<polygon fill="grey" stroke="grey" points="99.5128,-134.271 89.3738,-131.196 95.3827,-139.922 99.5128,-134.271"/>
</g>
<!-- &#39;[&#39; -->
<g id="node9" class="node"><title>&#39;[&#39;</title>
<polygon fill="none" stroke="black" points="190,-126 136,-126 136,-90 190,-90 190,-126"/>
<text text-anchor="middle" x="163" y="-104.3" font-family="Times,serif" font-size="14.00">&#39;[&#39;</text>
</g>
<!-- start_node&#45;&gt;&#39;[&#39; -->
<g id="edge8" class="edge"><title>start_node&#45;&gt;&#39;[&#39;</title>
<path fill="none" stroke="grey" d="M163,-167.754C163,-158.523 163,-146.935 163,-136.495"/>
<polygon fill="grey" stroke="grey" points="166.5,-136.177 163,-126.177 159.5,-136.177 166.5,-136.177"/>
</g>
<!-- &#39;]&#39; -->
<g id="node11" class="node"><title>&#39;]&#39;</title>
<polygon fill="none" stroke="black" points="262,-126 208,-126 208,-90 262,-90 262,-126"/>
<text text-anchor="middle" x="235" y="-104.3" font-family="Times,serif" font-size="14.00">&#39;]&#39;</text>
</g>
<!-- end_node&#45;&gt;&#39;]&#39; -->
<g id="edge10" class="edge"><title>end_node&#45;&gt;&#39;]&#39;</title>
<path fill="none" stroke="grey" d="M248.916,-167.754C246.706,-158.426 243.927,-146.691 241.434,-136.165"/>
<polygon fill="grey" stroke="grey" points="244.779,-135.101 239.068,-126.177 237.967,-136.715 244.779,-135.101"/>
</g>
<!-- attribute_statement -->
<g id="node13" class="node"><title>attribute_statement</title>
<polygon fill="none" stroke="black" points="433.25,-204 312.75,-204 312.75,-168 433.25,-168 433.25,-204"/>
<text text-anchor="middle" x="373" y="-182.3" font-family="Times,serif" font-size="14.00">attribute_statement</text>
</g>
<!-- attribute_definition&#45;&gt;attribute_statement -->
<g id="edge13" class="edge"><title>attribute_definition&#45;&gt;attribute_statement</title>
<path fill="none" stroke="grey" d="M373,-239.697C373,-231.983 373,-222.712 373,-214.112"/>
<polygon fill="grey" stroke="grey" points="376.5,-214.104 373,-204.104 369.5,-214.104 376.5,-214.104"/>
</g>
<!-- start_attributes -->
<g id="node14" class="node"><title>start_attributes</title>
<polygon fill="none" stroke="black" points="377.25,-126 280.75,-126 280.75,-90 377.25,-90 377.25,-126"/>
<text text-anchor="middle" x="329" y="-104.3" font-family="Times,serif" font-size="14.00">start_attributes</text>
</g>
<!-- attribute_statement&#45;&gt;start_attributes -->
<g id="edge14" class="edge"><title>attribute_statement&#45;&gt;start_attributes</title>
<path fill="none" stroke="grey" d="M363.016,-167.754C357.39,-158.037 350.252,-145.708 343.969,-134.856"/>
<polygon fill="grey" stroke="grey" points="346.984,-133.078 338.945,-126.177 340.926,-136.585 346.984,-133.078"/>
</g>
<!-- end_attributes -->
<g id="node17" class="node"><title>end_attributes</title>
<polygon fill="none" stroke="black" points="488.25,-126 395.75,-126 395.75,-90 488.25,-90 488.25,-126"/>
<text text-anchor="middle" x="442" y="-104.3" font-family="Times,serif" font-size="14.00">end_attributes</text>
</g>
<!-- attribute_statement&#45;&gt;end_attributes -->
<g id="edge17" class="edge"><title>attribute_statement&#45;&gt;end_attributes</title>
<path fill="none" stroke="grey" d="M388.657,-167.754C397.744,-157.746 409.346,-144.966 419.408,-133.884"/>
<polygon fill="grey" stroke="grey" points="422.274,-135.934 426.405,-126.177 417.092,-131.228 422.274,-135.934"/>
</g>
<!-- before/start_attributes -->
<g id="node15" class="node"><title>before/start_attributes</title>
<polygon fill="lightblue" stroke="black" points="163,-1 163,-47 305,-47 305,-1 163,-1"/>
<text text-anchor="middle" x="234" y="-31.8" font-family="Times,serif" font-size="14.00">event = start_attributes</text>
<polyline fill="none" stroke="black" points="163,-24 305,-24 "/>
<text text-anchor="middle" x="234" y="-8.8" font-family="Times,serif" font-size="14.00">pause = before</text>
</g>
<!-- start_attributes&#45;&gt;before/start_attributes -->
<g id="edge15" class="edge"><title>start_attributes&#45;&gt;before/start_attributes</title>
<path fill="none" stroke="grey" d="M308.853,-89.6099C296.833,-79.2349 281.268,-65.8 267.448,-53.8707"/>
<polygon fill="grey" stroke="grey" points="269.409,-50.94 259.552,-47.0554 264.835,-56.2391 269.409,-50.94"/>
</g>
<!-- &#39;{&#39; -->
<g id="node16" class="node"><title>&#39;{&#39;</title>
<polygon fill="none" stroke="black" points="377,-42 323,-42 323,-6 377,-6 377,-42"/>
<text text-anchor="middle" x="350" y="-20.3" font-family="Times,serif" font-size="14.00">&#39;{&#39;</text>
</g>
<!-- start_attributes&#45;&gt;&#39;{&#39; -->
<g id="edge16" class="edge"><title>start_attributes&#45;&gt;&#39;{&#39;</title>
<path fill="none" stroke="grey" d="M333.454,-89.6099C336.257,-78.6648 339.932,-64.3145 343.106,-51.9188"/>
<polygon fill="grey" stroke="grey" points="346.534,-52.6396 345.625,-42.0838 339.753,-50.9029 346.534,-52.6396"/>
</g>
<!-- &#39;}&#39; -->
<g id="node18" class="node"><title>&#39;}&#39;</title>
<polygon fill="none" stroke="black" points="469,-42 415,-42 415,-6 469,-6 469,-42"/>
<text text-anchor="middle" x="442" y="-20.3" font-family="Times,serif" font-size="14.00">&#39;}&#39;</text>
</g>
<!-- end_attributes&#45;&gt;&#39;}&#39; -->
<g id="edge18" class="edge"><title>end_attributes&#45;&gt;&#39;}&#39;</title>
<path fill="none" stroke="grey" d="M442,-89.6099C442,-78.7743 442,-64.6012 442,-52.2913"/>
<polygon fill="grey" stroke="grey" points="445.5,-52.0838 442,-42.0838 438.5,-52.0839 445.5,-52.0838"/>
</g>
<!-- edge_statement -->
<g id="node21" class="node"><title>edge_statement</title>
<polygon fill="none" stroke="black" points="539.25,-348 438.75,-348 438.75,-312 539.25,-312 539.25,-348"/>
<text text-anchor="middle" x="489" y="-326.3" font-family="Times,serif" font-size="14.00">edge_statement</text>
</g>
<!-- edge_definition&#45;&gt;edge_statement -->
<g id="edge23" class="edge"><title>edge_definition&#45;&gt;edge_statement</title>
<path fill="none" stroke="grey" d="M483.122,-384.813C482.282,-376.789 482.049,-367.047 482.422,-358.069"/>
<polygon fill="grey" stroke="grey" points="485.918,-358.253 483.138,-348.029 478.936,-357.754 485.918,-358.253"/>
</g>
<!-- edge_definition&#45;&gt;edge_statement -->
<g id="edge34" class="edge"><title>edge_definition&#45;&gt;edge_statement</title>
<path fill="none" stroke="grey" d="M494.878,-384.813C495.718,-376.789 495.951,-367.047 495.578,-358.069"/>
<polygon fill="grey" stroke="grey" points="499.064,-357.754 494.862,-348.029 492.082,-358.253 499.064,-357.754"/>
</g>
<!-- edge_definition&#45;&gt;graph_definition -->
<g id="edge35" class="edge"><title>edge_definition&#45;&gt;graph_definition</title>
<path fill="none" stroke="grey" d="M482.842,-421.05C475.47,-433.944 463.496,-451.86 452.603,-466.462"/>
<polygon fill="grey" stroke="grey" points="449.661,-464.547 446.358,-474.614 455.218,-468.805 449.661,-464.547"/>
</g>
<!-- edge_name -->
<g id="node22" class="node"><title>edge_name</title>
<polygon fill="none" stroke="black" points="612.25,-276 533.75,-276 533.75,-240 612.25,-240 612.25,-276"/>
<text text-anchor="middle" x="573" y="-254.3" font-family="Times,serif" font-size="14.00">edge_name</text>
</g>
<!-- edge_statement&#45;&gt;edge_name -->
<g id="edge24" class="edge"><title>edge_statement&#45;&gt;edge_name</title>
<path fill="none" stroke="grey" d="M503.848,-311.697C513.518,-302.881 526.37,-292.032 538.417,-282.474"/>
<polygon fill="grey" stroke="grey" points="540.85,-285.016 546.58,-276.104 536.543,-279.497 540.85,-285.016"/>
</g>
<!-- edge_statement&#45;&gt;edge_name -->
<g id="edge31" class="edge"><title>edge_statement&#45;&gt;edge_name</title>
<path fill="none" stroke="grey" d="M515.68,-311.697C526.947,-303.05 539.846,-292.449 550.614,-283.027"/>
<polygon fill="grey" stroke="grey" points="553.24,-285.374 558.37,-276.104 548.579,-280.152 553.24,-285.374"/>
</g>
<!-- edge_statement&#45;&gt;attribute_definition -->
<g id="edge32" class="edge"><title>edge_statement&#45;&gt;attribute_definition</title>
<path fill="none" stroke="grey" d="M460.623,-311.876C445.456,-302.724 426.595,-291.342 410.261,-281.485"/>
<polygon fill="grey" stroke="grey" points="411.856,-278.36 401.486,-276.19 408.239,-284.353 411.856,-278.36"/>
</g>
<!-- edge_statement&#45;&gt;(&#39;,&#39;) -->
<g id="edge33" class="edge"><title>edge_statement&#45;&gt;(&#39;,&#39;)</title>
<path fill="none" stroke="grey" d="M488.011,-311.697C487.57,-303.983 487.041,-294.712 486.549,-286.112"/>
<polygon fill="grey" stroke="grey" points="490.042,-285.888 485.977,-276.104 483.054,-286.288 490.042,-285.888"/>
</g>
<!-- directed_edge -->
<g id="node23" class="node"><title>directed_edge</title>
<polygon fill="none" stroke="black" points="621,-204 529,-204 529,-168 621,-168 621,-204"/>
<text text-anchor="middle" x="575" y="-182.3" font-family="Times,serif" font-size="14.00">directed_edge</text>
</g>
<!-- edge_name&#45;&gt;directed_edge -->
<g id="edge25" class="edge"><title>edge_name&#45;&gt;directed_edge</title>
<path fill="none" stroke="grey" d="M573.494,-239.697C573.715,-231.983 573.98,-222.712 574.225,-214.112"/>
<polygon fill="grey" stroke="grey" points="577.724,-214.2 574.511,-204.104 570.727,-214 577.724,-214.2"/>
</g>
<!-- undirected_edge -->
<g id="node26" class="node"><title>undirected_edge</title>
<polygon fill="none" stroke="black" points="862.5,-204 757.5,-204 757.5,-168 862.5,-168 862.5,-204"/>
<text text-anchor="middle" x="810" y="-182.3" font-family="Times,serif" font-size="14.00">undirected_edge</text>
</g>
<!-- edge_name&#45;&gt;undirected_edge -->
<g id="edge28" class="edge"><title>edge_name&#45;&gt;undirected_edge</title>
<path fill="none" stroke="grey" d="M612.402,-245.362C649.158,-234.506 704.599,-218.131 747.41,-205.487"/>
<polygon fill="grey" stroke="grey" points="748.57,-208.793 757.169,-202.604 746.587,-202.08 748.57,-208.793"/>
</g>
<!-- before/directed_edge -->
<g id="node24" class="node"><title>before/directed_edge</title>
<polygon fill="lightblue" stroke="black" points="506.5,-85 506.5,-131 643.5,-131 643.5,-85 506.5,-85"/>
<text text-anchor="middle" x="575" y="-115.8" font-family="Times,serif" font-size="14.00">event = directed_edge</text>
<polyline fill="none" stroke="black" points="506.5,-108 643.5,-108 "/>
<text text-anchor="middle" x="575" y="-92.8" font-family="Times,serif" font-size="14.00">pause = before</text>
</g>
<!-- directed_edge&#45;&gt;before/directed_edge -->
<g id="edge26" class="edge"><title>directed_edge&#45;&gt;before/directed_edge</title>
<path fill="none" stroke="grey" d="M575,-167.754C575,-159.863 575,-150.249 575,-141.102"/>
<polygon fill="grey" stroke="grey" points="578.5,-141.091 575,-131.091 571.5,-141.091 578.5,-141.091"/>
</g>
<!-- &#39;&#45;&gt;&#39; -->
<g id="node25" class="node"><title>&#39;&#45;&gt;&#39;</title>
<polygon fill="none" stroke="black" points="716,-126 662,-126 662,-90 716,-90 716,-126"/>
<text text-anchor="middle" x="689" y="-104.3" font-family="Times,serif" font-size="14.00">&#39;&#45;&gt;&#39;</text>
</g>
<!-- directed_edge&#45;&gt;&#39;&#45;&gt;&#39; -->
<g id="edge27" class="edge"><title>directed_edge&#45;&gt;&#39;&#45;&gt;&#39;</title>
<path fill="none" stroke="grey" d="M600.584,-167.944C616.46,-157.36 637.065,-143.623 654.389,-132.074"/>
<polygon fill="grey" stroke="grey" points="656.728,-134.721 663.107,-126.262 652.845,-128.897 656.728,-134.721"/>
</g>
<!-- before/undirected_edge -->
<g id="node27" class="node"><title>before/undirected_edge</title>
<polygon fill="lightblue" stroke="black" points="734.5,-85 734.5,-131 885.5,-131 885.5,-85 734.5,-85"/>
<text text-anchor="middle" x="810" y="-115.8" font-family="Times,serif" font-size="14.00">event = undirected_edge</text>
<polyline fill="none" stroke="black" points="734.5,-108 885.5,-108 "/>
<text text-anchor="middle" x="810" y="-92.8" font-family="Times,serif" font-size="14.00">pause = before</text>
</g>
<!-- undirected_edge&#45;&gt;before/undirected_edge -->
<g id="edge29" class="edge"><title>undirected_edge&#45;&gt;before/undirected_edge</title>
<path fill="none" stroke="grey" d="M810,-167.754C810,-159.863 810,-150.249 810,-141.102"/>
<polygon fill="grey" stroke="grey" points="813.5,-141.091 810,-131.091 806.5,-141.091 813.5,-141.091"/>
</g>
<!-- &#39;&#45;&#45;&#39; -->
<g id="node28" class="node"><title>&#39;&#45;&#45;&#39;</title>
<polygon fill="none" stroke="black" points="958,-126 904,-126 904,-90 958,-90 958,-126"/>
<text text-anchor="middle" x="931" y="-104.3" font-family="Times,serif" font-size="14.00">&#39;&#45;&#45;&#39;</text>
</g>
<!-- undirected_edge&#45;&gt;&#39;&#45;&#45;&#39; -->
<g id="edge30" class="edge"><title>undirected_edge&#45;&gt;&#39;&#45;&#45;&#39;</title>
<path fill="none" stroke="grey" d="M837.155,-167.944C854.358,-157.139 876.792,-143.048 895.412,-131.353"/>
<polygon fill="grey" stroke="grey" points="897.329,-134.282 903.936,-125.999 893.606,-128.354 897.329,-134.282"/>
</g>
<!-- action = [values] -->
<g id="node30" class="node"><title>action = [values]</title>
<polygon fill="lightblue" stroke="black" points="666.25,-421 557.75,-421 557.75,-385 666.25,-385 666.25,-421"/>
<text text-anchor="middle" x="612" y="-399.3" font-family="Times,serif" font-size="14.00">action = [values]</text>
</g>
<!-- :default&#45;&gt;action = [values] -->
<g id="edge37" class="edge"><title>:default&#45;&gt;action = [values]</title>
<path fill="none" stroke="grey" d="M612,-474.614C612,-462.24 612,-445.369 612,-431.22"/>
<polygon fill="grey" stroke="grey" points="615.5,-431.05 612,-421.05 608.5,-431.05 615.5,-431.05"/>
</g>
<!-- whitespace -->
<g id="node32" class="node"><title>whitespace</title>
<polygon fill="lightblue" stroke="black" points="761.25,-421 684.75,-421 684.75,-385 761.25,-385 761.25,-421"/>
<text text-anchor="middle" x="723" y="-399.3" font-family="Times,serif" font-size="14.00">whitespace</text>
</g>
<!-- :discard&#45;&gt;whitespace -->
<g id="edge39" class="edge"><title>:discard&#45;&gt;whitespace</title>
<path fill="none" stroke="grey" d="M695.717,-474.614C700.592,-461.998 707.273,-444.705 712.804,-430.391"/>
<polygon fill="grey" stroke="grey" points="716.073,-431.64 716.412,-421.05 709.543,-429.117 716.073,-431.64"/>
</g>
<!-- [\\s]+ -->
<g id="node33" class="node"><title>[\\s]+</title>
<polygon fill="lightblue" stroke="black" points="750,-348 696,-348 696,-312 750,-312 750,-348"/>
<text text-anchor="middle" x="723" y="-326.3" font-family="Times,serif" font-size="14.00">[\s]+</text>
</g>
<!-- whitespace&#45;&gt;[\\s]+ -->
<g id="edge40" class="edge"><title>whitespace&#45;&gt;[\\s]+</title>
<path fill="none" stroke="grey" d="M723,-384.813C723,-376.789 723,-367.047 723,-358.069"/>
<polygon fill="grey" stroke="grey" points="726.5,-358.029 723,-348.029 719.5,-358.029 726.5,-358.029"/>
</g>
</g>
</svg>
