<?xml version="1.0" encoding="UTF-8" standalone="no"?>
<!DOCTYPE svg PUBLIC "-//W3C//DTD SVG 1.1//EN"
 "http://www.w3.org/Graphics/SVG/1.1/DTD/svg11.dtd">
<!-- Generated by graphviz version 2.38.0 (20140413.2041)
 -->
<!-- Title: Perl Pages: 1 -->
<svg width="1862pt" height="854pt"
 viewBox="0.00 0.00 1862.00 854.00" xmlns="http://www.w3.org/2000/svg" xmlns:xlink="http://www.w3.org/1999/xlink">
<g id="graph0" class="graph" transform="scale(1 1) rotate(0) translate(4 850)">
<title>Perl</title>
<polygon fill="white" stroke="none" points="-4,4 -4,-850 1858,-850 1858,4 -4,4"/>
<text text-anchor="middle" x="927" y="-7.8" font-family="Times,serif" font-size="14.00">stringparser.bnf</text>
<!-- ꞉default -->
<g id="node1" class="node"><title>꞉default</title>
<path fill="pink" stroke="black" d="M319,-737.5C319,-737.5 354,-737.5 354,-737.5 360,-737.5 366,-743.5 366,-749.5 366,-749.5 366,-761.5 366,-761.5 366,-767.5 360,-773.5 354,-773.5 354,-773.5 319,-773.5 319,-773.5 313,-773.5 307,-767.5 307,-761.5 307,-761.5 307,-749.5 307,-749.5 307,-743.5 313,-737.5 319,-737.5"/>
<text text-anchor="middle" x="336.5" y="-751.8" font-family="Times,serif" font-size="14.00">꞉default</text>
</g>
<!-- ꞉default_1 -->
<g id="node3" class="node"><title>꞉default_1</title>
<path fill="pink" stroke="black" d="M272.5,-664.5C272.5,-664.5 364.5,-664.5 364.5,-664.5 370.5,-664.5 376.5,-670.5 376.5,-676.5 376.5,-676.5 376.5,-688.5 376.5,-688.5 376.5,-694.5 370.5,-700.5 364.5,-700.5 364.5,-700.5 272.5,-700.5 272.5,-700.5 266.5,-700.5 260.5,-694.5 260.5,-688.5 260.5,-688.5 260.5,-676.5 260.5,-676.5 260.5,-670.5 266.5,-664.5 272.5,-664.5"/>
<text text-anchor="middle" x="318.5" y="-678.8" font-family="Times,serif" font-size="14.00">action =&gt; [values]</text>
</g>
<!-- ꞉default&#45;&gt;꞉default_1 -->
<g id="edge2" class="edge"><title>꞉default&#45;&gt;꞉default_1</title>
<path fill="none" stroke="grey" d="M332.143,-737.313C330.086,-729.202 327.585,-719.336 325.288,-710.277"/>
<polygon fill="grey" stroke="grey" points="328.667,-709.362 322.817,-700.529 321.882,-711.082 328.667,-709.362"/>
</g>
<!-- DSL -->
<g id="node2" class="node"><title>DSL</title>
<polygon fill="lightgrey" stroke="black" points="585.5,-846 531.5,-846 531.5,-810 585.5,-810 585.5,-846"/>
<text text-anchor="middle" x="558.5" y="-824.3" font-family="Times,serif" font-size="14.00">DSL</text>
</g>
<!-- DSL&#45;&gt;꞉default -->
<g id="edge1" class="edge"><title>DSL&#45;&gt;꞉default</title>
<path fill="none" stroke="grey" d="M531.278,-818.355C492.312,-805.981 420.415,-783.149 375.715,-768.953"/>
<polygon fill="grey" stroke="grey" points="376.656,-765.58 366.066,-765.889 374.538,-772.252 376.656,-765.58"/>
</g>
<!-- discard default -->
<g id="node4" class="node"><title>discard default</title>
<polygon fill="orchid" stroke="black" points="505.5,-773.5 407.5,-773.5 407.5,-737.5 505.5,-737.5 505.5,-773.5"/>
<text text-anchor="middle" x="456.5" y="-751.8" font-family="Times,serif" font-size="14.00">discard default</text>
</g>
<!-- DSL&#45;&gt;discard default -->
<g id="edge3" class="edge"><title>DSL&#45;&gt;discard default</title>
<path fill="none" stroke="grey" d="M533.809,-809.934C520.626,-800.822 504.213,-789.478 489.906,-779.589"/>
<polygon fill="grey" stroke="grey" points="491.534,-776.46 481.318,-773.653 487.554,-782.218 491.534,-776.46"/>
</g>
<!-- ꞉discard -->
<g id="node6" class="node"><title>꞉discard</title>
<path fill="magenta" stroke="black" d="M540.5,-737.5C540.5,-737.5 576.5,-737.5 576.5,-737.5 582.5,-737.5 588.5,-743.5 588.5,-749.5 588.5,-749.5 588.5,-761.5 588.5,-761.5 588.5,-767.5 582.5,-773.5 576.5,-773.5 576.5,-773.5 540.5,-773.5 540.5,-773.5 534.5,-773.5 528.5,-767.5 528.5,-761.5 528.5,-761.5 528.5,-749.5 528.5,-749.5 528.5,-743.5 534.5,-737.5 540.5,-737.5"/>
<text text-anchor="middle" x="558.5" y="-751.8" font-family="Times,serif" font-size="14.00">꞉discard</text>
</g>
<!-- DSL&#45;&gt;꞉discard -->
<g id="edge5" class="edge"><title>DSL&#45;&gt;꞉discard</title>
<path fill="none" stroke="grey" d="M558.5,-809.934C558.5,-802.17 558.5,-792.784 558.5,-784.06"/>
<polygon fill="grey" stroke="grey" points="562,-783.899 558.5,-773.899 555,-783.899 562,-783.899"/>
</g>
<!-- lexeme default -->
<g id="node8" class="node"><title>lexeme default</title>
<polygon fill="goldenrod" stroke="black" points="704.5,-773.5 606.5,-773.5 606.5,-737.5 704.5,-737.5 704.5,-773.5"/>
<text text-anchor="middle" x="655.5" y="-751.8" font-family="Times,serif" font-size="14.00">lexeme default</text>
</g>
<!-- DSL&#45;&gt;lexeme default -->
<g id="edge7" class="edge"><title>DSL&#45;&gt;lexeme default</title>
<path fill="none" stroke="grey" d="M581.981,-809.934C594.518,-800.822 610.126,-789.478 623.732,-779.589"/>
<polygon fill="grey" stroke="grey" points="625.868,-782.364 631.899,-773.653 621.752,-776.701 625.868,-782.364"/>
</g>
<!-- start -->
<g id="node10" class="node"><title>start</title>
<path fill="lightblue" stroke="black" d="M740.5,-737.5C740.5,-737.5 770.5,-737.5 770.5,-737.5 776.5,-737.5 782.5,-743.5 782.5,-749.5 782.5,-749.5 782.5,-761.5 782.5,-761.5 782.5,-767.5 776.5,-773.5 770.5,-773.5 770.5,-773.5 740.5,-773.5 740.5,-773.5 734.5,-773.5 728.5,-767.5 728.5,-761.5 728.5,-761.5 728.5,-749.5 728.5,-749.5 728.5,-743.5 734.5,-737.5 740.5,-737.5"/>
<text text-anchor="middle" x="755.5" y="-751.8" font-family="Times,serif" font-size="14.00">꞉start</text>
</g>
<!-- DSL&#45;&gt;start -->
<g id="edge9" class="edge"><title>DSL&#45;&gt;start</title>
<path fill="none" stroke="grey" d="M585.572,-818.337C616.658,-808.253 669.086,-790.826 713.5,-774 715.328,-773.307 717.196,-772.585 719.077,-771.845"/>
<polygon fill="grey" stroke="grey" points="720.521,-775.037 728.492,-768.058 717.908,-768.543 720.521,-775.037"/>
</g>
<!-- discard default_1 -->
<g id="node5" class="node"><title>discard default_1</title>
<path fill="orchid" stroke="black" d="M406.5,-664.5C406.5,-664.5 494.5,-664.5 494.5,-664.5 500.5,-664.5 506.5,-670.5 506.5,-676.5 506.5,-676.5 506.5,-688.5 506.5,-688.5 506.5,-694.5 500.5,-700.5 494.5,-700.5 494.5,-700.5 406.5,-700.5 406.5,-700.5 400.5,-700.5 394.5,-694.5 394.5,-688.5 394.5,-688.5 394.5,-676.5 394.5,-676.5 394.5,-670.5 400.5,-664.5 406.5,-664.5"/>
<text text-anchor="middle" x="450.5" y="-678.8" font-family="Times,serif" font-size="14.00">event =&gt; :symbol</text>
</g>
<!-- discard default&#45;&gt;discard default_1 -->
<g id="edge4" class="edge"><title>discard default&#45;&gt;discard default_1</title>
<path fill="none" stroke="grey" d="M455.048,-737.313C454.37,-729.289 453.546,-719.547 452.788,-710.569"/>
<polygon fill="grey" stroke="grey" points="456.269,-710.199 451.939,-700.529 449.294,-710.788 456.269,-710.199"/>
</g>
<!-- whitespace -->
<g id="node7" class="node"><title>whitespace</title>
<polygon fill="magenta" stroke="black" points="602,-700.5 525,-700.5 525,-664.5 602,-664.5 602,-700.5"/>
<text text-anchor="middle" x="563.5" y="-678.8" font-family="Times,serif" font-size="14.00">whitespace</text>
</g>
<!-- ꞉discard&#45;&gt;whitespace -->
<g id="edge6" class="edge"><title>꞉discard&#45;&gt;whitespace</title>
<path fill="none" stroke="grey" d="M559.71,-737.313C560.275,-729.289 560.961,-719.547 561.594,-710.569"/>
<polygon fill="grey" stroke="grey" points="565.09,-710.75 562.301,-700.529 558.107,-710.258 565.09,-710.75"/>
</g>
<!-- lexeme default_1 -->
<g id="node9" class="node"><title>lexeme default_1</title>
<path fill="goldenrod" stroke="black" d="M632,-664.5C632,-664.5 679,-664.5 679,-664.5 685,-664.5 691,-670.5 691,-676.5 691,-676.5 691,-688.5 691,-688.5 691,-694.5 685,-700.5 679,-700.5 679,-700.5 632,-700.5 632,-700.5 626,-700.5 620,-694.5 620,-688.5 620,-688.5 620,-676.5 620,-676.5 620,-670.5 626,-664.5 632,-664.5"/>
<text text-anchor="middle" x="655.5" y="-678.8" font-family="Times,serif" font-size="14.00">latm =&gt; 1</text>
</g>
<!-- lexeme default&#45;&gt;lexeme default_1 -->
<g id="edge8" class="edge"><title>lexeme default&#45;&gt;lexeme default_1</title>
<path fill="none" stroke="grey" d="M655.5,-737.313C655.5,-729.289 655.5,-719.547 655.5,-710.569"/>
<polygon fill="grey" stroke="grey" points="659,-710.529 655.5,-700.529 652,-710.529 659,-710.529"/>
</g>
<!-- graph_grammar -->
<g id="node11" class="node"><title>graph_grammar</title>
<path fill="lightblue" stroke="black" d="M721.5,-664.5C721.5,-664.5 803.5,-664.5 803.5,-664.5 809.5,-664.5 815.5,-670.5 815.5,-676.5 815.5,-676.5 815.5,-688.5 815.5,-688.5 815.5,-694.5 809.5,-700.5 803.5,-700.5 803.5,-700.5 721.5,-700.5 721.5,-700.5 715.5,-700.5 709.5,-694.5 709.5,-688.5 709.5,-688.5 709.5,-676.5 709.5,-676.5 709.5,-670.5 715.5,-664.5 721.5,-664.5"/>
<text text-anchor="middle" x="762.5" y="-678.8" font-family="Times,serif" font-size="14.00">graph_grammar</text>
</g>
<!-- start&#45;&gt;graph_grammar -->
<g id="edge10" class="edge"><title>start&#45;&gt;graph_grammar</title>
<path fill="none" stroke="grey" d="M757.195,-737.313C757.986,-729.289 758.946,-719.547 759.831,-710.569"/>
<polygon fill="grey" stroke="grey" points="763.323,-710.824 760.821,-700.529 756.357,-710.137 763.323,-710.824"/>
</g>
<!-- graph_definition -->
<g id="node12" class="node"><title>graph_definition</title>
<polygon fill="CornflowerBlue" stroke="black" points="817.5,-628 707.5,-628 707.5,-592 817.5,-592 817.5,-628"/>
<text text-anchor="middle" x="762.5" y="-606.3" font-family="Times,serif" font-size="14.00">graph_definition</text>
</g>
<!-- graph_grammar&#45;&gt;graph_definition -->
<g id="edge11" class="edge"><title>graph_grammar&#45;&gt;graph_definition</title>
<path fill="none" stroke="grey" d="M762.5,-664.434C762.5,-656.67 762.5,-647.284 762.5,-638.56"/>
<polygon fill="grey" stroke="grey" points="766,-638.399 762.5,-628.399 759,-638.399 766,-638.399"/>
</g>
<!-- node_definition -->
<g id="node13" class="node"><title>node_definition</title>
<polygon fill="CornflowerBlue" stroke="black" points="694,-556 589,-556 589,-520 694,-520 694,-556"/>
<text text-anchor="middle" x="641.5" y="-534.3" font-family="Times,serif" font-size="14.00">node_definition</text>
</g>
<!-- graph_definition&#45;&gt;node_definition -->
<g id="edge12" class="edge"><title>graph_definition&#45;&gt;node_definition</title>
<path fill="none" stroke="grey" d="M732.9,-591.876C716.933,-582.639 697.04,-571.131 679.894,-561.212"/>
<polygon fill="grey" stroke="grey" points="681.622,-558.168 671.214,-556.19 678.117,-564.227 681.622,-558.168"/>
</g>
<!-- edge_definition -->
<g id="node14" class="node"><title>edge_definition</title>
<polygon fill="CornflowerBlue" stroke="black" points="854,-556 751,-556 751,-520 854,-520 854,-556"/>
<text text-anchor="middle" x="802.5" y="-534.3" font-family="Times,serif" font-size="14.00">edge_definition</text>
</g>
<!-- graph_definition&#45;&gt;edge_definition -->
<g id="edge13" class="edge"><title>graph_definition&#45;&gt;edge_definition</title>
<path fill="none" stroke="grey" d="M772.388,-591.697C776.989,-583.644 782.56,-573.894 787.653,-564.982"/>
<polygon fill="grey" stroke="grey" points="790.804,-566.523 792.726,-556.104 784.726,-563.05 790.804,-566.523"/>
</g>
<!-- node_statement -->
<g id="node15" class="node"><title>node_statement</title>
<polygon fill="CornflowerBlue" stroke="black" points="653.5,-412 547.5,-412 547.5,-376 653.5,-376 653.5,-412"/>
<text text-anchor="middle" x="600.5" y="-390.3" font-family="Times,serif" font-size="14.00">node_statement</text>
</g>
<!-- node_definition&#45;&gt;node_statement -->
<g id="edge14" class="edge"><title>node_definition&#45;&gt;node_statement</title>
<path fill="none" stroke="grey" d="M589.852,-519.965C573.36,-511.803 556.95,-500.177 547.5,-484 539.429,-470.185 541.377,-462.782 547.5,-448 552.045,-437.028 560.085,-427.143 568.551,-418.964"/>
<polygon fill="grey" stroke="grey" points="570.937,-421.526 576.023,-412.232 566.251,-416.326 570.937,-421.526"/>
</g>
<!-- node_statement graph_definition -->
<g id="node16" class="node"><title>node_statement graph_definition</title>
<polygon fill="CornflowerBlue" stroke="black" points="758.5,-484 556.5,-484 556.5,-448 758.5,-448 758.5,-484"/>
<text text-anchor="middle" x="657.5" y="-462.3" font-family="Times,serif" font-size="14.00">node_statement graph_definition</text>
</g>
<!-- node_definition&#45;&gt;node_statement graph_definition -->
<g id="edge15" class="edge"><title>node_definition&#45;&gt;node_statement graph_definition</title>
<path fill="none" stroke="grey" d="M645.455,-519.697C647.218,-511.983 649.337,-502.712 651.303,-494.112"/>
<polygon fill="grey" stroke="grey" points="654.774,-494.633 653.59,-484.104 647.95,-493.073 654.774,-494.633"/>
</g>
<!-- edge_statement -->
<g id="node26" class="node"><title>edge_statement</title>
<polygon fill="CornflowerBlue" stroke="black" points="895.5,-412 791.5,-412 791.5,-376 895.5,-376 895.5,-412"/>
<text text-anchor="middle" x="843.5" y="-390.3" font-family="Times,serif" font-size="14.00">edge_statement</text>
</g>
<!-- edge_definition&#45;&gt;edge_statement -->
<g id="edge29" class="edge"><title>edge_definition&#45;&gt;edge_statement</title>
<path fill="none" stroke="grey" d="M800.187,-519.743C798.388,-501.416 797.385,-471.858 805.5,-448 808.855,-438.135 814.709,-428.514 820.832,-420.235"/>
<polygon fill="grey" stroke="grey" points="823.771,-422.16 827.216,-412.14 818.275,-417.825 823.771,-422.16"/>
</g>
<!-- edge_statement graph_definition -->
<g id="node27" class="node"><title>edge_statement graph_definition</title>
<polygon fill="CornflowerBlue" stroke="black" points="1014.5,-484 814.5,-484 814.5,-448 1014.5,-448 1014.5,-484"/>
<text text-anchor="middle" x="914.5" y="-462.3" font-family="Times,serif" font-size="14.00">edge_statement graph_definition</text>
</g>
<!-- edge_definition&#45;&gt;edge_statement graph_definition -->
<g id="edge30" class="edge"><title>edge_definition&#45;&gt;edge_statement graph_definition</title>
<path fill="none" stroke="grey" d="M829.898,-519.876C844.407,-510.808 862.416,-499.552 878.085,-489.759"/>
<polygon fill="grey" stroke="grey" points="880.371,-492.458 886.996,-484.19 876.661,-486.522 880.371,-492.458"/>
</g>
<!-- node_name_token -->
<g id="node17" class="node"><title>node_name_token</title>
<polygon fill="CornflowerBlue" stroke="black" points="218,-340 99,-340 99,-304 218,-304 218,-340"/>
<text text-anchor="middle" x="158.5" y="-318.3" font-family="Times,serif" font-size="14.00">node_name_token</text>
</g>
<!-- node_statement&#45;&gt;node_name_token -->
<g id="edge18" class="edge"><title>node_statement&#45;&gt;node_name_token</title>
<path fill="none" stroke="grey" d="M547.408,-387.158C476.801,-379.011 347.966,-362.841 228.325,-340.05"/>
<polygon fill="grey" stroke="grey" points="228.739,-336.566 218.258,-338.112 227.416,-343.44 228.739,-336.566"/>
</g>
<!-- node_name_token attribute_definition -->
<g id="node18" class="node"><title>node_name_token attribute_definition</title>
<polygon fill="CornflowerBlue" stroke="black" points="468.5,-340 236.5,-340 236.5,-304 468.5,-304 468.5,-340"/>
<text text-anchor="middle" x="352.5" y="-318.3" font-family="Times,serif" font-size="14.00">node_name_token attribute_definition</text>
</g>
<!-- node_statement&#45;&gt;node_name_token attribute_definition -->
<g id="edge19" class="edge"><title>node_statement&#45;&gt;node_name_token attribute_definition</title>
<path fill="none" stroke="grey" d="M547.298,-377.983C510.954,-367.725 462.407,-354.022 422.87,-342.862"/>
<polygon fill="grey" stroke="grey" points="423.6,-339.432 413.025,-340.084 421.698,-346.169 423.6,-339.432"/>
</g>
<!-- node_statement ( &#39;,&#39; ) node_statement -->
<g id="node19" class="node"><title>node_statement ( &#39;,&#39; ) node_statement</title>
<polygon fill="CornflowerBlue" stroke="black" points="714,-340 487,-340 487,-304 714,-304 714,-340"/>
<text text-anchor="middle" x="600.5" y="-318.3" font-family="Times,serif" font-size="14.00">node_statement ( &#39;,&#39; ) node_statement</text>
</g>
<!-- node_statement&#45;&gt;node_statement ( &#39;,&#39; ) node_statement -->
<g id="edge20" class="edge"><title>node_statement&#45;&gt;node_statement ( &#39;,&#39; ) node_statement</title>
<path fill="none" stroke="grey" d="M588.669,-375.697C587.077,-367.983 586.624,-358.712 587.309,-350.112"/>
<polygon fill="grey" stroke="grey" points="590.79,-350.493 588.71,-340.104 583.858,-349.523 590.79,-350.493"/>
</g>
<!-- node_statement graph_definition&#45;&gt;graph_definition -->
<g id="edge17" class="edge"><title>node_statement graph_definition&#45;&gt;graph_definition</title>
<path fill="none" stroke="grey" d="M673.421,-484.189C682.561,-494.336 694.061,-507.586 703.5,-520 719.075,-540.483 735.105,-564.919 746.519,-582.999"/>
<polygon fill="grey" stroke="grey" points="743.767,-585.2 752.039,-591.82 749.701,-581.487 743.767,-585.2"/>
</g>
<!-- node_statement graph_definition&#45;&gt;node_statement -->
<g id="edge16" class="edge"><title>node_statement graph_definition&#45;&gt;node_statement</title>
<path fill="none" stroke="grey" d="M643.41,-447.697C636.577,-439.305 628.243,-429.07 620.744,-419.861"/>
<polygon fill="grey" stroke="grey" points="623.456,-417.649 614.428,-412.104 618.028,-422.069 623.456,-417.649"/>
</g>
<!-- start_node end_node -->
<g id="node21" class="node"><title>start_node end_node</title>
<polygon fill="CornflowerBlue" stroke="black" points="133,-268 0,-268 0,-232 133,-232 133,-268"/>
<text text-anchor="middle" x="66.5" y="-246.3" font-family="Times,serif" font-size="14.00">start_node end_node</text>
</g>
<!-- node_name_token&#45;&gt;start_node end_node -->
<g id="edge24" class="edge"><title>node_name_token&#45;&gt;start_node end_node</title>
<path fill="none" stroke="grey" d="M135.758,-303.697C124.06,-294.796 109.639,-283.823 96.9899,-274.199"/>
<polygon fill="grey" stroke="grey" points="99.0576,-271.374 88.98,-268.104 94.8189,-276.945 99.0576,-271.374"/>
</g>
<!-- start_node node_name end_node -->
<g id="node22" class="node"><title>start_node node_name end_node</title>
<polygon fill="CornflowerBlue" stroke="black" points="351.5,-268 151.5,-268 151.5,-232 351.5,-232 351.5,-268"/>
<text text-anchor="middle" x="251.5" y="-246.3" font-family="Times,serif" font-size="14.00">start_node node_name end_node</text>
</g>
<!-- node_name_token&#45;&gt;start_node node_name end_node -->
<g id="edge25" class="edge"><title>node_name_token&#45;&gt;start_node node_name end_node</title>
<path fill="none" stroke="grey" d="M181.489,-303.697C193.314,-294.796 207.892,-283.823 220.679,-274.199"/>
<polygon fill="grey" stroke="grey" points="222.891,-276.915 228.776,-268.104 218.681,-271.322 222.891,-276.915"/>
</g>
<!-- node_statement ( &#39;,&#39; ) node_statement&#45;&gt;node_statement -->
<g id="edge21" class="edge"><title>node_statement ( &#39;,&#39; ) node_statement&#45;&gt;node_statement</title>
<path fill="none" stroke="grey" d="M600.5,-340.104C600.5,-347.791 600.5,-357.054 600.5,-365.665"/>
<polygon fill="grey" stroke="grey" points="597,-365.697 600.5,-375.697 604,-365.697 597,-365.697"/>
</g>
<!-- node_statement ( &#39;,&#39; ) node_statement&#45;&gt;node_statement -->
<g id="edge23" class="edge"><title>node_statement ( &#39;,&#39; ) node_statement&#45;&gt;node_statement</title>
<path fill="none" stroke="grey" d="M612.29,-340.104C613.901,-347.791 614.374,-357.054 613.708,-365.665"/>
<polygon fill="grey" stroke="grey" points="610.224,-365.314 612.331,-375.697 617.159,-366.265 610.224,-365.314"/>
</g>
<!-- ( &#39;,&#39; ) -->
<g id="node20" class="node"><title>( &#39;,&#39; )</title>
<polygon fill="CornflowerBlue" stroke="black" points="748.5,-268 694.5,-268 694.5,-232 748.5,-232 748.5,-268"/>
<text text-anchor="middle" x="721.5" y="-246.3" font-family="Times,serif" font-size="14.00">( &#39;,&#39; )</text>
</g>
<!-- node_statement ( &#39;,&#39; ) node_statement&#45;&gt;( &#39;,&#39; ) -->
<g id="edge22" class="edge"><title>node_statement ( &#39;,&#39; ) node_statement&#45;&gt;( &#39;,&#39; )</title>
<path fill="none" stroke="grey" d="M630.1,-303.876C646.782,-294.225 667.749,-282.096 685.392,-271.889"/>
<polygon fill="grey" stroke="grey" points="687.371,-274.787 694.275,-266.75 683.866,-268.728 687.371,-274.787"/>
</g>
<!-- start_node -->
<g id="node23" class="node"><title>start_node</title>
<polygon fill="CornflowerBlue" stroke="black" points="192.5,-127.5 116.5,-127.5 116.5,-91.5 192.5,-91.5 192.5,-127.5"/>
<text text-anchor="middle" x="154.5" y="-105.8" font-family="Times,serif" font-size="14.00">start_node</text>
</g>
<!-- start_node node_name end_node&#45;&gt;start_node -->
<g id="edge26" class="edge"><title>start_node node_name end_node&#45;&gt;start_node</title>
<path fill="none" stroke="grey" d="M233.173,-231.846C223.142,-221.925 210.883,-208.884 201.5,-196 187.87,-177.284 175.396,-154.18 166.729,-136.708"/>
<polygon fill="grey" stroke="grey" points="169.843,-135.108 162.323,-127.645 163.548,-138.169 169.843,-135.108"/>
</g>
<!-- node_name -->
<g id="node24" class="node"><title>node_name</title>
<polygon fill="CornflowerBlue" stroke="black" points="292,-127.5 211,-127.5 211,-91.5 292,-91.5 292,-127.5"/>
<text text-anchor="middle" x="251.5" y="-105.8" font-family="Times,serif" font-size="14.00">node_name</text>
</g>
<!-- start_node node_name end_node&#45;&gt;node_name -->
<g id="edge27" class="edge"><title>start_node node_name end_node&#45;&gt;node_name</title>
<path fill="none" stroke="grey" d="M251.5,-231.739C251.5,-208.181 251.5,-165.706 251.5,-137.806"/>
<polygon fill="grey" stroke="grey" points="255,-137.544 251.5,-127.544 248,-137.544 255,-137.544"/>
</g>
<!-- end_node -->
<g id="node25" class="node"><title>end_node</title>
<polygon fill="CornflowerBlue" stroke="black" points="381,-127.5 310,-127.5 310,-91.5 381,-91.5 381,-127.5"/>
<text text-anchor="middle" x="345.5" y="-105.8" font-family="Times,serif" font-size="14.00">end_node</text>
</g>
<!-- start_node node_name end_node&#45;&gt;end_node -->
<g id="edge28" class="edge"><title>start_node node_name end_node&#45;&gt;end_node</title>
<path fill="none" stroke="grey" d="M269.523,-231.853C279.373,-221.934 291.386,-208.893 300.5,-196 313.612,-177.451 325.445,-154.601 333.682,-137.191"/>
<polygon fill="grey" stroke="grey" points="337.077,-138.188 338.099,-127.642 330.724,-135.249 337.077,-138.188"/>
</g>
<!-- edge_name -->
<g id="node28" class="node"><title>edge_name</title>
<polygon fill="CornflowerBlue" stroke="black" points="1051,-340 972,-340 972,-304 1051,-304 1051,-340"/>
<text text-anchor="middle" x="1011.5" y="-318.3" font-family="Times,serif" font-size="14.00">edge_name</text>
</g>
<!-- edge_statement&#45;&gt;edge_name -->
<g id="edge33" class="edge"><title>edge_statement&#45;&gt;edge_name</title>
<path fill="none" stroke="grey" d="M884.597,-375.876C908.095,-366.085 937.715,-353.744 962.428,-343.447"/>
<polygon fill="grey" stroke="grey" points="964.099,-346.542 971.984,-339.465 961.407,-340.081 964.099,-346.542"/>
</g>
<!-- edge_name attribute_definition -->
<g id="node29" class="node"><title>edge_name attribute_definition</title>
<polygon fill="CornflowerBlue" stroke="black" points="1260,-340 1069,-340 1069,-304 1260,-304 1260,-340"/>
<text text-anchor="middle" x="1164.5" y="-318.3" font-family="Times,serif" font-size="14.00">edge_name attribute_definition</text>
</g>
<!-- edge_statement&#45;&gt;edge_name attribute_definition -->
<g id="edge34" class="edge"><title>edge_statement&#45;&gt;edge_name attribute_definition</title>
<path fill="none" stroke="grey" d="M895.789,-381.597C944.659,-370.94 1018.58,-354.82 1076.53,-342.183"/>
<polygon fill="grey" stroke="grey" points="1077.4,-345.577 1086.42,-340.026 1075.91,-338.737 1077.4,-345.577"/>
</g>
<!-- edge_statement ( &#39;,&#39; ) edge_statement -->
<g id="node30" class="node"><title>edge_statement ( &#39;,&#39; ) edge_statement</title>
<polygon fill="CornflowerBlue" stroke="black" points="954.5,-340 732.5,-340 732.5,-304 954.5,-304 954.5,-340"/>
<text text-anchor="middle" x="843.5" y="-318.3" font-family="Times,serif" font-size="14.00">edge_statement ( &#39;,&#39; ) edge_statement</text>
</g>
<!-- edge_statement&#45;&gt;edge_statement ( &#39;,&#39; ) edge_statement -->
<g id="edge35" class="edge"><title>edge_statement&#45;&gt;edge_statement ( &#39;,&#39; ) edge_statement</title>
<path fill="none" stroke="grey" d="M831.669,-375.697C830.077,-367.983 829.624,-358.712 830.309,-350.112"/>
<polygon fill="grey" stroke="grey" points="833.79,-350.493 831.71,-340.104 826.858,-349.523 833.79,-350.493"/>
</g>
<!-- edge_statement graph_definition&#45;&gt;graph_definition -->
<g id="edge32" class="edge"><title>edge_statement graph_definition&#45;&gt;graph_definition</title>
<path fill="none" stroke="grey" d="M908.059,-484.309C900.094,-503.778 884.916,-535.364 863.5,-556 850.269,-568.749 833.36,-579.219 817.178,-587.388"/>
<polygon fill="grey" stroke="grey" points="815.251,-584.431 807.768,-591.931 818.295,-590.735 815.251,-584.431"/>
</g>
<!-- edge_statement graph_definition&#45;&gt;edge_statement -->
<g id="edge31" class="edge"><title>edge_statement graph_definition&#45;&gt;edge_statement</title>
<path fill="none" stroke="grey" d="M896.949,-447.697C888.266,-439.135 877.637,-428.656 868.152,-419.304"/>
<polygon fill="grey" stroke="grey" points="870.427,-416.633 860.849,-412.104 865.512,-421.617 870.427,-416.633"/>
</g>
<!-- directed_edge -->
<g id="node31" class="node"><title>directed_edge</title>
<polygon fill="CornflowerBlue" stroke="black" points="999,-268 906,-268 906,-232 999,-232 999,-268"/>
<text text-anchor="middle" x="952.5" y="-246.3" font-family="Times,serif" font-size="14.00">directed_edge</text>
</g>
<!-- edge_name&#45;&gt;directed_edge -->
<g id="edge39" class="edge"><title>edge_name&#45;&gt;directed_edge</title>
<path fill="none" stroke="grey" d="M996.916,-303.697C989.842,-295.305 981.217,-285.07 973.455,-275.861"/>
<polygon fill="grey" stroke="grey" points="976.037,-273.495 966.917,-268.104 970.685,-278.006 976.037,-273.495"/>
</g>
<!-- undirected_edge -->
<g id="node32" class="node"><title>undirected_edge</title>
<polygon fill="CornflowerBlue" stroke="black" points="1124,-268 1017,-268 1017,-232 1124,-232 1124,-268"/>
<text text-anchor="middle" x="1070.5" y="-246.3" font-family="Times,serif" font-size="14.00">undirected_edge</text>
</g>
<!-- edge_name&#45;&gt;undirected_edge -->
<g id="edge40" class="edge"><title>edge_name&#45;&gt;undirected_edge</title>
<path fill="none" stroke="grey" d="M1026.08,-303.697C1033.16,-295.305 1041.78,-285.07 1049.55,-275.861"/>
<polygon fill="grey" stroke="grey" points="1052.31,-278.006 1056.08,-268.104 1046.96,-273.495 1052.31,-278.006"/>
</g>
<!-- edge_statement ( &#39;,&#39; ) edge_statement&#45;&gt;( &#39;,&#39; ) -->
<g id="edge37" class="edge"><title>edge_statement ( &#39;,&#39; ) edge_statement&#45;&gt;( &#39;,&#39; )</title>
<path fill="none" stroke="grey" d="M813.655,-303.876C796.715,-294.156 775.393,-281.922 757.526,-271.671"/>
<polygon fill="grey" stroke="grey" points="758.955,-268.455 748.539,-266.514 755.471,-274.527 758.955,-268.455"/>
</g>
<!-- edge_statement ( &#39;,&#39; ) edge_statement&#45;&gt;edge_statement -->
<g id="edge36" class="edge"><title>edge_statement ( &#39;,&#39; ) edge_statement&#45;&gt;edge_statement</title>
<path fill="none" stroke="grey" d="M843.5,-340.104C843.5,-347.791 843.5,-357.054 843.5,-365.665"/>
<polygon fill="grey" stroke="grey" points="840,-365.697 843.5,-375.697 847,-365.697 840,-365.697"/>
</g>
<!-- edge_statement ( &#39;,&#39; ) edge_statement&#45;&gt;edge_statement -->
<g id="edge38" class="edge"><title>edge_statement ( &#39;,&#39; ) edge_statement&#45;&gt;edge_statement</title>
<path fill="none" stroke="grey" d="M855.29,-340.104C856.901,-347.791 857.374,-357.054 856.708,-365.665"/>
<polygon fill="grey" stroke="grey" points="853.224,-365.314 855.331,-375.697 860.159,-366.265 853.224,-365.314"/>
</g>
<!-- attribute_definition -->
<g id="node33" class="node"><title>attribute_definition</title>
<polygon fill="CornflowerBlue" stroke="black" points="1399.5,-628 1273.5,-628 1273.5,-592 1399.5,-592 1399.5,-628"/>
<text text-anchor="middle" x="1336.5" y="-606.3" font-family="Times,serif" font-size="14.00">attribute_definition</text>
</g>
<!-- attribute_statement -->
<g id="node34" class="node"><title>attribute_statement</title>
<polygon fill="CornflowerBlue" stroke="black" points="1400,-556 1273,-556 1273,-520 1400,-520 1400,-556"/>
<text text-anchor="middle" x="1336.5" y="-534.3" font-family="Times,serif" font-size="14.00">attribute_statement</text>
</g>
<!-- attribute_definition&#45;&gt;attribute_statement -->
<g id="edge41" class="edge"><title>attribute_definition&#45;&gt;attribute_statement</title>
<path fill="none" stroke="grey" d="M1336.5,-591.697C1336.5,-583.983 1336.5,-574.712 1336.5,-566.112"/>
<polygon fill="grey" stroke="grey" points="1340,-566.104 1336.5,-556.104 1333,-566.104 1340,-566.104"/>
</g>
<!-- start_attributes string_token_set end_attributes -->
<g id="node35" class="node"><title>start_attributes string_token_set end_attributes</title>
<polygon fill="CornflowerBlue" stroke="black" points="1477,-484 1196,-484 1196,-448 1477,-448 1477,-484"/>
<text text-anchor="middle" x="1336.5" y="-462.3" font-family="Times,serif" font-size="14.00">start_attributes string_token_set end_attributes</text>
</g>
<!-- attribute_statement&#45;&gt;start_attributes string_token_set end_attributes -->
<g id="edge42" class="edge"><title>attribute_statement&#45;&gt;start_attributes string_token_set end_attributes</title>
<path fill="none" stroke="grey" d="M1336.5,-519.697C1336.5,-511.983 1336.5,-502.712 1336.5,-494.112"/>
<polygon fill="grey" stroke="grey" points="1340,-494.104 1336.5,-484.104 1333,-494.104 1340,-494.104"/>
</g>
<!-- start_attributes -->
<g id="node36" class="node"><title>start_attributes</title>
<polygon fill="CornflowerBlue" stroke="black" points="1263.5,-412 1161.5,-412 1161.5,-376 1263.5,-376 1263.5,-412"/>
<text text-anchor="middle" x="1212.5" y="-390.3" font-family="Times,serif" font-size="14.00">start_attributes</text>
</g>
<!-- start_attributes string_token_set end_attributes&#45;&gt;start_attributes -->
<g id="edge43" class="edge"><title>start_attributes string_token_set end_attributes&#45;&gt;start_attributes</title>
<path fill="none" stroke="grey" d="M1306.17,-447.876C1289.8,-438.639 1269.42,-427.131 1251.85,-417.212"/>
<polygon fill="grey" stroke="grey" points="1253.38,-414.058 1242.95,-412.19 1249.94,-420.154 1253.38,-414.058"/>
</g>
<!-- string_token_set -->
<g id="node37" class="node"><title>string_token_set</title>
<polygon fill="CornflowerBlue" stroke="black" points="1391.5,-412 1281.5,-412 1281.5,-376 1391.5,-376 1391.5,-412"/>
<text text-anchor="middle" x="1336.5" y="-390.3" font-family="Times,serif" font-size="14.00">string_token_set</text>
</g>
<!-- start_attributes string_token_set end_attributes&#45;&gt;string_token_set -->
<g id="edge44" class="edge"><title>start_attributes string_token_set end_attributes&#45;&gt;string_token_set</title>
<path fill="none" stroke="grey" d="M1336.5,-447.697C1336.5,-439.983 1336.5,-430.712 1336.5,-422.112"/>
<polygon fill="grey" stroke="grey" points="1340,-422.104 1336.5,-412.104 1333,-422.104 1340,-422.104"/>
</g>
<!-- end_attributes -->
<g id="node38" class="node"><title>end_attributes</title>
<polygon fill="CornflowerBlue" stroke="black" points="1507,-412 1410,-412 1410,-376 1507,-376 1507,-412"/>
<text text-anchor="middle" x="1458.5" y="-390.3" font-family="Times,serif" font-size="14.00">end_attributes</text>
</g>
<!-- start_attributes string_token_set end_attributes&#45;&gt;end_attributes -->
<g id="edge45" class="edge"><title>start_attributes string_token_set end_attributes&#45;&gt;end_attributes</title>
<path fill="none" stroke="grey" d="M1366.34,-447.876C1382.44,-438.639 1402.5,-427.131 1419.79,-417.212"/>
<polygon fill="grey" stroke="grey" points="1421.61,-420.202 1428.54,-412.19 1418.13,-414.131 1421.61,-420.202"/>
</g>
<!-- string_token_pair -->
<g id="node39" class="node"><title>string_token_pair</title>
<polygon fill="CornflowerBlue" stroke="black" points="1394.5,-340 1278.5,-340 1278.5,-304 1394.5,-304 1394.5,-340"/>
<text text-anchor="middle" x="1336.5" y="-318.3" font-family="Times,serif" font-size="14.00">string_token_pair</text>
</g>
<!-- string_token_set&#45;&gt;string_token_pair -->
<g id="edge46" class="edge"><title>string_token_set&#45;&gt;string_token_pair</title>
<path fill="none" stroke="grey" d="M1336.5,-375.697C1336.5,-367.983 1336.5,-358.712 1336.5,-350.112"/>
<polygon fill="grey" stroke="grey" points="1340,-350.104 1336.5,-340.104 1333,-350.104 1340,-350.104"/>
</g>
<!-- literal_label -->
<g id="node40" class="node"><title>literal_label</title>
<polygon fill="CornflowerBlue" stroke="black" points="1293,-268 1210,-268 1210,-232 1293,-232 1293,-268"/>
<text text-anchor="middle" x="1251.5" y="-246.3" font-family="Times,serif" font-size="14.00">literal_label</text>
</g>
<!-- string_token_pair&#45;&gt;literal_label -->
<g id="edge47" class="edge"><title>string_token_pair&#45;&gt;literal_label</title>
<path fill="none" stroke="grey" d="M1315.49,-303.697C1304.78,-294.881 1291.61,-284.032 1280,-274.474"/>
<polygon fill="grey" stroke="grey" points="1282.21,-271.76 1272.27,-268.104 1277.76,-277.163 1282.21,-271.76"/>
</g>
<!-- attribute_name ( &#39;꞉&#39; ) attribute_value -->
<g id="node41" class="node"><title>attribute_name ( &#39;꞉&#39; ) attribute_value</title>
<polygon fill="CornflowerBlue" stroke="black" points="1529.5,-268 1311.5,-268 1311.5,-232 1529.5,-232 1529.5,-268"/>
<text text-anchor="middle" x="1420.5" y="-246.3" font-family="Times,serif" font-size="14.00">attribute_name ( &#39;꞉&#39; ) attribute_value</text>
</g>
<!-- string_token_pair&#45;&gt;attribute_name ( &#39;꞉&#39; ) attribute_value -->
<g id="edge48" class="edge"><title>string_token_pair&#45;&gt;attribute_name ( &#39;꞉&#39; ) attribute_value</title>
<path fill="none" stroke="grey" d="M1357.26,-303.697C1367.74,-294.965 1380.61,-284.24 1392,-274.75"/>
<polygon fill="grey" stroke="grey" points="1394.53,-277.195 1399.97,-268.104 1390.05,-271.817 1394.53,-277.195"/>
</g>
<!-- attribute_name -->
<g id="node42" class="node"><title>attribute_name</title>
<polygon fill="CornflowerBlue" stroke="black" points="1375.5,-127.5 1273.5,-127.5 1273.5,-91.5 1375.5,-91.5 1375.5,-127.5"/>
<text text-anchor="middle" x="1324.5" y="-105.8" font-family="Times,serif" font-size="14.00">attribute_name</text>
</g>
<!-- attribute_name ( &#39;꞉&#39; ) attribute_value&#45;&gt;attribute_name -->
<g id="edge49" class="edge"><title>attribute_name ( &#39;꞉&#39; ) attribute_value&#45;&gt;attribute_name</title>
<path fill="none" stroke="grey" d="M1408.54,-231.739C1391.85,-207.66 1361.46,-163.817 1342.16,-135.976"/>
<polygon fill="grey" stroke="grey" points="1344.89,-133.768 1336.31,-127.544 1339.13,-137.756 1344.89,-133.768"/>
</g>
<!-- ( &#39;꞉&#39; ) -->
<g id="node43" class="node"><title>( &#39;꞉&#39; )</title>
<polygon fill="CornflowerBlue" stroke="black" points="1447.5,-127.5 1393.5,-127.5 1393.5,-91.5 1447.5,-91.5 1447.5,-127.5"/>
<text text-anchor="middle" x="1420.5" y="-105.8" font-family="Times,serif" font-size="14.00">( &#39;꞉&#39; )</text>
</g>
<!-- attribute_name ( &#39;꞉&#39; ) attribute_value&#45;&gt;( &#39;꞉&#39; ) -->
<g id="edge50" class="edge"><title>attribute_name ( &#39;꞉&#39; ) attribute_value&#45;&gt;( &#39;꞉&#39; )</title>
<path fill="none" stroke="grey" d="M1420.5,-231.739C1420.5,-208.181 1420.5,-165.706 1420.5,-137.806"/>
<polygon fill="grey" stroke="grey" points="1424,-137.544 1420.5,-127.544 1417,-137.544 1424,-137.544"/>
</g>
<!-- attribute_value -->
<g id="node44" class="node"><title>attribute_value</title>
<polygon fill="CornflowerBlue" stroke="black" points="1567,-127.5 1466,-127.5 1466,-91.5 1567,-91.5 1567,-127.5"/>
<text text-anchor="middle" x="1516.5" y="-105.8" font-family="Times,serif" font-size="14.00">attribute_value</text>
</g>
<!-- attribute_name ( &#39;꞉&#39; ) attribute_value&#45;&gt;attribute_value -->
<g id="edge51" class="edge"><title>attribute_name ( &#39;꞉&#39; ) attribute_value&#45;&gt;attribute_value</title>
<path fill="none" stroke="grey" d="M1432.46,-231.739C1449.15,-207.66 1479.54,-163.817 1498.84,-135.976"/>
<polygon fill="grey" stroke="grey" points="1501.87,-137.756 1504.69,-127.544 1496.11,-133.768 1501.87,-137.756"/>
</g>
<!-- Legend -->
<g id="node45" class="node"><title>Legend</title>
<polygon fill="lightgrey" stroke="none" points="1854,-196 1585,-196 1585,-23 1854,-23 1854,-196"/>
<polygon fill="white" stroke="none" points="1593,-27 1593,-192 1846,-192 1846,-27 1593,-27"/>
<polygon fill="pink" stroke="none" points="1596.5,-167.5 1596.5,-188.5 1843.5,-188.5 1843.5,-167.5 1596.5,-167.5"/>
<polygon fill="none" stroke="black" points="1596.5,-167.5 1596.5,-188.5 1843.5,-188.5 1843.5,-167.5 1596.5,-167.5"/>
<text text-anchor="start" x="1639" y="-174.3" font-family="Times,serif" font-size="14.00">Pink nodes are &#39;:default&#39; rules</text>
<polygon fill="magenta" stroke="none" points="1596.5,-144.5 1596.5,-165.5 1843.5,-165.5 1843.5,-144.5 1596.5,-144.5"/>
<polygon fill="none" stroke="black" points="1596.5,-144.5 1596.5,-165.5 1843.5,-165.5 1843.5,-144.5 1596.5,-144.5"/>
<text text-anchor="start" x="1627" y="-151.3" font-family="Times,serif" font-size="14.00">Magenta nodes are &#39;:discard&#39; rules</text>
<polygon fill="orchid" stroke="none" points="1596.5,-121.5 1596.5,-142.5 1843.5,-142.5 1843.5,-121.5 1596.5,-121.5"/>
<polygon fill="none" stroke="black" points="1596.5,-121.5 1596.5,-142.5 1843.5,-142.5 1843.5,-121.5 1596.5,-121.5"/>
<text text-anchor="start" x="1600" y="-128.3" font-family="Times,serif" font-size="14.00">The orchid node is the &#39;discard default&#39; rule</text>
<polygon fill="goldenrod" stroke="none" points="1596.5,-98.5 1596.5,-119.5 1843.5,-119.5 1843.5,-98.5 1596.5,-98.5"/>
<polygon fill="none" stroke="black" points="1596.5,-98.5 1596.5,-119.5 1843.5,-119.5 1843.5,-98.5 1596.5,-98.5"/>
<text text-anchor="start" x="1599.5" y="-105.3" font-family="Times,serif" font-size="14.00">The golden node is the &#39;lexeme default&#39; rule</text>
<polygon fill="lightblue" stroke="none" points="1596.5,-75.5 1596.5,-96.5 1843.5,-96.5 1843.5,-75.5 1596.5,-75.5"/>
<polygon fill="none" stroke="black" points="1596.5,-75.5 1596.5,-96.5 1843.5,-96.5 1843.5,-75.5 1596.5,-75.5"/>
<text text-anchor="start" x="1616.5" y="-82.3" font-family="Times,serif" font-size="14.00">The LightBlue node is the &#39;:start&#39; rule</text>
<polygon fill="CornflowerBlue" stroke="none" points="1596.5,-52.5 1596.5,-73.5 1843.5,-73.5 1843.5,-52.5 1596.5,-52.5"/>
<polygon fill="none" stroke="black" points="1596.5,-52.5 1596.5,-73.5 1843.5,-73.5 1843.5,-52.5 1596.5,-52.5"/>
<text text-anchor="start" x="1622" y="-59.3" font-family="Times,serif" font-size="14.00">CornflowerBlue nodes are G1 rules</text>
<polygon fill="lightgreen" stroke="none" points="1596.5,-29.5 1596.5,-50.5 1843.5,-50.5 1843.5,-29.5 1596.5,-29.5"/>
<polygon fill="none" stroke="black" points="1596.5,-29.5 1596.5,-50.5 1843.5,-50.5 1843.5,-29.5 1596.5,-29.5"/>
<text text-anchor="start" x="1618.5" y="-36.3" font-family="Times,serif" font-size="14.00">LightGreen nodes are &#39;:lexeme&#39; rules</text>
<polygon fill="none" stroke="black" points="1593,-27 1593,-192 1846,-192 1846,-27 1593,-27"/>
</g>
</g>
</svg>
