<?xml version="1.0" encoding="UTF-8" standalone="no"?>
<!DOCTYPE svg PUBLIC "-//W3C//DTD SVG 1.1//EN"
 "http://www.w3.org/Graphics/SVG/1.1/DTD/svg11.dtd">
<!-- Generated by graphviz version 2.30.1 (20130611.0131)
 -->
<!-- Title: Perl Pages: 1 -->
<svg width="959pt" height="849pt"
 viewBox="0.00 0.00 959.00 849.00" xmlns="http://www.w3.org/2000/svg" xmlns:xlink="http://www.w3.org/1999/xlink">
<g id="graph0" class="graph" transform="scale(1 1) rotate(0) translate(4 845)">
<title>Perl</title>
<polygon fill="white" stroke="white" points="-4,5 -4,-845 956,-845 956,5 -4,5"/>
<text text-anchor="middle" x="475.5" y="-7.8" font-family="Times,serif" font-size="14.00">stringparser.bnf</text>
<!-- graph_grammar -->
<g id="node1" class="node"><title>graph_grammar</title>
<path fill="lightgreen" stroke="black" d="M242,-794C242,-794 322,-794 322,-794 328,-794 334,-800 334,-806 334,-806 334,-828 334,-828 334,-834 328,-840 322,-840 322,-840 242,-840 242,-840 236,-840 230,-834 230,-828 230,-828 230,-806 230,-806 230,-800 236,-794 242,-794"/>
<text text-anchor="middle" x="282" y="-824.8" font-family="Times,serif" font-size="14.00">:start</text>
<polyline fill="none" stroke="black" points="230,-817 334,-817 "/>
<text text-anchor="middle" x="282" y="-801.8" font-family="Times,serif" font-size="14.00">graph_grammar</text>
</g>
<!-- ꞉default -->
<g id="node2" class="node"><title>꞉default</title>
<polygon fill="lightblue" stroke="black" points="214.5,-757 157.5,-757 157.5,-721 214.5,-721 214.5,-757"/>
<text text-anchor="middle" x="186" y="-735.3" font-family="Times,serif" font-size="14.00">꞉default</text>
</g>
<!-- graph_grammar&#45;&gt;꞉default -->
<g id="edge1" class="edge"><title>graph_grammar&#45;&gt;꞉default</title>
<path fill="none" stroke="grey" d="M253.975,-793.813C241.924,-784.273 227.828,-773.114 215.607,-763.439"/>
<polygon fill="grey" stroke="grey" points="217.507,-760.479 207.494,-757.016 213.162,-765.967 217.507,-760.479"/>
</g>
<!-- ꞉discard -->
<g id="node4" class="node"><title>꞉discard</title>
<polygon fill="lightblue" stroke="black" points="311.25,-757 252.75,-757 252.75,-721 311.25,-721 311.25,-757"/>
<text text-anchor="middle" x="282" y="-735.3" font-family="Times,serif" font-size="14.00">꞉discard</text>
</g>
<!-- graph_grammar&#45;&gt;꞉discard -->
<g id="edge3" class="edge"><title>graph_grammar&#45;&gt;꞉discard</title>
<path fill="none" stroke="grey" d="M282,-793.609C282,-785.481 282,-776.2 282,-767.671"/>
<polygon fill="grey" stroke="grey" points="285.5,-767.412 282,-757.412 278.5,-767.412 285.5,-767.412"/>
</g>
<!-- graph_definition -->
<g id="node6" class="node"><title>graph_definition</title>
<polygon fill="white" stroke="black" points="538.25,-757 431.75,-757 431.75,-721 538.25,-721 538.25,-757"/>
<text text-anchor="middle" x="485" y="-735.3" font-family="Times,serif" font-size="14.00">graph_definition</text>
</g>
<!-- graph_grammar&#45;&gt;graph_definition -->
<g id="edge5" class="edge"><title>graph_grammar&#45;&gt;graph_definition</title>
<path fill="none" stroke="grey" d="M334.014,-796.527C363.376,-785.534 400.053,-771.803 429.906,-760.626"/>
<polygon fill="grey" stroke="grey" points="431.203,-763.878 439.341,-757.094 428.748,-757.323 431.203,-763.878"/>
</g>
<!-- ꞉default_1 -->
<g id="node3" class="node"><title>꞉default_1</title>
<path fill="lightblue" stroke="black" d="M120.5,-648C120.5,-648 213.5,-648 213.5,-648 219.5,-648 225.5,-654 225.5,-660 225.5,-660 225.5,-672 225.5,-672 225.5,-678 219.5,-684 213.5,-684 213.5,-684 120.5,-684 120.5,-684 114.5,-684 108.5,-678 108.5,-672 108.5,-672 108.5,-660 108.5,-660 108.5,-654 114.5,-648 120.5,-648"/>
<text text-anchor="middle" x="167" y="-662.3" font-family="Times,serif" font-size="14.00">action =&gt; [values]</text>
</g>
<!-- ꞉default&#45;&gt;꞉default_1 -->
<g id="edge2" class="edge"><title>꞉default&#45;&gt;꞉default_1</title>
<path fill="none" stroke="grey" d="M181.401,-720.813C179.23,-712.702 176.59,-702.836 174.166,-693.777"/>
<polygon fill="grey" stroke="grey" points="177.523,-692.784 171.557,-684.029 170.761,-694.594 177.523,-692.784"/>
</g>
<!-- whitespace -->
<g id="node5" class="node"><title>whitespace</title>
<polygon fill="lightblue" stroke="black" points="320.25,-684 243.75,-684 243.75,-648 320.25,-648 320.25,-684"/>
<text text-anchor="middle" x="282" y="-662.3" font-family="Times,serif" font-size="14.00">whitespace</text>
</g>
<!-- ꞉discard&#45;&gt;whitespace -->
<g id="edge4" class="edge"><title>꞉discard&#45;&gt;whitespace</title>
<path fill="none" stroke="grey" d="M282,-720.813C282,-712.789 282,-703.047 282,-694.069"/>
<polygon fill="grey" stroke="grey" points="285.5,-694.029 282,-684.029 278.5,-694.029 285.5,-694.029"/>
</g>
<!-- [\\s] -->
<g id="node38" class="node"><title>[\\s]</title>
<polygon fill="white" stroke="black" points="271,-611 217,-611 217,-575 271,-575 271,-611"/>
<text text-anchor="middle" x="244" y="-589.3" font-family="Times,serif" font-size="14.00">[\s]</text>
</g>
<!-- whitespace&#45;&gt;[\\s] -->
<g id="edge49" class="edge"><title>whitespace&#45;&gt;[\\s]</title>
<path fill="none" stroke="grey" d="M272.801,-647.813C268.32,-639.441 262.838,-629.197 257.863,-619.903"/>
<polygon fill="grey" stroke="grey" points="260.919,-618.194 253.114,-611.029 254.747,-621.497 260.919,-618.194"/>
</g>
<!-- node_definition -->
<g id="node7" class="node"><title>node_definition</title>
<polygon fill="white" stroke="black" points="731.5,-684 630.5,-684 630.5,-648 731.5,-648 731.5,-684"/>
<text text-anchor="middle" x="681" y="-662.3" font-family="Times,serif" font-size="14.00">node_definition</text>
</g>
<!-- graph_definition&#45;&gt;node_definition -->
<g id="edge6" class="edge"><title>graph_definition&#45;&gt;node_definition</title>
<path fill="none" stroke="grey" d="M531.947,-720.994C559.623,-710.968 594.835,-698.213 624.085,-687.617"/>
<polygon fill="grey" stroke="grey" points="625.547,-690.81 633.757,-684.114 623.163,-684.229 625.547,-690.81"/>
</g>
<!-- edge_definition -->
<g id="node8" class="node"><title>edge_definition</title>
<polygon fill="white" stroke="black" points="535.25,-684 434.75,-684 434.75,-648 535.25,-648 535.25,-684"/>
<text text-anchor="middle" x="485" y="-662.3" font-family="Times,serif" font-size="14.00">edge_definition</text>
</g>
<!-- graph_definition&#45;&gt;edge_definition -->
<g id="edge7" class="edge"><title>graph_definition&#45;&gt;edge_definition</title>
<path fill="none" stroke="grey" d="M485,-720.813C485,-712.789 485,-703.047 485,-694.069"/>
<polygon fill="grey" stroke="grey" points="488.5,-694.029 485,-684.029 481.5,-694.029 488.5,-694.029"/>
</g>
<!-- node_statement -->
<g id="node9" class="node"><title>node_statement</title>
<polygon fill="white" stroke="black" points="868.5,-539 767.5,-539 767.5,-503 868.5,-503 868.5,-539"/>
<text text-anchor="middle" x="818" y="-517.3" font-family="Times,serif" font-size="14.00">node_statement</text>
</g>
<!-- node_definition&#45;&gt;node_statement -->
<g id="edge8" class="edge"><title>node_definition&#45;&gt;node_statement</title>
<path fill="none" stroke="grey" d="M731.617,-648.576C751.179,-640.045 772.336,-627.807 787,-611 802.157,-593.628 810.02,-568.416 814.027,-549.258"/>
<polygon fill="grey" stroke="grey" points="817.487,-549.798 815.878,-539.326 810.605,-548.515 817.487,-549.798"/>
</g>
<!-- node_statement graph_definition -->
<g id="node10" class="node"><title>node_statement graph_definition</title>
<polygon fill="white" stroke="black" points="778.5,-611 583.5,-611 583.5,-575 778.5,-575 778.5,-611"/>
<text text-anchor="middle" x="681" y="-589.3" font-family="Times,serif" font-size="14.00">node_statement graph_definition</text>
</g>
<!-- node_definition&#45;&gt;node_statement graph_definition -->
<g id="edge9" class="edge"><title>node_definition&#45;&gt;node_statement graph_definition</title>
<path fill="none" stroke="grey" d="M681,-647.813C681,-639.789 681,-630.047 681,-621.069"/>
<polygon fill="grey" stroke="grey" points="684.5,-621.029 681,-611.029 677.5,-621.029 684.5,-621.029"/>
</g>
<!-- edge_statement -->
<g id="node22" class="node"><title>edge_statement</title>
<polygon fill="white" stroke="black" points="432.25,-539 331.75,-539 331.75,-503 432.25,-503 432.25,-539"/>
<text text-anchor="middle" x="382" y="-517.3" font-family="Times,serif" font-size="14.00">edge_statement</text>
</g>
<!-- edge_definition&#45;&gt;edge_statement -->
<g id="edge26" class="edge"><title>edge_definition&#45;&gt;edge_statement</title>
<path fill="none" stroke="grey" d="M492.295,-647.964C499.312,-628.707 506.974,-597.158 493,-575 481.448,-556.683 461.631,-544.561 441.91,-536.601"/>
<polygon fill="grey" stroke="grey" points="442.865,-533.222 432.272,-533.018 440.426,-539.783 442.865,-533.222"/>
</g>
<!-- edge_statement graph_definition -->
<g id="node23" class="node"><title>edge_statement graph_definition</title>
<polygon fill="white" stroke="black" points="484.25,-611 289.75,-611 289.75,-575 484.25,-575 484.25,-611"/>
<text text-anchor="middle" x="387" y="-589.3" font-family="Times,serif" font-size="14.00">edge_statement graph_definition</text>
</g>
<!-- edge_definition&#45;&gt;edge_statement graph_definition -->
<g id="edge27" class="edge"><title>edge_definition&#45;&gt;edge_statement graph_definition</title>
<path fill="none" stroke="grey" d="M461.277,-647.813C448.517,-638.569 432.608,-627.043 418.791,-617.032"/>
<polygon fill="grey" stroke="grey" points="420.656,-614.062 410.505,-611.029 416.549,-619.73 420.656,-614.062"/>
</g>
<!-- node_name -->
<g id="node11" class="node"><title>node_name</title>
<polygon fill="white" stroke="black" points="913,-395 833,-395 833,-359 913,-359 913,-395"/>
<text text-anchor="middle" x="873" y="-373.3" font-family="Times,serif" font-size="14.00">node_name</text>
</g>
<!-- node_statement&#45;&gt;node_name -->
<g id="edge12" class="edge"><title>node_statement&#45;&gt;node_name</title>
<path fill="none" stroke="grey" d="M868.706,-509.619C892.202,-501.998 917.973,-488.989 932,-467 940.605,-453.511 938.516,-445.613 932,-431 926.918,-419.604 918.04,-409.634 908.691,-401.509"/>
<polygon fill="grey" stroke="grey" points="910.776,-398.694 900.8,-395.128 906.375,-404.137 910.776,-398.694"/>
</g>
<!-- node_name attribute_definition -->
<g id="node12" class="node"><title>node_name attribute_definition</title>
<polygon fill="white" stroke="black" points="694,-467 506,-467 506,-431 694,-431 694,-467"/>
<text text-anchor="middle" x="600" y="-445.3" font-family="Times,serif" font-size="14.00">node_name attribute_definition</text>
</g>
<!-- node_statement&#45;&gt;node_name attribute_definition -->
<g id="edge13" class="edge"><title>node_statement&#45;&gt;node_name attribute_definition</title>
<path fill="none" stroke="grey" d="M767.438,-503.765C736.186,-493.729 695.832,-480.772 662.572,-470.092"/>
<polygon fill="grey" stroke="grey" points="663.537,-466.726 652.946,-467.001 661.397,-473.391 663.537,-466.726"/>
</g>
<!-- node_statement (&#39;,&#39;) node_statement -->
<g id="node14" class="node"><title>node_statement (&#39;,&#39;) node_statement</title>
<polygon fill="white" stroke="black" points="923.5,-467 712.5,-467 712.5,-431 923.5,-431 923.5,-467"/>
<text text-anchor="middle" x="818" y="-445.3" font-family="Times,serif" font-size="14.00">node_statement (&#39;,&#39;) node_statement</text>
</g>
<!-- node_statement&#45;&gt;node_statement (&#39;,&#39;) node_statement -->
<g id="edge16" class="edge"><title>node_statement&#45;&gt;node_statement (&#39;,&#39;) node_statement</title>
<path fill="none" stroke="grey" d="M806.169,-502.697C804.577,-494.983 804.124,-485.712 804.809,-477.112"/>
<polygon fill="grey" stroke="grey" points="808.29,-477.493 806.21,-467.104 801.358,-476.523 808.29,-477.493"/>
</g>
<!-- node_statement graph_definition&#45;&gt;node_statement -->
<g id="edge10" class="edge"><title>node_statement graph_definition&#45;&gt;node_statement</title>
<path fill="none" stroke="grey" d="M714.514,-574.876C732.841,-565.512 755.736,-553.814 775.328,-543.803"/>
<polygon fill="grey" stroke="grey" points="777.045,-546.857 784.357,-539.19 773.86,-540.623 777.045,-546.857"/>
</g>
<!-- node_statement graph_definition&#45;&gt;graph_definition -->
<g id="edge11" class="edge"><title>node_statement graph_definition&#45;&gt;graph_definition</title>
<path fill="none" stroke="grey" d="M657.777,-611.062C622.725,-636.814 556.216,-685.678 516.725,-714.692"/>
<polygon fill="grey" stroke="grey" points="514.24,-712.174 508.253,-720.916 518.385,-717.816 514.24,-712.174"/>
</g>
<!-- start_node end_node -->
<g id="node16" class="node"><title>start_node end_node</title>
<polygon fill="white" stroke="black" points="937.25,-317 808.75,-317 808.75,-281 937.25,-281 937.25,-317"/>
<text text-anchor="middle" x="873" y="-295.3" font-family="Times,serif" font-size="14.00">start_node end_node</text>
</g>
<!-- node_name&#45;&gt;start_node end_node -->
<g id="edge20" class="edge"><title>node_name&#45;&gt;start_node end_node</title>
<path fill="none" stroke="grey" d="M873,-358.754C873,-349.523 873,-337.935 873,-327.495"/>
<polygon fill="grey" stroke="grey" points="876.5,-327.177 873,-317.177 869.5,-327.177 876.5,-327.177"/>
</g>
<!-- node_name attribute_definition&#45;&gt;node_name -->
<g id="edge14" class="edge"><title>node_name attribute_definition&#45;&gt;node_name</title>
<path fill="none" stroke="grey" d="M666.434,-430.966C714.754,-418.576 779.145,-402.065 823.111,-390.792"/>
<polygon fill="grey" stroke="grey" points="824.179,-394.132 832.996,-388.257 822.44,-387.351 824.179,-394.132"/>
</g>
<!-- attribute_definition -->
<g id="node13" class="node"><title>attribute_definition</title>
<polygon fill="white" stroke="black" points="495.25,-395 374.75,-395 374.75,-359 495.25,-359 495.25,-395"/>
<text text-anchor="middle" x="435" y="-373.3" font-family="Times,serif" font-size="14.00">attribute_definition</text>
</g>
<!-- node_name attribute_definition&#45;&gt;attribute_definition -->
<g id="edge15" class="edge"><title>node_name attribute_definition&#45;&gt;attribute_definition</title>
<path fill="none" stroke="grey" d="M559.636,-430.876C536.98,-421.264 508.527,-409.193 484.53,-399.013"/>
<polygon fill="grey" stroke="grey" points="485.805,-395.752 475.232,-395.068 483.071,-402.196 485.805,-395.752"/>
</g>
<!-- attribute_statement -->
<g id="node31" class="node"><title>attribute_statement</title>
<polygon fill="white" stroke="black" points="495.25,-317 374.75,-317 374.75,-281 495.25,-281 495.25,-317"/>
<text text-anchor="middle" x="435" y="-295.3" font-family="Times,serif" font-size="14.00">attribute_statement</text>
</g>
<!-- attribute_definition&#45;&gt;attribute_statement -->
<g id="edge42" class="edge"><title>attribute_definition&#45;&gt;attribute_statement</title>
<path fill="none" stroke="grey" d="M435,-358.754C435,-349.523 435,-337.935 435,-327.495"/>
<polygon fill="grey" stroke="grey" points="438.5,-327.177 435,-317.177 431.5,-327.177 438.5,-327.177"/>
</g>
<!-- node_statement (&#39;,&#39;) node_statement&#45;&gt;node_statement -->
<g id="edge17" class="edge"><title>node_statement (&#39;,&#39;) node_statement&#45;&gt;node_statement</title>
<path fill="none" stroke="grey" d="M818,-467.104C818,-474.791 818,-484.054 818,-492.665"/>
<polygon fill="grey" stroke="grey" points="814.5,-492.697 818,-502.697 821.5,-492.697 814.5,-492.697"/>
</g>
<!-- (&#39;,&#39;) -->
<g id="node15" class="node"><title>(&#39;,&#39;)</title>
<polygon fill="white" stroke="black" points="699,-395 645,-395 645,-359 699,-359 699,-395"/>
<text text-anchor="middle" x="672" y="-373.3" font-family="Times,serif" font-size="14.00">(&#39;,&#39;)</text>
</g>
<!-- node_statement (&#39;,&#39;) node_statement&#45;&gt;(&#39;,&#39;) -->
<g id="edge18" class="edge"><title>node_statement (&#39;,&#39;) node_statement&#45;&gt;(&#39;,&#39;)</title>
<path fill="none" stroke="grey" d="M782.284,-430.876C759.829,-420.11 730.939,-406.258 708.361,-395.433"/>
<polygon fill="grey" stroke="grey" points="709.639,-392.165 699.109,-390.997 706.613,-398.477 709.639,-392.165"/>
</g>
<!-- node_statement (&#39;,&#39;) node_statement&#45;&gt;node_statement -->
<g id="edge19" class="edge"><title>node_statement (&#39;,&#39;) node_statement&#45;&gt;node_statement</title>
<path fill="none" stroke="grey" d="M829.79,-467.104C831.401,-474.791 831.874,-484.054 831.208,-492.665"/>
<polygon fill="grey" stroke="grey" points="827.724,-492.314 829.831,-502.697 834.659,-493.265 827.724,-492.314"/>
</g>
<!-- start_node -->
<g id="node17" class="node"><title>start_node</title>
<path fill="lightblue" stroke="black" d="M803.5,-192C803.5,-192 852.5,-192 852.5,-192 858.5,-192 864.5,-198 864.5,-204 864.5,-204 864.5,-226 864.5,-226 864.5,-232 858.5,-238 852.5,-238 852.5,-238 803.5,-238 803.5,-238 797.5,-238 791.5,-232 791.5,-226 791.5,-226 791.5,-204 791.5,-204 791.5,-198 797.5,-192 803.5,-192"/>
<text text-anchor="middle" x="828" y="-222.8" font-family="Times,serif" font-size="14.00">꞉lexeme</text>
<polyline fill="none" stroke="black" points="791.5,-215 864.5,-215 "/>
<text text-anchor="middle" x="828" y="-199.8" font-family="Times,serif" font-size="14.00">start_node</text>
</g>
<!-- start_node end_node&#45;&gt;start_node -->
<g id="edge21" class="edge"><title>start_node end_node&#45;&gt;start_node</title>
<path fill="none" stroke="grey" d="M863.457,-280.61C858.082,-270.817 851.212,-258.297 844.952,-246.891"/>
<polygon fill="grey" stroke="grey" points="847.983,-245.138 840.104,-238.055 841.846,-248.506 847.983,-245.138"/>
</g>
<!-- end_node -->
<g id="node19" class="node"><title>end_node</title>
<polygon fill="white" stroke="black" points="951.25,-233 882.75,-233 882.75,-197 951.25,-197 951.25,-233"/>
<text text-anchor="middle" x="917" y="-211.3" font-family="Times,serif" font-size="14.00">end_node</text>
</g>
<!-- start_node end_node&#45;&gt;end_node -->
<g id="edge23" class="edge"><title>start_node end_node&#45;&gt;end_node</title>
<path fill="none" stroke="grey" d="M882.331,-280.61C888.322,-269.446 896.213,-254.739 902.954,-242.177"/>
<polygon fill="grey" stroke="grey" points="906.189,-243.55 907.833,-233.084 900.021,-240.241 906.189,-243.55"/>
</g>
<!-- start_node_0 -->
<g id="node18" class="node"><title>start_node_0</title>
<path fill="lightblue" stroke="black" d="M678,-108C678,-108 780,-108 780,-108 786,-108 792,-114 792,-120 792,-120 792,-142 792,-142 792,-148 786,-154 780,-154 780,-154 678,-154 678,-154 672,-154 666,-148 666,-142 666,-142 666,-120 666,-120 666,-114 672,-108 678,-108"/>
<text text-anchor="middle" x="729" y="-138.8" font-family="Times,serif" font-size="14.00">event =&gt; start_node</text>
<polyline fill="none" stroke="black" points="666,-131 792,-131 "/>
<text text-anchor="middle" x="729" y="-115.8" font-family="Times,serif" font-size="14.00">pause =&gt; before</text>
</g>
<!-- start_node&#45;&gt;start_node_0 -->
<g id="edge22" class="edge"><title>start_node&#45;&gt;start_node_0</title>
<path fill="none" stroke="grey" d="M801.209,-191.81C789.653,-182.238 775.99,-170.921 763.675,-160.72"/>
<polygon fill="grey" stroke="grey" points="765.746,-157.892 755.812,-154.208 761.281,-163.282 765.746,-157.892"/>
</g>
<!-- &#39;[&#39; -->
<g id="node20" class="node"><title>&#39;[&#39;</title>
<polygon fill="white" stroke="black" points="864,-149 810,-149 810,-113 864,-113 864,-149"/>
<text text-anchor="middle" x="837" y="-127.3" font-family="Times,serif" font-size="14.00">&#39;[&#39;</text>
</g>
<!-- start_node&#45;&gt;&#39;[&#39; -->
<g id="edge24" class="edge"><title>start_node&#45;&gt;&#39;[&#39;</title>
<path fill="none" stroke="grey" d="M830.459,-191.593C831.56,-181.564 832.868,-169.652 834.023,-159.123"/>
<polygon fill="grey" stroke="grey" points="837.503,-159.5 835.115,-149.177 830.544,-158.736 837.503,-159.5"/>
</g>
<!-- &#39;]&#39; -->
<g id="node21" class="node"><title>&#39;]&#39;</title>
<polygon fill="white" stroke="black" points="944,-149 890,-149 890,-113 944,-113 944,-149"/>
<text text-anchor="middle" x="917" y="-127.3" font-family="Times,serif" font-size="14.00">&#39;]&#39;</text>
</g>
<!-- end_node&#45;&gt;&#39;]&#39; -->
<g id="edge25" class="edge"><title>end_node&#45;&gt;&#39;]&#39;</title>
<path fill="none" stroke="grey" d="M917,-196.61C917,-185.774 917,-171.601 917,-159.291"/>
<polygon fill="grey" stroke="grey" points="920.5,-159.084 917,-149.084 913.5,-159.084 920.5,-159.084"/>
</g>
<!-- edge_name -->
<g id="node24" class="node"><title>edge_name</title>
<polygon fill="white" stroke="black" points="143.25,-395 64.75,-395 64.75,-359 143.25,-359 143.25,-395"/>
<text text-anchor="middle" x="104" y="-373.3" font-family="Times,serif" font-size="14.00">edge_name</text>
</g>
<!-- edge_statement&#45;&gt;edge_name -->
<g id="edge30" class="edge"><title>edge_statement&#45;&gt;edge_name</title>
<path fill="none" stroke="grey" d="M331.56,-519.258C250.276,-516.875 95.9623,-507.05 62,-467 45.8779,-447.988 61.774,-421.739 78.4295,-402.677"/>
<polygon fill="grey" stroke="grey" points="81.0745,-404.972 85.2753,-395.245 75.9259,-400.229 81.0745,-404.972"/>
</g>
<!-- edge_name attribute_definition -->
<g id="node25" class="node"><title>edge_name attribute_definition</title>
<polygon fill="white" stroke="black" points="258.25,-467 71.75,-467 71.75,-431 258.25,-431 258.25,-467"/>
<text text-anchor="middle" x="165" y="-445.3" font-family="Times,serif" font-size="14.00">edge_name attribute_definition</text>
</g>
<!-- edge_statement&#45;&gt;edge_name attribute_definition -->
<g id="edge31" class="edge"><title>edge_statement&#45;&gt;edge_name attribute_definition</title>
<path fill="none" stroke="grey" d="M331.67,-503.765C300.561,-493.729 260.393,-480.772 227.285,-470.092"/>
<polygon fill="grey" stroke="grey" points="228.294,-466.74 217.703,-467.001 226.145,-473.402 228.294,-466.74"/>
</g>
<!-- edge_statement (&#39;,&#39;) edge_statement -->
<g id="node26" class="node"><title>edge_statement (&#39;,&#39;) edge_statement</title>
<polygon fill="white" stroke="black" points="487.25,-467 276.75,-467 276.75,-431 487.25,-431 487.25,-467"/>
<text text-anchor="middle" x="382" y="-445.3" font-family="Times,serif" font-size="14.00">edge_statement (&#39;,&#39;) edge_statement</text>
</g>
<!-- edge_statement&#45;&gt;edge_statement (&#39;,&#39;) edge_statement -->
<g id="edge34" class="edge"><title>edge_statement&#45;&gt;edge_statement (&#39;,&#39;) edge_statement</title>
<path fill="none" stroke="grey" d="M370.169,-502.697C368.577,-494.983 368.124,-485.712 368.809,-477.112"/>
<polygon fill="grey" stroke="grey" points="372.29,-477.493 370.21,-467.104 365.358,-476.523 372.29,-477.493"/>
</g>
<!-- edge_statement graph_definition&#45;&gt;edge_statement -->
<g id="edge28" class="edge"><title>edge_statement graph_definition&#45;&gt;edge_statement</title>
<path fill="none" stroke="grey" d="M385.764,-574.697C385.213,-566.983 384.551,-557.712 383.937,-549.112"/>
<polygon fill="grey" stroke="grey" points="387.425,-548.83 383.222,-539.104 380.443,-549.328 387.425,-548.83"/>
</g>
<!-- edge_statement graph_definition&#45;&gt;graph_definition -->
<g id="edge29" class="edge"><title>edge_statement graph_definition&#45;&gt;graph_definition</title>
<path fill="none" stroke="grey" d="M391.653,-611.266C397.388,-630.49 408.454,-661.893 425,-685 432.789,-695.878 443.205,-706.07 453.17,-714.553"/>
<polygon fill="grey" stroke="grey" points="451.052,-717.342 461.006,-720.97 455.487,-711.926 451.052,-717.342"/>
</g>
<!-- directed_edge -->
<g id="node27" class="node"><title>directed_edge</title>
<path fill="lightblue" stroke="black" d="M12,-276C12,-276 80,-276 80,-276 86,-276 92,-282 92,-288 92,-288 92,-310 92,-310 92,-316 86,-322 80,-322 80,-322 12,-322 12,-322 6,-322 0,-316 0,-310 0,-310 0,-288 0,-288 0,-282 6,-276 12,-276"/>
<text text-anchor="middle" x="46" y="-306.8" font-family="Times,serif" font-size="14.00">꞉lexeme</text>
<polyline fill="none" stroke="black" points="0,-299 92,-299 "/>
<text text-anchor="middle" x="46" y="-283.8" font-family="Times,serif" font-size="14.00">directed_edge</text>
</g>
<!-- edge_name&#45;&gt;directed_edge -->
<g id="edge38" class="edge"><title>edge_name&#45;&gt;directed_edge</title>
<path fill="none" stroke="grey" d="M90.8389,-358.754C84.3633,-350.269 76.3677,-339.792 68.9298,-330.046"/>
<polygon fill="grey" stroke="grey" points="71.7079,-327.917 62.8588,-322.091 66.1432,-332.164 71.7079,-327.917"/>
</g>
<!-- undirected_edge -->
<g id="node28" class="node"><title>undirected_edge</title>
<path fill="lightblue" stroke="black" d="M122,-276C122,-276 204,-276 204,-276 210,-276 216,-282 216,-288 216,-288 216,-310 216,-310 216,-316 210,-322 204,-322 204,-322 122,-322 122,-322 116,-322 110,-316 110,-310 110,-310 110,-288 110,-288 110,-282 116,-276 122,-276"/>
<text text-anchor="middle" x="163" y="-306.8" font-family="Times,serif" font-size="14.00">꞉lexeme</text>
<polyline fill="none" stroke="black" points="110,-299 216,-299 "/>
<text text-anchor="middle" x="163" y="-283.8" font-family="Times,serif" font-size="14.00">undirected_edge</text>
</g>
<!-- edge_name&#45;&gt;undirected_edge -->
<g id="edge39" class="edge"><title>edge_name&#45;&gt;undirected_edge</title>
<path fill="none" stroke="grey" d="M117.388,-358.754C123.975,-350.269 132.109,-339.792 139.675,-330.046"/>
<polygon fill="grey" stroke="grey" points="142.483,-332.136 145.851,-322.091 136.954,-327.844 142.483,-332.136"/>
</g>
<!-- edge_name attribute_definition&#45;&gt;edge_name -->
<g id="edge32" class="edge"><title>edge_name attribute_definition&#45;&gt;edge_name</title>
<path fill="none" stroke="grey" d="M149.921,-430.697C142.608,-422.305 133.69,-412.07 125.665,-402.861"/>
<polygon fill="grey" stroke="grey" points="128.114,-400.344 118.905,-395.104 122.836,-404.943 128.114,-400.344"/>
</g>
<!-- edge_name attribute_definition&#45;&gt;attribute_definition -->
<g id="edge33" class="edge"><title>edge_name attribute_definition&#45;&gt;attribute_definition</title>
<path fill="none" stroke="grey" d="M230.704,-430.966C271.311,-420.438 323.395,-406.935 364.81,-396.197"/>
<polygon fill="grey" stroke="grey" points="365.752,-399.569 374.553,-393.671 363.995,-392.793 365.752,-399.569"/>
</g>
<!-- edge_statement (&#39;,&#39;) edge_statement&#45;&gt;edge_statement -->
<g id="edge35" class="edge"><title>edge_statement (&#39;,&#39;) edge_statement&#45;&gt;edge_statement</title>
<path fill="none" stroke="grey" d="M382,-467.104C382,-474.791 382,-484.054 382,-492.665"/>
<polygon fill="grey" stroke="grey" points="378.5,-492.697 382,-502.697 385.5,-492.697 378.5,-492.697"/>
</g>
<!-- edge_statement (&#39;,&#39;) edge_statement&#45;&gt;(&#39;,&#39;) -->
<g id="edge36" class="edge"><title>edge_statement (&#39;,&#39;) edge_statement&#45;&gt;(&#39;,&#39;)</title>
<path fill="none" stroke="grey" d="M452.571,-430.966C510.087,-417.082 589.038,-398.025 634.879,-386.96"/>
<polygon fill="grey" stroke="grey" points="635.789,-390.341 644.688,-384.592 634.146,-383.537 635.789,-390.341"/>
</g>
<!-- edge_statement (&#39;,&#39;) edge_statement&#45;&gt;edge_statement -->
<g id="edge37" class="edge"><title>edge_statement (&#39;,&#39;) edge_statement&#45;&gt;edge_statement</title>
<path fill="none" stroke="grey" d="M393.79,-467.104C395.401,-474.791 395.874,-484.054 395.208,-492.665"/>
<polygon fill="grey" stroke="grey" points="391.724,-492.314 393.831,-502.697 398.659,-493.265 391.724,-492.314"/>
</g>
<!-- &#39;&#45;\&gt;&#39; -->
<g id="node29" class="node"><title>&#39;&#45;\&gt;&#39;</title>
<polygon fill="white" stroke="black" points="73,-233 19,-233 19,-197 73,-197 73,-233"/>
<text text-anchor="middle" x="46" y="-211.3" font-family="Times,serif" font-size="14.00">&#39;&#45;&gt;&#39;</text>
</g>
<!-- directed_edge&#45;&gt;&#39;&#45;\&gt;&#39; -->
<g id="edge40" class="edge"><title>directed_edge&#45;&gt;&#39;&#45;\&gt;&#39;</title>
<path fill="none" stroke="grey" d="M46,-275.593C46,-265.668 46,-253.9 46,-243.453"/>
<polygon fill="grey" stroke="grey" points="49.5001,-243.177 46,-233.177 42.5001,-243.177 49.5001,-243.177"/>
</g>
<!-- &#39;&#45;&#45;&#39; -->
<g id="node30" class="node"><title>&#39;&#45;&#45;&#39;</title>
<polygon fill="white" stroke="black" points="190,-233 136,-233 136,-197 190,-197 190,-233"/>
<text text-anchor="middle" x="163" y="-211.3" font-family="Times,serif" font-size="14.00">&#39;&#45;&#45;&#39;</text>
</g>
<!-- undirected_edge&#45;&gt;&#39;&#45;&#45;&#39; -->
<g id="edge41" class="edge"><title>undirected_edge&#45;&gt;&#39;&#45;&#45;&#39;</title>
<path fill="none" stroke="grey" d="M163,-275.593C163,-265.668 163,-253.9 163,-243.453"/>
<polygon fill="grey" stroke="grey" points="166.5,-243.177 163,-233.177 159.5,-243.177 166.5,-243.177"/>
</g>
<!-- start_attributes end_attributes -->
<g id="node32" class="node"><title>start_attributes end_attributes</title>
<polygon fill="white" stroke="black" points="523.25,-233 346.75,-233 346.75,-197 523.25,-197 523.25,-233"/>
<text text-anchor="middle" x="435" y="-211.3" font-family="Times,serif" font-size="14.00">start_attributes end_attributes</text>
</g>
<!-- attribute_statement&#45;&gt;start_attributes end_attributes -->
<g id="edge43" class="edge"><title>attribute_statement&#45;&gt;start_attributes end_attributes</title>
<path fill="none" stroke="grey" d="M435,-280.61C435,-269.774 435,-255.601 435,-243.291"/>
<polygon fill="grey" stroke="grey" points="438.5,-243.084 435,-233.084 431.5,-243.084 438.5,-243.084"/>
</g>
<!-- start_attributes -->
<g id="node33" class="node"><title>start_attributes</title>
<path fill="lightblue" stroke="black" d="M475.5,-108C475.5,-108 548.5,-108 548.5,-108 554.5,-108 560.5,-114 560.5,-120 560.5,-120 560.5,-142 560.5,-142 560.5,-148 554.5,-154 548.5,-154 548.5,-154 475.5,-154 475.5,-154 469.5,-154 463.5,-148 463.5,-142 463.5,-142 463.5,-120 463.5,-120 463.5,-114 469.5,-108 475.5,-108"/>
<text text-anchor="middle" x="512" y="-138.8" font-family="Times,serif" font-size="14.00">꞉lexeme</text>
<polyline fill="none" stroke="black" points="463.5,-131 560.5,-131 "/>
<text text-anchor="middle" x="512" y="-115.8" font-family="Times,serif" font-size="14.00">start_attributes</text>
</g>
<!-- start_attributes end_attributes&#45;&gt;start_attributes -->
<g id="edge44" class="edge"><title>start_attributes end_attributes&#45;&gt;start_attributes</title>
<path fill="none" stroke="grey" d="M451.33,-196.61C460.89,-186.429 473.217,-173.301 484.26,-161.541"/>
<polygon fill="grey" stroke="grey" points="486.996,-163.741 491.289,-154.055 481.893,-158.949 486.996,-163.741"/>
</g>
<!-- end_attributes -->
<g id="node35" class="node"><title>end_attributes</title>
<polygon fill="white" stroke="black" points="445.25,-149 352.75,-149 352.75,-113 445.25,-113 445.25,-149"/>
<text text-anchor="middle" x="399" y="-127.3" font-family="Times,serif" font-size="14.00">end_attributes</text>
</g>
<!-- start_attributes end_attributes&#45;&gt;end_attributes -->
<g id="edge46" class="edge"><title>start_attributes end_attributes&#45;&gt;end_attributes</title>
<path fill="none" stroke="grey" d="M427.365,-196.61C422.512,-185.555 416.134,-171.027 410.655,-158.548"/>
<polygon fill="grey" stroke="grey" points="413.725,-156.833 406.5,-149.084 407.315,-159.647 413.725,-156.833"/>
</g>
<!-- start_attributes_0 -->
<g id="node34" class="node"><title>start_attributes_0</title>
<path fill="lightblue" stroke="black" d="M548,-24C548,-24 674,-24 674,-24 680,-24 686,-30 686,-36 686,-36 686,-58 686,-58 686,-64 680,-70 674,-70 674,-70 548,-70 548,-70 542,-70 536,-64 536,-58 536,-58 536,-36 536,-36 536,-30 542,-24 548,-24"/>
<text text-anchor="middle" x="611" y="-54.8" font-family="Times,serif" font-size="14.00">event =&gt; start_attributes</text>
<polyline fill="none" stroke="black" points="536,-47 686,-47 "/>
<text text-anchor="middle" x="611" y="-31.8" font-family="Times,serif" font-size="14.00">pause =&gt; before</text>
</g>
<!-- start_attributes&#45;&gt;start_attributes_0 -->
<g id="edge45" class="edge"><title>start_attributes&#45;&gt;start_attributes_0</title>
<path fill="none" stroke="grey" d="M538.791,-107.81C550.347,-98.2382 564.01,-86.9207 576.325,-76.7203"/>
<polygon fill="grey" stroke="grey" points="578.719,-79.2825 584.188,-70.2081 574.254,-73.8915 578.719,-79.2825"/>
</g>
<!-- &#39;{&#39; -->
<g id="node36" class="node"><title>&#39;{&#39;</title>
<polygon fill="white" stroke="black" points="518,-65 464,-65 464,-29 518,-29 518,-65"/>
<text text-anchor="middle" x="491" y="-43.3" font-family="Times,serif" font-size="14.00">&#39;{&#39;</text>
</g>
<!-- start_attributes&#45;&gt;&#39;{&#39; -->
<g id="edge47" class="edge"><title>start_attributes&#45;&gt;&#39;{&#39;</title>
<path fill="none" stroke="grey" d="M506.262,-107.593C503.693,-97.564 500.642,-85.6516 497.946,-75.1233"/>
<polygon fill="grey" stroke="grey" points="501.271,-73.9964 495.399,-65.1774 494.489,-75.7331 501.271,-73.9964"/>
</g>
<!-- &#39;}&#39; -->
<g id="node37" class="node"><title>&#39;}&#39;</title>
<polygon fill="white" stroke="black" points="426,-65 372,-65 372,-29 426,-29 426,-65"/>
<text text-anchor="middle" x="399" y="-43.3" font-family="Times,serif" font-size="14.00">&#39;}&#39;</text>
</g>
<!-- end_attributes&#45;&gt;&#39;}&#39; -->
<g id="edge48" class="edge"><title>end_attributes&#45;&gt;&#39;}&#39;</title>
<path fill="none" stroke="grey" d="M399,-112.61C399,-101.774 399,-87.6012 399,-75.2913"/>
<polygon fill="grey" stroke="grey" points="402.5,-75.0838 399,-65.0838 395.5,-75.0839 402.5,-75.0838"/>
</g>
</g>
</svg>
