<?xml version="1.0" encoding="UTF-8" standalone="no"?>
<!DOCTYPE svg PUBLIC "-//W3C//DTD SVG 1.1//EN"
 "http://www.w3.org/Graphics/SVG/1.1/DTD/svg11.dtd">
<!-- Generated by graphviz version 2.38.0 (20140413.2041)
 -->
<!-- Title: Perl Pages: 1 -->
<svg width="1084pt" height="923pt"
 viewBox="0.00 0.00 1084.17 923.00" xmlns="http://www.w3.org/2000/svg" xmlns:xlink="http://www.w3.org/1999/xlink">
<g id="graph0" class="graph" transform="scale(1 1) rotate(0) translate(4 919)">
<title>Perl</title>
<polygon fill="white" stroke="none" points="-4,4 -4,-919 1080.17,-919 1080.17,4 -4,4"/>
<text text-anchor="middle" x="538.086" y="-7.8" font-family="Times,serif" font-size="14.00">stringparser.bnf</text>
<!-- graph_grammar -->
<g id="node1" class="node"><title>graph_grammar</title>
<path fill="lightgreen" stroke="black" d="M405,-868.5C405,-868.5 485,-868.5 485,-868.5 491,-868.5 497,-874.5 497,-880.5 497,-880.5 497,-902.5 497,-902.5 497,-908.5 491,-914.5 485,-914.5 485,-914.5 405,-914.5 405,-914.5 399,-914.5 393,-908.5 393,-902.5 393,-902.5 393,-880.5 393,-880.5 393,-874.5 399,-868.5 405,-868.5"/>
<text text-anchor="middle" x="445" y="-899.3" font-family="Times,serif" font-size="14.00">:start</text>
<polyline fill="none" stroke="black" points="393,-891.5 497,-891.5 "/>
<text text-anchor="middle" x="445" y="-876.3" font-family="Times,serif" font-size="14.00">graph_grammar</text>
</g>
<!-- ꞉default -->
<g id="node2" class="node"><title>꞉default</title>
<polygon fill="lightblue" stroke="black" points="378.5,-832 319.5,-832 319.5,-796 378.5,-796 378.5,-832"/>
<text text-anchor="middle" x="349" y="-810.3" font-family="Times,serif" font-size="14.00">꞉default</text>
</g>
<!-- graph_grammar&#45;&gt;꞉default -->
<g id="edge1" class="edge"><title>graph_grammar&#45;&gt;꞉default</title>
<path fill="none" stroke="grey" d="M416.975,-868.459C405.014,-859.052 391.039,-848.062 378.881,-838.5"/>
<polygon fill="grey" stroke="grey" points="380.826,-835.577 370.802,-832.146 376.498,-841.079 380.826,-835.577"/>
</g>
<!-- ꞉discard -->
<g id="node4" class="node"><title>꞉discard</title>
<polygon fill="lightblue" stroke="black" points="475,-832 415,-832 415,-796 475,-796 475,-832"/>
<text text-anchor="middle" x="445" y="-810.3" font-family="Times,serif" font-size="14.00">꞉discard</text>
</g>
<!-- graph_grammar&#45;&gt;꞉discard -->
<g id="edge3" class="edge"><title>graph_grammar&#45;&gt;꞉discard</title>
<path fill="none" stroke="grey" d="M445,-868.256C445,-860.182 445,-850.962 445,-842.489"/>
<polygon fill="grey" stroke="grey" points="448.5,-842.298 445,-832.298 441.5,-842.298 448.5,-842.298"/>
</g>
<!-- graph_definition -->
<g id="node6" class="node"><title>graph_definition</title>
<polygon fill="white" stroke="black" points="744.5,-832 637.5,-832 637.5,-796 744.5,-796 744.5,-832"/>
<text text-anchor="middle" x="691" y="-810.3" font-family="Times,serif" font-size="14.00">graph_definition</text>
</g>
<!-- graph_grammar&#45;&gt;graph_definition -->
<g id="edge5" class="edge"><title>graph_grammar&#45;&gt;graph_definition</title>
<path fill="none" stroke="grey" d="M497.17,-874.488C535.216,-862.812 586.977,-846.926 627.44,-834.507"/>
<polygon fill="grey" stroke="grey" points="628.671,-837.791 637.204,-831.51 626.617,-831.099 628.671,-837.791"/>
</g>
<!-- ꞉default_1 -->
<g id="node3" class="node"><title>꞉default_1</title>
<path fill="goldenrod" stroke="black" d="M283.5,-723.5C283.5,-723.5 376.5,-723.5 376.5,-723.5 382.5,-723.5 388.5,-729.5 388.5,-735.5 388.5,-735.5 388.5,-747.5 388.5,-747.5 388.5,-753.5 382.5,-759.5 376.5,-759.5 376.5,-759.5 283.5,-759.5 283.5,-759.5 277.5,-759.5 271.5,-753.5 271.5,-747.5 271.5,-747.5 271.5,-735.5 271.5,-735.5 271.5,-729.5 277.5,-723.5 283.5,-723.5"/>
<text text-anchor="middle" x="330" y="-737.8" font-family="Times,serif" font-size="14.00">action =&gt; [values]</text>
</g>
<!-- ꞉default&#45;&gt;꞉default_1 -->
<g id="edge2" class="edge"><title>꞉default&#45;&gt;꞉default_1</title>
<path fill="none" stroke="grey" d="M344.401,-795.934C342.285,-788.084 339.723,-778.578 337.35,-769.772"/>
<polygon fill="grey" stroke="grey" points="340.671,-768.643 334.689,-759.899 333.912,-770.465 340.671,-768.643"/>
</g>
<!-- whitespace -->
<g id="node5" class="node"><title>whitespace</title>
<polygon fill="lightblue" stroke="black" points="483.5,-759.5 406.5,-759.5 406.5,-723.5 483.5,-723.5 483.5,-759.5"/>
<text text-anchor="middle" x="445" y="-737.8" font-family="Times,serif" font-size="14.00">whitespace</text>
</g>
<!-- ꞉discard&#45;&gt;whitespace -->
<g id="edge4" class="edge"><title>꞉discard&#45;&gt;whitespace</title>
<path fill="none" stroke="grey" d="M445,-795.934C445,-788.17 445,-778.784 445,-770.06"/>
<polygon fill="grey" stroke="grey" points="448.5,-769.899 445,-759.899 441.5,-769.899 448.5,-769.899"/>
</g>
<!-- [\\s] -->
<g id="node41" class="node"><title>[\\s]</title>
<polygon fill="white" stroke="black" points="422,-687 368,-687 368,-651 422,-651 422,-687"/>
<text text-anchor="middle" x="395" y="-665.3" font-family="Times,serif" font-size="14.00">[\s]+</text>
</g>
<!-- whitespace&#45;&gt;[\\s] -->
<g id="edge52" class="edge"><title>whitespace&#45;&gt;[\\s]</title>
<path fill="none" stroke="grey" d="M432.896,-723.434C426.966,-715.072 419.703,-704.831 413.127,-695.559"/>
<polygon fill="grey" stroke="grey" points="415.979,-693.531 407.339,-687.399 410.27,-697.58 415.979,-693.531"/>
</g>
<!-- graph_definition_attributes -->
<g id="node7" class="node"><title>graph_definition_attributes</title>
<path fill="goldenrod" stroke="black" d="M891,-723.5C891,-723.5 971,-723.5 971,-723.5 977,-723.5 983,-729.5 983,-735.5 983,-735.5 983,-747.5 983,-747.5 983,-753.5 977,-759.5 971,-759.5 971,-759.5 891,-759.5 891,-759.5 885,-759.5 879,-753.5 879,-747.5 879,-747.5 879,-735.5 879,-735.5 879,-729.5 885,-723.5 891,-723.5"/>
<text text-anchor="middle" x="931" y="-737.8" font-family="Times,serif" font-size="14.00">action =&gt; graph</text>
</g>
<!-- graph_definition&#45;&gt;graph_definition_attributes -->
<g id="edge6" class="edge"><title>graph_definition&#45;&gt;graph_definition_attributes</title>
<path fill="none" stroke="grey" d="M744.562,-797.266C781.339,-786.463 830.274,-772.088 868.782,-760.777"/>
<polygon fill="grey" stroke="grey" points="870.231,-763.999 878.839,-757.822 868.258,-757.283 870.231,-763.999"/>
</g>
<!-- node_definition -->
<g id="node8" class="node"><title>node_definition</title>
<polygon fill="white" stroke="black" points="703,-759.5 601,-759.5 601,-723.5 703,-723.5 703,-759.5"/>
<text text-anchor="middle" x="652" y="-737.8" font-family="Times,serif" font-size="14.00">node_definition</text>
</g>
<!-- graph_definition&#45;&gt;node_definition -->
<g id="edge7" class="edge"><title>graph_definition&#45;&gt;node_definition</title>
<path fill="none" stroke="grey" d="M681.559,-795.934C677.075,-787.828 671.614,-777.956 666.612,-768.913"/>
<polygon fill="grey" stroke="grey" points="669.528,-766.955 661.625,-759.899 663.403,-770.343 669.528,-766.955"/>
</g>
<!-- edge_definition -->
<g id="node9" class="node"><title>edge_definition</title>
<polygon fill="white" stroke="black" points="860.5,-759.5 759.5,-759.5 759.5,-723.5 860.5,-723.5 860.5,-759.5"/>
<text text-anchor="middle" x="810" y="-737.8" font-family="Times,serif" font-size="14.00">edge_definition</text>
</g>
<!-- graph_definition&#45;&gt;edge_definition -->
<g id="edge8" class="edge"><title>graph_definition&#45;&gt;edge_definition</title>
<path fill="none" stroke="grey" d="M719.807,-795.934C735.622,-786.564 755.421,-774.834 772.438,-764.753"/>
<polygon fill="grey" stroke="grey" points="774.227,-767.762 781.046,-759.653 770.659,-761.739 774.227,-767.762"/>
</g>
<!-- node_statement -->
<g id="node10" class="node"><title>node_statement</title>
<polygon fill="white" stroke="black" points="571,-615 469,-615 469,-579 571,-579 571,-615"/>
<text text-anchor="middle" x="520" y="-593.3" font-family="Times,serif" font-size="14.00">node_statement</text>
</g>
<!-- node_definition&#45;&gt;node_statement -->
<g id="edge9" class="edge"><title>node_definition&#45;&gt;node_statement</title>
<path fill="none" stroke="grey" d="M655.564,-723.229C658.552,-703.775 660.206,-672.124 645,-651 629.871,-629.982 604.706,-617.243 580.905,-609.548"/>
<polygon fill="grey" stroke="grey" points="581.758,-606.15 571.174,-606.646 579.757,-612.858 581.758,-606.15"/>
</g>
<!-- node_statement graph_definition -->
<g id="node11" class="node"><title>node_statement graph_definition</title>
<polygon fill="white" stroke="black" points="636,-687 440,-687 440,-651 636,-651 636,-687"/>
<text text-anchor="middle" x="538" y="-665.3" font-family="Times,serif" font-size="14.00">node_statement graph_definition</text>
</g>
<!-- node_definition&#45;&gt;node_statement graph_definition -->
<g id="edge10" class="edge"><title>node_definition&#45;&gt;node_statement graph_definition</title>
<path fill="none" stroke="grey" d="M624.404,-723.434C609.392,-714.15 590.633,-702.549 574.434,-692.531"/>
<polygon fill="grey" stroke="grey" points="576.083,-689.436 565.737,-687.153 572.401,-695.39 576.083,-689.436"/>
</g>
<!-- edge_statement -->
<g id="node23" class="node"><title>edge_statement</title>
<polygon fill="white" stroke="black" points="1004.5,-615 903.5,-615 903.5,-579 1004.5,-579 1004.5,-615"/>
<text text-anchor="middle" x="954" y="-593.3" font-family="Times,serif" font-size="14.00">edge_statement</text>
</g>
<!-- edge_definition&#45;&gt;edge_statement -->
<g id="edge27" class="edge"><title>edge_definition&#45;&gt;edge_statement</title>
<path fill="none" stroke="grey" d="M860.597,-723.979C880.267,-715.488 901.701,-703.403 917,-687 933.253,-669.574 942.873,-643.995 948.21,-624.726"/>
<polygon fill="grey" stroke="grey" points="951.603,-625.587 950.687,-615.032 944.82,-623.854 951.603,-625.587"/>
</g>
<!-- edge_statement graph_definition -->
<g id="node24" class="node"><title>edge_statement graph_definition</title>
<polygon fill="white" stroke="black" points="907.5,-687 712.5,-687 712.5,-651 907.5,-651 907.5,-687"/>
<text text-anchor="middle" x="810" y="-665.3" font-family="Times,serif" font-size="14.00">edge_statement graph_definition</text>
</g>
<!-- edge_definition&#45;&gt;edge_statement graph_definition -->
<g id="edge28" class="edge"><title>edge_definition&#45;&gt;edge_statement graph_definition</title>
<path fill="none" stroke="grey" d="M810,-723.434C810,-715.67 810,-706.284 810,-697.56"/>
<polygon fill="grey" stroke="grey" points="813.5,-697.399 810,-687.399 806.5,-697.399 813.5,-697.399"/>
</g>
<!-- node_name -->
<g id="node12" class="node"><title>node_name</title>
<polygon fill="white" stroke="black" points="243,-471 163,-471 163,-435 243,-435 243,-471"/>
<text text-anchor="middle" x="203" y="-449.3" font-family="Times,serif" font-size="14.00">node_name</text>
</g>
<!-- node_statement&#45;&gt;node_name -->
<g id="edge13" class="edge"><title>node_statement&#45;&gt;node_name</title>
<path fill="none" stroke="grey" d="M468.746,-595.264C387.039,-592.884 232.984,-583.056 199,-543 184.75,-526.205 187.592,-500.555 192.919,-481.098"/>
<polygon fill="grey" stroke="grey" points="196.34,-481.883 195.948,-471.296 189.652,-479.817 196.34,-481.883"/>
</g>
<!-- node_name attribute_definition -->
<g id="node13" class="node"><title>node_name attribute_definition</title>
<polygon fill="white" stroke="black" points="396,-543 208,-543 208,-507 396,-507 396,-543"/>
<text text-anchor="middle" x="302" y="-521.3" font-family="Times,serif" font-size="14.00">node_name attribute_definition</text>
</g>
<!-- node_statement&#45;&gt;node_name attribute_definition -->
<g id="edge14" class="edge"><title>node_statement&#45;&gt;node_name attribute_definition</title>
<path fill="none" stroke="grey" d="M468.889,-579.588C437.733,-569.584 397.689,-556.726 364.636,-546.113"/>
<polygon fill="grey" stroke="grey" points="365.659,-542.765 355.067,-543.04 363.519,-549.43 365.659,-542.765"/>
</g>
<!-- node_statement (&#39;,&#39;) node_statement -->
<g id="node15" class="node"><title>node_statement (&#39;,&#39;) node_statement</title>
<polygon fill="white" stroke="black" points="626,-543 414,-543 414,-507 626,-507 626,-543"/>
<text text-anchor="middle" x="520" y="-521.3" font-family="Times,serif" font-size="14.00">node_statement (&#39;,&#39;) node_statement</text>
</g>
<!-- node_statement&#45;&gt;node_statement (&#39;,&#39;) node_statement -->
<g id="edge17" class="edge"><title>node_statement&#45;&gt;node_statement (&#39;,&#39;) node_statement</title>
<path fill="none" stroke="grey" d="M508.169,-578.697C506.577,-570.983 506.124,-561.712 506.809,-553.112"/>
<polygon fill="grey" stroke="grey" points="510.29,-553.493 508.21,-543.104 503.358,-552.523 510.29,-553.493"/>
</g>
<!-- node_statement graph_definition&#45;&gt;graph_definition -->
<g id="edge12" class="edge"><title>node_statement graph_definition&#45;&gt;graph_definition</title>
<path fill="none" stroke="grey" d="M544.897,-687.109C553.503,-706.727 569.831,-738.889 592,-760 605.218,-772.587 622.01,-783.057 637.993,-791.273"/>
<polygon fill="grey" stroke="grey" points="636.76,-794.568 647.277,-795.85 639.855,-788.289 636.76,-794.568"/>
</g>
<!-- node_statement graph_definition&#45;&gt;node_statement -->
<g id="edge11" class="edge"><title>node_statement graph_definition&#45;&gt;node_statement</title>
<path fill="none" stroke="grey" d="M533.551,-650.697C531.545,-642.898 529.131,-633.509 526.899,-624.829"/>
<polygon fill="grey" stroke="grey" points="530.278,-623.918 524.398,-615.104 523.499,-625.661 530.278,-623.918"/>
</g>
<!-- start_node end_node -->
<g id="node17" class="node"><title>start_node end_node</title>
<polygon fill="white" stroke="black" points="267.5,-393.5 138.5,-393.5 138.5,-357.5 267.5,-357.5 267.5,-393.5"/>
<text text-anchor="middle" x="203" y="-371.8" font-family="Times,serif" font-size="14.00">start_node end_node</text>
</g>
<!-- node_name&#45;&gt;start_node end_node -->
<g id="edge21" class="edge"><title>node_name&#45;&gt;start_node end_node</title>
<path fill="none" stroke="grey" d="M203,-434.868C203,-425.697 203,-414.185 203,-403.814"/>
<polygon fill="grey" stroke="grey" points="206.5,-403.564 203,-393.564 199.5,-403.564 206.5,-403.564"/>
</g>
<!-- node_name attribute_definition&#45;&gt;node_name -->
<g id="edge15" class="edge"><title>node_name attribute_definition&#45;&gt;node_name</title>
<path fill="none" stroke="grey" d="M277.782,-506.876C265.077,-497.893 249.336,-486.763 235.577,-477.034"/>
<polygon fill="grey" stroke="grey" points="237.497,-474.105 227.311,-471.19 233.456,-479.821 237.497,-474.105"/>
</g>
<!-- attribute_definition -->
<g id="node14" class="node"><title>attribute_definition</title>
<polygon fill="white" stroke="black" points="485.5,-471 364.5,-471 364.5,-435 485.5,-435 485.5,-471"/>
<text text-anchor="middle" x="425" y="-449.3" font-family="Times,serif" font-size="14.00">attribute_definition</text>
</g>
<!-- node_name attribute_definition&#45;&gt;attribute_definition -->
<g id="edge16" class="edge"><title>node_name attribute_definition&#45;&gt;attribute_definition</title>
<path fill="none" stroke="grey" d="M332.089,-506.876C348.32,-497.639 368.542,-486.131 385.971,-476.212"/>
<polygon fill="grey" stroke="grey" points="387.835,-479.178 394.795,-471.19 384.373,-473.094 387.835,-479.178"/>
</g>
<!-- attribute_statement -->
<g id="node34" class="node"><title>attribute_statement</title>
<polygon fill="white" stroke="black" points="489,-393.5 361,-393.5 361,-357.5 489,-357.5 489,-393.5"/>
<text text-anchor="middle" x="425" y="-371.8" font-family="Times,serif" font-size="14.00">attribute_statement*</text>
</g>
<!-- attribute_definition&#45;&gt;attribute_statement -->
<g id="edge45" class="edge"><title>attribute_definition&#45;&gt;attribute_statement</title>
<path fill="none" stroke="grey" d="M425,-434.868C425,-425.697 425,-414.185 425,-403.814"/>
<polygon fill="grey" stroke="grey" points="428.5,-403.564 425,-393.564 421.5,-403.564 428.5,-403.564"/>
</g>
<!-- node_statement (&#39;,&#39;) node_statement&#45;&gt;node_statement -->
<g id="edge18" class="edge"><title>node_statement (&#39;,&#39;) node_statement&#45;&gt;node_statement</title>
<path fill="none" stroke="grey" d="M520,-543.104C520,-550.791 520,-560.054 520,-568.665"/>
<polygon fill="grey" stroke="grey" points="516.5,-568.697 520,-578.697 523.5,-568.697 516.5,-568.697"/>
</g>
<!-- node_statement (&#39;,&#39;) node_statement&#45;&gt;node_statement -->
<g id="edge20" class="edge"><title>node_statement (&#39;,&#39;) node_statement&#45;&gt;node_statement</title>
<path fill="none" stroke="grey" d="M531.79,-543.104C533.401,-550.791 533.874,-560.054 533.208,-568.665"/>
<polygon fill="grey" stroke="grey" points="529.724,-568.314 531.831,-578.697 536.659,-569.265 529.724,-568.314"/>
</g>
<!-- (&#39;,&#39;) -->
<g id="node16" class="node"><title>(&#39;,&#39;)</title>
<polygon fill="white" stroke="black" points="672,-471 618,-471 618,-435 672,-435 672,-471"/>
<text text-anchor="middle" x="645" y="-449.3" font-family="Times,serif" font-size="14.00">(&#39;,&#39;)</text>
</g>
<!-- node_statement (&#39;,&#39;) node_statement&#45;&gt;(&#39;,&#39;) -->
<g id="edge19" class="edge"><title>node_statement (&#39;,&#39;) node_statement&#45;&gt;(&#39;,&#39;)</title>
<path fill="none" stroke="grey" d="M550.578,-506.876C568.219,-496.998 590.496,-484.522 608.982,-474.17"/>
<polygon fill="grey" stroke="grey" points="610.701,-477.219 617.715,-469.279 607.28,-471.112 610.701,-477.219"/>
</g>
<!-- start_node -->
<g id="node18" class="node"><title>start_node</title>
<path fill="orchid" stroke="black" d="M137.5,-269.5C137.5,-269.5 186.5,-269.5 186.5,-269.5 192.5,-269.5 198.5,-275.5 198.5,-281.5 198.5,-281.5 198.5,-303.5 198.5,-303.5 198.5,-309.5 192.5,-315.5 186.5,-315.5 186.5,-315.5 137.5,-315.5 137.5,-315.5 131.5,-315.5 125.5,-309.5 125.5,-303.5 125.5,-303.5 125.5,-281.5 125.5,-281.5 125.5,-275.5 131.5,-269.5 137.5,-269.5"/>
<text text-anchor="middle" x="162" y="-300.3" font-family="Times,serif" font-size="14.00">lexeme</text>
<polyline fill="none" stroke="black" points="125.5,-292.5 198.5,-292.5 "/>
<text text-anchor="middle" x="162" y="-277.3" font-family="Times,serif" font-size="14.00">start_node</text>
</g>
<!-- start_node end_node&#45;&gt;start_node -->
<g id="edge22" class="edge"><title>start_node end_node&#45;&gt;start_node</title>
<path fill="none" stroke="grey" d="M194.305,-357.322C189.494,-347.816 183.366,-335.711 177.744,-324.603"/>
<polygon fill="grey" stroke="grey" points="180.819,-322.928 173.18,-315.587 174.573,-326.09 180.819,-322.928"/>
</g>
<!-- end_node -->
<g id="node20" class="node"><title>end_node</title>
<polygon fill="white" stroke="black" points="285.5,-310.5 216.5,-310.5 216.5,-274.5 285.5,-274.5 285.5,-310.5"/>
<text text-anchor="middle" x="251" y="-288.8" font-family="Times,serif" font-size="14.00">end_node</text>
</g>
<!-- start_node end_node&#45;&gt;end_node -->
<g id="edge24" class="edge"><title>start_node end_node&#45;&gt;end_node</title>
<path fill="none" stroke="grey" d="M213.18,-357.322C219.671,-346.368 228.208,-331.962 235.528,-319.608"/>
<polygon fill="grey" stroke="grey" points="238.748,-321.041 240.835,-310.653 232.726,-317.472 238.748,-321.041"/>
</g>
<!-- start_node_0 -->
<g id="node19" class="node"><title>start_node_0</title>
<path fill="lightblue" stroke="black" d="M12,-186.5C12,-186.5 114,-186.5 114,-186.5 120,-186.5 126,-192.5 126,-198.5 126,-198.5 126,-220.5 126,-220.5 126,-226.5 120,-232.5 114,-232.5 114,-232.5 12,-232.5 12,-232.5 6,-232.5 0,-226.5 0,-220.5 0,-220.5 0,-198.5 0,-198.5 0,-192.5 6,-186.5 12,-186.5"/>
<text text-anchor="middle" x="63" y="-217.3" font-family="Times,serif" font-size="14.00">event =&gt; start_node</text>
<polyline fill="none" stroke="black" points="0,-209.5 126,-209.5 "/>
<text text-anchor="middle" x="63" y="-194.3" font-family="Times,serif" font-size="14.00">pause =&gt; before</text>
</g>
<!-- start_node&#45;&gt;start_node_0 -->
<g id="edge23" class="edge"><title>start_node&#45;&gt;start_node_0</title>
<path fill="none" stroke="grey" d="M134.948,-269.366C123.489,-259.991 109.994,-248.949 97.8055,-238.977"/>
<polygon fill="grey" stroke="grey" points="99.9754,-236.23 90.0195,-232.607 95.5427,-241.648 99.9754,-236.23"/>
</g>
<!-- &#39;[&#39; -->
<g id="node21" class="node"><title>&#39;[&#39;</title>
<polygon fill="white" stroke="black" points="198,-227.5 144,-227.5 144,-191.5 198,-191.5 198,-227.5"/>
<text text-anchor="middle" x="171" y="-205.8" font-family="Times,serif" font-size="14.00">&#39;[&#39;</text>
</g>
<!-- start_node&#45;&gt;&#39;[&#39; -->
<g id="edge25" class="edge"><title>start_node&#45;&gt;&#39;[&#39;</title>
<path fill="none" stroke="grey" d="M164.459,-269.366C165.541,-259.632 166.822,-248.102 167.962,-237.838"/>
<polygon fill="grey" stroke="grey" points="171.46,-238.053 169.086,-227.728 164.503,-237.28 171.46,-238.053"/>
</g>
<!-- &#39;]&#39; -->
<g id="node22" class="node"><title>&#39;]&#39;</title>
<polygon fill="white" stroke="black" points="278,-227.5 224,-227.5 224,-191.5 278,-191.5 278,-227.5"/>
<text text-anchor="middle" x="251" y="-205.8" font-family="Times,serif" font-size="14.00">&#39;]&#39;</text>
</g>
<!-- end_node&#45;&gt;&#39;]&#39; -->
<g id="edge26" class="edge"><title>end_node&#45;&gt;&#39;]&#39;</title>
<path fill="none" stroke="grey" d="M251,-274.322C251,-263.69 251,-249.806 251,-237.704"/>
<polygon fill="grey" stroke="grey" points="254.5,-237.653 251,-227.653 247.5,-237.653 254.5,-237.653"/>
</g>
<!-- edge_name -->
<g id="node25" class="node"><title>edge_name</title>
<polygon fill="white" stroke="black" points="822.5,-471 743.5,-471 743.5,-435 822.5,-435 822.5,-471"/>
<text text-anchor="middle" x="783" y="-449.3" font-family="Times,serif" font-size="14.00">edge_name</text>
</g>
<!-- edge_statement&#45;&gt;edge_name -->
<g id="edge31" class="edge"><title>edge_statement&#45;&gt;edge_name</title>
<path fill="none" stroke="grey" d="M1004.54,-585.924C1028.4,-578.36 1054.72,-565.31 1069,-543 1077.63,-529.525 1079.23,-519.301 1069,-507 1039.51,-471.542 906.5,-459.701 832.71,-455.827"/>
<polygon fill="grey" stroke="grey" points="832.869,-452.33 822.708,-455.331 832.522,-459.322 832.869,-452.33"/>
</g>
<!-- edge_name attribute_definition -->
<g id="node26" class="node"><title>edge_name attribute_definition</title>
<polygon fill="white" stroke="black" points="830.5,-543 643.5,-543 643.5,-507 830.5,-507 830.5,-543"/>
<text text-anchor="middle" x="737" y="-521.3" font-family="Times,serif" font-size="14.00">edge_name attribute_definition</text>
</g>
<!-- edge_statement&#45;&gt;edge_name attribute_definition -->
<g id="edge32" class="edge"><title>edge_statement&#45;&gt;edge_name attribute_definition</title>
<path fill="none" stroke="grey" d="M903.397,-579.676C872.393,-569.675 832.469,-556.796 799.499,-546.161"/>
<polygon fill="grey" stroke="grey" points="800.546,-542.821 789.954,-543.082 798.397,-549.483 800.546,-542.821"/>
</g>
<!-- edge_statement (&#39;,&#39;) edge_statement -->
<g id="node27" class="node"><title>edge_statement (&#39;,&#39;) edge_statement</title>
<polygon fill="white" stroke="black" points="1059.5,-543 848.5,-543 848.5,-507 1059.5,-507 1059.5,-543"/>
<text text-anchor="middle" x="954" y="-521.3" font-family="Times,serif" font-size="14.00">edge_statement (&#39;,&#39;) edge_statement</text>
</g>
<!-- edge_statement&#45;&gt;edge_statement (&#39;,&#39;) edge_statement -->
<g id="edge35" class="edge"><title>edge_statement&#45;&gt;edge_statement (&#39;,&#39;) edge_statement</title>
<path fill="none" stroke="grey" d="M942.169,-578.697C940.577,-570.983 940.124,-561.712 940.809,-553.112"/>
<polygon fill="grey" stroke="grey" points="944.29,-553.493 942.21,-543.104 937.358,-552.523 944.29,-553.493"/>
</g>
<!-- edge_statement graph_definition&#45;&gt;graph_definition -->
<g id="edge30" class="edge"><title>edge_statement graph_definition&#45;&gt;graph_definition</title>
<path fill="none" stroke="grey" d="M787.881,-687.115C775.946,-696.924 761.374,-709.868 750,-723 732.735,-742.934 716.572,-768.248 705.545,-786.948"/>
<polygon fill="grey" stroke="grey" points="702.4,-785.394 700.415,-795.802 708.456,-788.904 702.4,-785.394"/>
</g>
<!-- edge_statement graph_definition&#45;&gt;edge_statement -->
<g id="edge29" class="edge"><title>edge_statement graph_definition&#45;&gt;edge_statement</title>
<path fill="none" stroke="grey" d="M845.226,-650.876C864.577,-641.469 888.773,-629.708 909.427,-619.667"/>
<polygon fill="grey" stroke="grey" points="911.175,-622.71 918.638,-615.19 908.114,-616.414 911.175,-622.71"/>
</g>
<!-- directed_edge -->
<g id="node28" class="node"><title>directed_edge</title>
<path fill="orchid" stroke="black" d="M712,-352.5C712,-352.5 780,-352.5 780,-352.5 786,-352.5 792,-358.5 792,-364.5 792,-364.5 792,-386.5 792,-386.5 792,-392.5 786,-398.5 780,-398.5 780,-398.5 712,-398.5 712,-398.5 706,-398.5 700,-392.5 700,-386.5 700,-386.5 700,-364.5 700,-364.5 700,-358.5 706,-352.5 712,-352.5"/>
<text text-anchor="middle" x="746" y="-383.3" font-family="Times,serif" font-size="14.00">lexeme</text>
<polyline fill="none" stroke="black" points="700,-375.5 792,-375.5 "/>
<text text-anchor="middle" x="746" y="-360.3" font-family="Times,serif" font-size="14.00">directed_edge</text>
</g>
<!-- edge_name&#45;&gt;directed_edge -->
<g id="edge39" class="edge"><title>edge_name&#45;&gt;directed_edge</title>
<path fill="none" stroke="grey" d="M774.604,-434.868C770.67,-426.841 765.857,-417.02 761.31,-407.74"/>
<polygon fill="grey" stroke="grey" points="764.436,-406.166 756.893,-398.727 758.15,-409.247 764.436,-406.166"/>
</g>
<!-- undirected_edge -->
<g id="node30" class="node"><title>undirected_edge</title>
<path fill="orchid" stroke="black" d="M829,-352.5C829,-352.5 911,-352.5 911,-352.5 917,-352.5 923,-358.5 923,-364.5 923,-364.5 923,-386.5 923,-386.5 923,-392.5 917,-398.5 911,-398.5 911,-398.5 829,-398.5 829,-398.5 823,-398.5 817,-392.5 817,-386.5 817,-386.5 817,-364.5 817,-364.5 817,-358.5 823,-352.5 829,-352.5"/>
<text text-anchor="middle" x="870" y="-383.3" font-family="Times,serif" font-size="14.00">lexeme</text>
<polyline fill="none" stroke="black" points="817,-375.5 923,-375.5 "/>
<text text-anchor="middle" x="870" y="-360.3" font-family="Times,serif" font-size="14.00">undirected_edge</text>
</g>
<!-- edge_name&#45;&gt;undirected_edge -->
<g id="edge41" class="edge"><title>edge_name&#45;&gt;undirected_edge</title>
<path fill="none" stroke="grey" d="M802.742,-434.868C812.762,-426.172 825.209,-415.37 836.661,-405.432"/>
<polygon fill="grey" stroke="grey" points="839.129,-407.924 844.388,-398.727 834.541,-402.638 839.129,-407.924"/>
</g>
<!-- edge_name attribute_definition&#45;&gt;attribute_definition -->
<g id="edge34" class="edge"><title>edge_name attribute_definition&#45;&gt;attribute_definition</title>
<path fill="none" stroke="grey" d="M661.075,-506.966C610.619,-495.645 544.829,-480.885 495.521,-469.822"/>
<polygon fill="grey" stroke="grey" points="496.099,-466.365 485.575,-467.591 494.566,-473.195 496.099,-466.365"/>
</g>
<!-- edge_name attribute_definition&#45;&gt;edge_name -->
<g id="edge33" class="edge"><title>edge_name attribute_definition&#45;&gt;edge_name</title>
<path fill="none" stroke="grey" d="M748.371,-506.697C753.718,-498.559 760.204,-488.689 766.111,-479.701"/>
<polygon fill="grey" stroke="grey" points="769.193,-481.384 771.76,-471.104 763.343,-477.539 769.193,-481.384"/>
</g>
<!-- edge_statement (&#39;,&#39;) edge_statement&#45;&gt;(&#39;,&#39;) -->
<g id="edge37" class="edge"><title>edge_statement (&#39;,&#39;) edge_statement&#45;&gt;(&#39;,&#39;)</title>
<path fill="none" stroke="grey" d="M878.805,-506.966C816.56,-492.865 730.753,-473.426 682.281,-462.446"/>
<polygon fill="grey" stroke="grey" points="682.765,-458.967 672.239,-460.171 681.218,-465.794 682.765,-458.967"/>
</g>
<!-- edge_statement (&#39;,&#39;) edge_statement&#45;&gt;edge_statement -->
<g id="edge36" class="edge"><title>edge_statement (&#39;,&#39;) edge_statement&#45;&gt;edge_statement</title>
<path fill="none" stroke="grey" d="M954,-543.104C954,-550.791 954,-560.054 954,-568.665"/>
<polygon fill="grey" stroke="grey" points="950.5,-568.697 954,-578.697 957.5,-568.697 950.5,-568.697"/>
</g>
<!-- edge_statement (&#39;,&#39;) edge_statement&#45;&gt;edge_statement -->
<g id="edge38" class="edge"><title>edge_statement (&#39;,&#39;) edge_statement&#45;&gt;edge_statement</title>
<path fill="none" stroke="grey" d="M965.79,-543.104C967.401,-550.791 967.874,-560.054 967.208,-568.665"/>
<polygon fill="grey" stroke="grey" points="963.724,-568.314 965.831,-578.697 970.659,-569.265 963.724,-568.314"/>
</g>
<!-- directed_edge_0 -->
<g id="node29" class="node"><title>directed_edge_0</title>
<path fill="lightblue" stroke="black" d="M567,-269.5C567,-269.5 689,-269.5 689,-269.5 695,-269.5 701,-275.5 701,-281.5 701,-281.5 701,-303.5 701,-303.5 701,-309.5 695,-315.5 689,-315.5 689,-315.5 567,-315.5 567,-315.5 561,-315.5 555,-309.5 555,-303.5 555,-303.5 555,-281.5 555,-281.5 555,-275.5 561,-269.5 567,-269.5"/>
<text text-anchor="middle" x="628" y="-300.3" font-family="Times,serif" font-size="14.00">event =&gt; directed_edge</text>
<polyline fill="none" stroke="black" points="555,-292.5 701,-292.5 "/>
<text text-anchor="middle" x="628" y="-277.3" font-family="Times,serif" font-size="14.00">pause =&gt; before</text>
</g>
<!-- directed_edge&#45;&gt;directed_edge_0 -->
<g id="edge40" class="edge"><title>directed_edge&#45;&gt;directed_edge_0</title>
<path fill="none" stroke="grey" d="M713.756,-352.366C699.838,-342.812 683.399,-331.528 668.657,-321.409"/>
<polygon fill="grey" stroke="grey" points="670.43,-318.381 660.205,-315.607 666.469,-324.152 670.43,-318.381"/>
</g>
<!-- &#39;&#45;\&gt;&#39; -->
<g id="node32" class="node"><title>&#39;&#45;\&gt;&#39;</title>
<polygon fill="white" stroke="black" points="773,-310.5 719,-310.5 719,-274.5 773,-274.5 773,-310.5"/>
<text text-anchor="middle" x="746" y="-288.8" font-family="Times,serif" font-size="14.00">&#39;&#45;&gt;&#39;</text>
</g>
<!-- directed_edge&#45;&gt;&#39;&#45;\&gt;&#39; -->
<g id="edge43" class="edge"><title>directed_edge&#45;&gt;&#39;&#45;\&gt;&#39;</title>
<path fill="none" stroke="grey" d="M746,-352.366C746,-342.632 746,-331.102 746,-320.838"/>
<polygon fill="grey" stroke="grey" points="749.5,-320.728 746,-310.728 742.5,-320.728 749.5,-320.728"/>
</g>
<!-- undirected_edge_0 -->
<g id="node31" class="node"><title>undirected_edge_0</title>
<path fill="lightblue" stroke="black" d="M802.5,-269.5C802.5,-269.5 937.5,-269.5 937.5,-269.5 943.5,-269.5 949.5,-275.5 949.5,-281.5 949.5,-281.5 949.5,-303.5 949.5,-303.5 949.5,-309.5 943.5,-315.5 937.5,-315.5 937.5,-315.5 802.5,-315.5 802.5,-315.5 796.5,-315.5 790.5,-309.5 790.5,-303.5 790.5,-303.5 790.5,-281.5 790.5,-281.5 790.5,-275.5 796.5,-269.5 802.5,-269.5"/>
<text text-anchor="middle" x="870" y="-300.3" font-family="Times,serif" font-size="14.00">event =&gt; undirected_edge</text>
<polyline fill="none" stroke="black" points="790.5,-292.5 949.5,-292.5 "/>
<text text-anchor="middle" x="870" y="-277.3" font-family="Times,serif" font-size="14.00">pause =&gt; before</text>
</g>
<!-- undirected_edge&#45;&gt;undirected_edge_0 -->
<g id="edge42" class="edge"><title>undirected_edge&#45;&gt;undirected_edge_0</title>
<path fill="none" stroke="grey" d="M870,-352.366C870,-344.152 870,-334.658 870,-325.725"/>
<polygon fill="grey" stroke="grey" points="873.5,-325.607 870,-315.607 866.5,-325.607 873.5,-325.607"/>
</g>
<!-- &#39;&#45;&#45;&#39; -->
<g id="node33" class="node"><title>&#39;&#45;&#45;&#39;</title>
<polygon fill="white" stroke="black" points="1021,-310.5 967,-310.5 967,-274.5 1021,-274.5 1021,-310.5"/>
<text text-anchor="middle" x="994" y="-288.8" font-family="Times,serif" font-size="14.00">&#39;&#45;&#45;&#39;</text>
</g>
<!-- undirected_edge&#45;&gt;&#39;&#45;&#45;&#39; -->
<g id="edge44" class="edge"><title>undirected_edge&#45;&gt;&#39;&#45;&#45;&#39;</title>
<path fill="none" stroke="grey" d="M903.884,-352.366C920.981,-341.198 941.698,-327.665 958.955,-316.392"/>
<polygon fill="grey" stroke="grey" points="961.169,-319.127 967.627,-310.728 957.341,-313.266 961.169,-319.127"/>
</g>
<!-- start_attributes end_attributes -->
<g id="node35" class="node"><title>start_attributes end_attributes</title>
<polygon fill="white" stroke="black" points="513.5,-310.5 336.5,-310.5 336.5,-274.5 513.5,-274.5 513.5,-310.5"/>
<text text-anchor="middle" x="425" y="-288.8" font-family="Times,serif" font-size="14.00">start_attributes end_attributes</text>
</g>
<!-- attribute_statement&#45;&gt;start_attributes end_attributes -->
<g id="edge46" class="edge"><title>attribute_statement&#45;&gt;start_attributes end_attributes</title>
<path fill="none" stroke="grey" d="M425,-357.322C425,-346.69 425,-332.806 425,-320.704"/>
<polygon fill="grey" stroke="grey" points="428.5,-320.653 425,-310.653 421.5,-320.653 428.5,-320.653"/>
</g>
<!-- start_attributes -->
<g id="node36" class="node"><title>start_attributes</title>
<path fill="orchid" stroke="black" d="M348.5,-186.5C348.5,-186.5 421.5,-186.5 421.5,-186.5 427.5,-186.5 433.5,-192.5 433.5,-198.5 433.5,-198.5 433.5,-220.5 433.5,-220.5 433.5,-226.5 427.5,-232.5 421.5,-232.5 421.5,-232.5 348.5,-232.5 348.5,-232.5 342.5,-232.5 336.5,-226.5 336.5,-220.5 336.5,-220.5 336.5,-198.5 336.5,-198.5 336.5,-192.5 342.5,-186.5 348.5,-186.5"/>
<text text-anchor="middle" x="385" y="-217.3" font-family="Times,serif" font-size="14.00">lexeme</text>
<polyline fill="none" stroke="black" points="336.5,-209.5 433.5,-209.5 "/>
<text text-anchor="middle" x="385" y="-194.3" font-family="Times,serif" font-size="14.00">start_attributes</text>
</g>
<!-- start_attributes end_attributes&#45;&gt;start_attributes -->
<g id="edge47" class="edge"><title>start_attributes end_attributes&#45;&gt;start_attributes</title>
<path fill="none" stroke="grey" d="M416.517,-274.322C411.823,-264.816 405.845,-252.711 400.36,-241.603"/>
<polygon fill="grey" stroke="grey" points="403.473,-240.003 395.907,-232.587 397.197,-243.103 403.473,-240.003"/>
</g>
<!-- end_attributes -->
<g id="node38" class="node"><title>end_attributes</title>
<polygon fill="white" stroke="black" points="544.5,-227.5 451.5,-227.5 451.5,-191.5 544.5,-191.5 544.5,-227.5"/>
<text text-anchor="middle" x="498" y="-205.8" font-family="Times,serif" font-size="14.00">end_attributes</text>
</g>
<!-- start_attributes end_attributes&#45;&gt;end_attributes -->
<g id="edge49" class="edge"><title>start_attributes end_attributes&#45;&gt;end_attributes</title>
<path fill="none" stroke="grey" d="M440.481,-274.322C450.741,-262.939 464.36,-247.826 475.771,-235.165"/>
<polygon fill="grey" stroke="grey" points="478.446,-237.425 482.541,-227.653 473.246,-232.738 478.446,-237.425"/>
</g>
<!-- start_attributes_0 -->
<g id="node37" class="node"><title>start_attributes_0</title>
<path fill="lightblue" stroke="black" d="M223,-63.5C223,-63.5 349,-63.5 349,-63.5 355,-63.5 361,-69.5 361,-75.5 361,-75.5 361,-97.5 361,-97.5 361,-103.5 355,-109.5 349,-109.5 349,-109.5 223,-109.5 223,-109.5 217,-109.5 211,-103.5 211,-97.5 211,-97.5 211,-75.5 211,-75.5 211,-69.5 217,-63.5 223,-63.5"/>
<text text-anchor="middle" x="286" y="-94.3" font-family="Times,serif" font-size="14.00">event =&gt; start_attributes</text>
<polyline fill="none" stroke="black" points="211,-86.5 361,-86.5 "/>
<text text-anchor="middle" x="286" y="-71.3" font-family="Times,serif" font-size="14.00">pause =&gt; before</text>
</g>
<!-- start_attributes&#45;&gt;start_attributes_0 -->
<g id="edge48" class="edge"><title>start_attributes&#45;&gt;start_attributes_0</title>
<path fill="none" stroke="grey" d="M366.842,-186.307C351.003,-166.948 327.89,-138.699 310.431,-117.36"/>
<polygon fill="grey" stroke="grey" points="313.084,-115.076 304.043,-109.553 307.667,-119.509 313.084,-115.076"/>
</g>
<!-- &#39;{&#39; -->
<g id="node39" class="node"><title>&#39;{&#39;</title>
<polygon fill="white" stroke="black" points="433,-104.5 379,-104.5 379,-68.5 433,-68.5 433,-104.5"/>
<text text-anchor="middle" x="406" y="-82.8" font-family="Times,serif" font-size="14.00">&#39;{&#39;</text>
</g>
<!-- start_attributes&#45;&gt;&#39;{&#39; -->
<g id="edge50" class="edge"><title>start_attributes&#45;&gt;&#39;{&#39;</title>
<path fill="none" stroke="grey" d="M388.852,-186.307C392.352,-166.137 397.527,-136.319 401.276,-114.718"/>
<polygon fill="grey" stroke="grey" points="404.727,-115.304 402.988,-104.852 397.83,-114.107 404.727,-115.304"/>
</g>
<!-- &#39;}&#39; -->
<g id="node40" class="node"><title>&#39;}&#39;</title>
<polygon fill="white" stroke="black" points="525,-104.5 471,-104.5 471,-68.5 525,-68.5 525,-104.5"/>
<text text-anchor="middle" x="498" y="-82.8" font-family="Times,serif" font-size="14.00">&#39;}&#39;</text>
</g>
<!-- end_attributes&#45;&gt;&#39;}&#39; -->
<g id="edge51" class="edge"><title>end_attributes&#45;&gt;&#39;}&#39;</title>
<path fill="none" stroke="grey" d="M498,-191.42C498,-171.535 498,-138.423 498,-114.923"/>
<polygon fill="grey" stroke="grey" points="501.5,-114.885 498,-104.885 494.5,-114.885 501.5,-114.885"/>
</g>
<!-- Legend -->
<g id="node42" class="node"><title>Legend</title>
<polygon fill="lightgrey" stroke="none" points="797,-150 543,-150 543,-23 797,-23 797,-150"/>
<polygon fill="white" stroke="none" points="551,-27 551,-146 789,-146 789,-27 551,-27"/>
<polygon fill="lightgreen" stroke="none" points="554,-121.5 554,-142.5 786,-142.5 786,-121.5 554,-121.5"/>
<polygon fill="none" stroke="black" points="554,-121.5 554,-142.5 786,-142.5 786,-121.5 554,-121.5"/>
<text text-anchor="start" x="582.5" y="-128.3" font-family="Times,serif" font-size="14.00">The green node is the start node</text>
<polygon fill="lightblue" stroke="none" points="554,-98.5 554,-119.5 786,-119.5 786,-98.5 554,-98.5"/>
<polygon fill="none" stroke="black" points="554,-98.5 554,-119.5 786,-119.5 786,-98.5 554,-98.5"/>
<text text-anchor="start" x="557" y="-105.3" font-family="Times,serif" font-size="14.00">Lightblue nodes are for lexeme attributes</text>
<polygon fill="orchid" stroke="none" points="554,-75.5 554,-96.5 786,-96.5 786,-75.5 554,-75.5"/>
<polygon fill="none" stroke="black" points="554,-75.5 554,-96.5 786,-96.5 786,-75.5 554,-75.5"/>
<text text-anchor="start" x="589" y="-82.3" font-family="Times,serif" font-size="14.00">Orchid nodes are for lexemes</text>
<polygon fill="goldenrod" stroke="none" points="554,-52.5 554,-73.5 786,-73.5 786,-52.5 554,-52.5"/>
<polygon fill="none" stroke="black" points="554,-52.5 554,-73.5 786,-73.5 786,-52.5 554,-52.5"/>
<text text-anchor="start" x="591.5" y="-59.3" font-family="Times,serif" font-size="14.00">Golden nodes are for actions</text>
<polygon fill="#ff3030" stroke="none" points="554,-29.5 554,-50.5 786,-50.5 786,-29.5 554,-29.5"/>
<polygon fill="none" stroke="black" points="554,-29.5 554,-50.5 786,-50.5 786,-29.5 554,-29.5"/>
<text text-anchor="start" x="602" y="-36.3" font-family="Times,serif" font-size="14.00">Red nodes are for events</text>
<polygon fill="none" stroke="black" points="551,-27 551,-146 789,-146 789,-27 551,-27"/>
</g>
</g>
</svg>
