<?xml version="1.0" encoding="UTF-8" standalone="no"?>
<!DOCTYPE svg PUBLIC "-//W3C//DTD SVG 1.1//EN"
 "http://www.w3.org/Graphics/SVG/1.1/DTD/svg11.dtd">
<!-- Generated by graphviz version 2.38.0 (20140413.2041)
 -->
<!-- Title: Perl Pages: 1 -->
<svg width="1485pt" height="710pt"
 viewBox="0.00 0.00 1485.00 710.00" xmlns="http://www.w3.org/2000/svg" xmlns:xlink="http://www.w3.org/1999/xlink">
<g id="graph0" class="graph" transform="scale(1 1) rotate(0) translate(4 706)">
<title>Perl</title>
<polygon fill="white" stroke="none" points="-4,4 -4,-706 1481,-706 1481,4 -4,4"/>
<text text-anchor="middle" x="738.5" y="-7.8" font-family="Times,serif" font-size="14.00">stringparser.bnf</text>
<!-- ꞉default -->
<g id="node1" class="node"><title>꞉default</title>
<path fill="pink" stroke="black" d="M457,-593.5C457,-593.5 492,-593.5 492,-593.5 498,-593.5 504,-599.5 504,-605.5 504,-605.5 504,-617.5 504,-617.5 504,-623.5 498,-629.5 492,-629.5 492,-629.5 457,-629.5 457,-629.5 451,-629.5 445,-623.5 445,-617.5 445,-617.5 445,-605.5 445,-605.5 445,-599.5 451,-593.5 457,-593.5"/>
<text text-anchor="middle" x="474.5" y="-607.8" font-family="Times,serif" font-size="14.00">꞉default</text>
</g>
<!-- ꞉default_1 -->
<g id="node3" class="node"><title>꞉default_1</title>
<path fill="pink" stroke="black" d="M404.5,-520.5C404.5,-520.5 496.5,-520.5 496.5,-520.5 502.5,-520.5 508.5,-526.5 508.5,-532.5 508.5,-532.5 508.5,-544.5 508.5,-544.5 508.5,-550.5 502.5,-556.5 496.5,-556.5 496.5,-556.5 404.5,-556.5 404.5,-556.5 398.5,-556.5 392.5,-550.5 392.5,-544.5 392.5,-544.5 392.5,-532.5 392.5,-532.5 392.5,-526.5 398.5,-520.5 404.5,-520.5"/>
<text text-anchor="middle" x="450.5" y="-534.8" font-family="Times,serif" font-size="14.00">action =&gt; [values]</text>
</g>
<!-- ꞉default&#45;&gt;꞉default_1 -->
<g id="edge2" class="edge"><title>꞉default&#45;&gt;꞉default_1</title>
<path fill="none" stroke="grey" d="M468.69,-593.313C465.949,-585.202 462.613,-575.336 459.551,-566.277"/>
<polygon fill="grey" stroke="grey" points="462.774,-564.881 456.256,-556.529 456.143,-567.123 462.774,-564.881"/>
</g>
<!-- DSL -->
<g id="node2" class="node"><title>DSL</title>
<polygon fill="lightgrey" stroke="black" points="816.5,-702 762.5,-702 762.5,-666 816.5,-666 816.5,-702"/>
<text text-anchor="middle" x="789.5" y="-680.3" font-family="Times,serif" font-size="14.00">DSL</text>
</g>
<!-- DSL&#45;&gt;꞉default -->
<g id="edge1" class="edge"><title>DSL&#45;&gt;꞉default</title>
<path fill="none" stroke="grey" d="M762.449,-678.395C715.103,-670.128 614.276,-651.603 530.5,-630 525.137,-628.617 519.526,-627.032 514.014,-625.393"/>
<polygon fill="grey" stroke="grey" points="514.86,-621.992 504.274,-622.417 512.815,-628.687 514.86,-621.992"/>
</g>
<!-- discard default -->
<g id="node4" class="node"><title>discard default</title>
<polygon fill="orchid" stroke="black" points="637.5,-629.5 539.5,-629.5 539.5,-593.5 637.5,-593.5 637.5,-629.5"/>
<text text-anchor="middle" x="588.5" y="-607.8" font-family="Times,serif" font-size="14.00">discard default</text>
</g>
<!-- DSL&#45;&gt;discard default -->
<g id="edge3" class="edge"><title>DSL&#45;&gt;discard default</title>
<path fill="none" stroke="grey" d="M762.392,-673.492C732.855,-663.132 684.722,-646.249 646.576,-632.87"/>
<polygon fill="grey" stroke="grey" points="647.705,-629.557 637.11,-629.55 645.388,-636.163 647.705,-629.557"/>
</g>
<!-- ꞉discard -->
<g id="node6" class="node"><title>꞉discard</title>
<path fill="magenta" stroke="black" d="M674.5,-593.5C674.5,-593.5 710.5,-593.5 710.5,-593.5 716.5,-593.5 722.5,-599.5 722.5,-605.5 722.5,-605.5 722.5,-617.5 722.5,-617.5 722.5,-623.5 716.5,-629.5 710.5,-629.5 710.5,-629.5 674.5,-629.5 674.5,-629.5 668.5,-629.5 662.5,-623.5 662.5,-617.5 662.5,-617.5 662.5,-605.5 662.5,-605.5 662.5,-599.5 668.5,-593.5 674.5,-593.5"/>
<text text-anchor="middle" x="692.5" y="-607.8" font-family="Times,serif" font-size="14.00">꞉discard</text>
</g>
<!-- DSL&#45;&gt;꞉discard -->
<g id="edge5" class="edge"><title>DSL&#45;&gt;꞉discard</title>
<path fill="none" stroke="grey" d="M766.019,-665.934C753.482,-656.822 737.874,-645.478 724.268,-635.589"/>
<polygon fill="grey" stroke="grey" points="726.248,-632.701 716.101,-629.653 722.132,-638.364 726.248,-632.701"/>
</g>
<!-- lexeme default -->
<g id="node8" class="node"><title>lexeme default</title>
<polygon fill="goldenrod" stroke="black" points="838.5,-629.5 740.5,-629.5 740.5,-593.5 838.5,-593.5 838.5,-629.5"/>
<text text-anchor="middle" x="789.5" y="-607.8" font-family="Times,serif" font-size="14.00">lexeme default</text>
</g>
<!-- DSL&#45;&gt;lexeme default -->
<g id="edge7" class="edge"><title>DSL&#45;&gt;lexeme default</title>
<path fill="none" stroke="grey" d="M789.5,-665.934C789.5,-658.17 789.5,-648.784 789.5,-640.06"/>
<polygon fill="grey" stroke="grey" points="793,-639.899 789.5,-629.899 786,-639.899 793,-639.899"/>
</g>
<!-- start -->
<g id="node10" class="node"><title>start</title>
<path fill="lightgreen" stroke="black" d="M868.5,-593.5C868.5,-593.5 898.5,-593.5 898.5,-593.5 904.5,-593.5 910.5,-599.5 910.5,-605.5 910.5,-605.5 910.5,-617.5 910.5,-617.5 910.5,-623.5 904.5,-629.5 898.5,-629.5 898.5,-629.5 868.5,-629.5 868.5,-629.5 862.5,-629.5 856.5,-623.5 856.5,-617.5 856.5,-617.5 856.5,-605.5 856.5,-605.5 856.5,-599.5 862.5,-593.5 868.5,-593.5"/>
<text text-anchor="middle" x="883.5" y="-607.8" font-family="Times,serif" font-size="14.00">꞉start</text>
</g>
<!-- DSL&#45;&gt;start -->
<g id="edge9" class="edge"><title>DSL&#45;&gt;start</title>
<path fill="none" stroke="grey" d="M812.255,-665.934C824.289,-656.908 839.244,-645.692 852.34,-635.87"/>
<polygon fill="grey" stroke="grey" points="854.729,-638.453 860.629,-629.653 850.529,-632.853 854.729,-638.453"/>
</g>
<!-- BNF -->
<g id="node12" class="node"><title>BNF</title>
<path fill="DeepSkyBlue" stroke="black" d="M940.5,-593.5C940.5,-593.5 970.5,-593.5 970.5,-593.5 976.5,-593.5 982.5,-599.5 982.5,-605.5 982.5,-605.5 982.5,-617.5 982.5,-617.5 982.5,-623.5 976.5,-629.5 970.5,-629.5 970.5,-629.5 940.5,-629.5 940.5,-629.5 934.5,-629.5 928.5,-623.5 928.5,-617.5 928.5,-617.5 928.5,-605.5 928.5,-605.5 928.5,-599.5 934.5,-593.5 940.5,-593.5"/>
<text text-anchor="middle" x="955.5" y="-607.8" font-family="Times,serif" font-size="14.00">BNF</text>
</g>
<!-- DSL&#45;&gt;BNF -->
<g id="edge11" class="edge"><title>DSL&#45;&gt;BNF</title>
<path fill="none" stroke="grey" d="M816.607,-672.546C841.197,-662.933 878.603,-647.987 919.2,-630.008"/>
<polygon fill="grey" stroke="grey" points="920.755,-633.147 928.462,-625.878 917.904,-626.754 920.755,-633.147"/>
</g>
<!-- ꞉lexeme -->
<g id="node37" class="node"><title>꞉lexeme</title>
<polygon fill="lightblue" stroke="black" points="1060.5,-629.5 1000.5,-629.5 1000.5,-593.5 1060.5,-593.5 1060.5,-629.5"/>
<text text-anchor="middle" x="1030.5" y="-607.8" font-family="Times,serif" font-size="14.00">꞉lexeme</text>
</g>
<!-- DSL&#45;&gt;꞉lexeme -->
<g id="edge37" class="edge"><title>DSL&#45;&gt;꞉lexeme</title>
<path fill="none" stroke="grey" d="M816.72,-677.36C854.163,-669.282 923.687,-653.131 990.989,-629.893"/>
<polygon fill="grey" stroke="grey" points="992.19,-633.181 1000.47,-626.567 989.872,-626.576 992.19,-633.181"/>
</g>
<!-- discard default_1 -->
<g id="node5" class="node"><title>discard default_1</title>
<path fill="orchid" stroke="black" d="M538.5,-520.5C538.5,-520.5 626.5,-520.5 626.5,-520.5 632.5,-520.5 638.5,-526.5 638.5,-532.5 638.5,-532.5 638.5,-544.5 638.5,-544.5 638.5,-550.5 632.5,-556.5 626.5,-556.5 626.5,-556.5 538.5,-556.5 538.5,-556.5 532.5,-556.5 526.5,-550.5 526.5,-544.5 526.5,-544.5 526.5,-532.5 526.5,-532.5 526.5,-526.5 532.5,-520.5 538.5,-520.5"/>
<text text-anchor="middle" x="582.5" y="-534.8" font-family="Times,serif" font-size="14.00">event =&gt; :symbol</text>
</g>
<!-- discard default&#45;&gt;discard default_1 -->
<g id="edge4" class="edge"><title>discard default&#45;&gt;discard default_1</title>
<path fill="none" stroke="grey" d="M587.048,-593.313C586.37,-585.289 585.546,-575.547 584.788,-566.569"/>
<polygon fill="grey" stroke="grey" points="588.269,-566.199 583.939,-556.529 581.294,-566.788 588.269,-566.199"/>
</g>
<!-- whitespace -->
<g id="node7" class="node"><title>whitespace</title>
<polygon fill="magenta" stroke="black" points="734,-556.5 657,-556.5 657,-520.5 734,-520.5 734,-556.5"/>
<text text-anchor="middle" x="695.5" y="-534.8" font-family="Times,serif" font-size="14.00">whitespace</text>
</g>
<!-- ꞉discard&#45;&gt;whitespace -->
<g id="edge6" class="edge"><title>꞉discard&#45;&gt;whitespace</title>
<path fill="none" stroke="grey" d="M693.226,-593.313C693.565,-585.289 693.977,-575.547 694.356,-566.569"/>
<polygon fill="grey" stroke="grey" points="697.855,-566.668 694.78,-556.529 690.861,-566.372 697.855,-566.668"/>
</g>
<!-- lexeme default_1 -->
<g id="node9" class="node"><title>lexeme default_1</title>
<path fill="goldenrod" stroke="black" d="M764,-520.5C764,-520.5 811,-520.5 811,-520.5 817,-520.5 823,-526.5 823,-532.5 823,-532.5 823,-544.5 823,-544.5 823,-550.5 817,-556.5 811,-556.5 811,-556.5 764,-556.5 764,-556.5 758,-556.5 752,-550.5 752,-544.5 752,-544.5 752,-532.5 752,-532.5 752,-526.5 758,-520.5 764,-520.5"/>
<text text-anchor="middle" x="787.5" y="-534.8" font-family="Times,serif" font-size="14.00">latm =&gt; 1</text>
</g>
<!-- lexeme default&#45;&gt;lexeme default_1 -->
<g id="edge8" class="edge"><title>lexeme default&#45;&gt;lexeme default_1</title>
<path fill="none" stroke="grey" d="M789.016,-593.313C788.79,-585.289 788.515,-575.547 788.263,-566.569"/>
<polygon fill="grey" stroke="grey" points="791.76,-566.426 787.98,-556.529 784.763,-566.623 791.76,-566.426"/>
</g>
<!-- graph_grammar -->
<g id="node11" class="node"><title>graph_grammar</title>
<path fill="lightgreen" stroke="black" d="M853.5,-520.5C853.5,-520.5 935.5,-520.5 935.5,-520.5 941.5,-520.5 947.5,-526.5 947.5,-532.5 947.5,-532.5 947.5,-544.5 947.5,-544.5 947.5,-550.5 941.5,-556.5 935.5,-556.5 935.5,-556.5 853.5,-556.5 853.5,-556.5 847.5,-556.5 841.5,-550.5 841.5,-544.5 841.5,-544.5 841.5,-532.5 841.5,-532.5 841.5,-526.5 847.5,-520.5 853.5,-520.5"/>
<text text-anchor="middle" x="894.5" y="-534.8" font-family="Times,serif" font-size="14.00">graph_grammar</text>
</g>
<!-- start&#45;&gt;graph_grammar -->
<g id="edge10" class="edge"><title>start&#45;&gt;graph_grammar</title>
<path fill="none" stroke="grey" d="M886.163,-593.313C887.406,-585.289 888.915,-575.547 890.306,-566.569"/>
<polygon fill="grey" stroke="grey" points="893.789,-566.947 891.862,-556.529 886.872,-565.875 893.789,-566.947"/>
</g>
<!-- graph_definition -->
<g id="node13" class="node"><title>graph_definition</title>
<polygon fill="CornflowerBlue" stroke="black" points="873.5,-484 763.5,-484 763.5,-448 873.5,-448 873.5,-484"/>
<text text-anchor="middle" x="818.5" y="-462.3" font-family="Times,serif" font-size="14.00">graph_definition</text>
</g>
<!-- graph_grammar&#45;&gt;graph_definition -->
<g id="edge13" class="edge"><title>graph_grammar&#45;&gt;graph_definition</title>
<path fill="none" stroke="grey" d="M876.103,-520.434C866.651,-511.666 854.971,-500.831 844.604,-491.215"/>
<polygon fill="grey" stroke="grey" points="846.703,-488.388 836.991,-484.153 841.943,-493.52 846.703,-488.388"/>
</g>
<!-- BNF&#45;&gt;graph_grammar -->
<g id="edge12" class="edge"><title>BNF&#45;&gt;graph_grammar</title>
<path fill="none" stroke="grey" d="M940.734,-593.313C933.241,-584.592 924.004,-573.84 915.761,-564.246"/>
<polygon fill="grey" stroke="grey" points="918.302,-561.833 909.13,-556.529 912.992,-566.395 918.302,-561.833"/>
</g>
<!-- attribute_definition -->
<g id="node30" class="node"><title>attribute_definition</title>
<polygon fill="CornflowerBlue" stroke="black" points="1091.5,-556.5 965.5,-556.5 965.5,-520.5 1091.5,-520.5 1091.5,-556.5"/>
<text text-anchor="middle" x="1028.5" y="-534.8" font-family="Times,serif" font-size="14.00">attribute_definition</text>
</g>
<!-- BNF&#45;&gt;attribute_definition -->
<g id="edge30" class="edge"><title>BNF&#45;&gt;attribute_definition</title>
<path fill="none" stroke="grey" d="M973.171,-593.313C982.317,-584.417 993.635,-573.409 1003.65,-563.672"/>
<polygon fill="grey" stroke="grey" points="1006.26,-566.01 1010.99,-556.529 1001.38,-560.992 1006.26,-566.01"/>
</g>
<!-- string_token_set -->
<g id="node33" class="node"><title>string_token_set</title>
<polygon fill="CornflowerBlue" stroke="black" points="1251.5,-556.5 1141.5,-556.5 1141.5,-520.5 1251.5,-520.5 1251.5,-556.5"/>
<text text-anchor="middle" x="1196.5" y="-534.8" font-family="Times,serif" font-size="14.00">string_token_set</text>
</g>
<!-- BNF&#45;&gt;string_token_set -->
<g id="edge33" class="edge"><title>BNF&#45;&gt;string_token_set</title>
<path fill="none" stroke="grey" d="M982.774,-596.553C985.686,-595.272 988.632,-594.06 991.5,-593 1037.24,-576.102 1090.58,-562.358 1131.39,-553.033"/>
<polygon fill="grey" stroke="grey" points="1132.23,-556.432 1141.21,-550.818 1130.69,-549.603 1132.23,-556.432"/>
</g>
<!-- node_definition -->
<g id="node14" class="node"><title>node_definition</title>
<polygon fill="CornflowerBlue" stroke="black" points="677,-412 572,-412 572,-376 677,-376 677,-412"/>
<text text-anchor="middle" x="624.5" y="-390.3" font-family="Times,serif" font-size="14.00">node_definition</text>
</g>
<!-- graph_definition&#45;&gt;node_definition -->
<g id="edge14" class="edge"><title>graph_definition&#45;&gt;node_definition</title>
<path fill="none" stroke="grey" d="M771.042,-447.876C743.932,-438.094 709.764,-425.765 681.242,-415.474"/>
<polygon fill="grey" stroke="grey" points="682.398,-412.17 671.804,-412.068 680.022,-418.755 682.398,-412.17"/>
</g>
<!-- edge_definition -->
<g id="node15" class="node"><title>edge_definition</title>
<polygon fill="CornflowerBlue" stroke="black" points="870,-412 767,-412 767,-376 870,-376 870,-412"/>
<text text-anchor="middle" x="818.5" y="-390.3" font-family="Times,serif" font-size="14.00">edge_definition</text>
</g>
<!-- graph_definition&#45;&gt;edge_definition -->
<g id="edge15" class="edge"><title>graph_definition&#45;&gt;edge_definition</title>
<path fill="none" stroke="grey" d="M818.5,-447.697C818.5,-439.983 818.5,-430.712 818.5,-422.112"/>
<polygon fill="grey" stroke="grey" points="822,-422.104 818.5,-412.104 815,-422.104 822,-422.104"/>
</g>
<!-- node_statement -->
<g id="node16" class="node"><title>node_statement</title>
<polygon fill="CornflowerBlue" stroke="black" points="455.5,-340 349.5,-340 349.5,-304 455.5,-304 455.5,-340"/>
<text text-anchor="middle" x="402.5" y="-318.3" font-family="Times,serif" font-size="14.00">node_statement</text>
</g>
<!-- node_definition&#45;&gt;node_statement -->
<g id="edge16" class="edge"><title>node_definition&#45;&gt;node_statement</title>
<path fill="none" stroke="grey" d="M571.889,-376.411C539.913,-366.329 498.9,-353.397 465.24,-342.783"/>
<polygon fill="grey" stroke="grey" points="466.092,-339.382 455.503,-339.713 463.987,-346.058 466.092,-339.382"/>
</g>
<!-- node_statement graph_definition -->
<g id="node17" class="node"><title>node_statement graph_definition</title>
<polygon fill="CornflowerBlue" stroke="black" points="725.5,-340 523.5,-340 523.5,-304 725.5,-304 725.5,-340"/>
<text text-anchor="middle" x="624.5" y="-318.3" font-family="Times,serif" font-size="14.00">node_statement graph_definition</text>
</g>
<!-- node_definition&#45;&gt;node_statement graph_definition -->
<g id="edge17" class="edge"><title>node_definition&#45;&gt;node_statement graph_definition</title>
<path fill="none" stroke="grey" d="M624.5,-375.697C624.5,-367.983 624.5,-358.712 624.5,-350.112"/>
<polygon fill="grey" stroke="grey" points="628,-350.104 624.5,-340.104 621,-350.104 628,-350.104"/>
</g>
<!-- edge_statement -->
<g id="node23" class="node"><title>edge_statement</title>
<polygon fill="CornflowerBlue" stroke="black" points="870.5,-340 766.5,-340 766.5,-304 870.5,-304 870.5,-340"/>
<text text-anchor="middle" x="818.5" y="-318.3" font-family="Times,serif" font-size="14.00">edge_statement</text>
</g>
<!-- edge_definition&#45;&gt;edge_statement -->
<g id="edge23" class="edge"><title>edge_definition&#45;&gt;edge_statement</title>
<path fill="none" stroke="grey" d="M818.5,-375.697C818.5,-367.983 818.5,-358.712 818.5,-350.112"/>
<polygon fill="grey" stroke="grey" points="822,-350.104 818.5,-340.104 815,-350.104 822,-350.104"/>
</g>
<!-- edge_statement graph_definition -->
<g id="node24" class="node"><title>edge_statement graph_definition</title>
<polygon fill="CornflowerBlue" stroke="black" points="1088.5,-340 888.5,-340 888.5,-304 1088.5,-304 1088.5,-340"/>
<text text-anchor="middle" x="988.5" y="-318.3" font-family="Times,serif" font-size="14.00">edge_statement graph_definition</text>
</g>
<!-- edge_definition&#45;&gt;edge_statement graph_definition -->
<g id="edge24" class="edge"><title>edge_definition&#45;&gt;edge_statement graph_definition</title>
<path fill="none" stroke="grey" d="M860.087,-375.876C883.533,-366.222 913.004,-354.087 937.797,-343.878"/>
<polygon fill="grey" stroke="grey" points="939.134,-347.112 947.048,-340.068 936.469,-340.639 939.134,-347.112"/>
</g>
<!-- node_name_token -->
<g id="node18" class="node"><title>node_name_token</title>
<polygon fill="CornflowerBlue" stroke="black" points="218,-268 99,-268 99,-232 218,-232 218,-268"/>
<text text-anchor="middle" x="158.5" y="-246.3" font-family="Times,serif" font-size="14.00">node_name_token</text>
</g>
<!-- node_statement&#45;&gt;node_name_token -->
<g id="edge18" class="edge"><title>node_statement&#45;&gt;node_name_token</title>
<path fill="none" stroke="grey" d="M349.255,-305.725C313.728,-295.533 266.651,-282.027 228.155,-270.983"/>
<polygon fill="grey" stroke="grey" points="228.632,-267.479 218.055,-268.085 226.702,-274.207 228.632,-267.479"/>
</g>
<!-- node_name_token attribute_definition -->
<g id="node19" class="node"><title>node_name_token attribute_definition</title>
<polygon fill="CornflowerBlue" stroke="black" points="468.5,-268 236.5,-268 236.5,-232 468.5,-232 468.5,-268"/>
<text text-anchor="middle" x="352.5" y="-246.3" font-family="Times,serif" font-size="14.00">node_name_token attribute_definition</text>
</g>
<!-- node_statement&#45;&gt;node_name_token attribute_definition -->
<g id="edge19" class="edge"><title>node_statement&#45;&gt;node_name_token attribute_definition</title>
<path fill="none" stroke="grey" d="M390.14,-303.697C384.267,-295.474 377.131,-285.483 370.658,-276.421"/>
<polygon fill="grey" stroke="grey" points="373.378,-274.207 364.717,-268.104 367.682,-278.276 373.378,-274.207"/>
</g>
<!-- node_statement node_statement -->
<g id="node20" class="node"><title>node_statement node_statement</title>
<polygon fill="CornflowerBlue" stroke="black" points="684.5,-268 486.5,-268 486.5,-232 684.5,-232 684.5,-268"/>
<text text-anchor="middle" x="585.5" y="-246.3" font-family="Times,serif" font-size="14.00">node_statement node_statement</text>
</g>
<!-- node_statement&#45;&gt;node_statement node_statement -->
<g id="edge20" class="edge"><title>node_statement&#45;&gt;node_statement node_statement</title>
<path fill="none" stroke="grey" d="M447.267,-303.876C472.618,-294.179 504.511,-281.98 531.273,-271.743"/>
<polygon fill="grey" stroke="grey" points="532.789,-274.91 540.879,-268.068 530.288,-268.372 532.789,-274.91"/>
</g>
<!-- start_node end_node -->
<g id="node21" class="node"><title>start_node end_node</title>
<polygon fill="CornflowerBlue" stroke="black" points="133,-127.5 0,-127.5 0,-91.5 133,-91.5 133,-127.5"/>
<text text-anchor="middle" x="66.5" y="-105.8" font-family="Times,serif" font-size="14.00">start_node end_node</text>
</g>
<!-- node_name_token&#45;&gt;start_node end_node -->
<g id="edge21" class="edge"><title>node_name_token&#45;&gt;start_node end_node</title>
<path fill="none" stroke="grey" d="M147.034,-231.739C131.039,-207.66 101.917,-163.817 83.4224,-135.976"/>
<polygon fill="grey" stroke="grey" points="86.2699,-133.937 77.8213,-127.544 80.4391,-137.81 86.2699,-133.937"/>
</g>
<!-- start_node node_name end_node -->
<g id="node22" class="node"><title>start_node node_name end_node</title>
<polygon fill="CornflowerBlue" stroke="black" points="351.5,-127.5 151.5,-127.5 151.5,-91.5 351.5,-91.5 351.5,-127.5"/>
<text text-anchor="middle" x="251.5" y="-105.8" font-family="Times,serif" font-size="14.00">start_node node_name end_node</text>
</g>
<!-- node_name_token&#45;&gt;start_node node_name end_node -->
<g id="edge22" class="edge"><title>node_name_token&#45;&gt;start_node node_name end_node</title>
<path fill="none" stroke="grey" d="M170.09,-231.739C186.259,-207.66 215.698,-163.817 234.394,-135.976"/>
<polygon fill="grey" stroke="grey" points="237.387,-137.797 240.056,-127.544 231.575,-133.894 237.387,-137.797"/>
</g>
<!-- edge_name -->
<g id="node25" class="node"><title>edge_name</title>
<polygon fill="CornflowerBlue" stroke="black" points="782,-268 703,-268 703,-232 782,-232 782,-268"/>
<text text-anchor="middle" x="742.5" y="-246.3" font-family="Times,serif" font-size="14.00">edge_name</text>
</g>
<!-- edge_statement&#45;&gt;edge_name -->
<g id="edge25" class="edge"><title>edge_statement&#45;&gt;edge_name</title>
<path fill="none" stroke="grey" d="M799.713,-303.697C790.326,-295.05 778.816,-284.449 768.587,-275.027"/>
<polygon fill="grey" stroke="grey" points="770.797,-272.305 761.07,-268.104 766.055,-277.454 770.797,-272.305"/>
</g>
<!-- edge_name attribute_definition -->
<g id="node26" class="node"><title>edge_name attribute_definition</title>
<polygon fill="CornflowerBlue" stroke="black" points="991,-268 800,-268 800,-232 991,-232 991,-268"/>
<text text-anchor="middle" x="895.5" y="-246.3" font-family="Times,serif" font-size="14.00">edge_name attribute_definition</text>
</g>
<!-- edge_statement&#45;&gt;edge_name attribute_definition -->
<g id="edge26" class="edge"><title>edge_statement&#45;&gt;edge_name attribute_definition</title>
<path fill="none" stroke="grey" d="M837.534,-303.697C847.045,-295.05 858.707,-284.449 869.07,-275.027"/>
<polygon fill="grey" stroke="grey" points="871.64,-277.421 876.685,-268.104 866.931,-272.241 871.64,-277.421"/>
</g>
<!-- edge_statement edge_statement -->
<g id="node27" class="node"><title>edge_statement edge_statement</title>
<polygon fill="CornflowerBlue" stroke="black" points="1203.5,-268 1009.5,-268 1009.5,-232 1203.5,-232 1203.5,-268"/>
<text text-anchor="middle" x="1106.5" y="-246.3" font-family="Times,serif" font-size="14.00">edge_statement edge_statement</text>
</g>
<!-- edge_statement&#45;&gt;edge_statement edge_statement -->
<g id="edge27" class="edge"><title>edge_statement&#45;&gt;edge_statement edge_statement</title>
<path fill="none" stroke="grey" d="M870.704,-306.294C873.677,-305.506 876.624,-304.736 879.5,-304 925.687,-292.178 977.435,-280.013 1019.85,-270.324"/>
<polygon fill="grey" stroke="grey" points="1020.89,-273.677 1029.86,-268.043 1019.33,-266.852 1020.89,-273.677"/>
</g>
<!-- directed_edge -->
<g id="node28" class="node"><title>directed_edge</title>
<polygon fill="CornflowerBlue" stroke="black" points="730,-127.5 637,-127.5 637,-91.5 730,-91.5 730,-127.5"/>
<text text-anchor="middle" x="683.5" y="-105.8" font-family="Times,serif" font-size="14.00">directed_edge</text>
</g>
<!-- edge_name&#45;&gt;directed_edge -->
<g id="edge28" class="edge"><title>edge_name&#45;&gt;directed_edge</title>
<path fill="none" stroke="grey" d="M735.147,-231.739C725.023,-207.972 706.696,-164.953 694.818,-137.068"/>
<polygon fill="grey" stroke="grey" points="697.9,-135.372 690.76,-127.544 691.46,-138.115 697.9,-135.372"/>
</g>
<!-- undirected_edge -->
<g id="node29" class="node"><title>undirected_edge</title>
<polygon fill="CornflowerBlue" stroke="black" points="855,-127.5 748,-127.5 748,-91.5 855,-91.5 855,-127.5"/>
<text text-anchor="middle" x="801.5" y="-105.8" font-family="Times,serif" font-size="14.00">undirected_edge</text>
</g>
<!-- edge_name&#45;&gt;undirected_edge -->
<g id="edge29" class="edge"><title>edge_name&#45;&gt;undirected_edge</title>
<path fill="none" stroke="grey" d="M749.853,-231.739C759.977,-207.972 778.304,-164.953 790.182,-137.068"/>
<polygon fill="grey" stroke="grey" points="793.54,-138.115 794.24,-127.544 787.1,-135.372 793.54,-138.115"/>
</g>
<!-- attribute_statement -->
<g id="node31" class="node"><title>attribute_statement</title>
<polygon fill="CornflowerBlue" stroke="black" points="1092,-484 965,-484 965,-448 1092,-448 1092,-484"/>
<text text-anchor="middle" x="1028.5" y="-462.3" font-family="Times,serif" font-size="14.00">attribute_statement</text>
</g>
<!-- attribute_definition&#45;&gt;attribute_statement -->
<g id="edge31" class="edge"><title>attribute_definition&#45;&gt;attribute_statement</title>
<path fill="none" stroke="grey" d="M1028.5,-520.434C1028.5,-512.67 1028.5,-503.284 1028.5,-494.56"/>
<polygon fill="grey" stroke="grey" points="1032,-494.399 1028.5,-484.399 1025,-494.399 1032,-494.399"/>
</g>
<!-- start_attributes string_token_set end_attributes -->
<g id="node32" class="node"><title>start_attributes string_token_set end_attributes</title>
<polygon fill="CornflowerBlue" stroke="black" points="1169,-412 888,-412 888,-376 1169,-376 1169,-412"/>
<text text-anchor="middle" x="1028.5" y="-390.3" font-family="Times,serif" font-size="14.00">start_attributes string_token_set end_attributes</text>
</g>
<!-- attribute_statement&#45;&gt;start_attributes string_token_set end_attributes -->
<g id="edge32" class="edge"><title>attribute_statement&#45;&gt;start_attributes string_token_set end_attributes</title>
<path fill="none" stroke="grey" d="M1028.5,-447.697C1028.5,-439.983 1028.5,-430.712 1028.5,-422.112"/>
<polygon fill="grey" stroke="grey" points="1032,-422.104 1028.5,-412.104 1025,-422.104 1032,-422.104"/>
</g>
<!-- string_token_pair -->
<g id="node34" class="node"><title>string_token_pair</title>
<polygon fill="CornflowerBlue" stroke="black" points="1286.5,-484 1170.5,-484 1170.5,-448 1286.5,-448 1286.5,-484"/>
<text text-anchor="middle" x="1228.5" y="-462.3" font-family="Times,serif" font-size="14.00">string_token_pair</text>
</g>
<!-- string_token_set&#45;&gt;string_token_pair -->
<g id="edge34" class="edge"><title>string_token_set&#45;&gt;string_token_pair</title>
<path fill="none" stroke="grey" d="M1204.25,-520.434C1207.89,-512.414 1212.31,-502.664 1216.38,-493.699"/>
<polygon fill="grey" stroke="grey" points="1219.66,-494.951 1220.6,-484.399 1213.28,-492.058 1219.66,-494.951"/>
</g>
<!-- literal_label -->
<g id="node35" class="node"><title>literal_label</title>
<polygon fill="CornflowerBlue" stroke="black" points="1270,-412 1187,-412 1187,-376 1270,-376 1270,-412"/>
<text text-anchor="middle" x="1228.5" y="-390.3" font-family="Times,serif" font-size="14.00">literal_label</text>
</g>
<!-- string_token_pair&#45;&gt;literal_label -->
<g id="edge35" class="edge"><title>string_token_pair&#45;&gt;literal_label</title>
<path fill="none" stroke="grey" d="M1228.5,-447.697C1228.5,-439.983 1228.5,-430.712 1228.5,-422.112"/>
<polygon fill="grey" stroke="grey" points="1232,-422.104 1228.5,-412.104 1225,-422.104 1232,-422.104"/>
</g>
<!-- attribute_name attribute_value -->
<g id="node36" class="node"><title>attribute_name attribute_value</title>
<polygon fill="CornflowerBlue" stroke="black" points="1477,-412 1288,-412 1288,-376 1477,-376 1477,-412"/>
<text text-anchor="middle" x="1382.5" y="-390.3" font-family="Times,serif" font-size="14.00">attribute_name attribute_value</text>
</g>
<!-- string_token_pair&#45;&gt;attribute_name attribute_value -->
<g id="edge36" class="edge"><title>string_token_pair&#45;&gt;attribute_name attribute_value</title>
<path fill="none" stroke="grey" d="M1266.17,-447.876C1287.13,-438.349 1313.4,-426.407 1335.68,-416.283"/>
<polygon fill="grey" stroke="grey" points="1337.29,-419.393 1344.95,-412.068 1334.4,-413.02 1337.29,-419.393"/>
</g>
<!-- Legend -->
<g id="node38" class="node"><title>Legend</title>
<polygon fill="lightgrey" stroke="none" points="1142,-196 873,-196 873,-23 1142,-23 1142,-196"/>
<polygon fill="white" stroke="none" points="881,-27 881,-192 1134,-192 1134,-27 881,-27"/>
<polygon fill="pink" stroke="none" points="884.5,-167.5 884.5,-188.5 1131.5,-188.5 1131.5,-167.5 884.5,-167.5"/>
<polygon fill="none" stroke="black" points="884.5,-167.5 884.5,-188.5 1131.5,-188.5 1131.5,-167.5 884.5,-167.5"/>
<text text-anchor="start" x="927" y="-174.3" font-family="Times,serif" font-size="14.00">Pink nodes are &#39;:default&#39; rules</text>
<polygon fill="magenta" stroke="none" points="884.5,-144.5 884.5,-165.5 1131.5,-165.5 1131.5,-144.5 884.5,-144.5"/>
<polygon fill="none" stroke="black" points="884.5,-144.5 884.5,-165.5 1131.5,-165.5 1131.5,-144.5 884.5,-144.5"/>
<text text-anchor="start" x="915" y="-151.3" font-family="Times,serif" font-size="14.00">Magenta nodes are &#39;:discard&#39; rules</text>
<polygon fill="orchid" stroke="none" points="884.5,-121.5 884.5,-142.5 1131.5,-142.5 1131.5,-121.5 884.5,-121.5"/>
<polygon fill="none" stroke="black" points="884.5,-121.5 884.5,-142.5 1131.5,-142.5 1131.5,-121.5 884.5,-121.5"/>
<text text-anchor="start" x="888" y="-128.3" font-family="Times,serif" font-size="14.00">The orchid node is the &#39;discard default&#39; rule</text>
<polygon fill="goldenrod" stroke="none" points="884.5,-98.5 884.5,-119.5 1131.5,-119.5 1131.5,-98.5 884.5,-98.5"/>
<polygon fill="none" stroke="black" points="884.5,-98.5 884.5,-119.5 1131.5,-119.5 1131.5,-98.5 884.5,-98.5"/>
<text text-anchor="start" x="887.5" y="-105.3" font-family="Times,serif" font-size="14.00">The golden node is the &#39;lexeme default&#39; rule</text>
<polygon fill="lightgreen" stroke="none" points="884.5,-75.5 884.5,-96.5 1131.5,-96.5 1131.5,-75.5 884.5,-75.5"/>
<polygon fill="none" stroke="black" points="884.5,-75.5 884.5,-96.5 1131.5,-96.5 1131.5,-75.5 884.5,-75.5"/>
<text text-anchor="start" x="917" y="-82.3" font-family="Times,serif" font-size="14.00">The green node is the &#39;:start&#39; rule</text>
<polygon fill="CornflowerBlue" stroke="none" points="884.5,-52.5 884.5,-73.5 1131.5,-73.5 1131.5,-52.5 884.5,-52.5"/>
<polygon fill="none" stroke="black" points="884.5,-52.5 884.5,-73.5 1131.5,-73.5 1131.5,-52.5 884.5,-52.5"/>
<text text-anchor="start" x="910" y="-59.3" font-family="Times,serif" font-size="14.00">CornflowerBlue nodes are G1 rules</text>
<polygon fill="lightblue" stroke="none" points="884.5,-29.5 884.5,-50.5 1131.5,-50.5 1131.5,-29.5 884.5,-29.5"/>
<polygon fill="none" stroke="black" points="884.5,-29.5 884.5,-50.5 1131.5,-50.5 1131.5,-29.5 884.5,-29.5"/>
<text text-anchor="start" x="912.5" y="-36.3" font-family="Times,serif" font-size="14.00">Lightblue nodes are &#39;:lexeme&#39; rules</text>
<polygon fill="none" stroke="black" points="881,-27 881,-192 1134,-192 1134,-27 881,-27"/>
</g>
</g>
</svg>
