<?xml version="1.0" encoding="UTF-8" standalone="no"?>
<!DOCTYPE svg PUBLIC "-//W3C//DTD SVG 1.1//EN"
 "http://www.w3.org/Graphics/SVG/1.1/DTD/svg11.dtd">
<!-- Generated by graphviz version 2.38.0 (20140413.2041)
 -->
<!-- Title: Perl Pages: 1 -->
<svg width="875pt" height="349pt"
 viewBox="0.00 0.00 874.50 349.00" xmlns="http://www.w3.org/2000/svg" xmlns:xlink="http://www.w3.org/1999/xlink">
<g id="graph0" class="graph" transform="scale(1 1) rotate(0) translate(4 345)">
<title>Perl</title>
<polygon fill="white" stroke="none" points="-4,4 -4,-345 870.5,-345 870.5,4 -4,4"/>
<text text-anchor="middle" x="433.25" y="-7.8" font-family="Times,serif" font-size="14.00">stringparser.bnf</text>
<!-- ꞉default -->
<g id="node1" class="node"><title>꞉default</title>
<polygon fill="orange" stroke="black" points="101.5,-268.5 42.5,-268.5 42.5,-232.5 101.5,-232.5 101.5,-268.5"/>
<text text-anchor="middle" x="72" y="-246.8" font-family="Times,serif" font-size="14.00">꞉default</text>
</g>
<!-- ꞉default_1 -->
<g id="node3" class="node"><title>꞉default_1</title>
<path fill="orange" stroke="black" d="M12,-91.5C12,-91.5 104,-91.5 104,-91.5 110,-91.5 116,-97.5 116,-103.5 116,-103.5 116,-115.5 116,-115.5 116,-121.5 110,-127.5 104,-127.5 104,-127.5 12,-127.5 12,-127.5 6,-127.5 0,-121.5 0,-115.5 0,-115.5 0,-103.5 0,-103.5 0,-97.5 6,-91.5 12,-91.5"/>
<text text-anchor="middle" x="58" y="-105.8" font-family="Times,serif" font-size="14.00">action =&gt; [values]</text>
</g>
<!-- ꞉default&#45;&gt;꞉default_1 -->
<g id="edge2" class="edge"><title>꞉default&#45;&gt;꞉default_1</title>
<path fill="none" stroke="grey" d="M70.2833,-232.456C67.9007,-208.8 63.5658,-165.76 60.7349,-137.653"/>
<polygon fill="grey" stroke="grey" points="64.2153,-137.282 59.7307,-127.684 57.2505,-137.984 64.2153,-137.282"/>
</g>
<!-- BNF -->
<g id="node2" class="node"><title>BNF</title>
<polygon fill="lightgrey" stroke="black" points="304,-341 250,-341 250,-305 304,-305 304,-341"/>
<text text-anchor="middle" x="277" y="-319.3" font-family="Times,serif" font-size="14.00">BNF</text>
</g>
<!-- BNF&#45;&gt;꞉default -->
<g id="edge1" class="edge"><title>BNF&#45;&gt;꞉default</title>
<path fill="none" stroke="grey" d="M249.874,-313.34C218.129,-303.116 164.042,-285.424 118,-269 115.759,-268.201 113.462,-267.368 111.146,-266.519"/>
<polygon fill="grey" stroke="grey" points="112.219,-263.184 101.627,-262.979 109.78,-269.745 112.219,-263.184"/>
</g>
<!-- lexeme default -->
<g id="node4" class="node"><title>lexeme default</title>
<polygon fill="goldenrod" stroke="black" points="225,-268.5 127,-268.5 127,-232.5 225,-232.5 225,-268.5"/>
<text text-anchor="middle" x="176" y="-246.8" font-family="Times,serif" font-size="14.00">lexeme default</text>
</g>
<!-- BNF&#45;&gt;lexeme default -->
<g id="edge3" class="edge"><title>BNF&#45;&gt;lexeme default</title>
<path fill="none" stroke="grey" d="M252.551,-304.934C239.497,-295.822 223.245,-284.478 209.078,-274.589"/>
<polygon fill="grey" stroke="grey" points="210.777,-271.507 200.574,-268.653 206.771,-277.247 210.777,-271.507"/>
</g>
<!-- start -->
<g id="node6" class="node"><title>start</title>
<path fill="lightgreen" stroke="black" d="M262,-232.5C262,-232.5 292,-232.5 292,-232.5 298,-232.5 304,-238.5 304,-244.5 304,-244.5 304,-256.5 304,-256.5 304,-262.5 298,-268.5 292,-268.5 292,-268.5 262,-268.5 262,-268.5 256,-268.5 250,-262.5 250,-256.5 250,-256.5 250,-244.5 250,-244.5 250,-238.5 256,-232.5 262,-232.5"/>
<text text-anchor="middle" x="277" y="-246.8" font-family="Times,serif" font-size="14.00">꞉start</text>
</g>
<!-- BNF&#45;&gt;start -->
<g id="edge5" class="edge"><title>BNF&#45;&gt;start</title>
<path fill="none" stroke="grey" d="M277,-304.934C277,-297.17 277,-287.784 277,-279.06"/>
<polygon fill="grey" stroke="grey" points="280.5,-278.899 277,-268.899 273.5,-278.899 280.5,-278.899"/>
</g>
<!-- discard default -->
<g id="node8" class="node"><title>discard default</title>
<polygon fill="orchid" stroke="black" points="432,-268.5 334,-268.5 334,-232.5 432,-232.5 432,-268.5"/>
<text text-anchor="middle" x="383" y="-246.8" font-family="Times,serif" font-size="14.00">discard default</text>
</g>
<!-- BNF&#45;&gt;discard default -->
<g id="edge7" class="edge"><title>BNF&#45;&gt;discard default</title>
<path fill="none" stroke="grey" d="M302.66,-304.934C316.489,-295.736 333.738,-284.264 348.704,-274.31"/>
<polygon fill="grey" stroke="grey" points="350.821,-277.106 357.209,-268.653 346.944,-271.277 350.821,-277.106"/>
</g>
<!-- ꞉discard -->
<g id="node10" class="node"><title>꞉discard</title>
<polygon fill="magenta" stroke="black" points="534,-268.5 474,-268.5 474,-232.5 534,-232.5 534,-268.5"/>
<text text-anchor="middle" x="504" y="-246.8" font-family="Times,serif" font-size="14.00">꞉discard</text>
</g>
<!-- BNF&#45;&gt;꞉discard -->
<g id="edge9" class="edge"><title>BNF&#45;&gt;꞉discard</title>
<path fill="none" stroke="grey" d="M304.382,-313.496C344.26,-301.111 418.548,-278.039 464.391,-263.801"/>
<polygon fill="grey" stroke="grey" points="465.486,-267.126 473.998,-260.818 463.41,-260.441 465.486,-267.126"/>
</g>
<!-- lexeme default_1 -->
<g id="node5" class="node"><title>lexeme default_1</title>
<path fill="goldenrod" stroke="black" d="M146.5,-91.5C146.5,-91.5 193.5,-91.5 193.5,-91.5 199.5,-91.5 205.5,-97.5 205.5,-103.5 205.5,-103.5 205.5,-115.5 205.5,-115.5 205.5,-121.5 199.5,-127.5 193.5,-127.5 193.5,-127.5 146.5,-127.5 146.5,-127.5 140.5,-127.5 134.5,-121.5 134.5,-115.5 134.5,-115.5 134.5,-103.5 134.5,-103.5 134.5,-97.5 140.5,-91.5 146.5,-91.5"/>
<text text-anchor="middle" x="170" y="-105.8" font-family="Times,serif" font-size="14.00">latm =&gt; 1</text>
</g>
<!-- lexeme default&#45;&gt;lexeme default_1 -->
<g id="edge4" class="edge"><title>lexeme default&#45;&gt;lexeme default_1</title>
<path fill="none" stroke="grey" d="M175.264,-232.456C174.248,-208.904 172.402,-166.139 171.188,-138.026"/>
<polygon fill="grey" stroke="grey" points="174.67,-137.523 170.742,-127.684 167.676,-137.825 174.67,-137.523"/>
</g>
<!-- graph_grammar -->
<g id="node7" class="node"><title>graph_grammar</title>
<path fill="lightgreen" stroke="black" d="M236,-91.5C236,-91.5 318,-91.5 318,-91.5 324,-91.5 330,-97.5 330,-103.5 330,-103.5 330,-115.5 330,-115.5 330,-121.5 324,-127.5 318,-127.5 318,-127.5 236,-127.5 236,-127.5 230,-127.5 224,-121.5 224,-115.5 224,-115.5 224,-103.5 224,-103.5 224,-97.5 230,-91.5 236,-91.5"/>
<text text-anchor="middle" x="277" y="-105.8" font-family="Times,serif" font-size="14.00">graph_grammar</text>
</g>
<!-- start&#45;&gt;graph_grammar -->
<g id="edge6" class="edge"><title>start&#45;&gt;graph_grammar</title>
<path fill="none" stroke="grey" d="M277,-232.456C277,-208.904 277,-166.139 277,-138.026"/>
<polygon fill="grey" stroke="grey" points="280.5,-137.684 277,-127.684 273.5,-137.684 280.5,-137.684"/>
</g>
<!-- discard default_1 -->
<g id="node9" class="node"><title>discard default_1</title>
<path fill="orchid" stroke="black" d="M360,-91.5C360,-91.5 448,-91.5 448,-91.5 454,-91.5 460,-97.5 460,-103.5 460,-103.5 460,-115.5 460,-115.5 460,-121.5 454,-127.5 448,-127.5 448,-127.5 360,-127.5 360,-127.5 354,-127.5 348,-121.5 348,-115.5 348,-115.5 348,-103.5 348,-103.5 348,-97.5 354,-91.5 360,-91.5"/>
<text text-anchor="middle" x="404" y="-105.8" font-family="Times,serif" font-size="14.00">event =&gt; :symbol</text>
</g>
<!-- discard default&#45;&gt;discard default_1 -->
<g id="edge8" class="edge"><title>discard default&#45;&gt;discard default_1</title>
<path fill="none" stroke="grey" d="M385.575,-232.456C389.149,-208.8 395.651,-165.76 399.898,-137.653"/>
<polygon fill="grey" stroke="grey" points="403.371,-138.094 401.404,-127.684 396.449,-137.048 403.371,-138.094"/>
</g>
<!-- whitespace -->
<g id="node11" class="node"><title>whitespace</title>
<polygon fill="magenta" stroke="black" points="555.5,-127.5 478.5,-127.5 478.5,-91.5 555.5,-91.5 555.5,-127.5"/>
<text text-anchor="middle" x="517" y="-105.8" font-family="Times,serif" font-size="14.00">whitespace</text>
</g>
<!-- ꞉discard&#45;&gt;whitespace -->
<g id="edge10" class="edge"><title>꞉discard&#45;&gt;whitespace</title>
<path fill="none" stroke="grey" d="M505.594,-232.456C507.806,-208.8 511.832,-165.76 514.46,-137.653"/>
<polygon fill="grey" stroke="grey" points="517.946,-137.966 515.393,-127.684 510.977,-137.314 517.946,-137.966"/>
</g>
<!-- Legend -->
<g id="node12" class="node"><title>Legend</title>
<polygon fill="lightgrey" stroke="none" points="866.5,-196 573.5,-196 573.5,-23 866.5,-23 866.5,-196"/>
<polygon fill="white" stroke="none" points="581.5,-27 581.5,-192 858.5,-192 858.5,-27 581.5,-27"/>
<polygon fill="lightblue" stroke="none" points="585,-167.5 585,-188.5 856,-188.5 856,-167.5 585,-167.5"/>
<polygon fill="none" stroke="black" points="585,-167.5 585,-188.5 856,-188.5 856,-167.5 585,-167.5"/>
<text text-anchor="start" x="588" y="-174.3" font-family="Times,serif" font-size="14.00">Lightblue nodes are for reserved rule names, etc</text>
<polygon fill="orange" stroke="none" points="585,-144.5 585,-165.5 856,-165.5 856,-144.5 585,-144.5"/>
<polygon fill="none" stroke="black" points="585,-144.5 585,-165.5 856,-165.5 856,-144.5 585,-144.5"/>
<text text-anchor="start" x="631.5" y="-151.3" font-family="Times,serif" font-size="14.00">Orange nodes are &#39;:default&#39; rules</text>
<polygon fill="magenta" stroke="none" points="585,-121.5 585,-142.5 856,-142.5 856,-121.5 585,-121.5"/>
<polygon fill="none" stroke="black" points="585,-121.5 585,-142.5 856,-142.5 856,-121.5 585,-121.5"/>
<text text-anchor="start" x="627.5" y="-128.3" font-family="Times,serif" font-size="14.00">Magenta nodes are &#39;:discard&#39; rules</text>
<polygon fill="orchid" stroke="none" points="585,-98.5 585,-119.5 856,-119.5 856,-98.5 585,-98.5"/>
<polygon fill="none" stroke="black" points="585,-98.5 585,-119.5 856,-119.5 856,-98.5 585,-98.5"/>
<text text-anchor="start" x="600.5" y="-105.3" font-family="Times,serif" font-size="14.00">The orchid node is the &#39;discard default&#39; rule</text>
<polygon fill="#ff3030" stroke="none" points="585,-75.5 585,-96.5 856,-96.5 856,-75.5 585,-75.5"/>
<polygon fill="none" stroke="black" points="585,-75.5 585,-96.5 856,-96.5 856,-75.5 585,-75.5"/>
<text text-anchor="start" x="651.5" y="-82.3" font-family="Times,serif" font-size="14.00">Red nodes are the events</text>
<polygon fill="goldenrod" stroke="none" points="585,-52.5 585,-73.5 856,-73.5 856,-52.5 585,-52.5"/>
<polygon fill="none" stroke="black" points="585,-52.5 585,-73.5 856,-73.5 856,-52.5 585,-52.5"/>
<text text-anchor="start" x="600" y="-59.3" font-family="Times,serif" font-size="14.00">The golden node is the &#39;lexeme default&#39; rule</text>
<polygon fill="lightgreen" stroke="none" points="585,-29.5 585,-50.5 856,-50.5 856,-29.5 585,-29.5"/>
<polygon fill="none" stroke="black" points="585,-29.5 585,-50.5 856,-50.5 856,-29.5 585,-29.5"/>
<text text-anchor="start" x="629.5" y="-36.3" font-family="Times,serif" font-size="14.00">The green node is the &#39;:start&#39; rule</text>
<polygon fill="none" stroke="black" points="581.5,-27 581.5,-192 858.5,-192 858.5,-27 581.5,-27"/>
</g>
</g>
</svg>
