<?xml version="1.0" encoding="UTF-8" standalone="no"?>
<!DOCTYPE svg PUBLIC "-//W3C//DTD SVG 1.1//EN"
 "http://www.w3.org/Graphics/SVG/1.1/DTD/svg11.dtd">
<!-- Generated by graphviz version 2.30.1 (20130611.0131)
 -->
<!-- Title: Perl Pages: 1 -->
<svg width="1293pt" height="1027pt"
 viewBox="0.00 0.00 1293.00 1027.00" xmlns="http://www.w3.org/2000/svg" xmlns:xlink="http://www.w3.org/1999/xlink">
<g id="graph0" class="graph" transform="scale(1 1) rotate(0) translate(4 1023)">
<title>Perl</title>
<polygon fill="white" stroke="white" points="-4,5 -4,-1023 1290,-1023 1290,5 -4,5"/>
<text text-anchor="middle" x="642.5" y="-7.8" font-family="Times,serif" font-size="14.00">stringparser.bnf</text>
<!-- graph_grammar -->
<g id="node1" class="node"><title>graph_grammar</title>
<path fill="lightgreen" stroke="black" d="M366,-972C366,-972 446,-972 446,-972 452,-972 458,-978 458,-984 458,-984 458,-1006 458,-1006 458,-1012 452,-1018 446,-1018 446,-1018 366,-1018 366,-1018 360,-1018 354,-1012 354,-1006 354,-1006 354,-984 354,-984 354,-978 360,-972 366,-972"/>
<text text-anchor="middle" x="406" y="-1002.8" font-family="Times,serif" font-size="14.00">:start</text>
<polyline fill="none" stroke="black" points="354,-995 458,-995 "/>
<text text-anchor="middle" x="406" y="-979.8" font-family="Times,serif" font-size="14.00">graph_grammar</text>
</g>
<!-- ꞉default -->
<g id="node2" class="node"><title>꞉default</title>
<polygon fill="lightblue" stroke="black" points="305.5,-935 248.5,-935 248.5,-899 305.5,-899 305.5,-935"/>
<text text-anchor="middle" x="277" y="-913.3" font-family="Times,serif" font-size="14.00">꞉default</text>
</g>
<!-- graph_grammar&#45;&gt;꞉default -->
<g id="edge1" class="edge"><title>graph_grammar&#45;&gt;꞉default</title>
<path fill="none" stroke="grey" d="M368.341,-971.813C351.525,-961.906 331.746,-950.253 314.901,-940.329"/>
<polygon fill="grey" stroke="grey" points="316.275,-937.076 305.882,-935.016 312.722,-943.108 316.275,-937.076"/>
</g>
<!-- ꞉discard -->
<g id="node4" class="node"><title>꞉discard</title>
<polygon fill="lightblue" stroke="black" points="402.25,-935 343.75,-935 343.75,-899 402.25,-899 402.25,-935"/>
<text text-anchor="middle" x="373" y="-913.3" font-family="Times,serif" font-size="14.00">꞉discard</text>
</g>
<!-- graph_grammar&#45;&gt;꞉discard -->
<g id="edge3" class="edge"><title>graph_grammar&#45;&gt;꞉discard</title>
<path fill="none" stroke="grey" d="M396.277,-971.609C392.631,-963.21 388.449,-953.58 384.646,-944.82"/>
<polygon fill="grey" stroke="grey" points="387.754,-943.191 380.561,-935.412 381.333,-945.979 387.754,-943.191"/>
</g>
<!-- graph_definition -->
<g id="node6" class="node"><title>graph_definition</title>
<polygon fill="white" stroke="black" points="546.25,-757 439.75,-757 439.75,-721 546.25,-721 546.25,-757"/>
<text text-anchor="middle" x="493" y="-735.3" font-family="Times,serif" font-size="14.00">graph_definition</text>
</g>
<!-- graph_grammar&#45;&gt;graph_definition -->
<g id="edge5" class="edge"><title>graph_grammar&#45;&gt;graph_definition</title>
<path fill="none" stroke="grey" d="M408.831,-971.712C414.247,-933.673 428.1,-854.38 456,-793 460.343,-783.447 466.45,-773.8 472.453,-765.404"/>
<polygon fill="grey" stroke="grey" points="475.425,-767.273 478.593,-757.163 469.812,-763.091 475.425,-767.273"/>
</g>
<!-- event -->
<g id="node44" class="node"><title>event</title>
<polygon fill="#ff3030" stroke="black" points="531,-935 477,-935 477,-899 531,-899 531,-935"/>
<text text-anchor="middle" x="504" y="-913.3" font-family="Times,serif" font-size="14.00">event</text>
</g>
<!-- graph_grammar&#45;&gt;event -->
<g id="edge55" class="edge"><title>graph_grammar&#45;&gt;event</title>
<path fill="none" stroke="grey" d="M434.609,-971.813C447.029,-962.181 461.577,-950.899 474.135,-941.16"/>
<polygon fill="grey" stroke="grey" points="476.301,-943.91 482.058,-935.016 472.011,-938.378 476.301,-943.91"/>
</g>
<!-- ꞉default_1 -->
<g id="node3" class="node"><title>꞉default_1</title>
<path fill="goldenrod" stroke="black" d="M207.5,-810C207.5,-810 300.5,-810 300.5,-810 306.5,-810 312.5,-816 312.5,-822 312.5,-822 312.5,-834 312.5,-834 312.5,-840 306.5,-846 300.5,-846 300.5,-846 207.5,-846 207.5,-846 201.5,-846 195.5,-840 195.5,-834 195.5,-834 195.5,-822 195.5,-822 195.5,-816 201.5,-810 207.5,-810"/>
<text text-anchor="middle" x="254" y="-824.3" font-family="Times,serif" font-size="14.00">action =&gt; [values]</text>
</g>
<!-- ꞉default&#45;&gt;꞉default_1 -->
<g id="edge2" class="edge"><title>꞉default&#45;&gt;꞉default_1</title>
<path fill="none" stroke="grey" d="M272.456,-898.812C269.243,-886.657 264.869,-870.114 261.186,-856.182"/>
<polygon fill="grey" stroke="grey" points="264.474,-854.926 258.535,-846.153 257.707,-856.715 264.474,-854.926"/>
</g>
<!-- whitespace -->
<g id="node5" class="node"><title>whitespace</title>
<polygon fill="lightblue" stroke="black" points="407.25,-846 330.75,-846 330.75,-810 407.25,-810 407.25,-846"/>
<text text-anchor="middle" x="369" y="-824.3" font-family="Times,serif" font-size="14.00">whitespace</text>
</g>
<!-- ꞉discard&#45;&gt;whitespace -->
<g id="edge4" class="edge"><title>꞉discard&#45;&gt;whitespace</title>
<path fill="none" stroke="grey" d="M372.21,-898.812C371.651,-886.657 370.89,-870.114 370.25,-856.182"/>
<polygon fill="grey" stroke="grey" points="373.744,-855.981 369.789,-846.153 366.752,-856.303 373.744,-855.981"/>
</g>
<!-- [\\s] -->
<g id="node43" class="node"><title>[\\s]</title>
<polygon fill="white" stroke="black" points="396,-757 342,-757 342,-721 396,-721 396,-757"/>
<text text-anchor="middle" x="369" y="-735.3" font-family="Times,serif" font-size="14.00">[\s]+</text>
</g>
<!-- whitespace&#45;&gt;[\\s] -->
<g id="edge54" class="edge"><title>whitespace&#45;&gt;[\\s]</title>
<path fill="none" stroke="grey" d="M369,-809.812C369,-797.657 369,-781.114 369,-767.182"/>
<polygon fill="grey" stroke="grey" points="372.5,-767.153 369,-757.153 365.5,-767.153 372.5,-767.153"/>
</g>
<!-- graph_definition_attributes -->
<g id="node7" class="node"><title>graph_definition_attributes</title>
<path fill="goldenrod" stroke="black" d="M253,-648C253,-648 333,-648 333,-648 339,-648 345,-654 345,-660 345,-660 345,-672 345,-672 345,-678 339,-684 333,-684 333,-684 253,-684 253,-684 247,-684 241,-678 241,-672 241,-672 241,-660 241,-660 241,-654 247,-648 253,-648"/>
<text text-anchor="middle" x="293" y="-662.3" font-family="Times,serif" font-size="14.00">action =&gt; graph</text>
</g>
<!-- graph_definition&#45;&gt;graph_definition_attributes -->
<g id="edge6" class="edge"><title>graph_definition&#45;&gt;graph_definition_attributes</title>
<path fill="none" stroke="grey" d="M445.095,-720.994C416.732,-710.925 380.61,-698.102 350.687,-687.479"/>
<polygon fill="grey" stroke="grey" points="351.802,-684.161 341.207,-684.114 349.46,-690.757 351.802,-684.161"/>
</g>
<!-- node_definition -->
<g id="node8" class="node"><title>node_definition</title>
<polygon fill="white" stroke="black" points="464.5,-684 363.5,-684 363.5,-648 464.5,-648 464.5,-684"/>
<text text-anchor="middle" x="414" y="-662.3" font-family="Times,serif" font-size="14.00">node_definition</text>
</g>
<!-- graph_definition&#45;&gt;node_definition -->
<g id="edge7" class="edge"><title>graph_definition&#45;&gt;node_definition</title>
<path fill="none" stroke="grey" d="M473.876,-720.813C463.881,-711.83 451.49,-700.693 440.577,-690.886"/>
<polygon fill="grey" stroke="grey" points="442.725,-688.11 432.948,-684.029 438.046,-693.316 442.725,-688.11"/>
</g>
<!-- edge_definition -->
<g id="node9" class="node"><title>edge_definition</title>
<polygon fill="white" stroke="black" points="622.25,-684 521.75,-684 521.75,-648 622.25,-648 622.25,-684"/>
<text text-anchor="middle" x="572" y="-662.3" font-family="Times,serif" font-size="14.00">edge_definition</text>
</g>
<!-- graph_definition&#45;&gt;edge_definition -->
<g id="edge8" class="edge"><title>graph_definition&#45;&gt;edge_definition</title>
<path fill="none" stroke="grey" d="M512.124,-720.813C522.119,-711.83 534.51,-700.693 545.423,-690.886"/>
<polygon fill="grey" stroke="grey" points="547.954,-693.316 553.052,-684.029 543.275,-688.11 547.954,-693.316"/>
</g>
<!-- node_statement -->
<g id="node10" class="node"><title>node_statement</title>
<polygon fill="white" stroke="black" points="428.5,-539 327.5,-539 327.5,-503 428.5,-503 428.5,-539"/>
<text text-anchor="middle" x="378" y="-517.3" font-family="Times,serif" font-size="14.00">node_statement</text>
</g>
<!-- node_definition&#45;&gt;node_statement -->
<g id="edge9" class="edge"><title>node_definition&#45;&gt;node_statement</title>
<path fill="none" stroke="grey" d="M365.372,-647.811C348.923,-639.396 332.363,-627.443 323,-611 315.083,-597.096 316.74,-589.725 323,-575 327.735,-563.862 336.084,-553.93 344.868,-545.759"/>
<polygon fill="grey" stroke="grey" points="347.352,-548.238 352.62,-539.045 342.77,-542.946 347.352,-548.238"/>
</g>
<!-- node_statement graph_definition -->
<g id="node11" class="node"><title>node_statement graph_definition</title>
<polygon fill="white" stroke="black" points="527.5,-611 332.5,-611 332.5,-575 527.5,-575 527.5,-611"/>
<text text-anchor="middle" x="430" y="-589.3" font-family="Times,serif" font-size="14.00">node_statement graph_definition</text>
</g>
<!-- node_definition&#45;&gt;node_statement graph_definition -->
<g id="edge10" class="edge"><title>node_definition&#45;&gt;node_statement graph_definition</title>
<path fill="none" stroke="grey" d="M417.873,-647.813C419.681,-639.789 421.877,-630.047 423.9,-621.069"/>
<polygon fill="grey" stroke="grey" points="427.378,-621.554 426.163,-611.029 420.55,-620.015 427.378,-621.554"/>
</g>
<!-- edge_statement -->
<g id="node24" class="node"><title>edge_statement</title>
<polygon fill="white" stroke="black" points="658.25,-539 557.75,-539 557.75,-503 658.25,-503 658.25,-539"/>
<text text-anchor="middle" x="608" y="-517.3" font-family="Times,serif" font-size="14.00">edge_statement</text>
</g>
<!-- edge_definition&#45;&gt;edge_statement -->
<g id="edge28" class="edge"><title>edge_definition&#45;&gt;edge_statement</title>
<path fill="none" stroke="grey" d="M569.995,-647.988C568.409,-629.568 567.543,-599.531 575,-575 577.917,-565.404 583.037,-555.821 588.386,-547.494"/>
<polygon fill="grey" stroke="grey" points="591.43,-549.242 594.186,-539.012 585.652,-545.291 591.43,-549.242"/>
</g>
<!-- edge_statement graph_definition -->
<g id="node25" class="node"><title>edge_statement graph_definition</title>
<polygon fill="white" stroke="black" points="778.25,-611 583.75,-611 583.75,-575 778.25,-575 778.25,-611"/>
<text text-anchor="middle" x="681" y="-589.3" font-family="Times,serif" font-size="14.00">edge_statement graph_definition</text>
</g>
<!-- edge_definition&#45;&gt;edge_statement graph_definition -->
<g id="edge29" class="edge"><title>edge_definition&#45;&gt;edge_statement graph_definition</title>
<path fill="none" stroke="grey" d="M598.108,-647.994C612.563,-638.579 630.713,-626.755 646.343,-616.575"/>
<polygon fill="grey" stroke="grey" points="648.258,-619.504 654.727,-611.114 644.438,-613.639 648.258,-619.504"/>
</g>
<!-- node_name -->
<g id="node12" class="node"><title>node_name</title>
<polygon fill="white" stroke="black" points="151,-395 71,-395 71,-359 151,-359 151,-395"/>
<text text-anchor="middle" x="111" y="-373.3" font-family="Times,serif" font-size="14.00">node_name</text>
</g>
<!-- node_statement&#45;&gt;node_name -->
<g id="edge13" class="edge"><title>node_statement&#45;&gt;node_name</title>
<path fill="none" stroke="grey" d="M327.404,-519.283C245.868,-516.936 91.0757,-507.163 57,-467 39.893,-446.837 59.9781,-420.651 80.3311,-401.912"/>
<polygon fill="grey" stroke="grey" points="82.8598,-404.349 88.0677,-395.123 78.2428,-399.088 82.8598,-404.349"/>
</g>
<!-- node_name attribute_definition -->
<g id="node13" class="node"><title>node_name attribute_definition</title>
<polygon fill="white" stroke="black" points="254,-467 66,-467 66,-431 254,-431 254,-467"/>
<text text-anchor="middle" x="160" y="-445.3" font-family="Times,serif" font-size="14.00">node_name attribute_definition</text>
</g>
<!-- node_statement&#45;&gt;node_name attribute_definition -->
<g id="edge14" class="edge"><title>node_statement&#45;&gt;node_name attribute_definition</title>
<path fill="none" stroke="grey" d="M327.438,-503.765C296.186,-493.729 255.832,-480.772 222.572,-470.092"/>
<polygon fill="grey" stroke="grey" points="223.537,-466.726 212.946,-467.001 221.397,-473.391 223.537,-466.726"/>
</g>
<!-- node_statement (&#39;,&#39;) node_statement -->
<g id="node15" class="node"><title>node_statement (&#39;,&#39;) node_statement</title>
<polygon fill="white" stroke="black" points="483.5,-467 272.5,-467 272.5,-431 483.5,-431 483.5,-467"/>
<text text-anchor="middle" x="378" y="-445.3" font-family="Times,serif" font-size="14.00">node_statement (&#39;,&#39;) node_statement</text>
</g>
<!-- node_statement&#45;&gt;node_statement (&#39;,&#39;) node_statement -->
<g id="edge17" class="edge"><title>node_statement&#45;&gt;node_statement (&#39;,&#39;) node_statement</title>
<path fill="none" stroke="grey" d="M366.169,-502.697C364.577,-494.983 364.124,-485.712 364.809,-477.112"/>
<polygon fill="grey" stroke="grey" points="368.29,-477.493 366.21,-467.104 361.358,-476.523 368.29,-477.493"/>
</g>
<!-- node_statement graph_definition&#45;&gt;node_statement -->
<g id="edge11" class="edge"><title>node_statement graph_definition&#45;&gt;node_statement</title>
<path fill="none" stroke="grey" d="M417.146,-574.697C410.975,-566.389 403.463,-556.277 396.676,-547.141"/>
<polygon fill="grey" stroke="grey" points="399.479,-545.045 390.706,-539.104 393.86,-549.219 399.479,-545.045"/>
</g>
<!-- node_statement graph_definition&#45;&gt;graph_definition -->
<g id="edge12" class="edge"><title>node_statement graph_definition&#45;&gt;graph_definition</title>
<path fill="none" stroke="grey" d="M447.421,-611.184C456.335,-620.915 466.623,-633.764 473,-647 482.684,-667.1 487.739,-691.957 490.341,-710.611"/>
<polygon fill="grey" stroke="grey" points="486.9,-711.302 491.607,-720.794 493.847,-710.438 486.9,-711.302"/>
</g>
<!-- start_node end_node -->
<g id="node17" class="node"><title>start_node end_node</title>
<polygon fill="white" stroke="black" points="175.25,-317 46.75,-317 46.75,-281 175.25,-281 175.25,-317"/>
<text text-anchor="middle" x="111" y="-295.3" font-family="Times,serif" font-size="14.00">start_node end_node</text>
</g>
<!-- node_name&#45;&gt;start_node end_node -->
<g id="edge21" class="edge"><title>node_name&#45;&gt;start_node end_node</title>
<path fill="none" stroke="grey" d="M111,-358.754C111,-349.523 111,-337.935 111,-327.495"/>
<polygon fill="grey" stroke="grey" points="114.5,-327.177 111,-317.177 107.5,-327.177 114.5,-327.177"/>
</g>
<!-- node_name attribute_definition&#45;&gt;node_name -->
<g id="edge15" class="edge"><title>node_name attribute_definition&#45;&gt;node_name</title>
<path fill="none" stroke="grey" d="M147.888,-430.697C142.132,-422.474 135.138,-412.483 128.794,-403.421"/>
<polygon fill="grey" stroke="grey" points="131.575,-401.29 122.973,-395.104 125.84,-405.304 131.575,-401.29"/>
</g>
<!-- attribute_definition -->
<g id="node14" class="node"><title>attribute_definition</title>
<polygon fill="white" stroke="black" points="575.25,-395 454.75,-395 454.75,-359 575.25,-359 575.25,-395"/>
<text text-anchor="middle" x="515" y="-373.3" font-family="Times,serif" font-size="14.00">attribute_definition</text>
</g>
<!-- node_name attribute_definition&#45;&gt;attribute_definition -->
<g id="edge16" class="edge"><title>node_name attribute_definition&#45;&gt;attribute_definition</title>
<path fill="none" stroke="grey" d="M253.786,-430.966C307.993,-420.925 377.44,-407.729 439,-395 440.73,-394.642 442.48,-394.277 444.246,-393.906"/>
<polygon fill="grey" stroke="grey" points="445.422,-397.233 454.472,-391.724 443.962,-390.388 445.422,-397.233"/>
</g>
<!-- attribute_statement -->
<g id="node35" class="node"><title>attribute_statement</title>
<polygon fill="white" stroke="black" points="579,-317 451,-317 451,-281 579,-281 579,-317"/>
<text text-anchor="middle" x="515" y="-295.3" font-family="Times,serif" font-size="14.00">attribute_statement*</text>
</g>
<!-- attribute_definition&#45;&gt;attribute_statement -->
<g id="edge46" class="edge"><title>attribute_definition&#45;&gt;attribute_statement</title>
<path fill="none" stroke="grey" d="M515,-358.754C515,-349.523 515,-337.935 515,-327.495"/>
<polygon fill="grey" stroke="grey" points="518.5,-327.177 515,-317.177 511.5,-327.177 518.5,-327.177"/>
</g>
<!-- node_statement (&#39;,&#39;) node_statement&#45;&gt;node_statement -->
<g id="edge18" class="edge"><title>node_statement (&#39;,&#39;) node_statement&#45;&gt;node_statement</title>
<path fill="none" stroke="grey" d="M378,-467.104C378,-474.791 378,-484.054 378,-492.665"/>
<polygon fill="grey" stroke="grey" points="374.5,-492.697 378,-502.697 381.5,-492.697 374.5,-492.697"/>
</g>
<!-- (&#39;,&#39;) -->
<g id="node16" class="node"><title>(&#39;,&#39;)</title>
<polygon fill="white" stroke="black" points="430,-395 376,-395 376,-359 430,-359 430,-395"/>
<text text-anchor="middle" x="403" y="-373.3" font-family="Times,serif" font-size="14.00">(&#39;,&#39;)</text>
</g>
<!-- node_statement (&#39;,&#39;) node_statement&#45;&gt;(&#39;,&#39;) -->
<g id="edge19" class="edge"><title>node_statement (&#39;,&#39;) node_statement&#45;&gt;(&#39;,&#39;)</title>
<path fill="none" stroke="grey" d="M384.18,-430.697C386.995,-422.813 390.391,-413.304 393.519,-404.546"/>
<polygon fill="grey" stroke="grey" points="396.824,-405.699 396.891,-395.104 390.232,-403.345 396.824,-405.699"/>
</g>
<!-- node_statement (&#39;,&#39;) node_statement&#45;&gt;node_statement -->
<g id="edge20" class="edge"><title>node_statement (&#39;,&#39;) node_statement&#45;&gt;node_statement</title>
<path fill="none" stroke="grey" d="M389.79,-467.104C391.401,-474.791 391.874,-484.054 391.208,-492.665"/>
<polygon fill="grey" stroke="grey" points="387.724,-492.314 389.831,-502.697 394.659,-493.265 387.724,-492.314"/>
</g>
<!-- start_node -->
<g id="node18" class="node"><title>start_node</title>
<path fill="orchid" stroke="black" d="M182.5,-192C182.5,-192 231.5,-192 231.5,-192 237.5,-192 243.5,-198 243.5,-204 243.5,-204 243.5,-226 243.5,-226 243.5,-232 237.5,-238 231.5,-238 231.5,-238 182.5,-238 182.5,-238 176.5,-238 170.5,-232 170.5,-226 170.5,-226 170.5,-204 170.5,-204 170.5,-198 176.5,-192 182.5,-192"/>
<text text-anchor="middle" x="207" y="-222.8" font-family="Times,serif" font-size="14.00">꞉lexeme</text>
<polyline fill="none" stroke="black" points="170.5,-215 243.5,-215 "/>
<text text-anchor="middle" x="207" y="-199.8" font-family="Times,serif" font-size="14.00">start_node</text>
</g>
<!-- start_node end_node&#45;&gt;start_node -->
<g id="edge22" class="edge"><title>start_node end_node&#45;&gt;start_node</title>
<path fill="none" stroke="grey" d="M131.359,-280.61C143.506,-270.235 159.234,-256.8 173.2,-244.871"/>
<polygon fill="grey" stroke="grey" points="175.849,-247.212 181.179,-238.055 171.302,-241.889 175.849,-247.212"/>
</g>
<!-- end_node -->
<g id="node20" class="node"><title>end_node</title>
<polygon fill="white" stroke="black" points="133.25,-233 64.75,-233 64.75,-197 133.25,-197 133.25,-233"/>
<text text-anchor="middle" x="99" y="-211.3" font-family="Times,serif" font-size="14.00">end_node</text>
</g>
<!-- start_node end_node&#45;&gt;end_node -->
<g id="edge24" class="edge"><title>start_node end_node&#45;&gt;end_node</title>
<path fill="none" stroke="grey" d="M108.455,-280.61C106.869,-269.774 104.795,-255.601 102.994,-243.291"/>
<polygon fill="grey" stroke="grey" points="106.411,-242.472 101.5,-233.084 99.485,-243.485 106.411,-242.472"/>
</g>
<!-- start_node_0 -->
<g id="node19" class="node"><title>start_node_0</title>
<path fill="lightblue" stroke="black" d="M156,-108C156,-108 258,-108 258,-108 264,-108 270,-114 270,-120 270,-120 270,-142 270,-142 270,-148 264,-154 258,-154 258,-154 156,-154 156,-154 150,-154 144,-148 144,-142 144,-142 144,-120 144,-120 144,-114 150,-108 156,-108"/>
<text text-anchor="middle" x="207" y="-138.8" font-family="Times,serif" font-size="14.00">event =&gt; start_node</text>
<polyline fill="none" stroke="black" points="144,-131 270,-131 "/>
<text text-anchor="middle" x="207" y="-115.8" font-family="Times,serif" font-size="14.00">pause =&gt; before</text>
</g>
<!-- start_node&#45;&gt;start_node_0 -->
<g id="edge23" class="edge"><title>start_node&#45;&gt;start_node_0</title>
<path fill="none" stroke="grey" d="M207,-191.593C207,-183.118 207,-173.297 207,-164.104"/>
<polygon fill="grey" stroke="grey" points="210.5,-164.096 207,-154.096 203.5,-164.096 210.5,-164.096"/>
</g>
<!-- &#39;[&#39; -->
<g id="node22" class="node"><title>&#39;[&#39;</title>
<polygon fill="white" stroke="black" points="342,-149 288,-149 288,-113 342,-113 342,-149"/>
<text text-anchor="middle" x="315" y="-127.3" font-family="Times,serif" font-size="14.00">&#39;[&#39;</text>
</g>
<!-- start_node&#45;&gt;&#39;[&#39; -->
<g id="edge26" class="edge"><title>start_node&#45;&gt;&#39;[&#39;</title>
<path fill="none" stroke="grey" d="M236.226,-191.81C251.196,-180.444 269.408,-166.616 284.549,-155.121"/>
<polygon fill="grey" stroke="grey" points="286.756,-157.839 292.604,-149.004 282.523,-152.264 286.756,-157.839"/>
</g>
<!-- end_node_1 -->
<g id="node21" class="node"><title>end_node_1</title>
<polygon fill="lightblue" stroke="black" points="54,-149 0,-149 0,-113 54,-113 54,-149"/>
</g>
<!-- end_node&#45;&gt;end_node_1 -->
<g id="edge25" class="edge"><title>end_node&#45;&gt;end_node_1</title>
<path fill="none" stroke="grey" d="M83.7307,-196.61C73.5437,-185.008 59.9973,-169.58 48.6965,-156.71"/>
<polygon fill="grey" stroke="grey" points="51.2285,-154.289 42.0004,-149.084 45.9684,-158.908 51.2285,-154.289"/>
</g>
<!-- &#39;]&#39; -->
<g id="node23" class="node"><title>&#39;]&#39;</title>
<polygon fill="white" stroke="black" points="126,-149 72,-149 72,-113 126,-113 126,-149"/>
<text text-anchor="middle" x="99" y="-127.3" font-family="Times,serif" font-size="14.00">&#39;]&#39;</text>
</g>
<!-- end_node&#45;&gt;&#39;]&#39; -->
<g id="edge27" class="edge"><title>end_node&#45;&gt;&#39;]&#39;</title>
<path fill="none" stroke="grey" d="M99,-196.61C99,-185.774 99,-171.601 99,-159.291"/>
<polygon fill="grey" stroke="grey" points="102.5,-159.084 99,-149.084 95.5001,-159.084 102.5,-159.084"/>
</g>
<!-- edge_name -->
<g id="node26" class="node"><title>edge_name</title>
<polygon fill="white" stroke="black" points="878.25,-395 799.75,-395 799.75,-359 878.25,-359 878.25,-395"/>
<text text-anchor="middle" x="839" y="-373.3" font-family="Times,serif" font-size="14.00">edge_name</text>
</g>
<!-- edge_statement&#45;&gt;edge_name -->
<g id="edge32" class="edge"><title>edge_statement&#45;&gt;edge_name</title>
<path fill="none" stroke="grey" d="M658.284,-519.233C739.317,-516.813 893.151,-506.937 927,-467 937.345,-454.794 934.872,-444.93 927,-431 918.272,-415.554 903.039,-404.11 887.675,-395.889"/>
<polygon fill="grey" stroke="grey" points="889.176,-392.726 878.662,-391.415 886.063,-398.996 889.176,-392.726"/>
</g>
<!-- edge_name attribute_definition -->
<g id="node27" class="node"><title>edge_name attribute_definition</title>
<polygon fill="white" stroke="black" points="918.25,-467 731.75,-467 731.75,-431 918.25,-431 918.25,-467"/>
<text text-anchor="middle" x="825" y="-445.3" font-family="Times,serif" font-size="14.00">edge_name attribute_definition</text>
</g>
<!-- edge_statement&#45;&gt;edge_name attribute_definition -->
<g id="edge33" class="edge"><title>edge_statement&#45;&gt;edge_name attribute_definition</title>
<path fill="none" stroke="grey" d="M658.33,-503.765C689.439,-493.729 729.607,-480.772 762.715,-470.092"/>
<polygon fill="grey" stroke="grey" points="763.855,-473.402 772.297,-467.001 761.706,-466.74 763.855,-473.402"/>
</g>
<!-- edge_statement (&#39;,&#39;) edge_statement -->
<g id="node28" class="node"><title>edge_statement (&#39;,&#39;) edge_statement</title>
<polygon fill="white" stroke="black" points="713.25,-467 502.75,-467 502.75,-431 713.25,-431 713.25,-467"/>
<text text-anchor="middle" x="608" y="-445.3" font-family="Times,serif" font-size="14.00">edge_statement (&#39;,&#39;) edge_statement</text>
</g>
<!-- edge_statement&#45;&gt;edge_statement (&#39;,&#39;) edge_statement -->
<g id="edge36" class="edge"><title>edge_statement&#45;&gt;edge_statement (&#39;,&#39;) edge_statement</title>
<path fill="none" stroke="grey" d="M596.169,-502.697C594.577,-494.983 594.124,-485.712 594.809,-477.112"/>
<polygon fill="grey" stroke="grey" points="598.29,-477.493 596.21,-467.104 591.358,-476.523 598.29,-477.493"/>
</g>
<!-- edge_statement graph_definition&#45;&gt;edge_statement -->
<g id="edge30" class="edge"><title>edge_statement graph_definition&#45;&gt;edge_statement</title>
<path fill="none" stroke="grey" d="M662.955,-574.697C653.938,-566.05 642.882,-555.449 633.057,-546.027"/>
<polygon fill="grey" stroke="grey" points="635.478,-543.499 625.837,-539.104 630.633,-548.552 635.478,-543.499"/>
</g>
<!-- edge_statement graph_definition&#45;&gt;graph_definition -->
<g id="edge31" class="edge"><title>edge_statement graph_definition&#45;&gt;graph_definition</title>
<path fill="none" stroke="grey" d="M675.68,-611.087C668.562,-631.333 654.089,-664.85 631,-685 609.825,-703.48 581.513,-715.848 556.046,-723.951"/>
<polygon fill="grey" stroke="grey" points="555.006,-720.609 546.445,-726.852 557.03,-727.31 555.006,-720.609"/>
</g>
<!-- directed_edge -->
<g id="node29" class="node"><title>directed_edge</title>
<path fill="orchid" stroke="black" d="M772,-276C772,-276 840,-276 840,-276 846,-276 852,-282 852,-288 852,-288 852,-310 852,-310 852,-316 846,-322 840,-322 840,-322 772,-322 772,-322 766,-322 760,-316 760,-310 760,-310 760,-288 760,-288 760,-282 766,-276 772,-276"/>
<text text-anchor="middle" x="806" y="-306.8" font-family="Times,serif" font-size="14.00">꞉lexeme</text>
<polyline fill="none" stroke="black" points="760,-299 852,-299 "/>
<text text-anchor="middle" x="806" y="-283.8" font-family="Times,serif" font-size="14.00">directed_edge</text>
</g>
<!-- edge_name&#45;&gt;directed_edge -->
<g id="edge40" class="edge"><title>edge_name&#45;&gt;directed_edge</title>
<path fill="none" stroke="grey" d="M831.512,-358.754C828.012,-350.693 823.731,-340.835 819.683,-331.513"/>
<polygon fill="grey" stroke="grey" points="822.785,-329.869 815.592,-322.091 816.365,-332.657 822.785,-329.869"/>
</g>
<!-- undirected_edge -->
<g id="node31" class="node"><title>undirected_edge</title>
<path fill="orchid" stroke="black" d="M883,-276C883,-276 965,-276 965,-276 971,-276 977,-282 977,-288 977,-288 977,-310 977,-310 977,-316 971,-322 965,-322 965,-322 883,-322 883,-322 877,-322 871,-316 871,-310 871,-310 871,-288 871,-288 871,-282 877,-276 883,-276"/>
<text text-anchor="middle" x="924" y="-306.8" font-family="Times,serif" font-size="14.00">꞉lexeme</text>
<polyline fill="none" stroke="black" points="871,-299 977,-299 "/>
<text text-anchor="middle" x="924" y="-283.8" font-family="Times,serif" font-size="14.00">undirected_edge</text>
</g>
<!-- edge_name&#45;&gt;undirected_edge -->
<g id="edge42" class="edge"><title>edge_name&#45;&gt;undirected_edge</title>
<path fill="none" stroke="grey" d="M858.288,-358.754C868.158,-349.93 880.437,-338.951 891.7,-328.88"/>
<polygon fill="grey" stroke="grey" points="894.171,-331.365 899.293,-322.091 889.506,-326.147 894.171,-331.365"/>
</g>
<!-- edge_name attribute_definition&#45;&gt;edge_name -->
<g id="edge34" class="edge"><title>edge_name attribute_definition&#45;&gt;edge_name</title>
<path fill="none" stroke="grey" d="M828.461,-430.697C830.003,-422.983 831.858,-413.712 833.578,-405.112"/>
<polygon fill="grey" stroke="grey" points="837.05,-405.597 835.579,-395.104 830.186,-404.224 837.05,-405.597"/>
</g>
<!-- edge_name attribute_definition&#45;&gt;attribute_definition -->
<g id="edge35" class="edge"><title>edge_name attribute_definition&#45;&gt;attribute_definition</title>
<path fill="none" stroke="grey" d="M749.562,-430.966C699.513,-419.664 634.279,-404.934 585.315,-393.878"/>
<polygon fill="grey" stroke="grey" points="585.962,-390.436 575.437,-391.647 584.42,-397.264 585.962,-390.436"/>
</g>
<!-- edge_statement (&#39;,&#39;) edge_statement&#45;&gt;edge_statement -->
<g id="edge37" class="edge"><title>edge_statement (&#39;,&#39;) edge_statement&#45;&gt;edge_statement</title>
<path fill="none" stroke="grey" d="M608,-467.104C608,-474.791 608,-484.054 608,-492.665"/>
<polygon fill="grey" stroke="grey" points="604.5,-492.697 608,-502.697 611.5,-492.697 604.5,-492.697"/>
</g>
<!-- edge_statement (&#39;,&#39;) edge_statement&#45;&gt;(&#39;,&#39;) -->
<g id="edge38" class="edge"><title>edge_statement (&#39;,&#39;) edge_statement&#45;&gt;(&#39;,&#39;)</title>
<path fill="none" stroke="grey" d="M552.979,-430.908C521.496,-420.901 481.35,-407.757 446,-395 443.914,-394.247 441.778,-393.459 439.626,-392.652"/>
<polygon fill="grey" stroke="grey" points="440.793,-389.351 430.203,-389.041 438.288,-395.887 440.793,-389.351"/>
</g>
<!-- edge_statement (&#39;,&#39;) edge_statement&#45;&gt;edge_statement -->
<g id="edge39" class="edge"><title>edge_statement (&#39;,&#39;) edge_statement&#45;&gt;edge_statement</title>
<path fill="none" stroke="grey" d="M619.79,-467.104C621.401,-474.791 621.874,-484.054 621.208,-492.665"/>
<polygon fill="grey" stroke="grey" points="617.724,-492.314 619.831,-502.697 624.659,-493.265 617.724,-492.314"/>
</g>
<!-- directed_edge_0 -->
<g id="node30" class="node"><title>directed_edge_0</title>
<path fill="lightblue" stroke="black" d="M745,-192C745,-192 867,-192 867,-192 873,-192 879,-198 879,-204 879,-204 879,-226 879,-226 879,-232 873,-238 867,-238 867,-238 745,-238 745,-238 739,-238 733,-232 733,-226 733,-226 733,-204 733,-204 733,-198 739,-192 745,-192"/>
<text text-anchor="middle" x="806" y="-222.8" font-family="Times,serif" font-size="14.00">event =&gt; directed_edge</text>
<polyline fill="none" stroke="black" points="733,-215 879,-215 "/>
<text text-anchor="middle" x="806" y="-199.8" font-family="Times,serif" font-size="14.00">pause =&gt; before</text>
</g>
<!-- directed_edge&#45;&gt;directed_edge_0 -->
<g id="edge41" class="edge"><title>directed_edge&#45;&gt;directed_edge_0</title>
<path fill="none" stroke="grey" d="M806,-275.593C806,-267.118 806,-257.297 806,-248.104"/>
<polygon fill="grey" stroke="grey" points="809.5,-248.096 806,-238.096 802.5,-248.096 809.5,-248.096"/>
</g>
<!-- &#39;&#45;\&gt;&#39; -->
<g id="node33" class="node"><title>&#39;&#45;\&gt;&#39;</title>
<polygon fill="white" stroke="black" points="715,-233 661,-233 661,-197 715,-197 715,-233"/>
<text text-anchor="middle" x="688" y="-211.3" font-family="Times,serif" font-size="14.00">&#39;&#45;&gt;&#39;</text>
</g>
<!-- directed_edge&#45;&gt;&#39;&#45;\&gt;&#39; -->
<g id="edge44" class="edge"><title>directed_edge&#45;&gt;&#39;&#45;\&gt;&#39;</title>
<path fill="none" stroke="grey" d="M774.068,-275.81C757.561,-264.339 737.445,-250.36 720.812,-238.802"/>
<polygon fill="grey" stroke="grey" points="722.679,-235.837 712.47,-233.004 718.684,-241.585 722.679,-235.837"/>
</g>
<!-- undirected_edge_0 -->
<g id="node32" class="node"><title>undirected_edge_0</title>
<path fill="lightblue" stroke="black" d="M980.5,-192C980.5,-192 1115.5,-192 1115.5,-192 1121.5,-192 1127.5,-198 1127.5,-204 1127.5,-204 1127.5,-226 1127.5,-226 1127.5,-232 1121.5,-238 1115.5,-238 1115.5,-238 980.5,-238 980.5,-238 974.5,-238 968.5,-232 968.5,-226 968.5,-226 968.5,-204 968.5,-204 968.5,-198 974.5,-192 980.5,-192"/>
<text text-anchor="middle" x="1048" y="-222.8" font-family="Times,serif" font-size="14.00">event =&gt; undirected_edge</text>
<polyline fill="none" stroke="black" points="968.5,-215 1127.5,-215 "/>
<text text-anchor="middle" x="1048" y="-199.8" font-family="Times,serif" font-size="14.00">pause =&gt; before</text>
</g>
<!-- undirected_edge&#45;&gt;undirected_edge_0 -->
<g id="edge43" class="edge"><title>undirected_edge&#45;&gt;undirected_edge_0</title>
<path fill="none" stroke="grey" d="M957.556,-275.81C972.444,-265.965 990.124,-254.273 1005.89,-243.849"/>
<polygon fill="grey" stroke="grey" points="1008.01,-246.643 1014.42,-238.208 1004.15,-240.805 1008.01,-246.643"/>
</g>
<!-- &#39;&#45;&#45;&#39; -->
<g id="node34" class="node"><title>&#39;&#45;&#45;&#39;</title>
<polygon fill="white" stroke="black" points="951,-233 897,-233 897,-197 951,-197 951,-233"/>
<text text-anchor="middle" x="924" y="-211.3" font-family="Times,serif" font-size="14.00">&#39;&#45;&#45;&#39;</text>
</g>
<!-- undirected_edge&#45;&gt;&#39;&#45;&#45;&#39; -->
<g id="edge45" class="edge"><title>undirected_edge&#45;&gt;&#39;&#45;&#45;&#39;</title>
<path fill="none" stroke="grey" d="M924,-275.593C924,-265.668 924,-253.9 924,-243.453"/>
<polygon fill="grey" stroke="grey" points="927.5,-243.177 924,-233.177 920.5,-243.177 927.5,-243.177"/>
</g>
<!-- start_attributes end_attributes -->
<g id="node36" class="node"><title>start_attributes end_attributes</title>
<polygon fill="white" stroke="black" points="603.25,-233 426.75,-233 426.75,-197 603.25,-197 603.25,-233"/>
<text text-anchor="middle" x="515" y="-211.3" font-family="Times,serif" font-size="14.00">start_attributes end_attributes</text>
</g>
<!-- attribute_statement&#45;&gt;start_attributes end_attributes -->
<g id="edge47" class="edge"><title>attribute_statement&#45;&gt;start_attributes end_attributes</title>
<path fill="none" stroke="grey" d="M515,-280.61C515,-269.774 515,-255.601 515,-243.291"/>
<polygon fill="grey" stroke="grey" points="518.5,-243.084 515,-233.084 511.5,-243.084 518.5,-243.084"/>
</g>
<!-- start_attributes -->
<g id="node37" class="node"><title>start_attributes</title>
<path fill="orchid" stroke="black" d="M425.5,-108C425.5,-108 498.5,-108 498.5,-108 504.5,-108 510.5,-114 510.5,-120 510.5,-120 510.5,-142 510.5,-142 510.5,-148 504.5,-154 498.5,-154 498.5,-154 425.5,-154 425.5,-154 419.5,-154 413.5,-148 413.5,-142 413.5,-142 413.5,-120 413.5,-120 413.5,-114 419.5,-108 425.5,-108"/>
<text text-anchor="middle" x="462" y="-138.8" font-family="Times,serif" font-size="14.00">꞉lexeme</text>
<polyline fill="none" stroke="black" points="413.5,-131 510.5,-131 "/>
<text text-anchor="middle" x="462" y="-115.8" font-family="Times,serif" font-size="14.00">start_attributes</text>
</g>
<!-- start_attributes end_attributes&#45;&gt;start_attributes -->
<g id="edge48" class="edge"><title>start_attributes end_attributes&#45;&gt;start_attributes</title>
<path fill="none" stroke="grey" d="M503.76,-196.61C497.368,-186.72 489.178,-174.049 481.747,-162.552"/>
<polygon fill="grey" stroke="grey" points="484.623,-160.554 476.255,-154.055 478.744,-164.354 484.623,-160.554"/>
</g>
<!-- end_attributes -->
<g id="node39" class="node"><title>end_attributes</title>
<polygon fill="white" stroke="black" points="621.25,-149 528.75,-149 528.75,-113 621.25,-113 621.25,-149"/>
<text text-anchor="middle" x="575" y="-127.3" font-family="Times,serif" font-size="14.00">end_attributes</text>
</g>
<!-- start_attributes end_attributes&#45;&gt;end_attributes -->
<g id="edge50" class="edge"><title>start_attributes end_attributes&#45;&gt;end_attributes</title>
<path fill="none" stroke="grey" d="M527.724,-196.61C536.053,-185.227 547.077,-170.161 556.385,-157.441"/>
<polygon fill="grey" stroke="grey" points="559.419,-159.221 562.5,-149.084 553.77,-155.087 559.419,-159.221"/>
</g>
<!-- start_attributes_0 -->
<g id="node38" class="node"><title>start_attributes_0</title>
<path fill="lightblue" stroke="black" d="M290,-24C290,-24 416,-24 416,-24 422,-24 428,-30 428,-36 428,-36 428,-58 428,-58 428,-64 422,-70 416,-70 416,-70 290,-70 290,-70 284,-70 278,-64 278,-58 278,-58 278,-36 278,-36 278,-30 284,-24 290,-24"/>
<text text-anchor="middle" x="353" y="-54.8" font-family="Times,serif" font-size="14.00">event =&gt; start_attributes</text>
<polyline fill="none" stroke="black" points="278,-47 428,-47 "/>
<text text-anchor="middle" x="353" y="-31.8" font-family="Times,serif" font-size="14.00">pause =&gt; before</text>
</g>
<!-- start_attributes&#45;&gt;start_attributes_0 -->
<g id="edge49" class="edge"><title>start_attributes&#45;&gt;start_attributes_0</title>
<path fill="none" stroke="grey" d="M432.503,-107.81C419.659,-98.147 404.449,-86.705 390.79,-76.4292"/>
<polygon fill="grey" stroke="grey" points="392.616,-73.423 382.521,-70.2081 388.408,-79.0168 392.616,-73.423"/>
</g>
<!-- &#39;{&#39; -->
<g id="node41" class="node"><title>&#39;{&#39;</title>
<polygon fill="white" stroke="black" points="500,-65 446,-65 446,-29 500,-29 500,-65"/>
<text text-anchor="middle" x="473" y="-43.3" font-family="Times,serif" font-size="14.00">&#39;{&#39;</text>
</g>
<!-- start_attributes&#45;&gt;&#39;{&#39; -->
<g id="edge52" class="edge"><title>start_attributes&#45;&gt;&#39;{&#39;</title>
<path fill="none" stroke="grey" d="M465.006,-107.593C466.351,-97.564 467.949,-85.6516 469.362,-75.1233"/>
<polygon fill="grey" stroke="grey" points="472.835,-75.554 470.696,-65.1774 465.897,-74.6232 472.835,-75.554"/>
</g>
<!-- end_attributes_1 -->
<g id="node40" class="node"><title>end_attributes_1</title>
<polygon fill="lightblue" stroke="black" points="582,-65 528,-65 528,-29 582,-29 582,-65"/>
</g>
<!-- end_attributes&#45;&gt;end_attributes_1 -->
<g id="edge51" class="edge"><title>end_attributes&#45;&gt;end_attributes_1</title>
<path fill="none" stroke="grey" d="M570.759,-112.61C568.089,-101.665 564.589,-87.3145 561.566,-74.9188"/>
<polygon fill="grey" stroke="grey" points="564.937,-73.9697 559.167,-65.0838 558.136,-75.6284 564.937,-73.9697"/>
</g>
<!-- &#39;}&#39; -->
<g id="node42" class="node"><title>&#39;}&#39;</title>
<polygon fill="white" stroke="black" points="654,-65 600,-65 600,-29 654,-29 654,-65"/>
<text text-anchor="middle" x="627" y="-43.3" font-family="Times,serif" font-size="14.00">&#39;}&#39;</text>
</g>
<!-- end_attributes&#45;&gt;&#39;}&#39; -->
<g id="edge53" class="edge"><title>end_attributes&#45;&gt;&#39;}&#39;</title>
<path fill="none" stroke="grey" d="M586.028,-112.61C593.177,-101.336 602.617,-86.4505 610.634,-73.8087"/>
<polygon fill="grey" stroke="grey" points="613.767,-75.4034 616.166,-65.0838 607.855,-71.6545 613.767,-75.4034"/>
</g>
<!-- event_1 -->
<g id="node45" class="node"><title>event_1</title>
<path fill="#ff3030" stroke="black" d="M476.5,-793.5C476.5,-793.5 559.5,-793.5 559.5,-793.5 565.5,-793.5 571.5,-799.5 571.5,-805.5 571.5,-805.5 571.5,-850.5 571.5,-850.5 571.5,-856.5 565.5,-862.5 559.5,-862.5 559.5,-862.5 476.5,-862.5 476.5,-862.5 470.5,-862.5 464.5,-856.5 464.5,-850.5 464.5,-850.5 464.5,-805.5 464.5,-805.5 464.5,-799.5 470.5,-793.5 476.5,-793.5"/>
<text text-anchor="middle" x="518" y="-847.3" font-family="Times,serif" font-size="14.00">&#39;one&#39;</text>
<polyline fill="none" stroke="black" points="464.5,-839.5 571.5,-839.5 "/>
<text text-anchor="middle" x="518" y="-824.3" font-family="Times,serif" font-size="14.00">completed</text>
<polyline fill="none" stroke="black" points="464.5,-816.5 571.5,-816.5 "/>
<text text-anchor="middle" x="518" y="-801.3" font-family="Times,serif" font-size="14.00">graph_definition</text>
</g>
<!-- event&#45;&gt;event_1 -->
<g id="edge56" class="edge"><title>event&#45;&gt;event_1</title>
<path fill="none" stroke="grey" d="M506.766,-898.812C507.983,-891.247 509.474,-881.983 510.967,-872.706"/>
<polygon fill="grey" stroke="grey" points="514.441,-873.143 512.575,-862.714 507.53,-872.031 514.441,-873.143"/>
</g>
<!-- event_1&#45;&gt;graph_definition -->
<g id="edge57" class="edge"><title>event_1&#45;&gt;graph_definition</title>
<path fill="none" stroke="grey" d="M508.263,-793.114C505.795,-784.526 503.176,-775.412 500.817,-767.203"/>
<polygon fill="grey" stroke="grey" points="504.125,-766.041 497.999,-757.397 497.397,-767.974 504.125,-766.041"/>
</g>
<!-- Legend_1 -->
<g id="node46" class="node"><title>Legend_1</title>
<path fill="lightgreen" stroke="black" d="M684.5,-24C684.5,-24 763.5,-24 763.5,-24 769.5,-24 775.5,-30 775.5,-36 775.5,-36 775.5,-58 775.5,-58 775.5,-64 769.5,-70 763.5,-70 763.5,-70 684.5,-70 684.5,-70 678.5,-70 672.5,-64 672.5,-58 672.5,-58 672.5,-36 672.5,-36 672.5,-30 678.5,-24 684.5,-24"/>
<text text-anchor="middle" x="724" y="-54.8" font-family="Times,serif" font-size="14.00">The green node</text>
<polyline fill="none" stroke="black" points="672.5,-47 775.5,-47 "/>
<text text-anchor="middle" x="724" y="-31.8" font-family="Times,serif" font-size="14.00">is the start node</text>
</g>
<!-- Legend_2 -->
<g id="node47" class="node"><title>Legend_2</title>
<path fill="lightblue" stroke="black" d="M806,-24C806,-24 932,-24 932,-24 938,-24 944,-30 944,-36 944,-36 944,-58 944,-58 944,-64 938,-70 932,-70 932,-70 806,-70 806,-70 800,-70 794,-64 794,-58 794,-58 794,-36 794,-36 794,-30 800,-24 806,-24"/>
<text text-anchor="middle" x="869" y="-54.8" font-family="Times,serif" font-size="14.00">Lightblue nodes</text>
<polyline fill="none" stroke="black" points="794,-47 944,-47 "/>
<text text-anchor="middle" x="869" y="-31.8" font-family="Times,serif" font-size="14.00">are for lexeme attributes</text>
</g>
<!-- Legend_3 -->
<g id="node48" class="node"><title>Legend_3</title>
<path fill="orchid" stroke="black" d="M974.5,-24C974.5,-24 1051.5,-24 1051.5,-24 1057.5,-24 1063.5,-30 1063.5,-36 1063.5,-36 1063.5,-58 1063.5,-58 1063.5,-64 1057.5,-70 1051.5,-70 1051.5,-70 974.5,-70 974.5,-70 968.5,-70 962.5,-64 962.5,-58 962.5,-58 962.5,-36 962.5,-36 962.5,-30 968.5,-24 974.5,-24"/>
<text text-anchor="middle" x="1013" y="-54.8" font-family="Times,serif" font-size="14.00">Orchid nodes</text>
<polyline fill="none" stroke="black" points="962.5,-47 1063.5,-47 "/>
<text text-anchor="middle" x="1013" y="-31.8" font-family="Times,serif" font-size="14.00">are for lexemes</text>
</g>
<!-- Legend_4 -->
<g id="node49" class="node"><title>Legend_4</title>
<path fill="goldenrod" stroke="black" d="M1093.5,-24C1093.5,-24 1164.5,-24 1164.5,-24 1170.5,-24 1176.5,-30 1176.5,-36 1176.5,-36 1176.5,-58 1176.5,-58 1176.5,-64 1170.5,-70 1164.5,-70 1164.5,-70 1093.5,-70 1093.5,-70 1087.5,-70 1081.5,-64 1081.5,-58 1081.5,-58 1081.5,-36 1081.5,-36 1081.5,-30 1087.5,-24 1093.5,-24"/>
<text text-anchor="middle" x="1129" y="-54.8" font-family="Times,serif" font-size="14.00">Golden nodes</text>
<polyline fill="none" stroke="black" points="1081.5,-47 1176.5,-47 "/>
<text text-anchor="middle" x="1129" y="-31.8" font-family="Times,serif" font-size="14.00">are for actions</text>
</g>
<!-- Legend_5 -->
<g id="node50" class="node"><title>Legend_5</title>
<path fill="#ff3030" stroke="black" d="M1206.5,-24C1206.5,-24 1273.5,-24 1273.5,-24 1279.5,-24 1285.5,-30 1285.5,-36 1285.5,-36 1285.5,-58 1285.5,-58 1285.5,-64 1279.5,-70 1273.5,-70 1273.5,-70 1206.5,-70 1206.5,-70 1200.5,-70 1194.5,-64 1194.5,-58 1194.5,-58 1194.5,-36 1194.5,-36 1194.5,-30 1200.5,-24 1206.5,-24"/>
<text text-anchor="middle" x="1240" y="-54.8" font-family="Times,serif" font-size="14.00">Red nodes</text>
<polyline fill="none" stroke="black" points="1194.5,-47 1285.5,-47 "/>
<text text-anchor="middle" x="1240" y="-31.8" font-family="Times,serif" font-size="14.00">are for events</text>
</g>
</g>
</svg>
