<?xml version="1.0" encoding="UTF-8" standalone="no"?>
<!DOCTYPE svg PUBLIC "-//W3C//DTD SVG 1.1//EN"
 "http://www.w3.org/Graphics/SVG/1.1/DTD/svg11.dtd">
<!-- Generated by graphviz version 2.30.1 (20130611.0131)
 -->
<!-- Title: Perl Pages: 1 -->
<svg width="1245pt" height="787pt"
 viewBox="0.00 0.00 1245.00 787.00" xmlns="http://www.w3.org/2000/svg" xmlns:xlink="http://www.w3.org/1999/xlink">
<g id="graph0" class="graph" transform="scale(1 1) rotate(0) translate(4 783)">
<title>Perl</title>
<polygon fill="white" stroke="white" points="-4,5 -4,-783 1242,-783 1242,5 -4,5"/>
<text text-anchor="middle" x="618.5" y="-7.8" font-family="Times,serif" font-size="14.00">stringparser.bnf</text>
<!-- graph_grammar -->
<g id="node1" class="node"><title>graph_grammar</title>
<path fill="lightgreen" stroke="black" d="M270,-732C270,-732 350,-732 350,-732 356,-732 362,-738 362,-744 362,-744 362,-766 362,-766 362,-772 356,-778 350,-778 350,-778 270,-778 270,-778 264,-778 258,-772 258,-766 258,-766 258,-744 258,-744 258,-738 264,-732 270,-732"/>
<text text-anchor="middle" x="310" y="-762.8" font-family="Times,serif" font-size="14.00">:start</text>
<polyline fill="none" stroke="black" points="258,-755 362,-755 "/>
<text text-anchor="middle" x="310" y="-739.8" font-family="Times,serif" font-size="14.00">graph_grammar</text>
</g>
<!-- ꞉default -->
<g id="node2" class="node"><title>꞉default</title>
<polygon fill="lightblue" stroke="black" points="242.5,-695 185.5,-695 185.5,-659 242.5,-659 242.5,-695"/>
<text text-anchor="middle" x="214" y="-673.3" font-family="Times,serif" font-size="14.00">꞉default</text>
</g>
<!-- graph_grammar&#45;&gt;꞉default -->
<g id="edge1" class="edge"><title>graph_grammar&#45;&gt;꞉default</title>
<path fill="none" stroke="grey" d="M281.975,-731.813C269.924,-722.273 255.828,-711.114 243.607,-701.439"/>
<polygon fill="grey" stroke="grey" points="245.507,-698.479 235.494,-695.016 241.162,-703.967 245.507,-698.479"/>
</g>
<!-- ꞉discard -->
<g id="node4" class="node"><title>꞉discard</title>
<polygon fill="lightblue" stroke="black" points="339.25,-695 280.75,-695 280.75,-659 339.25,-659 339.25,-695"/>
<text text-anchor="middle" x="310" y="-673.3" font-family="Times,serif" font-size="14.00">꞉discard</text>
</g>
<!-- graph_grammar&#45;&gt;꞉discard -->
<g id="edge3" class="edge"><title>graph_grammar&#45;&gt;꞉discard</title>
<path fill="none" stroke="grey" d="M310,-731.609C310,-723.481 310,-714.2 310,-705.671"/>
<polygon fill="grey" stroke="grey" points="313.5,-705.412 310,-695.412 306.5,-705.412 313.5,-705.412"/>
</g>
<!-- graph_definition -->
<g id="node6" class="node"><title>graph_definition</title>
<polygon fill="white" stroke="black" points="632.25,-695 525.75,-695 525.75,-659 632.25,-659 632.25,-695"/>
<text text-anchor="middle" x="579" y="-673.3" font-family="Times,serif" font-size="14.00">graph_definition</text>
</g>
<!-- graph_grammar&#45;&gt;graph_definition -->
<g id="edge5" class="edge"><title>graph_grammar&#45;&gt;graph_definition</title>
<path fill="none" stroke="grey" d="M362.185,-739.256C406.118,-726.844 469.09,-709.053 515.859,-695.839"/>
<polygon fill="grey" stroke="grey" points="516.909,-699.18 525.58,-693.093 515.005,-692.443 516.909,-699.18"/>
</g>
<!-- ꞉default_1 -->
<g id="node3" class="node"><title>꞉default_1</title>
<path fill="lightblue" stroke="black" d="M148.5,-581C148.5,-581 241.5,-581 241.5,-581 247.5,-581 253.5,-587 253.5,-593 253.5,-593 253.5,-605 253.5,-605 253.5,-611 247.5,-617 241.5,-617 241.5,-617 148.5,-617 148.5,-617 142.5,-617 136.5,-611 136.5,-605 136.5,-605 136.5,-593 136.5,-593 136.5,-587 142.5,-581 148.5,-581"/>
<text text-anchor="middle" x="195" y="-595.3" font-family="Times,serif" font-size="14.00">action =&gt; [values]</text>
</g>
<!-- ꞉default&#45;&gt;꞉default_1 -->
<g id="edge2" class="edge"><title>꞉default&#45;&gt;꞉default_1</title>
<path fill="none" stroke="grey" d="M209.689,-658.754C207.357,-649.426 204.423,-637.691 201.791,-627.165"/>
<polygon fill="grey" stroke="grey" points="205.115,-626.03 199.294,-617.177 198.324,-627.728 205.115,-626.03"/>
</g>
<!-- whitespace -->
<g id="node5" class="node"><title>whitespace</title>
<polygon fill="lightblue" stroke="black" points="348.25,-617 271.75,-617 271.75,-581 348.25,-581 348.25,-617"/>
<text text-anchor="middle" x="310" y="-595.3" font-family="Times,serif" font-size="14.00">whitespace</text>
</g>
<!-- ꞉discard&#45;&gt;whitespace -->
<g id="edge4" class="edge"><title>꞉discard&#45;&gt;whitespace</title>
<path fill="none" stroke="grey" d="M310,-658.754C310,-649.523 310,-637.935 310,-627.495"/>
<polygon fill="grey" stroke="grey" points="313.5,-627.177 310,-617.177 306.5,-627.177 313.5,-627.177"/>
</g>
<!-- [\\s]+ -->
<g id="node44" class="node"><title>[\\s]+</title>
<polygon fill="white" stroke="black" points="310,-533 256,-533 256,-497 310,-497 310,-533"/>
<text text-anchor="middle" x="283" y="-511.3" font-family="Times,serif" font-size="14.00">[\s]+</text>
</g>
<!-- whitespace&#45;&gt;[\\s]+ -->
<g id="edge54" class="edge"><title>whitespace&#45;&gt;[\\s]+</title>
<path fill="none" stroke="grey" d="M304.274,-580.61C300.67,-569.665 295.945,-555.315 291.864,-542.919"/>
<polygon fill="grey" stroke="grey" points="295.077,-541.488 288.625,-533.084 288.428,-543.677 295.077,-541.488"/>
</g>
<!-- graph_definition_attributes -->
<g id="node7" class="node"><title>graph_definition_attributes</title>
<path fill="#daa520" stroke="black" d="M779,-581C779,-581 859,-581 859,-581 865,-581 871,-587 871,-593 871,-593 871,-605 871,-605 871,-611 865,-617 859,-617 859,-617 779,-617 779,-617 773,-617 767,-611 767,-605 767,-605 767,-593 767,-593 767,-587 773,-581 779,-581"/>
<text text-anchor="middle" x="819" y="-595.3" font-family="Times,serif" font-size="14.00">action =&gt; graph</text>
</g>
<!-- graph_definition&#45;&gt;graph_definition_attributes -->
<g id="edge6" class="edge"><title>graph_definition&#45;&gt;graph_definition_attributes</title>
<path fill="none" stroke="grey" d="M632.642,-661.025C668.12,-650.877 715.56,-636.839 757,-623 759.43,-622.189 761.907,-621.344 764.405,-620.478"/>
<polygon fill="grey" stroke="grey" points="765.823,-623.689 774.085,-617.057 763.491,-617.089 765.823,-623.689"/>
</g>
<!-- node_definition -->
<g id="node8" class="node"><title>node_definition</title>
<polygon fill="white" stroke="black" points="590.5,-617 489.5,-617 489.5,-581 590.5,-581 590.5,-617"/>
<text text-anchor="middle" x="540" y="-595.3" font-family="Times,serif" font-size="14.00">node_definition</text>
</g>
<!-- graph_definition&#45;&gt;node_definition -->
<g id="edge7" class="edge"><title>graph_definition&#45;&gt;node_definition</title>
<path fill="none" stroke="grey" d="M570.15,-658.754C565.214,-649.135 558.964,-636.955 553.436,-626.182"/>
<polygon fill="grey" stroke="grey" points="556.494,-624.476 548.815,-617.177 550.266,-627.672 556.494,-624.476"/>
</g>
<!-- edge_definition -->
<g id="node9" class="node"><title>edge_definition</title>
<polygon fill="white" stroke="black" points="748.25,-617 647.75,-617 647.75,-581 748.25,-581 748.25,-617"/>
<text text-anchor="middle" x="698" y="-595.3" font-family="Times,serif" font-size="14.00">edge_definition</text>
</g>
<!-- graph_definition&#45;&gt;edge_definition -->
<g id="edge8" class="edge"><title>graph_definition&#45;&gt;edge_definition</title>
<path fill="none" stroke="grey" d="M605.706,-658.944C622.43,-648.263 644.182,-634.371 662.368,-622.757"/>
<polygon fill="grey" stroke="grey" points="664.428,-625.594 670.971,-617.262 660.66,-619.695 664.428,-625.594"/>
</g>
<!-- node_statement -->
<g id="node10" class="node"><title>node_statement</title>
<polygon fill="white" stroke="black" points="458.5,-455 357.5,-455 357.5,-419 458.5,-419 458.5,-455"/>
<text text-anchor="middle" x="408" y="-433.3" font-family="Times,serif" font-size="14.00">node_statement</text>
</g>
<!-- node_definition&#45;&gt;node_statement -->
<g id="edge9" class="edge"><title>node_definition&#45;&gt;node_statement</title>
<path fill="none" stroke="grey" d="M543.731,-580.996C547.7,-558.242 551.07,-517.669 532,-491 517.039,-470.078 492.082,-457.352 468.464,-449.641"/>
<polygon fill="grey" stroke="grey" points="469.392,-446.265 458.808,-446.731 467.372,-452.967 469.392,-446.265"/>
</g>
<!-- node_statement graph_definition -->
<g id="node11" class="node"><title>node_statement graph_definition</title>
<polygon fill="white" stroke="black" points="523.5,-533 328.5,-533 328.5,-497 523.5,-497 523.5,-533"/>
<text text-anchor="middle" x="426" y="-511.3" font-family="Times,serif" font-size="14.00">node_statement graph_definition</text>
</g>
<!-- node_definition&#45;&gt;node_statement graph_definition -->
<g id="edge10" class="edge"><title>node_definition&#45;&gt;node_statement graph_definition</title>
<path fill="none" stroke="grey" d="M516.102,-580.81C499.23,-568.674 476.435,-552.278 457.996,-539.014"/>
<polygon fill="grey" stroke="grey" points="460.029,-536.165 449.867,-533.167 455.941,-541.848 460.029,-536.165"/>
</g>
<!-- edge_statement -->
<g id="node24" class="node"><title>edge_statement</title>
<polygon fill="white" stroke="black" points="892.25,-455 791.75,-455 791.75,-419 892.25,-419 892.25,-455"/>
<text text-anchor="middle" x="842" y="-433.3" font-family="Times,serif" font-size="14.00">edge_statement</text>
</g>
<!-- edge_definition&#45;&gt;edge_statement -->
<g id="edge28" class="edge"><title>edge_definition&#45;&gt;edge_statement</title>
<path fill="none" stroke="grey" d="M744.12,-580.967C764.79,-571.355 788.049,-557.506 804,-539 822.185,-517.902 832.064,-487.245 837.152,-465.248"/>
<polygon fill="grey" stroke="grey" points="840.627,-465.733 839.28,-455.224 833.779,-464.279 840.627,-465.733"/>
</g>
<!-- edge_statement graph_definition -->
<g id="node25" class="node"><title>edge_statement graph_definition</title>
<polygon fill="white" stroke="black" points="795.25,-533 600.75,-533 600.75,-497 795.25,-497 795.25,-533"/>
<text text-anchor="middle" x="698" y="-511.3" font-family="Times,serif" font-size="14.00">edge_statement graph_definition</text>
</g>
<!-- edge_definition&#45;&gt;edge_statement graph_definition -->
<g id="edge29" class="edge"><title>edge_definition&#45;&gt;edge_statement graph_definition</title>
<path fill="none" stroke="grey" d="M698,-580.61C698,-569.774 698,-555.601 698,-543.291"/>
<polygon fill="grey" stroke="grey" points="701.5,-543.084 698,-533.084 694.5,-543.084 701.5,-543.084"/>
</g>
<!-- node_name -->
<g id="node12" class="node"><title>node_name</title>
<polygon fill="white" stroke="black" points="211,-311 131,-311 131,-275 211,-275 211,-311"/>
<text text-anchor="middle" x="171" y="-289.3" font-family="Times,serif" font-size="14.00">node_name</text>
</g>
<!-- node_statement&#45;&gt;node_name -->
<g id="edge13" class="edge"><title>node_statement&#45;&gt;node_name</title>
<path fill="none" stroke="grey" d="M357.404,-435.283C275.868,-432.936 121.076,-423.163 87,-383 76.6488,-370.8 79.2736,-361.011 87,-347 94.787,-332.879 108.094,-322.003 121.849,-313.884"/>
<polygon fill="grey" stroke="grey" points="123.8,-316.807 130.899,-308.941 120.445,-310.663 123.8,-316.807"/>
</g>
<!-- node_name attribute_definition -->
<g id="node13" class="node"><title>node_name attribute_definition</title>
<polygon fill="white" stroke="black" points="284,-383 96,-383 96,-347 284,-347 284,-383"/>
<text text-anchor="middle" x="190" y="-361.3" font-family="Times,serif" font-size="14.00">node_name attribute_definition</text>
</g>
<!-- node_statement&#45;&gt;node_name attribute_definition -->
<g id="edge14" class="edge"><title>node_statement&#45;&gt;node_name attribute_definition</title>
<path fill="none" stroke="grey" d="M357.438,-419.765C326.186,-409.729 285.832,-396.772 252.572,-386.092"/>
<polygon fill="grey" stroke="grey" points="253.537,-382.726 242.946,-383.001 251.397,-389.391 253.537,-382.726"/>
</g>
<!-- node_statement (&#39;,&#39;) node_statement -->
<g id="node15" class="node"><title>node_statement (&#39;,&#39;) node_statement</title>
<polygon fill="white" stroke="black" points="513.5,-383 302.5,-383 302.5,-347 513.5,-347 513.5,-383"/>
<text text-anchor="middle" x="408" y="-361.3" font-family="Times,serif" font-size="14.00">node_statement (&#39;,&#39;) node_statement</text>
</g>
<!-- node_statement&#45;&gt;node_statement (&#39;,&#39;) node_statement -->
<g id="edge17" class="edge"><title>node_statement&#45;&gt;node_statement (&#39;,&#39;) node_statement</title>
<path fill="none" stroke="grey" d="M396.169,-418.697C394.577,-410.983 394.124,-401.712 394.809,-393.112"/>
<polygon fill="grey" stroke="grey" points="398.29,-393.493 396.21,-383.104 391.358,-392.523 398.29,-393.493"/>
</g>
<!-- node_statement graph_definition&#45;&gt;node_statement -->
<g id="edge11" class="edge"><title>node_statement graph_definition&#45;&gt;node_statement</title>
<path fill="none" stroke="grey" d="M421.916,-496.754C419.706,-487.426 416.927,-475.691 414.434,-465.165"/>
<polygon fill="grey" stroke="grey" points="417.779,-464.101 412.068,-455.177 410.967,-465.715 417.779,-464.101"/>
</g>
<!-- node_statement graph_definition&#45;&gt;graph_definition -->
<g id="edge12" class="edge"><title>node_statement graph_definition&#45;&gt;graph_definition</title>
<path fill="none" stroke="grey" d="M431.03,-533.139C438.488,-556.047 454.419,-596.793 480,-623 492.522,-635.828 508.821,-646.279 524.569,-654.405"/>
<polygon fill="grey" stroke="grey" points="523.226,-657.645 533.744,-658.921 526.318,-651.365 523.226,-657.645"/>
</g>
<!-- start_node end_node -->
<g id="node17" class="node"><title>start_node end_node</title>
<polygon fill="white" stroke="black" points="235.25,-233 106.75,-233 106.75,-197 235.25,-197 235.25,-233"/>
<text text-anchor="middle" x="171" y="-211.3" font-family="Times,serif" font-size="14.00">start_node end_node</text>
</g>
<!-- node_name&#45;&gt;start_node end_node -->
<g id="edge21" class="edge"><title>node_name&#45;&gt;start_node end_node</title>
<path fill="none" stroke="grey" d="M171,-274.754C171,-265.523 171,-253.935 171,-243.495"/>
<polygon fill="grey" stroke="grey" points="174.5,-243.177 171,-233.177 167.5,-243.177 174.5,-243.177"/>
</g>
<!-- node_name attribute_definition&#45;&gt;node_name -->
<g id="edge15" class="edge"><title>node_name attribute_definition&#45;&gt;node_name</title>
<path fill="none" stroke="grey" d="M185.303,-346.697C183.187,-338.898 180.638,-329.509 178.282,-320.829"/>
<polygon fill="grey" stroke="grey" points="181.64,-319.838 175.643,-311.104 174.884,-321.672 181.64,-319.838"/>
</g>
<!-- attribute_definition -->
<g id="node14" class="node"><title>attribute_definition</title>
<polygon fill="white" stroke="black" points="434.25,-311 313.75,-311 313.75,-275 434.25,-275 434.25,-311"/>
<text text-anchor="middle" x="374" y="-289.3" font-family="Times,serif" font-size="14.00">attribute_definition</text>
</g>
<!-- node_name attribute_definition&#45;&gt;attribute_definition -->
<g id="edge16" class="edge"><title>node_name attribute_definition&#45;&gt;attribute_definition</title>
<path fill="none" stroke="grey" d="M235.011,-346.876C260.501,-337.179 292.568,-324.98 319.476,-314.743"/>
<polygon fill="grey" stroke="grey" points="321.033,-317.895 329.135,-311.068 318.544,-311.353 321.033,-317.895"/>
</g>
<!-- attribute_statement\* -->
<g id="node35" class="node"><title>attribute_statement\*</title>
<polygon fill="white" stroke="black" points="438,-233 310,-233 310,-197 438,-197 438,-233"/>
<text text-anchor="middle" x="374" y="-211.3" font-family="Times,serif" font-size="14.00">attribute_statement*</text>
</g>
<!-- attribute_definition&#45;&gt;attribute_statement\* -->
<g id="edge46" class="edge"><title>attribute_definition&#45;&gt;attribute_statement\*</title>
<path fill="none" stroke="grey" d="M374,-274.754C374,-265.523 374,-253.935 374,-243.495"/>
<polygon fill="grey" stroke="grey" points="377.5,-243.177 374,-233.177 370.5,-243.177 377.5,-243.177"/>
</g>
<!-- node_statement (&#39;,&#39;) node_statement&#45;&gt;node_statement -->
<g id="edge18" class="edge"><title>node_statement (&#39;,&#39;) node_statement&#45;&gt;node_statement</title>
<path fill="none" stroke="grey" d="M408,-383.104C408,-390.791 408,-400.054 408,-408.665"/>
<polygon fill="grey" stroke="grey" points="404.5,-408.697 408,-418.697 411.5,-408.697 404.5,-408.697"/>
</g>
<!-- (&#39;,&#39;) -->
<g id="node16" class="node"><title>(&#39;,&#39;)</title>
<polygon fill="white" stroke="black" points="559,-311 505,-311 505,-275 559,-275 559,-311"/>
<text text-anchor="middle" x="532" y="-289.3" font-family="Times,serif" font-size="14.00">(&#39;,&#39;)</text>
</g>
<!-- node_statement (&#39;,&#39;) node_statement&#45;&gt;(&#39;,&#39;) -->
<g id="edge19" class="edge"><title>node_statement (&#39;,&#39;) node_statement&#45;&gt;(&#39;,&#39;)</title>
<path fill="none" stroke="grey" d="M438.334,-346.876C455.753,-337.042 477.732,-324.635 496.02,-314.311"/>
<polygon fill="grey" stroke="grey" points="497.946,-317.243 504.934,-309.279 494.505,-311.147 497.946,-317.243"/>
</g>
<!-- node_statement (&#39;,&#39;) node_statement&#45;&gt;node_statement -->
<g id="edge20" class="edge"><title>node_statement (&#39;,&#39;) node_statement&#45;&gt;node_statement</title>
<path fill="none" stroke="grey" d="M419.79,-383.104C421.401,-390.791 421.874,-400.054 421.208,-408.665"/>
<polygon fill="grey" stroke="grey" points="417.724,-408.314 419.831,-418.697 424.659,-409.265 417.724,-408.314"/>
</g>
<!-- start_node -->
<g id="node18" class="node"><title>start_node</title>
<path fill="lightblue" stroke="black" d="M141.5,-108C141.5,-108 190.5,-108 190.5,-108 196.5,-108 202.5,-114 202.5,-120 202.5,-120 202.5,-142 202.5,-142 202.5,-148 196.5,-154 190.5,-154 190.5,-154 141.5,-154 141.5,-154 135.5,-154 129.5,-148 129.5,-142 129.5,-142 129.5,-120 129.5,-120 129.5,-114 135.5,-108 141.5,-108"/>
<text text-anchor="middle" x="166" y="-138.8" font-family="Times,serif" font-size="14.00">꞉lexeme</text>
<polyline fill="none" stroke="black" points="129.5,-131 202.5,-131 "/>
<text text-anchor="middle" x="166" y="-115.8" font-family="Times,serif" font-size="14.00">start_node</text>
</g>
<!-- start_node end_node&#45;&gt;start_node -->
<g id="edge22" class="edge"><title>start_node end_node&#45;&gt;start_node</title>
<path fill="none" stroke="grey" d="M169.94,-196.61C169.366,-187.204 168.639,-175.284 167.967,-164.251"/>
<polygon fill="grey" stroke="grey" points="171.447,-163.824 167.345,-154.055 164.46,-164.25 171.447,-163.824"/>
</g>
<!-- end_node -->
<g id="node20" class="node"><title>end_node</title>
<polygon fill="white" stroke="black" points="289.25,-149 220.75,-149 220.75,-113 289.25,-113 289.25,-149"/>
<text text-anchor="middle" x="255" y="-127.3" font-family="Times,serif" font-size="14.00">end_node</text>
</g>
<!-- start_node end_node&#45;&gt;end_node -->
<g id="edge24" class="edge"><title>start_node end_node&#45;&gt;end_node</title>
<path fill="none" stroke="grey" d="M188.814,-196.61C200.811,-184.899 216.802,-169.289 230.06,-156.346"/>
<polygon fill="grey" stroke="grey" points="232.789,-158.574 237.499,-149.084 227.899,-153.565 232.789,-158.574"/>
</g>
<!-- start_node_0 -->
<g id="node19" class="node"><title>start_node_0</title>
<path fill="lightblue" stroke="black" d="M12,-24C12,-24 114,-24 114,-24 120,-24 126,-30 126,-36 126,-36 126,-58 126,-58 126,-64 120,-70 114,-70 114,-70 12,-70 12,-70 6,-70 0,-64 0,-58 0,-58 0,-36 0,-36 0,-30 6,-24 12,-24"/>
<text text-anchor="middle" x="63" y="-54.8" font-family="Times,serif" font-size="14.00">event =&gt; start_node</text>
<polyline fill="none" stroke="black" points="0,-47 126,-47 "/>
<text text-anchor="middle" x="63" y="-31.8" font-family="Times,serif" font-size="14.00">pause =&gt; before</text>
</g>
<!-- start_node&#45;&gt;start_node_0 -->
<g id="edge23" class="edge"><title>start_node&#45;&gt;start_node_0</title>
<path fill="none" stroke="grey" d="M138.127,-107.81C126.104,-98.2382 111.888,-86.9207 99.0755,-76.7203"/>
<polygon fill="grey" stroke="grey" points="100.899,-73.6983 90.8956,-70.2081 96.5391,-79.1748 100.899,-73.6983"/>
</g>
<!-- &#39;[&#39; -->
<g id="node22" class="node"><title>&#39;[&#39;</title>
<polygon fill="white" stroke="black" points="198,-65 144,-65 144,-29 198,-29 198,-65"/>
<text text-anchor="middle" x="171" y="-43.3" font-family="Times,serif" font-size="14.00">&#39;[&#39;</text>
</g>
<!-- start_node&#45;&gt;&#39;[&#39; -->
<g id="edge26" class="edge"><title>start_node&#45;&gt;&#39;[&#39;</title>
<path fill="none" stroke="grey" d="M167.366,-107.593C167.971,-97.6684 168.689,-85.8996 169.326,-75.4528"/>
<polygon fill="grey" stroke="grey" points="172.837,-75.3719 169.953,-65.1774 165.85,-74.9458 172.837,-75.3719"/>
</g>
<!-- end_node_1 -->
<g id="node21" class="node"><title>end_node_1</title>
<polygon fill="white" stroke="black" points="274,-65 220,-65 220,-29 274,-29 274,-65"/>
</g>
<!-- end_node&#45;&gt;end_node_1 -->
<g id="edge25" class="edge"><title>end_node&#45;&gt;end_node_1</title>
<path fill="none" stroke="grey" d="M253.303,-112.61C252.246,-101.774 250.864,-87.6012 249.663,-75.2913"/>
<polygon fill="grey" stroke="grey" points="253.121,-74.6967 248.667,-65.0838 246.154,-75.3765 253.121,-74.6967"/>
</g>
<!-- &#39;]&#39; -->
<g id="node23" class="node"><title>&#39;]&#39;</title>
<polygon fill="white" stroke="black" points="346,-65 292,-65 292,-29 346,-29 346,-65"/>
<text text-anchor="middle" x="319" y="-43.3" font-family="Times,serif" font-size="14.00">&#39;]&#39;</text>
</g>
<!-- end_node&#45;&gt;&#39;]&#39; -->
<g id="edge27" class="edge"><title>end_node&#45;&gt;&#39;]&#39;</title>
<path fill="none" stroke="grey" d="M268.573,-112.61C277.542,-101.118 289.442,-85.871 299.429,-73.0748"/>
<polygon fill="grey" stroke="grey" points="302.273,-75.1205 305.666,-65.0838 296.754,-70.8136 302.273,-75.1205"/>
</g>
<!-- edge_name -->
<g id="node26" class="node"><title>edge_name</title>
<polygon fill="white" stroke="black" points="675.25,-311 596.75,-311 596.75,-275 675.25,-275 675.25,-311"/>
<text text-anchor="middle" x="636" y="-289.3" font-family="Times,serif" font-size="14.00">edge_name</text>
</g>
<!-- edge_statement&#45;&gt;edge_name -->
<g id="edge32" class="edge"><title>edge_statement&#45;&gt;edge_name</title>
<path fill="none" stroke="grey" d="M892.411,-425.715C915.986,-418.107 941.915,-405.081 956,-383 964.605,-369.511 966.348,-359.203 956,-347 921.972,-306.873 767.128,-297.087 685.97,-294.729"/>
<polygon fill="grey" stroke="grey" points="685.59,-291.218 675.502,-294.454 685.406,-298.215 685.59,-291.218"/>
</g>
<!-- edge_name attribute_definition -->
<g id="node27" class="node"><title>edge_name attribute_definition</title>
<polygon fill="white" stroke="black" points="718.25,-383 531.75,-383 531.75,-347 718.25,-347 718.25,-383"/>
<text text-anchor="middle" x="625" y="-361.3" font-family="Times,serif" font-size="14.00">edge_name attribute_definition</text>
</g>
<!-- edge_statement&#45;&gt;edge_name attribute_definition -->
<g id="edge33" class="edge"><title>edge_statement&#45;&gt;edge_name attribute_definition</title>
<path fill="none" stroke="grey" d="M791.67,-419.765C760.561,-409.729 720.393,-396.772 687.285,-386.092"/>
<polygon fill="grey" stroke="grey" points="688.294,-382.74 677.703,-383.001 686.145,-389.402 688.294,-382.74"/>
</g>
<!-- edge_statement (&#39;,&#39;) edge_statement -->
<g id="node28" class="node"><title>edge_statement (&#39;,&#39;) edge_statement</title>
<polygon fill="white" stroke="black" points="947.25,-383 736.75,-383 736.75,-347 947.25,-347 947.25,-383"/>
<text text-anchor="middle" x="842" y="-361.3" font-family="Times,serif" font-size="14.00">edge_statement (&#39;,&#39;) edge_statement</text>
</g>
<!-- edge_statement&#45;&gt;edge_statement (&#39;,&#39;) edge_statement -->
<g id="edge36" class="edge"><title>edge_statement&#45;&gt;edge_statement (&#39;,&#39;) edge_statement</title>
<path fill="none" stroke="grey" d="M830.169,-418.697C828.577,-410.983 828.124,-401.712 828.809,-393.112"/>
<polygon fill="grey" stroke="grey" points="832.29,-393.493 830.21,-383.104 825.358,-392.523 832.29,-393.493"/>
</g>
<!-- edge_statement graph_definition&#45;&gt;edge_statement -->
<g id="edge30" class="edge"><title>edge_statement graph_definition&#45;&gt;edge_statement</title>
<path fill="none" stroke="grey" d="M730.316,-496.944C751.014,-486.02 778.075,-471.738 800.376,-459.968"/>
<polygon fill="grey" stroke="grey" points="802.083,-463.025 809.293,-455.262 798.816,-456.834 802.083,-463.025"/>
</g>
<!-- edge_statement graph_definition&#45;&gt;graph_definition -->
<g id="edge31" class="edge"><title>edge_statement graph_definition&#45;&gt;graph_definition</title>
<path fill="none" stroke="grey" d="M678.02,-533.152C665.661,-544.339 649.932,-559.665 638,-575 619.615,-598.627 602.839,-628.536 591.916,-649.657"/>
<polygon fill="grey" stroke="grey" points="588.736,-648.188 587.324,-658.688 594.976,-651.36 588.736,-648.188"/>
</g>
<!-- directed_edge -->
<g id="node29" class="node"><title>directed_edge</title>
<path fill="lightblue" stroke="black" d="M497,-192C497,-192 565,-192 565,-192 571,-192 577,-198 577,-204 577,-204 577,-226 577,-226 577,-232 571,-238 565,-238 565,-238 497,-238 497,-238 491,-238 485,-232 485,-226 485,-226 485,-204 485,-204 485,-198 491,-192 497,-192"/>
<text text-anchor="middle" x="531" y="-222.8" font-family="Times,serif" font-size="14.00">꞉lexeme</text>
<polyline fill="none" stroke="black" points="485,-215 577,-215 "/>
<text text-anchor="middle" x="531" y="-199.8" font-family="Times,serif" font-size="14.00">directed_edge</text>
</g>
<!-- edge_name&#45;&gt;directed_edge -->
<g id="edge40" class="edge"><title>edge_name&#45;&gt;directed_edge</title>
<path fill="none" stroke="grey" d="M612.436,-274.944C599.901,-265.871 584.166,-254.482 569.877,-244.139"/>
<polygon fill="grey" stroke="grey" points="571.819,-241.224 561.666,-238.196 567.714,-246.895 571.819,-241.224"/>
</g>
<!-- undirected_edge -->
<g id="node31" class="node"><title>undirected_edge</title>
<path fill="lightblue" stroke="black" d="M614,-192C614,-192 696,-192 696,-192 702,-192 708,-198 708,-204 708,-204 708,-226 708,-226 708,-232 702,-238 696,-238 696,-238 614,-238 614,-238 608,-238 602,-232 602,-226 602,-226 602,-204 602,-204 602,-198 608,-192 614,-192"/>
<text text-anchor="middle" x="655" y="-222.8" font-family="Times,serif" font-size="14.00">꞉lexeme</text>
<polyline fill="none" stroke="black" points="602,-215 708,-215 "/>
<text text-anchor="middle" x="655" y="-199.8" font-family="Times,serif" font-size="14.00">undirected_edge</text>
</g>
<!-- edge_name&#45;&gt;undirected_edge -->
<g id="edge42" class="edge"><title>edge_name&#45;&gt;undirected_edge</title>
<path fill="none" stroke="grey" d="M640.311,-274.754C642.305,-266.778 644.739,-257.042 647.048,-247.808"/>
<polygon fill="grey" stroke="grey" points="650.447,-248.641 649.477,-238.091 643.656,-246.943 650.447,-248.641"/>
</g>
<!-- edge_name attribute_definition&#45;&gt;edge_name -->
<g id="edge34" class="edge"><title>edge_name attribute_definition&#45;&gt;edge_name</title>
<path fill="none" stroke="grey" d="M627.719,-346.697C628.931,-338.983 630.388,-329.712 631.739,-321.112"/>
<polygon fill="grey" stroke="grey" points="635.217,-321.526 633.312,-311.104 628.302,-320.44 635.217,-321.526"/>
</g>
<!-- edge_name attribute_definition&#45;&gt;attribute_definition -->
<g id="edge35" class="edge"><title>edge_name attribute_definition&#45;&gt;attribute_definition</title>
<path fill="none" stroke="grey" d="M563.919,-346.966C527.82,-336.898 481.965,-324.11 444.356,-313.621"/>
<polygon fill="grey" stroke="grey" points="445.057,-310.183 434.485,-310.868 443.177,-316.926 445.057,-310.183"/>
</g>
<!-- edge_statement (&#39;,&#39;) edge_statement&#45;&gt;edge_statement -->
<g id="edge37" class="edge"><title>edge_statement (&#39;,&#39;) edge_statement&#45;&gt;edge_statement</title>
<path fill="none" stroke="grey" d="M842,-383.104C842,-390.791 842,-400.054 842,-408.665"/>
<polygon fill="grey" stroke="grey" points="838.5,-408.697 842,-418.697 845.5,-408.697 838.5,-408.697"/>
</g>
<!-- edge_statement (&#39;,&#39;) edge_statement&#45;&gt;(&#39;,&#39;) -->
<g id="edge38" class="edge"><title>edge_statement (&#39;,&#39;) edge_statement&#45;&gt;(&#39;,&#39;)</title>
<path fill="none" stroke="grey" d="M749.449,-346.959C700.835,-337.456 640.418,-324.774 587,-311 581.172,-309.497 575.043,-307.761 569.076,-305.984"/>
<polygon fill="grey" stroke="grey" points="569.857,-302.563 559.27,-302.989 567.812,-309.257 569.857,-302.563"/>
</g>
<!-- edge_statement (&#39;,&#39;) edge_statement&#45;&gt;edge_statement -->
<g id="edge39" class="edge"><title>edge_statement (&#39;,&#39;) edge_statement&#45;&gt;edge_statement</title>
<path fill="none" stroke="grey" d="M853.79,-383.104C855.401,-390.791 855.874,-400.054 855.208,-408.665"/>
<polygon fill="grey" stroke="grey" points="851.724,-408.314 853.831,-418.697 858.659,-409.265 851.724,-408.314"/>
</g>
<!-- directed_edge_0 -->
<g id="node30" class="node"><title>directed_edge_0</title>
<path fill="lightblue" stroke="black" d="M352,-108C352,-108 474,-108 474,-108 480,-108 486,-114 486,-120 486,-120 486,-142 486,-142 486,-148 480,-154 474,-154 474,-154 352,-154 352,-154 346,-154 340,-148 340,-142 340,-142 340,-120 340,-120 340,-114 346,-108 352,-108"/>
<text text-anchor="middle" x="413" y="-138.8" font-family="Times,serif" font-size="14.00">event =&gt; directed_edge</text>
<polyline fill="none" stroke="black" points="340,-131 486,-131 "/>
<text text-anchor="middle" x="413" y="-115.8" font-family="Times,serif" font-size="14.00">pause =&gt; before</text>
</g>
<!-- directed_edge&#45;&gt;directed_edge_0 -->
<g id="edge41" class="edge"><title>directed_edge&#45;&gt;directed_edge_0</title>
<path fill="none" stroke="grey" d="M499.068,-191.81C485.032,-182.056 468.386,-170.489 453.492,-160.139"/>
<polygon fill="grey" stroke="grey" points="455.167,-157.041 444.958,-154.208 451.173,-162.789 455.167,-157.041"/>
</g>
<!-- &#39;&#45;\&gt;&#39; -->
<g id="node33" class="node"><title>&#39;&#45;\&gt;&#39;</title>
<polygon fill="white" stroke="black" points="558,-149 504,-149 504,-113 558,-113 558,-149"/>
<text text-anchor="middle" x="531" y="-127.3" font-family="Times,serif" font-size="14.00">&#39;&#45;&gt;&#39;</text>
</g>
<!-- directed_edge&#45;&gt;&#39;&#45;\&gt;&#39; -->
<g id="edge44" class="edge"><title>directed_edge&#45;&gt;&#39;&#45;\&gt;&#39;</title>
<path fill="none" stroke="grey" d="M531,-191.593C531,-181.668 531,-169.9 531,-159.453"/>
<polygon fill="grey" stroke="grey" points="534.5,-159.177 531,-149.177 527.5,-159.177 534.5,-159.177"/>
</g>
<!-- undirected_edge_0 -->
<g id="node32" class="node"><title>undirected_edge_0</title>
<path fill="lightblue" stroke="black" d="M587.5,-108C587.5,-108 722.5,-108 722.5,-108 728.5,-108 734.5,-114 734.5,-120 734.5,-120 734.5,-142 734.5,-142 734.5,-148 728.5,-154 722.5,-154 722.5,-154 587.5,-154 587.5,-154 581.5,-154 575.5,-148 575.5,-142 575.5,-142 575.5,-120 575.5,-120 575.5,-114 581.5,-108 587.5,-108"/>
<text text-anchor="middle" x="655" y="-138.8" font-family="Times,serif" font-size="14.00">event =&gt; undirected_edge</text>
<polyline fill="none" stroke="black" points="575.5,-131 734.5,-131 "/>
<text text-anchor="middle" x="655" y="-115.8" font-family="Times,serif" font-size="14.00">pause =&gt; before</text>
</g>
<!-- undirected_edge&#45;&gt;undirected_edge_0 -->
<g id="edge43" class="edge"><title>undirected_edge&#45;&gt;undirected_edge_0</title>
<path fill="none" stroke="grey" d="M655,-191.593C655,-183.118 655,-173.297 655,-164.104"/>
<polygon fill="grey" stroke="grey" points="658.5,-164.096 655,-154.096 651.5,-164.096 658.5,-164.096"/>
</g>
<!-- &#39;&#45;&#45;&#39; -->
<g id="node34" class="node"><title>&#39;&#45;&#45;&#39;</title>
<polygon fill="white" stroke="black" points="806,-149 752,-149 752,-113 806,-113 806,-149"/>
<text text-anchor="middle" x="779" y="-127.3" font-family="Times,serif" font-size="14.00">&#39;&#45;&#45;&#39;</text>
</g>
<!-- undirected_edge&#45;&gt;&#39;&#45;&#45;&#39; -->
<g id="edge45" class="edge"><title>undirected_edge&#45;&gt;&#39;&#45;&#45;&#39;</title>
<path fill="none" stroke="grey" d="M688.556,-191.81C705.902,-180.339 727.041,-166.36 744.519,-154.802"/>
<polygon fill="grey" stroke="grey" points="746.875,-157.44 753.286,-149.004 743.014,-151.601 746.875,-157.44"/>
</g>
<!-- start_attributes end_attributes -->
<g id="node36" class="node"><title>start_attributes end_attributes</title>
<polygon fill="white" stroke="black" points="1189.25,-695 1012.75,-695 1012.75,-659 1189.25,-659 1189.25,-695"/>
<text text-anchor="middle" x="1101" y="-673.3" font-family="Times,serif" font-size="14.00">start_attributes end_attributes</text>
</g>
<!-- start_attributes -->
<g id="node38" class="node"><title>start_attributes</title>
<path fill="lightblue" stroke="black" d="M1008.5,-576C1008.5,-576 1081.5,-576 1081.5,-576 1087.5,-576 1093.5,-582 1093.5,-588 1093.5,-588 1093.5,-610 1093.5,-610 1093.5,-616 1087.5,-622 1081.5,-622 1081.5,-622 1008.5,-622 1008.5,-622 1002.5,-622 996.5,-616 996.5,-610 996.5,-610 996.5,-588 996.5,-588 996.5,-582 1002.5,-576 1008.5,-576"/>
<text text-anchor="middle" x="1045" y="-606.8" font-family="Times,serif" font-size="14.00">꞉lexeme</text>
<polyline fill="none" stroke="black" points="996.5,-599 1093.5,-599 "/>
<text text-anchor="middle" x="1045" y="-583.8" font-family="Times,serif" font-size="14.00">start_attributes</text>
</g>
<!-- start_attributes end_attributes&#45;&gt;start_attributes -->
<g id="edge48" class="edge"><title>start_attributes end_attributes&#45;&gt;start_attributes</title>
<path fill="none" stroke="grey" d="M1088.29,-658.754C1082.1,-650.354 1074.47,-640.001 1067.35,-630.339"/>
<polygon fill="grey" stroke="grey" points="1070.03,-628.065 1061.28,-622.091 1064.39,-632.218 1070.03,-628.065"/>
</g>
<!-- end_attributes -->
<g id="node40" class="node"><title>end_attributes</title>
<polygon fill="white" stroke="black" points="1204.25,-617 1111.75,-617 1111.75,-581 1204.25,-581 1204.25,-617"/>
<text text-anchor="middle" x="1158" y="-595.3" font-family="Times,serif" font-size="14.00">end_attributes</text>
</g>
<!-- start_attributes end_attributes&#45;&gt;end_attributes -->
<g id="edge50" class="edge"><title>start_attributes end_attributes&#45;&gt;end_attributes</title>
<path fill="none" stroke="grey" d="M1113.93,-658.754C1121.37,-648.843 1130.84,-636.214 1139.09,-625.207"/>
<polygon fill="grey" stroke="grey" points="1141.92,-627.277 1145.12,-617.177 1136.32,-623.077 1141.92,-627.277"/>
</g>
<!-- attribute_statement -->
<g id="node37" class="node"><title>attribute_statement</title>
<polygon fill="lightgrey" stroke="black" points="1161.25,-773 1040.75,-773 1040.75,-737 1161.25,-737 1161.25,-773"/>
<text text-anchor="middle" x="1101" y="-751.3" font-family="Times,serif" font-size="14.00">attribute_statement</text>
</g>
<!-- attribute_statement&#45;&gt;start_attributes end_attributes -->
<g id="edge47" class="edge"><title>attribute_statement&#45;&gt;start_attributes end_attributes</title>
<path fill="none" stroke="grey" d="M1101,-736.754C1101,-727.523 1101,-715.935 1101,-705.495"/>
<polygon fill="grey" stroke="grey" points="1104.5,-705.177 1101,-695.177 1097.5,-705.177 1104.5,-705.177"/>
</g>
<!-- start_attributes_0 -->
<g id="node39" class="node"><title>start_attributes_0</title>
<path fill="lightblue" stroke="black" d="M873,-492C873,-492 999,-492 999,-492 1005,-492 1011,-498 1011,-504 1011,-504 1011,-526 1011,-526 1011,-532 1005,-538 999,-538 999,-538 873,-538 873,-538 867,-538 861,-532 861,-526 861,-526 861,-504 861,-504 861,-498 867,-492 873,-492"/>
<text text-anchor="middle" x="936" y="-522.8" font-family="Times,serif" font-size="14.00">event =&gt; start_attributes</text>
<polyline fill="none" stroke="black" points="861,-515 1011,-515 "/>
<text text-anchor="middle" x="936" y="-499.8" font-family="Times,serif" font-size="14.00">pause =&gt; before</text>
</g>
<!-- start_attributes&#45;&gt;start_attributes_0 -->
<g id="edge49" class="edge"><title>start_attributes&#45;&gt;start_attributes_0</title>
<path fill="none" stroke="grey" d="M1015.5,-575.81C1002.66,-566.147 987.449,-554.705 973.79,-544.429"/>
<polygon fill="grey" stroke="grey" points="975.616,-541.423 965.521,-538.208 971.408,-547.017 975.616,-541.423"/>
</g>
<!-- &#39;{&#39; -->
<g id="node42" class="node"><title>&#39;{&#39;</title>
<polygon fill="white" stroke="black" points="1083,-533 1029,-533 1029,-497 1083,-497 1083,-533"/>
<text text-anchor="middle" x="1056" y="-511.3" font-family="Times,serif" font-size="14.00">&#39;{&#39;</text>
</g>
<!-- start_attributes&#45;&gt;&#39;{&#39; -->
<g id="edge52" class="edge"><title>start_attributes&#45;&gt;&#39;{&#39;</title>
<path fill="none" stroke="grey" d="M1048.01,-575.593C1049.35,-565.564 1050.95,-553.652 1052.36,-543.123"/>
<polygon fill="grey" stroke="grey" points="1055.84,-543.554 1053.7,-533.177 1048.9,-542.623 1055.84,-543.554"/>
</g>
<!-- end_attributes_1 -->
<g id="node41" class="node"><title>end_attributes_1</title>
<polygon fill="white" stroke="black" points="1165,-533 1111,-533 1111,-497 1165,-497 1165,-533"/>
</g>
<!-- end_attributes&#45;&gt;end_attributes_1 -->
<g id="edge51" class="edge"><title>end_attributes&#45;&gt;end_attributes_1</title>
<path fill="none" stroke="grey" d="M1153.76,-580.61C1151.09,-569.665 1147.59,-555.315 1144.57,-542.919"/>
<polygon fill="grey" stroke="grey" points="1147.94,-541.97 1142.17,-533.084 1141.14,-543.628 1147.94,-541.97"/>
</g>
<!-- &#39;}&#39; -->
<g id="node43" class="node"><title>&#39;}&#39;</title>
<polygon fill="white" stroke="black" points="1237,-533 1183,-533 1183,-497 1237,-497 1237,-533"/>
<text text-anchor="middle" x="1210" y="-511.3" font-family="Times,serif" font-size="14.00">&#39;}&#39;</text>
</g>
<!-- end_attributes&#45;&gt;&#39;}&#39; -->
<g id="edge53" class="edge"><title>end_attributes&#45;&gt;&#39;}&#39;</title>
<path fill="none" stroke="grey" d="M1169.03,-580.61C1176.18,-569.336 1185.62,-554.45 1193.63,-541.809"/>
<polygon fill="grey" stroke="grey" points="1196.77,-543.403 1199.17,-533.084 1190.86,-539.655 1196.77,-543.403"/>
</g>
</g>
</svg>
