<?xml version="1.0" encoding="UTF-8" standalone="no"?>
<!DOCTYPE svg PUBLIC "-//W3C//DTD SVG 1.1//EN"
 "http://www.w3.org/Graphics/SVG/1.1/DTD/svg11.dtd">
<!-- Generated by graphviz version 2.30.1 (20130611.0131)
 -->
<!-- Title: Perl Pages: 1 -->
<svg width="1164pt" height="849pt"
 viewBox="0.00 0.00 1164.00 849.00" xmlns="http://www.w3.org/2000/svg" xmlns:xlink="http://www.w3.org/1999/xlink">
<g id="graph0" class="graph" transform="scale(1 1) rotate(0) translate(4 845)">
<title>Perl</title>
<polygon fill="white" stroke="white" points="-4,5 -4,-845 1161,-845 1161,5 -4,5"/>
<text text-anchor="middle" x="578" y="-7.8" font-family="Times,serif" font-size="14.00">stringparser.bnf</text>
<!-- graph_grammar -->
<g id="node1" class="node"><title>graph_grammar</title>
<path fill="lightgreen" stroke="black" d="M405,-794C405,-794 485,-794 485,-794 491,-794 497,-800 497,-806 497,-806 497,-828 497,-828 497,-834 491,-840 485,-840 485,-840 405,-840 405,-840 399,-840 393,-834 393,-828 393,-828 393,-806 393,-806 393,-800 399,-794 405,-794"/>
<text text-anchor="middle" x="445" y="-824.8" font-family="Times,serif" font-size="14.00">:start</text>
<polyline fill="none" stroke="black" points="393,-817 497,-817 "/>
<text text-anchor="middle" x="445" y="-801.8" font-family="Times,serif" font-size="14.00">graph_grammar</text>
</g>
<!-- ꞉default -->
<g id="node2" class="node"><title>꞉default</title>
<polygon fill="lightblue" stroke="black" points="377.5,-757 320.5,-757 320.5,-721 377.5,-721 377.5,-757"/>
<text text-anchor="middle" x="349" y="-735.3" font-family="Times,serif" font-size="14.00">꞉default</text>
</g>
<!-- graph_grammar&#45;&gt;꞉default -->
<g id="edge1" class="edge"><title>graph_grammar&#45;&gt;꞉default</title>
<path fill="none" stroke="grey" d="M416.975,-793.813C404.924,-784.273 390.828,-773.114 378.607,-763.439"/>
<polygon fill="grey" stroke="grey" points="380.507,-760.479 370.494,-757.016 376.162,-765.967 380.507,-760.479"/>
</g>
<!-- ꞉discard -->
<g id="node4" class="node"><title>꞉discard</title>
<polygon fill="lightblue" stroke="black" points="474.25,-757 415.75,-757 415.75,-721 474.25,-721 474.25,-757"/>
<text text-anchor="middle" x="445" y="-735.3" font-family="Times,serif" font-size="14.00">꞉discard</text>
</g>
<!-- graph_grammar&#45;&gt;꞉discard -->
<g id="edge3" class="edge"><title>graph_grammar&#45;&gt;꞉discard</title>
<path fill="none" stroke="grey" d="M445,-793.609C445,-785.481 445,-776.2 445,-767.671"/>
<polygon fill="grey" stroke="grey" points="448.5,-767.412 445,-757.412 441.5,-767.412 448.5,-767.412"/>
</g>
<!-- graph_definition -->
<g id="node6" class="node"><title>graph_definition</title>
<polygon fill="white" stroke="black" points="744.25,-757 637.75,-757 637.75,-721 744.25,-721 744.25,-757"/>
<text text-anchor="middle" x="691" y="-735.3" font-family="Times,serif" font-size="14.00">graph_definition</text>
</g>
<!-- graph_grammar&#45;&gt;graph_definition -->
<g id="edge5" class="edge"><title>graph_grammar&#45;&gt;graph_definition</title>
<path fill="none" stroke="grey" d="M497.17,-799.882C535.346,-788.088 587.332,-772.028 627.855,-759.508"/>
<polygon fill="grey" stroke="grey" points="629.11,-762.784 637.631,-756.488 627.044,-756.096 629.11,-762.784"/>
</g>
<!-- ꞉default_1 -->
<g id="node3" class="node"><title>꞉default_1</title>
<path fill="goldenrod" stroke="black" d="M283.5,-648C283.5,-648 376.5,-648 376.5,-648 382.5,-648 388.5,-654 388.5,-660 388.5,-660 388.5,-672 388.5,-672 388.5,-678 382.5,-684 376.5,-684 376.5,-684 283.5,-684 283.5,-684 277.5,-684 271.5,-678 271.5,-672 271.5,-672 271.5,-660 271.5,-660 271.5,-654 277.5,-648 283.5,-648"/>
<text text-anchor="middle" x="330" y="-662.3" font-family="Times,serif" font-size="14.00">action =&gt; [values]</text>
</g>
<!-- ꞉default&#45;&gt;꞉default_1 -->
<g id="edge2" class="edge"><title>꞉default&#45;&gt;꞉default_1</title>
<path fill="none" stroke="grey" d="M344.401,-720.813C342.23,-712.702 339.59,-702.836 337.166,-693.777"/>
<polygon fill="grey" stroke="grey" points="340.523,-692.784 334.557,-684.029 333.761,-694.594 340.523,-692.784"/>
</g>
<!-- whitespace -->
<g id="node5" class="node"><title>whitespace</title>
<polygon fill="lightblue" stroke="black" points="483.25,-684 406.75,-684 406.75,-648 483.25,-648 483.25,-684"/>
<text text-anchor="middle" x="445" y="-662.3" font-family="Times,serif" font-size="14.00">whitespace</text>
</g>
<!-- ꞉discard&#45;&gt;whitespace -->
<g id="edge4" class="edge"><title>꞉discard&#45;&gt;whitespace</title>
<path fill="none" stroke="grey" d="M445,-720.813C445,-712.789 445,-703.047 445,-694.069"/>
<polygon fill="grey" stroke="grey" points="448.5,-694.029 445,-684.029 441.5,-694.029 448.5,-694.029"/>
</g>
<!-- [\\s] -->
<g id="node41" class="node"><title>[\\s]</title>
<polygon fill="white" stroke="black" points="422,-611 368,-611 368,-575 422,-575 422,-611"/>
<text text-anchor="middle" x="395" y="-589.3" font-family="Times,serif" font-size="14.00">[\s]+</text>
</g>
<!-- whitespace&#45;&gt;[\\s] -->
<g id="edge52" class="edge"><title>whitespace&#45;&gt;[\\s]</title>
<path fill="none" stroke="grey" d="M432.896,-647.813C426.878,-639.266 419.486,-628.769 412.833,-619.323"/>
<polygon fill="grey" stroke="grey" points="415.612,-617.19 406.992,-611.029 409.888,-621.22 415.612,-617.19"/>
</g>
<!-- graph_definition_attributes -->
<g id="node7" class="node"><title>graph_definition_attributes</title>
<path fill="goldenrod" stroke="black" d="M891,-648C891,-648 971,-648 971,-648 977,-648 983,-654 983,-660 983,-660 983,-672 983,-672 983,-678 977,-684 971,-684 971,-684 891,-684 891,-684 885,-684 879,-678 879,-672 879,-672 879,-660 879,-660 879,-654 885,-648 891,-648"/>
<text text-anchor="middle" x="931" y="-662.3" font-family="Times,serif" font-size="14.00">action =&gt; graph</text>
</g>
<!-- graph_definition&#45;&gt;graph_definition_attributes -->
<g id="edge6" class="edge"><title>graph_definition&#45;&gt;graph_definition_attributes</title>
<path fill="none" stroke="grey" d="M744.264,-722.243C781.027,-711.367 830.043,-696.866 868.632,-685.451"/>
<polygon fill="grey" stroke="grey" points="870.115,-688.662 878.711,-682.469 868.129,-681.95 870.115,-688.662"/>
</g>
<!-- node_definition -->
<g id="node8" class="node"><title>node_definition</title>
<polygon fill="white" stroke="black" points="702.5,-684 601.5,-684 601.5,-648 702.5,-648 702.5,-684"/>
<text text-anchor="middle" x="652" y="-662.3" font-family="Times,serif" font-size="14.00">node_definition</text>
</g>
<!-- graph_definition&#45;&gt;node_definition -->
<g id="edge7" class="edge"><title>graph_definition&#45;&gt;node_definition</title>
<path fill="none" stroke="grey" d="M681.559,-720.813C676.96,-712.441 671.334,-702.197 666.228,-692.903"/>
<polygon fill="grey" stroke="grey" points="669.236,-691.109 661.354,-684.029 663.101,-694.479 669.236,-691.109"/>
</g>
<!-- edge_definition -->
<g id="node9" class="node"><title>edge_definition</title>
<polygon fill="white" stroke="black" points="860.25,-684 759.75,-684 759.75,-648 860.25,-648 860.25,-684"/>
<text text-anchor="middle" x="810" y="-662.3" font-family="Times,serif" font-size="14.00">edge_definition</text>
</g>
<!-- graph_definition&#45;&gt;edge_definition -->
<g id="edge8" class="edge"><title>graph_definition&#45;&gt;edge_definition</title>
<path fill="none" stroke="grey" d="M719.503,-720.994C735.43,-711.491 755.467,-699.536 772.637,-689.292"/>
<polygon fill="grey" stroke="grey" points="774.522,-692.243 781.317,-684.114 770.936,-686.232 774.522,-692.243"/>
</g>
<!-- node_statement -->
<g id="node10" class="node"><title>node_statement</title>
<polygon fill="white" stroke="black" points="570.5,-539 469.5,-539 469.5,-503 570.5,-503 570.5,-539"/>
<text text-anchor="middle" x="520" y="-517.3" font-family="Times,serif" font-size="14.00">node_statement</text>
</g>
<!-- node_definition&#45;&gt;node_statement -->
<g id="edge9" class="edge"><title>node_definition&#45;&gt;node_statement</title>
<path fill="none" stroke="grey" d="M655.301,-647.968C658.087,-628.423 659.478,-596.329 644,-575 628.893,-554.183 603.915,-541.472 580.321,-533.744"/>
<polygon fill="grey" stroke="grey" points="581.262,-530.372 570.677,-530.825 579.234,-537.072 581.262,-530.372"/>
</g>
<!-- node_statement graph_definition -->
<g id="node11" class="node"><title>node_statement graph_definition</title>
<polygon fill="white" stroke="black" points="635.5,-611 440.5,-611 440.5,-575 635.5,-575 635.5,-611"/>
<text text-anchor="middle" x="538" y="-589.3" font-family="Times,serif" font-size="14.00">node_statement graph_definition</text>
</g>
<!-- node_definition&#45;&gt;node_statement graph_definition -->
<g id="edge10" class="edge"><title>node_definition&#45;&gt;node_statement graph_definition</title>
<path fill="none" stroke="grey" d="M624.694,-647.994C609.577,-638.579 590.593,-626.755 574.247,-616.575"/>
<polygon fill="grey" stroke="grey" points="575.817,-613.429 565.478,-611.114 572.116,-619.371 575.817,-613.429"/>
</g>
<!-- edge_statement -->
<g id="node23" class="node"><title>edge_statement</title>
<polygon fill="white" stroke="black" points="1004.25,-539 903.75,-539 903.75,-503 1004.25,-503 1004.25,-539"/>
<text text-anchor="middle" x="954" y="-517.3" font-family="Times,serif" font-size="14.00">edge_statement</text>
</g>
<!-- edge_definition&#45;&gt;edge_statement -->
<g id="edge27" class="edge"><title>edge_definition&#45;&gt;edge_statement</title>
<path fill="none" stroke="grey" d="M860.32,-647.944C879.721,-639.341 900.84,-627.221 916,-611 932.336,-593.52 942.256,-567.947 947.844,-548.694"/>
<polygon fill="grey" stroke="grey" points="951.231,-549.575 950.448,-539.009 944.471,-547.757 951.231,-549.575"/>
</g>
<!-- edge_statement graph_definition -->
<g id="node24" class="node"><title>edge_statement graph_definition</title>
<polygon fill="white" stroke="black" points="907.25,-611 712.75,-611 712.75,-575 907.25,-575 907.25,-611"/>
<text text-anchor="middle" x="810" y="-589.3" font-family="Times,serif" font-size="14.00">edge_statement graph_definition</text>
</g>
<!-- edge_definition&#45;&gt;edge_statement graph_definition -->
<g id="edge28" class="edge"><title>edge_definition&#45;&gt;edge_statement graph_definition</title>
<path fill="none" stroke="grey" d="M810,-647.813C810,-639.789 810,-630.047 810,-621.069"/>
<polygon fill="grey" stroke="grey" points="813.5,-621.029 810,-611.029 806.5,-621.029 813.5,-621.029"/>
</g>
<!-- node_name -->
<g id="node12" class="node"><title>node_name</title>
<polygon fill="white" stroke="black" points="243,-395 163,-395 163,-359 243,-359 243,-395"/>
<text text-anchor="middle" x="203" y="-373.3" font-family="Times,serif" font-size="14.00">node_name</text>
</g>
<!-- node_statement&#45;&gt;node_name -->
<g id="edge13" class="edge"><title>node_statement&#45;&gt;node_name</title>
<path fill="none" stroke="grey" d="M469.404,-519.283C387.868,-516.936 233.076,-507.163 199,-467 184.75,-450.205 187.592,-424.555 192.919,-405.098"/>
<polygon fill="grey" stroke="grey" points="196.34,-405.883 195.948,-395.296 189.652,-403.817 196.34,-405.883"/>
</g>
<!-- node_name attribute_definition -->
<g id="node13" class="node"><title>node_name attribute_definition</title>
<polygon fill="white" stroke="black" points="396,-467 208,-467 208,-431 396,-431 396,-467"/>
<text text-anchor="middle" x="302" y="-445.3" font-family="Times,serif" font-size="14.00">node_name attribute_definition</text>
</g>
<!-- node_statement&#45;&gt;node_name attribute_definition -->
<g id="edge14" class="edge"><title>node_statement&#45;&gt;node_name attribute_definition</title>
<path fill="none" stroke="grey" d="M469.438,-503.765C438.186,-493.729 397.832,-480.772 364.572,-470.092"/>
<polygon fill="grey" stroke="grey" points="365.537,-466.726 354.946,-467.001 363.397,-473.391 365.537,-466.726"/>
</g>
<!-- node_statement (&#39;,&#39;) node_statement -->
<g id="node15" class="node"><title>node_statement (&#39;,&#39;) node_statement</title>
<polygon fill="white" stroke="black" points="625.5,-467 414.5,-467 414.5,-431 625.5,-431 625.5,-467"/>
<text text-anchor="middle" x="520" y="-445.3" font-family="Times,serif" font-size="14.00">node_statement (&#39;,&#39;) node_statement</text>
</g>
<!-- node_statement&#45;&gt;node_statement (&#39;,&#39;) node_statement -->
<g id="edge17" class="edge"><title>node_statement&#45;&gt;node_statement (&#39;,&#39;) node_statement</title>
<path fill="none" stroke="grey" d="M508.169,-502.697C506.577,-494.983 506.124,-485.712 506.809,-477.112"/>
<polygon fill="grey" stroke="grey" points="510.29,-477.493 508.21,-467.104 503.358,-476.523 510.29,-477.493"/>
</g>
<!-- node_statement graph_definition&#45;&gt;node_statement -->
<g id="edge11" class="edge"><title>node_statement graph_definition&#45;&gt;node_statement</title>
<path fill="none" stroke="grey" d="M533.551,-574.697C531.545,-566.898 529.131,-557.509 526.899,-548.829"/>
<polygon fill="grey" stroke="grey" points="530.278,-547.918 524.398,-539.104 523.499,-549.661 530.278,-547.918"/>
</g>
<!-- node_statement graph_definition&#45;&gt;graph_definition -->
<g id="edge12" class="edge"><title>node_statement graph_definition&#45;&gt;graph_definition</title>
<path fill="none" stroke="grey" d="M544.851,-611.302C553.414,-631.14 569.701,-663.662 592,-685 605.188,-697.619 621.971,-708.097 637.956,-716.312"/>
<polygon fill="grey" stroke="grey" points="636.724,-719.607 647.242,-720.887 639.818,-713.328 636.724,-719.607"/>
</g>
<!-- start_node end_node -->
<g id="node17" class="node"><title>start_node end_node</title>
<polygon fill="white" stroke="black" points="267.25,-317 138.75,-317 138.75,-281 267.25,-281 267.25,-317"/>
<text text-anchor="middle" x="203" y="-295.3" font-family="Times,serif" font-size="14.00">start_node end_node</text>
</g>
<!-- node_name&#45;&gt;start_node end_node -->
<g id="edge21" class="edge"><title>node_name&#45;&gt;start_node end_node</title>
<path fill="none" stroke="grey" d="M203,-358.754C203,-349.523 203,-337.935 203,-327.495"/>
<polygon fill="grey" stroke="grey" points="206.5,-327.177 203,-317.177 199.5,-327.177 206.5,-327.177"/>
</g>
<!-- node_name attribute_definition&#45;&gt;node_name -->
<g id="edge15" class="edge"><title>node_name attribute_definition&#45;&gt;node_name</title>
<path fill="none" stroke="grey" d="M277.782,-430.876C265.077,-421.893 249.336,-410.763 235.577,-401.034"/>
<polygon fill="grey" stroke="grey" points="237.497,-398.105 227.311,-395.19 233.456,-403.821 237.497,-398.105"/>
</g>
<!-- attribute_definition -->
<g id="node14" class="node"><title>attribute_definition</title>
<polygon fill="white" stroke="black" points="485.25,-395 364.75,-395 364.75,-359 485.25,-359 485.25,-395"/>
<text text-anchor="middle" x="425" y="-373.3" font-family="Times,serif" font-size="14.00">attribute_definition</text>
</g>
<!-- node_name attribute_definition&#45;&gt;attribute_definition -->
<g id="edge16" class="edge"><title>node_name attribute_definition&#45;&gt;attribute_definition</title>
<path fill="none" stroke="grey" d="M332.089,-430.876C348.32,-421.639 368.542,-410.131 385.971,-400.212"/>
<polygon fill="grey" stroke="grey" points="387.835,-403.178 394.795,-395.19 384.373,-397.094 387.835,-403.178"/>
</g>
<!-- attribute_statement -->
<g id="node34" class="node"><title>attribute_statement</title>
<polygon fill="white" stroke="black" points="489,-317 361,-317 361,-281 489,-281 489,-317"/>
<text text-anchor="middle" x="425" y="-295.3" font-family="Times,serif" font-size="14.00">attribute_statement*</text>
</g>
<!-- attribute_definition&#45;&gt;attribute_statement -->
<g id="edge45" class="edge"><title>attribute_definition&#45;&gt;attribute_statement</title>
<path fill="none" stroke="grey" d="M425,-358.754C425,-349.523 425,-337.935 425,-327.495"/>
<polygon fill="grey" stroke="grey" points="428.5,-327.177 425,-317.177 421.5,-327.177 428.5,-327.177"/>
</g>
<!-- node_statement (&#39;,&#39;) node_statement&#45;&gt;node_statement -->
<g id="edge18" class="edge"><title>node_statement (&#39;,&#39;) node_statement&#45;&gt;node_statement</title>
<path fill="none" stroke="grey" d="M520,-467.104C520,-474.791 520,-484.054 520,-492.665"/>
<polygon fill="grey" stroke="grey" points="516.5,-492.697 520,-502.697 523.5,-492.697 516.5,-492.697"/>
</g>
<!-- (&#39;,&#39;) -->
<g id="node16" class="node"><title>(&#39;,&#39;)</title>
<polygon fill="white" stroke="black" points="672,-395 618,-395 618,-359 672,-359 672,-395"/>
<text text-anchor="middle" x="645" y="-373.3" font-family="Times,serif" font-size="14.00">(&#39;,&#39;)</text>
</g>
<!-- node_statement (&#39;,&#39;) node_statement&#45;&gt;(&#39;,&#39;) -->
<g id="edge19" class="edge"><title>node_statement (&#39;,&#39;) node_statement&#45;&gt;(&#39;,&#39;)</title>
<path fill="none" stroke="grey" d="M550.578,-430.876C568.219,-420.998 590.496,-408.522 608.982,-398.17"/>
<polygon fill="grey" stroke="grey" points="610.701,-401.219 617.715,-393.279 607.28,-395.112 610.701,-401.219"/>
</g>
<!-- node_statement (&#39;,&#39;) node_statement&#45;&gt;node_statement -->
<g id="edge20" class="edge"><title>node_statement (&#39;,&#39;) node_statement&#45;&gt;node_statement</title>
<path fill="none" stroke="grey" d="M531.79,-467.104C533.401,-474.791 533.874,-484.054 533.208,-492.665"/>
<polygon fill="grey" stroke="grey" points="529.724,-492.314 531.831,-502.697 536.659,-493.265 529.724,-492.314"/>
</g>
<!-- start_node -->
<g id="node18" class="node"><title>start_node</title>
<path fill="orchid" stroke="black" d="M137.5,-192C137.5,-192 186.5,-192 186.5,-192 192.5,-192 198.5,-198 198.5,-204 198.5,-204 198.5,-226 198.5,-226 198.5,-232 192.5,-238 186.5,-238 186.5,-238 137.5,-238 137.5,-238 131.5,-238 125.5,-232 125.5,-226 125.5,-226 125.5,-204 125.5,-204 125.5,-198 131.5,-192 137.5,-192"/>
<text text-anchor="middle" x="162" y="-222.8" font-family="Times,serif" font-size="14.00">꞉lexeme</text>
<polyline fill="none" stroke="black" points="125.5,-215 198.5,-215 "/>
<text text-anchor="middle" x="162" y="-199.8" font-family="Times,serif" font-size="14.00">start_node</text>
</g>
<!-- start_node end_node&#45;&gt;start_node -->
<g id="edge22" class="edge"><title>start_node end_node&#45;&gt;start_node</title>
<path fill="none" stroke="grey" d="M194.305,-280.61C189.457,-270.914 183.272,-258.545 177.615,-247.23"/>
<polygon fill="grey" stroke="grey" points="180.63,-245.434 173.028,-238.055 174.369,-248.565 180.63,-245.434"/>
</g>
<!-- end_node -->
<g id="node20" class="node"><title>end_node</title>
<polygon fill="white" stroke="black" points="285.25,-233 216.75,-233 216.75,-197 285.25,-197 285.25,-233"/>
<text text-anchor="middle" x="251" y="-211.3" font-family="Times,serif" font-size="14.00">end_node</text>
</g>
<!-- start_node end_node&#45;&gt;end_node -->
<g id="edge24" class="edge"><title>start_node end_node&#45;&gt;end_node</title>
<path fill="none" stroke="grey" d="M213.18,-280.61C219.779,-269.336 228.492,-254.45 235.892,-241.809"/>
<polygon fill="grey" stroke="grey" points="238.968,-243.482 241,-233.084 232.927,-239.946 238.968,-243.482"/>
</g>
<!-- start_node_0 -->
<g id="node19" class="node"><title>start_node_0</title>
<path fill="lightblue" stroke="black" d="M12,-108C12,-108 114,-108 114,-108 120,-108 126,-114 126,-120 126,-120 126,-142 126,-142 126,-148 120,-154 114,-154 114,-154 12,-154 12,-154 6,-154 0,-148 0,-142 0,-142 0,-120 0,-120 0,-114 6,-108 12,-108"/>
<text text-anchor="middle" x="63" y="-138.8" font-family="Times,serif" font-size="14.00">event =&gt; start_node</text>
<polyline fill="none" stroke="black" points="0,-131 126,-131 "/>
<text text-anchor="middle" x="63" y="-115.8" font-family="Times,serif" font-size="14.00">pause =&gt; before</text>
</g>
<!-- start_node&#45;&gt;start_node_0 -->
<g id="edge23" class="edge"><title>start_node&#45;&gt;start_node_0</title>
<path fill="none" stroke="grey" d="M135.209,-191.81C123.653,-182.238 109.99,-170.921 97.6745,-160.72"/>
<polygon fill="grey" stroke="grey" points="99.7462,-157.892 89.8122,-154.208 95.281,-163.282 99.7462,-157.892"/>
</g>
<!-- &#39;[&#39; -->
<g id="node21" class="node"><title>&#39;[&#39;</title>
<polygon fill="white" stroke="black" points="198,-149 144,-149 144,-113 198,-113 198,-149"/>
<text text-anchor="middle" x="171" y="-127.3" font-family="Times,serif" font-size="14.00">&#39;[&#39;</text>
</g>
<!-- start_node&#45;&gt;&#39;[&#39; -->
<g id="edge25" class="edge"><title>start_node&#45;&gt;&#39;[&#39;</title>
<path fill="none" stroke="grey" d="M164.459,-191.593C165.56,-181.564 166.868,-169.652 168.023,-159.123"/>
<polygon fill="grey" stroke="grey" points="171.503,-159.5 169.115,-149.177 164.544,-158.736 171.503,-159.5"/>
</g>
<!-- &#39;]&#39; -->
<g id="node22" class="node"><title>&#39;]&#39;</title>
<polygon fill="white" stroke="black" points="278,-149 224,-149 224,-113 278,-113 278,-149"/>
<text text-anchor="middle" x="251" y="-127.3" font-family="Times,serif" font-size="14.00">&#39;]&#39;</text>
</g>
<!-- end_node&#45;&gt;&#39;]&#39; -->
<g id="edge26" class="edge"><title>end_node&#45;&gt;&#39;]&#39;</title>
<path fill="none" stroke="grey" d="M251,-196.61C251,-185.774 251,-171.601 251,-159.291"/>
<polygon fill="grey" stroke="grey" points="254.5,-159.084 251,-149.084 247.5,-159.084 254.5,-159.084"/>
</g>
<!-- edge_name -->
<g id="node25" class="node"><title>edge_name</title>
<polygon fill="white" stroke="black" points="822.25,-395 743.75,-395 743.75,-359 822.25,-359 822.25,-395"/>
<text text-anchor="middle" x="783" y="-373.3" font-family="Times,serif" font-size="14.00">edge_name</text>
</g>
<!-- edge_statement&#45;&gt;edge_name -->
<g id="edge31" class="edge"><title>edge_statement&#45;&gt;edge_name</title>
<path fill="none" stroke="grey" d="M1004.41,-509.715C1027.99,-502.107 1053.91,-489.081 1068,-467 1076.6,-453.511 1078.23,-443.305 1068,-431 1038.64,-395.678 906.269,-383.782 832.701,-379.863"/>
<polygon fill="grey" stroke="grey" points="832.456,-376.346 822.293,-379.341 832.105,-383.337 832.456,-376.346"/>
</g>
<!-- edge_name attribute_definition -->
<g id="node26" class="node"><title>edge_name attribute_definition</title>
<polygon fill="white" stroke="black" points="830.25,-467 643.75,-467 643.75,-431 830.25,-431 830.25,-467"/>
<text text-anchor="middle" x="737" y="-445.3" font-family="Times,serif" font-size="14.00">edge_name attribute_definition</text>
</g>
<!-- edge_statement&#45;&gt;edge_name attribute_definition -->
<g id="edge32" class="edge"><title>edge_statement&#45;&gt;edge_name attribute_definition</title>
<path fill="none" stroke="grey" d="M903.67,-503.765C872.561,-493.729 832.393,-480.772 799.285,-470.092"/>
<polygon fill="grey" stroke="grey" points="800.294,-466.74 789.703,-467.001 798.145,-473.402 800.294,-466.74"/>
</g>
<!-- edge_statement (&#39;,&#39;) edge_statement -->
<g id="node27" class="node"><title>edge_statement (&#39;,&#39;) edge_statement</title>
<polygon fill="white" stroke="black" points="1059.25,-467 848.75,-467 848.75,-431 1059.25,-431 1059.25,-467"/>
<text text-anchor="middle" x="954" y="-445.3" font-family="Times,serif" font-size="14.00">edge_statement (&#39;,&#39;) edge_statement</text>
</g>
<!-- edge_statement&#45;&gt;edge_statement (&#39;,&#39;) edge_statement -->
<g id="edge35" class="edge"><title>edge_statement&#45;&gt;edge_statement (&#39;,&#39;) edge_statement</title>
<path fill="none" stroke="grey" d="M942.169,-502.697C940.577,-494.983 940.124,-485.712 940.809,-477.112"/>
<polygon fill="grey" stroke="grey" points="944.29,-477.493 942.21,-467.104 937.358,-476.523 944.29,-477.493"/>
</g>
<!-- edge_statement graph_definition&#45;&gt;edge_statement -->
<g id="edge29" class="edge"><title>edge_statement graph_definition&#45;&gt;edge_statement</title>
<path fill="none" stroke="grey" d="M845.226,-574.876C864.577,-565.469 888.773,-553.708 909.427,-543.667"/>
<polygon fill="grey" stroke="grey" points="911.175,-546.71 918.638,-539.19 908.114,-540.414 911.175,-546.71"/>
</g>
<!-- edge_statement graph_definition&#45;&gt;graph_definition -->
<g id="edge30" class="edge"><title>edge_statement graph_definition&#45;&gt;graph_definition</title>
<path fill="none" stroke="grey" d="M787.855,-611.092C775.912,-620.894 761.341,-633.839 750,-647 732.466,-667.348 716.153,-693.276 705.144,-712.247"/>
<polygon fill="grey" stroke="grey" points="702.097,-710.525 700.184,-720.946 708.178,-713.993 702.097,-710.525"/>
</g>
<!-- directed_edge -->
<g id="node28" class="node"><title>directed_edge</title>
<path fill="orchid" stroke="black" d="M712,-276C712,-276 780,-276 780,-276 786,-276 792,-282 792,-288 792,-288 792,-310 792,-310 792,-316 786,-322 780,-322 780,-322 712,-322 712,-322 706,-322 700,-316 700,-310 700,-310 700,-288 700,-288 700,-282 706,-276 712,-276"/>
<text text-anchor="middle" x="746" y="-306.8" font-family="Times,serif" font-size="14.00">꞉lexeme</text>
<polyline fill="none" stroke="black" points="700,-299 792,-299 "/>
<text text-anchor="middle" x="746" y="-283.8" font-family="Times,serif" font-size="14.00">directed_edge</text>
</g>
<!-- edge_name&#45;&gt;directed_edge -->
<g id="edge39" class="edge"><title>edge_name&#45;&gt;directed_edge</title>
<path fill="none" stroke="grey" d="M774.604,-358.754C770.638,-350.609 765.779,-340.627 761.199,-331.219"/>
<polygon fill="grey" stroke="grey" points="764.279,-329.55 756.755,-322.091 757.985,-332.614 764.279,-329.55"/>
</g>
<!-- undirected_edge -->
<g id="node30" class="node"><title>undirected_edge</title>
<path fill="orchid" stroke="black" d="M829,-276C829,-276 911,-276 911,-276 917,-276 923,-282 923,-288 923,-288 923,-310 923,-310 923,-316 917,-322 911,-322 911,-322 829,-322 829,-322 823,-322 817,-316 817,-310 817,-310 817,-288 817,-288 817,-282 823,-276 829,-276"/>
<text text-anchor="middle" x="870" y="-306.8" font-family="Times,serif" font-size="14.00">꞉lexeme</text>
<polyline fill="none" stroke="black" points="817,-299 923,-299 "/>
<text text-anchor="middle" x="870" y="-283.8" font-family="Times,serif" font-size="14.00">undirected_edge</text>
</g>
<!-- edge_name&#45;&gt;undirected_edge -->
<g id="edge41" class="edge"><title>edge_name&#45;&gt;undirected_edge</title>
<path fill="none" stroke="grey" d="M802.742,-358.754C812.844,-349.93 825.412,-338.951 836.94,-328.88"/>
<polygon fill="grey" stroke="grey" points="839.483,-331.306 844.712,-322.091 834.878,-326.034 839.483,-331.306"/>
</g>
<!-- edge_name attribute_definition&#45;&gt;edge_name -->
<g id="edge33" class="edge"><title>edge_name attribute_definition&#45;&gt;edge_name</title>
<path fill="none" stroke="grey" d="M748.371,-430.697C753.718,-422.559 760.204,-412.689 766.111,-403.701"/>
<polygon fill="grey" stroke="grey" points="769.193,-405.384 771.76,-395.104 763.343,-401.539 769.193,-405.384"/>
</g>
<!-- edge_name attribute_definition&#45;&gt;attribute_definition -->
<g id="edge34" class="edge"><title>edge_name attribute_definition&#45;&gt;attribute_definition</title>
<path fill="none" stroke="grey" d="M661.075,-430.966C610.534,-419.626 544.609,-404.835 495.274,-393.767"/>
<polygon fill="grey" stroke="grey" points="495.848,-390.308 485.324,-391.534 494.315,-397.139 495.848,-390.308"/>
</g>
<!-- edge_statement (&#39;,&#39;) edge_statement&#45;&gt;edge_statement -->
<g id="edge36" class="edge"><title>edge_statement (&#39;,&#39;) edge_statement&#45;&gt;edge_statement</title>
<path fill="none" stroke="grey" d="M954,-467.104C954,-474.791 954,-484.054 954,-492.665"/>
<polygon fill="grey" stroke="grey" points="950.5,-492.697 954,-502.697 957.5,-492.697 950.5,-492.697"/>
</g>
<!-- edge_statement (&#39;,&#39;) edge_statement&#45;&gt;(&#39;,&#39;) -->
<g id="edge37" class="edge"><title>edge_statement (&#39;,&#39;) edge_statement&#45;&gt;(&#39;,&#39;)</title>
<path fill="none" stroke="grey" d="M878.805,-430.966C816.56,-416.865 730.753,-397.426 682.281,-386.446"/>
<polygon fill="grey" stroke="grey" points="682.765,-382.967 672.239,-384.171 681.218,-389.794 682.765,-382.967"/>
</g>
<!-- edge_statement (&#39;,&#39;) edge_statement&#45;&gt;edge_statement -->
<g id="edge38" class="edge"><title>edge_statement (&#39;,&#39;) edge_statement&#45;&gt;edge_statement</title>
<path fill="none" stroke="grey" d="M965.79,-467.104C967.401,-474.791 967.874,-484.054 967.208,-492.665"/>
<polygon fill="grey" stroke="grey" points="963.724,-492.314 965.831,-502.697 970.659,-493.265 963.724,-492.314"/>
</g>
<!-- directed_edge_0 -->
<g id="node29" class="node"><title>directed_edge_0</title>
<path fill="lightblue" stroke="black" d="M567,-192C567,-192 689,-192 689,-192 695,-192 701,-198 701,-204 701,-204 701,-226 701,-226 701,-232 695,-238 689,-238 689,-238 567,-238 567,-238 561,-238 555,-232 555,-226 555,-226 555,-204 555,-204 555,-198 561,-192 567,-192"/>
<text text-anchor="middle" x="628" y="-222.8" font-family="Times,serif" font-size="14.00">event =&gt; directed_edge</text>
<polyline fill="none" stroke="black" points="555,-215 701,-215 "/>
<text text-anchor="middle" x="628" y="-199.8" font-family="Times,serif" font-size="14.00">pause =&gt; before</text>
</g>
<!-- directed_edge&#45;&gt;directed_edge_0 -->
<g id="edge40" class="edge"><title>directed_edge&#45;&gt;directed_edge_0</title>
<path fill="none" stroke="grey" d="M714.068,-275.81C700.032,-266.056 683.386,-254.489 668.492,-244.139"/>
<polygon fill="grey" stroke="grey" points="670.167,-241.041 659.958,-238.208 666.173,-246.789 670.167,-241.041"/>
</g>
<!-- &#39;&#45;\&gt;&#39; -->
<g id="node32" class="node"><title>&#39;&#45;\&gt;&#39;</title>
<polygon fill="white" stroke="black" points="773,-233 719,-233 719,-197 773,-197 773,-233"/>
<text text-anchor="middle" x="746" y="-211.3" font-family="Times,serif" font-size="14.00">&#39;&#45;&gt;&#39;</text>
</g>
<!-- directed_edge&#45;&gt;&#39;&#45;\&gt;&#39; -->
<g id="edge43" class="edge"><title>directed_edge&#45;&gt;&#39;&#45;\&gt;&#39;</title>
<path fill="none" stroke="grey" d="M746,-275.593C746,-265.668 746,-253.9 746,-243.453"/>
<polygon fill="grey" stroke="grey" points="749.5,-243.177 746,-233.177 742.5,-243.177 749.5,-243.177"/>
</g>
<!-- undirected_edge_0 -->
<g id="node31" class="node"><title>undirected_edge_0</title>
<path fill="lightblue" stroke="black" d="M802.5,-192C802.5,-192 937.5,-192 937.5,-192 943.5,-192 949.5,-198 949.5,-204 949.5,-204 949.5,-226 949.5,-226 949.5,-232 943.5,-238 937.5,-238 937.5,-238 802.5,-238 802.5,-238 796.5,-238 790.5,-232 790.5,-226 790.5,-226 790.5,-204 790.5,-204 790.5,-198 796.5,-192 802.5,-192"/>
<text text-anchor="middle" x="870" y="-222.8" font-family="Times,serif" font-size="14.00">event =&gt; undirected_edge</text>
<polyline fill="none" stroke="black" points="790.5,-215 949.5,-215 "/>
<text text-anchor="middle" x="870" y="-199.8" font-family="Times,serif" font-size="14.00">pause =&gt; before</text>
</g>
<!-- undirected_edge&#45;&gt;undirected_edge_0 -->
<g id="edge42" class="edge"><title>undirected_edge&#45;&gt;undirected_edge_0</title>
<path fill="none" stroke="grey" d="M870,-275.593C870,-267.118 870,-257.297 870,-248.104"/>
<polygon fill="grey" stroke="grey" points="873.5,-248.096 870,-238.096 866.5,-248.096 873.5,-248.096"/>
</g>
<!-- &#39;&#45;&#45;&#39; -->
<g id="node33" class="node"><title>&#39;&#45;&#45;&#39;</title>
<polygon fill="white" stroke="black" points="1021,-233 967,-233 967,-197 1021,-197 1021,-233"/>
<text text-anchor="middle" x="994" y="-211.3" font-family="Times,serif" font-size="14.00">&#39;&#45;&#45;&#39;</text>
</g>
<!-- undirected_edge&#45;&gt;&#39;&#45;&#45;&#39; -->
<g id="edge44" class="edge"><title>undirected_edge&#45;&gt;&#39;&#45;&#45;&#39;</title>
<path fill="none" stroke="grey" d="M903.556,-275.81C920.902,-264.339 942.041,-250.36 959.519,-238.802"/>
<polygon fill="grey" stroke="grey" points="961.875,-241.44 968.286,-233.004 958.014,-235.601 961.875,-241.44"/>
</g>
<!-- start_attributes end_attributes -->
<g id="node35" class="node"><title>start_attributes end_attributes</title>
<polygon fill="white" stroke="black" points="513.25,-233 336.75,-233 336.75,-197 513.25,-197 513.25,-233"/>
<text text-anchor="middle" x="425" y="-211.3" font-family="Times,serif" font-size="14.00">start_attributes end_attributes</text>
</g>
<!-- attribute_statement&#45;&gt;start_attributes end_attributes -->
<g id="edge46" class="edge"><title>attribute_statement&#45;&gt;start_attributes end_attributes</title>
<path fill="none" stroke="grey" d="M425,-280.61C425,-269.774 425,-255.601 425,-243.291"/>
<polygon fill="grey" stroke="grey" points="428.5,-243.084 425,-233.084 421.5,-243.084 428.5,-243.084"/>
</g>
<!-- start_attributes -->
<g id="node36" class="node"><title>start_attributes</title>
<path fill="orchid" stroke="black" d="M348.5,-108C348.5,-108 421.5,-108 421.5,-108 427.5,-108 433.5,-114 433.5,-120 433.5,-120 433.5,-142 433.5,-142 433.5,-148 427.5,-154 421.5,-154 421.5,-154 348.5,-154 348.5,-154 342.5,-154 336.5,-148 336.5,-142 336.5,-142 336.5,-120 336.5,-120 336.5,-114 342.5,-108 348.5,-108"/>
<text text-anchor="middle" x="385" y="-138.8" font-family="Times,serif" font-size="14.00">꞉lexeme</text>
<polyline fill="none" stroke="black" points="336.5,-131 433.5,-131 "/>
<text text-anchor="middle" x="385" y="-115.8" font-family="Times,serif" font-size="14.00">start_attributes</text>
</g>
<!-- start_attributes end_attributes&#45;&gt;start_attributes -->
<g id="edge47" class="edge"><title>start_attributes end_attributes&#45;&gt;start_attributes</title>
<path fill="none" stroke="grey" d="M416.517,-196.61C411.787,-186.914 405.754,-174.545 400.234,-163.23"/>
<polygon fill="grey" stroke="grey" points="403.289,-161.509 395.759,-154.055 396.997,-164.578 403.289,-161.509"/>
</g>
<!-- end_attributes -->
<g id="node38" class="node"><title>end_attributes</title>
<polygon fill="white" stroke="black" points="544.25,-149 451.75,-149 451.75,-113 544.25,-113 544.25,-149"/>
<text text-anchor="middle" x="498" y="-127.3" font-family="Times,serif" font-size="14.00">end_attributes</text>
</g>
<!-- start_attributes end_attributes&#45;&gt;end_attributes -->
<g id="edge49" class="edge"><title>start_attributes end_attributes&#45;&gt;end_attributes</title>
<path fill="none" stroke="grey" d="M440.481,-196.61C450.81,-185.008 464.544,-169.58 476.002,-156.71"/>
<polygon fill="grey" stroke="grey" points="478.756,-158.88 482.791,-149.084 473.528,-154.226 478.756,-158.88"/>
</g>
<!-- start_attributes_0 -->
<g id="node37" class="node"><title>start_attributes_0</title>
<path fill="lightblue" stroke="black" d="M223,-24C223,-24 349,-24 349,-24 355,-24 361,-30 361,-36 361,-36 361,-58 361,-58 361,-64 355,-70 349,-70 349,-70 223,-70 223,-70 217,-70 211,-64 211,-58 211,-58 211,-36 211,-36 211,-30 217,-24 223,-24"/>
<text text-anchor="middle" x="286" y="-54.8" font-family="Times,serif" font-size="14.00">event =&gt; start_attributes</text>
<polyline fill="none" stroke="black" points="211,-47 361,-47 "/>
<text text-anchor="middle" x="286" y="-31.8" font-family="Times,serif" font-size="14.00">pause =&gt; before</text>
</g>
<!-- start_attributes&#45;&gt;start_attributes_0 -->
<g id="edge48" class="edge"><title>start_attributes&#45;&gt;start_attributes_0</title>
<path fill="none" stroke="grey" d="M358.209,-107.81C346.653,-98.2382 332.99,-86.9207 320.675,-76.7203"/>
<polygon fill="grey" stroke="grey" points="322.746,-73.8915 312.812,-70.2081 318.281,-79.2825 322.746,-73.8915"/>
</g>
<!-- &#39;{&#39; -->
<g id="node39" class="node"><title>&#39;{&#39;</title>
<polygon fill="white" stroke="black" points="433,-65 379,-65 379,-29 433,-29 433,-65"/>
<text text-anchor="middle" x="406" y="-43.3" font-family="Times,serif" font-size="14.00">&#39;{&#39;</text>
</g>
<!-- start_attributes&#45;&gt;&#39;{&#39; -->
<g id="edge50" class="edge"><title>start_attributes&#45;&gt;&#39;{&#39;</title>
<path fill="none" stroke="grey" d="M390.738,-107.593C393.307,-97.564 396.358,-85.6516 399.054,-75.1233"/>
<polygon fill="grey" stroke="grey" points="402.511,-75.7331 401.601,-65.1774 395.729,-73.9964 402.511,-75.7331"/>
</g>
<!-- &#39;}&#39; -->
<g id="node40" class="node"><title>&#39;}&#39;</title>
<polygon fill="white" stroke="black" points="525,-65 471,-65 471,-29 525,-29 525,-65"/>
<text text-anchor="middle" x="498" y="-43.3" font-family="Times,serif" font-size="14.00">&#39;}&#39;</text>
</g>
<!-- end_attributes&#45;&gt;&#39;}&#39; -->
<g id="edge51" class="edge"><title>end_attributes&#45;&gt;&#39;}&#39;</title>
<path fill="none" stroke="grey" d="M498,-112.61C498,-101.774 498,-87.6012 498,-75.2913"/>
<polygon fill="grey" stroke="grey" points="501.5,-75.0838 498,-65.0838 494.5,-75.0839 501.5,-75.0838"/>
</g>
<!-- Legend_1 -->
<g id="node42" class="node"><title>Legend_1</title>
<path fill="lightgreen" stroke="black" d="M555.5,-24C555.5,-24 634.5,-24 634.5,-24 640.5,-24 646.5,-30 646.5,-36 646.5,-36 646.5,-58 646.5,-58 646.5,-64 640.5,-70 634.5,-70 634.5,-70 555.5,-70 555.5,-70 549.5,-70 543.5,-64 543.5,-58 543.5,-58 543.5,-36 543.5,-36 543.5,-30 549.5,-24 555.5,-24"/>
<text text-anchor="middle" x="595" y="-54.8" font-family="Times,serif" font-size="14.00">The green node</text>
<polyline fill="none" stroke="black" points="543.5,-47 646.5,-47 "/>
<text text-anchor="middle" x="595" y="-31.8" font-family="Times,serif" font-size="14.00">is the start node</text>
</g>
<!-- Legend_2 -->
<g id="node43" class="node"><title>Legend_2</title>
<path fill="lightblue" stroke="black" d="M677,-24C677,-24 803,-24 803,-24 809,-24 815,-30 815,-36 815,-36 815,-58 815,-58 815,-64 809,-70 803,-70 803,-70 677,-70 677,-70 671,-70 665,-64 665,-58 665,-58 665,-36 665,-36 665,-30 671,-24 677,-24"/>
<text text-anchor="middle" x="740" y="-54.8" font-family="Times,serif" font-size="14.00">Lightblue nodes</text>
<polyline fill="none" stroke="black" points="665,-47 815,-47 "/>
<text text-anchor="middle" x="740" y="-31.8" font-family="Times,serif" font-size="14.00">are for lexeme attributes</text>
</g>
<!-- Legend_3 -->
<g id="node44" class="node"><title>Legend_3</title>
<path fill="orchid" stroke="black" d="M845.5,-24C845.5,-24 922.5,-24 922.5,-24 928.5,-24 934.5,-30 934.5,-36 934.5,-36 934.5,-58 934.5,-58 934.5,-64 928.5,-70 922.5,-70 922.5,-70 845.5,-70 845.5,-70 839.5,-70 833.5,-64 833.5,-58 833.5,-58 833.5,-36 833.5,-36 833.5,-30 839.5,-24 845.5,-24"/>
<text text-anchor="middle" x="884" y="-54.8" font-family="Times,serif" font-size="14.00">Orchid nodes</text>
<polyline fill="none" stroke="black" points="833.5,-47 934.5,-47 "/>
<text text-anchor="middle" x="884" y="-31.8" font-family="Times,serif" font-size="14.00">are for lexemes</text>
</g>
<!-- Legend_4 -->
<g id="node45" class="node"><title>Legend_4</title>
<path fill="goldenrod" stroke="black" d="M964.5,-24C964.5,-24 1035.5,-24 1035.5,-24 1041.5,-24 1047.5,-30 1047.5,-36 1047.5,-36 1047.5,-58 1047.5,-58 1047.5,-64 1041.5,-70 1035.5,-70 1035.5,-70 964.5,-70 964.5,-70 958.5,-70 952.5,-64 952.5,-58 952.5,-58 952.5,-36 952.5,-36 952.5,-30 958.5,-24 964.5,-24"/>
<text text-anchor="middle" x="1000" y="-54.8" font-family="Times,serif" font-size="14.00">Golden nodes</text>
<polyline fill="none" stroke="black" points="952.5,-47 1047.5,-47 "/>
<text text-anchor="middle" x="1000" y="-31.8" font-family="Times,serif" font-size="14.00">are for actions</text>
</g>
<!-- Legend_5 -->
<g id="node46" class="node"><title>Legend_5</title>
<path fill="#ff3030" stroke="black" d="M1077.5,-24C1077.5,-24 1144.5,-24 1144.5,-24 1150.5,-24 1156.5,-30 1156.5,-36 1156.5,-36 1156.5,-58 1156.5,-58 1156.5,-64 1150.5,-70 1144.5,-70 1144.5,-70 1077.5,-70 1077.5,-70 1071.5,-70 1065.5,-64 1065.5,-58 1065.5,-58 1065.5,-36 1065.5,-36 1065.5,-30 1071.5,-24 1077.5,-24"/>
<text text-anchor="middle" x="1111" y="-54.8" font-family="Times,serif" font-size="14.00">Red nodes</text>
<polyline fill="none" stroke="black" points="1065.5,-47 1156.5,-47 "/>
<text text-anchor="middle" x="1111" y="-31.8" font-family="Times,serif" font-size="14.00">are for events</text>
</g>
</g>
</svg>
