<?xml version="1.0" encoding="UTF-8" standalone="no"?>
<!DOCTYPE svg PUBLIC "-//W3C//DTD SVG 1.1//EN"
 "http://www.w3.org/Graphics/SVG/1.1/DTD/svg11.dtd">
<!-- Generated by graphviz version 2.38.0 (20140413.2041)
 -->
<!-- Title: Perl Pages: 1 -->
<svg width="695pt" height="313pt"
 viewBox="0.00 0.00 695.00 313.00" xmlns="http://www.w3.org/2000/svg" xmlns:xlink="http://www.w3.org/1999/xlink">
<g id="graph0" class="graph" transform="scale(1 1) rotate(0) translate(4 309)">
<title>Perl</title>
<polygon fill="white" stroke="none" points="-4,4 -4,-309 691,-309 691,4 -4,4"/>
<text text-anchor="middle" x="343.5" y="-7.8" font-family="Times,serif" font-size="14.00">stringparser.bnf</text>
<!-- ꞉default -->
<g id="node1" class="node"><title>꞉default</title>
<polygon fill="lightblue" stroke="black" points="59,-227.5 0,-227.5 0,-191.5 59,-191.5 59,-227.5"/>
<text text-anchor="middle" x="29.5" y="-205.8" font-family="Times,serif" font-size="14.00">꞉default</text>
</g>
<!-- BNF -->
<g id="node2" class="node"><title>BNF</title>
<polygon fill="lightgrey" stroke="black" points="213.5,-305 159.5,-305 159.5,-269 213.5,-269 213.5,-305"/>
<text text-anchor="middle" x="186.5" y="-283.3" font-family="Times,serif" font-size="14.00">BNF</text>
</g>
<!-- BNF&#45;&gt;꞉default -->
<g id="edge1" class="edge"><title>BNF&#45;&gt;꞉default</title>
<path fill="none" stroke="grey" d="M159.422,-274.762C135.266,-264.52 99.0921,-248.644 68.5,-233 68.0824,-232.786 67.663,-232.571 67.242,-232.353"/>
<polygon fill="grey" stroke="grey" points="68.7505,-229.19 58.2849,-227.54 65.4376,-235.356 68.7505,-229.19"/>
</g>
<!-- lexeme default -->
<g id="node3" class="node"><title>lexeme default</title>
<polygon fill="lightblue" stroke="black" points="175.5,-227.5 77.5,-227.5 77.5,-191.5 175.5,-191.5 175.5,-227.5"/>
<text text-anchor="middle" x="126.5" y="-205.8" font-family="Times,serif" font-size="14.00">lexeme default</text>
</g>
<!-- BNF&#45;&gt;lexeme default -->
<g id="edge2" class="edge"><title>BNF&#45;&gt;lexeme default</title>
<path fill="none" stroke="grey" d="M172.885,-268.868C165.06,-259.022 155.09,-246.476 146.4,-235.541"/>
<polygon fill="grey" stroke="grey" points="149.023,-233.216 140.061,-227.564 143.543,-237.571 149.023,-233.216"/>
</g>
<!-- graph_grammar -->
<g id="node5" class="node"><title>graph_grammar</title>
<path fill="lightgreen" stroke="black" d="M205.5,-186.5C205.5,-186.5 287.5,-186.5 287.5,-186.5 293.5,-186.5 299.5,-192.5 299.5,-198.5 299.5,-198.5 299.5,-220.5 299.5,-220.5 299.5,-226.5 293.5,-232.5 287.5,-232.5 287.5,-232.5 205.5,-232.5 205.5,-232.5 199.5,-232.5 193.5,-226.5 193.5,-220.5 193.5,-220.5 193.5,-198.5 193.5,-198.5 193.5,-192.5 199.5,-186.5 205.5,-186.5"/>
<text text-anchor="middle" x="246.5" y="-217.3" font-family="Times,serif" font-size="14.00">:start</text>
<polyline fill="none" stroke="black" points="193.5,-209.5 299.5,-209.5 "/>
<text text-anchor="middle" x="246.5" y="-194.3" font-family="Times,serif" font-size="14.00">graph_grammar</text>
</g>
<!-- BNF&#45;&gt;graph_grammar -->
<g id="edge4" class="edge"><title>BNF&#45;&gt;graph_grammar</title>
<path fill="none" stroke="grey" d="M200.115,-268.868C206.76,-260.506 214.952,-250.198 222.593,-240.583"/>
<polygon fill="grey" stroke="grey" points="225.355,-242.733 228.836,-232.727 219.875,-238.378 225.355,-242.733"/>
</g>
<!-- ꞉discard -->
<g id="node6" class="node"><title>꞉discard</title>
<polygon fill="lightblue" stroke="black" points="377.5,-227.5 317.5,-227.5 317.5,-191.5 377.5,-191.5 377.5,-227.5"/>
<text text-anchor="middle" x="347.5" y="-205.8" font-family="Times,serif" font-size="14.00">꞉discard</text>
</g>
<!-- BNF&#45;&gt;꞉discard -->
<g id="edge5" class="edge"><title>BNF&#45;&gt;꞉discard</title>
<path fill="none" stroke="grey" d="M213.557,-275.279C238.551,-265.134 276.532,-249.101 308.5,-233 308.919,-232.789 309.34,-232.576 309.762,-232.36"/>
<polygon fill="grey" stroke="grey" points="311.554,-235.371 318.736,-227.581 308.264,-229.192 311.554,-235.371"/>
</g>
<!-- lexeme default_1 -->
<g id="node4" class="node"><title>lexeme default_1</title>
<path fill="lightblue" stroke="black" d="M103,-68.5C103,-68.5 150,-68.5 150,-68.5 156,-68.5 162,-74.5 162,-80.5 162,-80.5 162,-92.5 162,-92.5 162,-98.5 156,-104.5 150,-104.5 150,-104.5 103,-104.5 103,-104.5 97,-104.5 91,-98.5 91,-92.5 91,-92.5 91,-80.5 91,-80.5 91,-74.5 97,-68.5 103,-68.5"/>
<text text-anchor="middle" x="126.5" y="-82.8" font-family="Times,serif" font-size="14.00">latm =&gt; 1</text>
</g>
<!-- lexeme default&#45;&gt;lexeme default_1 -->
<g id="edge3" class="edge"><title>lexeme default&#45;&gt;lexeme default_1</title>
<path fill="none" stroke="grey" d="M126.5,-191.42C126.5,-171.535 126.5,-138.423 126.5,-114.923"/>
<polygon fill="grey" stroke="grey" points="130,-114.885 126.5,-104.885 123,-114.885 130,-114.885"/>
</g>
<!-- lexeme -->
<g id="node7" class="node"><title>lexeme</title>
<polygon fill="lightblue" stroke="black" points="375.5,-104.5 319.5,-104.5 319.5,-68.5 375.5,-68.5 375.5,-104.5"/>
<text text-anchor="middle" x="347.5" y="-82.8" font-family="Times,serif" font-size="14.00">lexeme</text>
</g>
<!-- ꞉discard&#45;&gt;lexeme -->
<g id="edge6" class="edge"><title>꞉discard&#45;&gt;lexeme</title>
<path fill="none" stroke="grey" d="M347.5,-191.42C347.5,-171.535 347.5,-138.423 347.5,-114.923"/>
<polygon fill="grey" stroke="grey" points="351,-114.885 347.5,-104.885 344,-114.885 351,-114.885"/>
</g>
<!-- Legend -->
<g id="node8" class="node"><title>Legend</title>
<polygon fill="lightgrey" stroke="none" points="687,-150 394,-150 394,-23 687,-23 687,-150"/>
<polygon fill="white" stroke="none" points="402,-27 402,-146 679,-146 679,-27 402,-27"/>
<polygon fill="lightgreen" stroke="none" points="405.5,-121.5 405.5,-142.5 676.5,-142.5 676.5,-121.5 405.5,-121.5"/>
<polygon fill="none" stroke="black" points="405.5,-121.5 405.5,-142.5 676.5,-142.5 676.5,-121.5 405.5,-121.5"/>
<text text-anchor="start" x="452" y="-128.3" font-family="Times,serif" font-size="14.00">The green node is the start node</text>
<polygon fill="lightblue" stroke="none" points="405.5,-98.5 405.5,-119.5 676.5,-119.5 676.5,-98.5 405.5,-98.5"/>
<polygon fill="none" stroke="black" points="405.5,-98.5 405.5,-119.5 676.5,-119.5 676.5,-98.5 405.5,-98.5"/>
<text text-anchor="start" x="408.5" y="-105.3" font-family="Times,serif" font-size="14.00">Lightblue nodes are for reserved rule names, etc</text>
<polygon fill="orchid" stroke="none" points="405.5,-75.5 405.5,-96.5 676.5,-96.5 676.5,-75.5 405.5,-75.5"/>
<polygon fill="none" stroke="black" points="405.5,-75.5 405.5,-96.5 676.5,-96.5 676.5,-75.5 405.5,-75.5"/>
<text text-anchor="start" x="459.5" y="-82.3" font-family="Times,serif" font-size="14.00">Orchid nodes are for lexemes</text>
<polygon fill="goldenrod" stroke="none" points="405.5,-52.5 405.5,-73.5 676.5,-73.5 676.5,-52.5 405.5,-52.5"/>
<polygon fill="none" stroke="black" points="405.5,-52.5 405.5,-73.5 676.5,-73.5 676.5,-52.5 405.5,-52.5"/>
<text text-anchor="start" x="461" y="-59.3" font-family="Times,serif" font-size="14.00">Golden nodes are for actions</text>
<polygon fill="#ff3030" stroke="none" points="405.5,-29.5 405.5,-50.5 676.5,-50.5 676.5,-29.5 405.5,-29.5"/>
<polygon fill="none" stroke="black" points="405.5,-29.5 405.5,-50.5 676.5,-50.5 676.5,-29.5 405.5,-29.5"/>
<text text-anchor="start" x="473" y="-36.3" font-family="Times,serif" font-size="14.00">Red nodes are for events</text>
<polygon fill="none" stroke="black" points="402,-27 402,-146 679,-146 679,-27 402,-27"/>
</g>
</g>
</svg>
