<?xml version="1.0" encoding="UTF-8" standalone="no"?>
<!DOCTYPE svg PUBLIC "-//W3C//DTD SVG 1.1//EN"
 "http://www.w3.org/Graphics/SVG/1.1/DTD/svg11.dtd">
<!-- Generated by graphviz version 2.38.0 (20140413.2041)
 -->
<!-- Title: Perl Pages: 1 -->
<svg width="3656pt" height="349pt"
 viewBox="0.00 0.00 3655.50 349.00" xmlns="http://www.w3.org/2000/svg" xmlns:xlink="http://www.w3.org/1999/xlink">
<g id="graph0" class="graph" transform="scale(1 1) rotate(0) translate(4 345)">
<title>Perl</title>
<polygon fill="white" stroke="none" points="-4,4 -4,-345 3651.5,-345 3651.5,4 -4,4"/>
<text text-anchor="middle" x="1823.75" y="-7.8" font-family="Times,serif" font-size="14.00">stringparser.bnf</text>
<!-- ꞉default -->
<g id="node1" class="node"><title>꞉default</title>
<polygon fill="pink" stroke="black" points="109.5,-268.5 50.5,-268.5 50.5,-232.5 109.5,-232.5 109.5,-268.5"/>
<text text-anchor="middle" x="80" y="-246.8" font-family="Times,serif" font-size="14.00">꞉default</text>
</g>
<!-- ꞉default_1 -->
<g id="node3" class="node"><title>꞉default_1</title>
<path fill="pink" stroke="black" d="M12,-91.5C12,-91.5 104,-91.5 104,-91.5 110,-91.5 116,-97.5 116,-103.5 116,-103.5 116,-115.5 116,-115.5 116,-121.5 110,-127.5 104,-127.5 104,-127.5 12,-127.5 12,-127.5 6,-127.5 0,-121.5 0,-115.5 0,-115.5 0,-103.5 0,-103.5 0,-97.5 6,-91.5 12,-91.5"/>
<text text-anchor="middle" x="58" y="-105.8" font-family="Times,serif" font-size="14.00">action =&gt; [values]</text>
</g>
<!-- ꞉default&#45;&gt;꞉default_1 -->
<g id="edge2" class="edge"><title>꞉default&#45;&gt;꞉default_1</title>
<path fill="none" stroke="grey" d="M77.3024,-232.456C73.5583,-208.8 66.7462,-165.76 62.2976,-137.653"/>
<polygon fill="grey" stroke="grey" points="65.74,-137.013 60.7197,-127.684 58.8261,-138.108 65.74,-137.013"/>
</g>
<!-- BNF -->
<g id="node2" class="node"><title>BNF</title>
<polygon fill="lightgrey" stroke="black" points="427,-341 373,-341 373,-305 427,-305 427,-341"/>
<text text-anchor="middle" x="400" y="-319.3" font-family="Times,serif" font-size="14.00">BNF</text>
</g>
<!-- BNF&#45;&gt;꞉default -->
<g id="edge1" class="edge"><title>BNF&#45;&gt;꞉default</title>
<path fill="none" stroke="grey" d="M372.886,-317.237C325.42,-308.729 224.297,-289.847 140,-269 133.348,-267.355 126.326,-265.456 119.522,-263.529"/>
<polygon fill="grey" stroke="grey" points="120.356,-260.127 109.777,-260.713 118.412,-266.852 120.356,-260.127"/>
</g>
<!-- discard default -->
<g id="node4" class="node"><title>discard default</title>
<polygon fill="orchid" stroke="black" points="247,-268.5 149,-268.5 149,-232.5 247,-232.5 247,-268.5"/>
<text text-anchor="middle" x="198" y="-246.8" font-family="Times,serif" font-size="14.00">discard default</text>
</g>
<!-- BNF&#45;&gt;discard default -->
<g id="edge3" class="edge"><title>BNF&#45;&gt;discard default</title>
<path fill="none" stroke="grey" d="M372.757,-312.492C343.074,-302.132 294.701,-285.249 256.365,-271.87"/>
<polygon fill="grey" stroke="grey" points="257.447,-268.541 246.852,-268.55 255.14,-275.15 257.447,-268.541"/>
</g>
<!-- ꞉discard -->
<g id="node6" class="node"><title>꞉discard</title>
<polygon fill="magenta" stroke="black" points="333,-268.5 273,-268.5 273,-232.5 333,-232.5 333,-268.5"/>
<text text-anchor="middle" x="303" y="-246.8" font-family="Times,serif" font-size="14.00">꞉discard</text>
</g>
<!-- BNF&#45;&gt;꞉discard -->
<g id="edge5" class="edge"><title>BNF&#45;&gt;꞉discard</title>
<path fill="none" stroke="grey" d="M376.519,-304.934C363.982,-295.822 348.374,-284.478 334.768,-274.589"/>
<polygon fill="grey" stroke="grey" points="336.748,-271.701 326.601,-268.653 332.632,-277.364 336.748,-271.701"/>
</g>
<!-- lexeme default -->
<g id="node8" class="node"><title>lexeme default</title>
<polygon fill="goldenrod" stroke="black" points="449,-268.5 351,-268.5 351,-232.5 449,-232.5 449,-268.5"/>
<text text-anchor="middle" x="400" y="-246.8" font-family="Times,serif" font-size="14.00">lexeme default</text>
</g>
<!-- BNF&#45;&gt;lexeme default -->
<g id="edge7" class="edge"><title>BNF&#45;&gt;lexeme default</title>
<path fill="none" stroke="grey" d="M400,-304.934C400,-297.17 400,-287.784 400,-279.06"/>
<polygon fill="grey" stroke="grey" points="403.5,-278.899 400,-268.899 396.5,-278.899 403.5,-278.899"/>
</g>
<!-- start -->
<g id="node10" class="node"><title>start</title>
<path fill="lightgreen" stroke="black" d="M483,-232.5C483,-232.5 513,-232.5 513,-232.5 519,-232.5 525,-238.5 525,-244.5 525,-244.5 525,-256.5 525,-256.5 525,-262.5 519,-268.5 513,-268.5 513,-268.5 483,-268.5 483,-268.5 477,-268.5 471,-262.5 471,-256.5 471,-256.5 471,-244.5 471,-244.5 471,-238.5 477,-232.5 483,-232.5"/>
<text text-anchor="middle" x="498" y="-246.8" font-family="Times,serif" font-size="14.00">꞉start</text>
</g>
<!-- BNF&#45;&gt;start -->
<g id="edge9" class="edge"><title>BNF&#45;&gt;start</title>
<path fill="none" stroke="grey" d="M423.723,-304.934C436.389,-295.822 452.158,-284.478 465.904,-274.589"/>
<polygon fill="grey" stroke="grey" points="468.082,-277.334 474.156,-268.653 463.994,-271.652 468.082,-277.334"/>
</g>
<!-- Rule -->
<g id="node12" class="node"><title>Rule</title>
<polygon fill="LightCoral" stroke="black" points="1771,-268.5 1717,-268.5 1717,-232.5 1771,-232.5 1771,-268.5"/>
<text text-anchor="middle" x="1744" y="-246.8" font-family="Times,serif" font-size="14.00">Rule</text>
</g>
<!-- BNF&#45;&gt;Rule -->
<g id="edge11" class="edge"><title>BNF&#45;&gt;Rule</title>
<path fill="none" stroke="grey" d="M427.151,-320.576C596.787,-311.677 1510.19,-263.765 1706.73,-253.455"/>
<polygon fill="grey" stroke="grey" points="1707.04,-256.944 1716.84,-252.925 1706.67,-249.953 1707.04,-256.944"/>
</g>
<!-- ꞉lexeme -->
<g id="node25" class="node"><title>꞉lexeme</title>
<polygon fill="lightblue" stroke="black" points="1849,-268.5 1789,-268.5 1789,-232.5 1849,-232.5 1849,-268.5"/>
<text text-anchor="middle" x="1819" y="-246.8" font-family="Times,serif" font-size="14.00">꞉lexeme</text>
</g>
<!-- BNF&#45;&gt;꞉lexeme -->
<g id="edge24" class="edge"><title>BNF&#45;&gt;꞉lexeme</title>
<path fill="none" stroke="grey" d="M427.24,-321.579C605.344,-318.744 1601.72,-301.626 1778.71,-268.507"/>
<polygon fill="grey" stroke="grey" points="1779.66,-271.883 1788.73,-266.406 1778.23,-265.032 1779.66,-271.883"/>
</g>
<!-- discard default_1 -->
<g id="node5" class="node"><title>discard default_1</title>
<path fill="orchid" stroke="black" d="M146,-91.5C146,-91.5 234,-91.5 234,-91.5 240,-91.5 246,-97.5 246,-103.5 246,-103.5 246,-115.5 246,-115.5 246,-121.5 240,-127.5 234,-127.5 234,-127.5 146,-127.5 146,-127.5 140,-127.5 134,-121.5 134,-115.5 134,-115.5 134,-103.5 134,-103.5 134,-97.5 140,-91.5 146,-91.5"/>
<text text-anchor="middle" x="190" y="-105.8" font-family="Times,serif" font-size="14.00">event =&gt; :symbol</text>
</g>
<!-- discard default&#45;&gt;discard default_1 -->
<g id="edge4" class="edge"><title>discard default&#45;&gt;discard default_1</title>
<path fill="none" stroke="grey" d="M197.019,-232.456C195.664,-208.904 193.202,-166.139 191.584,-138.026"/>
<polygon fill="grey" stroke="grey" points="195.058,-137.466 190.989,-127.684 188.069,-137.868 195.058,-137.466"/>
</g>
<!-- whitespace -->
<g id="node7" class="node"><title>whitespace</title>
<polygon fill="magenta" stroke="black" points="341.5,-127.5 264.5,-127.5 264.5,-91.5 341.5,-91.5 341.5,-127.5"/>
<text text-anchor="middle" x="303" y="-105.8" font-family="Times,serif" font-size="14.00">whitespace</text>
</g>
<!-- ꞉discard&#45;&gt;whitespace -->
<g id="edge6" class="edge"><title>꞉discard&#45;&gt;whitespace</title>
<path fill="none" stroke="grey" d="M303,-232.456C303,-208.904 303,-166.139 303,-138.026"/>
<polygon fill="grey" stroke="grey" points="306.5,-137.684 303,-127.684 299.5,-137.684 306.5,-137.684"/>
</g>
<!-- lexeme default_1 -->
<g id="node9" class="node"><title>lexeme default_1</title>
<path fill="goldenrod" stroke="black" d="M371.5,-91.5C371.5,-91.5 418.5,-91.5 418.5,-91.5 424.5,-91.5 430.5,-97.5 430.5,-103.5 430.5,-103.5 430.5,-115.5 430.5,-115.5 430.5,-121.5 424.5,-127.5 418.5,-127.5 418.5,-127.5 371.5,-127.5 371.5,-127.5 365.5,-127.5 359.5,-121.5 359.5,-115.5 359.5,-115.5 359.5,-103.5 359.5,-103.5 359.5,-97.5 365.5,-91.5 371.5,-91.5"/>
<text text-anchor="middle" x="395" y="-105.8" font-family="Times,serif" font-size="14.00">latm =&gt; 1</text>
</g>
<!-- lexeme default&#45;&gt;lexeme default_1 -->
<g id="edge8" class="edge"><title>lexeme default&#45;&gt;lexeme default_1</title>
<path fill="none" stroke="grey" d="M399.387,-232.456C398.54,-208.904 397.001,-166.139 395.99,-138.026"/>
<polygon fill="grey" stroke="grey" points="399.475,-137.551 395.618,-127.684 392.48,-137.803 399.475,-137.551"/>
</g>
<!-- graph_grammar -->
<g id="node11" class="node"><title>graph_grammar</title>
<path fill="lightgreen" stroke="black" d="M461,-91.5C461,-91.5 543,-91.5 543,-91.5 549,-91.5 555,-97.5 555,-103.5 555,-103.5 555,-115.5 555,-115.5 555,-121.5 549,-127.5 543,-127.5 543,-127.5 461,-127.5 461,-127.5 455,-127.5 449,-121.5 449,-115.5 449,-115.5 449,-103.5 449,-103.5 449,-97.5 455,-91.5 461,-91.5"/>
<text text-anchor="middle" x="502" y="-105.8" font-family="Times,serif" font-size="14.00">graph_grammar</text>
</g>
<!-- start&#45;&gt;graph_grammar -->
<g id="edge10" class="edge"><title>start&#45;&gt;graph_grammar</title>
<path fill="none" stroke="grey" d="M498.49,-232.456C499.168,-208.904 500.399,-166.139 501.208,-138.026"/>
<polygon fill="grey" stroke="grey" points="504.716,-137.78 501.506,-127.684 497.719,-137.579 504.716,-137.78"/>
</g>
<!-- graph_grammar =&gt; graph_definition -->
<g id="node13" class="node"><title>graph_grammar =&gt; graph_definition</title>
<polygon fill="#ff3030" stroke="black" points="793.5,-127.5 572.5,-127.5 572.5,-91.5 793.5,-91.5 793.5,-127.5"/>
<text text-anchor="middle" x="683" y="-105.8" font-family="Times,serif" font-size="14.00">graph_grammar =&gt; graph_definition</text>
</g>
<!-- Rule&#45;&gt;graph_grammar =&gt; graph_definition -->
<g id="edge12" class="edge"><title>Rule&#45;&gt;graph_grammar =&gt; graph_definition</title>
<path fill="none" stroke="grey" d="M1716.81,-248.853C1571.64,-245.281 891.188,-226.99 803,-196 766.084,-183.027 730.44,-155.032 707.729,-134.597"/>
<polygon fill="grey" stroke="grey" points="709.983,-131.916 700.254,-127.722 705.245,-137.068 709.983,-131.916"/>
</g>
<!-- graph_definition =&gt; node_definition -->
<g id="node14" class="node"><title>graph_definition =&gt; node_definition</title>
<polygon fill="#ff3030" stroke="black" points="1032,-127.5 812,-127.5 812,-91.5 1032,-91.5 1032,-127.5"/>
<text text-anchor="middle" x="922" y="-105.8" font-family="Times,serif" font-size="14.00">graph_definition =&gt; node_definition</text>
</g>
<!-- Rule&#45;&gt;graph_definition =&gt; node_definition -->
<g id="edge13" class="edge"><title>Rule&#45;&gt;graph_definition =&gt; node_definition</title>
<path fill="none" stroke="grey" d="M1716.85,-249.381C1603.57,-248.59 1168.65,-242.523 1041,-196 1004.44,-182.675 969.083,-154.748 946.546,-134.426"/>
<polygon fill="grey" stroke="grey" points="948.854,-131.794 939.128,-127.592 944.111,-136.942 948.854,-131.794"/>
</g>
<!-- node_definition =&gt; node_statement -->
<g id="node15" class="node"><title>node_definition =&gt; node_statement</title>
<polygon fill="#ff3030" stroke="black" points="1266,-127.5 1050,-127.5 1050,-91.5 1266,-91.5 1266,-127.5"/>
<text text-anchor="middle" x="1158" y="-105.8" font-family="Times,serif" font-size="14.00">node_definition =&gt; node_statement</text>
</g>
<!-- Rule&#45;&gt;node_definition =&gt; node_statement -->
<g id="edge14" class="edge"><title>Rule&#45;&gt;node_definition =&gt; node_statement</title>
<path fill="none" stroke="grey" d="M1716.87,-248.228C1629.53,-243.852 1356.68,-227.9 1275,-196 1239.52,-182.143 1205.08,-154.77 1182.86,-134.715"/>
<polygon fill="grey" stroke="grey" points="1184.98,-131.902 1175.25,-127.697 1180.23,-137.049 1184.98,-131.902"/>
</g>
<!-- node_statement =&gt; node_name_token -->
<g id="node16" class="node"><title>node_statement =&gt; node_name_token</title>
<polygon fill="#ff3030" stroke="black" points="1514,-127.5 1284,-127.5 1284,-91.5 1514,-91.5 1514,-127.5"/>
<text text-anchor="middle" x="1399" y="-105.8" font-family="Times,serif" font-size="14.00">node_statement =&gt; node_name_token</text>
</g>
<!-- Rule&#45;&gt;node_statement =&gt; node_name_token -->
<g id="edge15" class="edge"><title>Rule&#45;&gt;node_statement =&gt; node_name_token</title>
<path fill="none" stroke="grey" d="M1716.78,-246.174C1674,-240.24 1589.13,-225.576 1523,-196 1487.13,-179.955 1450.64,-153.284 1426.62,-133.992"/>
<polygon fill="grey" stroke="grey" points="1428.63,-131.112 1418.67,-127.505 1424.21,-136.537 1428.63,-131.112"/>
</g>
<!-- node_name_token =&gt; start_node -->
<g id="node17" class="node"><title>node_name_token =&gt; start_node</title>
<polygon fill="#ff3030" stroke="black" points="1732,-127.5 1532,-127.5 1532,-91.5 1732,-91.5 1732,-127.5"/>
<text text-anchor="middle" x="1632" y="-105.8" font-family="Times,serif" font-size="14.00">node_name_token =&gt; start_node</text>
</g>
<!-- Rule&#45;&gt;node_name_token =&gt; start_node -->
<g id="edge16" class="edge"><title>Rule&#45;&gt;node_name_token =&gt; start_node</title>
<path fill="none" stroke="grey" d="M1730.27,-232.456C1710.79,-208.279 1674.99,-163.855 1652.4,-135.818"/>
<polygon fill="grey" stroke="grey" points="1654.85,-133.274 1645.85,-127.684 1649.39,-137.666 1654.85,-133.274"/>
</g>
<!-- edge_definition =&gt; edge_statement -->
<g id="node18" class="node"><title>edge_definition =&gt; edge_statement</title>
<polygon fill="#ff3030" stroke="black" points="1962,-127.5 1750,-127.5 1750,-91.5 1962,-91.5 1962,-127.5"/>
<text text-anchor="middle" x="1856" y="-105.8" font-family="Times,serif" font-size="14.00">edge_definition =&gt; edge_statement</text>
</g>
<!-- Rule&#45;&gt;edge_definition =&gt; edge_statement -->
<g id="edge17" class="edge"><title>Rule&#45;&gt;edge_definition =&gt; edge_statement</title>
<path fill="none" stroke="grey" d="M1757.73,-232.456C1777.21,-208.279 1813.01,-163.855 1835.6,-135.818"/>
<polygon fill="grey" stroke="grey" points="1838.61,-137.666 1842.15,-127.684 1833.15,-133.274 1838.61,-137.666"/>
</g>
<!-- edge_statement =&gt; edge_name -->
<g id="node19" class="node"><title>edge_statement =&gt; edge_name</title>
<polygon fill="#ff3030" stroke="black" points="2168,-127.5 1980,-127.5 1980,-91.5 2168,-91.5 2168,-127.5"/>
<text text-anchor="middle" x="2074" y="-105.8" font-family="Times,serif" font-size="14.00">edge_statement =&gt; edge_name</text>
</g>
<!-- Rule&#45;&gt;edge_statement =&gt; edge_name -->
<g id="edge18" class="edge"><title>Rule&#45;&gt;edge_statement =&gt; edge_name</title>
<path fill="none" stroke="grey" d="M1771.2,-235.348C1774.13,-234.107 1777.1,-232.96 1780,-232 1862.02,-204.877 1892.83,-232.76 1971,-196 2002.38,-181.245 2032.17,-154.648 2051.56,-135.024"/>
<polygon fill="grey" stroke="grey" points="2054.28,-137.245 2058.71,-127.622 2049.25,-132.38 2054.28,-137.245"/>
</g>
<!-- edge_name =&gt; directed_edge -->
<g id="node20" class="node"><title>edge_name =&gt; directed_edge</title>
<polygon fill="#ff3030" stroke="black" points="2363.5,-127.5 2186.5,-127.5 2186.5,-91.5 2363.5,-91.5 2363.5,-127.5"/>
<text text-anchor="middle" x="2275" y="-105.8" font-family="Times,serif" font-size="14.00">edge_name =&gt; directed_edge</text>
</g>
<!-- Rule&#45;&gt;edge_name =&gt; directed_edge -->
<g id="edge19" class="edge"><title>Rule&#45;&gt;edge_name =&gt; directed_edge</title>
<path fill="none" stroke="grey" d="M1771.11,-235.06C1774.06,-233.875 1777.05,-232.82 1780,-232 1950.68,-184.495 2014.09,-265.63 2177,-196 2208.16,-182.682 2236.47,-155.595 2254.55,-135.459"/>
<polygon fill="grey" stroke="grey" points="2257.25,-137.689 2261.2,-127.857 2251.98,-133.082 2257.25,-137.689"/>
</g>
<!-- attribute_definition =&gt; attribute_statement -->
<g id="node21" class="node"><title>attribute_definition =&gt; attribute_statement</title>
<polygon fill="#ff3030" stroke="black" points="2640,-127.5 2382,-127.5 2382,-91.5 2640,-91.5 2640,-127.5"/>
<text text-anchor="middle" x="2511" y="-105.8" font-family="Times,serif" font-size="14.00">attribute_definition =&gt; attribute_statement</text>
</g>
<!-- Rule&#45;&gt;attribute_definition =&gt; attribute_statement -->
<g id="edge20" class="edge"><title>Rule&#45;&gt;attribute_definition =&gt; attribute_statement</title>
<path fill="none" stroke="grey" d="M1771.09,-234.969C1774.04,-233.802 1777.04,-232.776 1780,-232 2035.4,-165 2121.36,-275.959 2373,-196 2414.45,-182.831 2456.06,-154.475 2482.59,-134.024"/>
<polygon fill="grey" stroke="grey" points="2484.95,-136.621 2490.65,-127.691 2480.63,-131.116 2484.95,-136.621"/>
</g>
<!-- attribute_statement =&gt; start_attributes -->
<g id="node22" class="node"><title>attribute_statement =&gt; start_attributes</title>
<polygon fill="#ff3030" stroke="black" points="2892,-127.5 2658,-127.5 2658,-91.5 2892,-91.5 2892,-127.5"/>
<text text-anchor="middle" x="2775" y="-105.8" font-family="Times,serif" font-size="14.00">attribute_statement =&gt; start_attributes</text>
</g>
<!-- Rule&#45;&gt;attribute_statement =&gt; start_attributes -->
<g id="edge21" class="edge"><title>Rule&#45;&gt;attribute_statement =&gt; start_attributes</title>
<path fill="none" stroke="grey" d="M1771.08,-234.911C1774.03,-233.755 1777.04,-232.747 1780,-232 1967.41,-184.756 2465.46,-256.578 2649,-196 2687.57,-183.27 2725.22,-155.026 2749.17,-134.474"/>
<polygon fill="grey" stroke="grey" points="2751.54,-137.056 2756.75,-127.832 2746.92,-131.792 2751.54,-137.056"/>
</g>
<!-- string_token_set =&gt; string_token_pair -->
<g id="node23" class="node"><title>string_token_set =&gt; string_token_pair</title>
<polygon fill="#ff3030" stroke="black" points="3140,-127.5 2910,-127.5 2910,-91.5 3140,-91.5 3140,-127.5"/>
<text text-anchor="middle" x="3025" y="-105.8" font-family="Times,serif" font-size="14.00">string_token_set =&gt; string_token_pair</text>
</g>
<!-- Rule&#45;&gt;string_token_set =&gt; string_token_pair -->
<g id="edge22" class="edge"><title>Rule&#45;&gt;string_token_set =&gt; string_token_pair</title>
<path fill="none" stroke="grey" d="M1771.07,-234.883C1774.02,-233.732 1777.03,-232.734 1780,-232 2021.96,-172.201 2664.25,-273.9 2901,-196 2939.22,-183.425 2976.29,-155.081 2999.78,-134.466"/>
<polygon fill="grey" stroke="grey" points="3002.4,-136.818 3007.51,-127.535 2997.73,-131.608 3002.4,-136.818"/>
</g>
<!-- string_token_pair =&gt; literal_label -->
<g id="node24" class="node"><title>string_token_pair =&gt; literal_label</title>
<polygon fill="#ff3030" stroke="black" points="3360.5,-127.5 3157.5,-127.5 3157.5,-91.5 3360.5,-91.5 3360.5,-127.5"/>
<text text-anchor="middle" x="3259" y="-105.8" font-family="Times,serif" font-size="14.00">string_token_pair =&gt; literal_label</text>
</g>
<!-- Rule&#45;&gt;string_token_pair =&gt; literal_label -->
<g id="edge23" class="edge"><title>Rule&#45;&gt;string_token_pair =&gt; literal_label</title>
<path fill="none" stroke="grey" d="M1771.06,-234.865C1774.02,-233.718 1777.03,-232.725 1780,-232 1927.82,-195.922 3005.73,-247.248 3149,-196 3183.89,-183.521 3216.41,-155.362 3236.91,-134.756"/>
<polygon fill="grey" stroke="grey" points="3239.45,-137.165 3243.89,-127.55 3234.42,-132.292 3239.45,-137.165"/>
</g>
<!-- Legend -->
<g id="node26" class="node"><title>Legend</title>
<polygon fill="lightgrey" stroke="none" points="3647.5,-196 3378.5,-196 3378.5,-23 3647.5,-23 3647.5,-196"/>
<polygon fill="white" stroke="none" points="3386.5,-27 3386.5,-192 3639.5,-192 3639.5,-27 3386.5,-27"/>
<polygon fill="pink" stroke="none" points="3390,-167.5 3390,-188.5 3637,-188.5 3637,-167.5 3390,-167.5"/>
<polygon fill="none" stroke="black" points="3390,-167.5 3390,-188.5 3637,-188.5 3637,-167.5 3390,-167.5"/>
<text text-anchor="start" x="3432.5" y="-174.3" font-family="Times,serif" font-size="14.00">Pink nodes are &#39;:default&#39; rules</text>
<polygon fill="magenta" stroke="none" points="3390,-144.5 3390,-165.5 3637,-165.5 3637,-144.5 3390,-144.5"/>
<polygon fill="none" stroke="black" points="3390,-144.5 3390,-165.5 3637,-165.5 3637,-144.5 3390,-144.5"/>
<text text-anchor="start" x="3420.5" y="-151.3" font-family="Times,serif" font-size="14.00">Magenta nodes are &#39;:discard&#39; rules</text>
<polygon fill="orchid" stroke="none" points="3390,-121.5 3390,-142.5 3637,-142.5 3637,-121.5 3390,-121.5"/>
<polygon fill="none" stroke="black" points="3390,-121.5 3390,-142.5 3637,-142.5 3637,-121.5 3390,-121.5"/>
<text text-anchor="start" x="3393.5" y="-128.3" font-family="Times,serif" font-size="14.00">The orchid node is the &#39;discard default&#39; rule</text>
<polygon fill="#ff3030" stroke="none" points="3390,-98.5 3390,-119.5 3637,-119.5 3637,-98.5 3390,-98.5"/>
<polygon fill="none" stroke="black" points="3390,-98.5 3390,-119.5 3637,-119.5 3637,-98.5 3390,-98.5"/>
<text text-anchor="start" x="3444.5" y="-105.3" font-family="Times,serif" font-size="14.00">Red nodes are the events</text>
<polygon fill="goldenrod" stroke="none" points="3390,-75.5 3390,-96.5 3637,-96.5 3637,-75.5 3390,-75.5"/>
<polygon fill="none" stroke="black" points="3390,-75.5 3390,-96.5 3637,-96.5 3637,-75.5 3390,-75.5"/>
<text text-anchor="start" x="3393" y="-82.3" font-family="Times,serif" font-size="14.00">The golden node is the &#39;lexeme default&#39; rule</text>
<polygon fill="lightblue" stroke="none" points="3390,-52.5 3390,-73.5 3637,-73.5 3637,-52.5 3390,-52.5"/>
<polygon fill="none" stroke="black" points="3390,-52.5 3390,-73.5 3637,-73.5 3637,-52.5 3390,-52.5"/>
<text text-anchor="start" x="3418" y="-59.3" font-family="Times,serif" font-size="14.00">Lightblue nodes are &#39;:lexeme&#39; rules</text>
<polygon fill="lightgreen" stroke="none" points="3390,-29.5 3390,-50.5 3637,-50.5 3637,-29.5 3390,-29.5"/>
<polygon fill="none" stroke="black" points="3390,-29.5 3390,-50.5 3637,-50.5 3637,-29.5 3390,-29.5"/>
<text text-anchor="start" x="3422.5" y="-36.3" font-family="Times,serif" font-size="14.00">The green node is the &#39;:start&#39; rule</text>
<polygon fill="none" stroke="black" points="3386.5,-27 3386.5,-192 3639.5,-192 3639.5,-27 3386.5,-27"/>
</g>
</g>
</svg>
