<?xml version="1.0" encoding="UTF-8" standalone="no"?>
<!DOCTYPE svg PUBLIC "-//W3C//DTD SVG 1.1//EN"
 "http://www.w3.org/Graphics/SVG/1.1/DTD/svg11.dtd">
<!-- Generated by graphviz version 2.30.1 (20130611.0131)
 -->
<!-- Title: Perl Pages: 1 -->
<svg width="1000pt" height="643pt"
 viewBox="0.00 0.00 1000.00 643.00" xmlns="http://www.w3.org/2000/svg" xmlns:xlink="http://www.w3.org/1999/xlink">
<g id="graph0" class="graph" transform="scale(1 1) rotate(0) translate(4 639)">
<title>Perl</title>
<polygon fill="white" stroke="white" points="-4,5 -4,-639 997,-639 997,5 -4,5"/>
<text text-anchor="middle" x="496" y="-7.8" font-family="Times,serif" font-size="14.00">stringparser.bnf</text>
<!-- ꞉default -->
<g id="node1" class="node"><title>꞉default</title>
<polygon fill="white" stroke="black" points="86.5,-563 29.5,-563 29.5,-527 86.5,-527 86.5,-563"/>
<text text-anchor="middle" x="58" y="-541.3" font-family="Times,serif" font-size="14.00">꞉default</text>
</g>
<!-- =\&gt; -->
<g id="node2" class="node"><title>=\&gt;</title>
<polygon fill="white" stroke="black" points="129,-203 75,-203 75,-167 129,-167 129,-203"/>
<text text-anchor="middle" x="102" y="-181.3" font-family="Times,serif" font-size="14.00">=&gt;</text>
</g>
<!-- ꞉default&#45;&gt;=\&gt; -->
<g id="edge1" class="edge"><title>꞉default&#45;&gt;=\&gt;</title>
<path fill="none" stroke="grey" d="M42.2177,-526.564C34.1383,-516.76 24.8067,-503.921 19,-491 2.42046,-454.107 0,-442.447 0,-402 0,-402 0,-402 0,-328 0,-278.821 40.8569,-235.013 70.8543,-209.477"/>
<polygon fill="grey" stroke="grey" points="73.1193,-212.145 78.5991,-203.078 68.6607,-206.749 73.1193,-212.145"/>
</g>
<!-- [values] -->
<g id="node3" class="node"><title>[values]</title>
<polygon fill="white" stroke="black" points="87.5,-491 28.5,-491 28.5,-455 87.5,-455 87.5,-491"/>
<text text-anchor="middle" x="58" y="-469.3" font-family="Times,serif" font-size="14.00">[values]</text>
</g>
<!-- ꞉default&#45;&gt;[values] -->
<g id="edge2" class="edge"><title>꞉default&#45;&gt;[values]</title>
<path fill="none" stroke="grey" d="M58,-526.697C58,-518.983 58,-509.712 58,-501.112"/>
<polygon fill="grey" stroke="grey" points="61.5001,-501.104 58,-491.104 54.5001,-501.104 61.5001,-501.104"/>
</g>
<!-- action -->
<g id="node4" class="node"><title>action</title>
<polygon fill="white" stroke="black" points="160,-491 106,-491 106,-455 160,-455 160,-491"/>
<text text-anchor="middle" x="133" y="-469.3" font-family="Times,serif" font-size="14.00">action</text>
</g>
<!-- ꞉default&#45;&gt;action -->
<g id="edge3" class="edge"><title>꞉default&#45;&gt;action</title>
<path fill="none" stroke="grey" d="M76.5393,-526.697C85.8033,-518.05 97.1623,-507.449 107.257,-498.027"/>
<polygon fill="grey" stroke="grey" points="109.751,-500.486 114.674,-491.104 104.975,-495.369 109.751,-500.486"/>
</g>
<!-- ꞉start -->
<g id="node5" class="node"><title>꞉start</title>
<polygon fill="white" stroke="black" points="243,-635 189,-635 189,-599 243,-599 243,-635"/>
<text text-anchor="middle" x="216" y="-613.3" font-family="Times,serif" font-size="14.00">꞉start</text>
</g>
<!-- graph_grammar -->
<g id="node6" class="node"><title>graph_grammar</title>
<polygon fill="white" stroke="black" points="268,-563 164,-563 164,-527 268,-527 268,-563"/>
<text text-anchor="middle" x="216" y="-541.3" font-family="Times,serif" font-size="14.00">graph_grammar</text>
</g>
<!-- ꞉start&#45;&gt;graph_grammar -->
<g id="edge4" class="edge"><title>꞉start&#45;&gt;graph_grammar</title>
<path fill="none" stroke="grey" d="M216,-598.697C216,-590.983 216,-581.712 216,-573.112"/>
<polygon fill="grey" stroke="grey" points="219.5,-573.104 216,-563.104 212.5,-573.104 219.5,-573.104"/>
</g>
<!-- graph_grammar&#45;&gt;=\&gt; -->
<g id="edge5" class="edge"><title>graph_grammar&#45;&gt;=\&gt;</title>
<path fill="none" stroke="grey" d="M210.334,-526.728C202.152,-500.21 188,-447.732 188,-402 188,-402 188,-402 188,-328 188,-281.307 153.558,-236.843 128.266,-210.487"/>
<polygon fill="grey" stroke="grey" points="130.607,-207.876 121.086,-203.227 125.629,-212.798 130.607,-207.876"/>
</g>
<!-- graph_grammar&#45;&gt;action -->
<g id="edge6" class="edge"><title>graph_grammar&#45;&gt;action</title>
<path fill="none" stroke="grey" d="M195.483,-526.697C185.131,-517.965 172.414,-507.24 161.161,-497.75"/>
<polygon fill="grey" stroke="grey" points="163.182,-494.876 153.281,-491.104 158.669,-500.227 163.182,-494.876"/>
</g>
<!-- graph -->
<g id="node7" class="node"><title>graph</title>
<polygon fill="white" stroke="black" points="270,-491 216,-491 216,-455 270,-455 270,-491"/>
<text text-anchor="middle" x="243" y="-469.3" font-family="Times,serif" font-size="14.00">graph</text>
</g>
<!-- graph_grammar&#45;&gt;graph -->
<g id="edge7" class="edge"><title>graph_grammar&#45;&gt;graph</title>
<path fill="none" stroke="grey" d="M222.674,-526.697C225.715,-518.813 229.383,-509.304 232.761,-500.546"/>
<polygon fill="grey" stroke="grey" points="236.069,-501.694 236.403,-491.104 229.538,-499.175 236.069,-501.694"/>
</g>
<!-- graph_definition -->
<g id="node8" class="node"><title>graph_definition</title>
<polygon fill="white" stroke="black" points="519.25,-491 412.75,-491 412.75,-455 519.25,-455 519.25,-491"/>
<text text-anchor="middle" x="466" y="-469.3" font-family="Times,serif" font-size="14.00">graph_definition</text>
</g>
<!-- graph_grammar&#45;&gt;graph_definition -->
<g id="edge8" class="edge"><title>graph_grammar&#45;&gt;graph_definition</title>
<path fill="none" stroke="grey" d="M268.104,-529.411C307.318,-518.431 361.245,-503.331 402.902,-491.667"/>
<polygon fill="grey" stroke="grey" points="403.985,-494.999 412.671,-488.932 402.097,-488.258 403.985,-494.999"/>
</g>
<!-- node_definition -->
<g id="node9" class="node"><title>node_definition</title>
<polygon fill="white" stroke="black" points="516.5,-419 415.5,-419 415.5,-383 516.5,-383 516.5,-419"/>
<text text-anchor="middle" x="466" y="-397.3" font-family="Times,serif" font-size="14.00">node_definition</text>
</g>
<!-- graph_definition&#45;&gt;node_definition -->
<g id="edge9" class="edge"><title>graph_definition&#45;&gt;node_definition</title>
<path fill="none" stroke="grey" d="M460.084,-454.697C459.289,-446.983 459.062,-437.712 459.405,-429.112"/>
<polygon fill="grey" stroke="grey" points="462.898,-429.324 460.105,-419.104 455.915,-428.836 462.898,-429.324"/>
</g>
<!-- edge_definition -->
<g id="node10" class="node"><title>edge_definition</title>
<polygon fill="white" stroke="black" points="654.25,-419 553.75,-419 553.75,-383 654.25,-383 654.25,-419"/>
<text text-anchor="middle" x="604" y="-397.3" font-family="Times,serif" font-size="14.00">edge_definition</text>
</g>
<!-- graph_definition&#45;&gt;edge_definition -->
<g id="edge10" class="edge"><title>graph_definition&#45;&gt;edge_definition</title>
<path fill="none" stroke="grey" d="M493.862,-454.876C511.488,-445.434 534.649,-433.62 555.22,-423.555"/>
<polygon fill="grey" stroke="grey" points="556.993,-426.585 564.46,-419.068 553.935,-420.288 556.993,-426.585"/>
</g>
<!-- node_statement -->
<g id="node11" class="node"><title>node_statement</title>
<polygon fill="white" stroke="black" points="516.5,-347 415.5,-347 415.5,-311 516.5,-311 516.5,-347"/>
<text text-anchor="middle" x="466" y="-325.3" font-family="Times,serif" font-size="14.00">node_statement</text>
</g>
<!-- node_definition&#45;&gt;node_statement -->
<g id="edge11" class="edge"><title>node_definition&#45;&gt;node_statement</title>
<path fill="none" stroke="grey" d="M460.084,-382.697C459.289,-374.983 459.062,-365.712 459.405,-357.112"/>
<polygon fill="grey" stroke="grey" points="462.898,-357.324 460.105,-347.104 455.915,-356.836 462.898,-357.324"/>
</g>
<!-- node_definition&#45;&gt;graph_definition -->
<g id="edge12" class="edge"><title>node_definition&#45;&gt;graph_definition</title>
<path fill="none" stroke="grey" d="M471.895,-419.104C472.701,-426.791 472.937,-436.054 472.604,-444.665"/>
<polygon fill="grey" stroke="grey" points="469.109,-444.48 471.916,-454.697 476.092,-444.96 469.109,-444.48"/>
</g>
<!-- node_definition&#45;&gt;node_statement -->
<g id="edge13" class="edge"><title>node_definition&#45;&gt;node_statement</title>
<path fill="none" stroke="grey" d="M471.916,-382.697C472.711,-374.983 472.938,-365.712 472.595,-357.112"/>
<polygon fill="grey" stroke="grey" points="476.085,-356.836 471.895,-347.104 469.102,-357.324 476.085,-356.836"/>
</g>
<!-- edge_statement -->
<g id="node23" class="node"><title>edge_statement</title>
<polygon fill="white" stroke="black" points="672.25,-347 571.75,-347 571.75,-311 672.25,-311 672.25,-347"/>
<text text-anchor="middle" x="622" y="-325.3" font-family="Times,serif" font-size="14.00">edge_statement</text>
</g>
<!-- edge_definition&#45;&gt;edge_statement -->
<g id="edge32" class="edge"><title>edge_definition&#45;&gt;edge_statement</title>
<path fill="none" stroke="grey" d="M602.534,-382.697C603.735,-374.898 605.926,-365.509 608.517,-356.829"/>
<polygon fill="grey" stroke="grey" points="611.916,-357.697 611.707,-347.104 605.265,-355.516 611.916,-357.697"/>
</g>
<!-- edge_definition&#45;&gt;edge_statement -->
<g id="edge33" class="edge"><title>edge_definition&#45;&gt;edge_statement</title>
<path fill="none" stroke="grey" d="M614.365,-382.697C617.144,-374.983 619.755,-365.712 621.624,-357.112"/>
<polygon fill="grey" stroke="grey" points="625.097,-357.578 623.497,-347.104 618.217,-356.29 625.097,-357.578"/>
</g>
<!-- edge_definition&#45;&gt;graph_definition -->
<g id="edge34" class="edge"><title>edge_definition&#45;&gt;graph_definition</title>
<path fill="none" stroke="grey" d="M576.016,-419.19C558.43,-428.607 535.368,-440.371 514.866,-450.403"/>
<polygon fill="grey" stroke="grey" points="513.122,-447.359 505.656,-454.876 516.18,-453.656 513.122,-447.359"/>
</g>
<!-- node_name -->
<g id="node12" class="node"><title>node_name</title>
<polygon fill="white" stroke="black" points="437,-275 357,-275 357,-239 437,-239 437,-275"/>
<text text-anchor="middle" x="397" y="-253.3" font-family="Times,serif" font-size="14.00">node_name</text>
</g>
<!-- node_statement&#45;&gt;node_name -->
<g id="edge14" class="edge"><title>node_statement&#45;&gt;node_name</title>
<path fill="none" stroke="grey" d="M448.944,-310.697C440.505,-302.135 430.175,-291.656 420.957,-282.304"/>
<polygon fill="grey" stroke="grey" points="423.373,-279.769 413.86,-275.104 418.387,-284.683 423.373,-279.769"/>
</g>
<!-- attribute_definition -->
<g id="node13" class="node"><title>attribute_definition</title>
<polygon fill="white" stroke="black" points="576.25,-275 455.75,-275 455.75,-239 576.25,-239 576.25,-275"/>
<text text-anchor="middle" x="516" y="-253.3" font-family="Times,serif" font-size="14.00">attribute_definition</text>
</g>
<!-- node_statement&#45;&gt;attribute_definition -->
<g id="edge15" class="edge"><title>node_statement&#45;&gt;attribute_definition</title>
<path fill="none" stroke="grey" d="M478.36,-310.697C484.233,-302.474 491.369,-292.483 497.842,-283.421"/>
<polygon fill="grey" stroke="grey" points="500.818,-285.276 503.783,-275.104 495.122,-281.207 500.818,-285.276"/>
</g>
<!-- node_statement&#45;&gt;node_name -->
<g id="edge16" class="edge"><title>node_statement&#45;&gt;node_name</title>
<path fill="none" stroke="grey" d="M448.944,-310.697C440.505,-302.135 430.175,-291.656 420.957,-282.304"/>
<polygon fill="grey" stroke="grey" points="423.373,-279.769 413.86,-275.104 418.387,-284.683 423.373,-279.769"/>
</g>
<!-- (&#39;,&#39;) -->
<g id="node14" class="node"><title>(&#39;,&#39;)</title>
<polygon fill="white" stroke="black" points="649,-275 595,-275 595,-239 649,-239 649,-275"/>
<text text-anchor="middle" x="622" y="-253.3" font-family="Times,serif" font-size="14.00">(&#39;,&#39;)</text>
</g>
<!-- node_statement&#45;&gt;(&#39;,&#39;) -->
<g id="edge17" class="edge"><title>node_statement&#45;&gt;(&#39;,&#39;)</title>
<path fill="none" stroke="grey" d="M504.638,-310.928C527.944,-300.597 558.213,-287.119 585,-275 585.201,-274.909 585.403,-274.818 585.606,-274.726"/>
<polygon fill="grey" stroke="grey" points="587.287,-277.806 594.939,-270.478 584.387,-271.435 587.287,-277.806"/>
</g>
<!-- node_statement&#45;&gt;node_statement -->
<g id="edge18" class="edge"><title>node_statement&#45;&gt;node_statement</title>
<path fill="none" stroke="grey" d="M516.711,-335.471C526.803,-334.743 534,-332.586 534,-329 534,-326.759 531.189,-325.076 526.616,-323.951"/>
<polygon fill="grey" stroke="grey" points="527.107,-320.485 516.711,-322.529 526.112,-327.414 527.107,-320.485"/>
</g>
<!-- node_statement&#45;&gt;node_statement -->
<g id="edge19" class="edge"><title>node_statement&#45;&gt;node_statement</title>
<path fill="none" stroke="grey" d="M516.78,-342.46C536.056,-342.979 552,-338.492 552,-329 552,-321.288 541.475,-316.88 527.188,-315.776"/>
<polygon fill="grey" stroke="grey" points="526.857,-312.268 516.78,-315.54 526.698,-319.266 526.857,-312.268"/>
</g>
<!-- end_node -->
<g id="node15" class="node"><title>end_node</title>
<polygon fill="white" stroke="black" points="523.25,-203 454.75,-203 454.75,-167 523.25,-167 523.25,-203"/>
<text text-anchor="middle" x="489" y="-181.3" font-family="Times,serif" font-size="14.00">end_node</text>
</g>
<!-- node_name&#45;&gt;end_node -->
<g id="edge20" class="edge"><title>node_name&#45;&gt;end_node</title>
<path fill="none" stroke="grey" d="M419.742,-238.697C431.44,-229.796 445.861,-218.823 458.51,-209.199"/>
<polygon fill="grey" stroke="grey" points="460.681,-211.945 466.52,-203.104 456.442,-206.374 460.681,-211.945"/>
</g>
<!-- start_node -->
<g id="node16" class="node"><title>start_node</title>
<polygon fill="white" stroke="black" points="436.25,-203 363.75,-203 363.75,-167 436.25,-167 436.25,-203"/>
<text text-anchor="middle" x="400" y="-181.3" font-family="Times,serif" font-size="14.00">start_node</text>
</g>
<!-- node_name&#45;&gt;start_node -->
<g id="edge21" class="edge"><title>node_name&#45;&gt;start_node</title>
<path fill="none" stroke="grey" d="M397.742,-238.697C398.072,-230.983 398.469,-221.712 398.838,-213.112"/>
<polygon fill="grey" stroke="grey" points="402.335,-213.245 399.267,-203.104 395.342,-212.945 402.335,-213.245"/>
</g>
<!-- attribute_statement -->
<g id="node29" class="node"><title>attribute_statement</title>
<polygon fill="white" stroke="black" points="991.25,-203 870.75,-203 870.75,-167 991.25,-167 991.25,-203"/>
<text text-anchor="middle" x="931" y="-181.3" font-family="Times,serif" font-size="14.00">attribute_statement</text>
</g>
<!-- attribute_definition&#45;&gt;attribute_statement -->
<g id="edge59" class="edge"><title>attribute_definition&#45;&gt;attribute_statement</title>
<path fill="none" stroke="grey" d="M576.622,-240.863C579.787,-240.202 582.927,-239.576 586,-239 704.987,-216.684 736.845,-224.403 856,-203 857.478,-202.734 858.972,-202.459 860.476,-202.176"/>
<polygon fill="grey" stroke="grey" points="861.376,-205.566 870.514,-200.203 860.026,-198.698 861.376,-205.566"/>
</g>
<!-- &#39;]&#39; -->
<g id="node22" class="node"><title>&#39;]&#39;</title>
<polygon fill="white" stroke="black" points="516,-131 462,-131 462,-95 516,-95 516,-131"/>
<text text-anchor="middle" x="489" y="-109.3" font-family="Times,serif" font-size="14.00">&#39;]&#39;</text>
</g>
<!-- end_node&#45;&gt;&#39;]&#39; -->
<g id="edge31" class="edge"><title>end_node&#45;&gt;&#39;]&#39;</title>
<path fill="none" stroke="grey" d="M489,-166.697C489,-158.983 489,-149.712 489,-141.112"/>
<polygon fill="grey" stroke="grey" points="492.5,-141.104 489,-131.104 485.5,-141.104 492.5,-141.104"/>
</g>
<!-- &#39;[&#39; -->
<g id="node21" class="node"><title>&#39;[&#39;</title>
<polygon fill="white" stroke="black" points="427,-131 373,-131 373,-95 427,-95 427,-131"/>
<text text-anchor="middle" x="400" y="-109.3" font-family="Times,serif" font-size="14.00">&#39;[&#39;</text>
</g>
<!-- start_node&#45;&gt;&#39;[&#39; -->
<g id="edge29" class="edge"><title>start_node&#45;&gt;&#39;[&#39;</title>
<path fill="none" stroke="grey" d="M400,-166.697C400,-158.983 400,-149.712 400,-141.112"/>
<polygon fill="grey" stroke="grey" points="403.5,-141.104 400,-131.104 396.5,-141.104 403.5,-141.104"/>
</g>
<!-- ꞉lexeme -->
<g id="node17" class="node"><title>꞉lexeme</title>
<polygon fill="white" stroke="black" points="275.5,-275 216.5,-275 216.5,-239 275.5,-239 275.5,-275"/>
<text text-anchor="middle" x="246" y="-253.3" font-family="Times,serif" font-size="14.00">꞉lexeme</text>
</g>
<!-- ꞉lexeme&#45;&gt;=\&gt; -->
<g id="edge22" class="edge"><title>꞉lexeme&#45;&gt;=\&gt;</title>
<path fill="none" stroke="grey" d="M216.355,-244.125C193.695,-233.898 162.511,-218.902 138.369,-206.704"/>
<polygon fill="grey" stroke="grey" points="139.663,-203.435 129.164,-202.012 136.484,-209.672 139.663,-203.435"/>
</g>
<!-- ꞉lexeme&#45;&gt;=\&gt; -->
<g id="edge23" class="edge"><title>꞉lexeme&#45;&gt;=\&gt;</title>
<path fill="none" stroke="grey" d="M216.671,-238.876C194.066,-227.299 162.833,-212.155 138.604,-201.042"/>
<polygon fill="grey" stroke="grey" points="139.914,-197.793 129.362,-196.848 137.021,-204.167 139.914,-197.793"/>
</g>
<!-- before -->
<g id="node18" class="node"><title>before</title>
<polygon fill="white" stroke="black" points="201,-203 147,-203 147,-167 201,-167 201,-203"/>
<text text-anchor="middle" x="174" y="-181.3" font-family="Times,serif" font-size="14.00">before</text>
</g>
<!-- ꞉lexeme&#45;&gt;before -->
<g id="edge24" class="edge"><title>꞉lexeme&#45;&gt;before</title>
<path fill="none" stroke="grey" d="M228.202,-238.697C219.396,-230.135 208.618,-219.656 198.999,-210.304"/>
<polygon fill="grey" stroke="grey" points="201.203,-207.566 191.593,-203.104 196.323,-212.585 201.203,-207.566"/>
</g>
<!-- event -->
<g id="node19" class="node"><title>event</title>
<polygon fill="white" stroke="black" points="273,-203 219,-203 219,-167 273,-167 273,-203"/>
<text text-anchor="middle" x="246" y="-181.3" font-family="Times,serif" font-size="14.00">event</text>
</g>
<!-- ꞉lexeme&#45;&gt;event -->
<g id="edge25" class="edge"><title>꞉lexeme&#45;&gt;event</title>
<path fill="none" stroke="grey" d="M246,-238.697C246,-230.983 246,-221.712 246,-213.112"/>
<polygon fill="grey" stroke="grey" points="249.5,-213.104 246,-203.104 242.5,-213.104 249.5,-213.104"/>
</g>
<!-- pause -->
<g id="node20" class="node"><title>pause</title>
<polygon fill="white" stroke="black" points="345,-203 291,-203 291,-167 345,-167 345,-203"/>
<text text-anchor="middle" x="318" y="-181.3" font-family="Times,serif" font-size="14.00">pause</text>
</g>
<!-- ꞉lexeme&#45;&gt;pause -->
<g id="edge26" class="edge"><title>꞉lexeme&#45;&gt;pause</title>
<path fill="none" stroke="grey" d="M263.798,-238.697C272.604,-230.135 283.382,-219.656 293.001,-210.304"/>
<polygon fill="grey" stroke="grey" points="295.677,-212.585 300.407,-203.104 290.797,-207.566 295.677,-212.585"/>
</g>
<!-- ꞉lexeme&#45;&gt;start_node -->
<g id="edge27" class="edge"><title>꞉lexeme&#45;&gt;start_node</title>
<path fill="none" stroke="grey" d="M275.55,-239.941C297.876,-229.239 328.787,-215.156 354.267,-204.064"/>
<polygon fill="grey" stroke="grey" points="355.945,-207.152 363.737,-199.973 353.169,-200.726 355.945,-207.152"/>
</g>
<!-- ꞉lexeme&#45;&gt;start_node -->
<g id="edge28" class="edge"><title>꞉lexeme&#45;&gt;start_node</title>
<path fill="none" stroke="grey" d="M275.858,-244.753C299.566,-234.737 332.803,-219.807 358.975,-207.503"/>
<polygon fill="grey" stroke="grey" points="360.727,-210.547 368.267,-203.104 357.731,-204.22 360.727,-210.547"/>
</g>
<!-- ꞉lexeme&#45;&gt;end_node -->
<g id="edge30" class="edge"><title>꞉lexeme&#45;&gt;end_node</title>
<path fill="none" stroke="grey" d="M275.626,-249.173C314.762,-239.914 385.671,-222.299 445,-203 445.097,-202.968 445.195,-202.937 445.292,-202.905"/>
<polygon fill="grey" stroke="grey" points="446.224,-206.286 454.54,-199.72 443.945,-199.667 446.224,-206.286"/>
</g>
<!-- ꞉lexeme&#45;&gt;=\&gt; -->
<g id="edge43" class="edge"><title>꞉lexeme&#45;&gt;=\&gt;</title>
<path fill="none" stroke="grey" d="M216.355,-244.125C193.695,-233.898 162.511,-218.902 138.369,-206.704"/>
<polygon fill="grey" stroke="grey" points="139.663,-203.435 129.164,-202.012 136.484,-209.672 139.663,-203.435"/>
</g>
<!-- ꞉lexeme&#45;&gt;=\&gt; -->
<g id="edge44" class="edge"><title>꞉lexeme&#45;&gt;=\&gt;</title>
<path fill="none" stroke="grey" d="M216.671,-238.876C194.066,-227.299 162.833,-212.155 138.604,-201.042"/>
<polygon fill="grey" stroke="grey" points="139.914,-197.793 129.362,-196.848 137.021,-204.167 139.914,-197.793"/>
</g>
<!-- ꞉lexeme&#45;&gt;before -->
<g id="edge45" class="edge"><title>꞉lexeme&#45;&gt;before</title>
<path fill="none" stroke="grey" d="M228.202,-238.697C219.396,-230.135 208.618,-219.656 198.999,-210.304"/>
<polygon fill="grey" stroke="grey" points="201.203,-207.566 191.593,-203.104 196.323,-212.585 201.203,-207.566"/>
</g>
<!-- directed_edge -->
<g id="node25" class="node"><title>directed_edge</title>
<polygon fill="white" stroke="black" points="634,-203 542,-203 542,-167 634,-167 634,-203"/>
<text text-anchor="middle" x="588" y="-181.3" font-family="Times,serif" font-size="14.00">directed_edge</text>
</g>
<!-- ꞉lexeme&#45;&gt;directed_edge -->
<g id="edge46" class="edge"><title>꞉lexeme&#45;&gt;directed_edge</title>
<path fill="none" stroke="grey" d="M275.692,-250.046C337.142,-238.801 475.654,-214.535 523,-203 525.965,-202.278 529.004,-201.491 532.075,-200.665"/>
<polygon fill="grey" stroke="grey" points="533.239,-203.974 541.935,-197.923 531.363,-197.23 533.239,-203.974"/>
</g>
<!-- ꞉lexeme&#45;&gt;directed_edge -->
<g id="edge47" class="edge"><title>꞉lexeme&#45;&gt;directed_edge</title>
<path fill="none" stroke="grey" d="M275.809,-251.686C336.75,-241.956 473.841,-218.151 531.988,-205.09"/>
<polygon fill="grey" stroke="grey" points="532.946,-208.46 541.891,-202.782 531.357,-201.643 532.946,-208.46"/>
</g>
<!-- ꞉lexeme&#45;&gt;event -->
<g id="edge48" class="edge"><title>꞉lexeme&#45;&gt;event</title>
<path fill="none" stroke="grey" d="M246,-238.697C246,-230.983 246,-221.712 246,-213.112"/>
<polygon fill="grey" stroke="grey" points="249.5,-213.104 246,-203.104 242.5,-213.104 249.5,-213.104"/>
</g>
<!-- ꞉lexeme&#45;&gt;pause -->
<g id="edge49" class="edge"><title>꞉lexeme&#45;&gt;pause</title>
<path fill="none" stroke="grey" d="M263.798,-238.697C272.604,-230.135 283.382,-219.656 293.001,-210.304"/>
<polygon fill="grey" stroke="grey" points="295.677,-212.585 300.407,-203.104 290.797,-207.566 295.677,-212.585"/>
</g>
<!-- ꞉lexeme&#45;&gt;=\&gt; -->
<g id="edge51" class="edge"><title>꞉lexeme&#45;&gt;=\&gt;</title>
<path fill="none" stroke="grey" d="M216.355,-244.125C193.695,-233.898 162.511,-218.902 138.369,-206.704"/>
<polygon fill="grey" stroke="grey" points="139.663,-203.435 129.164,-202.012 136.484,-209.672 139.663,-203.435"/>
</g>
<!-- ꞉lexeme&#45;&gt;=\&gt; -->
<g id="edge52" class="edge"><title>꞉lexeme&#45;&gt;=\&gt;</title>
<path fill="none" stroke="grey" d="M216.671,-238.876C194.066,-227.299 162.833,-212.155 138.604,-201.042"/>
<polygon fill="grey" stroke="grey" points="139.914,-197.793 129.362,-196.848 137.021,-204.167 139.914,-197.793"/>
</g>
<!-- ꞉lexeme&#45;&gt;before -->
<g id="edge53" class="edge"><title>꞉lexeme&#45;&gt;before</title>
<path fill="none" stroke="grey" d="M228.202,-238.697C219.396,-230.135 208.618,-219.656 198.999,-210.304"/>
<polygon fill="grey" stroke="grey" points="201.203,-207.566 191.593,-203.104 196.323,-212.585 201.203,-207.566"/>
</g>
<!-- ꞉lexeme&#45;&gt;event -->
<g id="edge54" class="edge"><title>꞉lexeme&#45;&gt;event</title>
<path fill="none" stroke="grey" d="M246,-238.697C246,-230.983 246,-221.712 246,-213.112"/>
<polygon fill="grey" stroke="grey" points="249.5,-213.104 246,-203.104 242.5,-213.104 249.5,-213.104"/>
</g>
<!-- ꞉lexeme&#45;&gt;pause -->
<g id="edge55" class="edge"><title>꞉lexeme&#45;&gt;pause</title>
<path fill="none" stroke="grey" d="M263.798,-238.697C272.604,-230.135 283.382,-219.656 293.001,-210.304"/>
<polygon fill="grey" stroke="grey" points="295.677,-212.585 300.407,-203.104 290.797,-207.566 295.677,-212.585"/>
</g>
<!-- undirected_edge -->
<g id="node26" class="node"><title>undirected_edge</title>
<polygon fill="white" stroke="black" points="757.5,-203 652.5,-203 652.5,-167 757.5,-167 757.5,-203"/>
<text text-anchor="middle" x="705" y="-181.3" font-family="Times,serif" font-size="14.00">undirected_edge</text>
</g>
<!-- ꞉lexeme&#45;&gt;undirected_edge -->
<g id="edge56" class="edge"><title>꞉lexeme&#45;&gt;undirected_edge</title>
<path fill="none" stroke="grey" d="M275.649,-249.309C293.933,-246.004 317.678,-242.076 339,-239 469.73,-220.138 504.407,-228.532 634,-203 636.772,-202.454 639.602,-201.85 642.46,-201.204"/>
<polygon fill="grey" stroke="grey" points="643.325,-204.596 652.242,-198.874 641.703,-197.786 643.325,-204.596"/>
</g>
<!-- ꞉lexeme&#45;&gt;undirected_edge -->
<g id="edge57" class="edge"><title>꞉lexeme&#45;&gt;undirected_edge</title>
<path fill="none" stroke="grey" d="M275.683,-251.935C298.283,-248.298 329.636,-242.948 357,-239 484.283,-220.636 520.512,-228.108 642.247,-204.89"/>
<polygon fill="grey" stroke="grey" points="643.178,-208.275 652.329,-202.935 641.845,-201.403 643.178,-208.275"/>
</g>
<!-- ꞉lexeme&#45;&gt;=\&gt; -->
<g id="edge62" class="edge"><title>꞉lexeme&#45;&gt;=\&gt;</title>
<path fill="none" stroke="grey" d="M216.355,-244.125C193.695,-233.898 162.511,-218.902 138.369,-206.704"/>
<polygon fill="grey" stroke="grey" points="139.663,-203.435 129.164,-202.012 136.484,-209.672 139.663,-203.435"/>
</g>
<!-- ꞉lexeme&#45;&gt;=\&gt; -->
<g id="edge63" class="edge"><title>꞉lexeme&#45;&gt;=\&gt;</title>
<path fill="none" stroke="grey" d="M216.671,-238.876C194.066,-227.299 162.833,-212.155 138.604,-201.042"/>
<polygon fill="grey" stroke="grey" points="139.914,-197.793 129.362,-196.848 137.021,-204.167 139.914,-197.793"/>
</g>
<!-- ꞉lexeme&#45;&gt;before -->
<g id="edge64" class="edge"><title>꞉lexeme&#45;&gt;before</title>
<path fill="none" stroke="grey" d="M228.202,-238.697C219.396,-230.135 208.618,-219.656 198.999,-210.304"/>
<polygon fill="grey" stroke="grey" points="201.203,-207.566 191.593,-203.104 196.323,-212.585 201.203,-207.566"/>
</g>
<!-- ꞉lexeme&#45;&gt;event -->
<g id="edge65" class="edge"><title>꞉lexeme&#45;&gt;event</title>
<path fill="none" stroke="grey" d="M246,-238.697C246,-230.983 246,-221.712 246,-213.112"/>
<polygon fill="grey" stroke="grey" points="249.5,-213.104 246,-203.104 242.5,-213.104 249.5,-213.104"/>
</g>
<!-- ꞉lexeme&#45;&gt;pause -->
<g id="edge66" class="edge"><title>꞉lexeme&#45;&gt;pause</title>
<path fill="none" stroke="grey" d="M263.798,-238.697C272.604,-230.135 283.382,-219.656 293.001,-210.304"/>
<polygon fill="grey" stroke="grey" points="295.677,-212.585 300.407,-203.104 290.797,-207.566 295.677,-212.585"/>
</g>
<!-- start_attributes -->
<g id="node31" class="node"><title>start_attributes</title>
<polygon fill="white" stroke="black" points="845.25,-131 748.75,-131 748.75,-95 845.25,-95 845.25,-131"/>
<text text-anchor="middle" x="797" y="-109.3" font-family="Times,serif" font-size="14.00">start_attributes</text>
</g>
<!-- ꞉lexeme&#45;&gt;start_attributes -->
<g id="edge67" class="edge"><title>꞉lexeme&#45;&gt;start_attributes</title>
<path fill="none" stroke="grey" d="M275.605,-248.988C293.878,-245.601 317.626,-241.697 339,-239 431.499,-227.327 683.391,-260.219 757,-203 775.811,-188.378 783.252,-161.594 787.828,-141.215"/>
<polygon fill="grey" stroke="grey" points="791.292,-141.757 790.005,-131.241 784.453,-140.264 791.292,-141.757"/>
</g>
<!-- ꞉lexeme&#45;&gt;start_attributes -->
<g id="edge68" class="edge"><title>꞉lexeme&#45;&gt;start_attributes</title>
<path fill="none" stroke="grey" d="M275.652,-251.703C298.231,-247.91 329.571,-242.461 357,-239 449.499,-227.327 701.391,-260.219 775,-203 793.725,-188.445 801.183,-161.839 802.498,-141.496"/>
<polygon fill="grey" stroke="grey" points="806.001,-141.288 802.64,-131.241 799.001,-141.191 806.001,-141.288"/>
</g>
<!-- end_attributes -->
<g id="node30" class="node"><title>end_attributes</title>
<polygon fill="white" stroke="black" points="967.25,-131 874.75,-131 874.75,-95 967.25,-95 967.25,-131"/>
<text text-anchor="middle" x="921" y="-109.3" font-family="Times,serif" font-size="14.00">end_attributes</text>
</g>
<!-- ꞉lexeme&#45;&gt;end_attributes -->
<g id="edge70" class="edge"><title>꞉lexeme&#45;&gt;end_attributes</title>
<path fill="none" stroke="grey" d="M275.805,-250.339C296.093,-246.657 323.588,-241.999 348,-239 448.231,-226.688 706.444,-238.454 801,-203 820.869,-195.55 864.358,-161.268 893.159,-137.495"/>
<polygon fill="grey" stroke="grey" points="895.404,-140.181 900.861,-131.1 890.932,-134.795 895.404,-140.181"/>
</g>
<!-- edge_name -->
<g id="node24" class="node"><title>edge_name</title>
<polygon fill="white" stroke="black" points="746.25,-275 667.75,-275 667.75,-239 746.25,-239 746.25,-275"/>
<text text-anchor="middle" x="707" y="-253.3" font-family="Times,serif" font-size="14.00">edge_name</text>
</g>
<!-- edge_statement&#45;&gt;edge_name -->
<g id="edge35" class="edge"><title>edge_statement&#45;&gt;edge_name</title>
<path fill="none" stroke="grey" d="M643.011,-310.697C653.716,-301.881 666.89,-291.032 678.496,-281.474"/>
<polygon fill="grey" stroke="grey" points="680.736,-284.163 686.23,-275.104 676.286,-278.76 680.736,-284.163"/>
</g>
<!-- edge_statement&#45;&gt;attribute_definition -->
<g id="edge36" class="edge"><title>edge_statement&#45;&gt;attribute_definition</title>
<path fill="none" stroke="grey" d="M596.069,-310.876C582.338,-301.808 565.294,-290.552 550.464,-280.759"/>
<polygon fill="grey" stroke="grey" points="552.304,-277.78 542.03,-275.19 548.446,-283.621 552.304,-277.78"/>
</g>
<!-- edge_statement&#45;&gt;edge_name -->
<g id="edge37" class="edge"><title>edge_statement&#45;&gt;edge_name</title>
<path fill="none" stroke="grey" d="M643.011,-310.697C653.716,-301.881 666.89,-291.032 678.496,-281.474"/>
<polygon fill="grey" stroke="grey" points="680.736,-284.163 686.23,-275.104 676.286,-278.76 680.736,-284.163"/>
</g>
<!-- edge_statement&#45;&gt;(&#39;,&#39;) -->
<g id="edge38" class="edge"><title>edge_statement&#45;&gt;(&#39;,&#39;)</title>
<path fill="none" stroke="grey" d="M622,-310.697C622,-302.983 622,-293.712 622,-285.112"/>
<polygon fill="grey" stroke="grey" points="625.5,-285.104 622,-275.104 618.5,-285.104 625.5,-285.104"/>
</g>
<!-- edge_statement&#45;&gt;edge_statement -->
<g id="edge39" class="edge"><title>edge_statement&#45;&gt;edge_statement</title>
<path fill="none" stroke="grey" d="M672.413,-335.493C682.661,-334.785 690,-332.621 690,-329 690,-326.737 687.133,-325.043 682.481,-323.918"/>
<polygon fill="grey" stroke="grey" points="682.802,-320.429 672.413,-322.507 681.831,-327.361 682.802,-320.429"/>
</g>
<!-- edge_statement&#45;&gt;edge_statement -->
<g id="edge40" class="edge"><title>edge_statement&#45;&gt;edge_statement</title>
<path fill="none" stroke="grey" d="M672.351,-342.447C691.819,-343.045 708,-338.562 708,-329 708,-321.156 697.112,-316.73 682.452,-315.723"/>
<polygon fill="grey" stroke="grey" points="682.409,-312.221 672.351,-315.553 682.291,-319.221 682.409,-312.221"/>
</g>
<!-- edge_name&#45;&gt;directed_edge -->
<g id="edge41" class="edge"><title>edge_name&#45;&gt;directed_edge</title>
<path fill="none" stroke="grey" d="M677.889,-238.876C662.33,-229.724 642.981,-218.342 626.224,-208.485"/>
<polygon fill="grey" stroke="grey" points="627.617,-205.243 617.223,-203.19 624.067,-211.277 627.617,-205.243"/>
</g>
<!-- edge_name&#45;&gt;undirected_edge -->
<g id="edge42" class="edge"><title>edge_name&#45;&gt;undirected_edge</title>
<path fill="none" stroke="grey" d="M706.506,-238.697C706.285,-230.983 706.02,-221.712 705.775,-213.112"/>
<polygon fill="grey" stroke="grey" points="709.273,-213 705.489,-203.104 702.276,-213.2 709.273,-213"/>
</g>
<!-- &#39;&#45;\&gt;&#39; -->
<g id="node27" class="node"><title>&#39;&#45;\&gt;&#39;</title>
<polygon fill="white" stroke="black" points="615,-131 561,-131 561,-95 615,-95 615,-131"/>
<text text-anchor="middle" x="588" y="-109.3" font-family="Times,serif" font-size="14.00">&#39;&#45;&gt;&#39;</text>
</g>
<!-- directed_edge&#45;&gt;&#39;&#45;\&gt;&#39; -->
<g id="edge50" class="edge"><title>directed_edge&#45;&gt;&#39;&#45;\&gt;&#39;</title>
<path fill="none" stroke="grey" d="M588,-166.697C588,-158.983 588,-149.712 588,-141.112"/>
<polygon fill="grey" stroke="grey" points="591.5,-141.104 588,-131.104 584.5,-141.104 591.5,-141.104"/>
</g>
<!-- &#39;&#45;&#45;&#39; -->
<g id="node28" class="node"><title>&#39;&#45;&#45;&#39;</title>
<polygon fill="white" stroke="black" points="730,-131 676,-131 676,-95 730,-95 730,-131"/>
<text text-anchor="middle" x="703" y="-109.3" font-family="Times,serif" font-size="14.00">&#39;&#45;&#45;&#39;</text>
</g>
<!-- undirected_edge&#45;&gt;&#39;&#45;&#45;&#39; -->
<g id="edge58" class="edge"><title>undirected_edge&#45;&gt;&#39;&#45;&#45;&#39;</title>
<path fill="none" stroke="grey" d="M704.506,-166.697C704.285,-158.983 704.02,-149.712 703.775,-141.112"/>
<polygon fill="grey" stroke="grey" points="707.273,-141 703.489,-131.104 700.276,-141.2 707.273,-141"/>
</g>
<!-- attribute_statement&#45;&gt;end_attributes -->
<g id="edge60" class="edge"><title>attribute_statement&#45;&gt;end_attributes</title>
<path fill="none" stroke="grey" d="M928.528,-166.697C927.426,-158.983 926.102,-149.712 924.873,-141.112"/>
<polygon fill="grey" stroke="grey" points="928.323,-140.509 923.443,-131.104 921.393,-141.499 928.323,-140.509"/>
</g>
<!-- attribute_statement&#45;&gt;start_attributes -->
<g id="edge61" class="edge"><title>attribute_statement&#45;&gt;start_attributes</title>
<path fill="none" stroke="grey" d="M898.22,-166.876C880.375,-157.554 858.103,-145.919 838.997,-135.939"/>
<polygon fill="grey" stroke="grey" points="840.39,-132.718 829.906,-131.19 837.149,-138.922 840.39,-132.718"/>
</g>
<!-- &#39;}&#39; -->
<g id="node33" class="node"><title>&#39;}&#39;</title>
<polygon fill="white" stroke="black" points="948,-59 894,-59 894,-23 948,-23 948,-59"/>
<text text-anchor="middle" x="921" y="-37.3" font-family="Times,serif" font-size="14.00">&#39;}&#39;</text>
</g>
<!-- end_attributes&#45;&gt;&#39;}&#39; -->
<g id="edge71" class="edge"><title>end_attributes&#45;&gt;&#39;}&#39;</title>
<path fill="none" stroke="grey" d="M921,-94.6966C921,-86.9827 921,-77.7125 921,-69.1124"/>
<polygon fill="grey" stroke="grey" points="924.5,-69.1043 921,-59.1043 917.5,-69.1044 924.5,-69.1043"/>
</g>
<!-- &#39;{&#39; -->
<g id="node32" class="node"><title>&#39;{&#39;</title>
<polygon fill="white" stroke="black" points="824,-59 770,-59 770,-23 824,-23 824,-59"/>
<text text-anchor="middle" x="797" y="-37.3" font-family="Times,serif" font-size="14.00">&#39;{&#39;</text>
</g>
<!-- start_attributes&#45;&gt;&#39;{&#39; -->
<g id="edge69" class="edge"><title>start_attributes&#45;&gt;&#39;{&#39;</title>
<path fill="none" stroke="grey" d="M797,-94.6966C797,-86.9827 797,-77.7125 797,-69.1124"/>
<polygon fill="grey" stroke="grey" points="800.5,-69.1043 797,-59.1043 793.5,-69.1044 800.5,-69.1043"/>
</g>
<!-- ꞉discard -->
<g id="node34" class="node"><title>꞉discard</title>
<polygon fill="white" stroke="black" points="594.25,-635 535.75,-635 535.75,-599 594.25,-599 594.25,-635"/>
<text text-anchor="middle" x="565" y="-613.3" font-family="Times,serif" font-size="14.00">꞉discard</text>
</g>
<!-- whitespace -->
<g id="node35" class="node"><title>whitespace</title>
<polygon fill="white" stroke="black" points="603.25,-563 526.75,-563 526.75,-527 603.25,-527 603.25,-563"/>
<text text-anchor="middle" x="565" y="-541.3" font-family="Times,serif" font-size="14.00">whitespace</text>
</g>
<!-- ꞉discard&#45;&gt;whitespace -->
<g id="edge72" class="edge"><title>꞉discard&#45;&gt;whitespace</title>
<path fill="none" stroke="grey" d="M565,-598.697C565,-590.983 565,-581.712 565,-573.112"/>
<polygon fill="grey" stroke="grey" points="568.5,-573.104 565,-563.104 561.5,-573.104 568.5,-573.104"/>
</g>
<!-- [\\s] -->
<g id="node36" class="node"><title>[\\s]</title>
<polygon fill="white" stroke="black" points="592,-491 538,-491 538,-455 592,-455 592,-491"/>
<text text-anchor="middle" x="565" y="-469.3" font-family="Times,serif" font-size="14.00">[\s]</text>
</g>
<!-- whitespace&#45;&gt;[\\s] -->
<g id="edge73" class="edge"><title>whitespace&#45;&gt;[\\s]</title>
<path fill="none" stroke="grey" d="M565,-526.697C565,-518.983 565,-509.712 565,-501.112"/>
<polygon fill="grey" stroke="grey" points="568.5,-501.104 565,-491.104 561.5,-501.104 568.5,-501.104"/>
</g>
</g>
</svg>
