<?xml version="1.0" encoding="UTF-8" standalone="no"?>
<!DOCTYPE svg PUBLIC "-//W3C//DTD SVG 1.1//EN"
 "http://www.w3.org/Graphics/SVG/1.1/DTD/svg11.dtd">
<!-- Generated by graphviz version 2.30.1 (20130611.0131)
 -->
<!-- Title: Perl Pages: 1 -->
<svg width="1162pt" height="641pt"
 viewBox="0.00 0.00 1162.00 641.00" xmlns="http://www.w3.org/2000/svg" xmlns:xlink="http://www.w3.org/1999/xlink">
<g id="graph0" class="graph" transform="scale(1 1) rotate(0) translate(4 637)">
<title>Perl</title>
<polygon fill="white" stroke="white" points="-4,5 -4,-637 1159,-637 1159,5 -4,5"/>
<text text-anchor="middle" x="577" y="-7.8" font-family="Times,serif" font-size="14.00">stringparser.bnf</text>
<!-- graph_grammar -->
<g id="node1" class="node"><title>graph_grammar</title>
<polygon fill="lightgreen" stroke="black" points="679,-633 575,-633 575,-597 679,-597 679,-633"/>
<text text-anchor="middle" x="627" y="-611.3" font-family="Times,serif" font-size="14.00">graph_grammar</text>
</g>
<!-- {action = graph} -->
<g id="node2" class="node"><title>{action = graph}</title>
<polygon fill="lightblue" stroke="black" points="340,-508 340,-544 436,-544 436,-508 340,-508"/>
<text text-anchor="middle" x="388" y="-522.3" font-family="Times,serif" font-size="14.00">action = graph</text>
</g>
<!-- graph_grammar&#45;&gt;{action = graph} -->
<g id="edge1" class="edge"><title>graph_grammar&#45;&gt;{action = graph}</title>
<path fill="none" stroke="grey" d="M574.718,-602.309C537.914,-593.215 487.936,-579.104 446,-561 438.39,-557.715 430.539,-553.636 423.166,-549.456"/>
<polygon fill="grey" stroke="grey" points="424.533,-546.201 414.137,-544.16 420.992,-552.239 424.533,-546.201"/>
</g>
<!-- «graph¯definition» -->
<g id="node3" class="node"><title>«graph¯definition»</title>
<polygon fill="none" stroke="black" points="571.25,-544 454.75,-544 454.75,-508 571.25,-508 571.25,-544"/>
<text text-anchor="middle" x="513" y="-522.3" font-family="Times,serif" font-size="14.00">«graph definition»</text>
</g>
<!-- graph_grammar&#45;&gt;«graph¯definition» -->
<g id="edge2" class="edge"><title>graph_grammar&#45;&gt;«graph¯definition»</title>
<path fill="none" stroke="grey" d="M604.477,-596.812C587.068,-583.525 562.785,-564.994 543.613,-550.362"/>
<polygon fill="grey" stroke="grey" points="545.549,-547.437 535.476,-544.153 541.302,-553.002 545.549,-547.437"/>
</g>
<!-- :default -->
<g id="node33" class="node"><title>:default</title>
<polygon fill="lightblue" stroke="black" points="655.5,-544 598.5,-544 598.5,-508 655.5,-508 655.5,-544"/>
<text text-anchor="middle" x="627" y="-522.3" font-family="Times,serif" font-size="14.00">:default</text>
</g>
<!-- graph_grammar&#45;&gt;:default -->
<g id="edge40" class="edge"><title>graph_grammar&#45;&gt;:default</title>
<path fill="none" stroke="grey" d="M627,-596.812C627,-584.657 627,-568.114 627,-554.182"/>
<polygon fill="grey" stroke="grey" points="630.5,-554.153 627,-544.153 623.5,-554.153 630.5,-554.153"/>
</g>
<!-- :discard = :discard -->
<g id="node35" class="node"><title>:discard = :discard</title>
<polygon fill="lightblue" stroke="black" points="792,-544 674,-544 674,-508 792,-508 792,-544"/>
<text text-anchor="middle" x="733" y="-522.3" font-family="Times,serif" font-size="14.00">:discard = :discard</text>
</g>
<!-- graph_grammar&#45;&gt;:discard = :discard -->
<g id="edge42" class="edge"><title>graph_grammar&#45;&gt;:discard = :discard</title>
<path fill="none" stroke="grey" d="M647.942,-596.812C664.057,-583.585 686.506,-565.16 704.295,-550.559"/>
<polygon fill="grey" stroke="grey" points="706.592,-553.202 712.101,-544.153 702.151,-547.792 706.592,-553.202"/>
</g>
<!-- {event subtext = completed «sub¯text»|event &#39;A[]&#39; = nulled «A»|event &#39;^a&#39; = predicted A} -->
<g id="node37" class="node"><title>{event subtext = completed «sub¯text»|event &#39;A[]&#39; = nulled «A»|event &#39;^a&#39; = predicted A}</title>
<polygon fill="lightblue" stroke="black" points="810.5,-491.5 810.5,-560.5 1031.5,-560.5 1031.5,-491.5 810.5,-491.5"/>
<text text-anchor="middle" x="921" y="-545.3" font-family="Times,serif" font-size="14.00">event subtext = completed «sub text»</text>
<polyline fill="none" stroke="black" points="810.5,-537.5 1031.5,-537.5 "/>
<text text-anchor="middle" x="921" y="-522.3" font-family="Times,serif" font-size="14.00">event &#39;A[]&#39; = nulled «A»</text>
<polyline fill="none" stroke="black" points="810.5,-514.5 1031.5,-514.5 "/>
<text text-anchor="middle" x="921" y="-499.3" font-family="Times,serif" font-size="14.00">event &#39;^a&#39; = predicted A</text>
</g>
<!-- graph_grammar&#45;&gt;{event subtext = completed «sub¯text»|event &#39;A[]&#39; = nulled «A»|event &#39;^a&#39; = predicted A} -->
<g id="edge44" class="edge"><title>graph_grammar&#45;&gt;{event subtext = completed «sub¯text»|event &#39;A[]&#39; = nulled «A»|event &#39;^a&#39; = predicted A}</title>
<path fill="none" stroke="grey" d="M679.223,-598.546C712.901,-588.58 758.149,-575.19 800.392,-562.69"/>
<polygon fill="grey" stroke="grey" points="801.606,-565.981 810.201,-559.787 799.619,-559.269 801.606,-565.981"/>
</g>
<!-- node_definition -->
<g id="node4" class="node"><title>node_definition</title>
<polygon fill="none" stroke="black" points="443.5,-449 342.5,-449 342.5,-413 443.5,-413 443.5,-449"/>
<text text-anchor="middle" x="393" y="-427.3" font-family="Times,serif" font-size="14.00">node_definition</text>
</g>
<!-- «graph¯definition»&#45;&gt;node_definition -->
<g id="edge3" class="edge"><title>«graph¯definition»&#45;&gt;node_definition</title>
<path fill="none" stroke="grey" d="M485.626,-507.942C465.098,-493.286 437.431,-472.001 417.601,-455.692"/>
<polygon fill="grey" stroke="grey" points="419.812,-452.979 409.89,-449.264 415.33,-458.356 419.812,-452.979"/>
</g>
<!-- edge_definition -->
<g id="node20" class="node"><title>edge_definition</title>
<polygon fill="none" stroke="black" points="563.25,-449 462.75,-449 462.75,-413 563.25,-413 563.25,-449"/>
<text text-anchor="middle" x="513" y="-427.3" font-family="Times,serif" font-size="14.00">edge_definition</text>
</g>
<!-- «graph¯definition»&#45;&gt;edge_definition -->
<g id="edge22" class="edge"><title>«graph¯definition»&#45;&gt;edge_definition</title>
<path fill="none" stroke="grey" d="M507.636,-507.942C506.141,-494.394 505.855,-475.18 506.78,-459.469"/>
<polygon fill="grey" stroke="grey" points="510.288,-459.516 507.613,-449.264 503.311,-458.946 510.288,-459.516"/>
</g>
<!-- node_statement -->
<g id="node5" class="node"><title>node_statement</title>
<polygon fill="none" stroke="black" points="443.5,-371 342.5,-371 342.5,-335 443.5,-335 443.5,-371"/>
<text text-anchor="middle" x="393" y="-349.3" font-family="Times,serif" font-size="14.00">node_statement</text>
</g>
<!-- node_definition&#45;&gt;node_statement -->
<g id="edge4" class="edge"><title>node_definition&#45;&gt;node_statement</title>
<path fill="none" stroke="grey" d="M387.239,-412.754C386.248,-403.426 386.002,-391.691 386.5,-381.165"/>
<polygon fill="grey" stroke="grey" points="389.991,-381.41 387.246,-371.177 383.011,-380.889 389.991,-381.41"/>
</g>
<!-- node_definition&#45;&gt;node_statement -->
<g id="edge5" class="edge"><title>node_definition&#45;&gt;node_statement</title>
<path fill="none" stroke="grey" d="M398.761,-412.754C399.752,-403.426 399.998,-391.691 399.5,-381.165"/>
<polygon fill="grey" stroke="grey" points="402.989,-380.889 398.754,-371.177 396.009,-381.41 402.989,-380.889"/>
</g>
<!-- node_definition&#45;&gt;«graph¯definition» -->
<g id="edge21" class="edge"><title>node_definition&#45;&gt;«graph¯definition»</title>
<path fill="none" stroke="grey" d="M420.663,-449.264C441.167,-463.917 468.675,-485.086 488.414,-501.32"/>
<polygon fill="grey" stroke="grey" points="486.433,-504.226 496.354,-507.942 490.916,-498.85 486.433,-504.226"/>
</g>
<!-- node_name -->
<g id="node6" class="node"><title>node_name</title>
<polygon fill="none" stroke="black" points="318,-299 238,-299 238,-263 318,-263 318,-299"/>
<text text-anchor="middle" x="278" y="-277.3" font-family="Times,serif" font-size="14.00">node_name</text>
</g>
<!-- node_statement&#45;&gt;node_name -->
<g id="edge6" class="edge"><title>node_statement&#45;&gt;node_name</title>
<path fill="none" stroke="grey" d="M358.971,-334.876C343.125,-325.808 324.476,-314.552 309.021,-304.759"/>
<polygon fill="grey" stroke="grey" points="310.644,-301.642 300.336,-299.19 306.865,-307.534 310.644,-301.642"/>
</g>
<!-- node_statement&#45;&gt;node_name -->
<g id="edge7" class="edge"><title>node_statement&#45;&gt;node_name</title>
<path fill="none" stroke="grey" d="M370.765,-334.876C356.556,-325.639 337.795,-314.131 320.823,-304.212"/>
<polygon fill="grey" stroke="grey" points="322.553,-301.169 312.144,-299.19 319.047,-307.228 322.553,-301.169"/>
</g>
<!-- attribute_definition -->
<g id="node12" class="node"><title>attribute_definition</title>
<polygon fill="none" stroke="black" points="457.25,-299 336.75,-299 336.75,-263 457.25,-263 457.25,-299"/>
<text text-anchor="middle" x="397" y="-277.3" font-family="Times,serif" font-size="14.00">attribute_definition</text>
</g>
<!-- node_statement&#45;&gt;attribute_definition -->
<g id="edge13" class="edge"><title>node_statement&#45;&gt;attribute_definition</title>
<path fill="none" stroke="grey" d="M393.989,-334.697C394.43,-326.983 394.959,-317.712 395.451,-309.112"/>
<polygon fill="grey" stroke="grey" points="398.946,-309.288 396.023,-299.104 391.958,-308.888 398.946,-309.288"/>
</g>
<!-- (&#39;,&#39;) -->
<g id="node19" class="node"><title>(&#39;,&#39;)</title>
<polygon fill="none" stroke="black" points="533,-299 479,-299 479,-263 533,-263 533,-299"/>
<text text-anchor="middle" x="506" y="-277.3" font-family="Times,serif" font-size="14.00">(&#39;,&#39;)</text>
</g>
<!-- node_statement&#45;&gt;(&#39;,&#39;) -->
<g id="edge20" class="edge"><title>node_statement&#45;&gt;(&#39;,&#39;)</title>
<path fill="none" stroke="grey" d="M420.643,-334.876C435.528,-325.655 454.066,-314.172 470.059,-304.265"/>
<polygon fill="grey" stroke="grey" points="471.985,-307.189 478.642,-298.947 468.298,-301.238 471.985,-307.189"/>
</g>
<!-- start_node -->
<g id="node7" class="node"><title>start_node</title>
<polygon fill="none" stroke="black" points="271.25,-227 198.75,-227 198.75,-191 271.25,-191 271.25,-227"/>
<text text-anchor="middle" x="235" y="-205.3" font-family="Times,serif" font-size="14.00">start_node</text>
</g>
<!-- node_name&#45;&gt;start_node -->
<g id="edge8" class="edge"><title>node_name&#45;&gt;start_node</title>
<path fill="none" stroke="grey" d="M267.371,-262.697C262.372,-254.559 256.309,-244.689 250.788,-235.701"/>
<polygon fill="grey" stroke="grey" points="253.723,-233.793 245.507,-227.104 247.759,-237.457 253.723,-233.793"/>
</g>
<!-- end_node -->
<g id="node10" class="node"><title>end_node</title>
<polygon fill="none" stroke="black" points="121.25,-227 52.75,-227 52.75,-191 121.25,-191 121.25,-227"/>
<text text-anchor="middle" x="87" y="-205.3" font-family="Times,serif" font-size="14.00">end_node</text>
</g>
<!-- node_name&#45;&gt;end_node -->
<g id="edge11" class="edge"><title>node_name&#45;&gt;end_node</title>
<path fill="none" stroke="grey" d="M237.96,-265.326C206.733,-253.881 163.399,-238 131.166,-226.186"/>
<polygon fill="grey" stroke="grey" points="132.138,-222.815 121.545,-222.66 129.729,-229.388 132.138,-222.815"/>
</g>
<!-- {event = start_node|pause = before} -->
<g id="node8" class="node"><title>{event = start_node|pause = before}</title>
<polygon fill="lightblue" stroke="black" points="72,-108 72,-154 190,-154 190,-108 72,-108"/>
<text text-anchor="middle" x="131" y="-138.8" font-family="Times,serif" font-size="14.00">event = start_node</text>
<polyline fill="none" stroke="black" points="72,-131 190,-131 "/>
<text text-anchor="middle" x="131" y="-115.8" font-family="Times,serif" font-size="14.00">pause = before</text>
</g>
<!-- start_node&#45;&gt;{event = start_node|pause = before} -->
<g id="edge9" class="edge"><title>start_node&#45;&gt;{event = start_node|pause = before}</title>
<path fill="none" stroke="grey" d="M211.66,-190.944C199.245,-181.871 183.659,-170.482 169.506,-160.139"/>
<polygon fill="grey" stroke="grey" points="171.513,-157.271 161.374,-154.196 167.383,-162.922 171.513,-157.271"/>
</g>
<!-- &#39;[&#39; -->
<g id="node9" class="node"><title>&#39;[&#39;</title>
<polygon fill="none" stroke="black" points="262,-149 208,-149 208,-113 262,-113 262,-149"/>
<text text-anchor="middle" x="235" y="-127.3" font-family="Times,serif" font-size="14.00">&#39;[&#39;</text>
</g>
<!-- start_node&#45;&gt;&#39;[&#39; -->
<g id="edge10" class="edge"><title>start_node&#45;&gt;&#39;[&#39;</title>
<path fill="none" stroke="grey" d="M235,-190.754C235,-181.523 235,-169.935 235,-159.495"/>
<polygon fill="grey" stroke="grey" points="238.5,-159.177 235,-149.177 231.5,-159.177 238.5,-159.177"/>
</g>
<!-- &#39;]&#39; -->
<g id="node11" class="node"><title>&#39;]&#39;</title>
<polygon fill="none" stroke="black" points="54,-149 0,-149 0,-113 54,-113 54,-149"/>
<text text-anchor="middle" x="27" y="-127.3" font-family="Times,serif" font-size="14.00">&#39;]&#39;</text>
</g>
<!-- end_node&#45;&gt;&#39;]&#39; -->
<g id="edge12" class="edge"><title>end_node&#45;&gt;&#39;]&#39;</title>
<path fill="none" stroke="grey" d="M73.3851,-190.754C65.5603,-180.843 55.5902,-168.214 46.9001,-157.207"/>
<polygon fill="grey" stroke="grey" points="49.5046,-154.857 40.561,-149.177 44.0104,-159.195 49.5046,-154.857"/>
</g>
<!-- attribute_statement -->
<g id="node13" class="node"><title>attribute_statement</title>
<polygon fill="none" stroke="black" points="461,-227 333,-227 333,-191 461,-191 461,-227"/>
<text text-anchor="middle" x="397" y="-205.3" font-family="Times,serif" font-size="14.00">attribute_statement*</text>
</g>
<!-- attribute_definition&#45;&gt;attribute_statement -->
<g id="edge14" class="edge"><title>attribute_definition&#45;&gt;attribute_statement</title>
<path fill="none" stroke="grey" d="M397,-262.697C397,-254.983 397,-245.712 397,-237.112"/>
<polygon fill="grey" stroke="grey" points="400.5,-237.104 397,-227.104 393.5,-237.104 400.5,-237.104"/>
</g>
<!-- start_attributes -->
<g id="node14" class="node"><title>start_attributes</title>
<polygon fill="none" stroke="black" points="488.25,-149 391.75,-149 391.75,-113 488.25,-113 488.25,-149"/>
<text text-anchor="middle" x="440" y="-127.3" font-family="Times,serif" font-size="14.00">start_attributes</text>
</g>
<!-- attribute_statement&#45;&gt;start_attributes -->
<g id="edge15" class="edge"><title>attribute_statement&#45;&gt;start_attributes</title>
<path fill="none" stroke="grey" d="M406.757,-190.754C412.2,-181.135 419.091,-168.955 425.186,-158.182"/>
<polygon fill="grey" stroke="grey" points="428.403,-159.604 430.281,-149.177 422.311,-156.157 428.403,-159.604"/>
</g>
<!-- end_attributes -->
<g id="node17" class="node"><title>end_attributes</title>
<polygon fill="none" stroke="black" points="373.25,-149 280.75,-149 280.75,-113 373.25,-113 373.25,-149"/>
<text text-anchor="middle" x="327" y="-127.3" font-family="Times,serif" font-size="14.00">end_attributes</text>
</g>
<!-- attribute_statement&#45;&gt;end_attributes -->
<g id="edge18" class="edge"><title>attribute_statement&#45;&gt;end_attributes</title>
<path fill="none" stroke="grey" d="M381.116,-190.754C371.808,-180.649 359.898,-167.718 349.622,-156.561"/>
<polygon fill="grey" stroke="grey" points="352.17,-154.162 342.821,-149.177 347.022,-158.904 352.17,-154.162"/>
</g>
<!-- {event = start_attributes|pause = before} -->
<g id="node15" class="node"><title>{event = start_attributes|pause = before}</title>
<polygon fill="lightblue" stroke="black" points="369,-24 369,-70 511,-70 511,-24 369,-24"/>
<text text-anchor="middle" x="440" y="-54.8" font-family="Times,serif" font-size="14.00">event = start_attributes</text>
<polyline fill="none" stroke="black" points="369,-47 511,-47 "/>
<text text-anchor="middle" x="440" y="-31.8" font-family="Times,serif" font-size="14.00">pause = before</text>
</g>
<!-- start_attributes&#45;&gt;{event = start_attributes|pause = before} -->
<g id="edge16" class="edge"><title>start_attributes&#45;&gt;{event = start_attributes|pause = before}</title>
<path fill="none" stroke="grey" d="M440,-112.61C440,-103.204 440,-91.2845 440,-80.2511"/>
<polygon fill="grey" stroke="grey" points="443.5,-80.0553 440,-70.0554 436.5,-80.0554 443.5,-80.0553"/>
</g>
<!-- &#39;{&#39; -->
<g id="node16" class="node"><title>&#39;{&#39;</title>
<polygon fill="none" stroke="black" points="583,-65 529,-65 529,-29 583,-29 583,-65"/>
<text text-anchor="middle" x="556" y="-43.3" font-family="Times,serif" font-size="14.00">&#39;{&#39;</text>
</g>
<!-- start_attributes&#45;&gt;&#39;{&#39; -->
<g id="edge17" class="edge"><title>start_attributes&#45;&gt;&#39;{&#39;</title>
<path fill="none" stroke="grey" d="M464.317,-112.81C481.486,-100.674 504.68,-84.2781 523.443,-71.0144"/>
<polygon fill="grey" stroke="grey" points="525.569,-73.7977 531.715,-65.1673 521.528,-68.0816 525.569,-73.7977"/>
</g>
<!-- &#39;}&#39; -->
<g id="node18" class="node"><title>&#39;}&#39;</title>
<polygon fill="none" stroke="black" points="351,-65 297,-65 297,-29 351,-29 351,-65"/>
<text text-anchor="middle" x="324" y="-43.3" font-family="Times,serif" font-size="14.00">&#39;}&#39;</text>
</g>
<!-- end_attributes&#45;&gt;&#39;}&#39; -->
<g id="edge19" class="edge"><title>end_attributes&#45;&gt;&#39;}&#39;</title>
<path fill="none" stroke="grey" d="M326.364,-112.61C325.967,-101.774 325.449,-87.6012 324.998,-75.2913"/>
<polygon fill="grey" stroke="grey" points="328.488,-74.9492 324.625,-65.0838 321.493,-75.2052 328.488,-74.9492"/>
</g>
<!-- edge_statement -->
<g id="node21" class="node"><title>edge_statement</title>
<polygon fill="none" stroke="black" points="563.25,-371 462.75,-371 462.75,-335 563.25,-335 563.25,-371"/>
<text text-anchor="middle" x="513" y="-349.3" font-family="Times,serif" font-size="14.00">edge_statement</text>
</g>
<!-- edge_definition&#45;&gt;edge_statement -->
<g id="edge23" class="edge"><title>edge_definition&#45;&gt;edge_statement</title>
<path fill="none" stroke="grey" d="M507.239,-412.754C506.248,-403.426 506.002,-391.691 506.5,-381.165"/>
<polygon fill="grey" stroke="grey" points="509.991,-381.41 507.246,-371.177 503.011,-380.889 509.991,-381.41"/>
</g>
<!-- edge_definition&#45;&gt;edge_statement -->
<g id="edge24" class="edge"><title>edge_definition&#45;&gt;edge_statement</title>
<path fill="none" stroke="grey" d="M518.761,-412.754C519.752,-403.426 519.998,-391.691 519.5,-381.165"/>
<polygon fill="grey" stroke="grey" points="522.989,-380.889 518.754,-371.177 516.009,-381.41 522.989,-380.889"/>
</g>
<!-- edge_definition&#45;&gt;«graph¯definition» -->
<g id="edge39" class="edge"><title>edge_definition&#45;&gt;«graph¯definition»</title>
<path fill="none" stroke="grey" d="M518.387,-449.264C519.87,-462.87 520.143,-482.095 519.206,-497.77"/>
<polygon fill="grey" stroke="grey" points="515.701,-497.688 518.364,-507.942 522.677,-498.265 515.701,-497.688"/>
</g>
<!-- edge_name -->
<g id="node22" class="node"><title>edge_name</title>
<polygon fill="none" stroke="black" points="786.25,-299 707.75,-299 707.75,-263 786.25,-263 786.25,-299"/>
<text text-anchor="middle" x="747" y="-277.3" font-family="Times,serif" font-size="14.00">edge_name</text>
</g>
<!-- edge_statement&#45;&gt;edge_name -->
<g id="edge25" class="edge"><title>edge_statement&#45;&gt;edge_name</title>
<path fill="none" stroke="grey" d="M563.478,-335.144C603.304,-322.837 658.431,-306.393 697.902,-295.073"/>
<polygon fill="grey" stroke="grey" points="698.925,-298.421 707.58,-292.311 697.004,-291.689 698.925,-298.421"/>
</g>
<!-- edge_statement&#45;&gt;edge_name -->
<g id="edge26" class="edge"><title>edge_statement&#45;&gt;edge_name</title>
<path fill="none" stroke="grey" d="M563.287,-338.586C603.056,-327.168 658.164,-310.721 697.678,-298.498"/>
<polygon fill="grey" stroke="grey" points="698.858,-301.797 707.37,-295.488 696.781,-295.112 698.858,-301.797"/>
</g>
<!-- edge_statement&#45;&gt;attribute_definition -->
<g id="edge37" class="edge"><title>edge_statement&#45;&gt;attribute_definition</title>
<path fill="none" stroke="grey" d="M484.623,-334.876C469.456,-325.724 450.595,-314.342 434.261,-304.485"/>
<polygon fill="grey" stroke="grey" points="435.856,-301.36 425.486,-299.19 432.239,-307.353 435.856,-301.36"/>
</g>
<!-- edge_statement&#45;&gt;(&#39;,&#39;) -->
<g id="edge38" class="edge"><title>edge_statement&#45;&gt;(&#39;,&#39;)</title>
<path fill="none" stroke="grey" d="M511.27,-334.697C510.498,-326.983 509.571,-317.712 508.711,-309.112"/>
<polygon fill="grey" stroke="grey" points="512.188,-308.706 507.71,-299.104 505.223,-309.403 512.188,-308.706"/>
</g>
<!-- (&#39;%1&#39;) -->
<g id="node23" class="node"><title>(&#39;%1&#39;)</title>
<polygon fill="none" stroke="black" points="1033,-227 979,-227 979,-191 1033,-191 1033,-227"/>
<text text-anchor="middle" x="1006" y="-205.3" font-family="Times,serif" font-size="14.00">(&#39;%1&#39;)</text>
</g>
<!-- edge_name&#45;&gt;(&#39;%1&#39;) -->
<g id="edge27" class="edge"><title>edge_name&#45;&gt;(&#39;%1&#39;)</title>
<path fill="none" stroke="grey" d="M786.564,-272.992C831.488,-264.478 906.639,-248.536 969,-227 969.1,-226.965 969.201,-226.931 969.301,-226.896"/>
<polygon fill="grey" stroke="grey" points="970.701,-230.107 978.767,-223.238 968.177,-223.578 970.701,-230.107"/>
</g>
<!-- directed_edge -->
<g id="node24" class="node"><title>directed_edge</title>
<polygon fill="none" stroke="black" points="748,-227 656,-227 656,-191 748,-191 748,-227"/>
<text text-anchor="middle" x="702" y="-205.3" font-family="Times,serif" font-size="14.00">directed_edge</text>
</g>
<!-- edge_name&#45;&gt;directed_edge -->
<g id="edge28" class="edge"><title>edge_name&#45;&gt;directed_edge</title>
<path fill="none" stroke="grey" d="M735.876,-262.697C730.645,-254.559 724.3,-244.689 718.522,-235.701"/>
<polygon fill="grey" stroke="grey" points="721.347,-233.623 712.996,-227.104 715.459,-237.409 721.347,-233.623"/>
</g>
<!-- (&#39;%2&#39;) -->
<g id="node28" class="node"><title>(&#39;%2&#39;)</title>
<polygon fill="none" stroke="black" points="820,-227 766,-227 766,-191 820,-191 820,-227"/>
<text text-anchor="middle" x="793" y="-205.3" font-family="Times,serif" font-size="14.00">(&#39;%2&#39;)</text>
</g>
<!-- edge_name&#45;&gt;(&#39;%2&#39;) -->
<g id="edge32" class="edge"><title>edge_name&#45;&gt;(&#39;%2&#39;)</title>
<path fill="none" stroke="grey" d="M758.371,-262.697C763.718,-254.559 770.204,-244.689 776.111,-235.701"/>
<polygon fill="grey" stroke="grey" points="779.193,-237.384 781.76,-227.104 773.343,-233.539 779.193,-237.384"/>
</g>
<!-- undirected_edge -->
<g id="node29" class="node"><title>undirected_edge</title>
<polygon fill="none" stroke="black" points="960.5,-227 855.5,-227 855.5,-191 960.5,-191 960.5,-227"/>
<text text-anchor="middle" x="908" y="-205.3" font-family="Times,serif" font-size="14.00">undirected_edge</text>
</g>
<!-- edge_name&#45;&gt;undirected_edge -->
<g id="edge33" class="edge"><title>edge_name&#45;&gt;undirected_edge</title>
<path fill="none" stroke="grey" d="M786.385,-262.876C808.395,-253.307 836.01,-241.3 859.36,-231.148"/>
<polygon fill="grey" stroke="grey" points="860.968,-234.265 868.743,-227.068 858.177,-227.846 860.968,-234.265"/>
</g>
<!-- {event = directed_edge|pause = before} -->
<g id="node25" class="node"><title>{event = directed_edge|pause = before}</title>
<polygon fill="lightblue" stroke="black" points="506.5,-108 506.5,-154 643.5,-154 643.5,-108 506.5,-108"/>
<text text-anchor="middle" x="575" y="-138.8" font-family="Times,serif" font-size="14.00">event = directed_edge</text>
<polyline fill="none" stroke="black" points="506.5,-131 643.5,-131 "/>
<text text-anchor="middle" x="575" y="-115.8" font-family="Times,serif" font-size="14.00">pause = before</text>
</g>
<!-- directed_edge&#45;&gt;{event = directed_edge|pause = before} -->
<g id="edge29" class="edge"><title>directed_edge&#45;&gt;{event = directed_edge|pause = before}</title>
<path fill="none" stroke="grey" d="M673.499,-190.944C658.054,-181.702 638.592,-170.055 621.055,-159.561"/>
<polygon fill="grey" stroke="grey" points="622.469,-156.328 612.091,-154.196 618.875,-162.335 622.469,-156.328"/>
</g>
<!-- {priority = 1} -->
<g id="node26" class="node"><title>{priority = 1}</title>
<polygon fill="lightblue" stroke="black" points="662,-113 662,-149 742,-149 742,-113 662,-113"/>
<text text-anchor="middle" x="702" y="-127.3" font-family="Times,serif" font-size="14.00">priority = 1</text>
</g>
<!-- directed_edge&#45;&gt;{priority = 1} -->
<g id="edge30" class="edge"><title>directed_edge&#45;&gt;{priority = 1}</title>
<path fill="none" stroke="grey" d="M702,-190.754C702,-181.523 702,-169.935 702,-159.495"/>
<polygon fill="grey" stroke="grey" points="705.5,-159.177 702,-149.177 698.5,-159.177 705.5,-159.177"/>
</g>
<!-- &#39;&#45;&gt;&#39; -->
<g id="node27" class="node"><title>&#39;&#45;&gt;&#39;</title>
<polygon fill="none" stroke="black" points="814,-149 760,-149 760,-113 814,-113 814,-149"/>
<text text-anchor="middle" x="787" y="-127.3" font-family="Times,serif" font-size="14.00">&#39;&#45;&gt;&#39;</text>
</g>
<!-- directed_edge&#45;&gt;&#39;&#45;&gt;&#39; -->
<g id="edge31" class="edge"><title>directed_edge&#45;&gt;&#39;&#45;&gt;&#39;</title>
<path fill="none" stroke="grey" d="M721.288,-190.754C732.808,-180.454 747.61,-167.22 760.248,-155.92"/>
<polygon fill="grey" stroke="grey" points="762.667,-158.452 767.789,-149.177 758.001,-153.234 762.667,-158.452"/>
</g>
<!-- {event = undirected_edge|pause = before} -->
<g id="node30" class="node"><title>{event = undirected_edge|pause = before}</title>
<polygon fill="lightblue" stroke="black" points="832.5,-108 832.5,-154 983.5,-154 983.5,-108 832.5,-108"/>
<text text-anchor="middle" x="908" y="-138.8" font-family="Times,serif" font-size="14.00">event = undirected_edge</text>
<polyline fill="none" stroke="black" points="832.5,-131 983.5,-131 "/>
<text text-anchor="middle" x="908" y="-115.8" font-family="Times,serif" font-size="14.00">pause = before</text>
</g>
<!-- undirected_edge&#45;&gt;{event = undirected_edge|pause = before} -->
<g id="edge34" class="edge"><title>undirected_edge&#45;&gt;{event = undirected_edge|pause = before}</title>
<path fill="none" stroke="grey" d="M908,-190.754C908,-182.863 908,-173.249 908,-164.102"/>
<polygon fill="grey" stroke="grey" points="911.5,-164.091 908,-154.091 904.5,-164.091 911.5,-164.091"/>
</g>
<!-- {priority = 2} -->
<g id="node31" class="node"><title>{priority = 2}</title>
<polygon fill="lightblue" stroke="black" points="1002,-113 1002,-149 1082,-149 1082,-113 1002,-113"/>
<text text-anchor="middle" x="1042" y="-127.3" font-family="Times,serif" font-size="14.00">priority = 2</text>
</g>
<!-- undirected_edge&#45;&gt;{priority = 2} -->
<g id="edge35" class="edge"><title>undirected_edge&#45;&gt;{priority = 2}</title>
<path fill="none" stroke="grey" d="M938.072,-190.944C957.162,-180.117 982.067,-165.992 1002.71,-154.283"/>
<polygon fill="grey" stroke="grey" points="1004.59,-157.24 1011.56,-149.262 1001.14,-151.151 1004.59,-157.24"/>
</g>
<!-- &#39;&#45;&#45;&#39; -->
<g id="node32" class="node"><title>&#39;&#45;&#45;&#39;</title>
<polygon fill="none" stroke="black" points="1154,-149 1100,-149 1100,-113 1154,-113 1154,-149"/>
<text text-anchor="middle" x="1127" y="-127.3" font-family="Times,serif" font-size="14.00">&#39;&#45;&#45;&#39;</text>
</g>
<!-- undirected_edge&#45;&gt;&#39;&#45;&#45;&#39; -->
<g id="edge36" class="edge"><title>undirected_edge&#45;&gt;&#39;&#45;&#45;&#39;</title>
<path fill="none" stroke="grey" d="M960.818,-193.533C1010.48,-179.796 1078.95,-160.458 1091,-155 1091.83,-154.625 1092.66,-154.234 1093.49,-153.828"/>
<polygon fill="grey" stroke="grey" points="1095.21,-156.877 1102.34,-149.043 1091.88,-150.719 1095.21,-156.877"/>
</g>
<!-- {action = [values]|bless = ::lhs} -->
<g id="node34" class="node"><title>{action = [values]|bless = ::lhs}</title>
<polygon fill="lightblue" stroke="black" points="581.5,-408 581.5,-454 690.5,-454 690.5,-408 581.5,-408"/>
<text text-anchor="middle" x="636" y="-438.8" font-family="Times,serif" font-size="14.00">action = [values]</text>
<polyline fill="none" stroke="black" points="581.5,-431 690.5,-431 "/>
<text text-anchor="middle" x="636" y="-415.8" font-family="Times,serif" font-size="14.00">bless = ::lhs</text>
</g>
<!-- :default&#45;&gt;{action = [values]|bless = ::lhs} -->
<g id="edge41" class="edge"><title>:default&#45;&gt;{action = [values]|bless = ::lhs}</title>
<path fill="none" stroke="grey" d="M628.651,-507.942C629.827,-495.79 631.444,-479.08 632.862,-464.427"/>
<polygon fill="grey" stroke="grey" points="636.37,-464.507 633.85,-454.217 629.403,-463.833 636.37,-464.507"/>
</g>
<!-- {whitespace = [\\s]+} -->
<g id="node36" class="node"><title>{whitespace = [\\s]+}</title>
<polygon fill="lightblue" stroke="black" points="708.5,-413 708.5,-449 827.5,-449 827.5,-413 708.5,-413"/>
<text text-anchor="middle" x="768" y="-427.3" font-family="Times,serif" font-size="14.00">whitespace = [\s]+</text>
</g>
<!-- :discard = :discard&#45;&gt;{whitespace = [\\s]+} -->
<g id="edge43" class="edge"><title>:discard = :discard&#45;&gt;{whitespace = [\\s]+}</title>
<path fill="none" stroke="grey" d="M739.42,-507.942C744.568,-494.263 751.889,-474.81 757.832,-459.017"/>
<polygon fill="grey" stroke="grey" points="761.256,-459.856 761.503,-449.264 754.705,-457.391 761.256,-459.856"/>
</g>
</g>
</svg>
