<?xml version="1.0" encoding="UTF-8" standalone="no"?>
<!DOCTYPE svg PUBLIC "-//W3C//DTD SVG 1.1//EN"
 "http://www.w3.org/Graphics/SVG/1.1/DTD/svg11.dtd">
<!-- Generated by graphviz version 2.30.1 (20130611.0131)
 -->
<!-- Title: Perl Pages: 1 -->
<svg width="1099pt" height="888pt"
 viewBox="0.00 0.00 1099.14 888.00" xmlns="http://www.w3.org/2000/svg" xmlns:xlink="http://www.w3.org/1999/xlink">
<g id="graph0" class="graph" transform="scale(1 1) rotate(0) translate(4 884)">
<title>Perl</title>
<polygon fill="white" stroke="white" points="-4,5 -4,-884 1096.14,-884 1096.14,5 -4,5"/>
<text text-anchor="middle" x="545.57" y="-7.8" font-family="Times,serif" font-size="14.00">stringparser.bnf</text>
<g id="clust1" class="cluster"><title>cluster_legend</title>
<polygon fill="none" stroke="black" points="522,-785 522,-872 901,-872 901,-785 522,-785"/>
<text text-anchor="middle" x="711.5" y="-856.8" font-family="Times,serif" font-size="14.00">cluster_Legend</text>
</g>
<!-- graph_grammar -->
<g id="node1" class="node"><title>graph_grammar</title>
<path fill="lightgreen" stroke="black" d="M420,-794C420,-794 500,-794 500,-794 506,-794 512,-800 512,-806 512,-806 512,-828 512,-828 512,-834 506,-840 500,-840 500,-840 420,-840 420,-840 414,-840 408,-834 408,-828 408,-828 408,-806 408,-806 408,-800 414,-794 420,-794"/>
<text text-anchor="middle" x="460" y="-824.8" font-family="Times,serif" font-size="14.00">:start</text>
<polyline fill="none" stroke="black" points="408,-817 512,-817 "/>
<text text-anchor="middle" x="460" y="-801.8" font-family="Times,serif" font-size="14.00">graph_grammar</text>
</g>
<!-- ꞉default -->
<g id="node2" class="node"><title>꞉default</title>
<polygon fill="lightblue" stroke="black" points="392.5,-757 335.5,-757 335.5,-721 392.5,-721 392.5,-757"/>
<text text-anchor="middle" x="364" y="-735.3" font-family="Times,serif" font-size="14.00">꞉default</text>
</g>
<!-- graph_grammar&#45;&gt;꞉default -->
<g id="edge1" class="edge"><title>graph_grammar&#45;&gt;꞉default</title>
<path fill="none" stroke="grey" d="M431.975,-793.813C419.924,-784.273 405.828,-773.114 393.607,-763.439"/>
<polygon fill="grey" stroke="grey" points="395.507,-760.479 385.494,-757.016 391.162,-765.967 395.507,-760.479"/>
</g>
<!-- ꞉discard -->
<g id="node4" class="node"><title>꞉discard</title>
<polygon fill="lightblue" stroke="black" points="489.25,-757 430.75,-757 430.75,-721 489.25,-721 489.25,-757"/>
<text text-anchor="middle" x="460" y="-735.3" font-family="Times,serif" font-size="14.00">꞉discard</text>
</g>
<!-- graph_grammar&#45;&gt;꞉discard -->
<g id="edge3" class="edge"><title>graph_grammar&#45;&gt;꞉discard</title>
<path fill="none" stroke="grey" d="M460,-793.609C460,-785.481 460,-776.2 460,-767.671"/>
<polygon fill="grey" stroke="grey" points="463.5,-767.412 460,-757.412 456.5,-767.412 463.5,-767.412"/>
</g>
<!-- graph_definition -->
<g id="node6" class="node"><title>graph_definition</title>
<polygon fill="white" stroke="black" points="760.25,-757 653.75,-757 653.75,-721 760.25,-721 760.25,-757"/>
<text text-anchor="middle" x="707" y="-735.3" font-family="Times,serif" font-size="14.00">graph_definition</text>
</g>
<!-- graph_grammar&#45;&gt;graph_definition -->
<g id="edge5" class="edge"><title>graph_grammar&#45;&gt;graph_definition</title>
<path fill="none" stroke="grey" d="M498.038,-793.897C504.566,-790.621 511.381,-787.509 518,-785 558.506,-769.647 605.936,-758.373 643.149,-750.95"/>
<polygon fill="grey" stroke="grey" points="644.215,-754.308 653.36,-748.958 642.875,-747.437 644.215,-754.308"/>
</g>
<!-- ꞉default_1 -->
<g id="node3" class="node"><title>꞉default_1</title>
<path fill="lightblue" stroke="black" d="M298.5,-648C298.5,-648 391.5,-648 391.5,-648 397.5,-648 403.5,-654 403.5,-660 403.5,-660 403.5,-672 403.5,-672 403.5,-678 397.5,-684 391.5,-684 391.5,-684 298.5,-684 298.5,-684 292.5,-684 286.5,-678 286.5,-672 286.5,-672 286.5,-660 286.5,-660 286.5,-654 292.5,-648 298.5,-648"/>
<text text-anchor="middle" x="345" y="-662.3" font-family="Times,serif" font-size="14.00">action =&gt; [values]</text>
</g>
<!-- ꞉default&#45;&gt;꞉default_1 -->
<g id="edge2" class="edge"><title>꞉default&#45;&gt;꞉default_1</title>
<path fill="none" stroke="grey" d="M359.401,-720.813C357.23,-712.702 354.59,-702.836 352.166,-693.777"/>
<polygon fill="grey" stroke="grey" points="355.523,-692.784 349.557,-684.029 348.761,-694.594 355.523,-692.784"/>
</g>
<!-- whitespace -->
<g id="node5" class="node"><title>whitespace</title>
<polygon fill="lightblue" stroke="black" points="498.25,-684 421.75,-684 421.75,-648 498.25,-648 498.25,-684"/>
<text text-anchor="middle" x="460" y="-662.3" font-family="Times,serif" font-size="14.00">whitespace</text>
</g>
<!-- ꞉discard&#45;&gt;whitespace -->
<g id="edge4" class="edge"><title>꞉discard&#45;&gt;whitespace</title>
<path fill="none" stroke="grey" d="M460,-720.813C460,-712.789 460,-703.047 460,-694.069"/>
<polygon fill="grey" stroke="grey" points="463.5,-694.029 460,-684.029 456.5,-694.029 463.5,-694.029"/>
</g>
<!-- [\\s] -->
<g id="node43" class="node"><title>[\\s]</title>
<polygon fill="white" stroke="black" points="438,-611 384,-611 384,-575 438,-575 438,-611"/>
<text text-anchor="middle" x="411" y="-589.3" font-family="Times,serif" font-size="14.00">[\s]+</text>
</g>
<!-- whitespace&#45;&gt;[\\s] -->
<g id="edge54" class="edge"><title>whitespace&#45;&gt;[\\s]</title>
<path fill="none" stroke="grey" d="M448.138,-647.813C442.24,-639.266 434.996,-628.769 428.476,-619.323"/>
<polygon fill="grey" stroke="grey" points="431.313,-617.271 422.752,-611.029 425.552,-621.247 431.313,-617.271"/>
</g>
<!-- graph_definition_attributes -->
<g id="node7" class="node"><title>graph_definition_attributes</title>
<path fill="#daa520" stroke="black" d="M907,-648C907,-648 987,-648 987,-648 993,-648 999,-654 999,-660 999,-660 999,-672 999,-672 999,-678 993,-684 987,-684 987,-684 907,-684 907,-684 901,-684 895,-678 895,-672 895,-672 895,-660 895,-660 895,-654 901,-648 907,-648"/>
<text text-anchor="middle" x="947" y="-662.3" font-family="Times,serif" font-size="14.00">action =&gt; graph</text>
</g>
<!-- graph_definition&#45;&gt;graph_definition_attributes -->
<g id="edge6" class="edge"><title>graph_definition&#45;&gt;graph_definition_attributes</title>
<path fill="none" stroke="grey" d="M760.264,-722.243C797.027,-711.367 846.043,-696.866 884.632,-685.451"/>
<polygon fill="grey" stroke="grey" points="886.115,-688.662 894.711,-682.469 884.129,-681.95 886.115,-688.662"/>
</g>
<!-- node_definition -->
<g id="node8" class="node"><title>node_definition</title>
<polygon fill="white" stroke="black" points="718.5,-684 617.5,-684 617.5,-648 718.5,-648 718.5,-684"/>
<text text-anchor="middle" x="668" y="-662.3" font-family="Times,serif" font-size="14.00">node_definition</text>
</g>
<!-- graph_definition&#45;&gt;node_definition -->
<g id="edge7" class="edge"><title>graph_definition&#45;&gt;node_definition</title>
<path fill="none" stroke="grey" d="M697.559,-720.813C692.96,-712.441 687.334,-702.197 682.228,-692.903"/>
<polygon fill="grey" stroke="grey" points="685.236,-691.109 677.354,-684.029 679.101,-694.479 685.236,-691.109"/>
</g>
<!-- edge_definition -->
<g id="node9" class="node"><title>edge_definition</title>
<polygon fill="white" stroke="black" points="876.25,-684 775.75,-684 775.75,-648 876.25,-648 876.25,-684"/>
<text text-anchor="middle" x="826" y="-662.3" font-family="Times,serif" font-size="14.00">edge_definition</text>
</g>
<!-- graph_definition&#45;&gt;edge_definition -->
<g id="edge8" class="edge"><title>graph_definition&#45;&gt;edge_definition</title>
<path fill="none" stroke="grey" d="M735.503,-720.994C751.43,-711.491 771.467,-699.536 788.637,-689.292"/>
<polygon fill="grey" stroke="grey" points="790.522,-692.243 797.317,-684.114 786.936,-686.232 790.522,-692.243"/>
</g>
<!-- node_statement -->
<g id="node10" class="node"><title>node_statement</title>
<polygon fill="white" stroke="black" points="586.5,-539 485.5,-539 485.5,-503 586.5,-503 586.5,-539"/>
<text text-anchor="middle" x="536" y="-517.3" font-family="Times,serif" font-size="14.00">node_statement</text>
</g>
<!-- node_definition&#45;&gt;node_statement -->
<g id="edge9" class="edge"><title>node_definition&#45;&gt;node_statement</title>
<path fill="none" stroke="grey" d="M671.301,-647.968C674.087,-628.423 675.478,-596.329 660,-575 644.893,-554.183 619.915,-541.472 596.321,-533.744"/>
<polygon fill="grey" stroke="grey" points="597.262,-530.372 586.677,-530.825 595.234,-537.072 597.262,-530.372"/>
</g>
<!-- node_statement graph_definition -->
<g id="node11" class="node"><title>node_statement graph_definition</title>
<polygon fill="white" stroke="black" points="651.5,-611 456.5,-611 456.5,-575 651.5,-575 651.5,-611"/>
<text text-anchor="middle" x="554" y="-589.3" font-family="Times,serif" font-size="14.00">node_statement graph_definition</text>
</g>
<!-- node_definition&#45;&gt;node_statement graph_definition -->
<g id="edge10" class="edge"><title>node_definition&#45;&gt;node_statement graph_definition</title>
<path fill="none" stroke="grey" d="M640.694,-647.994C625.577,-638.579 606.593,-626.755 590.247,-616.575"/>
<polygon fill="grey" stroke="grey" points="591.817,-613.429 581.478,-611.114 588.116,-619.371 591.817,-613.429"/>
</g>
<!-- edge_statement -->
<g id="node24" class="node"><title>edge_statement</title>
<polygon fill="white" stroke="black" points="1020.25,-539 919.75,-539 919.75,-503 1020.25,-503 1020.25,-539"/>
<text text-anchor="middle" x="970" y="-517.3" font-family="Times,serif" font-size="14.00">edge_statement</text>
</g>
<!-- edge_definition&#45;&gt;edge_statement -->
<g id="edge28" class="edge"><title>edge_definition&#45;&gt;edge_statement</title>
<path fill="none" stroke="grey" d="M876.32,-647.944C895.721,-639.341 916.84,-627.221 932,-611 948.336,-593.52 958.256,-567.947 963.844,-548.694"/>
<polygon fill="grey" stroke="grey" points="967.231,-549.575 966.448,-539.009 960.471,-547.757 967.231,-549.575"/>
</g>
<!-- edge_statement graph_definition -->
<g id="node25" class="node"><title>edge_statement graph_definition</title>
<polygon fill="white" stroke="black" points="923.25,-611 728.75,-611 728.75,-575 923.25,-575 923.25,-611"/>
<text text-anchor="middle" x="826" y="-589.3" font-family="Times,serif" font-size="14.00">edge_statement graph_definition</text>
</g>
<!-- edge_definition&#45;&gt;edge_statement graph_definition -->
<g id="edge29" class="edge"><title>edge_definition&#45;&gt;edge_statement graph_definition</title>
<path fill="none" stroke="grey" d="M826,-647.813C826,-639.789 826,-630.047 826,-621.069"/>
<polygon fill="grey" stroke="grey" points="829.5,-621.029 826,-611.029 822.5,-621.029 829.5,-621.029"/>
</g>
<!-- node_name -->
<g id="node12" class="node"><title>node_name</title>
<polygon fill="white" stroke="black" points="250,-395 170,-395 170,-359 250,-359 250,-395"/>
<text text-anchor="middle" x="210" y="-373.3" font-family="Times,serif" font-size="14.00">node_name</text>
</g>
<!-- node_statement&#45;&gt;node_name -->
<g id="edge13" class="edge"><title>node_statement&#45;&gt;node_name</title>
<path fill="none" stroke="grey" d="M485.323,-519.057C404.059,-516.381 250.142,-506.139 215,-467 200.189,-450.504 200.388,-424.601 203.437,-404.984"/>
<polygon fill="grey" stroke="grey" points="206.886,-405.581 205.286,-395.108 200.005,-404.293 206.886,-405.581"/>
</g>
<!-- node_name attribute_definition -->
<g id="node13" class="node"><title>node_name attribute_definition</title>
<polygon fill="white" stroke="black" points="412,-467 224,-467 224,-431 412,-431 412,-467"/>
<text text-anchor="middle" x="318" y="-445.3" font-family="Times,serif" font-size="14.00">node_name attribute_definition</text>
</g>
<!-- node_statement&#45;&gt;node_name attribute_definition -->
<g id="edge14" class="edge"><title>node_statement&#45;&gt;node_name attribute_definition</title>
<path fill="none" stroke="grey" d="M485.438,-503.765C454.186,-493.729 413.832,-480.772 380.572,-470.092"/>
<polygon fill="grey" stroke="grey" points="381.537,-466.726 370.946,-467.001 379.397,-473.391 381.537,-466.726"/>
</g>
<!-- node_statement (&#39;,&#39;) node_statement -->
<g id="node15" class="node"><title>node_statement (&#39;,&#39;) node_statement</title>
<polygon fill="white" stroke="black" points="641.5,-467 430.5,-467 430.5,-431 641.5,-431 641.5,-467"/>
<text text-anchor="middle" x="536" y="-445.3" font-family="Times,serif" font-size="14.00">node_statement (&#39;,&#39;) node_statement</text>
</g>
<!-- node_statement&#45;&gt;node_statement (&#39;,&#39;) node_statement -->
<g id="edge17" class="edge"><title>node_statement&#45;&gt;node_statement (&#39;,&#39;) node_statement</title>
<path fill="none" stroke="grey" d="M524.169,-502.697C522.577,-494.983 522.124,-485.712 522.809,-477.112"/>
<polygon fill="grey" stroke="grey" points="526.29,-477.493 524.21,-467.104 519.358,-476.523 526.29,-477.493"/>
</g>
<!-- node_statement graph_definition&#45;&gt;node_statement -->
<g id="edge11" class="edge"><title>node_statement graph_definition&#45;&gt;node_statement</title>
<path fill="none" stroke="grey" d="M549.551,-574.697C547.545,-566.898 545.131,-557.509 542.899,-548.829"/>
<polygon fill="grey" stroke="grey" points="546.278,-547.918 540.398,-539.104 539.499,-549.661 546.278,-547.918"/>
</g>
<!-- node_statement graph_definition&#45;&gt;graph_definition -->
<g id="edge12" class="edge"><title>node_statement graph_definition&#45;&gt;graph_definition</title>
<path fill="none" stroke="grey" d="M560.851,-611.302C569.414,-631.14 585.701,-663.662 608,-685 621.188,-697.619 637.971,-708.097 653.956,-716.312"/>
<polygon fill="grey" stroke="grey" points="652.724,-719.607 663.242,-720.887 655.818,-713.328 652.724,-719.607"/>
</g>
<!-- start_node end_node -->
<g id="node17" class="node"><title>start_node end_node</title>
<polygon fill="white" stroke="black" points="274.25,-317 145.75,-317 145.75,-281 274.25,-281 274.25,-317"/>
<text text-anchor="middle" x="210" y="-295.3" font-family="Times,serif" font-size="14.00">start_node end_node</text>
</g>
<!-- node_name&#45;&gt;start_node end_node -->
<g id="edge21" class="edge"><title>node_name&#45;&gt;start_node end_node</title>
<path fill="none" stroke="grey" d="M210,-358.754C210,-349.523 210,-337.935 210,-327.495"/>
<polygon fill="grey" stroke="grey" points="213.5,-327.177 210,-317.177 206.5,-327.177 213.5,-327.177"/>
</g>
<!-- node_name attribute_definition&#45;&gt;node_name -->
<g id="edge15" class="edge"><title>node_name attribute_definition&#45;&gt;node_name</title>
<path fill="none" stroke="grey" d="M291.58,-430.876C277.59,-421.808 260.224,-410.552 245.114,-400.759"/>
<polygon fill="grey" stroke="grey" points="246.817,-397.692 236.521,-395.19 243.009,-403.566 246.817,-397.692"/>
</g>
<!-- attribute_definition -->
<g id="node14" class="node"><title>attribute_definition</title>
<polygon fill="white" stroke="black" points="505.25,-395 384.75,-395 384.75,-359 505.25,-359 505.25,-395"/>
<text text-anchor="middle" x="445" y="-373.3" font-family="Times,serif" font-size="14.00">attribute_definition</text>
</g>
<!-- node_name attribute_definition&#45;&gt;attribute_definition -->
<g id="edge16" class="edge"><title>node_name attribute_definition&#45;&gt;attribute_definition</title>
<path fill="none" stroke="grey" d="M349.068,-430.876C365.827,-421.639 386.706,-410.131 404.702,-400.212"/>
<polygon fill="grey" stroke="grey" points="406.745,-403.082 413.813,-395.19 403.366,-396.952 406.745,-403.082"/>
</g>
<!-- attribute_statement -->
<g id="node35" class="node"><title>attribute_statement</title>
<polygon fill="white" stroke="black" points="509,-317 381,-317 381,-281 509,-281 509,-317"/>
<text text-anchor="middle" x="445" y="-295.3" font-family="Times,serif" font-size="14.00">attribute_statement*</text>
</g>
<!-- attribute_definition&#45;&gt;attribute_statement -->
<g id="edge46" class="edge"><title>attribute_definition&#45;&gt;attribute_statement</title>
<path fill="none" stroke="grey" d="M445,-358.754C445,-349.523 445,-337.935 445,-327.495"/>
<polygon fill="grey" stroke="grey" points="448.5,-327.177 445,-317.177 441.5,-327.177 448.5,-327.177"/>
</g>
<!-- node_statement (&#39;,&#39;) node_statement&#45;&gt;node_statement -->
<g id="edge18" class="edge"><title>node_statement (&#39;,&#39;) node_statement&#45;&gt;node_statement</title>
<path fill="none" stroke="grey" d="M536,-467.104C536,-474.791 536,-484.054 536,-492.665"/>
<polygon fill="grey" stroke="grey" points="532.5,-492.697 536,-502.697 539.5,-492.697 532.5,-492.697"/>
</g>
<!-- (&#39;,&#39;) -->
<g id="node16" class="node"><title>(&#39;,&#39;)</title>
<polygon fill="white" stroke="black" points="701,-395 647,-395 647,-359 701,-359 701,-395"/>
<text text-anchor="middle" x="674" y="-373.3" font-family="Times,serif" font-size="14.00">(&#39;,&#39;)</text>
</g>
<!-- node_statement (&#39;,&#39;) node_statement&#45;&gt;(&#39;,&#39;) -->
<g id="edge19" class="edge"><title>node_statement (&#39;,&#39;) node_statement&#45;&gt;(&#39;,&#39;)</title>
<path fill="none" stroke="grey" d="M569.759,-430.876C590.333,-420.44 616.622,-407.105 637.652,-396.438"/>
<polygon fill="grey" stroke="grey" points="639.272,-399.54 646.607,-391.895 636.105,-393.298 639.272,-399.54"/>
</g>
<!-- node_statement (&#39;,&#39;) node_statement&#45;&gt;node_statement -->
<g id="edge20" class="edge"><title>node_statement (&#39;,&#39;) node_statement&#45;&gt;node_statement</title>
<path fill="none" stroke="grey" d="M547.79,-467.104C549.401,-474.791 549.874,-484.054 549.208,-492.665"/>
<polygon fill="grey" stroke="grey" points="545.724,-492.314 547.831,-502.697 552.659,-493.265 545.724,-492.314"/>
</g>
<!-- start_node -->
<g id="node18" class="node"><title>start_node</title>
<path fill="#daa520" stroke="black" d="M141.5,-192C141.5,-192 190.5,-192 190.5,-192 196.5,-192 202.5,-198 202.5,-204 202.5,-204 202.5,-226 202.5,-226 202.5,-232 196.5,-238 190.5,-238 190.5,-238 141.5,-238 141.5,-238 135.5,-238 129.5,-232 129.5,-226 129.5,-226 129.5,-204 129.5,-204 129.5,-198 135.5,-192 141.5,-192"/>
<text text-anchor="middle" x="166" y="-222.8" font-family="Times,serif" font-size="14.00">꞉lexeme</text>
<polyline fill="none" stroke="black" points="129.5,-215 202.5,-215 "/>
<text text-anchor="middle" x="166" y="-199.8" font-family="Times,serif" font-size="14.00">start_node</text>
</g>
<!-- start_node end_node&#45;&gt;start_node -->
<g id="edge22" class="edge"><title>start_node end_node&#45;&gt;start_node</title>
<path fill="none" stroke="grey" d="M200.669,-280.61C195.414,-270.817 188.696,-258.297 182.576,-246.891"/>
<polygon fill="grey" stroke="grey" points="185.647,-245.212 177.835,-238.055 179.479,-248.522 185.647,-245.212"/>
</g>
<!-- end_node -->
<g id="node20" class="node"><title>end_node</title>
<polygon fill="white" stroke="black" points="289.25,-233 220.75,-233 220.75,-197 289.25,-197 289.25,-233"/>
<text text-anchor="middle" x="255" y="-211.3" font-family="Times,serif" font-size="14.00">end_node</text>
</g>
<!-- start_node end_node&#45;&gt;end_node -->
<g id="edge24" class="edge"><title>start_node end_node&#45;&gt;end_node</title>
<path fill="none" stroke="grey" d="M219.543,-280.61C225.67,-269.446 233.741,-254.739 240.634,-242.177"/>
<polygon fill="grey" stroke="grey" points="243.882,-243.534 245.625,-233.084 237.745,-240.167 243.882,-243.534"/>
</g>
<!-- start_node_0 -->
<g id="node19" class="node"><title>start_node_0</title>
<path fill="#daa520" stroke="black" d="M12,-108C12,-108 114,-108 114,-108 120,-108 126,-114 126,-120 126,-120 126,-142 126,-142 126,-148 120,-154 114,-154 114,-154 12,-154 12,-154 6,-154 0,-148 0,-142 0,-142 0,-120 0,-120 0,-114 6,-108 12,-108"/>
<text text-anchor="middle" x="63" y="-138.8" font-family="Times,serif" font-size="14.00">event =&gt; start_node</text>
<polyline fill="none" stroke="black" points="0,-131 126,-131 "/>
<text text-anchor="middle" x="63" y="-115.8" font-family="Times,serif" font-size="14.00">pause =&gt; before</text>
</g>
<!-- start_node&#45;&gt;start_node_0 -->
<g id="edge23" class="edge"><title>start_node&#45;&gt;start_node_0</title>
<path fill="none" stroke="grey" d="M138.127,-191.81C126.104,-182.238 111.888,-170.921 99.0755,-160.72"/>
<polygon fill="grey" stroke="grey" points="100.899,-157.698 90.8956,-154.208 96.5391,-163.175 100.899,-157.698"/>
</g>
<!-- &#39;[&#39; -->
<g id="node22" class="node"><title>&#39;[&#39;</title>
<polygon fill="white" stroke="black" points="198,-149 144,-149 144,-113 198,-113 198,-149"/>
<text text-anchor="middle" x="171" y="-127.3" font-family="Times,serif" font-size="14.00">&#39;[&#39;</text>
</g>
<!-- start_node&#45;&gt;&#39;[&#39; -->
<g id="edge26" class="edge"><title>start_node&#45;&gt;&#39;[&#39;</title>
<path fill="none" stroke="grey" d="M167.366,-191.593C167.971,-181.668 168.689,-169.9 169.326,-159.453"/>
<polygon fill="grey" stroke="grey" points="172.837,-159.372 169.953,-149.177 165.85,-158.946 172.837,-159.372"/>
</g>
<!-- end_node_1 -->
<g id="node21" class="node"><title>end_node_1</title>
<polygon fill="white" stroke="black" points="274,-149 220,-149 220,-113 274,-113 274,-149"/>
</g>
<!-- end_node&#45;&gt;end_node_1 -->
<g id="edge25" class="edge"><title>end_node&#45;&gt;end_node_1</title>
<path fill="none" stroke="grey" d="M253.303,-196.61C252.246,-185.774 250.864,-171.601 249.663,-159.291"/>
<polygon fill="grey" stroke="grey" points="253.121,-158.697 248.667,-149.084 246.154,-159.376 253.121,-158.697"/>
</g>
<!-- &#39;]&#39; -->
<g id="node23" class="node"><title>&#39;]&#39;</title>
<polygon fill="white" stroke="black" points="346,-149 292,-149 292,-113 346,-113 346,-149"/>
<text text-anchor="middle" x="319" y="-127.3" font-family="Times,serif" font-size="14.00">&#39;]&#39;</text>
</g>
<!-- end_node&#45;&gt;&#39;]&#39; -->
<g id="edge27" class="edge"><title>end_node&#45;&gt;&#39;]&#39;</title>
<path fill="none" stroke="grey" d="M268.573,-196.61C277.542,-185.118 289.442,-169.871 299.429,-157.075"/>
<polygon fill="grey" stroke="grey" points="302.273,-159.12 305.666,-149.084 296.754,-154.814 302.273,-159.12"/>
</g>
<!-- edge_name -->
<g id="node26" class="node"><title>edge_name</title>
<polygon fill="white" stroke="black" points="851.25,-395 772.75,-395 772.75,-359 851.25,-359 851.25,-395"/>
<text text-anchor="middle" x="812" y="-373.3" font-family="Times,serif" font-size="14.00">edge_name</text>
</g>
<!-- edge_statement&#45;&gt;edge_name -->
<g id="edge32" class="edge"><title>edge_statement&#45;&gt;edge_name</title>
<path fill="none" stroke="grey" d="M1020.41,-509.715C1043.99,-502.107 1069.91,-489.081 1084,-467 1092.6,-453.511 1094.17,-443.348 1084,-431 1056.34,-397.424 932.005,-384.837 861.399,-380.34"/>
<polygon fill="grey" stroke="grey" points="861.582,-376.845 851.389,-379.734 861.159,-383.832 861.582,-376.845"/>
</g>
<!-- edge_name attribute_definition -->
<g id="node27" class="node"><title>edge_name attribute_definition</title>
<polygon fill="white" stroke="black" points="846.25,-467 659.75,-467 659.75,-431 846.25,-431 846.25,-467"/>
<text text-anchor="middle" x="753" y="-445.3" font-family="Times,serif" font-size="14.00">edge_name attribute_definition</text>
</g>
<!-- edge_statement&#45;&gt;edge_name attribute_definition -->
<g id="edge33" class="edge"><title>edge_statement&#45;&gt;edge_name attribute_definition</title>
<path fill="none" stroke="grey" d="M919.67,-503.765C888.561,-493.729 848.393,-480.772 815.285,-470.092"/>
<polygon fill="grey" stroke="grey" points="816.294,-466.74 805.703,-467.001 814.145,-473.402 816.294,-466.74"/>
</g>
<!-- edge_statement (&#39;,&#39;) edge_statement -->
<g id="node28" class="node"><title>edge_statement (&#39;,&#39;) edge_statement</title>
<polygon fill="white" stroke="black" points="1075.25,-467 864.75,-467 864.75,-431 1075.25,-431 1075.25,-467"/>
<text text-anchor="middle" x="970" y="-445.3" font-family="Times,serif" font-size="14.00">edge_statement (&#39;,&#39;) edge_statement</text>
</g>
<!-- edge_statement&#45;&gt;edge_statement (&#39;,&#39;) edge_statement -->
<g id="edge36" class="edge"><title>edge_statement&#45;&gt;edge_statement (&#39;,&#39;) edge_statement</title>
<path fill="none" stroke="grey" d="M958.169,-502.697C956.577,-494.983 956.124,-485.712 956.809,-477.112"/>
<polygon fill="grey" stroke="grey" points="960.29,-477.493 958.21,-467.104 953.358,-476.523 960.29,-477.493"/>
</g>
<!-- edge_statement graph_definition&#45;&gt;edge_statement -->
<g id="edge30" class="edge"><title>edge_statement graph_definition&#45;&gt;edge_statement</title>
<path fill="none" stroke="grey" d="M861.226,-574.876C880.577,-565.469 904.773,-553.708 925.427,-543.667"/>
<polygon fill="grey" stroke="grey" points="927.175,-546.71 934.638,-539.19 924.114,-540.414 927.175,-546.71"/>
</g>
<!-- edge_statement graph_definition&#45;&gt;graph_definition -->
<g id="edge31" class="edge"><title>edge_statement graph_definition&#45;&gt;graph_definition</title>
<path fill="none" stroke="grey" d="M803.855,-611.092C791.912,-620.894 777.341,-633.839 766,-647 748.466,-667.348 732.153,-693.276 721.144,-712.247"/>
<polygon fill="grey" stroke="grey" points="718.097,-710.525 716.184,-720.946 724.178,-713.993 718.097,-710.525"/>
</g>
<!-- directed_edge -->
<g id="node29" class="node"><title>directed_edge</title>
<path fill="#daa520" stroke="black" d="M747,-276C747,-276 815,-276 815,-276 821,-276 827,-282 827,-288 827,-288 827,-310 827,-310 827,-316 821,-322 815,-322 815,-322 747,-322 747,-322 741,-322 735,-316 735,-310 735,-310 735,-288 735,-288 735,-282 741,-276 747,-276"/>
<text text-anchor="middle" x="781" y="-306.8" font-family="Times,serif" font-size="14.00">꞉lexeme</text>
<polyline fill="none" stroke="black" points="735,-299 827,-299 "/>
<text text-anchor="middle" x="781" y="-283.8" font-family="Times,serif" font-size="14.00">directed_edge</text>
</g>
<!-- edge_name&#45;&gt;directed_edge -->
<g id="edge40" class="edge"><title>edge_name&#45;&gt;directed_edge</title>
<path fill="none" stroke="grey" d="M804.966,-358.754C801.678,-350.693 797.656,-340.835 793.854,-331.513"/>
<polygon fill="grey" stroke="grey" points="797.028,-330.028 790.011,-322.091 790.547,-332.672 797.028,-330.028"/>
</g>
<!-- undirected_edge -->
<g id="node31" class="node"><title>undirected_edge</title>
<path fill="#daa520" stroke="black" d="M864,-276C864,-276 946,-276 946,-276 952,-276 958,-282 958,-288 958,-288 958,-310 958,-310 958,-316 952,-322 946,-322 946,-322 864,-322 864,-322 858,-322 852,-316 852,-310 852,-310 852,-288 852,-288 852,-282 858,-276 864,-276"/>
<text text-anchor="middle" x="905" y="-306.8" font-family="Times,serif" font-size="14.00">꞉lexeme</text>
<polyline fill="none" stroke="black" points="852,-299 958,-299 "/>
<text text-anchor="middle" x="905" y="-283.8" font-family="Times,serif" font-size="14.00">undirected_edge</text>
</g>
<!-- edge_name&#45;&gt;undirected_edge -->
<g id="edge42" class="edge"><title>edge_name&#45;&gt;undirected_edge</title>
<path fill="none" stroke="grey" d="M833.103,-358.754C844.006,-349.845 857.595,-338.739 870.015,-328.59"/>
<polygon fill="grey" stroke="grey" points="872.439,-331.129 877.968,-322.091 868.01,-325.709 872.439,-331.129"/>
</g>
<!-- edge_name attribute_definition&#45;&gt;edge_name -->
<g id="edge34" class="edge"><title>edge_name attribute_definition&#45;&gt;edge_name</title>
<path fill="none" stroke="grey" d="M767.584,-430.697C774.658,-422.305 783.283,-412.07 791.045,-402.861"/>
<polygon fill="grey" stroke="grey" points="793.815,-405.006 797.583,-395.104 788.463,-400.495 793.815,-405.006"/>
</g>
<!-- edge_name attribute_definition&#45;&gt;attribute_definition -->
<g id="edge35" class="edge"><title>edge_name attribute_definition&#45;&gt;attribute_definition</title>
<path fill="none" stroke="grey" d="M678.049,-430.966C628.406,-419.683 563.727,-404.983 515.106,-393.933"/>
<polygon fill="grey" stroke="grey" points="515.823,-390.507 505.296,-391.704 514.271,-397.333 515.823,-390.507"/>
</g>
<!-- edge_statement (&#39;,&#39;) edge_statement&#45;&gt;edge_statement -->
<g id="edge37" class="edge"><title>edge_statement (&#39;,&#39;) edge_statement&#45;&gt;edge_statement</title>
<path fill="none" stroke="grey" d="M970,-467.104C970,-474.791 970,-484.054 970,-492.665"/>
<polygon fill="grey" stroke="grey" points="966.5,-492.697 970,-502.697 973.5,-492.697 966.5,-492.697"/>
</g>
<!-- edge_statement (&#39;,&#39;) edge_statement&#45;&gt;(&#39;,&#39;) -->
<g id="edge38" class="edge"><title>edge_statement (&#39;,&#39;) edge_statement&#45;&gt;(&#39;,&#39;)</title>
<path fill="none" stroke="grey" d="M897.969,-430.966C838.945,-417.007 757.804,-397.819 711.131,-386.781"/>
<polygon fill="grey" stroke="grey" points="711.694,-383.318 701.157,-384.422 710.083,-390.13 711.694,-383.318"/>
</g>
<!-- edge_statement (&#39;,&#39;) edge_statement&#45;&gt;edge_statement -->
<g id="edge39" class="edge"><title>edge_statement (&#39;,&#39;) edge_statement&#45;&gt;edge_statement</title>
<path fill="none" stroke="grey" d="M981.79,-467.104C983.401,-474.791 983.874,-484.054 983.208,-492.665"/>
<polygon fill="grey" stroke="grey" points="979.724,-492.314 981.831,-502.697 986.659,-493.265 979.724,-492.314"/>
</g>
<!-- directed_edge_0 -->
<g id="node30" class="node"><title>directed_edge_0</title>
<path fill="#daa520" stroke="black" d="M602,-192C602,-192 724,-192 724,-192 730,-192 736,-198 736,-204 736,-204 736,-226 736,-226 736,-232 730,-238 724,-238 724,-238 602,-238 602,-238 596,-238 590,-232 590,-226 590,-226 590,-204 590,-204 590,-198 596,-192 602,-192"/>
<text text-anchor="middle" x="663" y="-222.8" font-family="Times,serif" font-size="14.00">event =&gt; directed_edge</text>
<polyline fill="none" stroke="black" points="590,-215 736,-215 "/>
<text text-anchor="middle" x="663" y="-199.8" font-family="Times,serif" font-size="14.00">pause =&gt; before</text>
</g>
<!-- directed_edge&#45;&gt;directed_edge_0 -->
<g id="edge41" class="edge"><title>directed_edge&#45;&gt;directed_edge_0</title>
<path fill="none" stroke="grey" d="M749.068,-275.81C735.032,-266.056 718.386,-254.489 703.492,-244.139"/>
<polygon fill="grey" stroke="grey" points="705.167,-241.041 694.958,-238.208 701.173,-246.789 705.167,-241.041"/>
</g>
<!-- &#39;&#45;\&gt;&#39; -->
<g id="node33" class="node"><title>&#39;&#45;\&gt;&#39;</title>
<polygon fill="white" stroke="black" points="808,-233 754,-233 754,-197 808,-197 808,-233"/>
<text text-anchor="middle" x="781" y="-211.3" font-family="Times,serif" font-size="14.00">&#39;&#45;&gt;&#39;</text>
</g>
<!-- directed_edge&#45;&gt;&#39;&#45;\&gt;&#39; -->
<g id="edge44" class="edge"><title>directed_edge&#45;&gt;&#39;&#45;\&gt;&#39;</title>
<path fill="none" stroke="grey" d="M781,-275.593C781,-265.668 781,-253.9 781,-243.453"/>
<polygon fill="grey" stroke="grey" points="784.5,-243.177 781,-233.177 777.5,-243.177 784.5,-243.177"/>
</g>
<!-- undirected_edge_0 -->
<g id="node32" class="node"><title>undirected_edge_0</title>
<path fill="#daa520" stroke="black" d="M837.5,-192C837.5,-192 972.5,-192 972.5,-192 978.5,-192 984.5,-198 984.5,-204 984.5,-204 984.5,-226 984.5,-226 984.5,-232 978.5,-238 972.5,-238 972.5,-238 837.5,-238 837.5,-238 831.5,-238 825.5,-232 825.5,-226 825.5,-226 825.5,-204 825.5,-204 825.5,-198 831.5,-192 837.5,-192"/>
<text text-anchor="middle" x="905" y="-222.8" font-family="Times,serif" font-size="14.00">event =&gt; undirected_edge</text>
<polyline fill="none" stroke="black" points="825.5,-215 984.5,-215 "/>
<text text-anchor="middle" x="905" y="-199.8" font-family="Times,serif" font-size="14.00">pause =&gt; before</text>
</g>
<!-- undirected_edge&#45;&gt;undirected_edge_0 -->
<g id="edge43" class="edge"><title>undirected_edge&#45;&gt;undirected_edge_0</title>
<path fill="none" stroke="grey" d="M905,-275.593C905,-267.118 905,-257.297 905,-248.104"/>
<polygon fill="grey" stroke="grey" points="908.5,-248.096 905,-238.096 901.5,-248.096 908.5,-248.096"/>
</g>
<!-- &#39;&#45;&#45;&#39; -->
<g id="node34" class="node"><title>&#39;&#45;&#45;&#39;</title>
<polygon fill="white" stroke="black" points="1056,-233 1002,-233 1002,-197 1056,-197 1056,-233"/>
<text text-anchor="middle" x="1029" y="-211.3" font-family="Times,serif" font-size="14.00">&#39;&#45;&#45;&#39;</text>
</g>
<!-- undirected_edge&#45;&gt;&#39;&#45;&#45;&#39; -->
<g id="edge45" class="edge"><title>undirected_edge&#45;&gt;&#39;&#45;&#45;&#39;</title>
<path fill="none" stroke="grey" d="M938.556,-275.81C955.902,-264.339 977.041,-250.36 994.519,-238.802"/>
<polygon fill="grey" stroke="grey" points="996.875,-241.44 1003.29,-233.004 993.014,-235.601 996.875,-241.44"/>
</g>
<!-- start_attributes end_attributes -->
<g id="node36" class="node"><title>start_attributes end_attributes</title>
<polygon fill="white" stroke="black" points="533.25,-233 356.75,-233 356.75,-197 533.25,-197 533.25,-233"/>
<text text-anchor="middle" x="445" y="-211.3" font-family="Times,serif" font-size="14.00">start_attributes end_attributes</text>
</g>
<!-- attribute_statement&#45;&gt;start_attributes end_attributes -->
<g id="edge47" class="edge"><title>attribute_statement&#45;&gt;start_attributes end_attributes</title>
<path fill="none" stroke="grey" d="M445,-280.61C445,-269.774 445,-255.601 445,-243.291"/>
<polygon fill="grey" stroke="grey" points="448.5,-243.084 445,-233.084 441.5,-243.084 448.5,-243.084"/>
</g>
<!-- start_attributes -->
<g id="node37" class="node"><title>start_attributes</title>
<path fill="#daa520" stroke="black" d="M389.5,-108C389.5,-108 462.5,-108 462.5,-108 468.5,-108 474.5,-114 474.5,-120 474.5,-120 474.5,-142 474.5,-142 474.5,-148 468.5,-154 462.5,-154 462.5,-154 389.5,-154 389.5,-154 383.5,-154 377.5,-148 377.5,-142 377.5,-142 377.5,-120 377.5,-120 377.5,-114 383.5,-108 389.5,-108"/>
<text text-anchor="middle" x="426" y="-138.8" font-family="Times,serif" font-size="14.00">꞉lexeme</text>
<polyline fill="none" stroke="black" points="377.5,-131 474.5,-131 "/>
<text text-anchor="middle" x="426" y="-115.8" font-family="Times,serif" font-size="14.00">start_attributes</text>
</g>
<!-- start_attributes end_attributes&#45;&gt;start_attributes -->
<g id="edge48" class="edge"><title>start_attributes end_attributes&#45;&gt;start_attributes</title>
<path fill="none" stroke="grey" d="M440.971,-196.61C438.769,-187.108 435.972,-175.038 433.394,-163.91"/>
<polygon fill="grey" stroke="grey" points="436.777,-163.007 431.11,-154.055 429.958,-164.587 436.777,-163.007"/>
</g>
<!-- end_attributes -->
<g id="node39" class="node"><title>end_attributes</title>
<polygon fill="white" stroke="black" points="585.25,-149 492.75,-149 492.75,-113 585.25,-113 585.25,-149"/>
<text text-anchor="middle" x="539" y="-127.3" font-family="Times,serif" font-size="14.00">end_attributes</text>
</g>
<!-- start_attributes end_attributes&#45;&gt;end_attributes -->
<g id="edge50" class="edge"><title>start_attributes end_attributes&#45;&gt;end_attributes</title>
<path fill="none" stroke="grey" d="M464.935,-196.61C478.486,-184.789 496.589,-168.997 511.506,-155.984"/>
<polygon fill="grey" stroke="grey" points="514.181,-158.295 519.416,-149.084 509.58,-153.02 514.181,-158.295"/>
</g>
<!-- start_attributes_0 -->
<g id="node38" class="node"><title>start_attributes_0</title>
<path fill="#daa520" stroke="black" d="M254,-24C254,-24 380,-24 380,-24 386,-24 392,-30 392,-36 392,-36 392,-58 392,-58 392,-64 386,-70 380,-70 380,-70 254,-70 254,-70 248,-70 242,-64 242,-58 242,-58 242,-36 242,-36 242,-30 248,-24 254,-24"/>
<text text-anchor="middle" x="317" y="-54.8" font-family="Times,serif" font-size="14.00">event =&gt; start_attributes</text>
<polyline fill="none" stroke="black" points="242,-47 392,-47 "/>
<text text-anchor="middle" x="317" y="-31.8" font-family="Times,serif" font-size="14.00">pause =&gt; before</text>
</g>
<!-- start_attributes&#45;&gt;start_attributes_0 -->
<g id="edge49" class="edge"><title>start_attributes&#45;&gt;start_attributes_0</title>
<path fill="none" stroke="grey" d="M396.503,-107.81C383.659,-98.147 368.449,-86.705 354.79,-76.4292"/>
<polygon fill="grey" stroke="grey" points="356.616,-73.423 346.521,-70.2081 352.408,-79.0168 356.616,-73.423"/>
</g>
<!-- &#39;{&#39; -->
<g id="node41" class="node"><title>&#39;{&#39;</title>
<polygon fill="white" stroke="black" points="464,-65 410,-65 410,-29 464,-29 464,-65"/>
<text text-anchor="middle" x="437" y="-43.3" font-family="Times,serif" font-size="14.00">&#39;{&#39;</text>
</g>
<!-- start_attributes&#45;&gt;&#39;{&#39; -->
<g id="edge52" class="edge"><title>start_attributes&#45;&gt;&#39;{&#39;</title>
<path fill="none" stroke="grey" d="M429.006,-107.593C430.351,-97.564 431.949,-85.6516 433.362,-75.1233"/>
<polygon fill="grey" stroke="grey" points="436.835,-75.554 434.696,-65.1774 429.897,-74.6232 436.835,-75.554"/>
</g>
<!-- end_attributes_1 -->
<g id="node40" class="node"><title>end_attributes_1</title>
<polygon fill="white" stroke="black" points="546,-65 492,-65 492,-29 546,-29 546,-65"/>
</g>
<!-- end_attributes&#45;&gt;end_attributes_1 -->
<g id="edge51" class="edge"><title>end_attributes&#45;&gt;end_attributes_1</title>
<path fill="none" stroke="grey" d="M534.759,-112.61C532.089,-101.665 528.589,-87.3145 525.566,-74.9188"/>
<polygon fill="grey" stroke="grey" points="528.937,-73.9697 523.167,-65.0838 522.136,-75.6284 528.937,-73.9697"/>
</g>
<!-- &#39;}&#39; -->
<g id="node42" class="node"><title>&#39;}&#39;</title>
<polygon fill="white" stroke="black" points="618,-65 564,-65 564,-29 618,-29 618,-65"/>
<text text-anchor="middle" x="591" y="-43.3" font-family="Times,serif" font-size="14.00">&#39;}&#39;</text>
</g>
<!-- end_attributes&#45;&gt;&#39;}&#39; -->
<g id="edge53" class="edge"><title>end_attributes&#45;&gt;&#39;}&#39;</title>
<path fill="none" stroke="grey" d="M550.028,-112.61C557.177,-101.336 566.617,-86.4505 574.634,-73.8087"/>
<polygon fill="grey" stroke="grey" points="577.767,-75.4034 580.166,-65.0838 571.855,-71.6545 577.767,-75.4034"/>
</g>
<!-- Legend_1 -->
<g id="node44" class="node"><title>Legend_1</title>
<path fill="lightgreen" stroke="black" d="M801.5,-794C801.5,-794 880.5,-794 880.5,-794 886.5,-794 892.5,-800 892.5,-806 892.5,-806 892.5,-828 892.5,-828 892.5,-834 886.5,-840 880.5,-840 880.5,-840 801.5,-840 801.5,-840 795.5,-840 789.5,-834 789.5,-828 789.5,-828 789.5,-806 789.5,-806 789.5,-800 795.5,-794 801.5,-794"/>
<text text-anchor="middle" x="841" y="-824.8" font-family="Times,serif" font-size="14.00">The green node</text>
<polyline fill="none" stroke="black" points="789.5,-817 892.5,-817 "/>
<text text-anchor="middle" x="841" y="-801.8" font-family="Times,serif" font-size="14.00">is the start node</text>
</g>
<!-- Legend_2 -->
<g id="node45" class="node"><title>Legend_2</title>
<path fill="lightblue" stroke="black" d="M658.5,-794C658.5,-794 759.5,-794 759.5,-794 765.5,-794 771.5,-800 771.5,-806 771.5,-806 771.5,-828 771.5,-828 771.5,-834 765.5,-840 759.5,-840 759.5,-840 658.5,-840 658.5,-840 652.5,-840 646.5,-834 646.5,-828 646.5,-828 646.5,-806 646.5,-806 646.5,-800 652.5,-794 658.5,-794"/>
<text text-anchor="middle" x="709" y="-824.8" font-family="Times,serif" font-size="14.00">Lightblue nodes</text>
<polyline fill="none" stroke="black" points="646.5,-817 771.5,-817 "/>
<text text-anchor="middle" x="709" y="-801.8" font-family="Times,serif" font-size="14.00">are for pseudo rules</text>
</g>
<!-- Legend_3 -->
<g id="node46" class="node"><title>Legend_3</title>
<path fill="#daa520" stroke="black" d="M542,-794C542,-794 616,-794 616,-794 622,-794 628,-800 628,-806 628,-806 628,-828 628,-828 628,-834 622,-840 616,-840 616,-840 542,-840 542,-840 536,-840 530,-834 530,-828 530,-828 530,-806 530,-806 530,-800 536,-794 542,-794"/>
<text text-anchor="middle" x="579" y="-824.8" font-family="Times,serif" font-size="14.00">Golden nodes</text>
<polyline fill="none" stroke="black" points="530,-817 628,-817 "/>
<text text-anchor="middle" x="579" y="-801.8" font-family="Times,serif" font-size="14.00">are for adverbs</text>
</g>
</g>
</svg>
