<?xml version="1.0" encoding="UTF-8" standalone="no"?>
<!DOCTYPE svg PUBLIC "-//W3C//DTD SVG 1.1//EN"
 "http://www.w3.org/Graphics/SVG/1.1/DTD/svg11.dtd">
<!-- Generated by graphviz version 2.30.1 (20130611.0131)
 -->
<!-- Title: Perl Pages: 1 -->
<svg width="1083pt" height="925pt"
 viewBox="0.00 0.00 1083.16 925.00" xmlns="http://www.w3.org/2000/svg" xmlns:xlink="http://www.w3.org/1999/xlink">
<g id="graph0" class="graph" transform="scale(1 1) rotate(0) translate(4 921)">
<title>Perl</title>
<polygon fill="white" stroke="white" points="-4,5 -4,-921 1080.16,-921 1080.16,5 -4,5"/>
<text text-anchor="middle" x="537.582" y="-7.8" font-family="Times,serif" font-size="14.00">stringparser.bnf</text>
<!-- graph_grammar -->
<g id="node1" class="node"><title>graph_grammar</title>
<path fill="lightgreen" stroke="black" d="M405,-870C405,-870 485,-870 485,-870 491,-870 497,-876 497,-882 497,-882 497,-904 497,-904 497,-910 491,-916 485,-916 485,-916 405,-916 405,-916 399,-916 393,-910 393,-904 393,-904 393,-882 393,-882 393,-876 399,-870 405,-870"/>
<text text-anchor="middle" x="445" y="-900.8" font-family="Times,serif" font-size="14.00">:start</text>
<polyline fill="none" stroke="black" points="393,-893 497,-893 "/>
<text text-anchor="middle" x="445" y="-877.8" font-family="Times,serif" font-size="14.00">graph_grammar</text>
</g>
<!-- ꞉default -->
<g id="node2" class="node"><title>꞉default</title>
<polygon fill="lightblue" stroke="black" points="377.5,-833 320.5,-833 320.5,-797 377.5,-797 377.5,-833"/>
<text text-anchor="middle" x="349" y="-811.3" font-family="Times,serif" font-size="14.00">꞉default</text>
</g>
<!-- graph_grammar&#45;&gt;꞉default -->
<g id="edge1" class="edge"><title>graph_grammar&#45;&gt;꞉default</title>
<path fill="none" stroke="grey" d="M416.975,-869.813C404.924,-860.273 390.828,-849.114 378.607,-839.439"/>
<polygon fill="grey" stroke="grey" points="380.507,-836.479 370.494,-833.016 376.162,-841.967 380.507,-836.479"/>
</g>
<!-- ꞉discard -->
<g id="node4" class="node"><title>꞉discard</title>
<polygon fill="lightblue" stroke="black" points="474.25,-833 415.75,-833 415.75,-797 474.25,-797 474.25,-833"/>
<text text-anchor="middle" x="445" y="-811.3" font-family="Times,serif" font-size="14.00">꞉discard</text>
</g>
<!-- graph_grammar&#45;&gt;꞉discard -->
<g id="edge3" class="edge"><title>graph_grammar&#45;&gt;꞉discard</title>
<path fill="none" stroke="grey" d="M445,-869.609C445,-861.481 445,-852.2 445,-843.671"/>
<polygon fill="grey" stroke="grey" points="448.5,-843.412 445,-833.412 441.5,-843.412 448.5,-843.412"/>
</g>
<!-- graph_definition -->
<g id="node6" class="node"><title>graph_definition</title>
<polygon fill="white" stroke="black" points="744.25,-833 637.75,-833 637.75,-797 744.25,-797 744.25,-833"/>
<text text-anchor="middle" x="691" y="-811.3" font-family="Times,serif" font-size="14.00">graph_definition</text>
</g>
<!-- graph_grammar&#45;&gt;graph_definition -->
<g id="edge5" class="edge"><title>graph_grammar&#45;&gt;graph_definition</title>
<path fill="none" stroke="grey" d="M497.17,-875.882C535.346,-864.088 587.332,-848.028 627.855,-835.508"/>
<polygon fill="grey" stroke="grey" points="629.11,-838.784 637.631,-832.488 627.044,-832.096 629.11,-838.784"/>
</g>
<!-- ꞉default_1 -->
<g id="node3" class="node"><title>꞉default_1</title>
<path fill="goldenrod" stroke="black" d="M283.5,-724C283.5,-724 376.5,-724 376.5,-724 382.5,-724 388.5,-730 388.5,-736 388.5,-736 388.5,-748 388.5,-748 388.5,-754 382.5,-760 376.5,-760 376.5,-760 283.5,-760 283.5,-760 277.5,-760 271.5,-754 271.5,-748 271.5,-748 271.5,-736 271.5,-736 271.5,-730 277.5,-724 283.5,-724"/>
<text text-anchor="middle" x="330" y="-738.3" font-family="Times,serif" font-size="14.00">action =&gt; [values]</text>
</g>
<!-- ꞉default&#45;&gt;꞉default_1 -->
<g id="edge2" class="edge"><title>꞉default&#45;&gt;꞉default_1</title>
<path fill="none" stroke="grey" d="M344.401,-796.813C342.23,-788.702 339.59,-778.836 337.166,-769.777"/>
<polygon fill="grey" stroke="grey" points="340.523,-768.784 334.557,-760.029 333.761,-770.594 340.523,-768.784"/>
</g>
<!-- whitespace -->
<g id="node5" class="node"><title>whitespace</title>
<polygon fill="lightblue" stroke="black" points="483.25,-760 406.75,-760 406.75,-724 483.25,-724 483.25,-760"/>
<text text-anchor="middle" x="445" y="-738.3" font-family="Times,serif" font-size="14.00">whitespace</text>
</g>
<!-- ꞉discard&#45;&gt;whitespace -->
<g id="edge4" class="edge"><title>꞉discard&#45;&gt;whitespace</title>
<path fill="none" stroke="grey" d="M445,-796.813C445,-788.789 445,-779.047 445,-770.069"/>
<polygon fill="grey" stroke="grey" points="448.5,-770.029 445,-760.029 441.5,-770.029 448.5,-770.029"/>
</g>
<!-- [\\s] -->
<g id="node41" class="node"><title>[\\s]</title>
<polygon fill="white" stroke="black" points="422,-687 368,-687 368,-651 422,-651 422,-687"/>
<text text-anchor="middle" x="395" y="-665.3" font-family="Times,serif" font-size="14.00">[\s]+</text>
</g>
<!-- whitespace&#45;&gt;[\\s] -->
<g id="edge52" class="edge"><title>whitespace&#45;&gt;[\\s]</title>
<path fill="none" stroke="grey" d="M432.896,-723.813C426.878,-715.266 419.486,-704.769 412.833,-695.323"/>
<polygon fill="grey" stroke="grey" points="415.612,-693.19 406.992,-687.029 409.888,-697.22 415.612,-693.19"/>
</g>
<!-- graph_definition_attributes -->
<g id="node7" class="node"><title>graph_definition_attributes</title>
<path fill="goldenrod" stroke="black" d="M891,-724C891,-724 971,-724 971,-724 977,-724 983,-730 983,-736 983,-736 983,-748 983,-748 983,-754 977,-760 971,-760 971,-760 891,-760 891,-760 885,-760 879,-754 879,-748 879,-748 879,-736 879,-736 879,-730 885,-724 891,-724"/>
<text text-anchor="middle" x="931" y="-738.3" font-family="Times,serif" font-size="14.00">action =&gt; graph</text>
</g>
<!-- graph_definition&#45;&gt;graph_definition_attributes -->
<g id="edge6" class="edge"><title>graph_definition&#45;&gt;graph_definition_attributes</title>
<path fill="none" stroke="grey" d="M744.264,-798.243C781.027,-787.367 830.043,-772.866 868.632,-761.451"/>
<polygon fill="grey" stroke="grey" points="870.115,-764.662 878.711,-758.469 868.129,-757.95 870.115,-764.662"/>
</g>
<!-- node_definition -->
<g id="node8" class="node"><title>node_definition</title>
<polygon fill="white" stroke="black" points="702.5,-760 601.5,-760 601.5,-724 702.5,-724 702.5,-760"/>
<text text-anchor="middle" x="652" y="-738.3" font-family="Times,serif" font-size="14.00">node_definition</text>
</g>
<!-- graph_definition&#45;&gt;node_definition -->
<g id="edge7" class="edge"><title>graph_definition&#45;&gt;node_definition</title>
<path fill="none" stroke="grey" d="M681.559,-796.813C676.96,-788.441 671.334,-778.197 666.228,-768.903"/>
<polygon fill="grey" stroke="grey" points="669.236,-767.109 661.354,-760.029 663.101,-770.479 669.236,-767.109"/>
</g>
<!-- edge_definition -->
<g id="node9" class="node"><title>edge_definition</title>
<polygon fill="white" stroke="black" points="860.25,-760 759.75,-760 759.75,-724 860.25,-724 860.25,-760"/>
<text text-anchor="middle" x="810" y="-738.3" font-family="Times,serif" font-size="14.00">edge_definition</text>
</g>
<!-- graph_definition&#45;&gt;edge_definition -->
<g id="edge8" class="edge"><title>graph_definition&#45;&gt;edge_definition</title>
<path fill="none" stroke="grey" d="M719.503,-796.994C735.43,-787.491 755.467,-775.536 772.637,-765.292"/>
<polygon fill="grey" stroke="grey" points="774.522,-768.243 781.317,-760.114 770.936,-762.232 774.522,-768.243"/>
</g>
<!-- node_statement -->
<g id="node10" class="node"><title>node_statement</title>
<polygon fill="white" stroke="black" points="570.5,-615 469.5,-615 469.5,-579 570.5,-579 570.5,-615"/>
<text text-anchor="middle" x="520" y="-593.3" font-family="Times,serif" font-size="14.00">node_statement</text>
</g>
<!-- node_definition&#45;&gt;node_statement -->
<g id="edge9" class="edge"><title>node_definition&#45;&gt;node_statement</title>
<path fill="none" stroke="grey" d="M655.301,-723.968C658.087,-704.423 659.478,-672.329 644,-651 628.893,-630.183 603.915,-617.472 580.321,-609.744"/>
<polygon fill="grey" stroke="grey" points="581.262,-606.372 570.677,-606.825 579.234,-613.072 581.262,-606.372"/>
</g>
<!-- node_statement graph_definition -->
<g id="node11" class="node"><title>node_statement graph_definition</title>
<polygon fill="white" stroke="black" points="635.5,-687 440.5,-687 440.5,-651 635.5,-651 635.5,-687"/>
<text text-anchor="middle" x="538" y="-665.3" font-family="Times,serif" font-size="14.00">node_statement graph_definition</text>
</g>
<!-- node_definition&#45;&gt;node_statement graph_definition -->
<g id="edge10" class="edge"><title>node_definition&#45;&gt;node_statement graph_definition</title>
<path fill="none" stroke="grey" d="M624.694,-723.994C609.577,-714.579 590.593,-702.755 574.247,-692.575"/>
<polygon fill="grey" stroke="grey" points="575.817,-689.429 565.478,-687.114 572.116,-695.371 575.817,-689.429"/>
</g>
<!-- edge_statement -->
<g id="node23" class="node"><title>edge_statement</title>
<polygon fill="white" stroke="black" points="1004.25,-615 903.75,-615 903.75,-579 1004.25,-579 1004.25,-615"/>
<text text-anchor="middle" x="954" y="-593.3" font-family="Times,serif" font-size="14.00">edge_statement</text>
</g>
<!-- edge_definition&#45;&gt;edge_statement -->
<g id="edge27" class="edge"><title>edge_definition&#45;&gt;edge_statement</title>
<path fill="none" stroke="grey" d="M860.32,-723.944C879.721,-715.341 900.84,-703.221 916,-687 932.336,-669.52 942.256,-643.947 947.844,-624.694"/>
<polygon fill="grey" stroke="grey" points="951.231,-625.575 950.448,-615.009 944.471,-623.757 951.231,-625.575"/>
</g>
<!-- edge_statement graph_definition -->
<g id="node24" class="node"><title>edge_statement graph_definition</title>
<polygon fill="white" stroke="black" points="907.25,-687 712.75,-687 712.75,-651 907.25,-651 907.25,-687"/>
<text text-anchor="middle" x="810" y="-665.3" font-family="Times,serif" font-size="14.00">edge_statement graph_definition</text>
</g>
<!-- edge_definition&#45;&gt;edge_statement graph_definition -->
<g id="edge28" class="edge"><title>edge_definition&#45;&gt;edge_statement graph_definition</title>
<path fill="none" stroke="grey" d="M810,-723.813C810,-715.789 810,-706.047 810,-697.069"/>
<polygon fill="grey" stroke="grey" points="813.5,-697.029 810,-687.029 806.5,-697.029 813.5,-697.029"/>
</g>
<!-- node_name -->
<g id="node12" class="node"><title>node_name</title>
<polygon fill="white" stroke="black" points="243,-471 163,-471 163,-435 243,-435 243,-471"/>
<text text-anchor="middle" x="203" y="-449.3" font-family="Times,serif" font-size="14.00">node_name</text>
</g>
<!-- node_statement&#45;&gt;node_name -->
<g id="edge13" class="edge"><title>node_statement&#45;&gt;node_name</title>
<path fill="none" stroke="grey" d="M469.404,-595.283C387.868,-592.936 233.076,-583.163 199,-543 184.75,-526.205 187.592,-500.555 192.919,-481.098"/>
<polygon fill="grey" stroke="grey" points="196.34,-481.883 195.948,-471.296 189.652,-479.817 196.34,-481.883"/>
</g>
<!-- node_name attribute_definition -->
<g id="node13" class="node"><title>node_name attribute_definition</title>
<polygon fill="white" stroke="black" points="396,-543 208,-543 208,-507 396,-507 396,-543"/>
<text text-anchor="middle" x="302" y="-521.3" font-family="Times,serif" font-size="14.00">node_name attribute_definition</text>
</g>
<!-- node_statement&#45;&gt;node_name attribute_definition -->
<g id="edge14" class="edge"><title>node_statement&#45;&gt;node_name attribute_definition</title>
<path fill="none" stroke="grey" d="M469.438,-579.765C438.186,-569.729 397.832,-556.772 364.572,-546.092"/>
<polygon fill="grey" stroke="grey" points="365.537,-542.726 354.946,-543.001 363.397,-549.391 365.537,-542.726"/>
</g>
<!-- node_statement (&#39;,&#39;) node_statement -->
<g id="node15" class="node"><title>node_statement (&#39;,&#39;) node_statement</title>
<polygon fill="white" stroke="black" points="625.5,-543 414.5,-543 414.5,-507 625.5,-507 625.5,-543"/>
<text text-anchor="middle" x="520" y="-521.3" font-family="Times,serif" font-size="14.00">node_statement (&#39;,&#39;) node_statement</text>
</g>
<!-- node_statement&#45;&gt;node_statement (&#39;,&#39;) node_statement -->
<g id="edge17" class="edge"><title>node_statement&#45;&gt;node_statement (&#39;,&#39;) node_statement</title>
<path fill="none" stroke="grey" d="M508.169,-578.697C506.577,-570.983 506.124,-561.712 506.809,-553.112"/>
<polygon fill="grey" stroke="grey" points="510.29,-553.493 508.21,-543.104 503.358,-552.523 510.29,-553.493"/>
</g>
<!-- node_statement graph_definition&#45;&gt;node_statement -->
<g id="edge11" class="edge"><title>node_statement graph_definition&#45;&gt;node_statement</title>
<path fill="none" stroke="grey" d="M533.551,-650.697C531.545,-642.898 529.131,-633.509 526.899,-624.829"/>
<polygon fill="grey" stroke="grey" points="530.278,-623.918 524.398,-615.104 523.499,-625.661 530.278,-623.918"/>
</g>
<!-- node_statement graph_definition&#45;&gt;graph_definition -->
<g id="edge12" class="edge"><title>node_statement graph_definition&#45;&gt;graph_definition</title>
<path fill="none" stroke="grey" d="M544.851,-687.302C553.414,-707.14 569.701,-739.662 592,-761 605.188,-773.619 621.971,-784.097 637.956,-792.312"/>
<polygon fill="grey" stroke="grey" points="636.724,-795.607 647.242,-796.887 639.818,-789.328 636.724,-795.607"/>
</g>
<!-- start_node end_node -->
<g id="node17" class="node"><title>start_node end_node</title>
<polygon fill="white" stroke="black" points="267.25,-393 138.75,-393 138.75,-357 267.25,-357 267.25,-393"/>
<text text-anchor="middle" x="203" y="-371.3" font-family="Times,serif" font-size="14.00">start_node end_node</text>
</g>
<!-- node_name&#45;&gt;start_node end_node -->
<g id="edge21" class="edge"><title>node_name&#45;&gt;start_node end_node</title>
<path fill="none" stroke="grey" d="M203,-434.754C203,-425.523 203,-413.935 203,-403.495"/>
<polygon fill="grey" stroke="grey" points="206.5,-403.177 203,-393.177 199.5,-403.177 206.5,-403.177"/>
</g>
<!-- node_name attribute_definition&#45;&gt;node_name -->
<g id="edge15" class="edge"><title>node_name attribute_definition&#45;&gt;node_name</title>
<path fill="none" stroke="grey" d="M277.782,-506.876C265.077,-497.893 249.336,-486.763 235.577,-477.034"/>
<polygon fill="grey" stroke="grey" points="237.497,-474.105 227.311,-471.19 233.456,-479.821 237.497,-474.105"/>
</g>
<!-- attribute_definition -->
<g id="node14" class="node"><title>attribute_definition</title>
<polygon fill="white" stroke="black" points="485.25,-471 364.75,-471 364.75,-435 485.25,-435 485.25,-471"/>
<text text-anchor="middle" x="425" y="-449.3" font-family="Times,serif" font-size="14.00">attribute_definition</text>
</g>
<!-- node_name attribute_definition&#45;&gt;attribute_definition -->
<g id="edge16" class="edge"><title>node_name attribute_definition&#45;&gt;attribute_definition</title>
<path fill="none" stroke="grey" d="M332.089,-506.876C348.32,-497.639 368.542,-486.131 385.971,-476.212"/>
<polygon fill="grey" stroke="grey" points="387.835,-479.178 394.795,-471.19 384.373,-473.094 387.835,-479.178"/>
</g>
<!-- attribute_statement -->
<g id="node34" class="node"><title>attribute_statement</title>
<polygon fill="white" stroke="black" points="489,-393 361,-393 361,-357 489,-357 489,-393"/>
<text text-anchor="middle" x="425" y="-371.3" font-family="Times,serif" font-size="14.00">attribute_statement*</text>
</g>
<!-- attribute_definition&#45;&gt;attribute_statement -->
<g id="edge45" class="edge"><title>attribute_definition&#45;&gt;attribute_statement</title>
<path fill="none" stroke="grey" d="M425,-434.754C425,-425.523 425,-413.935 425,-403.495"/>
<polygon fill="grey" stroke="grey" points="428.5,-403.177 425,-393.177 421.5,-403.177 428.5,-403.177"/>
</g>
<!-- node_statement (&#39;,&#39;) node_statement&#45;&gt;node_statement -->
<g id="edge18" class="edge"><title>node_statement (&#39;,&#39;) node_statement&#45;&gt;node_statement</title>
<path fill="none" stroke="grey" d="M520,-543.104C520,-550.791 520,-560.054 520,-568.665"/>
<polygon fill="grey" stroke="grey" points="516.5,-568.697 520,-578.697 523.5,-568.697 516.5,-568.697"/>
</g>
<!-- (&#39;,&#39;) -->
<g id="node16" class="node"><title>(&#39;,&#39;)</title>
<polygon fill="white" stroke="black" points="672,-471 618,-471 618,-435 672,-435 672,-471"/>
<text text-anchor="middle" x="645" y="-449.3" font-family="Times,serif" font-size="14.00">(&#39;,&#39;)</text>
</g>
<!-- node_statement (&#39;,&#39;) node_statement&#45;&gt;(&#39;,&#39;) -->
<g id="edge19" class="edge"><title>node_statement (&#39;,&#39;) node_statement&#45;&gt;(&#39;,&#39;)</title>
<path fill="none" stroke="grey" d="M550.578,-506.876C568.219,-496.998 590.496,-484.522 608.982,-474.17"/>
<polygon fill="grey" stroke="grey" points="610.701,-477.219 617.715,-469.279 607.28,-471.112 610.701,-477.219"/>
</g>
<!-- node_statement (&#39;,&#39;) node_statement&#45;&gt;node_statement -->
<g id="edge20" class="edge"><title>node_statement (&#39;,&#39;) node_statement&#45;&gt;node_statement</title>
<path fill="none" stroke="grey" d="M531.79,-543.104C533.401,-550.791 533.874,-560.054 533.208,-568.665"/>
<polygon fill="grey" stroke="grey" points="529.724,-568.314 531.831,-578.697 536.659,-569.265 529.724,-568.314"/>
</g>
<!-- start_node -->
<g id="node18" class="node"><title>start_node</title>
<path fill="orchid" stroke="black" d="M137.5,-268C137.5,-268 186.5,-268 186.5,-268 192.5,-268 198.5,-274 198.5,-280 198.5,-280 198.5,-302 198.5,-302 198.5,-308 192.5,-314 186.5,-314 186.5,-314 137.5,-314 137.5,-314 131.5,-314 125.5,-308 125.5,-302 125.5,-302 125.5,-280 125.5,-280 125.5,-274 131.5,-268 137.5,-268"/>
<text text-anchor="middle" x="162" y="-298.8" font-family="Times,serif" font-size="14.00">꞉lexeme</text>
<polyline fill="none" stroke="black" points="125.5,-291 198.5,-291 "/>
<text text-anchor="middle" x="162" y="-275.8" font-family="Times,serif" font-size="14.00">start_node</text>
</g>
<!-- start_node end_node&#45;&gt;start_node -->
<g id="edge22" class="edge"><title>start_node end_node&#45;&gt;start_node</title>
<path fill="none" stroke="grey" d="M194.305,-356.61C189.457,-346.914 183.272,-334.545 177.615,-323.23"/>
<polygon fill="grey" stroke="grey" points="180.63,-321.434 173.028,-314.055 174.369,-324.565 180.63,-321.434"/>
</g>
<!-- end_node -->
<g id="node20" class="node"><title>end_node</title>
<polygon fill="white" stroke="black" points="285.25,-309 216.75,-309 216.75,-273 285.25,-273 285.25,-309"/>
<text text-anchor="middle" x="251" y="-287.3" font-family="Times,serif" font-size="14.00">end_node</text>
</g>
<!-- start_node end_node&#45;&gt;end_node -->
<g id="edge24" class="edge"><title>start_node end_node&#45;&gt;end_node</title>
<path fill="none" stroke="grey" d="M213.18,-356.61C219.779,-345.336 228.492,-330.45 235.892,-317.809"/>
<polygon fill="grey" stroke="grey" points="238.968,-319.482 241,-309.084 232.927,-315.946 238.968,-319.482"/>
</g>
<!-- start_node_0 -->
<g id="node19" class="node"><title>start_node_0</title>
<path fill="lightblue" stroke="black" d="M12,-184C12,-184 114,-184 114,-184 120,-184 126,-190 126,-196 126,-196 126,-218 126,-218 126,-224 120,-230 114,-230 114,-230 12,-230 12,-230 6,-230 0,-224 0,-218 0,-218 0,-196 0,-196 0,-190 6,-184 12,-184"/>
<text text-anchor="middle" x="63" y="-214.8" font-family="Times,serif" font-size="14.00">event =&gt; start_node</text>
<polyline fill="none" stroke="black" points="0,-207 126,-207 "/>
<text text-anchor="middle" x="63" y="-191.8" font-family="Times,serif" font-size="14.00">pause =&gt; before</text>
</g>
<!-- start_node&#45;&gt;start_node_0 -->
<g id="edge23" class="edge"><title>start_node&#45;&gt;start_node_0</title>
<path fill="none" stroke="grey" d="M135.209,-267.81C123.653,-258.238 109.99,-246.921 97.6745,-236.72"/>
<polygon fill="grey" stroke="grey" points="99.7462,-233.892 89.8122,-230.208 95.281,-239.282 99.7462,-233.892"/>
</g>
<!-- &#39;[&#39; -->
<g id="node21" class="node"><title>&#39;[&#39;</title>
<polygon fill="white" stroke="black" points="198,-225 144,-225 144,-189 198,-189 198,-225"/>
<text text-anchor="middle" x="171" y="-203.3" font-family="Times,serif" font-size="14.00">&#39;[&#39;</text>
</g>
<!-- start_node&#45;&gt;&#39;[&#39; -->
<g id="edge25" class="edge"><title>start_node&#45;&gt;&#39;[&#39;</title>
<path fill="none" stroke="grey" d="M164.459,-267.593C165.56,-257.564 166.868,-245.652 168.023,-235.123"/>
<polygon fill="grey" stroke="grey" points="171.503,-235.5 169.115,-225.177 164.544,-234.736 171.503,-235.5"/>
</g>
<!-- &#39;]&#39; -->
<g id="node22" class="node"><title>&#39;]&#39;</title>
<polygon fill="white" stroke="black" points="278,-225 224,-225 224,-189 278,-189 278,-225"/>
<text text-anchor="middle" x="251" y="-203.3" font-family="Times,serif" font-size="14.00">&#39;]&#39;</text>
</g>
<!-- end_node&#45;&gt;&#39;]&#39; -->
<g id="edge26" class="edge"><title>end_node&#45;&gt;&#39;]&#39;</title>
<path fill="none" stroke="grey" d="M251,-272.61C251,-261.774 251,-247.601 251,-235.291"/>
<polygon fill="grey" stroke="grey" points="254.5,-235.084 251,-225.084 247.5,-235.084 254.5,-235.084"/>
</g>
<!-- edge_name -->
<g id="node25" class="node"><title>edge_name</title>
<polygon fill="white" stroke="black" points="822.25,-471 743.75,-471 743.75,-435 822.25,-435 822.25,-471"/>
<text text-anchor="middle" x="783" y="-449.3" font-family="Times,serif" font-size="14.00">edge_name</text>
</g>
<!-- edge_statement&#45;&gt;edge_name -->
<g id="edge31" class="edge"><title>edge_statement&#45;&gt;edge_name</title>
<path fill="none" stroke="grey" d="M1004.41,-585.715C1027.99,-578.107 1053.91,-565.081 1068,-543 1076.6,-529.511 1078.23,-519.305 1068,-507 1038.64,-471.678 906.269,-459.782 832.701,-455.863"/>
<polygon fill="grey" stroke="grey" points="832.456,-452.346 822.293,-455.341 832.105,-459.337 832.456,-452.346"/>
</g>
<!-- edge_name attribute_definition -->
<g id="node26" class="node"><title>edge_name attribute_definition</title>
<polygon fill="white" stroke="black" points="830.25,-543 643.75,-543 643.75,-507 830.25,-507 830.25,-543"/>
<text text-anchor="middle" x="737" y="-521.3" font-family="Times,serif" font-size="14.00">edge_name attribute_definition</text>
</g>
<!-- edge_statement&#45;&gt;edge_name attribute_definition -->
<g id="edge32" class="edge"><title>edge_statement&#45;&gt;edge_name attribute_definition</title>
<path fill="none" stroke="grey" d="M903.67,-579.765C872.561,-569.729 832.393,-556.772 799.285,-546.092"/>
<polygon fill="grey" stroke="grey" points="800.294,-542.74 789.703,-543.001 798.145,-549.402 800.294,-542.74"/>
</g>
<!-- edge_statement (&#39;,&#39;) edge_statement -->
<g id="node27" class="node"><title>edge_statement (&#39;,&#39;) edge_statement</title>
<polygon fill="white" stroke="black" points="1059.25,-543 848.75,-543 848.75,-507 1059.25,-507 1059.25,-543"/>
<text text-anchor="middle" x="954" y="-521.3" font-family="Times,serif" font-size="14.00">edge_statement (&#39;,&#39;) edge_statement</text>
</g>
<!-- edge_statement&#45;&gt;edge_statement (&#39;,&#39;) edge_statement -->
<g id="edge35" class="edge"><title>edge_statement&#45;&gt;edge_statement (&#39;,&#39;) edge_statement</title>
<path fill="none" stroke="grey" d="M942.169,-578.697C940.577,-570.983 940.124,-561.712 940.809,-553.112"/>
<polygon fill="grey" stroke="grey" points="944.29,-553.493 942.21,-543.104 937.358,-552.523 944.29,-553.493"/>
</g>
<!-- edge_statement graph_definition&#45;&gt;edge_statement -->
<g id="edge29" class="edge"><title>edge_statement graph_definition&#45;&gt;edge_statement</title>
<path fill="none" stroke="grey" d="M845.226,-650.876C864.577,-641.469 888.773,-629.708 909.427,-619.667"/>
<polygon fill="grey" stroke="grey" points="911.175,-622.71 918.638,-615.19 908.114,-616.414 911.175,-622.71"/>
</g>
<!-- edge_statement graph_definition&#45;&gt;graph_definition -->
<g id="edge30" class="edge"><title>edge_statement graph_definition&#45;&gt;graph_definition</title>
<path fill="none" stroke="grey" d="M787.855,-687.092C775.912,-696.894 761.341,-709.839 750,-723 732.466,-743.348 716.153,-769.276 705.144,-788.247"/>
<polygon fill="grey" stroke="grey" points="702.097,-786.525 700.184,-796.946 708.178,-789.993 702.097,-786.525"/>
</g>
<!-- directed_edge -->
<g id="node28" class="node"><title>directed_edge</title>
<path fill="orchid" stroke="black" d="M712,-352C712,-352 780,-352 780,-352 786,-352 792,-358 792,-364 792,-364 792,-386 792,-386 792,-392 786,-398 780,-398 780,-398 712,-398 712,-398 706,-398 700,-392 700,-386 700,-386 700,-364 700,-364 700,-358 706,-352 712,-352"/>
<text text-anchor="middle" x="746" y="-382.8" font-family="Times,serif" font-size="14.00">꞉lexeme</text>
<polyline fill="none" stroke="black" points="700,-375 792,-375 "/>
<text text-anchor="middle" x="746" y="-359.8" font-family="Times,serif" font-size="14.00">directed_edge</text>
</g>
<!-- edge_name&#45;&gt;directed_edge -->
<g id="edge39" class="edge"><title>edge_name&#45;&gt;directed_edge</title>
<path fill="none" stroke="grey" d="M774.604,-434.754C770.638,-426.609 765.779,-416.627 761.199,-407.219"/>
<polygon fill="grey" stroke="grey" points="764.279,-405.55 756.755,-398.091 757.985,-408.614 764.279,-405.55"/>
</g>
<!-- undirected_edge -->
<g id="node30" class="node"><title>undirected_edge</title>
<path fill="orchid" stroke="black" d="M829,-352C829,-352 911,-352 911,-352 917,-352 923,-358 923,-364 923,-364 923,-386 923,-386 923,-392 917,-398 911,-398 911,-398 829,-398 829,-398 823,-398 817,-392 817,-386 817,-386 817,-364 817,-364 817,-358 823,-352 829,-352"/>
<text text-anchor="middle" x="870" y="-382.8" font-family="Times,serif" font-size="14.00">꞉lexeme</text>
<polyline fill="none" stroke="black" points="817,-375 923,-375 "/>
<text text-anchor="middle" x="870" y="-359.8" font-family="Times,serif" font-size="14.00">undirected_edge</text>
</g>
<!-- edge_name&#45;&gt;undirected_edge -->
<g id="edge41" class="edge"><title>edge_name&#45;&gt;undirected_edge</title>
<path fill="none" stroke="grey" d="M802.742,-434.754C812.844,-425.93 825.412,-414.951 836.94,-404.88"/>
<polygon fill="grey" stroke="grey" points="839.483,-407.306 844.712,-398.091 834.878,-402.034 839.483,-407.306"/>
</g>
<!-- edge_name attribute_definition&#45;&gt;edge_name -->
<g id="edge33" class="edge"><title>edge_name attribute_definition&#45;&gt;edge_name</title>
<path fill="none" stroke="grey" d="M748.371,-506.697C753.718,-498.559 760.204,-488.689 766.111,-479.701"/>
<polygon fill="grey" stroke="grey" points="769.193,-481.384 771.76,-471.104 763.343,-477.539 769.193,-481.384"/>
</g>
<!-- edge_name attribute_definition&#45;&gt;attribute_definition -->
<g id="edge34" class="edge"><title>edge_name attribute_definition&#45;&gt;attribute_definition</title>
<path fill="none" stroke="grey" d="M661.075,-506.966C610.534,-495.626 544.609,-480.835 495.274,-469.767"/>
<polygon fill="grey" stroke="grey" points="495.848,-466.308 485.324,-467.534 494.315,-473.139 495.848,-466.308"/>
</g>
<!-- edge_statement (&#39;,&#39;) edge_statement&#45;&gt;edge_statement -->
<g id="edge36" class="edge"><title>edge_statement (&#39;,&#39;) edge_statement&#45;&gt;edge_statement</title>
<path fill="none" stroke="grey" d="M954,-543.104C954,-550.791 954,-560.054 954,-568.665"/>
<polygon fill="grey" stroke="grey" points="950.5,-568.697 954,-578.697 957.5,-568.697 950.5,-568.697"/>
</g>
<!-- edge_statement (&#39;,&#39;) edge_statement&#45;&gt;(&#39;,&#39;) -->
<g id="edge37" class="edge"><title>edge_statement (&#39;,&#39;) edge_statement&#45;&gt;(&#39;,&#39;)</title>
<path fill="none" stroke="grey" d="M878.805,-506.966C816.56,-492.865 730.753,-473.426 682.281,-462.446"/>
<polygon fill="grey" stroke="grey" points="682.765,-458.967 672.239,-460.171 681.218,-465.794 682.765,-458.967"/>
</g>
<!-- edge_statement (&#39;,&#39;) edge_statement&#45;&gt;edge_statement -->
<g id="edge38" class="edge"><title>edge_statement (&#39;,&#39;) edge_statement&#45;&gt;edge_statement</title>
<path fill="none" stroke="grey" d="M965.79,-543.104C967.401,-550.791 967.874,-560.054 967.208,-568.665"/>
<polygon fill="grey" stroke="grey" points="963.724,-568.314 965.831,-578.697 970.659,-569.265 963.724,-568.314"/>
</g>
<!-- directed_edge_0 -->
<g id="node29" class="node"><title>directed_edge_0</title>
<path fill="lightblue" stroke="black" d="M567,-268C567,-268 689,-268 689,-268 695,-268 701,-274 701,-280 701,-280 701,-302 701,-302 701,-308 695,-314 689,-314 689,-314 567,-314 567,-314 561,-314 555,-308 555,-302 555,-302 555,-280 555,-280 555,-274 561,-268 567,-268"/>
<text text-anchor="middle" x="628" y="-298.8" font-family="Times,serif" font-size="14.00">event =&gt; directed_edge</text>
<polyline fill="none" stroke="black" points="555,-291 701,-291 "/>
<text text-anchor="middle" x="628" y="-275.8" font-family="Times,serif" font-size="14.00">pause =&gt; before</text>
</g>
<!-- directed_edge&#45;&gt;directed_edge_0 -->
<g id="edge40" class="edge"><title>directed_edge&#45;&gt;directed_edge_0</title>
<path fill="none" stroke="grey" d="M714.068,-351.81C700.032,-342.056 683.386,-330.489 668.492,-320.139"/>
<polygon fill="grey" stroke="grey" points="670.167,-317.041 659.958,-314.208 666.173,-322.789 670.167,-317.041"/>
</g>
<!-- &#39;&#45;\&gt;&#39; -->
<g id="node32" class="node"><title>&#39;&#45;\&gt;&#39;</title>
<polygon fill="white" stroke="black" points="773,-309 719,-309 719,-273 773,-273 773,-309"/>
<text text-anchor="middle" x="746" y="-287.3" font-family="Times,serif" font-size="14.00">&#39;&#45;&gt;&#39;</text>
</g>
<!-- directed_edge&#45;&gt;&#39;&#45;\&gt;&#39; -->
<g id="edge43" class="edge"><title>directed_edge&#45;&gt;&#39;&#45;\&gt;&#39;</title>
<path fill="none" stroke="grey" d="M746,-351.593C746,-341.668 746,-329.9 746,-319.453"/>
<polygon fill="grey" stroke="grey" points="749.5,-319.177 746,-309.177 742.5,-319.177 749.5,-319.177"/>
</g>
<!-- undirected_edge_0 -->
<g id="node31" class="node"><title>undirected_edge_0</title>
<path fill="lightblue" stroke="black" d="M802.5,-268C802.5,-268 937.5,-268 937.5,-268 943.5,-268 949.5,-274 949.5,-280 949.5,-280 949.5,-302 949.5,-302 949.5,-308 943.5,-314 937.5,-314 937.5,-314 802.5,-314 802.5,-314 796.5,-314 790.5,-308 790.5,-302 790.5,-302 790.5,-280 790.5,-280 790.5,-274 796.5,-268 802.5,-268"/>
<text text-anchor="middle" x="870" y="-298.8" font-family="Times,serif" font-size="14.00">event =&gt; undirected_edge</text>
<polyline fill="none" stroke="black" points="790.5,-291 949.5,-291 "/>
<text text-anchor="middle" x="870" y="-275.8" font-family="Times,serif" font-size="14.00">pause =&gt; before</text>
</g>
<!-- undirected_edge&#45;&gt;undirected_edge_0 -->
<g id="edge42" class="edge"><title>undirected_edge&#45;&gt;undirected_edge_0</title>
<path fill="none" stroke="grey" d="M870,-351.593C870,-343.118 870,-333.297 870,-324.104"/>
<polygon fill="grey" stroke="grey" points="873.5,-324.096 870,-314.096 866.5,-324.096 873.5,-324.096"/>
</g>
<!-- &#39;&#45;&#45;&#39; -->
<g id="node33" class="node"><title>&#39;&#45;&#45;&#39;</title>
<polygon fill="white" stroke="black" points="1021,-309 967,-309 967,-273 1021,-273 1021,-309"/>
<text text-anchor="middle" x="994" y="-287.3" font-family="Times,serif" font-size="14.00">&#39;&#45;&#45;&#39;</text>
</g>
<!-- undirected_edge&#45;&gt;&#39;&#45;&#45;&#39; -->
<g id="edge44" class="edge"><title>undirected_edge&#45;&gt;&#39;&#45;&#45;&#39;</title>
<path fill="none" stroke="grey" d="M903.556,-351.81C920.902,-340.339 942.041,-326.36 959.519,-314.802"/>
<polygon fill="grey" stroke="grey" points="961.875,-317.44 968.286,-309.004 958.014,-311.601 961.875,-317.44"/>
</g>
<!-- start_attributes end_attributes -->
<g id="node35" class="node"><title>start_attributes end_attributes</title>
<polygon fill="white" stroke="black" points="513.25,-309 336.75,-309 336.75,-273 513.25,-273 513.25,-309"/>
<text text-anchor="middle" x="425" y="-287.3" font-family="Times,serif" font-size="14.00">start_attributes end_attributes</text>
</g>
<!-- attribute_statement&#45;&gt;start_attributes end_attributes -->
<g id="edge46" class="edge"><title>attribute_statement&#45;&gt;start_attributes end_attributes</title>
<path fill="none" stroke="grey" d="M425,-356.61C425,-345.774 425,-331.601 425,-319.291"/>
<polygon fill="grey" stroke="grey" points="428.5,-319.084 425,-309.084 421.5,-319.084 428.5,-319.084"/>
</g>
<!-- start_attributes -->
<g id="node36" class="node"><title>start_attributes</title>
<path fill="orchid" stroke="black" d="M348.5,-184C348.5,-184 421.5,-184 421.5,-184 427.5,-184 433.5,-190 433.5,-196 433.5,-196 433.5,-218 433.5,-218 433.5,-224 427.5,-230 421.5,-230 421.5,-230 348.5,-230 348.5,-230 342.5,-230 336.5,-224 336.5,-218 336.5,-218 336.5,-196 336.5,-196 336.5,-190 342.5,-184 348.5,-184"/>
<text text-anchor="middle" x="385" y="-214.8" font-family="Times,serif" font-size="14.00">꞉lexeme</text>
<polyline fill="none" stroke="black" points="336.5,-207 433.5,-207 "/>
<text text-anchor="middle" x="385" y="-191.8" font-family="Times,serif" font-size="14.00">start_attributes</text>
</g>
<!-- start_attributes end_attributes&#45;&gt;start_attributes -->
<g id="edge47" class="edge"><title>start_attributes end_attributes&#45;&gt;start_attributes</title>
<path fill="none" stroke="grey" d="M416.517,-272.61C411.787,-262.914 405.754,-250.545 400.234,-239.23"/>
<polygon fill="grey" stroke="grey" points="403.289,-237.509 395.759,-230.055 396.997,-240.578 403.289,-237.509"/>
</g>
<!-- end_attributes -->
<g id="node38" class="node"><title>end_attributes</title>
<polygon fill="white" stroke="black" points="544.25,-225 451.75,-225 451.75,-189 544.25,-189 544.25,-225"/>
<text text-anchor="middle" x="498" y="-203.3" font-family="Times,serif" font-size="14.00">end_attributes</text>
</g>
<!-- start_attributes end_attributes&#45;&gt;end_attributes -->
<g id="edge49" class="edge"><title>start_attributes end_attributes&#45;&gt;end_attributes</title>
<path fill="none" stroke="grey" d="M440.481,-272.61C450.81,-261.008 464.544,-245.58 476.002,-232.71"/>
<polygon fill="grey" stroke="grey" points="478.756,-234.88 482.791,-225.084 473.528,-230.226 478.756,-234.88"/>
</g>
<!-- start_attributes_0 -->
<g id="node37" class="node"><title>start_attributes_0</title>
<path fill="lightblue" stroke="black" d="M223,-62C223,-62 349,-62 349,-62 355,-62 361,-68 361,-74 361,-74 361,-96 361,-96 361,-102 355,-108 349,-108 349,-108 223,-108 223,-108 217,-108 211,-102 211,-96 211,-96 211,-74 211,-74 211,-68 217,-62 223,-62"/>
<text text-anchor="middle" x="286" y="-92.8" font-family="Times,serif" font-size="14.00">event =&gt; start_attributes</text>
<polyline fill="none" stroke="black" points="211,-85 361,-85 "/>
<text text-anchor="middle" x="286" y="-69.8" font-family="Times,serif" font-size="14.00">pause =&gt; before</text>
</g>
<!-- start_attributes&#45;&gt;start_attributes_0 -->
<g id="edge48" class="edge"><title>start_attributes&#45;&gt;start_attributes_0</title>
<path fill="none" stroke="grey" d="M366.842,-183.99C351.102,-164.911 328.179,-137.126 310.759,-116.011"/>
<polygon fill="grey" stroke="grey" points="313.442,-113.763 304.378,-108.277 308.042,-118.218 313.442,-113.763"/>
</g>
<!-- &#39;{&#39; -->
<g id="node39" class="node"><title>&#39;{&#39;</title>
<polygon fill="white" stroke="black" points="433,-103 379,-103 379,-67 433,-67 433,-103"/>
<text text-anchor="middle" x="406" y="-81.3" font-family="Times,serif" font-size="14.00">&#39;{&#39;</text>
</g>
<!-- start_attributes&#45;&gt;&#39;{&#39; -->
<g id="edge50" class="edge"><title>start_attributes&#45;&gt;&#39;{&#39;</title>
<path fill="none" stroke="grey" d="M388.852,-183.99C392.336,-164.078 397.48,-134.684 401.225,-113.286"/>
<polygon fill="grey" stroke="grey" points="404.712,-113.663 402.988,-103.209 397.817,-112.456 404.712,-113.663"/>
</g>
<!-- &#39;}&#39; -->
<g id="node40" class="node"><title>&#39;}&#39;</title>
<polygon fill="white" stroke="black" points="525,-103 471,-103 471,-67 525,-67 525,-103"/>
<text text-anchor="middle" x="498" y="-81.3" font-family="Times,serif" font-size="14.00">&#39;}&#39;</text>
</g>
<!-- end_attributes&#45;&gt;&#39;}&#39; -->
<g id="edge51" class="edge"><title>end_attributes&#45;&gt;&#39;}&#39;</title>
<path fill="none" stroke="grey" d="M498,-188.807C498,-169.114 498,-136.583 498,-113.39"/>
<polygon fill="grey" stroke="grey" points="501.5,-113.161 498,-103.161 494.5,-113.161 501.5,-113.161"/>
</g>
<!-- Legend -->
<g id="node42" class="node"><title>Legend</title>
<polygon fill="lightgrey" stroke="none" points="798.25,-146.5 543.75,-146.5 543.75,-23.5 798.25,-23.5 798.25,-146.5"/>
<polygon fill="white" stroke="none" points="551.5,-27.5 551.5,-142.5 790.5,-142.5 790.5,-27.5 551.5,-27.5"/>
<polygon fill="lightgreen" stroke="none" points="555,-118 555,-139 788,-139 788,-118 555,-118"/>
<polygon fill="none" stroke="black" points="555,-118 555,-139 788,-139 788,-118 555,-118"/>
<text text-anchor="start" x="584" y="-125.3" font-family="Times,serif" font-size="14.00">The green node is the start node</text>
<polygon fill="lightblue" stroke="none" points="555,-96 555,-116 788,-116 788,-96 555,-96"/>
<polygon fill="none" stroke="black" points="555,-96 555,-116 788,-116 788,-96 555,-96"/>
<text text-anchor="start" x="558.5" y="-102.8" font-family="Times,serif" font-size="14.00">Lightblue nodes are for lexeme attributes</text>
<polygon fill="orchid" stroke="none" points="555,-74 555,-94 788,-94 788,-74 555,-74"/>
<polygon fill="none" stroke="black" points="555,-74 555,-94 788,-94 788,-74 555,-74"/>
<text text-anchor="start" x="590.5" y="-80.8" font-family="Times,serif" font-size="14.00">Orchid nodes are for lexemes</text>
<polygon fill="goldenrod" stroke="none" points="555,-52 555,-72 788,-72 788,-52 555,-52"/>
<polygon fill="none" stroke="black" points="555,-52 555,-72 788,-72 788,-52 555,-52"/>
<text text-anchor="start" x="593" y="-58.8" font-family="Times,serif" font-size="14.00">Golden nodes are for actions</text>
<polygon fill="#ff3030" stroke="none" points="555,-30 555,-50 788,-50 788,-30 555,-30"/>
<polygon fill="none" stroke="black" points="555,-30 555,-50 788,-50 788,-30 555,-30"/>
<text text-anchor="start" x="603.5" y="-36.8" font-family="Times,serif" font-size="14.00">Red nodes are for events</text>
<polygon fill="none" stroke="black" points="551.5,-27.5 551.5,-142.5 790.5,-142.5 790.5,-27.5 551.5,-27.5"/>
</g>
</g>
</svg>
