<?xml version="1.0" encoding="UTF-8" standalone="no"?>
<!DOCTYPE svg PUBLIC "-//W3C//DTD SVG 1.1//EN"
 "http://www.w3.org/Graphics/SVG/1.1/DTD/svg11.dtd">
<!-- Generated by graphviz version 2.30.1 (20130611.0131)
 -->
<!-- Title: Perl Pages: 1 -->
<svg width="1162pt" height="641pt"
 viewBox="0.00 0.00 1162.00 641.00" xmlns="http://www.w3.org/2000/svg" xmlns:xlink="http://www.w3.org/1999/xlink">
<g id="graph0" class="graph" transform="scale(1 1) rotate(0) translate(4 637)">
<title>Perl</title>
<polygon fill="white" stroke="white" points="-4,5 -4,-637 1159,-637 1159,5 -4,5"/>
<text text-anchor="middle" x="577" y="-7.8" font-family="Times,serif" font-size="14.00">stringparser.bnf</text>
<!-- graph_grammar -->
<g id="node1" class="node"><title>graph_grammar</title>
<polygon fill="lightgreen" stroke="black" points="644,-633 540,-633 540,-597 644,-597 644,-633"/>
<text text-anchor="middle" x="592" y="-611.3" font-family="Times,serif" font-size="14.00">graph_grammar</text>
</g>
<!-- {action = graph} -->
<g id="node2" class="node"><title>{action = graph}</title>
<polygon fill="lightblue" stroke="black" points="305,-508 305,-544 401,-544 401,-508 305,-508"/>
<text text-anchor="middle" x="353" y="-522.3" font-family="Times,serif" font-size="14.00">action = graph</text>
</g>
<!-- graph_grammar&#45;&gt;{action = graph} -->
<g id="edge1" class="edge"><title>graph_grammar&#45;&gt;{action = graph}</title>
<path fill="none" stroke="grey" d="M539.718,-602.309C502.914,-593.215 452.936,-579.104 411,-561 403.39,-557.715 395.539,-553.636 388.166,-549.456"/>
<polygon fill="grey" stroke="grey" points="389.533,-546.201 379.137,-544.16 385.992,-552.239 389.533,-546.201"/>
</g>
<!-- «graph¯definition» -->
<g id="node3" class="node"><title>«graph¯definition»</title>
<polygon fill="none" stroke="black" points="536.25,-544 419.75,-544 419.75,-508 536.25,-508 536.25,-544"/>
<text text-anchor="middle" x="478" y="-522.3" font-family="Times,serif" font-size="14.00">«graph definition»</text>
</g>
<!-- graph_grammar&#45;&gt;«graph¯definition» -->
<g id="edge2" class="edge"><title>graph_grammar&#45;&gt;«graph¯definition»</title>
<path fill="none" stroke="grey" d="M569.477,-596.812C552.068,-583.525 527.785,-564.994 508.613,-550.362"/>
<polygon fill="grey" stroke="grey" points="510.549,-547.437 500.476,-544.153 506.302,-553.002 510.549,-547.437"/>
</g>
<!-- :default -->
<g id="node31" class="node"><title>:default</title>
<polygon fill="lightblue" stroke="black" points="620.5,-544 563.5,-544 563.5,-508 620.5,-508 620.5,-544"/>
<text text-anchor="middle" x="592" y="-522.3" font-family="Times,serif" font-size="14.00">:default</text>
</g>
<!-- graph_grammar&#45;&gt;:default -->
<g id="edge38" class="edge"><title>graph_grammar&#45;&gt;:default</title>
<path fill="none" stroke="grey" d="M592,-596.812C592,-584.657 592,-568.114 592,-554.182"/>
<polygon fill="grey" stroke="grey" points="595.5,-554.153 592,-544.153 588.5,-554.153 595.5,-554.153"/>
</g>
<!-- :discard = :discard -->
<g id="node33" class="node"><title>:discard = :discard</title>
<polygon fill="lightblue" stroke="black" points="757,-544 639,-544 639,-508 757,-508 757,-544"/>
<text text-anchor="middle" x="698" y="-522.3" font-family="Times,serif" font-size="14.00">:discard = :discard</text>
</g>
<!-- graph_grammar&#45;&gt;:discard = :discard -->
<g id="edge40" class="edge"><title>graph_grammar&#45;&gt;:discard = :discard</title>
<path fill="none" stroke="grey" d="M612.942,-596.812C629.057,-583.585 651.506,-565.16 669.295,-550.559"/>
<polygon fill="grey" stroke="grey" points="671.592,-553.202 677.101,-544.153 667.151,-547.792 671.592,-553.202"/>
</g>
<!-- {event subtext = completed «sub¯text»|event &#39;A[]&#39; = nulled «A»|event &#39;^a&#39; = predicted A} -->
<g id="node35" class="node"><title>{event subtext = completed «sub¯text»|event &#39;A[]&#39; = nulled «A»|event &#39;^a&#39; = predicted A}</title>
<polygon fill="lightblue" stroke="black" points="775.5,-491.5 775.5,-560.5 996.5,-560.5 996.5,-491.5 775.5,-491.5"/>
<text text-anchor="middle" x="886" y="-545.3" font-family="Times,serif" font-size="14.00">event subtext = completed «sub text»</text>
<polyline fill="none" stroke="black" points="775.5,-537.5 996.5,-537.5 "/>
<text text-anchor="middle" x="886" y="-522.3" font-family="Times,serif" font-size="14.00">event &#39;A[]&#39; = nulled «A»</text>
<polyline fill="none" stroke="black" points="775.5,-514.5 996.5,-514.5 "/>
<text text-anchor="middle" x="886" y="-499.3" font-family="Times,serif" font-size="14.00">event &#39;^a&#39; = predicted A</text>
</g>
<!-- graph_grammar&#45;&gt;{event subtext = completed «sub¯text»|event &#39;A[]&#39; = nulled «A»|event &#39;^a&#39; = predicted A} -->
<g id="edge42" class="edge"><title>graph_grammar&#45;&gt;{event subtext = completed «sub¯text»|event &#39;A[]&#39; = nulled «A»|event &#39;^a&#39; = predicted A}</title>
<path fill="none" stroke="grey" d="M644.223,-598.546C677.901,-588.58 723.149,-575.19 765.392,-562.69"/>
<polygon fill="grey" stroke="grey" points="766.606,-565.981 775.201,-559.787 764.619,-559.269 766.606,-565.981"/>
</g>
<!-- node_definition -->
<g id="node4" class="node"><title>node_definition</title>
<polygon fill="none" stroke="black" points="408.5,-449 307.5,-449 307.5,-413 408.5,-413 408.5,-449"/>
<text text-anchor="middle" x="358" y="-427.3" font-family="Times,serif" font-size="14.00">node_definition</text>
</g>
<!-- «graph¯definition»&#45;&gt;node_definition -->
<g id="edge3" class="edge"><title>«graph¯definition»&#45;&gt;node_definition</title>
<path fill="none" stroke="grey" d="M450.626,-507.942C430.098,-493.286 402.431,-472.001 382.601,-455.692"/>
<polygon fill="grey" stroke="grey" points="384.812,-452.979 374.89,-449.264 380.33,-458.356 384.812,-452.979"/>
</g>
<!-- edge_definition -->
<g id="node20" class="node"><title>edge_definition</title>
<polygon fill="none" stroke="black" points="528.25,-449 427.75,-449 427.75,-413 528.25,-413 528.25,-449"/>
<text text-anchor="middle" x="478" y="-427.3" font-family="Times,serif" font-size="14.00">edge_definition</text>
</g>
<!-- «graph¯definition»&#45;&gt;edge_definition -->
<g id="edge22" class="edge"><title>«graph¯definition»&#45;&gt;edge_definition</title>
<path fill="none" stroke="grey" d="M472.636,-507.942C471.141,-494.394 470.855,-475.18 471.78,-459.469"/>
<polygon fill="grey" stroke="grey" points="475.288,-459.516 472.613,-449.264 468.311,-458.946 475.288,-459.516"/>
</g>
<!-- node_statement -->
<g id="node5" class="node"><title>node_statement</title>
<polygon fill="none" stroke="black" points="408.5,-371 307.5,-371 307.5,-335 408.5,-335 408.5,-371"/>
<text text-anchor="middle" x="358" y="-349.3" font-family="Times,serif" font-size="14.00">node_statement</text>
</g>
<!-- node_definition&#45;&gt;node_statement -->
<g id="edge4" class="edge"><title>node_definition&#45;&gt;node_statement</title>
<path fill="none" stroke="grey" d="M352.239,-412.754C351.248,-403.426 351.002,-391.691 351.5,-381.165"/>
<polygon fill="grey" stroke="grey" points="354.991,-381.41 352.246,-371.177 348.011,-380.889 354.991,-381.41"/>
</g>
<!-- node_definition&#45;&gt;node_statement -->
<g id="edge5" class="edge"><title>node_definition&#45;&gt;node_statement</title>
<path fill="none" stroke="grey" d="M363.761,-412.754C364.752,-403.426 364.998,-391.691 364.5,-381.165"/>
<polygon fill="grey" stroke="grey" points="367.989,-380.889 363.754,-371.177 361.009,-381.41 367.989,-380.889"/>
</g>
<!-- node_definition&#45;&gt;«graph¯definition» -->
<g id="edge21" class="edge"><title>node_definition&#45;&gt;«graph¯definition»</title>
<path fill="none" stroke="grey" d="M385.663,-449.264C406.167,-463.917 433.675,-485.086 453.414,-501.32"/>
<polygon fill="grey" stroke="grey" points="451.433,-504.226 461.354,-507.942 455.916,-498.85 451.433,-504.226"/>
</g>
<!-- node_name -->
<g id="node6" class="node"><title>node_name</title>
<polygon fill="none" stroke="black" points="275,-299 195,-299 195,-263 275,-263 275,-299"/>
<text text-anchor="middle" x="235" y="-277.3" font-family="Times,serif" font-size="14.00">node_name</text>
</g>
<!-- node_statement&#45;&gt;node_name -->
<g id="edge6" class="edge"><title>node_statement&#45;&gt;node_name</title>
<path fill="none" stroke="grey" d="M322.014,-334.876C304.974,-325.724 284.823,-314.342 268.158,-304.485"/>
<polygon fill="grey" stroke="grey" points="269.68,-301.317 259.301,-299.19 266.088,-307.325 269.68,-301.317"/>
</g>
<!-- node_statement&#45;&gt;node_name -->
<g id="edge7" class="edge"><title>node_statement&#45;&gt;node_name</title>
<path fill="none" stroke="grey" d="M333.808,-334.876C318.543,-325.639 298.467,-314.131 280.361,-304.212"/>
<polygon fill="grey" stroke="grey" points="281.567,-300.884 271.109,-299.19 278.228,-307.036 281.567,-300.884"/>
</g>
<!-- attribute_definition -->
<g id="node12" class="node"><title>attribute_definition</title>
<polygon fill="none" stroke="black" points="422.25,-299 301.75,-299 301.75,-263 422.25,-263 422.25,-299"/>
<text text-anchor="middle" x="362" y="-277.3" font-family="Times,serif" font-size="14.00">attribute_definition</text>
</g>
<!-- node_statement&#45;&gt;attribute_definition -->
<g id="edge13" class="edge"><title>node_statement&#45;&gt;attribute_definition</title>
<path fill="none" stroke="grey" d="M358.989,-334.697C359.43,-326.983 359.959,-317.712 360.451,-309.112"/>
<polygon fill="grey" stroke="grey" points="363.946,-309.288 361.023,-299.104 356.958,-308.888 363.946,-309.288"/>
</g>
<!-- (&#39;,&#39;) -->
<g id="node19" class="node"><title>(&#39;,&#39;)</title>
<polygon fill="none" stroke="black" points="498,-299 444,-299 444,-263 498,-263 498,-299"/>
<text text-anchor="middle" x="471" y="-277.3" font-family="Times,serif" font-size="14.00">(&#39;,&#39;)</text>
</g>
<!-- node_statement&#45;&gt;(&#39;,&#39;) -->
<g id="edge20" class="edge"><title>node_statement&#45;&gt;(&#39;,&#39;)</title>
<path fill="none" stroke="grey" d="M385.643,-334.876C400.528,-325.655 419.066,-314.172 435.059,-304.265"/>
<polygon fill="grey" stroke="grey" points="436.985,-307.189 443.642,-298.947 433.298,-301.238 436.985,-307.189"/>
</g>
<!-- start_node -->
<g id="node7" class="node"><title>start_node</title>
<polygon fill="none" stroke="black" points="271.25,-227 198.75,-227 198.75,-191 271.25,-191 271.25,-227"/>
<text text-anchor="middle" x="235" y="-205.3" font-family="Times,serif" font-size="14.00">start_node</text>
</g>
<!-- node_name&#45;&gt;start_node -->
<g id="edge8" class="edge"><title>node_name&#45;&gt;start_node</title>
<path fill="none" stroke="grey" d="M235,-262.697C235,-254.983 235,-245.712 235,-237.112"/>
<polygon fill="grey" stroke="grey" points="238.5,-237.104 235,-227.104 231.5,-237.104 238.5,-237.104"/>
</g>
<!-- end_node -->
<g id="node10" class="node"><title>end_node</title>
<polygon fill="none" stroke="black" points="121.25,-227 52.75,-227 52.75,-191 121.25,-191 121.25,-227"/>
<text text-anchor="middle" x="87" y="-205.3" font-family="Times,serif" font-size="14.00">end_node</text>
</g>
<!-- node_name&#45;&gt;end_node -->
<g id="edge11" class="edge"><title>node_name&#45;&gt;end_node</title>
<path fill="none" stroke="grey" d="M198.795,-262.876C178.221,-253.145 152.318,-240.894 130.627,-230.635"/>
<polygon fill="grey" stroke="grey" points="131.842,-227.337 121.306,-226.226 128.849,-233.665 131.842,-227.337"/>
</g>
<!-- {event = start_node|pause = before} -->
<g id="node8" class="node"><title>{event = start_node|pause = before}</title>
<polygon fill="lightblue" stroke="black" points="72,-108 72,-154 190,-154 190,-108 72,-108"/>
<text text-anchor="middle" x="131" y="-138.8" font-family="Times,serif" font-size="14.00">event = start_node</text>
<polyline fill="none" stroke="black" points="72,-131 190,-131 "/>
<text text-anchor="middle" x="131" y="-115.8" font-family="Times,serif" font-size="14.00">pause = before</text>
</g>
<!-- start_node&#45;&gt;{event = start_node|pause = before} -->
<g id="edge9" class="edge"><title>start_node&#45;&gt;{event = start_node|pause = before}</title>
<path fill="none" stroke="grey" d="M211.66,-190.944C199.245,-181.871 183.659,-170.482 169.506,-160.139"/>
<polygon fill="grey" stroke="grey" points="171.513,-157.271 161.374,-154.196 167.383,-162.922 171.513,-157.271"/>
</g>
<!-- &#39;[&#39; -->
<g id="node9" class="node"><title>&#39;[&#39;</title>
<polygon fill="none" stroke="black" points="262,-149 208,-149 208,-113 262,-113 262,-149"/>
<text text-anchor="middle" x="235" y="-127.3" font-family="Times,serif" font-size="14.00">&#39;[&#39;</text>
</g>
<!-- start_node&#45;&gt;&#39;[&#39; -->
<g id="edge10" class="edge"><title>start_node&#45;&gt;&#39;[&#39;</title>
<path fill="none" stroke="grey" d="M235,-190.754C235,-181.523 235,-169.935 235,-159.495"/>
<polygon fill="grey" stroke="grey" points="238.5,-159.177 235,-149.177 231.5,-159.177 238.5,-159.177"/>
</g>
<!-- &#39;]&#39; -->
<g id="node11" class="node"><title>&#39;]&#39;</title>
<polygon fill="none" stroke="black" points="54,-149 0,-149 0,-113 54,-113 54,-149"/>
<text text-anchor="middle" x="27" y="-127.3" font-family="Times,serif" font-size="14.00">&#39;]&#39;</text>
</g>
<!-- end_node&#45;&gt;&#39;]&#39; -->
<g id="edge12" class="edge"><title>end_node&#45;&gt;&#39;]&#39;</title>
<path fill="none" stroke="grey" d="M73.3851,-190.754C65.5603,-180.843 55.5902,-168.214 46.9001,-157.207"/>
<polygon fill="grey" stroke="grey" points="49.5046,-154.857 40.561,-149.177 44.0104,-159.195 49.5046,-154.857"/>
</g>
<!-- attribute_statement -->
<g id="node13" class="node"><title>attribute_statement</title>
<polygon fill="none" stroke="black" points="426,-227 298,-227 298,-191 426,-191 426,-227"/>
<text text-anchor="middle" x="362" y="-205.3" font-family="Times,serif" font-size="14.00">attribute_statement*</text>
</g>
<!-- attribute_definition&#45;&gt;attribute_statement -->
<g id="edge14" class="edge"><title>attribute_definition&#45;&gt;attribute_statement</title>
<path fill="none" stroke="grey" d="M362,-262.697C362,-254.983 362,-245.712 362,-237.112"/>
<polygon fill="grey" stroke="grey" points="365.5,-237.104 362,-227.104 358.5,-237.104 365.5,-237.104"/>
</g>
<!-- start_attributes -->
<g id="node14" class="node"><title>start_attributes</title>
<polygon fill="none" stroke="black" points="488.25,-149 391.75,-149 391.75,-113 488.25,-113 488.25,-149"/>
<text text-anchor="middle" x="440" y="-127.3" font-family="Times,serif" font-size="14.00">start_attributes</text>
</g>
<!-- attribute_statement&#45;&gt;start_attributes -->
<g id="edge15" class="edge"><title>attribute_statement&#45;&gt;start_attributes</title>
<path fill="none" stroke="grey" d="M379.699,-190.754C390.171,-180.551 403.598,-167.469 415.122,-156.24"/>
<polygon fill="grey" stroke="grey" points="417.651,-158.663 422.371,-149.177 412.766,-153.649 417.651,-158.663"/>
</g>
<!-- end_attributes -->
<g id="node17" class="node"><title>end_attributes</title>
<polygon fill="none" stroke="black" points="373.25,-149 280.75,-149 280.75,-113 373.25,-113 373.25,-149"/>
<text text-anchor="middle" x="327" y="-127.3" font-family="Times,serif" font-size="14.00">end_attributes</text>
</g>
<!-- attribute_statement&#45;&gt;end_attributes -->
<g id="edge18" class="edge"><title>attribute_statement&#45;&gt;end_attributes</title>
<path fill="none" stroke="grey" d="M354.058,-190.754C349.672,-181.232 344.132,-169.201 339.208,-158.509"/>
<polygon fill="grey" stroke="grey" points="342.273,-156.796 334.911,-149.177 335.915,-159.724 342.273,-156.796"/>
</g>
<!-- {event = start_attributes|pause = before} -->
<g id="node15" class="node"><title>{event = start_attributes|pause = before}</title>
<polygon fill="lightblue" stroke="black" points="369,-24 369,-70 511,-70 511,-24 369,-24"/>
<text text-anchor="middle" x="440" y="-54.8" font-family="Times,serif" font-size="14.00">event = start_attributes</text>
<polyline fill="none" stroke="black" points="369,-47 511,-47 "/>
<text text-anchor="middle" x="440" y="-31.8" font-family="Times,serif" font-size="14.00">pause = before</text>
</g>
<!-- start_attributes&#45;&gt;{event = start_attributes|pause = before} -->
<g id="edge16" class="edge"><title>start_attributes&#45;&gt;{event = start_attributes|pause = before}</title>
<path fill="none" stroke="grey" d="M440,-112.61C440,-103.204 440,-91.2845 440,-80.2511"/>
<polygon fill="grey" stroke="grey" points="443.5,-80.0553 440,-70.0554 436.5,-80.0554 443.5,-80.0553"/>
</g>
<!-- &#39;{&#39; -->
<g id="node16" class="node"><title>&#39;{&#39;</title>
<polygon fill="none" stroke="black" points="583,-65 529,-65 529,-29 583,-29 583,-65"/>
<text text-anchor="middle" x="556" y="-43.3" font-family="Times,serif" font-size="14.00">&#39;{&#39;</text>
</g>
<!-- start_attributes&#45;&gt;&#39;{&#39; -->
<g id="edge17" class="edge"><title>start_attributes&#45;&gt;&#39;{&#39;</title>
<path fill="none" stroke="grey" d="M464.317,-112.81C481.486,-100.674 504.68,-84.2781 523.443,-71.0144"/>
<polygon fill="grey" stroke="grey" points="525.569,-73.7977 531.715,-65.1673 521.528,-68.0816 525.569,-73.7977"/>
</g>
<!-- &#39;}&#39; -->
<g id="node18" class="node"><title>&#39;}&#39;</title>
<polygon fill="none" stroke="black" points="351,-65 297,-65 297,-29 351,-29 351,-65"/>
<text text-anchor="middle" x="324" y="-43.3" font-family="Times,serif" font-size="14.00">&#39;}&#39;</text>
</g>
<!-- end_attributes&#45;&gt;&#39;}&#39; -->
<g id="edge19" class="edge"><title>end_attributes&#45;&gt;&#39;}&#39;</title>
<path fill="none" stroke="grey" d="M326.364,-112.61C325.967,-101.774 325.449,-87.6012 324.998,-75.2913"/>
<polygon fill="grey" stroke="grey" points="328.488,-74.9492 324.625,-65.0838 321.493,-75.2052 328.488,-74.9492"/>
</g>
<!-- edge_statement -->
<g id="node21" class="node"><title>edge_statement</title>
<polygon fill="none" stroke="black" points="528.25,-371 427.75,-371 427.75,-335 528.25,-335 528.25,-371"/>
<text text-anchor="middle" x="478" y="-349.3" font-family="Times,serif" font-size="14.00">edge_statement</text>
</g>
<!-- edge_definition&#45;&gt;edge_statement -->
<g id="edge23" class="edge"><title>edge_definition&#45;&gt;edge_statement</title>
<path fill="none" stroke="grey" d="M472.239,-412.754C471.248,-403.426 471.002,-391.691 471.5,-381.165"/>
<polygon fill="grey" stroke="grey" points="474.991,-381.41 472.246,-371.177 468.011,-380.889 474.991,-381.41"/>
</g>
<!-- edge_definition&#45;&gt;edge_statement -->
<g id="edge24" class="edge"><title>edge_definition&#45;&gt;edge_statement</title>
<path fill="none" stroke="grey" d="M483.761,-412.754C484.752,-403.426 484.998,-391.691 484.5,-381.165"/>
<polygon fill="grey" stroke="grey" points="487.989,-380.889 483.754,-371.177 481.009,-381.41 487.989,-380.889"/>
</g>
<!-- edge_definition&#45;&gt;«graph¯definition» -->
<g id="edge37" class="edge"><title>edge_definition&#45;&gt;«graph¯definition»</title>
<path fill="none" stroke="grey" d="M483.387,-449.264C484.87,-462.87 485.143,-482.095 484.206,-497.77"/>
<polygon fill="grey" stroke="grey" points="480.701,-497.688 483.364,-507.942 487.677,-498.265 480.701,-497.688"/>
</g>
<!-- edge_name -->
<g id="node22" class="node"><title>edge_name</title>
<polygon fill="none" stroke="black" points="612.25,-299 533.75,-299 533.75,-263 612.25,-263 612.25,-299"/>
<text text-anchor="middle" x="573" y="-277.3" font-family="Times,serif" font-size="14.00">edge_name</text>
</g>
<!-- edge_statement&#45;&gt;edge_name -->
<g id="edge25" class="edge"><title>edge_statement&#45;&gt;edge_name</title>
<path fill="none" stroke="grey" d="M495.567,-334.697C506.835,-325.711 521.741,-314.614 535.509,-304.924"/>
<polygon fill="grey" stroke="grey" points="537.674,-307.682 543.892,-299.104 533.681,-301.932 537.674,-307.682"/>
</g>
<!-- edge_statement&#45;&gt;edge_name -->
<g id="edge26" class="edge"><title>edge_statement&#45;&gt;edge_name</title>
<path fill="none" stroke="grey" d="M507.137,-334.876C520.02,-326.063 534.961,-315.182 547.41,-305.586"/>
<polygon fill="grey" stroke="grey" points="549.862,-308.112 555.575,-299.19 545.545,-302.602 549.862,-308.112"/>
</g>
<!-- edge_statement&#45;&gt;attribute_definition -->
<g id="edge35" class="edge"><title>edge_statement&#45;&gt;attribute_definition</title>
<path fill="none" stroke="grey" d="M449.623,-334.876C434.456,-325.724 415.595,-314.342 399.261,-304.485"/>
<polygon fill="grey" stroke="grey" points="400.856,-301.36 390.486,-299.19 397.239,-307.353 400.856,-301.36"/>
</g>
<!-- edge_statement&#45;&gt;(&#39;,&#39;) -->
<g id="edge36" class="edge"><title>edge_statement&#45;&gt;(&#39;,&#39;)</title>
<path fill="none" stroke="grey" d="M476.27,-334.697C475.498,-326.983 474.571,-317.712 473.711,-309.112"/>
<polygon fill="grey" stroke="grey" points="477.188,-308.706 472.71,-299.104 470.223,-309.403 477.188,-308.706"/>
</g>
<!-- directed_edge -->
<g id="node23" class="node"><title>directed_edge</title>
<polygon fill="none" stroke="black" points="1024,-227 932,-227 932,-191 1024,-191 1024,-227"/>
<text text-anchor="middle" x="978" y="-205.3" font-family="Times,serif" font-size="14.00">directed_edge</text>
</g>
<!-- edge_name&#45;&gt;directed_edge -->
<g id="edge27" class="edge"><title>edge_name&#45;&gt;directed_edge</title>
<path fill="none" stroke="grey" d="M612.571,-273.161C684.891,-260.661 838.602,-234.094 921.762,-219.72"/>
<polygon fill="grey" stroke="grey" points="922.531,-223.139 931.789,-217.987 921.339,-216.241 922.531,-223.139"/>
</g>
<!-- undirected_edge -->
<g id="node27" class="node"><title>undirected_edge</title>
<polygon fill="none" stroke="black" points="701.5,-227 596.5,-227 596.5,-191 701.5,-191 701.5,-227"/>
<text text-anchor="middle" x="649" y="-205.3" font-family="Times,serif" font-size="14.00">undirected_edge</text>
</g>
<!-- edge_name&#45;&gt;undirected_edge -->
<g id="edge31" class="edge"><title>edge_name&#45;&gt;undirected_edge</title>
<path fill="none" stroke="grey" d="M591.787,-262.697C601.174,-254.05 612.684,-243.449 622.913,-234.027"/>
<polygon fill="grey" stroke="grey" points="625.445,-236.454 630.43,-227.104 620.703,-231.305 625.445,-236.454"/>
</g>
<!-- {event = directed_edge|pause = before} -->
<g id="node24" class="node"><title>{event = directed_edge|pause = before}</title>
<polygon fill="lightblue" stroke="black" points="846.5,-108 846.5,-154 983.5,-154 983.5,-108 846.5,-108"/>
<text text-anchor="middle" x="915" y="-138.8" font-family="Times,serif" font-size="14.00">event = directed_edge</text>
<polyline fill="none" stroke="black" points="846.5,-131 983.5,-131 "/>
<text text-anchor="middle" x="915" y="-115.8" font-family="Times,serif" font-size="14.00">pause = before</text>
</g>
<!-- directed_edge&#45;&gt;{event = directed_edge|pause = before} -->
<g id="edge28" class="edge"><title>directed_edge&#45;&gt;{event = directed_edge|pause = before}</title>
<path fill="none" stroke="grey" d="M963.704,-190.754C956.67,-182.269 947.986,-171.792 939.907,-162.046"/>
<polygon fill="grey" stroke="grey" points="942.389,-159.556 933.312,-154.091 936.999,-164.023 942.389,-159.556"/>
</g>
<!-- {priority = 1} -->
<g id="node25" class="node"><title>{priority = 1}</title>
<polygon fill="lightblue" stroke="black" points="1002,-113 1002,-149 1082,-149 1082,-113 1002,-113"/>
<text text-anchor="middle" x="1042" y="-127.3" font-family="Times,serif" font-size="14.00">priority = 1</text>
</g>
<!-- directed_edge&#45;&gt;{priority = 1} -->
<g id="edge29" class="edge"><title>directed_edge&#45;&gt;{priority = 1}</title>
<path fill="none" stroke="grey" d="M992.523,-190.754C1000.95,-180.746 1011.71,-167.966 1021.05,-156.884"/>
<polygon fill="grey" stroke="grey" points="1023.77,-159.081 1027.53,-149.177 1018.42,-154.572 1023.77,-159.081"/>
</g>
<!-- &#39;&#45;&gt;&#39; -->
<g id="node26" class="node"><title>&#39;&#45;&gt;&#39;</title>
<polygon fill="none" stroke="black" points="1154,-149 1100,-149 1100,-113 1154,-113 1154,-149"/>
<text text-anchor="middle" x="1127" y="-127.3" font-family="Times,serif" font-size="14.00">&#39;&#45;&gt;&#39;</text>
</g>
<!-- directed_edge&#45;&gt;&#39;&#45;&gt;&#39; -->
<g id="edge30" class="edge"><title>directed_edge&#45;&gt;&#39;&#45;&gt;&#39;</title>
<path fill="none" stroke="grey" d="M1017.59,-190.954C1039.56,-181.116 1067.18,-168.122 1091,-155 1091.41,-154.776 1091.81,-154.55 1092.22,-154.321"/>
<polygon fill="grey" stroke="grey" points="1094.04,-157.313 1100.89,-149.235 1090.5,-151.276 1094.04,-157.313"/>
</g>
<!-- {event = undirected_edge|pause = before} -->
<g id="node28" class="node"><title>{event = undirected_edge|pause = before}</title>
<polygon fill="lightblue" stroke="black" points="506.5,-108 506.5,-154 657.5,-154 657.5,-108 506.5,-108"/>
<text text-anchor="middle" x="582" y="-138.8" font-family="Times,serif" font-size="14.00">event = undirected_edge</text>
<polyline fill="none" stroke="black" points="506.5,-131 657.5,-131 "/>
<text text-anchor="middle" x="582" y="-115.8" font-family="Times,serif" font-size="14.00">pause = before</text>
</g>
<!-- undirected_edge&#45;&gt;{event = undirected_edge|pause = before} -->
<g id="edge32" class="edge"><title>undirected_edge&#45;&gt;{event = undirected_edge|pause = before}</title>
<path fill="none" stroke="grey" d="M633.797,-190.754C626.241,-182.184 616.895,-171.582 608.23,-161.754"/>
<polygon fill="grey" stroke="grey" points="610.713,-159.278 601.475,-154.091 605.462,-163.907 610.713,-159.278"/>
</g>
<!-- {priority = 2} -->
<g id="node29" class="node"><title>{priority = 2}</title>
<polygon fill="lightblue" stroke="black" points="676,-113 676,-149 756,-149 756,-113 676,-113"/>
<text text-anchor="middle" x="716" y="-127.3" font-family="Times,serif" font-size="14.00">priority = 2</text>
</g>
<!-- undirected_edge&#45;&gt;{priority = 2} -->
<g id="edge33" class="edge"><title>undirected_edge&#45;&gt;{priority = 2}</title>
<path fill="none" stroke="grey" d="M664.203,-190.754C673.027,-180.746 684.293,-167.966 694.063,-156.884"/>
<polygon fill="grey" stroke="grey" points="696.869,-158.993 700.857,-149.177 691.618,-154.364 696.869,-158.993"/>
</g>
<!-- &#39;&#45;&#45;&#39; -->
<g id="node30" class="node"><title>&#39;&#45;&#45;&#39;</title>
<polygon fill="none" stroke="black" points="828,-149 774,-149 774,-113 828,-113 828,-149"/>
<text text-anchor="middle" x="801" y="-127.3" font-family="Times,serif" font-size="14.00">&#39;&#45;&#45;&#39;</text>
</g>
<!-- undirected_edge&#45;&gt;&#39;&#45;&#45;&#39; -->
<g id="edge34" class="edge"><title>undirected_edge&#45;&gt;&#39;&#45;&#45;&#39;</title>
<path fill="none" stroke="grey" d="M689.943,-190.964C712.466,-181.18 740.692,-168.234 765,-155 765.529,-154.712 766.061,-154.419 766.595,-154.122"/>
<polygon fill="grey" stroke="grey" points="768.441,-157.096 775.305,-149.026 764.907,-151.054 768.441,-157.096"/>
</g>
<!-- {action = [values]|bless = ::lhs} -->
<g id="node32" class="node"><title>{action = [values]|bless = ::lhs}</title>
<polygon fill="lightblue" stroke="black" points="546.5,-408 546.5,-454 655.5,-454 655.5,-408 546.5,-408"/>
<text text-anchor="middle" x="601" y="-438.8" font-family="Times,serif" font-size="14.00">action = [values]</text>
<polyline fill="none" stroke="black" points="546.5,-431 655.5,-431 "/>
<text text-anchor="middle" x="601" y="-415.8" font-family="Times,serif" font-size="14.00">bless = ::lhs</text>
</g>
<!-- :default&#45;&gt;{action = [values]|bless = ::lhs} -->
<g id="edge39" class="edge"><title>:default&#45;&gt;{action = [values]|bless = ::lhs}</title>
<path fill="none" stroke="grey" d="M593.651,-507.942C594.827,-495.79 596.444,-479.08 597.862,-464.427"/>
<polygon fill="grey" stroke="grey" points="601.37,-464.507 598.85,-454.217 594.403,-463.833 601.37,-464.507"/>
</g>
<!-- {whitespace = [\\s]+} -->
<g id="node34" class="node"><title>{whitespace = [\\s]+}</title>
<polygon fill="lightblue" stroke="black" points="673.5,-413 673.5,-449 792.5,-449 792.5,-413 673.5,-413"/>
<text text-anchor="middle" x="733" y="-427.3" font-family="Times,serif" font-size="14.00">whitespace = [\s]+</text>
</g>
<!-- :discard = :discard&#45;&gt;{whitespace = [\\s]+} -->
<g id="edge41" class="edge"><title>:discard = :discard&#45;&gt;{whitespace = [\\s]+}</title>
<path fill="none" stroke="grey" d="M704.42,-507.942C709.568,-494.263 716.889,-474.81 722.832,-459.017"/>
<polygon fill="grey" stroke="grey" points="726.256,-459.856 726.503,-449.264 719.705,-457.391 726.256,-459.856"/>
</g>
</g>
</svg>
