<?xml version="1.0" encoding="UTF-8" standalone="no"?>
<!DOCTYPE svg PUBLIC "-//W3C//DTD SVG 1.1//EN"
 "http://www.w3.org/Graphics/SVG/1.1/DTD/svg11.dtd">
<!-- Generated by graphviz version 2.30.1 (20130611.0131)
 -->
<!-- Title: Perl Pages: 1 -->
<svg width="219pt" height="225pt"
 viewBox="0.00 0.00 219.00 225.00" xmlns="http://www.w3.org/2000/svg" xmlns:xlink="http://www.w3.org/1999/xlink">
<g id="graph0" class="graph" transform="scale(1 1) rotate(0) translate(4 221)">
<title>Perl</title>
<polygon fill="white" stroke="white" points="-4,5 -4,-221 216,-221 216,5 -4,5"/>
<text text-anchor="middle" x="105.5" y="-7.8" font-family="Times,serif" font-size="14.00">stringparser.bnf</text>
<!-- graph_grammar -->
<g id="node1" class="node"><title>graph_grammar</title>
<path fill="lightgreen" stroke="black" d="M75,-170C75,-170 155,-170 155,-170 161,-170 167,-176 167,-182 167,-182 167,-204 167,-204 167,-210 161,-216 155,-216 155,-216 75,-216 75,-216 69,-216 63,-210 63,-204 63,-204 63,-182 63,-182 63,-176 69,-170 75,-170"/>
<text text-anchor="middle" x="115" y="-200.8" font-family="Times,serif" font-size="14.00">:start</text>
<polyline fill="none" stroke="black" points="63,-193 167,-193 "/>
<text text-anchor="middle" x="115" y="-177.8" font-family="Times,serif" font-size="14.00">graph_grammar</text>
</g>
<!-- :default -->
<g id="node2" class="node"><title>:default</title>
<polygon fill="lightblue" stroke="black" points="95.5,-133 38.5,-133 38.5,-97 95.5,-97 95.5,-133"/>
<text text-anchor="middle" x="67" y="-111.3" font-family="Times,serif" font-size="14.00">:default</text>
</g>
<!-- graph_grammar&#45;&gt;:default -->
<g id="edge1" class="edge"><title>graph_grammar&#45;&gt;:default</title>
<path fill="none" stroke="grey" d="M100.858,-169.609C95.3826,-160.939 89.0785,-150.958 83.4056,-141.976"/>
<polygon fill="grey" stroke="grey" points="86.2963,-139.998 77.9971,-133.412 80.3779,-143.736 86.2963,-139.998"/>
</g>
<!-- :discard -->
<g id="node4" class="node"><title>:discard</title>
<polygon fill="lightblue" stroke="black" points="192.25,-133 133.75,-133 133.75,-97 192.25,-97 192.25,-133"/>
<text text-anchor="middle" x="163" y="-111.3" font-family="Times,serif" font-size="14.00">:discard</text>
</g>
<!-- graph_grammar&#45;&gt;:discard -->
<g id="edge3" class="edge"><title>graph_grammar&#45;&gt;:discard</title>
<path fill="none" stroke="grey" d="M129.142,-169.609C134.617,-160.939 140.922,-150.958 146.594,-141.976"/>
<polygon fill="grey" stroke="grey" points="149.622,-143.736 152.003,-133.412 143.704,-139.998 149.622,-143.736"/>
</g>
<!-- :default_1 -->
<g id="node3" class="node"><title>:default_1</title>
<path fill="lightblue" stroke="black" d="M11.5,-24C11.5,-24 104.5,-24 104.5,-24 110.5,-24 116.5,-30 116.5,-36 116.5,-36 116.5,-48 116.5,-48 116.5,-54 110.5,-60 104.5,-60 104.5,-60 11.5,-60 11.5,-60 5.5,-60 -0.5,-54 -0.5,-48 -0.5,-48 -0.5,-36 -0.5,-36 -0.5,-30 5.5,-24 11.5,-24"/>
<text text-anchor="middle" x="58" y="-38.3" font-family="Times,serif" font-size="14.00">action =&gt; [values]</text>
</g>
<!-- :default&#45;&gt;:default_1 -->
<g id="edge2" class="edge"><title>:default&#45;&gt;:default_1</title>
<path fill="none" stroke="grey" d="M64.8214,-96.8129C63.8043,-88.7895 62.5694,-79.0475 61.4313,-70.0691"/>
<polygon fill="grey" stroke="grey" points="64.8884,-69.5093 60.1586,-60.0288 57.944,-70.3896 64.8884,-69.5093"/>
</g>
<!-- whitespace -->
<g id="node5" class="node"><title>whitespace</title>
<polygon fill="lightblue" stroke="black" points="211.25,-60 134.75,-60 134.75,-24 211.25,-24 211.25,-60"/>
<text text-anchor="middle" x="173" y="-38.3" font-family="Times,serif" font-size="14.00">whitespace</text>
</g>
<!-- :discard&#45;&gt;whitespace -->
<g id="edge4" class="edge"><title>:discard&#45;&gt;whitespace</title>
<path fill="none" stroke="grey" d="M165.421,-96.8129C166.551,-88.7895 167.923,-79.0475 169.187,-70.0691"/>
<polygon fill="grey" stroke="grey" points="172.673,-70.4193 170.602,-60.0288 165.741,-69.4429 172.673,-70.4193"/>
</g>
</g>
</svg>
