<?xml version="1.0" encoding="UTF-8" standalone="no"?>
<!DOCTYPE svg PUBLIC "-//W3C//DTD SVG 1.1//EN"
 "http://www.w3.org/Graphics/SVG/1.1/DTD/svg11.dtd">
<!-- Generated by graphviz version 2.30.1 (20130611.0131)
 -->
<!-- Title: Perl Pages: 1 -->
<svg width="989pt" height="653pt"
 viewBox="0.00 0.00 989.00 653.00" xmlns="http://www.w3.org/2000/svg" xmlns:xlink="http://www.w3.org/1999/xlink">
<g id="graph0" class="graph" transform="scale(1 1) rotate(0) translate(4 649)">
<title>Perl</title>
<polygon fill="white" stroke="white" points="-4,5 -4,-649 986,-649 986,5 -4,5"/>
<text text-anchor="middle" x="490.5" y="-7.8" font-family="Times,serif" font-size="14.00">stringparser.bnf</text>
<!-- :default -->
<g id="node1" class="node"><title>:default</title>
<polygon fill="lightblue" stroke="black" points="167.5,-561 110.5,-561 110.5,-525 167.5,-525 167.5,-561"/>
<text text-anchor="middle" x="139" y="-539.3" font-family="Times,serif" font-size="14.00">:default</text>
</g>
<!-- :default_1 -->
<g id="node3" class="node"><title>:default_1</title>
<path fill="lightblue" stroke="black" d="M73.5,-452C73.5,-452 166.5,-452 166.5,-452 172.5,-452 178.5,-458 178.5,-464 178.5,-464 178.5,-476 178.5,-476 178.5,-482 172.5,-488 166.5,-488 166.5,-488 73.5,-488 73.5,-488 67.5,-488 61.5,-482 61.5,-476 61.5,-476 61.5,-464 61.5,-464 61.5,-458 67.5,-452 73.5,-452"/>
<text text-anchor="middle" x="120" y="-466.3" font-family="Times,serif" font-size="14.00">action =&gt; [values]</text>
</g>
<!-- :default&#45;&gt;:default_1 -->
<g id="edge2" class="edge"><title>:default&#45;&gt;:default_1</title>
<path fill="none" stroke="grey" d="M134.401,-524.813C132.23,-516.702 129.59,-506.836 127.166,-497.777"/>
<polygon fill="grey" stroke="grey" points="130.523,-496.784 124.557,-488.029 123.761,-498.594 130.523,-496.784"/>
</g>
<!-- graph_grammar -->
<g id="node2" class="node"><title>graph_grammar</title>
<path fill="lightgreen" stroke="black" d="M195,-598C195,-598 275,-598 275,-598 281,-598 287,-604 287,-610 287,-610 287,-632 287,-632 287,-638 281,-644 275,-644 275,-644 195,-644 195,-644 189,-644 183,-638 183,-632 183,-632 183,-610 183,-610 183,-604 189,-598 195,-598"/>
<text text-anchor="middle" x="235" y="-628.8" font-family="Times,serif" font-size="14.00">:start</text>
<polyline fill="none" stroke="black" points="183,-621 287,-621 "/>
<text text-anchor="middle" x="235" y="-605.8" font-family="Times,serif" font-size="14.00">graph_grammar</text>
</g>
<!-- graph_grammar&#45;&gt;:default -->
<g id="edge1" class="edge"><title>graph_grammar&#45;&gt;:default</title>
<path fill="none" stroke="grey" d="M206.975,-597.813C194.924,-588.273 180.828,-577.114 168.607,-567.439"/>
<polygon fill="grey" stroke="grey" points="170.507,-564.479 160.494,-561.016 166.162,-569.967 170.507,-564.479"/>
</g>
<!-- :discard -->
<g id="node4" class="node"><title>:discard</title>
<polygon fill="lightblue" stroke="black" points="264.25,-561 205.75,-561 205.75,-525 264.25,-525 264.25,-561"/>
<text text-anchor="middle" x="235" y="-539.3" font-family="Times,serif" font-size="14.00">:discard</text>
</g>
<!-- graph_grammar&#45;&gt;:discard -->
<g id="edge3" class="edge"><title>graph_grammar&#45;&gt;:discard</title>
<path fill="none" stroke="grey" d="M235,-597.609C235,-589.481 235,-580.2 235,-571.671"/>
<polygon fill="grey" stroke="grey" points="238.5,-571.412 235,-561.412 231.5,-571.412 238.5,-571.412"/>
</g>
<!-- graph_definition -->
<g id="node16" class="node"><title>graph_definition</title>
<polygon fill="white" stroke="black" points="396.25,-561 289.75,-561 289.75,-525 396.25,-525 396.25,-561"/>
<text text-anchor="middle" x="343" y="-539.3" font-family="Times,serif" font-size="14.00">graph_definition</text>
</g>
<!-- graph_grammar&#45;&gt;graph_definition -->
<g id="edge9" class="edge"><title>graph_grammar&#45;&gt;graph_definition</title>
<path fill="none" stroke="grey" d="M266.528,-597.813C280.346,-588.09 296.554,-576.684 310.483,-566.882"/>
<polygon fill="grey" stroke="grey" points="312.656,-569.633 318.819,-561.016 308.627,-563.909 312.656,-569.633"/>
</g>
<!-- whitespace -->
<g id="node5" class="node"><title>whitespace</title>
<polygon fill="lightblue" stroke="black" points="273.25,-488 196.75,-488 196.75,-452 273.25,-452 273.25,-488"/>
<text text-anchor="middle" x="235" y="-466.3" font-family="Times,serif" font-size="14.00">whitespace</text>
</g>
<!-- :discard&#45;&gt;whitespace -->
<g id="edge4" class="edge"><title>:discard&#45;&gt;whitespace</title>
<path fill="none" stroke="grey" d="M235,-524.813C235,-516.789 235,-507.047 235,-498.069"/>
<polygon fill="grey" stroke="grey" points="238.5,-498.029 235,-488.029 231.5,-498.029 238.5,-498.029"/>
</g>
<!-- [\\s] -->
<g id="node32" class="node"><title>[\\s]</title>
<polygon fill="white" stroke="black" points="262,-415 208,-415 208,-379 262,-379 262,-415"/>
<text text-anchor="middle" x="235" y="-393.3" font-family="Times,serif" font-size="14.00">[\s]</text>
</g>
<!-- whitespace&#45;&gt;[\\s] -->
<g id="edge43" class="edge"><title>whitespace&#45;&gt;[\\s]</title>
<path fill="none" stroke="grey" d="M235,-451.813C235,-443.789 235,-434.047 235,-425.069"/>
<polygon fill="grey" stroke="grey" points="238.5,-425.029 235,-415.029 231.5,-425.029 238.5,-425.029"/>
</g>
<!-- start_node -->
<g id="node6" class="node"><title>start_node</title>
<polygon fill="lightblue" stroke="black" points="171.25,-271 98.75,-271 98.75,-235 171.25,-235 171.25,-271"/>
<text text-anchor="middle" x="135" y="-249.3" font-family="Times,serif" font-size="14.00">start_node</text>
</g>
<!-- :lexeme_2 -->
<g id="node7" class="node"><title>:lexeme_2</title>
<path fill="lightblue" stroke="black" d="M84,-129.5C84,-129.5 186,-129.5 186,-129.5 192,-129.5 198,-135.5 198,-141.5 198,-141.5 198,-186.5 198,-186.5 198,-192.5 192,-198.5 186,-198.5 186,-198.5 84,-198.5 84,-198.5 78,-198.5 72,-192.5 72,-186.5 72,-186.5 72,-141.5 72,-141.5 72,-135.5 78,-129.5 84,-129.5"/>
<text text-anchor="middle" x="135" y="-183.3" font-family="Times,serif" font-size="14.00">:lexeme</text>
<polyline fill="none" stroke="black" points="72,-175.5 198,-175.5 "/>
<text text-anchor="middle" x="135" y="-160.3" font-family="Times,serif" font-size="14.00">pause =&gt; before</text>
<polyline fill="none" stroke="black" points="72,-152.5 198,-152.5 "/>
<text text-anchor="middle" x="135" y="-137.3" font-family="Times,serif" font-size="14.00">event =&gt; start_node</text>
</g>
<!-- start_node&#45;&gt;:lexeme_2 -->
<g id="edge5" class="edge"><title>start_node&#45;&gt;:lexeme_2</title>
<path fill="none" stroke="grey" d="M135,-234.812C135,-227.328 135,-218.18 135,-209.002"/>
<polygon fill="grey" stroke="grey" points="138.5,-208.714 135,-198.714 131.5,-208.714 138.5,-208.714"/>
</g>
<!-- &#39;[&#39; -->
<g id="node23" class="node"><title>&#39;[&#39;</title>
<polygon fill="white" stroke="black" points="54,-182 0,-182 0,-146 54,-146 54,-182"/>
<text text-anchor="middle" x="27" y="-160.3" font-family="Times,serif" font-size="14.00">&#39;[&#39;</text>
</g>
<!-- start_node&#45;&gt;&#39;[&#39; -->
<g id="edge23" class="edge"><title>start_node&#45;&gt;&#39;[&#39;</title>
<path fill="none" stroke="grey" d="M110.105,-234.814C95.9694,-224.776 78.1313,-211.634 63,-199 59.2386,-195.859 55.3674,-192.432 51.6219,-189.001"/>
<polygon fill="grey" stroke="grey" points="53.8792,-186.32 44.1855,-182.044 49.0969,-191.431 53.8792,-186.32"/>
</g>
<!-- end_node -->
<g id="node8" class="node"><title>end_node</title>
<polygon fill="lightblue" stroke="black" points="277.25,-271 208.75,-271 208.75,-235 277.25,-235 277.25,-271"/>
<text text-anchor="middle" x="243" y="-249.3" font-family="Times,serif" font-size="14.00">end_node</text>
</g>
<!-- &#39;]&#39; -->
<g id="node24" class="node"><title>&#39;]&#39;</title>
<polygon fill="white" stroke="black" points="270,-182 216,-182 216,-146 270,-146 270,-182"/>
<text text-anchor="middle" x="243" y="-160.3" font-family="Times,serif" font-size="14.00">&#39;]&#39;</text>
</g>
<!-- end_node&#45;&gt;&#39;]&#39; -->
<g id="edge24" class="edge"><title>end_node&#45;&gt;&#39;]&#39;</title>
<path fill="none" stroke="grey" d="M243,-234.812C243,-222.657 243,-206.114 243,-192.182"/>
<polygon fill="grey" stroke="grey" points="246.5,-192.153 243,-182.153 239.5,-192.153 246.5,-192.153"/>
</g>
<!-- directed_edge -->
<g id="node9" class="node"><title>directed_edge</title>
<polygon fill="lightblue" stroke="black" points="836,-271 744,-271 744,-235 836,-235 836,-271"/>
<text text-anchor="middle" x="790" y="-249.3" font-family="Times,serif" font-size="14.00">directed_edge</text>
</g>
<!-- :lexeme_4 -->
<g id="node10" class="node"><title>:lexeme_4</title>
<path fill="lightblue" stroke="black" d="M847,-129.5C847,-129.5 969,-129.5 969,-129.5 975,-129.5 981,-135.5 981,-141.5 981,-141.5 981,-186.5 981,-186.5 981,-192.5 975,-198.5 969,-198.5 969,-198.5 847,-198.5 847,-198.5 841,-198.5 835,-192.5 835,-186.5 835,-186.5 835,-141.5 835,-141.5 835,-135.5 841,-129.5 847,-129.5"/>
<text text-anchor="middle" x="908" y="-183.3" font-family="Times,serif" font-size="14.00">:lexeme</text>
<polyline fill="none" stroke="black" points="835,-175.5 981,-175.5 "/>
<text text-anchor="middle" x="908" y="-160.3" font-family="Times,serif" font-size="14.00">pause =&gt; before</text>
<polyline fill="none" stroke="black" points="835,-152.5 981,-152.5 "/>
<text text-anchor="middle" x="908" y="-137.3" font-family="Times,serif" font-size="14.00">event =&gt; directed_edge</text>
</g>
<!-- directed_edge&#45;&gt;:lexeme_4 -->
<g id="edge6" class="edge"><title>directed_edge&#45;&gt;:lexeme_4</title>
<path fill="none" stroke="grey" d="M813.313,-234.812C824.991,-226.201 839.658,-215.388 853.936,-204.861"/>
<polygon fill="grey" stroke="grey" points="856.301,-207.466 862.273,-198.714 852.147,-201.832 856.301,-207.466"/>
</g>
<!-- &#39;&#45;\&gt;&#39; -->
<g id="node27" class="node"><title>&#39;&#45;\&gt;&#39;</title>
<polygon fill="white" stroke="black" points="817,-182 763,-182 763,-146 817,-146 817,-182"/>
<text text-anchor="middle" x="790" y="-160.3" font-family="Times,serif" font-size="14.00">&#39;&#45;&gt;&#39;</text>
</g>
<!-- directed_edge&#45;&gt;&#39;&#45;\&gt;&#39; -->
<g id="edge36" class="edge"><title>directed_edge&#45;&gt;&#39;&#45;\&gt;&#39;</title>
<path fill="none" stroke="grey" d="M790,-234.812C790,-222.657 790,-206.114 790,-192.182"/>
<polygon fill="grey" stroke="grey" points="793.5,-192.153 790,-182.153 786.5,-192.153 793.5,-192.153"/>
</g>
<!-- undirected_edge -->
<g id="node11" class="node"><title>undirected_edge</title>
<polygon fill="lightblue" stroke="black" points="605.5,-271 500.5,-271 500.5,-235 605.5,-235 605.5,-271"/>
<text text-anchor="middle" x="553" y="-249.3" font-family="Times,serif" font-size="14.00">undirected_edge</text>
</g>
<!-- :lexeme_5 -->
<g id="node12" class="node"><title>:lexeme_5</title>
<path fill="lightblue" stroke="black" d="M598.5,-129.5C598.5,-129.5 733.5,-129.5 733.5,-129.5 739.5,-129.5 745.5,-135.5 745.5,-141.5 745.5,-141.5 745.5,-186.5 745.5,-186.5 745.5,-192.5 739.5,-198.5 733.5,-198.5 733.5,-198.5 598.5,-198.5 598.5,-198.5 592.5,-198.5 586.5,-192.5 586.5,-186.5 586.5,-186.5 586.5,-141.5 586.5,-141.5 586.5,-135.5 592.5,-129.5 598.5,-129.5"/>
<text text-anchor="middle" x="666" y="-183.3" font-family="Times,serif" font-size="14.00">:lexeme</text>
<polyline fill="none" stroke="black" points="586.5,-175.5 745.5,-175.5 "/>
<text text-anchor="middle" x="666" y="-160.3" font-family="Times,serif" font-size="14.00">pause =&gt; before</text>
<polyline fill="none" stroke="black" points="586.5,-152.5 745.5,-152.5 "/>
<text text-anchor="middle" x="666" y="-137.3" font-family="Times,serif" font-size="14.00">event =&gt; undirected_edge</text>
</g>
<!-- undirected_edge&#45;&gt;:lexeme_5 -->
<g id="edge7" class="edge"><title>undirected_edge&#45;&gt;:lexeme_5</title>
<path fill="none" stroke="grey" d="M575.325,-234.812C586.509,-226.201 600.554,-215.388 614.227,-204.861"/>
<polygon fill="grey" stroke="grey" points="616.422,-207.588 622.21,-198.714 612.151,-202.042 616.422,-207.588"/>
</g>
<!-- &#39;&#45;&#45;&#39; -->
<g id="node28" class="node"><title>&#39;&#45;&#45;&#39;</title>
<polygon fill="white" stroke="black" points="569,-182 515,-182 515,-146 569,-146 569,-182"/>
<text text-anchor="middle" x="542" y="-160.3" font-family="Times,serif" font-size="14.00">&#39;&#45;&#45;&#39;</text>
</g>
<!-- undirected_edge&#45;&gt;&#39;&#45;&#45;&#39; -->
<g id="edge37" class="edge"><title>undirected_edge&#45;&gt;&#39;&#45;&#45;&#39;</title>
<path fill="none" stroke="grey" d="M550.827,-234.812C549.29,-222.657 547.198,-206.114 545.437,-192.182"/>
<polygon fill="grey" stroke="grey" points="548.896,-191.635 544.169,-182.153 541.951,-192.513 548.896,-191.635"/>
</g>
<!-- start_attributes -->
<g id="node13" class="node"><title>start_attributes</title>
<polygon fill="lightblue" stroke="black" points="385.25,-182 288.75,-182 288.75,-146 385.25,-146 385.25,-182"/>
<text text-anchor="middle" x="337" y="-160.3" font-family="Times,serif" font-size="14.00">start_attributes</text>
</g>
<!-- :lexeme_6 -->
<g id="node14" class="node"><title>:lexeme_6</title>
<path fill="lightblue" stroke="black" d="M274,-23.5C274,-23.5 400,-23.5 400,-23.5 406,-23.5 412,-29.5 412,-35.5 412,-35.5 412,-80.5 412,-80.5 412,-86.5 406,-92.5 400,-92.5 400,-92.5 274,-92.5 274,-92.5 268,-92.5 262,-86.5 262,-80.5 262,-80.5 262,-35.5 262,-35.5 262,-29.5 268,-23.5 274,-23.5"/>
<text text-anchor="middle" x="337" y="-77.3" font-family="Times,serif" font-size="14.00">:lexeme</text>
<polyline fill="none" stroke="black" points="262,-69.5 412,-69.5 "/>
<text text-anchor="middle" x="337" y="-54.3" font-family="Times,serif" font-size="14.00">pause =&gt; before</text>
<polyline fill="none" stroke="black" points="262,-46.5 412,-46.5 "/>
<text text-anchor="middle" x="337" y="-31.3" font-family="Times,serif" font-size="14.00">event =&gt; start_attributes</text>
</g>
<!-- start_attributes&#45;&gt;:lexeme_6 -->
<g id="edge8" class="edge"><title>start_attributes&#45;&gt;:lexeme_6</title>
<path fill="none" stroke="grey" d="M337,-145.827C337,-134.108 337,-118.021 337,-102.877"/>
<polygon fill="grey" stroke="grey" points="340.5,-102.609 337,-92.6087 333.5,-102.609 340.5,-102.609"/>
</g>
<!-- &#39;{&#39; -->
<g id="node30" class="node"><title>&#39;{&#39;</title>
<polygon fill="white" stroke="black" points="244,-76 190,-76 190,-40 244,-40 244,-76"/>
<text text-anchor="middle" x="217" y="-54.3" font-family="Times,serif" font-size="14.00">&#39;{&#39;</text>
</g>
<!-- start_attributes&#45;&gt;&#39;{&#39; -->
<g id="edge41" class="edge"><title>start_attributes&#45;&gt;&#39;{&#39;</title>
<path fill="none" stroke="grey" d="M315.635,-145.809C298.471,-131.853 273.873,-111.521 253,-93 249.506,-89.8992 245.872,-86.5827 242.317,-83.2819"/>
<polygon fill="grey" stroke="grey" points="244.428,-80.4631 234.742,-76.1706 239.637,-85.5667 244.428,-80.4631"/>
</g>
<!-- end_attributes -->
<g id="node15" class="node"><title>end_attributes</title>
<polygon fill="lightblue" stroke="black" points="496.25,-182 403.75,-182 403.75,-146 496.25,-146 496.25,-182"/>
<text text-anchor="middle" x="450" y="-160.3" font-family="Times,serif" font-size="14.00">end_attributes</text>
</g>
<!-- &#39;}&#39; -->
<g id="node31" class="node"><title>&#39;}&#39;</title>
<polygon fill="white" stroke="black" points="484,-76 430,-76 430,-40 484,-40 484,-76"/>
<text text-anchor="middle" x="457" y="-54.3" font-family="Times,serif" font-size="14.00">&#39;}&#39;</text>
</g>
<!-- end_attributes&#45;&gt;&#39;}&#39; -->
<g id="edge42" class="edge"><title>end_attributes&#45;&gt;&#39;}&#39;</title>
<path fill="none" stroke="grey" d="M451.156,-145.827C452.245,-129.643 453.895,-105.131 455.164,-86.2733"/>
<polygon fill="grey" stroke="grey" points="458.663,-86.4115 455.842,-76.199 451.679,-85.9413 458.663,-86.4115"/>
</g>
<!-- node_definition -->
<g id="node17" class="node"><title>node_definition</title>
<polygon fill="white" stroke="black" points="393.5,-488 292.5,-488 292.5,-452 393.5,-452 393.5,-488"/>
<text text-anchor="middle" x="343" y="-466.3" font-family="Times,serif" font-size="14.00">node_definition</text>
</g>
<!-- graph_definition&#45;&gt;node_definition -->
<g id="edge10" class="edge"><title>graph_definition&#45;&gt;node_definition</title>
<path fill="none" stroke="grey" d="M337.122,-524.813C336.282,-516.789 336.049,-507.047 336.422,-498.069"/>
<polygon fill="grey" stroke="grey" points="339.918,-498.253 337.138,-488.029 332.936,-497.754 339.918,-498.253"/>
</g>
<!-- edge_definition -->
<g id="node18" class="node"><title>edge_definition</title>
<polygon fill="white" stroke="black" points="531.25,-488 430.75,-488 430.75,-452 531.25,-452 531.25,-488"/>
<text text-anchor="middle" x="481" y="-466.3" font-family="Times,serif" font-size="14.00">edge_definition</text>
</g>
<!-- graph_definition&#45;&gt;edge_definition -->
<g id="edge11" class="edge"><title>graph_definition&#45;&gt;edge_definition</title>
<path fill="none" stroke="grey" d="M370.195,-524.994C388.057,-515.273 411.803,-502.987 432.769,-492.59"/>
<polygon fill="grey" stroke="grey" points="434.439,-495.669 441.866,-488.114 431.349,-489.389 434.439,-495.669"/>
</g>
<!-- node_statement -->
<g id="node19" class="node"><title>node_statement</title>
<polygon fill="white" stroke="black" points="387.5,-415 286.5,-415 286.5,-379 387.5,-379 387.5,-415"/>
<text text-anchor="middle" x="337" y="-393.3" font-family="Times,serif" font-size="14.00">node_statement</text>
</g>
<!-- node_definition&#45;&gt;node_statement -->
<g id="edge12" class="edge"><title>node_definition&#45;&gt;node_statement</title>
<path fill="none" stroke="grey" d="M335.669,-451.813C334.152,-443.789 333.095,-434.047 332.71,-425.069"/>
<polygon fill="grey" stroke="grey" points="336.209,-424.982 332.577,-415.029 329.21,-425.074 336.209,-424.982"/>
</g>
<!-- node_definition&#45;&gt;graph_definition -->
<g id="edge13" class="edge"><title>node_definition&#45;&gt;graph_definition</title>
<path fill="none" stroke="grey" d="M348.862,-488.029C349.709,-496.029 349.95,-505.765 349.585,-514.753"/>
<polygon fill="grey" stroke="grey" points="346.088,-514.592 348.878,-524.813 353.071,-515.083 346.088,-514.592"/>
</g>
<!-- node_definition&#45;&gt;node_statement -->
<g id="edge14" class="edge"><title>node_definition&#45;&gt;node_statement</title>
<path fill="none" stroke="grey" d="M347.426,-451.813C347.587,-443.789 346.997,-434.047 345.865,-425.069"/>
<polygon fill="grey" stroke="grey" points="349.299,-424.371 344.301,-415.029 342.382,-425.449 349.299,-424.371"/>
</g>
<!-- edge_statement -->
<g id="node25" class="node"><title>edge_statement</title>
<polygon fill="white" stroke="black" points="543.25,-415 442.75,-415 442.75,-379 543.25,-379 543.25,-415"/>
<text text-anchor="middle" x="493" y="-393.3" font-family="Times,serif" font-size="14.00">edge_statement</text>
</g>
<!-- edge_definition&#45;&gt;edge_statement -->
<g id="edge25" class="edge"><title>edge_definition&#45;&gt;edge_statement</title>
<path fill="none" stroke="grey" d="M478.027,-451.813C478.549,-443.702 479.987,-433.836 481.909,-424.777"/>
<polygon fill="grey" stroke="grey" points="485.318,-425.571 484.26,-415.029 478.513,-423.929 485.318,-425.571"/>
</g>
<!-- edge_definition&#45;&gt;edge_statement -->
<g id="edge26" class="edge"><title>edge_definition&#45;&gt;edge_statement</title>
<path fill="none" stroke="grey" d="M489.783,-451.813C491.979,-443.789 493.858,-434.047 495.003,-425.069"/>
<polygon fill="grey" stroke="grey" points="498.495,-425.322 495.983,-415.029 491.528,-424.641 498.495,-425.322"/>
</g>
<!-- edge_definition&#45;&gt;graph_definition -->
<g id="edge27" class="edge"><title>edge_definition&#45;&gt;graph_definition</title>
<path fill="none" stroke="grey" d="M453.608,-488.114C435.703,-497.853 411.946,-510.142 391,-520.524"/>
<polygon fill="grey" stroke="grey" points="389.342,-517.439 381.914,-524.994 392.432,-523.72 389.342,-517.439"/>
</g>
<!-- node_name -->
<g id="node20" class="node"><title>node_name</title>
<polygon fill="white" stroke="black" points="283,-343 203,-343 203,-307 283,-307 283,-343"/>
<text text-anchor="middle" x="243" y="-321.3" font-family="Times,serif" font-size="14.00">node_name</text>
</g>
<!-- node_statement&#45;&gt;node_name -->
<g id="edge15" class="edge"><title>node_statement&#45;&gt;node_name</title>
<path fill="none" stroke="grey" d="M313.764,-378.697C301.812,-369.796 287.077,-358.823 274.153,-349.199"/>
<polygon fill="grey" stroke="grey" points="276.08,-346.27 265.969,-343.104 271.899,-351.884 276.08,-346.27"/>
</g>
<!-- attribute_definition -->
<g id="node21" class="node"><title>attribute_definition</title>
<polygon fill="white" stroke="black" points="422.25,-343 301.75,-343 301.75,-307 422.25,-307 422.25,-343"/>
<text text-anchor="middle" x="362" y="-321.3" font-family="Times,serif" font-size="14.00">attribute_definition</text>
</g>
<!-- node_statement&#45;&gt;attribute_definition -->
<g id="edge16" class="edge"><title>node_statement&#45;&gt;attribute_definition</title>
<path fill="none" stroke="grey" d="M343.18,-378.697C345.995,-370.813 349.391,-361.304 352.519,-352.546"/>
<polygon fill="grey" stroke="grey" points="355.824,-353.699 355.891,-343.104 349.232,-351.345 355.824,-353.699"/>
</g>
<!-- node_statement&#45;&gt;node_name -->
<g id="edge17" class="edge"><title>node_statement&#45;&gt;node_name</title>
<path fill="none" stroke="grey" d="M313.764,-378.697C301.812,-369.796 287.077,-358.823 274.153,-349.199"/>
<polygon fill="grey" stroke="grey" points="276.08,-346.27 265.969,-343.104 271.899,-351.884 276.08,-346.27"/>
</g>
<!-- (&#39;,&#39;) -->
<g id="node22" class="node"><title>(&#39;,&#39;)</title>
<polygon fill="white" stroke="black" points="495,-343 441,-343 441,-307 495,-307 495,-343"/>
<text text-anchor="middle" x="468" y="-321.3" font-family="Times,serif" font-size="14.00">(&#39;,&#39;)</text>
</g>
<!-- node_statement&#45;&gt;(&#39;,&#39;) -->
<g id="edge18" class="edge"><title>node_statement&#45;&gt;(&#39;,&#39;)</title>
<path fill="none" stroke="grey" d="M369.046,-378.876C388.01,-368.743 412.087,-355.877 431.743,-345.374"/>
<polygon fill="grey" stroke="grey" points="433.541,-348.382 440.711,-340.582 430.242,-342.208 433.541,-348.382"/>
</g>
<!-- node_statement&#45;&gt;node_statement -->
<g id="edge19" class="edge"><title>node_statement&#45;&gt;node_statement</title>
<path fill="none" stroke="grey" d="M387.711,-403.471C397.803,-402.743 405,-400.586 405,-397 405,-394.759 402.189,-393.076 397.616,-391.951"/>
<polygon fill="grey" stroke="grey" points="398.107,-388.485 387.711,-390.529 397.112,-395.414 398.107,-388.485"/>
</g>
<!-- node_statement&#45;&gt;node_statement -->
<g id="edge20" class="edge"><title>node_statement&#45;&gt;node_statement</title>
<path fill="none" stroke="grey" d="M387.78,-410.46C407.056,-410.979 423,-406.492 423,-397 423,-389.288 412.475,-384.88 398.188,-383.776"/>
<polygon fill="grey" stroke="grey" points="397.857,-380.268 387.78,-383.54 397.698,-387.266 397.857,-380.268"/>
</g>
<!-- node_name&#45;&gt;end_node -->
<g id="edge21" class="edge"><title>node_name&#45;&gt;end_node</title>
<path fill="none" stroke="grey" d="M243,-306.697C243,-298.983 243,-289.712 243,-281.112"/>
<polygon fill="grey" stroke="grey" points="246.5,-281.104 243,-271.104 239.5,-281.104 246.5,-281.104"/>
</g>
<!-- node_name&#45;&gt;start_node -->
<g id="edge22" class="edge"><title>node_name&#45;&gt;start_node</title>
<path fill="none" stroke="grey" d="M216.58,-306.876C202.59,-297.808 185.224,-286.552 170.114,-276.759"/>
<polygon fill="grey" stroke="grey" points="171.817,-273.692 161.521,-271.19 168.009,-279.566 171.817,-273.692"/>
</g>
<!-- attribute_statement -->
<g id="node29" class="node"><title>attribute_statement</title>
<polygon fill="white" stroke="black" points="422.25,-271 301.75,-271 301.75,-235 422.25,-235 422.25,-271"/>
<text text-anchor="middle" x="362" y="-249.3" font-family="Times,serif" font-size="14.00">attribute_statement</text>
</g>
<!-- attribute_definition&#45;&gt;attribute_statement -->
<g id="edge38" class="edge"><title>attribute_definition&#45;&gt;attribute_statement</title>
<path fill="none" stroke="grey" d="M362,-306.697C362,-298.983 362,-289.712 362,-281.112"/>
<polygon fill="grey" stroke="grey" points="365.5,-281.104 362,-271.104 358.5,-281.104 365.5,-281.104"/>
</g>
<!-- edge_name -->
<g id="node26" class="node"><title>edge_name</title>
<polygon fill="white" stroke="black" points="592.25,-343 513.75,-343 513.75,-307 592.25,-307 592.25,-343"/>
<text text-anchor="middle" x="553" y="-321.3" font-family="Times,serif" font-size="14.00">edge_name</text>
</g>
<!-- edge_statement&#45;&gt;edge_name -->
<g id="edge28" class="edge"><title>edge_statement&#45;&gt;edge_name</title>
<path fill="none" stroke="grey" d="M507.831,-378.697C515.025,-370.305 523.797,-360.07 531.69,-350.861"/>
<polygon fill="grey" stroke="grey" points="534.489,-352.975 538.339,-343.104 529.174,-348.419 534.489,-352.975"/>
</g>
<!-- edge_statement&#45;&gt;attribute_definition -->
<g id="edge29" class="edge"><title>edge_statement&#45;&gt;attribute_definition</title>
<path fill="none" stroke="grey" d="M460.954,-378.876C443.508,-369.554 421.735,-357.919 403.057,-347.939"/>
<polygon fill="grey" stroke="grey" points="404.639,-344.816 394.169,-343.19 401.34,-350.99 404.639,-344.816"/>
</g>
<!-- edge_statement&#45;&gt;edge_name -->
<g id="edge30" class="edge"><title>edge_statement&#45;&gt;edge_name</title>
<path fill="none" stroke="grey" d="M507.831,-378.697C515.025,-370.305 523.797,-360.07 531.69,-350.861"/>
<polygon fill="grey" stroke="grey" points="534.489,-352.975 538.339,-343.104 529.174,-348.419 534.489,-352.975"/>
</g>
<!-- edge_statement&#45;&gt;(&#39;,&#39;) -->
<g id="edge31" class="edge"><title>edge_statement&#45;&gt;(&#39;,&#39;)</title>
<path fill="none" stroke="grey" d="M486.82,-378.697C484.005,-370.813 480.609,-361.304 477.481,-352.546"/>
<polygon fill="grey" stroke="grey" points="480.768,-351.345 474.109,-343.104 474.176,-353.699 480.768,-351.345"/>
</g>
<!-- edge_statement&#45;&gt;edge_statement -->
<g id="edge32" class="edge"><title>edge_statement&#45;&gt;edge_statement</title>
<path fill="none" stroke="grey" d="M543.413,-403.493C553.661,-402.785 561,-400.621 561,-397 561,-394.737 558.133,-393.043 553.481,-391.918"/>
<polygon fill="grey" stroke="grey" points="553.802,-388.429 543.413,-390.507 552.831,-395.361 553.802,-388.429"/>
</g>
<!-- edge_statement&#45;&gt;edge_statement -->
<g id="edge33" class="edge"><title>edge_statement&#45;&gt;edge_statement</title>
<path fill="none" stroke="grey" d="M543.351,-410.447C562.819,-411.045 579,-406.562 579,-397 579,-389.156 568.112,-384.73 553.452,-383.723"/>
<polygon fill="grey" stroke="grey" points="553.409,-380.221 543.351,-383.553 553.291,-387.221 553.409,-380.221"/>
</g>
<!-- edge_name&#45;&gt;directed_edge -->
<g id="edge34" class="edge"><title>edge_name&#45;&gt;directed_edge</title>
<path fill="none" stroke="grey" d="M592.402,-312.362C631.071,-300.941 690.42,-283.412 733.987,-270.544"/>
<polygon fill="grey" stroke="grey" points="734.986,-273.898 743.585,-267.709 733.003,-267.185 734.986,-273.898"/>
</g>
<!-- edge_name&#45;&gt;undirected_edge -->
<g id="edge35" class="edge"><title>edge_name&#45;&gt;undirected_edge</title>
<path fill="none" stroke="grey" d="M553,-306.697C553,-298.983 553,-289.712 553,-281.112"/>
<polygon fill="grey" stroke="grey" points="556.5,-281.104 553,-271.104 549.5,-281.104 556.5,-281.104"/>
</g>
<!-- attribute_statement&#45;&gt;end_attributes -->
<g id="edge39" class="edge"><title>attribute_statement&#45;&gt;end_attributes</title>
<path fill="none" stroke="grey" d="M379.386,-234.812C392.524,-221.823 410.732,-203.822 425.368,-189.352"/>
<polygon fill="grey" stroke="grey" points="427.999,-191.672 432.65,-182.153 423.078,-186.694 427.999,-191.672"/>
</g>
<!-- attribute_statement&#45;&gt;start_attributes -->
<g id="edge40" class="edge"><title>attribute_statement&#45;&gt;start_attributes</title>
<path fill="none" stroke="grey" d="M357.061,-234.812C353.534,-222.538 348.721,-205.789 344.693,-191.773"/>
<polygon fill="grey" stroke="grey" points="348.055,-190.797 341.929,-182.153 341.327,-192.73 348.055,-190.797"/>
</g>
</g>
</svg>
