<?xml version="1.0" encoding="UTF-8" standalone="no"?>
<!DOCTYPE svg PUBLIC "-//W3C//DTD SVG 1.1//EN"
 "http://www.w3.org/Graphics/SVG/1.1/DTD/svg11.dtd">
<!-- Generated by graphviz version 2.30.1 (20130611.0131)
 -->
<!-- Title: Perl Pages: 1 -->
<svg width="989pt" height="623pt"
 viewBox="0.00 0.00 989.00 623.00" xmlns="http://www.w3.org/2000/svg" xmlns:xlink="http://www.w3.org/1999/xlink">
<g id="graph0" class="graph" transform="scale(1 1) rotate(0) translate(4 619)">
<title>Perl</title>
<polygon fill="white" stroke="white" points="-4,5 -4,-619 986,-619 986,5 -4,5"/>
<text text-anchor="middle" x="490.5" y="-7.8" font-family="Times,serif" font-size="14.00">stringparser.bnf</text>
<!-- graph_grammar -->
<g id="node1" class="node"><title>graph_grammar</title>
<path fill="lightgreen" stroke="black" d="M376,-568C376,-568 456,-568 456,-568 462,-568 468,-574 468,-580 468,-580 468,-602 468,-602 468,-608 462,-614 456,-614 456,-614 376,-614 376,-614 370,-614 364,-608 364,-602 364,-602 364,-580 364,-580 364,-574 370,-568 376,-568"/>
<text text-anchor="middle" x="416" y="-598.8" font-family="Times,serif" font-size="14.00">:start</text>
<polyline fill="none" stroke="black" points="364,-591 468,-591 "/>
<text text-anchor="middle" x="416" y="-575.8" font-family="Times,serif" font-size="14.00">graph_grammar</text>
</g>
<!-- ꞉default -->
<g id="node2" class="node"><title>꞉default</title>
<polygon fill="lightblue" stroke="black" points="295.5,-529 238.5,-529 238.5,-493 295.5,-493 295.5,-529"/>
<text text-anchor="middle" x="267" y="-507.3" font-family="Times,serif" font-size="14.00">꞉default</text>
</g>
<!-- graph_grammar&#45;&gt;꞉default -->
<g id="edge1" class="edge"><title>graph_grammar&#45;&gt;꞉default</title>
<path fill="none" stroke="grey" d="M373.701,-567.857C351.967,-556.479 325.705,-542.731 304.674,-531.722"/>
<polygon fill="grey" stroke="grey" points="306.195,-528.568 295.712,-527.031 302.948,-534.769 306.195,-528.568"/>
</g>
<!-- ꞉discard -->
<g id="node4" class="node"><title>꞉discard</title>
<polygon fill="lightblue" stroke="black" points="400.25,-529 341.75,-529 341.75,-493 400.25,-493 400.25,-529"/>
<text text-anchor="middle" x="371" y="-507.3" font-family="Times,serif" font-size="14.00">꞉discard</text>
</g>
<!-- graph_grammar&#45;&gt;꞉discard -->
<g id="edge3" class="edge"><title>graph_grammar&#45;&gt;꞉discard</title>
<path fill="none" stroke="grey" d="M403.225,-567.857C397.869,-558.573 391.603,-547.711 386.027,-538.047"/>
<polygon fill="grey" stroke="grey" points="388.974,-536.151 380.945,-529.238 382.911,-539.649 388.974,-536.151"/>
</g>
<!-- ꞉lexeme -->
<g id="node6" class="node"><title>꞉lexeme</title>
<polygon fill="lightblue" stroke="black" points="468.5,-305 409.5,-305 409.5,-269 468.5,-269 468.5,-305"/>
<text text-anchor="middle" x="439" y="-283.3" font-family="Times,serif" font-size="14.00">꞉lexeme</text>
</g>
<!-- graph_grammar&#45;&gt;꞉lexeme -->
<g id="edge15" class="edge"><title>graph_grammar&#45;&gt;꞉lexeme</title>
<path fill="none" stroke="grey" d="M425.272,-567.896C430.898,-552.507 437,-531.353 437,-512 437,-512 437,-512 437,-360 437,-345.199 437.428,-328.694 437.887,-315.224"/>
<polygon fill="grey" stroke="grey" points="441.387,-315.284 438.255,-305.162 434.392,-315.028 441.387,-315.284"/>
<text text-anchor="middle" x="440.5" y="-432.3" font-family="Times,serif" font-size="14.00">6</text>
</g>
<!-- graph_definition -->
<g id="node17" class="node"><title>graph_definition</title>
<polygon fill="white" stroke="black" points="572.25,-529 465.75,-529 465.75,-493 572.25,-493 572.25,-529"/>
<text text-anchor="middle" x="519" y="-507.3" font-family="Times,serif" font-size="14.00">graph_definition</text>
</g>
<!-- graph_grammar&#45;&gt;graph_definition -->
<g id="edge16" class="edge"><title>graph_grammar&#45;&gt;graph_definition</title>
<path fill="none" stroke="grey" d="M445.24,-567.857C458.637,-557.712 474.522,-545.682 488.114,-535.39"/>
<polygon fill="grey" stroke="grey" points="490.378,-538.066 496.237,-529.238 486.152,-532.485 490.378,-538.066"/>
</g>
<!-- ꞉default_1 -->
<g id="node3" class="node"><title>꞉default_1</title>
<path fill="lightblue" stroke="black" d="M200.5,-418C200.5,-418 293.5,-418 293.5,-418 299.5,-418 305.5,-424 305.5,-430 305.5,-430 305.5,-442 305.5,-442 305.5,-448 299.5,-454 293.5,-454 293.5,-454 200.5,-454 200.5,-454 194.5,-454 188.5,-448 188.5,-442 188.5,-442 188.5,-430 188.5,-430 188.5,-424 194.5,-418 200.5,-418"/>
<text text-anchor="middle" x="247" y="-432.3" font-family="Times,serif" font-size="14.00">action =&gt; [values]</text>
</g>
<!-- ꞉default&#45;&gt;꞉default_1 -->
<g id="edge2" class="edge"><title>꞉default&#45;&gt;꞉default_1</title>
<path fill="none" stroke="grey" d="M262.26,-492.7C259.919,-484.154 257.04,-473.645 254.416,-464.067"/>
<polygon fill="grey" stroke="grey" points="257.724,-462.896 251.706,-454.176 250.973,-464.745 257.724,-462.896"/>
</g>
<!-- whitespace -->
<g id="node5" class="node"><title>whitespace</title>
<polygon fill="lightblue" stroke="black" points="400.25,-454 323.75,-454 323.75,-418 400.25,-418 400.25,-454"/>
<text text-anchor="middle" x="362" y="-432.3" font-family="Times,serif" font-size="14.00">whitespace</text>
</g>
<!-- ꞉discard&#45;&gt;whitespace -->
<g id="edge4" class="edge"><title>꞉discard&#45;&gt;whitespace</title>
<path fill="none" stroke="grey" d="M368.867,-492.7C367.825,-484.245 366.545,-473.869 365.375,-464.373"/>
<polygon fill="grey" stroke="grey" points="368.815,-463.672 364.118,-454.176 361.868,-464.529 368.815,-463.672"/>
</g>
<!-- [\\s] -->
<g id="node33" class="node"><title>[\\s]</title>
<polygon fill="white" stroke="black" points="389,-379 335,-379 335,-343 389,-343 389,-379"/>
<text text-anchor="middle" x="362" y="-357.3" font-family="Times,serif" font-size="14.00">[\s]</text>
</g>
<!-- whitespace&#45;&gt;[\\s] -->
<g id="edge50" class="edge"><title>whitespace&#45;&gt;[\\s]</title>
<path fill="none" stroke="grey" d="M362,-417.7C362,-409.245 362,-398.869 362,-389.373"/>
<polygon fill="grey" stroke="grey" points="365.5,-389.176 362,-379.176 358.5,-389.176 365.5,-389.176"/>
</g>
<!-- start_node -->
<g id="node7" class="node"><title>start_node</title>
<polygon fill="lightblue" stroke="black" points="244.25,-231 171.75,-231 171.75,-195 244.25,-195 244.25,-231"/>
<text text-anchor="middle" x="208" y="-209.3" font-family="Times,serif" font-size="14.00">start_node</text>
</g>
<!-- ꞉lexeme&#45;&gt;start_node -->
<g id="edge5" class="edge"><title>꞉lexeme&#45;&gt;start_node</title>
<path fill="none" stroke="grey" d="M409.375,-275.255C403.314,-273.128 396.966,-270.952 391,-269 344.743,-253.867 291.403,-238.016 254.291,-227.24"/>
<polygon fill="grey" stroke="grey" points="254.851,-223.758 244.273,-224.34 252.905,-230.482 254.851,-223.758"/>
</g>
<!-- end_node -->
<g id="node9" class="node"><title>end_node</title>
<polygon fill="lightblue" stroke="black" points="367.25,-231 298.75,-231 298.75,-195 367.25,-195 367.25,-231"/>
<text text-anchor="middle" x="333" y="-209.3" font-family="Times,serif" font-size="14.00">end_node</text>
</g>
<!-- ꞉lexeme&#45;&gt;end_node -->
<g id="edge7" class="edge"><title>꞉lexeme&#45;&gt;end_node</title>
<path fill="none" stroke="grey" d="M413.879,-268.937C399.857,-259.412 382.194,-247.415 366.955,-237.063"/>
<polygon fill="grey" stroke="grey" points="368.546,-233.914 358.308,-231.19 364.613,-239.704 368.546,-233.914"/>
</g>
<!-- directed_edge -->
<g id="node10" class="node"><title>directed_edge</title>
<polygon fill="lightblue" stroke="black" points="858,-231 766,-231 766,-195 858,-195 858,-231"/>
<text text-anchor="middle" x="812" y="-209.3" font-family="Times,serif" font-size="14.00">directed_edge</text>
</g>
<!-- ꞉lexeme&#45;&gt;directed_edge -->
<g id="edge8" class="edge"><title>꞉lexeme&#45;&gt;directed_edge</title>
<path fill="none" stroke="grey" d="M468.718,-272.734C472.471,-271.34 476.293,-270.051 480,-269 531.104,-254.506 663.623,-239.854 716,-231 728.774,-228.841 742.491,-226.453 755.445,-224.166"/>
<polygon fill="grey" stroke="grey" points="756.402,-227.551 765.638,-222.361 755.181,-220.659 756.402,-227.551"/>
</g>
<!-- undirected_edge -->
<g id="node12" class="node"><title>undirected_edge</title>
<polygon fill="lightblue" stroke="black" points="491.5,-231 386.5,-231 386.5,-195 491.5,-195 491.5,-231"/>
<text text-anchor="middle" x="439" y="-209.3" font-family="Times,serif" font-size="14.00">undirected_edge</text>
</g>
<!-- ꞉lexeme&#45;&gt;undirected_edge -->
<g id="edge10" class="edge"><title>꞉lexeme&#45;&gt;undirected_edge</title>
<path fill="none" stroke="grey" d="M439,-268.937C439,-260.807 439,-250.876 439,-241.705"/>
<polygon fill="grey" stroke="grey" points="442.5,-241.441 439,-231.441 435.5,-241.441 442.5,-241.441"/>
</g>
<!-- start_attributes -->
<g id="node14" class="node"><title>start_attributes</title>
<polygon fill="lightblue" stroke="black" points="744.25,-151 647.75,-151 647.75,-115 744.25,-115 744.25,-151"/>
<text text-anchor="middle" x="696" y="-129.3" font-family="Times,serif" font-size="14.00">start_attributes</text>
</g>
<!-- ꞉lexeme&#45;&gt;start_attributes -->
<g id="edge12" class="edge"><title>꞉lexeme&#45;&gt;start_attributes</title>
<path fill="none" stroke="grey" d="M468.58,-268.785C486.334,-258.242 509.234,-244.266 529,-231 551.439,-215.941 555.038,-209.248 578,-195 601.061,-180.69 627.857,-166.645 650.081,-155.646"/>
<polygon fill="grey" stroke="grey" points="651.862,-158.671 659.301,-151.127 648.781,-152.386 651.862,-158.671"/>
</g>
<!-- end_attributes -->
<g id="node16" class="node"><title>end_attributes</title>
<polygon fill="lightblue" stroke="black" points="629.25,-151 536.75,-151 536.75,-115 629.25,-115 629.25,-151"/>
<text text-anchor="middle" x="583" y="-129.3" font-family="Times,serif" font-size="14.00">end_attributes</text>
</g>
<!-- ꞉lexeme&#45;&gt;end_attributes -->
<g id="edge14" class="edge"><title>꞉lexeme&#45;&gt;end_attributes</title>
<path fill="none" stroke="grey" d="M459.587,-268.988C471.811,-258.516 487.344,-244.544 500,-231 521.611,-207.873 523.291,-198.938 544,-175 548.664,-169.609 553.817,-163.98 558.808,-158.681"/>
<polygon fill="grey" stroke="grey" points="561.556,-160.871 565.927,-151.22 556.491,-156.039 561.556,-160.871"/>
</g>
<!-- ꞉lexeme_1 -->
<g id="node8" class="node"><title>꞉lexeme_1</title>
<path fill="lightblue" stroke="black" d="M12,-110C12,-110 114,-110 114,-110 120,-110 126,-116 126,-122 126,-122 126,-144 126,-144 126,-150 120,-156 114,-156 114,-156 12,-156 12,-156 6,-156 0,-150 0,-144 0,-144 0,-122 0,-122 0,-116 6,-110 12,-110"/>
<text text-anchor="middle" x="63" y="-140.8" font-family="Times,serif" font-size="14.00">event =&gt; start_node</text>
<polyline fill="none" stroke="black" points="0,-133 126,-133 "/>
<text text-anchor="middle" x="63" y="-117.8" font-family="Times,serif" font-size="14.00">pause =&gt; before</text>
</g>
<!-- start_node&#45;&gt;꞉lexeme_1 -->
<g id="edge6" class="edge"><title>start_node&#45;&gt;꞉lexeme_1</title>
<path fill="none" stroke="grey" d="M176.179,-194.883C157.734,-184.96 134.095,-172.244 113.195,-161.001"/>
<polygon fill="grey" stroke="grey" points="114.587,-157.776 104.122,-156.121 111.271,-163.941 114.587,-157.776"/>
</g>
<!-- &#39;[&#39; -->
<g id="node24" class="node"><title>&#39;[&#39;</title>
<polygon fill="white" stroke="black" points="198,-151 144,-151 144,-115 198,-115 198,-151"/>
<text text-anchor="middle" x="171" y="-129.3" font-family="Times,serif" font-size="14.00">&#39;[&#39;</text>
</g>
<!-- start_node&#45;&gt;&#39;[&#39; -->
<g id="edge30" class="edge"><title>start_node&#45;&gt;&#39;[&#39;</title>
<path fill="none" stroke="grey" d="M199.789,-194.689C194.998,-184.591 188.859,-171.648 183.481,-160.31"/>
<polygon fill="grey" stroke="grey" points="186.637,-158.797 179.189,-151.262 180.312,-161.797 186.637,-158.797"/>
</g>
<!-- &#39;]&#39; -->
<g id="node25" class="node"><title>&#39;]&#39;</title>
<polygon fill="white" stroke="black" points="270,-151 216,-151 216,-115 270,-115 270,-151"/>
<text text-anchor="middle" x="243" y="-129.3" font-family="Times,serif" font-size="14.00">&#39;]&#39;</text>
</g>
<!-- end_node&#45;&gt;&#39;]&#39; -->
<g id="edge31" class="edge"><title>end_node&#45;&gt;&#39;]&#39;</title>
<path fill="none" stroke="grey" d="M313.026,-194.689C300.558,-183.884 284.333,-169.822 270.64,-157.955"/>
<polygon fill="grey" stroke="grey" points="272.767,-155.167 262.918,-151.262 268.183,-160.457 272.767,-155.167"/>
</g>
<!-- ꞉lexeme_3 -->
<g id="node11" class="node"><title>꞉lexeme_3</title>
<path fill="lightblue" stroke="black" d="M775,-110C775,-110 897,-110 897,-110 903,-110 909,-116 909,-122 909,-122 909,-144 909,-144 909,-150 903,-156 897,-156 897,-156 775,-156 775,-156 769,-156 763,-150 763,-144 763,-144 763,-122 763,-122 763,-116 769,-110 775,-110"/>
<text text-anchor="middle" x="836" y="-140.8" font-family="Times,serif" font-size="14.00">event =&gt; directed_edge</text>
<polyline fill="none" stroke="black" points="763,-133 909,-133 "/>
<text text-anchor="middle" x="836" y="-117.8" font-family="Times,serif" font-size="14.00">pause =&gt; before</text>
</g>
<!-- directed_edge&#45;&gt;꞉lexeme_3 -->
<g id="edge9" class="edge"><title>directed_edge&#45;&gt;꞉lexeme_3</title>
<path fill="none" stroke="grey" d="M817.326,-194.689C819.957,-186.139 823.215,-175.55 826.27,-165.623"/>
<polygon fill="grey" stroke="grey" points="829.63,-166.603 829.226,-156.016 822.94,-164.545 829.63,-166.603"/>
</g>
<!-- &#39;&#45;\&gt;&#39; -->
<g id="node28" class="node"><title>&#39;&#45;\&gt;&#39;</title>
<polygon fill="white" stroke="black" points="981,-151 927,-151 927,-115 981,-115 981,-151"/>
<text text-anchor="middle" x="954" y="-129.3" font-family="Times,serif" font-size="14.00">&#39;&#45;&gt;&#39;</text>
</g>
<!-- directed_edge&#45;&gt;&#39;&#45;\&gt;&#39; -->
<g id="edge43" class="edge"><title>directed_edge&#45;&gt;&#39;&#45;\&gt;&#39;</title>
<path fill="none" stroke="grey" d="M846.794,-194.938C867.688,-184.448 894.658,-170.476 918,-157 918.401,-156.768 918.805,-156.534 919.21,-156.298"/>
<polygon fill="grey" stroke="grey" points="921.063,-159.267 927.822,-151.109 917.45,-153.272 921.063,-159.267"/>
</g>
<!-- ꞉lexeme_4 -->
<g id="node13" class="node"><title>꞉lexeme_4</title>
<path fill="lightblue" stroke="black" d="M371.5,-110C371.5,-110 506.5,-110 506.5,-110 512.5,-110 518.5,-116 518.5,-122 518.5,-122 518.5,-144 518.5,-144 518.5,-150 512.5,-156 506.5,-156 506.5,-156 371.5,-156 371.5,-156 365.5,-156 359.5,-150 359.5,-144 359.5,-144 359.5,-122 359.5,-122 359.5,-116 365.5,-110 371.5,-110"/>
<text text-anchor="middle" x="439" y="-140.8" font-family="Times,serif" font-size="14.00">event =&gt; undirected_edge</text>
<polyline fill="none" stroke="black" points="359.5,-133 518.5,-133 "/>
<text text-anchor="middle" x="439" y="-117.8" font-family="Times,serif" font-size="14.00">pause =&gt; before</text>
</g>
<!-- undirected_edge&#45;&gt;꞉lexeme_4 -->
<g id="edge11" class="edge"><title>undirected_edge&#45;&gt;꞉lexeme_4</title>
<path fill="none" stroke="grey" d="M439,-194.689C439,-186.317 439,-175.99 439,-166.244"/>
<polygon fill="grey" stroke="grey" points="442.5,-166.016 439,-156.016 435.5,-166.016 442.5,-166.016"/>
</g>
<!-- &#39;&#45;&#45;&#39; -->
<g id="node29" class="node"><title>&#39;&#45;&#45;&#39;</title>
<polygon fill="white" stroke="black" points="342,-151 288,-151 288,-115 342,-115 342,-151"/>
<text text-anchor="middle" x="315" y="-129.3" font-family="Times,serif" font-size="14.00">&#39;&#45;&#45;&#39;</text>
</g>
<!-- undirected_edge&#45;&gt;&#39;&#45;&#45;&#39; -->
<g id="edge44" class="edge"><title>undirected_edge&#45;&gt;&#39;&#45;&#45;&#39;</title>
<path fill="none" stroke="grey" d="M410.816,-194.859C393.249,-184.107 370.218,-169.887 350,-157 349.816,-156.883 349.632,-156.765 349.447,-156.647"/>
<polygon fill="grey" stroke="grey" points="351.242,-153.64 340.941,-151.162 347.449,-159.523 351.242,-153.64"/>
</g>
<!-- ꞉lexeme_5 -->
<g id="node15" class="node"><title>꞉lexeme_5</title>
<path fill="lightblue" stroke="black" d="M633,-24C633,-24 759,-24 759,-24 765,-24 771,-30 771,-36 771,-36 771,-58 771,-58 771,-64 765,-70 759,-70 759,-70 633,-70 633,-70 627,-70 621,-64 621,-58 621,-58 621,-36 621,-36 621,-30 627,-24 633,-24"/>
<text text-anchor="middle" x="696" y="-54.8" font-family="Times,serif" font-size="14.00">event =&gt; start_attributes</text>
<polyline fill="none" stroke="black" points="621,-47 771,-47 "/>
<text text-anchor="middle" x="696" y="-31.8" font-family="Times,serif" font-size="14.00">pause =&gt; before</text>
</g>
<!-- start_attributes&#45;&gt;꞉lexeme_5 -->
<g id="edge13" class="edge"><title>start_attributes&#45;&gt;꞉lexeme_5</title>
<path fill="none" stroke="grey" d="M696,-114.595C696,-104.735 696,-92.0822 696,-80.4588"/>
<polygon fill="grey" stroke="grey" points="699.5,-80.1833 696,-70.1833 692.5,-80.1834 699.5,-80.1833"/>
</g>
<!-- &#39;{&#39; -->
<g id="node31" class="node"><title>&#39;{&#39;</title>
<polygon fill="white" stroke="black" points="843,-65 789,-65 789,-29 843,-29 843,-65"/>
<text text-anchor="middle" x="816" y="-43.3" font-family="Times,serif" font-size="14.00">&#39;{&#39;</text>
</g>
<!-- start_attributes&#45;&gt;&#39;{&#39; -->
<g id="edge48" class="edge"><title>start_attributes&#45;&gt;&#39;{&#39;</title>
<path fill="none" stroke="grey" d="M720.573,-114.799C738.612,-102.172 763.306,-84.8855 783.055,-71.0616"/>
<polygon fill="grey" stroke="grey" points="785.274,-73.7803 791.46,-65.1783 781.26,-68.0457 785.274,-73.7803"/>
</g>
<!-- &#39;}&#39; -->
<g id="node32" class="node"><title>&#39;}&#39;</title>
<polygon fill="white" stroke="black" points="603,-65 549,-65 549,-29 603,-29 603,-65"/>
<text text-anchor="middle" x="576" y="-43.3" font-family="Times,serif" font-size="14.00">&#39;}&#39;</text>
</g>
<!-- end_attributes&#45;&gt;&#39;}&#39; -->
<g id="edge49" class="edge"><title>end_attributes&#45;&gt;&#39;}&#39;</title>
<path fill="none" stroke="grey" d="M581.55,-114.595C580.605,-103.257 579.352,-88.2271 578.276,-75.3153"/>
<polygon fill="grey" stroke="grey" points="581.743,-74.7699 577.425,-65.0952 574.767,-75.3513 581.743,-74.7699"/>
</g>
<!-- node_definition -->
<g id="node18" class="node"><title>node_definition</title>
<polygon fill="white" stroke="black" points="567.5,-454 466.5,-454 466.5,-418 567.5,-418 567.5,-454"/>
<text text-anchor="middle" x="517" y="-432.3" font-family="Times,serif" font-size="14.00">node_definition</text>
</g>
<!-- graph_definition&#45;&gt;node_definition -->
<g id="edge17" class="edge"><title>graph_definition&#45;&gt;node_definition</title>
<path fill="none" stroke="grey" d="M512.686,-492.7C511.57,-484.245 511.046,-473.869 511.191,-464.373"/>
<polygon fill="grey" stroke="grey" points="514.697,-464.321 511.644,-454.176 507.704,-464.011 514.697,-464.321"/>
</g>
<!-- edge_definition -->
<g id="node19" class="node"><title>edge_definition</title>
<polygon fill="white" stroke="black" points="705.25,-454 604.75,-454 604.75,-418 705.25,-418 705.25,-454"/>
<text text-anchor="middle" x="655" y="-432.3" font-family="Times,serif" font-size="14.00">edge_definition</text>
</g>
<!-- graph_definition&#45;&gt;edge_definition -->
<g id="edge18" class="edge"><title>graph_definition&#45;&gt;edge_definition</title>
<path fill="none" stroke="grey" d="M545.066,-492.885C562.995,-482.68 587.177,-469.626 608.339,-458.702"/>
<polygon fill="grey" stroke="grey" points="610.199,-461.681 617.505,-454.008 607.009,-455.451 610.199,-461.681"/>
</g>
<!-- node_statement -->
<g id="node20" class="node"><title>node_statement</title>
<polygon fill="white" stroke="black" points="566.5,-379 465.5,-379 465.5,-343 566.5,-343 566.5,-379"/>
<text text-anchor="middle" x="516" y="-357.3" font-family="Times,serif" font-size="14.00">node_statement</text>
</g>
<!-- node_definition&#45;&gt;node_statement -->
<g id="edge19" class="edge"><title>node_definition&#45;&gt;node_statement</title>
<path fill="none" stroke="grey" d="M510.923,-417.7C509.922,-409.245 509.541,-398.869 509.816,-389.373"/>
<polygon fill="grey" stroke="grey" points="513.323,-389.362 510.408,-379.176 506.334,-388.956 513.323,-389.362"/>
</g>
<!-- node_definition&#45;&gt;node_statement -->
<g id="edge20" class="edge"><title>node_definition&#45;&gt;node_statement</title>
<path fill="none" stroke="grey" d="M522.603,-417.7C523.372,-409.245 523.469,-398.869 522.934,-389.373"/>
<polygon fill="grey" stroke="grey" points="526.401,-388.841 522.062,-379.176 519.427,-389.438 526.401,-388.841"/>
</g>
<!-- node_definition&#45;&gt;graph_definition -->
<g id="edge21" class="edge"><title>node_definition&#45;&gt;graph_definition</title>
<path fill="none" stroke="grey" d="M523.297,-454.176C524.42,-462.612 524.95,-472.983 524.811,-482.487"/>
<polygon fill="grey" stroke="grey" points="521.305,-482.557 524.366,-492.7 528.298,-482.862 521.305,-482.557"/>
</g>
<!-- edge_statement -->
<g id="node26" class="node"><title>edge_statement</title>
<polygon fill="white" stroke="black" points="722.25,-379 621.75,-379 621.75,-343 722.25,-343 722.25,-379"/>
<text text-anchor="middle" x="672" y="-357.3" font-family="Times,serif" font-size="14.00">edge_statement</text>
</g>
<!-- edge_definition&#45;&gt;edge_statement -->
<g id="edge32" class="edge"><title>edge_definition&#45;&gt;edge_statement</title>
<path fill="none" stroke="grey" d="M653.189,-417.7C654.296,-409.063 656.544,-398.422 659.236,-388.762"/>
<polygon fill="grey" stroke="grey" points="662.59,-389.762 662.173,-379.176 655.897,-387.712 662.59,-389.762"/>
</g>
<!-- edge_definition&#45;&gt;edge_statement -->
<g id="edge33" class="edge"><title>edge_definition&#45;&gt;edge_statement</title>
<path fill="none" stroke="grey" d="M664.869,-417.7C667.753,-409.154 670.436,-398.645 672.242,-389.067"/>
<polygon fill="grey" stroke="grey" points="675.701,-389.604 673.827,-379.176 668.789,-388.496 675.701,-389.604"/>
</g>
<!-- edge_definition&#45;&gt;graph_definition -->
<g id="edge34" class="edge"><title>edge_definition&#45;&gt;graph_definition</title>
<path fill="none" stroke="grey" d="M629.123,-454.008C611.237,-464.193 587.067,-477.244 565.884,-488.183"/>
<polygon fill="grey" stroke="grey" points="564.011,-485.21 556.706,-492.885 567.202,-491.44 564.011,-485.21"/>
</g>
<!-- node_name -->
<g id="node21" class="node"><title>node_name</title>
<polygon fill="white" stroke="black" points="382,-305 302,-305 302,-269 382,-269 382,-305"/>
<text text-anchor="middle" x="342" y="-283.3" font-family="Times,serif" font-size="14.00">node_name</text>
</g>
<!-- node_statement&#45;&gt;node_name -->
<g id="edge22" class="edge"><title>node_statement&#45;&gt;node_name</title>
<path fill="none" stroke="grey" d="M468.925,-342.937C443.343,-332.797 411.943,-319.854 386.734,-309.078"/>
<polygon fill="grey" stroke="grey" points="387.97,-305.8 377.401,-305.065 385.205,-312.231 387.97,-305.8"/>
</g>
<!-- node_statement&#45;&gt;node_name -->
<g id="edge23" class="edge"><title>node_statement&#45;&gt;node_name</title>
<path fill="none" stroke="grey" d="M480.604,-342.937C454.879,-331.803 419.84,-317.291 391.383,-305.979"/>
<polygon fill="grey" stroke="grey" points="392.594,-302.694 382.007,-302.275 390.022,-309.204 392.594,-302.694"/>
</g>
<!-- attribute_definition -->
<g id="node22" class="node"><title>attribute_definition</title>
<polygon fill="white" stroke="black" points="682.25,-305 561.75,-305 561.75,-269 682.25,-269 682.25,-305"/>
<text text-anchor="middle" x="622" y="-283.3" font-family="Times,serif" font-size="14.00">attribute_definition</text>
</g>
<!-- node_statement&#45;&gt;attribute_definition -->
<g id="edge24" class="edge"><title>node_statement&#45;&gt;attribute_definition</title>
<path fill="none" stroke="grey" d="M541.121,-342.937C555.143,-333.412 572.806,-321.415 588.045,-311.063"/>
<polygon fill="grey" stroke="grey" points="590.387,-313.704 596.692,-305.19 586.454,-307.914 590.387,-313.704"/>
</g>
<!-- node_statement&#45;&gt;node_statement -->
<g id="edge25" class="edge"><title>node_statement&#45;&gt;node_statement</title>
<path fill="none" stroke="grey" d="M566.711,-367.471C576.803,-366.743 584,-364.586 584,-361 584,-358.759 581.189,-357.076 576.616,-355.951"/>
<polygon fill="grey" stroke="grey" points="577.107,-352.485 566.711,-354.529 576.112,-359.414 577.107,-352.485"/>
</g>
<!-- (&#39;,&#39;) -->
<g id="node23" class="node"><title>(&#39;,&#39;)</title>
<polygon fill="white" stroke="black" points="543,-305 489,-305 489,-269 543,-269 543,-305"/>
<text text-anchor="middle" x="516" y="-283.3" font-family="Times,serif" font-size="14.00">(&#39;,&#39;)</text>
</g>
<!-- node_statement&#45;&gt;(&#39;,&#39;) -->
<g id="edge26" class="edge"><title>node_statement&#45;&gt;(&#39;,&#39;)</title>
<path fill="none" stroke="grey" d="M516,-342.937C516,-334.807 516,-324.876 516,-315.705"/>
<polygon fill="grey" stroke="grey" points="519.5,-315.441 516,-305.441 512.5,-315.441 519.5,-315.441"/>
</g>
<!-- node_statement&#45;&gt;node_statement -->
<g id="edge27" class="edge"><title>node_statement&#45;&gt;node_statement</title>
<path fill="none" stroke="grey" d="M566.711,-367.471C576.803,-366.743 584,-364.586 584,-361 584,-358.759 581.189,-357.076 576.616,-355.951"/>
<polygon fill="grey" stroke="grey" points="577.107,-352.485 566.711,-354.529 576.112,-359.414 577.107,-352.485"/>
</g>
<!-- node_name&#45;&gt;start_node -->
<g id="edge28" class="edge"><title>node_name&#45;&gt;start_node</title>
<path fill="none" stroke="grey" d="M310.244,-268.937C291.937,-259.101 268.723,-246.627 249.043,-236.053"/>
<polygon fill="grey" stroke="grey" points="250.458,-232.84 239.993,-231.19 247.145,-239.006 250.458,-232.84"/>
</g>
<!-- node_name&#45;&gt;end_node -->
<g id="edge29" class="edge"><title>node_name&#45;&gt;end_node</title>
<path fill="none" stroke="grey" d="M339.867,-268.937C338.84,-260.719 337.583,-250.66 336.426,-241.406"/>
<polygon fill="grey" stroke="grey" points="339.893,-240.929 335.18,-231.441 332.948,-241.798 339.893,-240.929"/>
</g>
<!-- attribute_statement -->
<g id="node30" class="node"><title>attribute_statement</title>
<polygon fill="white" stroke="black" points="707.25,-231 586.75,-231 586.75,-195 707.25,-195 707.25,-231"/>
<text text-anchor="middle" x="647" y="-209.3" font-family="Times,serif" font-size="14.00">attribute_statement</text>
</g>
<!-- attribute_definition&#45;&gt;attribute_statement -->
<g id="edge45" class="edge"><title>attribute_definition&#45;&gt;attribute_statement</title>
<path fill="none" stroke="grey" d="M627.925,-268.937C630.809,-260.63 634.346,-250.444 637.588,-241.108"/>
<polygon fill="grey" stroke="grey" points="640.97,-242.035 640.944,-231.441 634.358,-239.739 640.97,-242.035"/>
</g>
<!-- edge_name -->
<g id="node27" class="node"><title>edge_name</title>
<polygon fill="white" stroke="black" points="779.25,-305 700.75,-305 700.75,-269 779.25,-269 779.25,-305"/>
<text text-anchor="middle" x="740" y="-283.3" font-family="Times,serif" font-size="14.00">edge_name</text>
</g>
<!-- edge_statement&#45;&gt;edge_name -->
<g id="edge35" class="edge"><title>edge_statement&#45;&gt;edge_name</title>
<path fill="none" stroke="grey" d="M682.275,-342.937C689.962,-333.768 700.592,-322.308 710.696,-312.231"/>
<polygon fill="grey" stroke="grey" points="713.199,-314.679 717.912,-305.19 708.31,-309.669 713.199,-314.679"/>
</g>
<!-- edge_statement&#45;&gt;edge_name -->
<g id="edge36" class="edge"><title>edge_statement&#45;&gt;edge_name</title>
<path fill="none" stroke="grey" d="M693.955,-342.937C703.331,-334.012 714.019,-322.916 722.817,-313.037"/>
<polygon fill="grey" stroke="grey" points="725.498,-315.288 729.408,-305.441 720.211,-310.701 725.498,-315.288"/>
</g>
<!-- edge_statement&#45;&gt;attribute_definition -->
<g id="edge37" class="edge"><title>edge_statement&#45;&gt;attribute_definition</title>
<path fill="none" stroke="grey" d="M660.151,-342.937C654.137,-334.277 646.704,-323.573 640.001,-313.921"/>
<polygon fill="grey" stroke="grey" points="642.69,-311.658 634.112,-305.441 636.941,-315.651 642.69,-311.658"/>
</g>
<!-- edge_statement&#45;&gt;edge_statement -->
<g id="edge38" class="edge"><title>edge_statement&#45;&gt;edge_statement</title>
<path fill="none" stroke="grey" d="M722.413,-367.493C732.661,-366.785 740,-364.621 740,-361 740,-358.737 737.133,-357.043 732.481,-355.918"/>
<polygon fill="grey" stroke="grey" points="732.802,-352.429 722.413,-354.507 731.831,-359.361 732.802,-352.429"/>
</g>
<!-- edge_statement&#45;&gt;(&#39;,&#39;) -->
<g id="edge39" class="edge"><title>edge_statement&#45;&gt;(&#39;,&#39;)</title>
<path fill="none" stroke="grey" d="M635.03,-342.937C610.103,-331.432 577.361,-316.321 552.528,-304.859"/>
<polygon fill="grey" stroke="grey" points="553.976,-301.673 543.43,-300.66 551.043,-308.028 553.976,-301.673"/>
</g>
<!-- edge_statement&#45;&gt;edge_statement -->
<g id="edge40" class="edge"><title>edge_statement&#45;&gt;edge_statement</title>
<path fill="none" stroke="grey" d="M722.413,-367.493C732.661,-366.785 740,-364.621 740,-361 740,-358.737 737.133,-357.043 732.481,-355.918"/>
<polygon fill="grey" stroke="grey" points="732.802,-352.429 722.413,-354.507 731.831,-359.361 732.802,-352.429"/>
</g>
<!-- edge_name&#45;&gt;directed_edge -->
<g id="edge41" class="edge"><title>edge_name&#45;&gt;directed_edge</title>
<path fill="none" stroke="grey" d="M757.063,-268.937C766.076,-259.924 777.304,-248.696 787.256,-238.744"/>
<polygon fill="grey" stroke="grey" points="789.963,-240.987 794.559,-231.441 785.013,-236.037 789.963,-240.987"/>
</g>
<!-- edge_name&#45;&gt;undirected_edge -->
<g id="edge42" class="edge"><title>edge_name&#45;&gt;undirected_edge</title>
<path fill="none" stroke="grey" d="M700.548,-271.86C697.332,-270.846 694.12,-269.878 691,-269 627.152,-251.026 552.822,-235.438 501.517,-225.493"/>
<polygon fill="grey" stroke="grey" points="502.054,-222.032 491.573,-223.58 500.732,-228.906 502.054,-222.032"/>
</g>
<!-- attribute_statement&#45;&gt;start_attributes -->
<g id="edge46" class="edge"><title>attribute_statement&#45;&gt;start_attributes</title>
<path fill="none" stroke="grey" d="M657.875,-194.689C664.282,-184.49 672.512,-171.389 679.685,-159.971"/>
<polygon fill="grey" stroke="grey" points="682.8,-161.592 685.156,-151.262 676.872,-157.868 682.8,-161.592"/>
</g>
<!-- attribute_statement&#45;&gt;end_attributes -->
<g id="edge47" class="edge"><title>attribute_statement&#45;&gt;end_attributes</title>
<path fill="none" stroke="grey" d="M632.796,-194.689C624.262,-184.288 613.251,-170.869 603.754,-159.294"/>
<polygon fill="grey" stroke="grey" points="606.213,-156.773 597.164,-151.262 600.801,-161.213 606.213,-156.773"/>
</g>
</g>
</svg>
