<?xml version="1.0" encoding="UTF-8" standalone="no"?>
<!DOCTYPE svg PUBLIC "-//W3C//DTD SVG 1.1//EN"
 "http://www.w3.org/Graphics/SVG/1.1/DTD/svg11.dtd">
<!-- Generated by graphviz version 2.30.1 (20130611.0131)
 -->
<!-- Title: Perl Pages: 1 -->
<svg width="966pt" height="599pt"
 viewBox="0.00 0.00 966.00 599.00" xmlns="http://www.w3.org/2000/svg" xmlns:xlink="http://www.w3.org/1999/xlink">
<g id="graph0" class="graph" transform="scale(1 1) rotate(0) translate(4 595)">
<title>Perl</title>
<polygon fill="white" stroke="white" points="-4,5 -4,-595 963,-595 963,5 -4,5"/>
<text text-anchor="middle" x="479" y="-7.8" font-family="Times,serif" font-size="14.00">stringparser.bnf</text>
<!-- graph_grammar -->
<g id="node1" class="node"><title>graph_grammar</title>
<polygon fill="lightgreen" stroke="black" points="575,-591 471,-591 471,-555 575,-555 575,-591"/>
<text text-anchor="middle" x="523" y="-569.3" font-family="Times,serif" font-size="14.00">graph_grammar</text>
</g>
<!-- {action = graph} -->
<g id="node2" class="node"><title>{action = graph}</title>
<polygon fill="lightblue" stroke="black" points="292,-482 292,-518 388,-518 388,-482 292,-482"/>
<text text-anchor="middle" x="340" y="-496.3" font-family="Times,serif" font-size="14.00">action = graph</text>
</g>
<!-- graph_grammar&#45;&gt;{action = graph} -->
<g id="edge1" class="edge"><title>graph_grammar&#45;&gt;{action = graph}</title>
<path fill="none" stroke="grey" d="M479.167,-554.994C453.439,-545.012 420.735,-532.324 393.496,-521.755"/>
<polygon fill="grey" stroke="grey" points="394.699,-518.468 384.11,-518.114 392.167,-524.994 394.699,-518.468"/>
</g>
<!-- graph_definition -->
<g id="node3" class="node"><title>graph_definition</title>
<polygon fill="none" stroke="black" points="513.25,-518 406.75,-518 406.75,-482 513.25,-482 513.25,-518"/>
<text text-anchor="middle" x="460" y="-496.3" font-family="Times,serif" font-size="14.00">graph_definition</text>
</g>
<!-- graph_grammar&#45;&gt;graph_definition -->
<g id="edge2" class="edge"><title>graph_grammar&#45;&gt;graph_definition</title>
<path fill="none" stroke="grey" d="M507.749,-554.813C500.011,-546.092 490.471,-535.34 481.958,-525.746"/>
<polygon fill="grey" stroke="grey" points="484.365,-523.186 475.11,-518.029 479.129,-527.832 484.365,-523.186"/>
</g>
<!-- :default -->
<g id="node29" class="node"><title>:default</title>
<polygon fill="lightblue" stroke="black" points="531.5,-482 531.5,-518 640.5,-518 640.5,-482 531.5,-482"/>
<text text-anchor="middle" x="586" y="-496.3" font-family="Times,serif" font-size="14.00">action = [values]</text>
</g>
<!-- graph_grammar&#45;&gt;:default -->
<g id="edge36" class="edge"><title>graph_grammar&#45;&gt;:default</title>
<path fill="none" stroke="grey" d="M538.251,-554.813C545.989,-546.092 555.529,-535.34 564.042,-525.746"/>
<polygon fill="grey" stroke="grey" points="566.871,-527.832 570.89,-518.029 561.635,-523.186 566.871,-527.832"/>
</g>
<!-- :discard -->
<g id="node31" class="node"><title>:discard</title>
<polygon fill="lightblue" stroke="black" points="658.5,-482 658.5,-518 773.5,-518 773.5,-482 658.5,-482"/>
<text text-anchor="middle" x="716" y="-496.3" font-family="Times,serif" font-size="14.00">whitespace = [s]+</text>
</g>
<!-- graph_grammar&#45;&gt;:discard -->
<g id="edge38" class="edge"><title>graph_grammar&#45;&gt;:discard</title>
<path fill="none" stroke="grey" d="M569.228,-554.994C596.481,-544.968 631.154,-532.213 659.957,-521.617"/>
<polygon fill="grey" stroke="grey" points="661.303,-524.851 669.48,-518.114 658.886,-518.281 661.303,-524.851"/>
</g>
<!-- node_definition -->
<g id="node4" class="node"><title>node_definition</title>
<polygon fill="none" stroke="black" points="391.5,-444 290.5,-444 290.5,-408 391.5,-408 391.5,-444"/>
<text text-anchor="middle" x="341" y="-422.3" font-family="Times,serif" font-size="14.00">node_definition</text>
</g>
<!-- graph_definition&#45;&gt;node_definition -->
<g id="edge3" class="edge"><title>graph_definition&#45;&gt;node_definition</title>
<path fill="none" stroke="grey" d="M425.959,-481.937C409.049,-472.323 388.834,-460.19 372.312,-449.774"/>
<polygon fill="grey" stroke="grey" points="373.871,-446.617 363.558,-444.19 370.107,-452.518 373.871,-446.617"/>
</g>
<!-- edge_definition -->
<g id="node20" class="node"><title>edge_definition</title>
<polygon fill="none" stroke="black" points="511.25,-444 410.75,-444 410.75,-408 511.25,-408 511.25,-444"/>
<text text-anchor="middle" x="461" y="-422.3" font-family="Times,serif" font-size="14.00">edge_definition</text>
</g>
<!-- graph_definition&#45;&gt;edge_definition -->
<g id="edge22" class="edge"><title>graph_definition&#45;&gt;edge_definition</title>
<path fill="none" stroke="grey" d="M454.397,-481.937C453.639,-473.719 453.534,-463.66 454.043,-454.406"/>
<polygon fill="grey" stroke="grey" points="457.531,-454.698 454.878,-444.441 450.555,-454.113 457.531,-454.698"/>
</g>
<!-- node_statement -->
<g id="node5" class="node"><title>node_statement</title>
<polygon fill="none" stroke="black" points="391.5,-371 290.5,-371 290.5,-335 391.5,-335 391.5,-371"/>
<text text-anchor="middle" x="341" y="-349.3" font-family="Times,serif" font-size="14.00">node_statement</text>
</g>
<!-- node_definition&#45;&gt;node_statement -->
<g id="edge4" class="edge"><title>node_definition&#45;&gt;node_statement</title>
<path fill="none" stroke="grey" d="M335.122,-407.813C334.282,-399.789 334.049,-390.047 334.422,-381.069"/>
<polygon fill="grey" stroke="grey" points="337.918,-381.253 335.138,-371.029 330.936,-380.754 337.918,-381.253"/>
</g>
<!-- node_definition&#45;&gt;node_statement -->
<g id="edge5" class="edge"><title>node_definition&#45;&gt;node_statement</title>
<path fill="none" stroke="grey" d="M346.878,-407.813C347.718,-399.789 347.951,-390.047 347.578,-381.069"/>
<polygon fill="grey" stroke="grey" points="351.064,-380.754 346.862,-371.029 344.082,-381.253 351.064,-380.754"/>
</g>
<!-- node_definition&#45;&gt;graph_definition -->
<g id="edge21" class="edge"><title>node_definition&#45;&gt;graph_definition</title>
<path fill="none" stroke="grey" d="M375.265,-444.19C392.203,-453.826 412.417,-465.962 428.906,-476.364"/>
<polygon fill="grey" stroke="grey" points="427.326,-479.508 437.639,-481.937 431.092,-473.607 427.326,-479.508"/>
</g>
<!-- node_name -->
<g id="node6" class="node"><title>node_name</title>
<polygon fill="none" stroke="black" points="269,-299 189,-299 189,-263 269,-263 269,-299"/>
<text text-anchor="middle" x="229" y="-277.3" font-family="Times,serif" font-size="14.00">node_name</text>
</g>
<!-- node_statement&#45;&gt;node_name -->
<g id="edge6" class="edge"><title>node_statement&#45;&gt;node_name</title>
<path fill="none" stroke="grey" d="M307.705,-334.876C292.248,-325.808 274.081,-314.552 259.046,-304.759"/>
<polygon fill="grey" stroke="grey" points="260.875,-301.773 250.6,-299.19 257.021,-307.617 260.875,-301.773"/>
</g>
<!-- node_statement&#45;&gt;node_name -->
<g id="edge7" class="edge"><title>node_statement&#45;&gt;node_name</title>
<path fill="none" stroke="grey" d="M319.499,-334.876C305.812,-325.724 287.753,-314.342 271.327,-304.485"/>
<polygon fill="grey" stroke="grey" points="272.793,-301.285 262.408,-299.19 269.22,-307.304 272.793,-301.285"/>
</g>
<!-- attribute_definition -->
<g id="node12" class="node"><title>attribute_definition</title>
<polygon fill="none" stroke="black" points="408.25,-299 287.75,-299 287.75,-263 408.25,-263 408.25,-299"/>
<text text-anchor="middle" x="348" y="-277.3" font-family="Times,serif" font-size="14.00">attribute_definition</text>
</g>
<!-- node_statement&#45;&gt;attribute_definition -->
<g id="edge13" class="edge"><title>node_statement&#45;&gt;attribute_definition</title>
<path fill="none" stroke="grey" d="M342.73,-334.697C343.502,-326.983 344.429,-317.712 345.289,-309.112"/>
<polygon fill="grey" stroke="grey" points="348.777,-309.403 346.29,-299.104 341.812,-308.706 348.777,-309.403"/>
</g>
<!-- (&#39;,&#39;) -->
<g id="node19" class="node"><title>(&#39;,&#39;)</title>
<polygon fill="none" stroke="black" points="481,-299 427,-299 427,-263 481,-263 481,-299"/>
<text text-anchor="middle" x="454" y="-277.3" font-family="Times,serif" font-size="14.00">(&#39;,&#39;)</text>
</g>
<!-- node_statement&#45;&gt;(&#39;,&#39;) -->
<g id="edge20" class="edge"><title>node_statement&#45;&gt;(&#39;,&#39;)</title>
<path fill="none" stroke="grey" d="M368.643,-334.876C383.528,-325.655 402.066,-314.172 418.059,-304.265"/>
<polygon fill="grey" stroke="grey" points="419.985,-307.189 426.642,-298.947 416.298,-301.238 419.985,-307.189"/>
</g>
<!-- start_node -->
<g id="node7" class="node"><title>start_node</title>
<polygon fill="none" stroke="black" points="265.25,-227 192.75,-227 192.75,-191 265.25,-191 265.25,-227"/>
<text text-anchor="middle" x="229" y="-205.3" font-family="Times,serif" font-size="14.00">start_node</text>
</g>
<!-- node_name&#45;&gt;start_node -->
<g id="edge8" class="edge"><title>node_name&#45;&gt;start_node</title>
<path fill="none" stroke="grey" d="M229,-262.697C229,-254.983 229,-245.712 229,-237.112"/>
<polygon fill="grey" stroke="grey" points="232.5,-237.104 229,-227.104 225.5,-237.104 232.5,-237.104"/>
</g>
<!-- end_node -->
<g id="node10" class="node"><title>end_node</title>
<polygon fill="none" stroke="black" points="120.25,-227 51.75,-227 51.75,-191 120.25,-191 120.25,-227"/>
<text text-anchor="middle" x="86" y="-205.3" font-family="Times,serif" font-size="14.00">end_node</text>
</g>
<!-- node_name&#45;&gt;end_node -->
<g id="edge11" class="edge"><title>node_name&#45;&gt;end_node</title>
<path fill="none" stroke="grey" d="M194.018,-262.876C174.658,-253.399 150.415,-241.532 129.804,-231.443"/>
<polygon fill="grey" stroke="grey" points="131.141,-228.2 120.621,-226.947 128.063,-234.487 131.141,-228.2"/>
</g>
<!-- {event = start_node|pause = before} -->
<g id="node8" class="node"><title>{event = start_node|pause = before}</title>
<polygon fill="lightblue" stroke="black" points="72,-108 72,-154 190,-154 190,-108 72,-108"/>
<text text-anchor="middle" x="131" y="-138.8" font-family="Times,serif" font-size="14.00">event = start_node</text>
<polyline fill="none" stroke="black" points="72,-131 190,-131 "/>
<text text-anchor="middle" x="131" y="-115.8" font-family="Times,serif" font-size="14.00">pause = before</text>
</g>
<!-- start_node&#45;&gt;{event = start_node|pause = before} -->
<g id="edge9" class="edge"><title>start_node&#45;&gt;{event = start_node|pause = before}</title>
<path fill="none" stroke="grey" d="M206.762,-190.754C195.164,-181.76 180.68,-170.528 167.492,-160.3"/>
<polygon fill="grey" stroke="grey" points="169.533,-157.453 159.486,-154.091 165.243,-162.985 169.533,-157.453"/>
</g>
<!-- &#39;[&#39; -->
<g id="node9" class="node"><title>&#39;[&#39;</title>
<polygon fill="none" stroke="black" points="262,-149 208,-149 208,-113 262,-113 262,-149"/>
<text text-anchor="middle" x="235" y="-127.3" font-family="Times,serif" font-size="14.00">&#39;[&#39;</text>
</g>
<!-- start_node&#45;&gt;&#39;[&#39; -->
<g id="edge10" class="edge"><title>start_node&#45;&gt;&#39;[&#39;</title>
<path fill="none" stroke="grey" d="M230.361,-190.754C231.098,-181.426 232.024,-169.691 232.855,-159.165"/>
<polygon fill="grey" stroke="grey" points="236.346,-159.422 233.644,-149.177 229.368,-158.871 236.346,-159.422"/>
</g>
<!-- &#39;]&#39; -->
<g id="node11" class="node"><title>&#39;]&#39;</title>
<polygon fill="none" stroke="black" points="54,-149 0,-149 0,-113 54,-113 54,-149"/>
<text text-anchor="middle" x="27" y="-127.3" font-family="Times,serif" font-size="14.00">&#39;]&#39;</text>
</g>
<!-- end_node&#45;&gt;&#39;]&#39; -->
<g id="edge12" class="edge"><title>end_node&#45;&gt;&#39;]&#39;</title>
<path fill="none" stroke="grey" d="M72.612,-190.754C64.9176,-180.843 55.1137,-168.214 46.5685,-157.207"/>
<polygon fill="grey" stroke="grey" points="49.232,-154.93 40.335,-149.177 43.7026,-159.223 49.232,-154.93"/>
</g>
<!-- attribute_statement -->
<g id="node13" class="node"><title>attribute_statement</title>
<polygon fill="none" stroke="black" points="408.25,-227 287.75,-227 287.75,-191 408.25,-191 408.25,-227"/>
<text text-anchor="middle" x="348" y="-205.3" font-family="Times,serif" font-size="14.00">attribute_statement</text>
</g>
<!-- attribute_definition&#45;&gt;attribute_statement -->
<g id="edge14" class="edge"><title>attribute_definition&#45;&gt;attribute_statement</title>
<path fill="none" stroke="grey" d="M348,-262.697C348,-254.983 348,-245.712 348,-237.112"/>
<polygon fill="grey" stroke="grey" points="351.5,-237.104 348,-227.104 344.5,-237.104 351.5,-237.104"/>
</g>
<!-- start_attributes -->
<g id="node14" class="node"><title>start_attributes</title>
<polygon fill="none" stroke="black" points="488.25,-149 391.75,-149 391.75,-113 488.25,-113 488.25,-149"/>
<text text-anchor="middle" x="440" y="-127.3" font-family="Times,serif" font-size="14.00">start_attributes</text>
</g>
<!-- attribute_statement&#45;&gt;start_attributes -->
<g id="edge15" class="edge"><title>attribute_statement&#45;&gt;start_attributes</title>
<path fill="none" stroke="grey" d="M368.876,-190.754C381.462,-180.357 397.668,-166.97 411.431,-155.6"/>
<polygon fill="grey" stroke="grey" points="413.726,-158.245 419.206,-149.177 409.268,-152.848 413.726,-158.245"/>
</g>
<!-- end_attributes -->
<g id="node17" class="node"><title>end_attributes</title>
<polygon fill="none" stroke="black" points="373.25,-149 280.75,-149 280.75,-113 373.25,-113 373.25,-149"/>
<text text-anchor="middle" x="327" y="-127.3" font-family="Times,serif" font-size="14.00">end_attributes</text>
</g>
<!-- attribute_statement&#45;&gt;end_attributes -->
<g id="edge18" class="edge"><title>attribute_statement&#45;&gt;end_attributes</title>
<path fill="none" stroke="grey" d="M343.235,-190.754C340.63,-181.329 337.347,-169.446 334.415,-158.837"/>
<polygon fill="grey" stroke="grey" points="337.783,-157.884 331.746,-149.177 331.036,-159.748 337.783,-157.884"/>
</g>
<!-- {event = start_attributes|pause = before} -->
<g id="node15" class="node"><title>{event = start_attributes|pause = before}</title>
<polygon fill="lightblue" stroke="black" points="369,-24 369,-70 511,-70 511,-24 369,-24"/>
<text text-anchor="middle" x="440" y="-54.8" font-family="Times,serif" font-size="14.00">event = start_attributes</text>
<polyline fill="none" stroke="black" points="369,-47 511,-47 "/>
<text text-anchor="middle" x="440" y="-31.8" font-family="Times,serif" font-size="14.00">pause = before</text>
</g>
<!-- start_attributes&#45;&gt;{event = start_attributes|pause = before} -->
<g id="edge16" class="edge"><title>start_attributes&#45;&gt;{event = start_attributes|pause = before}</title>
<path fill="none" stroke="grey" d="M440,-112.61C440,-103.204 440,-91.2845 440,-80.2511"/>
<polygon fill="grey" stroke="grey" points="443.5,-80.0553 440,-70.0554 436.5,-80.0554 443.5,-80.0553"/>
</g>
<!-- &#39;{&#39; -->
<g id="node16" class="node"><title>&#39;{&#39;</title>
<polygon fill="none" stroke="black" points="583,-65 529,-65 529,-29 583,-29 583,-65"/>
<text text-anchor="middle" x="556" y="-43.3" font-family="Times,serif" font-size="14.00">&#39;{&#39;</text>
</g>
<!-- start_attributes&#45;&gt;&#39;{&#39; -->
<g id="edge17" class="edge"><title>start_attributes&#45;&gt;&#39;{&#39;</title>
<path fill="none" stroke="grey" d="M464.317,-112.81C481.486,-100.674 504.68,-84.2781 523.443,-71.0144"/>
<polygon fill="grey" stroke="grey" points="525.569,-73.7977 531.715,-65.1673 521.528,-68.0816 525.569,-73.7977"/>
</g>
<!-- &#39;}&#39; -->
<g id="node18" class="node"><title>&#39;}&#39;</title>
<polygon fill="none" stroke="black" points="351,-65 297,-65 297,-29 351,-29 351,-65"/>
<text text-anchor="middle" x="324" y="-43.3" font-family="Times,serif" font-size="14.00">&#39;}&#39;</text>
</g>
<!-- end_attributes&#45;&gt;&#39;}&#39; -->
<g id="edge19" class="edge"><title>end_attributes&#45;&gt;&#39;}&#39;</title>
<path fill="none" stroke="grey" d="M326.364,-112.61C325.967,-101.774 325.449,-87.6012 324.998,-75.2913"/>
<polygon fill="grey" stroke="grey" points="328.488,-74.9492 324.625,-65.0838 321.493,-75.2052 328.488,-74.9492"/>
</g>
<!-- edge_statement -->
<g id="node21" class="node"><title>edge_statement</title>
<polygon fill="none" stroke="black" points="511.25,-371 410.75,-371 410.75,-335 511.25,-335 511.25,-371"/>
<text text-anchor="middle" x="461" y="-349.3" font-family="Times,serif" font-size="14.00">edge_statement</text>
</g>
<!-- edge_definition&#45;&gt;edge_statement -->
<g id="edge23" class="edge"><title>edge_definition&#45;&gt;edge_statement</title>
<path fill="none" stroke="grey" d="M455.122,-407.813C454.282,-399.789 454.049,-390.047 454.422,-381.069"/>
<polygon fill="grey" stroke="grey" points="457.918,-381.253 455.138,-371.029 450.936,-380.754 457.918,-381.253"/>
</g>
<!-- edge_definition&#45;&gt;edge_statement -->
<g id="edge24" class="edge"><title>edge_definition&#45;&gt;edge_statement</title>
<path fill="none" stroke="grey" d="M466.878,-407.813C467.718,-399.789 467.951,-390.047 467.578,-381.069"/>
<polygon fill="grey" stroke="grey" points="471.064,-380.754 466.862,-371.029 464.082,-381.253 471.064,-380.754"/>
</g>
<!-- edge_definition&#45;&gt;graph_definition -->
<g id="edge35" class="edge"><title>edge_definition&#45;&gt;graph_definition</title>
<path fill="none" stroke="grey" d="M466.637,-444.441C467.367,-452.625 467.46,-462.572 466.95,-471.719"/>
<polygon fill="grey" stroke="grey" points="463.441,-471.675 466.077,-481.937 470.415,-472.271 463.441,-471.675"/>
</g>
<!-- edge_name -->
<g id="node22" class="node"><title>edge_name</title>
<polygon fill="none" stroke="black" points="578.25,-299 499.75,-299 499.75,-263 578.25,-263 578.25,-299"/>
<text text-anchor="middle" x="539" y="-277.3" font-family="Times,serif" font-size="14.00">edge_name</text>
</g>
<!-- edge_statement&#45;&gt;edge_name -->
<g id="edge25" class="edge"><title>edge_statement&#45;&gt;edge_name</title>
<path fill="none" stroke="grey" d="M474.365,-334.697C483.194,-325.965 494.973,-315.24 506.105,-305.75"/>
<polygon fill="grey" stroke="grey" points="508.624,-308.207 514.046,-299.104 504.131,-302.839 508.624,-308.207"/>
</g>
<!-- edge_statement&#45;&gt;edge_name -->
<g id="edge26" class="edge"><title>edge_statement&#45;&gt;edge_name</title>
<path fill="none" stroke="grey" d="M486.197,-334.697C496.62,-326.135 508.478,-315.656 518.38,-306.304"/>
<polygon fill="grey" stroke="grey" points="521.074,-308.569 525.836,-299.104 516.211,-303.533 521.074,-308.569"/>
</g>
<!-- edge_statement&#45;&gt;attribute_definition -->
<g id="edge33" class="edge"><title>edge_statement&#45;&gt;attribute_definition</title>
<path fill="none" stroke="grey" d="M433.357,-334.876C418.582,-325.724 400.209,-314.342 384.297,-304.485"/>
<polygon fill="grey" stroke="grey" points="386.093,-301.481 375.749,-299.19 382.407,-307.431 386.093,-301.481"/>
</g>
<!-- edge_statement&#45;&gt;(&#39;,&#39;) -->
<g id="edge34" class="edge"><title>edge_statement&#45;&gt;(&#39;,&#39;)</title>
<path fill="none" stroke="grey" d="M459.27,-334.697C458.498,-326.983 457.571,-317.712 456.711,-309.112"/>
<polygon fill="grey" stroke="grey" points="460.188,-308.706 455.71,-299.104 453.223,-309.403 460.188,-308.706"/>
</g>
<!-- directed_edge -->
<g id="node23" class="node"><title>directed_edge</title>
<polygon fill="none" stroke="black" points="822,-227 730,-227 730,-191 822,-191 822,-227"/>
<text text-anchor="middle" x="776" y="-205.3" font-family="Times,serif" font-size="14.00">directed_edge</text>
</g>
<!-- edge_name&#45;&gt;directed_edge -->
<g id="edge27" class="edge"><title>edge_name&#45;&gt;directed_edge</title>
<path fill="none" stroke="grey" d="M578.402,-268.362C617.071,-256.941 676.42,-239.412 719.987,-226.544"/>
<polygon fill="grey" stroke="grey" points="720.986,-229.898 729.585,-223.709 719.003,-223.185 720.986,-229.898"/>
</g>
<!-- undirected_edge -->
<g id="node26" class="node"><title>undirected_edge</title>
<polygon fill="none" stroke="black" points="591.5,-227 486.5,-227 486.5,-191 591.5,-191 591.5,-227"/>
<text text-anchor="middle" x="539" y="-205.3" font-family="Times,serif" font-size="14.00">undirected_edge</text>
</g>
<!-- edge_name&#45;&gt;undirected_edge -->
<g id="edge30" class="edge"><title>edge_name&#45;&gt;undirected_edge</title>
<path fill="none" stroke="grey" d="M539,-262.697C539,-254.983 539,-245.712 539,-237.112"/>
<polygon fill="grey" stroke="grey" points="542.5,-237.104 539,-227.104 535.5,-237.104 542.5,-237.104"/>
</g>
<!-- {event = directed_edge|pause = before} -->
<g id="node24" class="node"><title>{event = directed_edge|pause = before}</title>
<polygon fill="lightblue" stroke="black" points="821.5,-108 821.5,-154 958.5,-154 958.5,-108 821.5,-108"/>
<text text-anchor="middle" x="890" y="-138.8" font-family="Times,serif" font-size="14.00">event = directed_edge</text>
<polyline fill="none" stroke="black" points="821.5,-131 958.5,-131 "/>
<text text-anchor="middle" x="890" y="-115.8" font-family="Times,serif" font-size="14.00">pause = before</text>
</g>
<!-- directed_edge&#45;&gt;{event = directed_edge|pause = before} -->
<g id="edge28" class="edge"><title>directed_edge&#45;&gt;{event = directed_edge|pause = before}</title>
<path fill="none" stroke="grey" d="M801.584,-190.944C815.32,-181.786 832.597,-170.269 848.226,-159.85"/>
<polygon fill="grey" stroke="grey" points="850.327,-162.655 856.706,-154.196 846.444,-156.831 850.327,-162.655"/>
</g>
<!-- &#39;&#45;&gt;&#39; -->
<g id="node25" class="node"><title>&#39;&#45;&gt;&#39;</title>
<polygon fill="none" stroke="black" points="803,-149 749,-149 749,-113 803,-113 803,-149"/>
<text text-anchor="middle" x="776" y="-127.3" font-family="Times,serif" font-size="14.00">&#39;&#45;&gt;&#39;</text>
</g>
<!-- directed_edge&#45;&gt;&#39;&#45;&gt;&#39; -->
<g id="edge29" class="edge"><title>directed_edge&#45;&gt;&#39;&#45;&gt;&#39;</title>
<path fill="none" stroke="grey" d="M776,-190.754C776,-181.523 776,-169.935 776,-159.495"/>
<polygon fill="grey" stroke="grey" points="779.5,-159.177 776,-149.177 772.5,-159.177 779.5,-159.177"/>
</g>
<!-- {event = undirected_edge|pause = before} -->
<g id="node27" class="node"><title>{event = undirected_edge|pause = before}</title>
<polygon fill="lightblue" stroke="black" points="579.5,-108 579.5,-154 730.5,-154 730.5,-108 579.5,-108"/>
<text text-anchor="middle" x="655" y="-138.8" font-family="Times,serif" font-size="14.00">event = undirected_edge</text>
<polyline fill="none" stroke="black" points="579.5,-131 730.5,-131 "/>
<text text-anchor="middle" x="655" y="-115.8" font-family="Times,serif" font-size="14.00">pause = before</text>
</g>
<!-- undirected_edge&#45;&gt;{event = undirected_edge|pause = before} -->
<g id="edge31" class="edge"><title>undirected_edge&#45;&gt;{event = undirected_edge|pause = before}</title>
<path fill="none" stroke="grey" d="M565.033,-190.944C579.01,-181.786 596.59,-170.269 612.493,-159.85"/>
<polygon fill="grey" stroke="grey" points="614.675,-162.604 621.122,-154.196 610.839,-156.749 614.675,-162.604"/>
</g>
<!-- &#39;&#45;&#45;&#39; -->
<g id="node28" class="node"><title>&#39;&#45;&#45;&#39;</title>
<polygon fill="none" stroke="black" points="561,-149 507,-149 507,-113 561,-113 561,-149"/>
<text text-anchor="middle" x="534" y="-127.3" font-family="Times,serif" font-size="14.00">&#39;&#45;&#45;&#39;</text>
</g>
<!-- undirected_edge&#45;&gt;&#39;&#45;&#45;&#39; -->
<g id="edge32" class="edge"><title>undirected_edge&#45;&gt;&#39;&#45;&#45;&#39;</title>
<path fill="none" stroke="grey" d="M537.865,-190.754C537.252,-181.426 536.48,-169.691 535.787,-159.165"/>
<polygon fill="grey" stroke="grey" points="539.279,-158.926 535.13,-149.177 532.294,-159.386 539.279,-158.926"/>
</g>
<!-- {action = [values]} -->
<g id="node30" class="node"><title>{action = [values]}</title>
<polygon fill="lightblue" stroke="black" points="531.5,-408 531.5,-444 640.5,-444 640.5,-408 531.5,-408"/>
<text text-anchor="middle" x="586" y="-422.3" font-family="Times,serif" font-size="14.00">action = [values]</text>
</g>
<!-- :default&#45;&gt;{action = [values]} -->
<g id="edge37" class="edge"><title>:default&#45;&gt;{action = [values]}</title>
<path fill="none" stroke="grey" d="M586,-481.937C586,-473.807 586,-463.876 586,-454.705"/>
<polygon fill="grey" stroke="grey" points="589.5,-454.441 586,-444.441 582.5,-454.441 589.5,-454.441"/>
</g>
<!-- {whitespace = [\s]+} -->
<g id="node32" class="node"><title>{whitespace = [\s]+}</title>
<polygon fill="lightblue" stroke="black" points="658.5,-408 658.5,-444 773.5,-444 773.5,-408 658.5,-408"/>
<text text-anchor="middle" x="716" y="-422.3" font-family="Times,serif" font-size="14.00">whitespace = [s]+</text>
</g>
<!-- :discard&#45;&gt;{whitespace = [\s]+} -->
<g id="edge39" class="edge"><title>:discard&#45;&gt;{whitespace = [\s]+}</title>
<path fill="none" stroke="grey" d="M716,-481.937C716,-473.807 716,-463.876 716,-454.705"/>
<polygon fill="grey" stroke="grey" points="719.5,-454.441 716,-444.441 712.5,-454.441 719.5,-454.441"/>
</g>
</g>
</svg>
