<?xml version="1.0" encoding="UTF-8" standalone="no"?>
<!DOCTYPE svg PUBLIC "-//W3C//DTD SVG 1.1//EN"
 "http://www.w3.org/Graphics/SVG/1.1/DTD/svg11.dtd">
<!-- Generated by graphviz version 2.30.1 (20130611.0131)
 -->
<!-- Title: Perl Pages: 1 -->
<svg width="1309pt" height="329pt"
 viewBox="0.00 0.00 1309.00 329.00" xmlns="http://www.w3.org/2000/svg" xmlns:xlink="http://www.w3.org/1999/xlink">
<g id="graph0" class="graph" transform="scale(1 1) rotate(0) translate(4 325)">
<title>Perl</title>
<polygon fill="white" stroke="white" points="-4,5 -4,-325 1306,-325 1306,5 -4,5"/>
<text text-anchor="middle" x="650.5" y="-7.8" font-family="Times,serif" font-size="14.00">stringparser.bnf</text>
<!-- graph_grammar -->
<g id="node1" class="node"><title>graph_grammar</title>
<path fill="lightgreen" stroke="black" d="M133,-274C133,-274 213,-274 213,-274 219,-274 225,-280 225,-286 225,-286 225,-308 225,-308 225,-314 219,-320 213,-320 213,-320 133,-320 133,-320 127,-320 121,-314 121,-308 121,-308 121,-286 121,-286 121,-280 127,-274 133,-274"/>
<text text-anchor="middle" x="173" y="-304.8" font-family="Times,serif" font-size="14.00">:start</text>
<polyline fill="none" stroke="black" points="121,-297 225,-297 "/>
<text text-anchor="middle" x="173" y="-281.8" font-family="Times,serif" font-size="14.00">graph_grammar</text>
</g>
<!-- ꞉default -->
<g id="node2" class="node"><title>꞉default</title>
<polygon fill="lightblue" stroke="black" points="105.5,-221 48.5,-221 48.5,-185 105.5,-185 105.5,-221"/>
<text text-anchor="middle" x="77" y="-199.3" font-family="Times,serif" font-size="14.00">꞉default</text>
</g>
<!-- graph_grammar&#45;&gt;꞉default -->
<g id="edge1" class="edge"><title>graph_grammar&#45;&gt;꞉default</title>
<path fill="none" stroke="grey" d="M149.761,-273.729C135.396,-259.963 116.956,-242.291 102.234,-228.183"/>
<polygon fill="grey" stroke="grey" points="104.558,-225.562 94.9161,-221.17 99.7144,-230.616 104.558,-225.562"/>
</g>
<!-- ꞉discard -->
<g id="node4" class="node"><title>꞉discard</title>
<polygon fill="lightblue" stroke="black" points="202.25,-221 143.75,-221 143.75,-185 202.25,-185 202.25,-221"/>
<text text-anchor="middle" x="173" y="-199.3" font-family="Times,serif" font-size="14.00">꞉discard</text>
</g>
<!-- graph_grammar&#45;&gt;꞉discard -->
<g id="edge3" class="edge"><title>graph_grammar&#45;&gt;꞉discard</title>
<path fill="none" stroke="grey" d="M173,-273.729C173,-260.973 173,-244.864 173,-231.344"/>
<polygon fill="grey" stroke="grey" points="176.5,-231.17 173,-221.17 169.5,-231.17 176.5,-231.17"/>
</g>
<!-- ꞉lexeme -->
<g id="node6" class="node"><title>꞉lexeme</title>
<polygon fill="lightblue" stroke="black" points="483.5,-221 424.5,-221 424.5,-185 483.5,-185 483.5,-221"/>
<text text-anchor="middle" x="454" y="-199.3" font-family="Times,serif" font-size="14.00">꞉lexeme</text>
</g>
<!-- graph_grammar&#45;&gt;꞉lexeme -->
<g id="edge15" class="edge"><title>graph_grammar&#45;&gt;꞉lexeme</title>
<path fill="none" stroke="grey" d="M225.173,-276.106C228.153,-275.039 231.111,-273.997 234,-273 296.663,-251.379 370.315,-228.857 414.517,-215.647"/>
<polygon fill="grey" stroke="grey" points="415.707,-218.945 424.291,-212.735 413.708,-212.236 415.707,-218.945"/>
<text text-anchor="middle" x="340.5" y="-243.3" font-family="Times,serif" font-size="14.00">6</text>
</g>
<!-- ꞉default_1 -->
<g id="node3" class="node"><title>꞉default_1</title>
<path fill="lightblue" stroke="black" d="M11.5,-110C11.5,-110 104.5,-110 104.5,-110 110.5,-110 116.5,-116 116.5,-122 116.5,-122 116.5,-134 116.5,-134 116.5,-140 110.5,-146 104.5,-146 104.5,-146 11.5,-146 11.5,-146 5.5,-146 -0.5,-140 -0.5,-134 -0.5,-134 -0.5,-122 -0.5,-122 -0.5,-116 5.5,-110 11.5,-110"/>
<text text-anchor="middle" x="58" y="-124.3" font-family="Times,serif" font-size="14.00">action =&gt; [values]</text>
</g>
<!-- ꞉default&#45;&gt;꞉default_1 -->
<g id="edge2" class="edge"><title>꞉default&#45;&gt;꞉default_1</title>
<path fill="none" stroke="grey" d="M72.4973,-184.7C70.273,-176.154 67.5379,-165.645 65.0449,-156.067"/>
<polygon fill="grey" stroke="grey" points="68.3765,-154.972 62.4704,-146.176 61.6022,-156.735 68.3765,-154.972"/>
</g>
<!-- whitespace -->
<g id="node5" class="node"><title>whitespace</title>
<polygon fill="lightblue" stroke="black" points="211.25,-146 134.75,-146 134.75,-110 211.25,-110 211.25,-146"/>
<text text-anchor="middle" x="173" y="-124.3" font-family="Times,serif" font-size="14.00">whitespace</text>
</g>
<!-- ꞉discard&#45;&gt;whitespace -->
<g id="edge4" class="edge"><title>꞉discard&#45;&gt;whitespace</title>
<path fill="none" stroke="grey" d="M173,-184.7C173,-176.245 173,-165.869 173,-156.373"/>
<polygon fill="grey" stroke="grey" points="176.5,-156.176 173,-146.176 169.5,-156.176 176.5,-156.176"/>
</g>
<!-- start_node -->
<g id="node7" class="node"><title>start_node</title>
<polygon fill="lightblue" stroke="black" points="302.25,-146 229.75,-146 229.75,-110 302.25,-110 302.25,-146"/>
<text text-anchor="middle" x="266" y="-124.3" font-family="Times,serif" font-size="14.00">start_node</text>
</g>
<!-- ꞉lexeme&#45;&gt;start_node -->
<g id="edge5" class="edge"><title>꞉lexeme&#45;&gt;start_node</title>
<path fill="none" stroke="grey" d="M424.377,-190.738C397.349,-180.434 356.069,-164.625 311.817,-147.3"/>
<polygon fill="grey" stroke="grey" points="312.92,-143.973 302.333,-143.581 310.365,-150.49 312.92,-143.973"/>
</g>
<!-- end_node -->
<g id="node9" class="node"><title>end_node</title>
<polygon fill="lightblue" stroke="black" points="389.25,-146 320.75,-146 320.75,-110 389.25,-110 389.25,-146"/>
<text text-anchor="middle" x="355" y="-124.3" font-family="Times,serif" font-size="14.00">end_node</text>
</g>
<!-- ꞉lexeme&#45;&gt;end_node -->
<g id="edge7" class="edge"><title>꞉lexeme&#45;&gt;end_node</title>
<path fill="none" stroke="grey" d="M430.789,-184.885C417.507,-175.091 400.669,-162.675 386.239,-152.035"/>
<polygon fill="grey" stroke="grey" points="388.191,-149.126 378.066,-146.008 384.037,-154.76 388.191,-149.126"/>
</g>
<!-- directed_edge -->
<g id="node10" class="node"><title>directed_edge</title>
<polygon fill="lightblue" stroke="black" points="500,-146 408,-146 408,-110 500,-110 500,-146"/>
<text text-anchor="middle" x="454" y="-124.3" font-family="Times,serif" font-size="14.00">directed_edge</text>
</g>
<!-- ꞉lexeme&#45;&gt;directed_edge -->
<g id="edge8" class="edge"><title>꞉lexeme&#45;&gt;directed_edge</title>
<path fill="none" stroke="grey" d="M454,-184.7C454,-176.245 454,-165.869 454,-156.373"/>
<polygon fill="grey" stroke="grey" points="457.5,-156.176 454,-146.176 450.5,-156.176 457.5,-156.176"/>
</g>
<!-- undirected_edge -->
<g id="node12" class="node"><title>undirected_edge</title>
<polygon fill="lightblue" stroke="black" points="623.5,-146 518.5,-146 518.5,-110 623.5,-110 623.5,-146"/>
<text text-anchor="middle" x="571" y="-124.3" font-family="Times,serif" font-size="14.00">undirected_edge</text>
</g>
<!-- ꞉lexeme&#45;&gt;undirected_edge -->
<g id="edge10" class="edge"><title>꞉lexeme&#45;&gt;undirected_edge</title>
<path fill="none" stroke="grey" d="M481.431,-184.885C497.421,-174.908 517.773,-162.21 535.035,-151.44"/>
<polygon fill="grey" stroke="grey" points="537.109,-154.271 543.741,-146.008 533.404,-148.332 537.109,-154.271"/>
</g>
<!-- start_attributes -->
<g id="node14" class="node"><title>start_attributes</title>
<polygon fill="lightblue" stroke="black" points="738.25,-146 641.75,-146 641.75,-110 738.25,-110 738.25,-146"/>
<text text-anchor="middle" x="690" y="-124.3" font-family="Times,serif" font-size="14.00">start_attributes</text>
</g>
<!-- ꞉lexeme&#45;&gt;start_attributes -->
<g id="edge12" class="edge"><title>꞉lexeme&#45;&gt;start_attributes</title>
<path fill="none" stroke="grey" d="M483.609,-192.863C518.936,-181.96 579.784,-163.169 632,-147 632.098,-146.97 632.195,-146.94 632.293,-146.909"/>
<polygon fill="grey" stroke="grey" points="633.065,-150.334 641.581,-144.032 630.993,-143.648 633.065,-150.334"/>
</g>
<!-- end_attributes -->
<g id="node16" class="node"><title>end_attributes</title>
<polygon fill="lightblue" stroke="black" points="849.25,-146 756.75,-146 756.75,-110 849.25,-110 849.25,-146"/>
<text text-anchor="middle" x="803" y="-124.3" font-family="Times,serif" font-size="14.00">end_attributes</text>
</g>
<!-- ꞉lexeme&#45;&gt;end_attributes -->
<g id="edge14" class="edge"><title>꞉lexeme&#45;&gt;end_attributes</title>
<path fill="none" stroke="grey" d="M483.796,-197.673C537.059,-189.658 651.929,-171.101 747,-147 747.099,-146.975 747.198,-146.95 747.297,-146.924"/>
<polygon fill="grey" stroke="grey" points="747.945,-150.375 756.682,-144.382 746.115,-143.619 747.945,-150.375"/>
</g>
<!-- ꞉lexeme_1 -->
<g id="node8" class="node"><title>꞉lexeme_1</title>
<path fill="lightblue" stroke="black" d="M205,-24C205,-24 307,-24 307,-24 313,-24 319,-30 319,-36 319,-36 319,-58 319,-58 319,-64 313,-70 307,-70 307,-70 205,-70 205,-70 199,-70 193,-64 193,-58 193,-58 193,-36 193,-36 193,-30 199,-24 205,-24"/>
<text text-anchor="middle" x="256" y="-54.8" font-family="Times,serif" font-size="14.00">event =&gt; start_node</text>
<polyline fill="none" stroke="black" points="193,-47 319,-47 "/>
<text text-anchor="middle" x="256" y="-31.8" font-family="Times,serif" font-size="14.00">pause =&gt; before</text>
</g>
<!-- start_node&#45;&gt;꞉lexeme_1 -->
<g id="edge6" class="edge"><title>start_node&#45;&gt;꞉lexeme_1</title>
<path fill="none" stroke="grey" d="M263.83,-109.858C262.739,-101.236 261.379,-90.4946 260.101,-80.3941"/>
<polygon fill="grey" stroke="grey" points="263.54,-79.6974 258.812,-70.2161 256.596,-80.5765 263.54,-79.6974"/>
</g>
<!-- ꞉lexeme_3 -->
<g id="node11" class="node"><title>꞉lexeme_3</title>
<path fill="lightblue" stroke="black" d="M349,-24C349,-24 471,-24 471,-24 477,-24 483,-30 483,-36 483,-36 483,-58 483,-58 483,-64 477,-70 471,-70 471,-70 349,-70 349,-70 343,-70 337,-64 337,-58 337,-58 337,-36 337,-36 337,-30 343,-24 349,-24"/>
<text text-anchor="middle" x="410" y="-54.8" font-family="Times,serif" font-size="14.00">event =&gt; directed_edge</text>
<polyline fill="none" stroke="black" points="337,-47 483,-47 "/>
<text text-anchor="middle" x="410" y="-31.8" font-family="Times,serif" font-size="14.00">pause =&gt; before</text>
</g>
<!-- directed_edge&#45;&gt;꞉lexeme_3 -->
<g id="edge9" class="edge"><title>directed_edge&#45;&gt;꞉lexeme_3</title>
<path fill="none" stroke="grey" d="M444.453,-109.858C439.448,-100.873 433.162,-89.5863 427.334,-79.1219"/>
<polygon fill="grey" stroke="grey" points="430.297,-77.2494 422.374,-70.2161 424.182,-80.6556 430.297,-77.2494"/>
</g>
<!-- ꞉lexeme_4 -->
<g id="node13" class="node"><title>꞉lexeme_4</title>
<path fill="lightblue" stroke="black" d="M513.5,-24C513.5,-24 648.5,-24 648.5,-24 654.5,-24 660.5,-30 660.5,-36 660.5,-36 660.5,-58 660.5,-58 660.5,-64 654.5,-70 648.5,-70 648.5,-70 513.5,-70 513.5,-70 507.5,-70 501.5,-64 501.5,-58 501.5,-58 501.5,-36 501.5,-36 501.5,-30 507.5,-24 513.5,-24"/>
<text text-anchor="middle" x="581" y="-54.8" font-family="Times,serif" font-size="14.00">event =&gt; undirected_edge</text>
<polyline fill="none" stroke="black" points="501.5,-47 660.5,-47 "/>
<text text-anchor="middle" x="581" y="-31.8" font-family="Times,serif" font-size="14.00">pause =&gt; before</text>
</g>
<!-- undirected_edge&#45;&gt;꞉lexeme_4 -->
<g id="edge11" class="edge"><title>undirected_edge&#45;&gt;꞉lexeme_4</title>
<path fill="none" stroke="grey" d="M573.17,-109.858C574.261,-101.236 575.621,-90.4946 576.899,-80.3941"/>
<polygon fill="grey" stroke="grey" points="580.404,-80.5765 578.188,-70.2161 573.46,-79.6974 580.404,-80.5765"/>
</g>
<!-- ꞉lexeme_5 -->
<g id="node15" class="node"><title>꞉lexeme_5</title>
<path fill="lightblue" stroke="black" d="M690,-24C690,-24 816,-24 816,-24 822,-24 828,-30 828,-36 828,-36 828,-58 828,-58 828,-64 822,-70 816,-70 816,-70 690,-70 690,-70 684,-70 678,-64 678,-58 678,-58 678,-36 678,-36 678,-30 684,-24 690,-24"/>
<text text-anchor="middle" x="753" y="-54.8" font-family="Times,serif" font-size="14.00">event =&gt; start_attributes</text>
<polyline fill="none" stroke="black" points="678,-47 828,-47 "/>
<text text-anchor="middle" x="753" y="-31.8" font-family="Times,serif" font-size="14.00">pause =&gt; before</text>
</g>
<!-- start_attributes&#45;&gt;꞉lexeme_5 -->
<g id="edge13" class="edge"><title>start_attributes&#45;&gt;꞉lexeme_5</title>
<path fill="none" stroke="grey" d="M703.67,-109.858C711.053,-100.601 720.383,-88.9001 728.938,-78.1729"/>
<polygon fill="grey" stroke="grey" points="731.785,-80.2167 735.283,-70.2161 726.312,-75.8523 731.785,-80.2167"/>
</g>
<!-- graph_definition -->
<g id="node17" class="node"><title>graph_definition</title>
<polygon fill="white" stroke="black" points="350.25,-315 243.75,-315 243.75,-279 350.25,-279 350.25,-315"/>
<text text-anchor="middle" x="297" y="-293.3" font-family="Times,serif" font-size="14.00">graph_definition</text>
</g>
<!-- node_definition -->
<g id="node18" class="node"><title>node_definition</title>
<polygon fill="white" stroke="black" points="469.5,-315 368.5,-315 368.5,-279 469.5,-279 469.5,-315"/>
<text text-anchor="middle" x="419" y="-293.3" font-family="Times,serif" font-size="14.00">node_definition</text>
</g>
<!-- node_statement -->
<g id="node19" class="node"><title>node_statement</title>
<polygon fill="white" stroke="black" points="589.5,-315 488.5,-315 488.5,-279 589.5,-279 589.5,-315"/>
<text text-anchor="middle" x="539" y="-293.3" font-family="Times,serif" font-size="14.00">node_statement</text>
</g>
<!-- node_name -->
<g id="node20" class="node"><title>node_name</title>
<polygon fill="white" stroke="black" points="688,-315 608,-315 608,-279 688,-279 688,-315"/>
<text text-anchor="middle" x="648" y="-293.3" font-family="Times,serif" font-size="14.00">node_name</text>
</g>
<!-- edge_definition -->
<g id="node21" class="node"><title>edge_definition</title>
<polygon fill="white" stroke="black" points="807.25,-315 706.75,-315 706.75,-279 807.25,-279 807.25,-315"/>
<text text-anchor="middle" x="757" y="-293.3" font-family="Times,serif" font-size="14.00">edge_definition</text>
</g>
<!-- edge_statement -->
<g id="node22" class="node"><title>edge_statement</title>
<polygon fill="white" stroke="black" points="926.25,-315 825.75,-315 825.75,-279 926.25,-279 926.25,-315"/>
<text text-anchor="middle" x="876" y="-293.3" font-family="Times,serif" font-size="14.00">edge_statement</text>
</g>
<!-- edge_name -->
<g id="node23" class="node"><title>edge_name</title>
<polygon fill="white" stroke="black" points="1023.25,-315 944.75,-315 944.75,-279 1023.25,-279 1023.25,-315"/>
<text text-anchor="middle" x="984" y="-293.3" font-family="Times,serif" font-size="14.00">edge_name</text>
</g>
<!-- attribute_definition -->
<g id="node24" class="node"><title>attribute_definition</title>
<polygon fill="white" stroke="black" points="1162.25,-315 1041.75,-315 1041.75,-279 1162.25,-279 1162.25,-315"/>
<text text-anchor="middle" x="1102" y="-293.3" font-family="Times,serif" font-size="14.00">attribute_definition</text>
</g>
<!-- attribute_statement -->
<g id="node25" class="node"><title>attribute_statement</title>
<polygon fill="white" stroke="black" points="1301.25,-315 1180.75,-315 1180.75,-279 1301.25,-279 1301.25,-315"/>
<text text-anchor="middle" x="1241" y="-293.3" font-family="Times,serif" font-size="14.00">attribute_statement</text>
</g>
</g>
</svg>
