<?xml version="1.0" encoding="UTF-8" standalone="no"?>
<!DOCTYPE svg PUBLIC "-//W3C//DTD SVG 1.1//EN"
 "http://www.w3.org/Graphics/SVG/1.1/DTD/svg11.dtd">
<!-- Generated by graphviz version 2.30.1 (20130611.0131)
 -->
<!-- Title: Perl Pages: 1 -->
<svg width="1677pt" height="311pt"
 viewBox="0.00 0.00 1677.00 311.00" xmlns="http://www.w3.org/2000/svg" xmlns:xlink="http://www.w3.org/1999/xlink">
<g id="graph0" class="graph" transform="scale(1 1) rotate(0) translate(4 307)">
<title>Perl</title>
<polygon fill="white" stroke="white" points="-4,5 -4,-307 1674,-307 1674,5 -4,5"/>
<text text-anchor="middle" x="834.5" y="-7.8" font-family="Times,serif" font-size="14.00">stringparser.bnf</text>
<!-- :default -->
<g id="node1" class="node"><title>:default</title>
<polygon fill="lightblue" stroke="black" points="169.5,-218 112.5,-218 112.5,-182 169.5,-182 169.5,-218"/>
<text text-anchor="middle" x="141" y="-196.3" font-family="Times,serif" font-size="14.00">:default</text>
</g>
<!-- :default_1 -->
<g id="node3" class="node"><title>:default_1</title>
<path fill="lightblue" stroke="black" d="M34.5,-108C34.5,-108 127.5,-108 127.5,-108 133.5,-108 139.5,-114 139.5,-120 139.5,-120 139.5,-132 139.5,-132 139.5,-138 133.5,-144 127.5,-144 127.5,-144 34.5,-144 34.5,-144 28.5,-144 22.5,-138 22.5,-132 22.5,-132 22.5,-120 22.5,-120 22.5,-114 28.5,-108 34.5,-108"/>
<text text-anchor="middle" x="81" y="-122.3" font-family="Times,serif" font-size="14.00">action =&gt; [values]</text>
</g>
<!-- :default&#45;&gt;:default_1 -->
<g id="edge2" class="edge"><title>:default&#45;&gt;:default_1</title>
<path fill="none" stroke="grey" d="M126.781,-181.937C119.417,-173.1 110.279,-162.135 102.109,-152.331"/>
<polygon fill="grey" stroke="grey" points="104.625,-149.882 95.5339,-144.441 99.247,-154.364 104.625,-149.882"/>
</g>
<!-- graph_grammar -->
<g id="node2" class="node"><title>graph_grammar</title>
<path fill="lightgreen" stroke="black" d="M320,-256C320,-256 400,-256 400,-256 406,-256 412,-262 412,-268 412,-268 412,-290 412,-290 412,-296 406,-302 400,-302 400,-302 320,-302 320,-302 314,-302 308,-296 308,-290 308,-290 308,-268 308,-268 308,-262 314,-256 320,-256"/>
<text text-anchor="middle" x="360" y="-286.8" font-family="Times,serif" font-size="14.00">:start</text>
<polyline fill="none" stroke="black" points="308,-279 412,-279 "/>
<text text-anchor="middle" x="360" y="-263.8" font-family="Times,serif" font-size="14.00">graph_grammar</text>
</g>
<!-- graph_grammar&#45;&gt;:default -->
<g id="edge1" class="edge"><title>graph_grammar&#45;&gt;:default</title>
<path fill="none" stroke="grey" d="M307.822,-259.654C268.273,-245.749 214.829,-226.958 179.201,-214.431"/>
<polygon fill="grey" stroke="grey" points="180.245,-211.089 169.651,-211.074 177.924,-217.692 180.245,-211.089"/>
</g>
<!-- :discard -->
<g id="node4" class="node"><title>:discard</title>
<polygon fill="lightblue" stroke="black" points="308.25,-218 249.75,-218 249.75,-182 308.25,-182 308.25,-218"/>
<text text-anchor="middle" x="279" y="-196.3" font-family="Times,serif" font-size="14.00">:discard</text>
</g>
<!-- graph_grammar&#45;&gt;:discard -->
<g id="edge3" class="edge"><title>graph_grammar&#45;&gt;:discard</title>
<path fill="none" stroke="grey" d="M336.571,-255.728C326.519,-246.172 314.748,-234.983 304.479,-225.221"/>
<polygon fill="grey" stroke="grey" points="306.631,-222.437 296.972,-218.084 301.808,-227.511 306.631,-222.437"/>
</g>
<!-- :lexeme -->
<g id="node6" class="node"><title>:lexeme</title>
<polygon fill="lightblue" stroke="black" points="470.5,-218 411.5,-218 411.5,-182 470.5,-182 470.5,-218"/>
<text text-anchor="middle" x="441" y="-196.3" font-family="Times,serif" font-size="14.00">:lexeme</text>
</g>
<!-- graph_grammar&#45;&gt;:lexeme -->
<g id="edge5" class="edge"><title>graph_grammar&#45;&gt;:lexeme</title>
<path fill="none" stroke="grey" d="M383.429,-255.728C393.481,-246.172 405.252,-234.983 415.521,-225.221"/>
<polygon fill="grey" stroke="grey" points="418.192,-227.511 423.028,-218.084 413.369,-222.437 418.192,-227.511"/>
</g>
<!-- graph_grammar_attributes -->
<g id="node17" class="node"><title>graph_grammar_attributes</title>
<path fill="lightblue" stroke="black" d="M501,-182C501,-182 581,-182 581,-182 587,-182 593,-188 593,-194 593,-194 593,-206 593,-206 593,-212 587,-218 581,-218 581,-218 501,-218 501,-218 495,-218 489,-212 489,-206 489,-206 489,-194 489,-194 489,-188 495,-182 501,-182"/>
<text text-anchor="middle" x="541" y="-196.3" font-family="Times,serif" font-size="14.00">action =&gt; graph</text>
</g>
<!-- graph_grammar&#45;&gt;graph_grammar_attributes -->
<g id="edge16" class="edge"><title>graph_grammar&#45;&gt;graph_grammar_attributes</title>
<path fill="none" stroke="grey" d="M411.867,-255.935C436.97,-245.256 466.954,-232.5 491.709,-221.969"/>
<polygon fill="grey" stroke="grey" points="493.087,-225.186 500.919,-218.051 490.347,-218.745 493.087,-225.186"/>
</g>
<!-- whitespace -->
<g id="node5" class="node"><title>whitespace</title>
<polygon fill="white" stroke="black" points="234.25,-144 157.75,-144 157.75,-108 234.25,-108 234.25,-144"/>
<text text-anchor="middle" x="196" y="-122.3" font-family="Times,serif" font-size="14.00">whitespace</text>
</g>
<!-- :discard&#45;&gt;whitespace -->
<g id="edge4" class="edge"><title>:discard&#45;&gt;whitespace</title>
<path fill="none" stroke="grey" d="M259.33,-181.937C248.658,-172.679 235.293,-161.086 223.595,-150.938"/>
<polygon fill="grey" stroke="grey" points="225.664,-148.099 215.816,-144.19 221.077,-153.387 225.664,-148.099"/>
</g>
<!-- whitespace_attributes -->
<g id="node42" class="node"><title>whitespace_attributes</title>
<path fill="lightblue" stroke="black" d="M11.5,-29C11.5,-29 64.5,-29 64.5,-29 70.5,-29 76.5,-35 76.5,-41 76.5,-41 76.5,-53 76.5,-53 76.5,-59 70.5,-65 64.5,-65 64.5,-65 11.5,-65 11.5,-65 5.5,-65 -0.5,-59 -0.5,-53 -0.5,-53 -0.5,-41 -0.5,-41 -0.5,-35 5.5,-29 11.5,-29"/>
<text text-anchor="middle" x="38" y="-43.3" font-family="Times,serif" font-size="14.00">whitespace</text>
</g>
<!-- whitespace&#45;&gt;whitespace_attributes -->
<g id="edge32" class="edge"><title>whitespace&#45;&gt;whitespace_attributes</title>
<path fill="none" stroke="grey" d="M160.935,-107.911C137.717,-96.5965 107.077,-81.6641 82.1944,-69.5378"/>
<polygon fill="grey" stroke="grey" points="83.49,-66.2757 72.9673,-65.041 80.4233,-72.5682 83.49,-66.2757"/>
</g>
<!-- start_node -->
<g id="node7" class="node"><title>start_node</title>
<polygon fill="white" stroke="black" points="325.25,-144 252.75,-144 252.75,-108 325.25,-108 325.25,-144"/>
<text text-anchor="middle" x="289" y="-122.3" font-family="Times,serif" font-size="14.00">start_node</text>
</g>
<!-- :lexeme&#45;&gt;start_node -->
<g id="edge6" class="edge"><title>:lexeme&#45;&gt;start_node</title>
<path fill="none" stroke="grey" d="M411.332,-184.947C389.422,-174.568 359.204,-160.255 334.284,-148.45"/>
<polygon fill="grey" stroke="grey" points="335.556,-145.18 325.02,-144.062 332.559,-151.506 335.556,-145.18"/>
</g>
<!-- end_node -->
<g id="node9" class="node"><title>end_node</title>
<polygon fill="white" stroke="black" points="412.25,-144 343.75,-144 343.75,-108 412.25,-108 412.25,-144"/>
<text text-anchor="middle" x="378" y="-122.3" font-family="Times,serif" font-size="14.00">end_node</text>
</g>
<!-- :lexeme&#45;&gt;end_node -->
<g id="edge8" class="edge"><title>:lexeme&#45;&gt;end_node</title>
<path fill="none" stroke="grey" d="M426.07,-181.937C418.26,-173.012 408.551,-161.916 399.908,-152.037"/>
<polygon fill="grey" stroke="grey" points="402.48,-149.662 393.261,-144.441 397.212,-154.271 402.48,-149.662"/>
</g>
<!-- directed_edge -->
<g id="node10" class="node"><title>directed_edge</title>
<polygon fill="white" stroke="black" points="537,-144 445,-144 445,-108 537,-108 537,-144"/>
<text text-anchor="middle" x="491" y="-122.3" font-family="Times,serif" font-size="14.00">directed_edge</text>
</g>
<!-- :lexeme&#45;&gt;directed_edge -->
<g id="edge9" class="edge"><title>:lexeme&#45;&gt;directed_edge</title>
<path fill="none" stroke="grey" d="M452.849,-181.937C458.863,-173.277 466.296,-162.573 472.999,-152.921"/>
<polygon fill="grey" stroke="grey" points="476.059,-154.651 478.888,-144.441 470.31,-150.658 476.059,-154.651"/>
</g>
<!-- undirected_edge -->
<g id="node12" class="node"><title>undirected_edge</title>
<polygon fill="white" stroke="black" points="824.5,-144 719.5,-144 719.5,-108 824.5,-108 824.5,-144"/>
<text text-anchor="middle" x="772" y="-122.3" font-family="Times,serif" font-size="14.00">undirected_edge</text>
</g>
<!-- :lexeme&#45;&gt;undirected_edge -->
<g id="edge11" class="edge"><title>:lexeme&#45;&gt;undirected_edge</title>
<path fill="none" stroke="grey" d="M470.506,-184.457C473.669,-183.177 476.873,-181.994 480,-181 557.101,-156.503 649.396,-141.748 709.288,-133.997"/>
<polygon fill="grey" stroke="grey" points="709.868,-137.451 719.348,-132.721 708.987,-130.507 709.868,-137.451"/>
</g>
<!-- start_attributes -->
<g id="node14" class="node"><title>start_attributes</title>
<polygon fill="white" stroke="black" points="1116.25,-144 1019.75,-144 1019.75,-108 1116.25,-108 1116.25,-144"/>
<text text-anchor="middle" x="1068" y="-122.3" font-family="Times,serif" font-size="14.00">start_attributes</text>
</g>
<!-- :lexeme&#45;&gt;start_attributes -->
<g id="edge13" class="edge"><title>:lexeme&#45;&gt;start_attributes</title>
<path fill="none" stroke="grey" d="M470.853,-183.995C473.893,-182.841 476.975,-181.811 480,-181 505.322,-174.21 865.718,-143.784 1009.45,-131.837"/>
<polygon fill="grey" stroke="grey" points="1009.74,-135.325 1019.41,-131.009 1009.16,-128.349 1009.74,-135.325"/>
</g>
<!-- end_attributes -->
<g id="node16" class="node"><title>end_attributes</title>
<polygon fill="white" stroke="black" points="1297.25,-144 1204.75,-144 1204.75,-108 1297.25,-108 1297.25,-144"/>
<text text-anchor="middle" x="1251" y="-122.3" font-family="Times,serif" font-size="14.00">end_attributes</text>
</g>
<!-- :lexeme&#45;&gt;end_attributes -->
<g id="edge15" class="edge"><title>:lexeme&#45;&gt;end_attributes</title>
<path fill="none" stroke="grey" d="M470.824,-183.881C473.869,-182.75 476.961,-181.757 480,-181 758.603,-111.615 839.288,-173.328 1125,-145 1147.87,-142.732 1172.96,-139.335 1194.69,-136.101"/>
<polygon fill="grey" stroke="grey" points="1195.37,-139.538 1204.74,-134.582 1194.33,-132.616 1195.37,-139.538"/>
</g>
<!-- :lexeme_1 -->
<g id="node8" class="node"><title>:lexeme_1</title>
<path fill="lightblue" stroke="black" d="M107,-24C107,-24 209,-24 209,-24 215,-24 221,-30 221,-36 221,-36 221,-58 221,-58 221,-64 215,-70 209,-70 209,-70 107,-70 107,-70 101,-70 95,-64 95,-58 95,-58 95,-36 95,-36 95,-30 101,-24 107,-24"/>
<text text-anchor="middle" x="158" y="-54.8" font-family="Times,serif" font-size="14.00">pause =&gt; before</text>
<polyline fill="none" stroke="black" points="95,-47 221,-47 "/>
<text text-anchor="middle" x="158" y="-31.8" font-family="Times,serif" font-size="14.00">event =&gt; start_node</text>
</g>
<!-- start_node&#45;&gt;:lexeme_1 -->
<g id="edge7" class="edge"><title>start_node&#45;&gt;:lexeme_1</title>
<path fill="none" stroke="grey" d="M259.927,-107.911C243.529,-98.2725 222.664,-86.0085 204.089,-75.0903"/>
<polygon fill="grey" stroke="grey" points="205.857,-72.07 195.463,-70.02 202.31,-78.1048 205.857,-72.07"/>
</g>
<!-- start_node_attributes -->
<g id="node26" class="node"><title>start_node_attributes</title>
<path fill="lightblue" stroke="black" d="M251.5,-29C251.5,-29 300.5,-29 300.5,-29 306.5,-29 312.5,-35 312.5,-41 312.5,-41 312.5,-53 312.5,-53 312.5,-59 306.5,-65 300.5,-65 300.5,-65 251.5,-65 251.5,-65 245.5,-65 239.5,-59 239.5,-53 239.5,-53 239.5,-41 239.5,-41 239.5,-35 245.5,-29 251.5,-29"/>
<text text-anchor="middle" x="276" y="-43.3" font-family="Times,serif" font-size="14.00">start_node</text>
</g>
<!-- start_node&#45;&gt;start_node_attributes -->
<g id="edge21" class="edge"><title>start_node&#45;&gt;start_node_attributes</title>
<path fill="none" stroke="grey" d="M286.115,-107.911C284.482,-98.2414 282.404,-85.9292 280.556,-74.9845"/>
<polygon fill="grey" stroke="grey" points="283.993,-74.3188 278.877,-65.041 277.091,-75.4842 283.993,-74.3188"/>
</g>
<!-- end_node_attributes -->
<g id="node27" class="node"><title>end_node_attributes</title>
<path fill="lightblue" stroke="black" d="M342.5,-29C342.5,-29 387.5,-29 387.5,-29 393.5,-29 399.5,-35 399.5,-41 399.5,-41 399.5,-53 399.5,-53 399.5,-59 393.5,-65 387.5,-65 387.5,-65 342.5,-65 342.5,-65 336.5,-65 330.5,-59 330.5,-53 330.5,-53 330.5,-41 330.5,-41 330.5,-35 336.5,-29 342.5,-29"/>
<text text-anchor="middle" x="365" y="-43.3" font-family="Times,serif" font-size="14.00">end_node</text>
</g>
<!-- end_node&#45;&gt;end_node_attributes -->
<g id="edge22" class="edge"><title>end_node&#45;&gt;end_node_attributes</title>
<path fill="none" stroke="grey" d="M375.115,-107.911C373.482,-98.2414 371.404,-85.9292 369.556,-74.9845"/>
<polygon fill="grey" stroke="grey" points="372.993,-74.3188 367.877,-65.041 366.091,-75.4842 372.993,-74.3188"/>
</g>
<!-- :lexeme_3 -->
<g id="node11" class="node"><title>:lexeme_3</title>
<path fill="lightblue" stroke="black" d="M430,-24C430,-24 552,-24 552,-24 558,-24 564,-30 564,-36 564,-36 564,-58 564,-58 564,-64 558,-70 552,-70 552,-70 430,-70 430,-70 424,-70 418,-64 418,-58 418,-58 418,-36 418,-36 418,-30 424,-24 430,-24"/>
<text text-anchor="middle" x="491" y="-54.8" font-family="Times,serif" font-size="14.00">pause =&gt; before</text>
<polyline fill="none" stroke="black" points="418,-47 564,-47 "/>
<text text-anchor="middle" x="491" y="-31.8" font-family="Times,serif" font-size="14.00">event =&gt; directed_edge</text>
</g>
<!-- directed_edge&#45;&gt;:lexeme_3 -->
<g id="edge10" class="edge"><title>directed_edge&#45;&gt;:lexeme_3</title>
<path fill="none" stroke="grey" d="M491,-107.911C491,-99.7118 491,-89.6125 491,-80.0581"/>
<polygon fill="grey" stroke="grey" points="494.5,-80.02 491,-70.02 487.5,-80.02 494.5,-80.02"/>
</g>
<!-- directed_edge_attributes -->
<g id="node34" class="node"><title>directed_edge_attributes</title>
<path fill="lightblue" stroke="black" d="M594,-29C594,-29 662,-29 662,-29 668,-29 674,-35 674,-41 674,-41 674,-53 674,-53 674,-59 668,-65 662,-65 662,-65 594,-65 594,-65 588,-65 582,-59 582,-53 582,-53 582,-41 582,-41 582,-35 588,-29 594,-29"/>
<text text-anchor="middle" x="628" y="-43.3" font-family="Times,serif" font-size="14.00">directed_edge</text>
</g>
<!-- directed_edge&#45;&gt;directed_edge_attributes -->
<g id="edge26" class="edge"><title>directed_edge&#45;&gt;directed_edge_attributes</title>
<path fill="none" stroke="grey" d="M521.405,-107.911C541.27,-96.746 567.403,-82.0582 588.822,-70.02"/>
<polygon fill="grey" stroke="grey" points="590.678,-72.9918 597.68,-65.041 587.248,-66.8896 590.678,-72.9918"/>
</g>
<!-- :lexeme_4 -->
<g id="node13" class="node"><title>:lexeme_4</title>
<path fill="lightblue" stroke="black" d="M704.5,-24C704.5,-24 839.5,-24 839.5,-24 845.5,-24 851.5,-30 851.5,-36 851.5,-36 851.5,-58 851.5,-58 851.5,-64 845.5,-70 839.5,-70 839.5,-70 704.5,-70 704.5,-70 698.5,-70 692.5,-64 692.5,-58 692.5,-58 692.5,-36 692.5,-36 692.5,-30 698.5,-24 704.5,-24"/>
<text text-anchor="middle" x="772" y="-54.8" font-family="Times,serif" font-size="14.00">pause =&gt; before</text>
<polyline fill="none" stroke="black" points="692.5,-47 851.5,-47 "/>
<text text-anchor="middle" x="772" y="-31.8" font-family="Times,serif" font-size="14.00">event =&gt; undirected_edge</text>
</g>
<!-- undirected_edge&#45;&gt;:lexeme_4 -->
<g id="edge12" class="edge"><title>undirected_edge&#45;&gt;:lexeme_4</title>
<path fill="none" stroke="grey" d="M772,-107.911C772,-99.7118 772,-89.6125 772,-80.0581"/>
<polygon fill="grey" stroke="grey" points="775.5,-80.02 772,-70.02 768.5,-80.02 775.5,-80.02"/>
</g>
<!-- undirected_edge_attributes -->
<g id="node35" class="node"><title>undirected_edge_attributes</title>
<path fill="lightblue" stroke="black" d="M881,-29C881,-29 963,-29 963,-29 969,-29 975,-35 975,-41 975,-41 975,-53 975,-53 975,-59 969,-65 963,-65 963,-65 881,-65 881,-65 875,-65 869,-59 869,-53 869,-53 869,-41 869,-41 869,-35 875,-29 881,-29"/>
<text text-anchor="middle" x="922" y="-43.3" font-family="Times,serif" font-size="14.00">undirected_edge</text>
</g>
<!-- undirected_edge&#45;&gt;undirected_edge_attributes -->
<g id="edge27" class="edge"><title>undirected_edge&#45;&gt;undirected_edge_attributes</title>
<path fill="none" stroke="grey" d="M805.29,-107.911C827.234,-96.6463 856.164,-81.7956 879.731,-69.6982"/>
<polygon fill="grey" stroke="grey" points="881.505,-72.7216 888.803,-65.041 878.308,-66.4941 881.505,-72.7216"/>
</g>
<!-- :lexeme_5 -->
<g id="node15" class="node"><title>:lexeme_5</title>
<path fill="lightblue" stroke="black" d="M1005,-24C1005,-24 1131,-24 1131,-24 1137,-24 1143,-30 1143,-36 1143,-36 1143,-58 1143,-58 1143,-64 1137,-70 1131,-70 1131,-70 1005,-70 1005,-70 999,-70 993,-64 993,-58 993,-58 993,-36 993,-36 993,-30 999,-24 1005,-24"/>
<text text-anchor="middle" x="1068" y="-54.8" font-family="Times,serif" font-size="14.00">pause =&gt; before</text>
<polyline fill="none" stroke="black" points="993,-47 1143,-47 "/>
<text text-anchor="middle" x="1068" y="-31.8" font-family="Times,serif" font-size="14.00">event =&gt; start_attributes</text>
</g>
<!-- start_attributes&#45;&gt;:lexeme_5 -->
<g id="edge14" class="edge"><title>start_attributes&#45;&gt;:lexeme_5</title>
<path fill="none" stroke="grey" d="M1068,-107.911C1068,-99.7118 1068,-89.6125 1068,-80.0581"/>
<polygon fill="grey" stroke="grey" points="1071.5,-80.02 1068,-70.02 1064.5,-80.02 1071.5,-80.02"/>
</g>
<!-- start_attributes_attributes -->
<g id="node40" class="node"><title>start_attributes_attributes</title>
<path fill="lightblue" stroke="black" d="M1172.5,-29C1172.5,-29 1245.5,-29 1245.5,-29 1251.5,-29 1257.5,-35 1257.5,-41 1257.5,-41 1257.5,-53 1257.5,-53 1257.5,-59 1251.5,-65 1245.5,-65 1245.5,-65 1172.5,-65 1172.5,-65 1166.5,-65 1160.5,-59 1160.5,-53 1160.5,-53 1160.5,-41 1160.5,-41 1160.5,-35 1166.5,-29 1172.5,-29"/>
<text text-anchor="middle" x="1209" y="-43.3" font-family="Times,serif" font-size="14.00">start_attributes</text>
</g>
<!-- start_attributes&#45;&gt;start_attributes_attributes -->
<g id="edge30" class="edge"><title>start_attributes&#45;&gt;start_attributes_attributes</title>
<path fill="none" stroke="grey" d="M1099.29,-107.911C1119.83,-96.6962 1146.87,-81.9269 1168.97,-69.8589"/>
<polygon fill="grey" stroke="grey" points="1170.7,-72.9058 1177.8,-65.041 1167.34,-66.7622 1170.7,-72.9058"/>
</g>
<!-- end_attributes_attributes -->
<g id="node41" class="node"><title>end_attributes_attributes</title>
<path fill="lightblue" stroke="black" d="M1287.5,-29C1287.5,-29 1356.5,-29 1356.5,-29 1362.5,-29 1368.5,-35 1368.5,-41 1368.5,-41 1368.5,-53 1368.5,-53 1368.5,-59 1362.5,-65 1356.5,-65 1356.5,-65 1287.5,-65 1287.5,-65 1281.5,-65 1275.5,-59 1275.5,-53 1275.5,-53 1275.5,-41 1275.5,-41 1275.5,-35 1281.5,-29 1287.5,-29"/>
<text text-anchor="middle" x="1322" y="-43.3" font-family="Times,serif" font-size="14.00">end_attributes</text>
</g>
<!-- end_attributes&#45;&gt;end_attributes_attributes -->
<g id="edge31" class="edge"><title>end_attributes&#45;&gt;end_attributes_attributes</title>
<path fill="none" stroke="grey" d="M1266.76,-107.911C1276.32,-97.5435 1288.68,-84.1385 1299.28,-72.6379"/>
<polygon fill="grey" stroke="grey" points="1302.08,-74.7653 1306.29,-65.041 1296.93,-70.0201 1302.08,-74.7653"/>
</g>
<!-- graph_definition -->
<g id="node18" class="node"><title>graph_definition</title>
<polygon fill="white" stroke="black" points="718.25,-297 611.75,-297 611.75,-261 718.25,-261 718.25,-297"/>
<text text-anchor="middle" x="665" y="-275.3" font-family="Times,serif" font-size="14.00">graph_definition</text>
</g>
<!-- graph_definition_attributes -->
<g id="node19" class="node"><title>graph_definition_attributes</title>
<path fill="lightblue" stroke="black" d="M623.5,-182C623.5,-182 706.5,-182 706.5,-182 712.5,-182 718.5,-188 718.5,-194 718.5,-194 718.5,-206 718.5,-206 718.5,-212 712.5,-218 706.5,-218 706.5,-218 623.5,-218 623.5,-218 617.5,-218 611.5,-212 611.5,-206 611.5,-206 611.5,-194 611.5,-194 611.5,-188 617.5,-182 623.5,-182"/>
<text text-anchor="middle" x="665" y="-196.3" font-family="Times,serif" font-size="14.00">graph_definition</text>
</g>
<!-- graph_definition&#45;&gt;graph_definition_attributes -->
<g id="edge17" class="edge"><title>graph_definition&#45;&gt;graph_definition_attributes</title>
<path fill="none" stroke="grey" d="M665,-260.911C665,-251.341 665,-239.183 665,-228.323"/>
<polygon fill="grey" stroke="grey" points="668.5,-228.041 665,-218.041 661.5,-228.041 668.5,-228.041"/>
</g>
<!-- node_definition -->
<g id="node20" class="node"><title>node_definition</title>
<polygon fill="white" stroke="black" points="837.5,-297 736.5,-297 736.5,-261 837.5,-261 837.5,-297"/>
<text text-anchor="middle" x="787" y="-275.3" font-family="Times,serif" font-size="14.00">node_definition</text>
</g>
<!-- node_definition_attributes -->
<g id="node21" class="node"><title>node_definition_attributes</title>
<path fill="lightblue" stroke="black" d="M748,-182C748,-182 826,-182 826,-182 832,-182 838,-188 838,-194 838,-194 838,-206 838,-206 838,-212 832,-218 826,-218 826,-218 748,-218 748,-218 742,-218 736,-212 736,-206 736,-206 736,-194 736,-194 736,-188 742,-182 748,-182"/>
<text text-anchor="middle" x="787" y="-196.3" font-family="Times,serif" font-size="14.00">node_definition</text>
</g>
<!-- node_definition&#45;&gt;node_definition_attributes -->
<g id="edge18" class="edge"><title>node_definition&#45;&gt;node_definition_attributes</title>
<path fill="none" stroke="grey" d="M787,-260.911C787,-251.341 787,-239.183 787,-228.323"/>
<polygon fill="grey" stroke="grey" points="790.5,-228.041 787,-218.041 783.5,-228.041 790.5,-228.041"/>
</g>
<!-- node_statement -->
<g id="node22" class="node"><title>node_statement</title>
<polygon fill="white" stroke="black" points="957.5,-297 856.5,-297 856.5,-261 957.5,-261 957.5,-297"/>
<text text-anchor="middle" x="907" y="-275.3" font-family="Times,serif" font-size="14.00">node_statement</text>
</g>
<!-- node_statement_attributes -->
<g id="node23" class="node"><title>node_statement_attributes</title>
<path fill="lightblue" stroke="black" d="M868,-182C868,-182 946,-182 946,-182 952,-182 958,-188 958,-194 958,-194 958,-206 958,-206 958,-212 952,-218 946,-218 946,-218 868,-218 868,-218 862,-218 856,-212 856,-206 856,-206 856,-194 856,-194 856,-188 862,-182 868,-182"/>
<text text-anchor="middle" x="907" y="-196.3" font-family="Times,serif" font-size="14.00">node_statement</text>
</g>
<!-- node_statement&#45;&gt;node_statement_attributes -->
<g id="edge19" class="edge"><title>node_statement&#45;&gt;node_statement_attributes</title>
<path fill="none" stroke="grey" d="M907,-260.911C907,-251.341 907,-239.183 907,-228.323"/>
<polygon fill="grey" stroke="grey" points="910.5,-228.041 907,-218.041 903.5,-228.041 910.5,-228.041"/>
</g>
<!-- node_name -->
<g id="node24" class="node"><title>node_name</title>
<polygon fill="white" stroke="black" points="1056,-297 976,-297 976,-261 1056,-261 1056,-297"/>
<text text-anchor="middle" x="1016" y="-275.3" font-family="Times,serif" font-size="14.00">node_name</text>
</g>
<!-- node_name_attributes -->
<g id="node25" class="node"><title>node_name_attributes</title>
<path fill="lightblue" stroke="black" d="M988,-182C988,-182 1044,-182 1044,-182 1050,-182 1056,-188 1056,-194 1056,-194 1056,-206 1056,-206 1056,-212 1050,-218 1044,-218 1044,-218 988,-218 988,-218 982,-218 976,-212 976,-206 976,-206 976,-194 976,-194 976,-188 982,-182 988,-182"/>
<text text-anchor="middle" x="1016" y="-196.3" font-family="Times,serif" font-size="14.00">node_name</text>
</g>
<!-- node_name&#45;&gt;node_name_attributes -->
<g id="edge20" class="edge"><title>node_name&#45;&gt;node_name_attributes</title>
<path fill="none" stroke="grey" d="M1016,-260.911C1016,-251.341 1016,-239.183 1016,-228.323"/>
<polygon fill="grey" stroke="grey" points="1019.5,-228.041 1016,-218.041 1012.5,-228.041 1019.5,-228.041"/>
</g>
<!-- edge_definition -->
<g id="node28" class="node"><title>edge_definition</title>
<polygon fill="white" stroke="black" points="1175.25,-297 1074.75,-297 1074.75,-261 1175.25,-261 1175.25,-297"/>
<text text-anchor="middle" x="1125" y="-275.3" font-family="Times,serif" font-size="14.00">edge_definition</text>
</g>
<!-- edge_definition_attributes -->
<g id="node29" class="node"><title>edge_definition_attributes</title>
<path fill="lightblue" stroke="black" d="M1086.5,-182C1086.5,-182 1163.5,-182 1163.5,-182 1169.5,-182 1175.5,-188 1175.5,-194 1175.5,-194 1175.5,-206 1175.5,-206 1175.5,-212 1169.5,-218 1163.5,-218 1163.5,-218 1086.5,-218 1086.5,-218 1080.5,-218 1074.5,-212 1074.5,-206 1074.5,-206 1074.5,-194 1074.5,-194 1074.5,-188 1080.5,-182 1086.5,-182"/>
<text text-anchor="middle" x="1125" y="-196.3" font-family="Times,serif" font-size="14.00">edge_definition</text>
</g>
<!-- edge_definition&#45;&gt;edge_definition_attributes -->
<g id="edge23" class="edge"><title>edge_definition&#45;&gt;edge_definition_attributes</title>
<path fill="none" stroke="grey" d="M1125,-260.911C1125,-251.341 1125,-239.183 1125,-228.323"/>
<polygon fill="grey" stroke="grey" points="1128.5,-228.041 1125,-218.041 1121.5,-228.041 1128.5,-228.041"/>
</g>
<!-- edge_statement -->
<g id="node30" class="node"><title>edge_statement</title>
<polygon fill="white" stroke="black" points="1294.25,-297 1193.75,-297 1193.75,-261 1294.25,-261 1294.25,-297"/>
<text text-anchor="middle" x="1244" y="-275.3" font-family="Times,serif" font-size="14.00">edge_statement</text>
</g>
<!-- edge_statement_attributes -->
<g id="node31" class="node"><title>edge_statement_attributes</title>
<path fill="lightblue" stroke="black" d="M1205.5,-182C1205.5,-182 1282.5,-182 1282.5,-182 1288.5,-182 1294.5,-188 1294.5,-194 1294.5,-194 1294.5,-206 1294.5,-206 1294.5,-212 1288.5,-218 1282.5,-218 1282.5,-218 1205.5,-218 1205.5,-218 1199.5,-218 1193.5,-212 1193.5,-206 1193.5,-206 1193.5,-194 1193.5,-194 1193.5,-188 1199.5,-182 1205.5,-182"/>
<text text-anchor="middle" x="1244" y="-196.3" font-family="Times,serif" font-size="14.00">edge_statement</text>
</g>
<!-- edge_statement&#45;&gt;edge_statement_attributes -->
<g id="edge24" class="edge"><title>edge_statement&#45;&gt;edge_statement_attributes</title>
<path fill="none" stroke="grey" d="M1244,-260.911C1244,-251.341 1244,-239.183 1244,-228.323"/>
<polygon fill="grey" stroke="grey" points="1247.5,-228.041 1244,-218.041 1240.5,-228.041 1247.5,-228.041"/>
</g>
<!-- edge_name -->
<g id="node32" class="node"><title>edge_name</title>
<polygon fill="white" stroke="black" points="1391.25,-297 1312.75,-297 1312.75,-261 1391.25,-261 1391.25,-297"/>
<text text-anchor="middle" x="1352" y="-275.3" font-family="Times,serif" font-size="14.00">edge_name</text>
</g>
<!-- edge_name_attributes -->
<g id="node33" class="node"><title>edge_name_attributes</title>
<path fill="lightblue" stroke="black" d="M1324.5,-182C1324.5,-182 1379.5,-182 1379.5,-182 1385.5,-182 1391.5,-188 1391.5,-194 1391.5,-194 1391.5,-206 1391.5,-206 1391.5,-212 1385.5,-218 1379.5,-218 1379.5,-218 1324.5,-218 1324.5,-218 1318.5,-218 1312.5,-212 1312.5,-206 1312.5,-206 1312.5,-194 1312.5,-194 1312.5,-188 1318.5,-182 1324.5,-182"/>
<text text-anchor="middle" x="1352" y="-196.3" font-family="Times,serif" font-size="14.00">edge_name</text>
</g>
<!-- edge_name&#45;&gt;edge_name_attributes -->
<g id="edge25" class="edge"><title>edge_name&#45;&gt;edge_name_attributes</title>
<path fill="none" stroke="grey" d="M1352,-260.911C1352,-251.341 1352,-239.183 1352,-228.323"/>
<polygon fill="grey" stroke="grey" points="1355.5,-228.041 1352,-218.041 1348.5,-228.041 1355.5,-228.041"/>
</g>
<!-- attribute_definition -->
<g id="node36" class="node"><title>attribute_definition</title>
<polygon fill="white" stroke="black" points="1530.25,-297 1409.75,-297 1409.75,-261 1530.25,-261 1530.25,-297"/>
<text text-anchor="middle" x="1470" y="-275.3" font-family="Times,serif" font-size="14.00">attribute_definition</text>
</g>
<!-- attribute_definition_attributes -->
<g id="node37" class="node"><title>attribute_definition_attributes</title>
<path fill="lightblue" stroke="black" d="M1421.5,-182C1421.5,-182 1518.5,-182 1518.5,-182 1524.5,-182 1530.5,-188 1530.5,-194 1530.5,-194 1530.5,-206 1530.5,-206 1530.5,-212 1524.5,-218 1518.5,-218 1518.5,-218 1421.5,-218 1421.5,-218 1415.5,-218 1409.5,-212 1409.5,-206 1409.5,-206 1409.5,-194 1409.5,-194 1409.5,-188 1415.5,-182 1421.5,-182"/>
<text text-anchor="middle" x="1470" y="-196.3" font-family="Times,serif" font-size="14.00">attribute_definition</text>
</g>
<!-- attribute_definition&#45;&gt;attribute_definition_attributes -->
<g id="edge28" class="edge"><title>attribute_definition&#45;&gt;attribute_definition_attributes</title>
<path fill="none" stroke="grey" d="M1470,-260.911C1470,-251.341 1470,-239.183 1470,-228.323"/>
<polygon fill="grey" stroke="grey" points="1473.5,-228.041 1470,-218.041 1466.5,-228.041 1473.5,-228.041"/>
</g>
<!-- attribute_statement -->
<g id="node38" class="node"><title>attribute_statement</title>
<polygon fill="white" stroke="black" points="1669.25,-297 1548.75,-297 1548.75,-261 1669.25,-261 1669.25,-297"/>
<text text-anchor="middle" x="1609" y="-275.3" font-family="Times,serif" font-size="14.00">attribute_statement</text>
</g>
<!-- attribute_statement_attributes -->
<g id="node39" class="node"><title>attribute_statement_attributes</title>
<path fill="lightblue" stroke="black" d="M1560.5,-182C1560.5,-182 1657.5,-182 1657.5,-182 1663.5,-182 1669.5,-188 1669.5,-194 1669.5,-194 1669.5,-206 1669.5,-206 1669.5,-212 1663.5,-218 1657.5,-218 1657.5,-218 1560.5,-218 1560.5,-218 1554.5,-218 1548.5,-212 1548.5,-206 1548.5,-206 1548.5,-194 1548.5,-194 1548.5,-188 1554.5,-182 1560.5,-182"/>
<text text-anchor="middle" x="1609" y="-196.3" font-family="Times,serif" font-size="14.00">attribute_statement</text>
</g>
<!-- attribute_statement&#45;&gt;attribute_statement_attributes -->
<g id="edge29" class="edge"><title>attribute_statement&#45;&gt;attribute_statement_attributes</title>
<path fill="none" stroke="grey" d="M1609,-260.911C1609,-251.341 1609,-239.183 1609,-228.323"/>
<polygon fill="grey" stroke="grey" points="1612.5,-228.041 1609,-218.041 1605.5,-228.041 1612.5,-228.041"/>
</g>
</g>
</svg>
