<?xml version="1.0" encoding="UTF-8" standalone="no"?>
<!DOCTYPE svg PUBLIC "-//W3C//DTD SVG 1.1//EN"
 "http://www.w3.org/Graphics/SVG/1.1/DTD/svg11.dtd">
<!-- Generated by graphviz version 2.30.1 (20130611.0131)
 -->
<!-- Title: Perl Pages: 1 -->
<svg width="1162pt" height="631pt"
 viewBox="0.00 0.00 1162.00 631.00" xmlns="http://www.w3.org/2000/svg" xmlns:xlink="http://www.w3.org/1999/xlink">
<g id="graph0" class="graph" transform="scale(1 1) rotate(0) translate(4 627)">
<title>Perl</title>
<polygon fill="white" stroke="white" points="-4,5 -4,-627 1159,-627 1159,5 -4,5"/>
<text text-anchor="middle" x="577" y="-7.8" font-family="Times,serif" font-size="14.00">stringparser.grammar.bnf</text>
<!-- graph_grammar -->
<g id="node1" class="node"><title>graph_grammar</title>
<polygon fill="lightgreen" stroke="black" points="710,-623 606,-623 606,-587 710,-587 710,-623"/>
<text text-anchor="middle" x="658" y="-601.3" font-family="Times,serif" font-size="14.00">graph_grammar</text>
</g>
<!-- «graph definition» -->
<g id="node2" class="node"><title>«graph definition»</title>
<polygon fill="none" stroke="black" points="495.25,-534 378.75,-534 378.75,-498 495.25,-498 495.25,-534"/>
<text text-anchor="middle" x="437" y="-512.3" font-family="Times,serif" font-size="14.00">«graph definition»</text>
</g>
<!-- graph_grammar&#45;&gt;«graph definition» -->
<g id="edge1" class="edge"><title>graph_grammar&#45;&gt;«graph definition»</title>
<path fill="none" stroke="grey" d="M614.601,-586.915C578.793,-572.819 527.854,-552.766 489.706,-537.748"/>
<polygon fill="grey" stroke="grey" points="490.887,-534.452 480.3,-534.046 488.322,-540.965 490.887,-534.452"/>
</g>
<!-- :default -->
<g id="node32" class="node"><title>:default</title>
<polygon fill="lightblue" stroke="black" points="648.5,-534 591.5,-534 591.5,-498 648.5,-498 648.5,-534"/>
<text text-anchor="middle" x="620" y="-512.3" font-family="Times,serif" font-size="14.00">:default</text>
</g>
<!-- graph_grammar&#45;&gt;:default -->
<g id="edge38" class="edge"><title>graph_grammar&#45;&gt;:default</title>
<path fill="none" stroke="grey" d="M650.492,-586.812C645.08,-574.419 637.674,-557.463 631.516,-543.365"/>
<polygon fill="grey" stroke="grey" points="634.702,-541.916 627.492,-534.153 628.287,-544.718 634.702,-541.916"/>
</g>
<!-- :discard -->
<g id="node34" class="node"><title>:discard</title>
<polygon fill="lightblue" stroke="black" points="726.25,-534 667.75,-534 667.75,-498 726.25,-498 726.25,-534"/>
<text text-anchor="middle" x="697" y="-512.3" font-family="Times,serif" font-size="14.00">:discard</text>
</g>
<!-- graph_grammar&#45;&gt;:discard -->
<g id="edge40" class="edge"><title>graph_grammar&#45;&gt;:discard</title>
<path fill="none" stroke="grey" d="M665.705,-586.812C671.26,-574.419 678.861,-557.463 685.181,-543.365"/>
<polygon fill="grey" stroke="grey" points="688.414,-544.71 689.311,-534.153 682.026,-541.846 688.414,-544.71"/>
</g>
<!-- {event subtext = completed «sub text»|event &#39;A[]&#39; = nulled «A»|event &#39;^a&#39; = predicted A} -->
<g id="node37" class="node"><title>{event subtext = completed «sub text»|event &#39;A[]&#39; = nulled «A»|event &#39;^a&#39; = predicted A}</title>
<polygon fill="lightblue" stroke="black" points="744.5,-481.5 744.5,-550.5 965.5,-550.5 965.5,-481.5 744.5,-481.5"/>
<text text-anchor="middle" x="855" y="-535.3" font-family="Times,serif" font-size="14.00">event subtext = completed «sub text»</text>
<polyline fill="none" stroke="black" points="744.5,-527.5 965.5,-527.5 "/>
<text text-anchor="middle" x="855" y="-512.3" font-family="Times,serif" font-size="14.00">event &#39;A[]&#39; = nulled «A»</text>
<polyline fill="none" stroke="black" points="744.5,-504.5 965.5,-504.5 "/>
<text text-anchor="middle" x="855" y="-489.3" font-family="Times,serif" font-size="14.00">event &#39;^a&#39; = predicted A</text>
</g>
<!-- graph_grammar&#45;&gt;{event subtext = completed «sub text»|event &#39;A[]&#39; = nulled «A»|event &#39;^a&#39; = predicted A} -->
<g id="edge43" class="edge"><title>graph_grammar&#45;&gt;{event subtext = completed «sub text»|event &#39;A[]&#39; = nulled «A»|event &#39;^a&#39; = predicted A}</title>
<path fill="none" stroke="grey" d="M696.921,-586.812C717.793,-577.594 744.383,-565.851 769.774,-554.638"/>
<polygon fill="grey" stroke="grey" points="771.328,-557.778 779.061,-550.536 768.5,-551.375 771.328,-557.778"/>
</g>
<!-- {action = graph} -->
<g id="node3" class="node"><title>{action = graph}</title>
<polygon fill="lightblue" stroke="black" points="212,-408 212,-444 308,-444 308,-408 212,-408"/>
<text text-anchor="middle" x="260" y="-422.3" font-family="Times,serif" font-size="14.00">action = graph</text>
</g>
<!-- «graph definition»&#45;&gt;{action = graph} -->
<g id="edge2" class="edge"><title>«graph definition»&#45;&gt;{action = graph}</title>
<path fill="none" stroke="grey" d="M402.452,-497.824C374.188,-483.772 334.052,-463.817 303.582,-448.668"/>
<polygon fill="grey" stroke="grey" points="304.973,-445.451 294.46,-444.133 301.857,-451.719 304.973,-445.451"/>
</g>
<!-- node_definition -->
<g id="node4" class="node"><title>node_definition</title>
<polygon fill="none" stroke="black" points="427.5,-444 326.5,-444 326.5,-408 427.5,-408 427.5,-444"/>
<text text-anchor="middle" x="377" y="-422.3" font-family="Times,serif" font-size="14.00">node_definition</text>
</g>
<!-- «graph definition»&#45;&gt;node_definition -->
<g id="edge3" class="edge"><title>«graph definition»&#45;&gt;node_definition</title>
<path fill="none" stroke="grey" d="M425.146,-497.614C416.378,-484.755 404.299,-467.038 394.433,-452.568"/>
<polygon fill="grey" stroke="grey" points="397.15,-450.341 388.625,-444.05 391.367,-454.284 397.15,-450.341"/>
</g>
<!-- edge_definition -->
<g id="node21" class="node"><title>edge_definition</title>
<polygon fill="none" stroke="black" points="547.25,-444 446.75,-444 446.75,-408 547.25,-408 547.25,-444"/>
<text text-anchor="middle" x="497" y="-422.3" font-family="Times,serif" font-size="14.00">edge_definition</text>
</g>
<!-- «graph definition»&#45;&gt;edge_definition -->
<g id="edge22" class="edge"><title>«graph definition»&#45;&gt;edge_definition</title>
<path fill="none" stroke="grey" d="M448.854,-497.614C457.622,-484.755 469.701,-467.038 479.567,-452.568"/>
<polygon fill="grey" stroke="grey" points="482.633,-454.284 485.375,-444.05 476.85,-450.341 482.633,-454.284"/>
</g>
<!-- node_statement -->
<g id="node5" class="node"><title>node_statement</title>
<polygon fill="none" stroke="black" points="365.5,-371 264.5,-371 264.5,-335 365.5,-335 365.5,-371"/>
<text text-anchor="middle" x="315" y="-349.3" font-family="Times,serif" font-size="14.00">node_statement</text>
</g>
<!-- node_definition&#45;&gt;node_statement -->
<g id="edge4" class="edge"><title>node_definition&#45;&gt;node_statement</title>
<path fill="none" stroke="grey" d="M356.113,-407.813C347.671,-399.179 338.192,-388.555 330.379,-379.034"/>
<polygon fill="grey" stroke="grey" points="332.974,-376.675 324.009,-371.029 327.496,-381.033 332.974,-376.675"/>
</g>
<!-- node_definition&#45;&gt;node_statement -->
<g id="edge20" class="edge"><title>node_definition&#45;&gt;node_statement</title>
<path fill="none" stroke="grey" d="M367.87,-407.813C361.1,-399.005 351.79,-388.125 342.809,-378.458"/>
<polygon fill="grey" stroke="grey" points="345.163,-375.855 335.732,-371.029 340.095,-380.684 345.163,-375.855"/>
</g>
<!-- graph_definition -->
<g id="node20" class="node"><title>graph_definition</title>
<polygon fill="none" stroke="black" points="490.25,-371 383.75,-371 383.75,-335 490.25,-335 490.25,-371"/>
<text text-anchor="middle" x="437" y="-349.3" font-family="Times,serif" font-size="14.00">graph_definition</text>
</g>
<!-- node_definition&#45;&gt;graph_definition -->
<g id="edge21" class="edge"><title>node_definition&#45;&gt;graph_definition</title>
<path fill="none" stroke="grey" d="M391.524,-407.813C398.894,-399.092 407.98,-388.34 416.088,-378.746"/>
<polygon fill="grey" stroke="grey" points="418.828,-380.926 422.609,-371.029 413.482,-376.408 418.828,-380.926"/>
</g>
<!-- node_name -->
<g id="node6" class="node"><title>node_name</title>
<polygon fill="none" stroke="black" points="322,-299 242,-299 242,-263 322,-263 322,-299"/>
<text text-anchor="middle" x="282" y="-277.3" font-family="Times,serif" font-size="14.00">node_name</text>
</g>
<!-- node_statement&#45;&gt;node_name -->
<g id="edge5" class="edge"><title>node_statement&#45;&gt;node_name</title>
<path fill="none" stroke="grey" d="M300.927,-334.697C296.397,-326.813 291.696,-317.304 287.943,-308.546"/>
<polygon fill="grey" stroke="grey" points="291.13,-307.091 284.168,-299.104 284.63,-309.689 291.13,-307.091"/>
</g>
<!-- node_statement&#45;&gt;node_name -->
<g id="edge11" class="edge"><title>node_statement&#45;&gt;node_name</title>
<path fill="none" stroke="grey" d="M312.758,-334.697C309.793,-326.644 305.407,-316.894 300.796,-307.982"/>
<polygon fill="grey" stroke="grey" points="303.816,-306.211 295.959,-299.104 297.669,-309.56 303.816,-306.211"/>
</g>
<!-- attribute_definition -->
<g id="node12" class="node"><title>attribute_definition</title>
<polygon fill="none" stroke="black" points="467.25,-299 346.75,-299 346.75,-263 467.25,-263 467.25,-299"/>
<text text-anchor="middle" x="407" y="-277.3" font-family="Times,serif" font-size="14.00">attribute_definition</text>
</g>
<!-- node_statement&#45;&gt;attribute_definition -->
<g id="edge12" class="edge"><title>node_statement&#45;&gt;attribute_definition</title>
<path fill="none" stroke="grey" d="M337.742,-334.697C349.44,-325.796 363.861,-314.823 376.51,-305.199"/>
<polygon fill="grey" stroke="grey" points="378.681,-307.945 384.52,-299.104 374.442,-302.374 378.681,-307.945"/>
</g>
<!-- (&#39;,&#39;) -->
<g id="node19" class="node"><title>(&#39;,&#39;)</title>
<polygon fill="none" stroke="black" points="543,-299 489,-299 489,-263 543,-263 543,-299"/>
<text text-anchor="middle" x="516" y="-277.3" font-family="Times,serif" font-size="14.00">(&#39;,&#39;)</text>
</g>
<!-- node_statement&#45;&gt;(&#39;,&#39;) -->
<g id="edge19" class="edge"><title>node_statement&#45;&gt;(&#39;,&#39;)</title>
<path fill="none" stroke="grey" d="M365.778,-336.485C397.661,-326.449 439.508,-312.733 476,-299 477.024,-298.615 478.06,-298.218 479.104,-297.814"/>
<polygon fill="grey" stroke="grey" points="480.603,-300.984 488.58,-294.011 477.996,-294.487 480.603,-300.984"/>
</g>
<!-- start_node -->
<g id="node7" class="node"><title>start_node</title>
<polygon fill="none" stroke="black" points="199.25,-227 126.75,-227 126.75,-191 199.25,-191 199.25,-227"/>
<text text-anchor="middle" x="163" y="-205.3" font-family="Times,serif" font-size="14.00">start_node</text>
</g>
<!-- node_name&#45;&gt;start_node -->
<g id="edge6" class="edge"><title>node_name&#45;&gt;start_node</title>
<path fill="none" stroke="grey" d="M252.889,-262.876C237.33,-253.724 217.981,-242.342 201.224,-232.485"/>
<polygon fill="grey" stroke="grey" points="202.617,-229.243 192.223,-227.19 199.067,-235.277 202.617,-229.243"/>
</g>
<!-- end_node -->
<g id="node10" class="node"><title>end_node</title>
<polygon fill="none" stroke="black" points="287.25,-227 218.75,-227 218.75,-191 287.25,-191 287.25,-227"/>
<text text-anchor="middle" x="253" y="-205.3" font-family="Times,serif" font-size="14.00">end_node</text>
</g>
<!-- node_name&#45;&gt;end_node -->
<g id="edge9" class="edge"><title>node_name&#45;&gt;end_node</title>
<path fill="none" stroke="grey" d="M274.831,-262.697C271.565,-254.813 267.626,-245.304 263.998,-236.546"/>
<polygon fill="grey" stroke="grey" points="267.147,-235.003 260.086,-227.104 260.68,-237.683 267.147,-235.003"/>
</g>
<!-- {event = start_node|pause = before} -->
<g id="node8" class="node"><title>{event = start_node|pause = before}</title>
<polygon fill="lightblue" stroke="black" points="0,-108 0,-154 118,-154 118,-108 0,-108"/>
<text text-anchor="middle" x="59" y="-138.8" font-family="Times,serif" font-size="14.00">event = start_node</text>
<polyline fill="none" stroke="black" points="0,-131 118,-131 "/>
<text text-anchor="middle" x="59" y="-115.8" font-family="Times,serif" font-size="14.00">pause = before</text>
</g>
<!-- start_node&#45;&gt;{event = start_node|pause = before} -->
<g id="edge7" class="edge"><title>start_node&#45;&gt;{event = start_node|pause = before}</title>
<path fill="none" stroke="grey" d="M139.66,-190.944C127.245,-181.871 111.659,-170.482 97.5065,-160.139"/>
<polygon fill="grey" stroke="grey" points="99.5128,-157.271 89.3738,-154.196 95.3827,-162.922 99.5128,-157.271"/>
</g>
<!-- &#39;[&#39; -->
<g id="node9" class="node"><title>&#39;[&#39;</title>
<polygon fill="none" stroke="black" points="190,-149 136,-149 136,-113 190,-113 190,-149"/>
<text text-anchor="middle" x="163" y="-127.3" font-family="Times,serif" font-size="14.00">&#39;[&#39;</text>
</g>
<!-- start_node&#45;&gt;&#39;[&#39; -->
<g id="edge8" class="edge"><title>start_node&#45;&gt;&#39;[&#39;</title>
<path fill="none" stroke="grey" d="M163,-190.754C163,-181.523 163,-169.935 163,-159.495"/>
<polygon fill="grey" stroke="grey" points="166.5,-159.177 163,-149.177 159.5,-159.177 166.5,-159.177"/>
</g>
<!-- &#39;]&#39; -->
<g id="node11" class="node"><title>&#39;]&#39;</title>
<polygon fill="none" stroke="black" points="262,-149 208,-149 208,-113 262,-113 262,-149"/>
<text text-anchor="middle" x="235" y="-127.3" font-family="Times,serif" font-size="14.00">&#39;]&#39;</text>
</g>
<!-- end_node&#45;&gt;&#39;]&#39; -->
<g id="edge10" class="edge"><title>end_node&#45;&gt;&#39;]&#39;</title>
<path fill="none" stroke="grey" d="M248.916,-190.754C246.706,-181.426 243.927,-169.691 241.434,-159.165"/>
<polygon fill="grey" stroke="grey" points="244.779,-158.101 239.068,-149.177 237.967,-159.715 244.779,-158.101"/>
</g>
<!-- attribute_statement -->
<g id="node13" class="node"><title>attribute_statement</title>
<polygon fill="none" stroke="black" points="467.25,-227 346.75,-227 346.75,-191 467.25,-191 467.25,-227"/>
<text text-anchor="middle" x="407" y="-205.3" font-family="Times,serif" font-size="14.00">attribute_statement</text>
</g>
<!-- attribute_definition&#45;&gt;attribute_statement -->
<g id="edge13" class="edge"><title>attribute_definition&#45;&gt;attribute_statement</title>
<path fill="none" stroke="grey" d="M407,-262.697C407,-254.983 407,-245.712 407,-237.112"/>
<polygon fill="grey" stroke="grey" points="410.5,-237.104 407,-227.104 403.5,-237.104 410.5,-237.104"/>
</g>
<!-- start_attributes -->
<g id="node14" class="node"><title>start_attributes</title>
<polygon fill="none" stroke="black" points="377.25,-149 280.75,-149 280.75,-113 377.25,-113 377.25,-149"/>
<text text-anchor="middle" x="329" y="-127.3" font-family="Times,serif" font-size="14.00">start_attributes</text>
</g>
<!-- attribute_statement&#45;&gt;start_attributes -->
<g id="edge14" class="edge"><title>attribute_statement&#45;&gt;start_attributes</title>
<path fill="none" stroke="grey" d="M389.301,-190.754C378.829,-180.551 365.402,-167.469 353.878,-156.24"/>
<polygon fill="grey" stroke="grey" points="356.234,-153.649 346.629,-149.177 351.349,-158.663 356.234,-153.649"/>
</g>
<!-- end_attributes -->
<g id="node17" class="node"><title>end_attributes</title>
<polygon fill="none" stroke="black" points="488.25,-149 395.75,-149 395.75,-113 488.25,-113 488.25,-149"/>
<text text-anchor="middle" x="442" y="-127.3" font-family="Times,serif" font-size="14.00">end_attributes</text>
</g>
<!-- attribute_statement&#45;&gt;end_attributes -->
<g id="edge17" class="edge"><title>attribute_statement&#45;&gt;end_attributes</title>
<path fill="none" stroke="grey" d="M414.942,-190.754C419.328,-181.232 424.868,-169.201 429.792,-158.509"/>
<polygon fill="grey" stroke="grey" points="433.085,-159.724 434.089,-149.177 426.727,-156.796 433.085,-159.724"/>
</g>
<!-- {event = start_attributes|pause = before} -->
<g id="node15" class="node"><title>{event = start_attributes|pause = before}</title>
<polygon fill="lightblue" stroke="black" points="163,-24 163,-70 305,-70 305,-24 163,-24"/>
<text text-anchor="middle" x="234" y="-54.8" font-family="Times,serif" font-size="14.00">event = start_attributes</text>
<polyline fill="none" stroke="black" points="163,-47 305,-47 "/>
<text text-anchor="middle" x="234" y="-31.8" font-family="Times,serif" font-size="14.00">pause = before</text>
</g>
<!-- start_attributes&#45;&gt;{event = start_attributes|pause = before} -->
<g id="edge15" class="edge"><title>start_attributes&#45;&gt;{event = start_attributes|pause = before}</title>
<path fill="none" stroke="grey" d="M308.853,-112.61C296.833,-102.235 281.268,-88.8 267.448,-76.8707"/>
<polygon fill="grey" stroke="grey" points="269.409,-73.94 259.552,-70.0554 264.835,-79.2391 269.409,-73.94"/>
</g>
<!-- &#39;{&#39; -->
<g id="node16" class="node"><title>&#39;{&#39;</title>
<polygon fill="none" stroke="black" points="377,-65 323,-65 323,-29 377,-29 377,-65"/>
<text text-anchor="middle" x="350" y="-43.3" font-family="Times,serif" font-size="14.00">&#39;{&#39;</text>
</g>
<!-- start_attributes&#45;&gt;&#39;{&#39; -->
<g id="edge16" class="edge"><title>start_attributes&#45;&gt;&#39;{&#39;</title>
<path fill="none" stroke="grey" d="M333.454,-112.61C336.257,-101.665 339.932,-87.3145 343.106,-74.9188"/>
<polygon fill="grey" stroke="grey" points="346.534,-75.6396 345.625,-65.0838 339.753,-73.9029 346.534,-75.6396"/>
</g>
<!-- &#39;}&#39; -->
<g id="node18" class="node"><title>&#39;}&#39;</title>
<polygon fill="none" stroke="black" points="469,-65 415,-65 415,-29 469,-29 469,-65"/>
<text text-anchor="middle" x="442" y="-43.3" font-family="Times,serif" font-size="14.00">&#39;}&#39;</text>
</g>
<!-- end_attributes&#45;&gt;&#39;}&#39; -->
<g id="edge18" class="edge"><title>end_attributes&#45;&gt;&#39;}&#39;</title>
<path fill="none" stroke="grey" d="M442,-112.61C442,-101.774 442,-87.6012 442,-75.2913"/>
<polygon fill="grey" stroke="grey" points="445.5,-75.0838 442,-65.0838 438.5,-75.0839 445.5,-75.0838"/>
</g>
<!-- edge_statement -->
<g id="node22" class="node"><title>edge_statement</title>
<polygon fill="none" stroke="black" points="609.25,-371 508.75,-371 508.75,-335 609.25,-335 609.25,-371"/>
<text text-anchor="middle" x="559" y="-349.3" font-family="Times,serif" font-size="14.00">edge_statement</text>
</g>
<!-- edge_definition&#45;&gt;edge_statement -->
<g id="edge23" class="edge"><title>edge_definition&#45;&gt;edge_statement</title>
<path fill="none" stroke="grey" d="M506.13,-407.813C512.9,-399.005 522.21,-388.125 531.191,-378.458"/>
<polygon fill="grey" stroke="grey" points="533.905,-380.684 538.268,-371.029 528.837,-375.855 533.905,-380.684"/>
</g>
<!-- edge_definition&#45;&gt;edge_statement -->
<g id="edge36" class="edge"><title>edge_definition&#45;&gt;edge_statement</title>
<path fill="none" stroke="grey" d="M517.887,-407.813C526.329,-399.179 535.808,-388.555 543.621,-379.034"/>
<polygon fill="grey" stroke="grey" points="546.504,-381.033 549.991,-371.029 541.026,-376.675 546.504,-381.033"/>
</g>
<!-- edge_definition&#45;&gt;graph_definition -->
<g id="edge37" class="edge"><title>edge_definition&#45;&gt;graph_definition</title>
<path fill="none" stroke="grey" d="M482.476,-407.813C475.106,-399.092 466.02,-388.34 457.912,-378.746"/>
<polygon fill="grey" stroke="grey" points="460.518,-376.408 451.391,-371.029 455.172,-380.926 460.518,-376.408"/>
</g>
<!-- edge_name -->
<g id="node23" class="node"><title>edge_name</title>
<polygon fill="none" stroke="black" points="642.25,-299 563.75,-299 563.75,-263 642.25,-263 642.25,-299"/>
<text text-anchor="middle" x="603" y="-277.3" font-family="Times,serif" font-size="14.00">edge_name</text>
</g>
<!-- edge_statement&#45;&gt;edge_name -->
<g id="edge24" class="edge"><title>edge_statement&#45;&gt;edge_name</title>
<path fill="none" stroke="grey" d="M563.961,-334.697C568.281,-326.474 574.359,-316.483 580.501,-307.421"/>
<polygon fill="grey" stroke="grey" points="583.461,-309.297 586.354,-299.104 577.736,-305.268 583.461,-309.297"/>
</g>
<!-- edge_statement&#45;&gt;edge_name -->
<g id="edge33" class="edge"><title>edge_statement&#45;&gt;edge_name</title>
<path fill="none" stroke="grey" d="M575.792,-334.697C581.685,-326.644 588.023,-316.894 593.215,-307.982"/>
<polygon fill="grey" stroke="grey" points="596.35,-309.546 598.144,-299.104 590.23,-306.149 596.35,-309.546"/>
</g>
<!-- edge_statement&#45;&gt;attribute_definition -->
<g id="edge34" class="edge"><title>edge_statement&#45;&gt;attribute_definition</title>
<path fill="none" stroke="grey" d="M521.817,-334.876C501.13,-325.349 475.198,-313.407 453.215,-303.283"/>
<polygon fill="grey" stroke="grey" points="454.61,-300.072 444.063,-299.068 451.682,-306.43 454.61,-300.072"/>
</g>
<!-- edge_statement&#45;&gt;(&#39;,&#39;) -->
<g id="edge35" class="edge"><title>edge_statement&#45;&gt;(&#39;,&#39;)</title>
<path fill="none" stroke="grey" d="M548.371,-334.697C543.372,-326.559 537.309,-316.689 531.788,-307.701"/>
<polygon fill="grey" stroke="grey" points="534.723,-305.793 526.507,-299.104 528.759,-309.457 534.723,-305.793"/>
</g>
<!-- directed_edge -->
<g id="node24" class="node"><title>directed_edge</title>
<polygon fill="none" stroke="black" points="678,-227 586,-227 586,-191 678,-191 678,-227"/>
<text text-anchor="middle" x="632" y="-205.3" font-family="Times,serif" font-size="14.00">directed_edge</text>
</g>
<!-- edge_name&#45;&gt;directed_edge -->
<g id="edge25" class="edge"><title>edge_name&#45;&gt;directed_edge</title>
<path fill="none" stroke="grey" d="M610.169,-262.697C613.435,-254.813 617.374,-245.304 621.002,-236.546"/>
<polygon fill="grey" stroke="grey" points="624.32,-237.683 624.914,-227.104 617.853,-235.003 624.32,-237.683"/>
</g>
<!-- undirected_edge -->
<g id="node28" class="node"><title>undirected_edge</title>
<polygon fill="none" stroke="black" points="1020.5,-227 915.5,-227 915.5,-191 1020.5,-191 1020.5,-227"/>
<text text-anchor="middle" x="968" y="-205.3" font-family="Times,serif" font-size="14.00">undirected_edge</text>
</g>
<!-- edge_name&#45;&gt;undirected_edge -->
<g id="edge29" class="edge"><title>edge_name&#45;&gt;undirected_edge</title>
<path fill="none" stroke="grey" d="M642.408,-272.442C705.566,-260.33 829.994,-236.467 905.411,-222.003"/>
<polygon fill="grey" stroke="grey" points="906.101,-225.435 915.262,-220.114 904.782,-218.56 906.101,-225.435"/>
</g>
<!-- {priority = 1} -->
<g id="node25" class="node"><title>{priority = 1}</title>
<polygon fill="lightblue" stroke="black" points="734,-113 734,-149 814,-149 814,-113 734,-113"/>
<text text-anchor="middle" x="774" y="-127.3" font-family="Times,serif" font-size="14.00">priority = 1</text>
</g>
<!-- directed_edge&#45;&gt;{priority = 1} -->
<g id="edge26" class="edge"><title>directed_edge&#45;&gt;{priority = 1}</title>
<path fill="none" stroke="grey" d="M663.868,-190.944C684.187,-180.069 710.726,-165.865 732.661,-154.125"/>
<polygon fill="grey" stroke="grey" points="734.582,-157.067 741.747,-149.262 731.279,-150.895 734.582,-157.067"/>
</g>
<!-- {event = directed_edge|pause = before} -->
<g id="node26" class="node"><title>{event = directed_edge|pause = before}</title>
<polygon fill="lightblue" stroke="black" points="506.5,-108 506.5,-154 643.5,-154 643.5,-108 506.5,-108"/>
<text text-anchor="middle" x="575" y="-138.8" font-family="Times,serif" font-size="14.00">event = directed_edge</text>
<polyline fill="none" stroke="black" points="506.5,-131 643.5,-131 "/>
<text text-anchor="middle" x="575" y="-115.8" font-family="Times,serif" font-size="14.00">pause = before</text>
</g>
<!-- directed_edge&#45;&gt;{event = directed_edge|pause = before} -->
<g id="edge27" class="edge"><title>directed_edge&#45;&gt;{event = directed_edge|pause = before}</title>
<path fill="none" stroke="grey" d="M619.066,-190.754C612.765,-182.354 605.001,-172.001 597.754,-162.339"/>
<polygon fill="grey" stroke="grey" points="600.368,-159.991 591.568,-154.091 594.768,-164.191 600.368,-159.991"/>
</g>
<!-- &#39;&#45;&gt;&#39; -->
<g id="node27" class="node"><title>&#39;&#45;&gt;&#39;</title>
<polygon fill="none" stroke="black" points="716,-149 662,-149 662,-113 716,-113 716,-149"/>
<text text-anchor="middle" x="689" y="-127.3" font-family="Times,serif" font-size="14.00">&#39;&#45;&gt;&#39;</text>
</g>
<!-- directed_edge&#45;&gt;&#39;&#45;&gt;&#39; -->
<g id="edge28" class="edge"><title>directed_edge&#45;&gt;&#39;&#45;&gt;&#39;</title>
<path fill="none" stroke="grey" d="M644.934,-190.754C652.368,-180.843 661.839,-168.214 670.095,-157.207"/>
<polygon fill="grey" stroke="grey" points="672.917,-159.277 676.117,-149.177 667.317,-155.077 672.917,-159.277"/>
</g>
<!-- {priority = 2} -->
<g id="node29" class="node"><title>{priority = 2}</title>
<polygon fill="lightblue" stroke="black" points="1074,-113 1074,-149 1154,-149 1154,-113 1074,-113"/>
<text text-anchor="middle" x="1114" y="-127.3" font-family="Times,serif" font-size="14.00">priority = 2</text>
</g>
<!-- undirected_edge&#45;&gt;{priority = 2} -->
<g id="edge30" class="edge"><title>undirected_edge&#45;&gt;{priority = 2}</title>
<path fill="none" stroke="grey" d="M1000.77,-190.944C1021.82,-179.982 1049.38,-165.637 1072.04,-153.844"/>
<polygon fill="grey" stroke="grey" points="1073.84,-156.852 1081.09,-149.13 1070.61,-150.643 1073.84,-156.852"/>
</g>
<!-- {event = undirected_edge|pause = before} -->
<g id="node30" class="node"><title>{event = undirected_edge|pause = before}</title>
<polygon fill="lightblue" stroke="black" points="832.5,-108 832.5,-154 983.5,-154 983.5,-108 832.5,-108"/>
<text text-anchor="middle" x="908" y="-138.8" font-family="Times,serif" font-size="14.00">event = undirected_edge</text>
<polyline fill="none" stroke="black" points="832.5,-131 983.5,-131 "/>
<text text-anchor="middle" x="908" y="-115.8" font-family="Times,serif" font-size="14.00">pause = before</text>
</g>
<!-- undirected_edge&#45;&gt;{event = undirected_edge|pause = before} -->
<g id="edge31" class="edge"><title>undirected_edge&#45;&gt;{event = undirected_edge|pause = before}</title>
<path fill="none" stroke="grey" d="M954.385,-190.754C947.686,-182.269 939.415,-171.792 931.72,-162.046"/>
<polygon fill="grey" stroke="grey" points="934.384,-159.771 925.44,-154.091 928.89,-164.108 934.384,-159.771"/>
</g>
<!-- &#39;&#45;&#45;&#39; -->
<g id="node31" class="node"><title>&#39;&#45;&#45;&#39;</title>
<polygon fill="none" stroke="black" points="1056,-149 1002,-149 1002,-113 1056,-113 1056,-149"/>
<text text-anchor="middle" x="1029" y="-127.3" font-family="Times,serif" font-size="14.00">&#39;&#45;&#45;&#39;</text>
</g>
<!-- undirected_edge&#45;&gt;&#39;&#45;&#45;&#39; -->
<g id="edge32" class="edge"><title>undirected_edge&#45;&gt;&#39;&#45;&#45;&#39;</title>
<path fill="none" stroke="grey" d="M981.842,-190.754C989.797,-180.843 999.933,-168.214 1008.77,-157.207"/>
<polygon fill="grey" stroke="grey" points="1011.68,-159.167 1015.21,-149.177 1006.22,-154.785 1011.68,-159.167"/>
</g>
<!-- action = [values] -->
<g id="node33" class="node"><title>action = [values]</title>
<polygon fill="lightblue" stroke="black" points="674.25,-444 565.75,-444 565.75,-408 674.25,-408 674.25,-444"/>
<text text-anchor="middle" x="620" y="-422.3" font-family="Times,serif" font-size="14.00">action = [values]</text>
</g>
<!-- :default&#45;&gt;action = [values] -->
<g id="edge39" class="edge"><title>:default&#45;&gt;action = [values]</title>
<path fill="none" stroke="grey" d="M620,-497.614C620,-485.24 620,-468.369 620,-454.22"/>
<polygon fill="grey" stroke="grey" points="623.5,-454.05 620,-444.05 616.5,-454.05 623.5,-454.05"/>
</g>
<!-- whitespace -->
<g id="node35" class="node"><title>whitespace</title>
<polygon fill="lightblue" stroke="black" points="769.25,-444 692.75,-444 692.75,-408 769.25,-408 769.25,-444"/>
<text text-anchor="middle" x="731" y="-422.3" font-family="Times,serif" font-size="14.00">whitespace</text>
</g>
<!-- :discard&#45;&gt;whitespace -->
<g id="edge41" class="edge"><title>:discard&#45;&gt;whitespace</title>
<path fill="none" stroke="grey" d="M703.717,-497.614C708.592,-484.998 715.273,-467.705 720.804,-453.391"/>
<polygon fill="grey" stroke="grey" points="724.073,-454.64 724.412,-444.05 717.543,-452.117 724.073,-454.64"/>
</g>
<!-- [\\s]+ -->
<g id="node36" class="node"><title>[\\s]+</title>
<polygon fill="lightblue" stroke="black" points="758,-371 704,-371 704,-335 758,-335 758,-371"/>
<text text-anchor="middle" x="731" y="-349.3" font-family="Times,serif" font-size="14.00">[\s]+</text>
</g>
<!-- whitespace&#45;&gt;[\\s]+ -->
<g id="edge42" class="edge"><title>whitespace&#45;&gt;[\\s]+</title>
<path fill="none" stroke="grey" d="M731,-407.813C731,-399.789 731,-390.047 731,-381.069"/>
<polygon fill="grey" stroke="grey" points="734.5,-381.029 731,-371.029 727.5,-381.029 734.5,-381.029"/>
</g>
</g>
</svg>
