<?xml version="1.0" encoding="UTF-8" standalone="no"?>
<!DOCTYPE svg PUBLIC "-//W3C//DTD SVG 1.1//EN"
 "http://www.w3.org/Graphics/SVG/1.1/DTD/svg11.dtd">
<!-- Generated by graphviz version 2.38.0 (20140413.2041)
 -->
<!-- Title: Perl Pages: 1 -->
<svg width="653pt" height="313pt"
 viewBox="0.00 0.00 653.00 313.00" xmlns="http://www.w3.org/2000/svg" xmlns:xlink="http://www.w3.org/1999/xlink">
<g id="graph0" class="graph" transform="scale(1 1) rotate(0) translate(4 309)">
<title>Perl</title>
<polygon fill="white" stroke="none" points="-4,4 -4,-309 649,-309 649,4 -4,4"/>
<text text-anchor="middle" x="322.5" y="-7.8" font-family="Times,serif" font-size="14.00">stringparser.bnf</text>
<!-- ꞉default -->
<g id="node1" class="node"><title>꞉default</title>
<polygon fill="lightblue" stroke="black" points="59,-227.5 0,-227.5 0,-191.5 59,-191.5 59,-227.5"/>
<text text-anchor="middle" x="29.5" y="-205.8" font-family="Times,serif" font-size="14.00">꞉default</text>
</g>
<!-- BNF -->
<g id="node2" class="node"><title>BNF</title>
<polygon fill="lightgrey" stroke="black" points="200.5,-305 146.5,-305 146.5,-269 200.5,-269 200.5,-305"/>
<text text-anchor="middle" x="173.5" y="-283.3" font-family="Times,serif" font-size="14.00">BNF</text>
</g>
<!-- BNF&#45;&gt;꞉default -->
<g id="edge1" class="edge"><title>BNF&#45;&gt;꞉default</title>
<path fill="none" stroke="grey" d="M146.09,-272.686C124.776,-262.209 94.5496,-247.075 68.5,-233 68.2034,-232.84 67.9058,-232.679 67.6072,-232.516"/>
<polygon fill="grey" stroke="grey" points="69.2321,-229.415 58.7886,-227.631 65.84,-235.539 69.2321,-229.415"/>
</g>
<!-- lexeme default -->
<g id="node3" class="node"><title>lexeme default</title>
<polygon fill="lightblue" stroke="black" points="175.5,-227.5 77.5,-227.5 77.5,-191.5 175.5,-191.5 175.5,-227.5"/>
<text text-anchor="middle" x="126.5" y="-205.8" font-family="Times,serif" font-size="14.00">lexeme default</text>
</g>
<!-- BNF&#45;&gt;lexeme default -->
<g id="edge2" class="edge"><title>BNF&#45;&gt;lexeme default</title>
<path fill="none" stroke="grey" d="M162.835,-268.868C156.826,-259.215 149.201,-246.967 142.49,-236.186"/>
<polygon fill="grey" stroke="grey" points="145.379,-234.204 137.123,-227.564 139.436,-237.903 145.379,-234.204"/>
</g>
<!-- ꞉start -->
<g id="node5" class="node"><title>꞉start</title>
<path fill="lightgreen" stroke="black" d="M205.5,-186.5C205.5,-186.5 235.5,-186.5 235.5,-186.5 241.5,-186.5 247.5,-192.5 247.5,-198.5 247.5,-198.5 247.5,-220.5 247.5,-220.5 247.5,-226.5 241.5,-232.5 235.5,-232.5 235.5,-232.5 205.5,-232.5 205.5,-232.5 199.5,-232.5 193.5,-226.5 193.5,-220.5 193.5,-220.5 193.5,-198.5 193.5,-198.5 193.5,-192.5 199.5,-186.5 205.5,-186.5"/>
<text text-anchor="middle" x="220.5" y="-217.3" font-family="Times,serif" font-size="14.00">:start</text>
<polyline fill="none" stroke="black" points="193.5,-209.5 247.5,-209.5 "/>
<text text-anchor="middle" x="220.5" y="-194.3" font-family="Times,serif" font-size="14.00">start</text>
</g>
<!-- BNF&#45;&gt;꞉start -->
<g id="edge4" class="edge"><title>BNF&#45;&gt;꞉start</title>
<path fill="none" stroke="grey" d="M184.165,-268.868C189.214,-260.757 195.403,-250.815 201.233,-241.45"/>
<polygon fill="grey" stroke="grey" points="204.35,-243.066 206.664,-232.727 198.407,-239.366 204.35,-243.066"/>
</g>
<!-- ꞉discard -->
<g id="node6" class="node"><title>꞉discard</title>
<polygon fill="lightblue" stroke="black" points="325.5,-227.5 265.5,-227.5 265.5,-191.5 325.5,-191.5 325.5,-227.5"/>
<text text-anchor="middle" x="295.5" y="-205.8" font-family="Times,serif" font-size="14.00">꞉discard</text>
</g>
<!-- BNF&#45;&gt;꞉discard -->
<g id="edge5" class="edge"><title>BNF&#45;&gt;꞉discard</title>
<path fill="none" stroke="grey" d="M200.576,-269.244C217.787,-258.593 240.281,-244.673 259.052,-233.056"/>
<polygon fill="grey" stroke="grey" points="260.993,-235.971 267.654,-227.732 257.309,-230.019 260.993,-235.971"/>
</g>
<!-- lexeme default_1 -->
<g id="node4" class="node"><title>lexeme default_1</title>
<path fill="lightblue" stroke="black" d="M103,-68.5C103,-68.5 150,-68.5 150,-68.5 156,-68.5 162,-74.5 162,-80.5 162,-80.5 162,-92.5 162,-92.5 162,-98.5 156,-104.5 150,-104.5 150,-104.5 103,-104.5 103,-104.5 97,-104.5 91,-98.5 91,-92.5 91,-92.5 91,-80.5 91,-80.5 91,-74.5 97,-68.5 103,-68.5"/>
<text text-anchor="middle" x="126.5" y="-82.8" font-family="Times,serif" font-size="14.00">latm =&gt; 1</text>
</g>
<!-- lexeme default&#45;&gt;lexeme default_1 -->
<g id="edge3" class="edge"><title>lexeme default&#45;&gt;lexeme default_1</title>
<path fill="none" stroke="grey" d="M126.5,-191.42C126.5,-171.535 126.5,-138.423 126.5,-114.923"/>
<polygon fill="grey" stroke="grey" points="130,-114.885 126.5,-104.885 123,-114.885 130,-114.885"/>
</g>
<!-- whitespace -->
<g id="node7" class="node"><title>whitespace</title>
<polygon fill="lightblue" stroke="black" points="334,-104.5 257,-104.5 257,-68.5 334,-68.5 334,-104.5"/>
<text text-anchor="middle" x="295.5" y="-82.8" font-family="Times,serif" font-size="14.00">whitespace</text>
</g>
<!-- ꞉discard&#45;&gt;whitespace -->
<g id="edge6" class="edge"><title>꞉discard&#45;&gt;whitespace</title>
<path fill="none" stroke="grey" d="M295.5,-191.42C295.5,-171.535 295.5,-138.423 295.5,-114.923"/>
<polygon fill="grey" stroke="grey" points="299,-114.885 295.5,-104.885 292,-114.885 299,-114.885"/>
</g>
<!-- Legend -->
<g id="node8" class="node"><title>Legend</title>
<polygon fill="lightgrey" stroke="none" points="645,-150 352,-150 352,-23 645,-23 645,-150"/>
<polygon fill="white" stroke="none" points="360,-27 360,-146 637,-146 637,-27 360,-27"/>
<polygon fill="lightgreen" stroke="none" points="363.5,-121.5 363.5,-142.5 634.5,-142.5 634.5,-121.5 363.5,-121.5"/>
<polygon fill="none" stroke="black" points="363.5,-121.5 363.5,-142.5 634.5,-142.5 634.5,-121.5 363.5,-121.5"/>
<text text-anchor="start" x="410" y="-128.3" font-family="Times,serif" font-size="14.00">The green node is the start node</text>
<polygon fill="lightblue" stroke="none" points="363.5,-98.5 363.5,-119.5 634.5,-119.5 634.5,-98.5 363.5,-98.5"/>
<polygon fill="none" stroke="black" points="363.5,-98.5 363.5,-119.5 634.5,-119.5 634.5,-98.5 363.5,-98.5"/>
<text text-anchor="start" x="366.5" y="-105.3" font-family="Times,serif" font-size="14.00">Lightblue nodes are for reserved rule names, etc</text>
<polygon fill="orchid" stroke="none" points="363.5,-75.5 363.5,-96.5 634.5,-96.5 634.5,-75.5 363.5,-75.5"/>
<polygon fill="none" stroke="black" points="363.5,-75.5 363.5,-96.5 634.5,-96.5 634.5,-75.5 363.5,-75.5"/>
<text text-anchor="start" x="417.5" y="-82.3" font-family="Times,serif" font-size="14.00">Orchid nodes are for lexemes</text>
<polygon fill="goldenrod" stroke="none" points="363.5,-52.5 363.5,-73.5 634.5,-73.5 634.5,-52.5 363.5,-52.5"/>
<polygon fill="none" stroke="black" points="363.5,-52.5 363.5,-73.5 634.5,-73.5 634.5,-52.5 363.5,-52.5"/>
<text text-anchor="start" x="419" y="-59.3" font-family="Times,serif" font-size="14.00">Golden nodes are for actions</text>
<polygon fill="#ff3030" stroke="none" points="363.5,-29.5 363.5,-50.5 634.5,-50.5 634.5,-29.5 363.5,-29.5"/>
<polygon fill="none" stroke="black" points="363.5,-29.5 363.5,-50.5 634.5,-50.5 634.5,-29.5 363.5,-29.5"/>
<text text-anchor="start" x="431" y="-36.3" font-family="Times,serif" font-size="14.00">Red nodes are for events</text>
<polygon fill="none" stroke="black" points="360,-27 360,-146 637,-146 637,-27 360,-27"/>
</g>
</g>
</svg>
