<?xml version="1.0" encoding="UTF-8" standalone="no"?>
<!DOCTYPE svg PUBLIC "-//W3C//DTD SVG 1.1//EN"
 "http://www.w3.org/Graphics/SVG/1.1/DTD/svg11.dtd">
<!-- Generated by graphviz version 2.38.0 (20140413.2041)
 -->
<!-- Title: Perl Pages: 1 -->
<svg width="1086pt" height="923pt"
 viewBox="0.00 0.00 1085.54 923.00" xmlns="http://www.w3.org/2000/svg" xmlns:xlink="http://www.w3.org/1999/xlink">
<g id="graph0" class="graph" transform="scale(1 1) rotate(0) translate(4 919)">
<title>Perl</title>
<polygon fill="white" stroke="none" points="-4,4 -4,-919 1081.54,-919 1081.54,4 -4,4"/>
<text text-anchor="middle" x="538.772" y="-7.8" font-family="Times,serif" font-size="14.00">stringparser.bnf</text>
<!-- graph_grammar -->
<g id="node1" class="node"><title>graph_grammar</title>
<path fill="lightgreen" stroke="black" d="M258.045,-868.5C258.045,-868.5 338.045,-868.5 338.045,-868.5 344.045,-868.5 350.045,-874.5 350.045,-880.5 350.045,-880.5 350.045,-902.5 350.045,-902.5 350.045,-908.5 344.045,-914.5 338.045,-914.5 338.045,-914.5 258.045,-914.5 258.045,-914.5 252.045,-914.5 246.045,-908.5 246.045,-902.5 246.045,-902.5 246.045,-880.5 246.045,-880.5 246.045,-874.5 252.045,-868.5 258.045,-868.5"/>
<text text-anchor="middle" x="298.045" y="-899.3" font-family="Times,serif" font-size="14.00">:start</text>
<polyline fill="none" stroke="black" points="246.045,-891.5 350.045,-891.5 "/>
<text text-anchor="middle" x="298.045" y="-876.3" font-family="Times,serif" font-size="14.00">graph_grammar</text>
</g>
<!-- ꞉discard -->
<g id="node2" class="node"><title>꞉discard</title>
<polygon fill="lightblue" stroke="black" points="255.045,-832 195.045,-832 195.045,-796 255.045,-796 255.045,-832"/>
<text text-anchor="middle" x="225.045" y="-810.3" font-family="Times,serif" font-size="14.00">꞉discard</text>
</g>
<!-- graph_grammar&#45;&gt;꞉discard -->
<g id="edge1" class="edge"><title>graph_grammar&#45;&gt;꞉discard</title>
<path fill="none" stroke="grey" d="M276.142,-868.247C267.612,-859.191 257.807,-848.782 249.083,-839.52"/>
<polygon fill="grey" stroke="grey" points="251.464,-836.943 242.059,-832.063 246.368,-841.742 251.464,-836.943"/>
</g>
<!-- graph_definition -->
<g id="node4" class="node"><title>graph_definition</title>
<polygon fill="white" stroke="black" points="425.545,-832 318.545,-832 318.545,-796 425.545,-796 425.545,-832"/>
<text text-anchor="middle" x="372.045" y="-810.3" font-family="Times,serif" font-size="14.00">graph_definition</text>
</g>
<!-- graph_grammar&#45;&gt;graph_definition -->
<g id="edge3" class="edge"><title>graph_grammar&#45;&gt;graph_definition</title>
<path fill="none" stroke="grey" d="M320.247,-868.247C328.895,-859.191 338.833,-848.782 347.678,-839.52"/>
<polygon fill="grey" stroke="grey" points="350.423,-841.713 354.797,-832.063 345.36,-836.879 350.423,-841.713"/>
</g>
<!-- whitespace -->
<g id="node3" class="node"><title>whitespace</title>
<polygon fill="lightblue" stroke="black" points="166.545,-759.5 89.5448,-759.5 89.5448,-723.5 166.545,-723.5 166.545,-759.5"/>
<text text-anchor="middle" x="128.045" y="-737.8" font-family="Times,serif" font-size="14.00">whitespace</text>
</g>
<!-- ꞉discard&#45;&gt;whitespace -->
<g id="edge2" class="edge"><title>꞉discard&#45;&gt;whitespace</title>
<path fill="none" stroke="grey" d="M200.568,-795.705C188.413,-786.621 173.566,-775.524 160.478,-765.742"/>
<polygon fill="grey" stroke="grey" points="162.283,-762.721 152.178,-759.538 158.093,-768.328 162.283,-762.721"/>
</g>
<!-- [\\s] -->
<g id="node39" class="node"><title>[\\s]</title>
<polygon fill="white" stroke="black" points="132.045,-687 78.0448,-687 78.0448,-651 132.045,-651 132.045,-687"/>
<text text-anchor="middle" x="105.045" y="-665.3" font-family="Times,serif" font-size="14.00">[\s]+</text>
</g>
<!-- whitespace&#45;&gt;[\\s] -->
<g id="edge50" class="edge"><title>whitespace&#45;&gt;[\\s]</title>
<path fill="none" stroke="grey" d="M122.241,-723.205C119.688,-715.159 116.635,-705.534 113.814,-696.642"/>
<polygon fill="grey" stroke="grey" points="117.127,-695.511 110.767,-687.038 110.455,-697.628 117.127,-695.511"/>
</g>
<!-- graph_definition_attributes -->
<g id="node5" class="node"><title>graph_definition_attributes</title>
<path fill="goldenrod" stroke="black" d="M393.045,-723.5C393.045,-723.5 473.045,-723.5 473.045,-723.5 479.045,-723.5 485.045,-729.5 485.045,-735.5 485.045,-735.5 485.045,-747.5 485.045,-747.5 485.045,-753.5 479.045,-759.5 473.045,-759.5 473.045,-759.5 393.045,-759.5 393.045,-759.5 387.045,-759.5 381.045,-753.5 381.045,-747.5 381.045,-747.5 381.045,-735.5 381.045,-735.5 381.045,-729.5 387.045,-723.5 393.045,-723.5"/>
<text text-anchor="middle" x="433.045" y="-737.8" font-family="Times,serif" font-size="14.00">action =&gt; graph</text>
</g>
<!-- graph_definition&#45;&gt;graph_definition_attributes -->
<g id="edge4" class="edge"><title>graph_definition&#45;&gt;graph_definition_attributes</title>
<path fill="none" stroke="grey" d="M387.438,-795.705C394.644,-787.14 403.356,-776.785 411.227,-767.431"/>
<polygon fill="grey" stroke="grey" points="414.108,-769.443 417.868,-759.538 408.752,-764.936 414.108,-769.443"/>
</g>
<!-- node_definition -->
<g id="node6" class="node"><title>node_definition</title>
<polygon fill="white" stroke="black" points="363.045,-759.5 261.045,-759.5 261.045,-723.5 363.045,-723.5 363.045,-759.5"/>
<text text-anchor="middle" x="312.045" y="-737.8" font-family="Times,serif" font-size="14.00">node_definition</text>
</g>
<!-- graph_definition&#45;&gt;node_definition -->
<g id="edge5" class="edge"><title>graph_definition&#45;&gt;node_definition</title>
<path fill="none" stroke="grey" d="M356.904,-795.705C349.816,-787.14 341.246,-776.785 333.505,-767.431"/>
<polygon fill="grey" stroke="grey" points="336.045,-765.01 326.973,-759.538 330.652,-769.473 336.045,-765.01"/>
</g>
<!-- edge_definition -->
<g id="node7" class="node"><title>edge_definition</title>
<polygon fill="white" stroke="black" points="642.545,-759.5 541.545,-759.5 541.545,-723.5 642.545,-723.5 642.545,-759.5"/>
<text text-anchor="middle" x="592.045" y="-737.8" font-family="Times,serif" font-size="14.00">edge_definition</text>
</g>
<!-- graph_definition&#45;&gt;edge_definition -->
<g id="edge6" class="edge"><title>graph_definition&#45;&gt;edge_definition</title>
<path fill="none" stroke="grey" d="M425.582,-796.357C457.647,-785.79 498.496,-772.329 531.703,-761.385"/>
<polygon fill="grey" stroke="grey" points="532.896,-764.678 541.298,-758.223 530.705,-758.029 532.896,-764.678"/>
</g>
<!-- node_statement -->
<g id="node8" class="node"><title>node_statement</title>
<polygon fill="white" stroke="black" points="379.045,-615 277.045,-615 277.045,-579 379.045,-579 379.045,-615"/>
<text text-anchor="middle" x="328.045" y="-593.3" font-family="Times,serif" font-size="14.00">node_statement</text>
</g>
<!-- node_definition&#45;&gt;node_statement -->
<g id="edge7" class="edge"><title>node_definition&#45;&gt;node_statement</title>
<path fill="none" stroke="grey" d="M331.544,-723.267C340.559,-713.493 350.304,-700.663 355.045,-687 362.331,-666.002 354.213,-641.861 345.024,-623.871"/>
<polygon fill="grey" stroke="grey" points="348.076,-622.157 340.197,-615.074 341.939,-625.524 348.076,-622.157"/>
</g>
<!-- node_statement graph_definition -->
<g id="node9" class="node"><title>node_statement graph_definition</title>
<polygon fill="white" stroke="black" points="346.045,-687 150.045,-687 150.045,-651 346.045,-651 346.045,-687"/>
<text text-anchor="middle" x="248.045" y="-665.3" font-family="Times,serif" font-size="14.00">node_statement graph_definition</text>
</g>
<!-- node_definition&#45;&gt;node_statement graph_definition -->
<g id="edge8" class="edge"><title>node_definition&#45;&gt;node_statement graph_definition</title>
<path fill="none" stroke="grey" d="M295.895,-723.205C288.257,-714.553 279.008,-704.076 270.686,-694.648"/>
<polygon fill="grey" stroke="grey" points="273.21,-692.218 263.968,-687.038 267.962,-696.851 273.21,-692.218"/>
</g>
<!-- edge_statement -->
<g id="node21" class="node"><title>edge_statement</title>
<polygon fill="white" stroke="black" points="608.545,-615 507.545,-615 507.545,-579 608.545,-579 608.545,-615"/>
<text text-anchor="middle" x="558.045" y="-593.3" font-family="Times,serif" font-size="14.00">edge_statement</text>
</g>
<!-- edge_definition&#45;&gt;edge_statement -->
<g id="edge25" class="edge"><title>edge_definition&#45;&gt;edge_statement</title>
<path fill="none" stroke="grey" d="M604.918,-723.305C616.41,-704.659 629.883,-675.07 619.045,-651 613.918,-639.615 605.073,-629.66 595.684,-621.503"/>
<polygon fill="grey" stroke="grey" points="597.717,-618.646 587.739,-615.083 593.317,-624.09 597.717,-618.646"/>
</g>
<!-- edge_statement graph_definition -->
<g id="node22" class="node"><title>edge_statement graph_definition</title>
<polygon fill="white" stroke="black" points="610.545,-687 415.545,-687 415.545,-651 610.545,-651 610.545,-687"/>
<text text-anchor="middle" x="513.045" y="-665.3" font-family="Times,serif" font-size="14.00">edge_statement graph_definition</text>
</g>
<!-- edge_definition&#45;&gt;edge_statement graph_definition -->
<g id="edge26" class="edge"><title>edge_definition&#45;&gt;edge_statement graph_definition</title>
<path fill="none" stroke="grey" d="M572.11,-723.205C562.399,-714.294 550.579,-703.446 540.07,-693.802"/>
<polygon fill="grey" stroke="grey" points="542.434,-691.221 532.7,-687.038 537.701,-696.378 542.434,-691.221"/>
</g>
<!-- node_name -->
<g id="node10" class="node"><title>node_name</title>
<polygon fill="white" stroke="black" points="143.045,-471 63.0448,-471 63.0448,-435 143.045,-435 143.045,-471"/>
<text text-anchor="middle" x="103.045" y="-449.3" font-family="Times,serif" font-size="14.00">node_name</text>
</g>
<!-- node_statement&#45;&gt;node_name -->
<g id="edge11" class="edge"><title>node_statement&#45;&gt;node_name</title>
<path fill="none" stroke="grey" d="M276.793,-591.994C190.594,-583.052 24.2661,-563.36 7.04481,-543 -3.28794,-530.784 -1.03273,-520.811 7.04481,-507 17.3209,-489.429 35.6489,-477.134 53.5562,-468.766"/>
<polygon fill="grey" stroke="grey" points="55.0559,-471.93 62.8374,-464.74 52.2704,-465.508 55.0559,-471.93"/>
</g>
<!-- node_name attribute_definition -->
<g id="node11" class="node"><title>node_name attribute_definition</title>
<polygon fill="white" stroke="black" points="204.045,-543 16.0448,-543 16.0448,-507 204.045,-507 204.045,-543"/>
<text text-anchor="middle" x="110.045" y="-521.3" font-family="Times,serif" font-size="14.00">node_name attribute_definition</text>
</g>
<!-- node_statement&#45;&gt;node_name attribute_definition -->
<g id="edge12" class="edge"><title>node_statement&#45;&gt;node_name attribute_definition</title>
<path fill="none" stroke="grey" d="M276.933,-580.119C246.236,-569.981 206.91,-556.992 174.144,-546.17"/>
<polygon fill="grey" stroke="grey" points="175.24,-542.846 164.647,-543.034 173.045,-549.493 175.24,-542.846"/>
</g>
<!-- node_statement (&#39;,&#39;) node_statement -->
<g id="node13" class="node"><title>node_statement (&#39;,&#39;) node_statement</title>
<polygon fill="white" stroke="black" points="434.045,-543 222.045,-543 222.045,-507 434.045,-507 434.045,-543"/>
<text text-anchor="middle" x="328.045" y="-521.3" font-family="Times,serif" font-size="14.00">node_statement (&#39;,&#39;) node_statement</text>
</g>
<!-- node_statement&#45;&gt;node_statement (&#39;,&#39;) node_statement -->
<g id="edge15" class="edge"><title>node_statement&#45;&gt;node_statement (&#39;,&#39;) node_statement</title>
<path fill="none" stroke="grey" d="M316.14,-578.831C314.639,-571.131 314.197,-561.974 314.815,-553.417"/>
<polygon fill="grey" stroke="grey" points="318.297,-553.776 316.093,-543.413 311.354,-552.889 318.297,-553.776"/>
</g>
<!-- node_statement graph_definition&#45;&gt;graph_definition -->
<g id="edge10" class="edge"><title>node_statement graph_definition&#45;&gt;graph_definition</title>
<path fill="none" stroke="grey" d="M243.65,-687.135C239.971,-706.844 237.399,-738.405 252.045,-760 265.281,-779.517 287.354,-792.075 308.984,-800.112"/>
<polygon fill="grey" stroke="grey" points="307.933,-803.451 318.528,-803.391 310.208,-796.831 307.933,-803.451"/>
</g>
<!-- node_statement graph_definition&#45;&gt;node_statement -->
<g id="edge9" class="edge"><title>node_statement graph_definition&#45;&gt;node_statement</title>
<path fill="none" stroke="grey" d="M268.232,-650.831C277.896,-642.134 289.624,-631.578 300.126,-622.127"/>
<polygon fill="grey" stroke="grey" points="302.772,-624.454 307.864,-615.163 298.09,-619.251 302.772,-624.454"/>
</g>
<!-- start_node end_node -->
<g id="node15" class="node"><title>start_node end_node</title>
<polygon fill="white" stroke="black" points="167.545,-393.5 38.5448,-393.5 38.5448,-357.5 167.545,-357.5 167.545,-393.5"/>
<text text-anchor="middle" x="103.045" y="-371.8" font-family="Times,serif" font-size="14.00">start_node end_node</text>
</g>
<!-- node_name&#45;&gt;start_node end_node -->
<g id="edge19" class="edge"><title>node_name&#45;&gt;start_node end_node</title>
<path fill="none" stroke="grey" d="M103.045,-434.634C103.045,-425.465 103.045,-414.167 103.045,-403.912"/>
<polygon fill="grey" stroke="grey" points="106.545,-403.735 103.045,-393.735 99.5449,-403.735 106.545,-403.735"/>
</g>
<!-- node_name attribute_definition&#45;&gt;node_name -->
<g id="edge13" class="edge"><title>node_name attribute_definition&#45;&gt;node_name</title>
<path fill="none" stroke="grey" d="M108.278,-506.831C107.53,-499.131 106.64,-489.974 105.808,-481.417"/>
<polygon fill="grey" stroke="grey" points="109.286,-481.028 104.835,-471.413 102.319,-481.705 109.286,-481.028"/>
</g>
<!-- attribute_definition -->
<g id="node12" class="node"><title>attribute_definition</title>
<polygon fill="white" stroke="black" points="552.545,-471 431.545,-471 431.545,-435 552.545,-435 552.545,-471"/>
<text text-anchor="middle" x="492.045" y="-449.3" font-family="Times,serif" font-size="14.00">attribute_definition</text>
</g>
<!-- node_name attribute_definition&#45;&gt;attribute_definition -->
<g id="edge14" class="edge"><title>node_name attribute_definition&#45;&gt;attribute_definition</title>
<path fill="none" stroke="grey" d="M204.302,-508.436C277.055,-495.575 371.577,-478.681 410.045,-471 413.689,-470.272 417.422,-469.511 421.188,-468.73"/>
<polygon fill="grey" stroke="grey" points="422.133,-472.108 431.199,-466.626 420.693,-465.257 422.133,-472.108"/>
</g>
<!-- attribute_statement -->
<g id="node32" class="node"><title>attribute_statement</title>
<polygon fill="white" stroke="black" points="556.045,-393.5 428.045,-393.5 428.045,-357.5 556.045,-357.5 556.045,-393.5"/>
<text text-anchor="middle" x="492.045" y="-371.8" font-family="Times,serif" font-size="14.00">attribute_statement*</text>
</g>
<!-- attribute_definition&#45;&gt;attribute_statement -->
<g id="edge43" class="edge"><title>attribute_definition&#45;&gt;attribute_statement</title>
<path fill="none" stroke="grey" d="M492.045,-434.634C492.045,-425.465 492.045,-414.167 492.045,-403.912"/>
<polygon fill="grey" stroke="grey" points="495.545,-403.735 492.045,-393.735 488.545,-403.735 495.545,-403.735"/>
</g>
<!-- node_statement (&#39;,&#39;) node_statement&#45;&gt;node_statement -->
<g id="edge16" class="edge"><title>node_statement (&#39;,&#39;) node_statement&#45;&gt;node_statement</title>
<path fill="none" stroke="grey" d="M328.045,-543.413C328.045,-551.059 328.045,-560.108 328.045,-568.573"/>
<polygon fill="grey" stroke="grey" points="324.545,-568.831 328.045,-578.831 331.545,-568.831 324.545,-568.831"/>
</g>
<!-- node_statement (&#39;,&#39;) node_statement&#45;&gt;node_statement -->
<g id="edge18" class="edge"><title>node_statement (&#39;,&#39;) node_statement&#45;&gt;node_statement</title>
<path fill="none" stroke="grey" d="M339.997,-543.413C341.475,-551.144 341.895,-560.31 341.255,-568.854"/>
<polygon fill="grey" stroke="grey" points="337.777,-568.462 339.95,-578.831 344.718,-569.37 337.777,-568.462"/>
</g>
<!-- (&#39;,&#39;) -->
<g id="node14" class="node"><title>(&#39;,&#39;)</title>
<polygon fill="white" stroke="black" points="401.045,-471 347.045,-471 347.045,-435 401.045,-435 401.045,-471"/>
<text text-anchor="middle" x="374.045" y="-449.3" font-family="Times,serif" font-size="14.00">(&#39;,&#39;)</text>
</g>
<!-- node_statement (&#39;,&#39;) node_statement&#45;&gt;(&#39;,&#39;) -->
<g id="edge17" class="edge"><title>node_statement (&#39;,&#39;) node_statement&#45;&gt;(&#39;,&#39;)</title>
<path fill="none" stroke="grey" d="M339.653,-506.831C344.843,-498.708 351.068,-488.964 356.787,-480.012"/>
<polygon fill="grey" stroke="grey" points="359.846,-481.725 362.281,-471.413 353.947,-477.956 359.846,-481.725"/>
</g>
<!-- start_node -->
<g id="node16" class="node"><title>start_node</title>
<path fill="orchid" stroke="black" d="M164.545,-269.5C164.545,-269.5 213.545,-269.5 213.545,-269.5 219.545,-269.5 225.545,-275.5 225.545,-281.5 225.545,-281.5 225.545,-303.5 225.545,-303.5 225.545,-309.5 219.545,-315.5 213.545,-315.5 213.545,-315.5 164.545,-315.5 164.545,-315.5 158.545,-315.5 152.545,-309.5 152.545,-303.5 152.545,-303.5 152.545,-281.5 152.545,-281.5 152.545,-275.5 158.545,-269.5 164.545,-269.5"/>
<text text-anchor="middle" x="189.045" y="-300.3" font-family="Times,serif" font-size="14.00">lexeme</text>
<polyline fill="none" stroke="black" points="152.545,-292.5 225.545,-292.5 "/>
<text text-anchor="middle" x="189.045" y="-277.3" font-family="Times,serif" font-size="14.00">start_node</text>
</g>
<!-- start_node end_node&#45;&gt;start_node -->
<g id="edge20" class="edge"><title>start_node end_node&#45;&gt;start_node</title>
<path fill="none" stroke="grey" d="M121.706,-357.49C132.26,-347.304 145.732,-334.301 157.849,-322.608"/>
<polygon fill="grey" stroke="grey" points="160.415,-324.995 165.18,-315.532 155.554,-319.958 160.415,-324.995"/>
</g>
<!-- end_node -->
<g id="node18" class="node"><title>end_node</title>
<polygon fill="white" stroke="black" points="124.545,-310.5 55.5448,-310.5 55.5448,-274.5 124.545,-274.5 124.545,-310.5"/>
<text text-anchor="middle" x="90.0448" y="-288.8" font-family="Times,serif" font-size="14.00">end_node</text>
</g>
<!-- start_node end_node&#45;&gt;end_node -->
<g id="edge22" class="edge"><title>start_node end_node&#45;&gt;end_node</title>
<path fill="none" stroke="grey" d="M100.224,-357.49C98.549,-346.796 96.3881,-332.999 94.4884,-320.871"/>
<polygon fill="grey" stroke="grey" points="97.9103,-320.099 92.905,-310.761 90.9946,-321.182 97.9103,-320.099"/>
</g>
<!-- start_node_0 -->
<g id="node17" class="node"><title>start_node_0</title>
<path fill="lightblue" stroke="black" d="M138.045,-186.5C138.045,-186.5 240.045,-186.5 240.045,-186.5 246.045,-186.5 252.045,-192.5 252.045,-198.5 252.045,-198.5 252.045,-220.5 252.045,-220.5 252.045,-226.5 246.045,-232.5 240.045,-232.5 240.045,-232.5 138.045,-232.5 138.045,-232.5 132.045,-232.5 126.045,-226.5 126.045,-220.5 126.045,-220.5 126.045,-198.5 126.045,-198.5 126.045,-192.5 132.045,-186.5 138.045,-186.5"/>
<text text-anchor="middle" x="189.045" y="-217.3" font-family="Times,serif" font-size="14.00">event =&gt; start_node</text>
<polyline fill="none" stroke="black" points="126.045,-209.5 252.045,-209.5 "/>
<text text-anchor="middle" x="189.045" y="-194.3" font-family="Times,serif" font-size="14.00">pause =&gt; before</text>
</g>
<!-- start_node&#45;&gt;start_node_0 -->
<g id="edge21" class="edge"><title>start_node&#45;&gt;start_node_0</title>
<path fill="none" stroke="grey" d="M189.045,-269.38C189.045,-261.175 189.045,-251.768 189.045,-242.879"/>
<polygon fill="grey" stroke="grey" points="192.545,-242.784 189.045,-232.784 185.545,-242.784 192.545,-242.784"/>
</g>
<!-- &#39;[&#39; -->
<g id="node19" class="node"><title>&#39;[&#39;</title>
<polygon fill="white" stroke="black" points="324.045,-227.5 270.045,-227.5 270.045,-191.5 324.045,-191.5 324.045,-227.5"/>
<text text-anchor="middle" x="297.045" y="-205.8" font-family="Times,serif" font-size="14.00">&#39;[&#39;</text>
</g>
<!-- start_node&#45;&gt;&#39;[&#39; -->
<g id="edge23" class="edge"><title>start_node&#45;&gt;&#39;[&#39;</title>
<path fill="none" stroke="grey" d="M219.129,-269.38C233.529,-258.313 250.773,-245.061 265.373,-233.84"/>
<polygon fill="grey" stroke="grey" points="267.827,-236.369 273.623,-227.5 263.561,-230.819 267.827,-236.369"/>
</g>
<!-- &#39;]&#39; -->
<g id="node20" class="node"><title>&#39;]&#39;</title>
<polygon fill="white" stroke="black" points="108.045,-227.5 54.0448,-227.5 54.0448,-191.5 108.045,-191.5 108.045,-227.5"/>
<text text-anchor="middle" x="81.0448" y="-205.8" font-family="Times,serif" font-size="14.00">&#39;]&#39;</text>
</g>
<!-- end_node&#45;&gt;&#39;]&#39; -->
<g id="edge24" class="edge"><title>end_node&#45;&gt;&#39;]&#39;</title>
<path fill="none" stroke="grey" d="M88.0919,-274.49C86.9324,-263.796 85.4363,-249.999 84.1211,-237.871"/>
<polygon fill="grey" stroke="grey" points="87.5827,-237.326 83.0249,-227.761 80.6234,-238.08 87.5827,-237.326"/>
</g>
<!-- edge_name -->
<g id="node23" class="node"><title>edge_name</title>
<polygon fill="white" stroke="black" points="818.545,-471 739.545,-471 739.545,-435 818.545,-435 818.545,-471"/>
<text text-anchor="middle" x="779.045" y="-449.3" font-family="Times,serif" font-size="14.00">edge_name</text>
</g>
<!-- edge_statement&#45;&gt;edge_name -->
<g id="edge29" class="edge"><title>edge_statement&#45;&gt;edge_name</title>
<path fill="none" stroke="grey" d="M608.797,-592.017C694.63,-583.075 860.858,-563.33 878.045,-543 888.374,-530.781 886.212,-520.758 878.045,-507 867.059,-488.493 847.253,-475.924 828.228,-467.604"/>
<polygon fill="grey" stroke="grey" points="829.281,-464.254 818.698,-463.743 826.652,-470.742 829.281,-464.254"/>
</g>
<!-- edge_name attribute_definition -->
<g id="node24" class="node"><title>edge_name attribute_definition</title>
<polygon fill="white" stroke="black" points="868.545,-543 681.545,-543 681.545,-507 868.545,-507 868.545,-543"/>
<text text-anchor="middle" x="775.045" y="-521.3" font-family="Times,serif" font-size="14.00">edge_name attribute_definition</text>
</g>
<!-- edge_statement&#45;&gt;edge_name attribute_definition -->
<g id="edge30" class="edge"><title>edge_statement&#45;&gt;edge_name attribute_definition</title>
<path fill="none" stroke="grey" d="M608.648,-580.21C639.065,-570.118 678.067,-557.177 710.666,-546.361"/>
<polygon fill="grey" stroke="grey" points="712.171,-549.549 720.56,-543.078 709.967,-542.905 712.171,-549.549"/>
</g>
<!-- edge_statement (&#39;,&#39;) edge_statement -->
<g id="node25" class="node"><title>edge_statement (&#39;,&#39;) edge_statement</title>
<polygon fill="white" stroke="black" points="663.545,-543 452.545,-543 452.545,-507 663.545,-507 663.545,-543"/>
<text text-anchor="middle" x="558.045" y="-521.3" font-family="Times,serif" font-size="14.00">edge_statement (&#39;,&#39;) edge_statement</text>
</g>
<!-- edge_statement&#45;&gt;edge_statement (&#39;,&#39;) edge_statement -->
<g id="edge33" class="edge"><title>edge_statement&#45;&gt;edge_statement (&#39;,&#39;) edge_statement</title>
<path fill="none" stroke="grey" d="M546.14,-578.831C544.639,-571.131 544.197,-561.974 544.815,-553.417"/>
<polygon fill="grey" stroke="grey" points="548.297,-553.776 546.093,-543.413 541.354,-552.889 548.297,-553.776"/>
</g>
<!-- edge_statement graph_definition&#45;&gt;graph_definition -->
<g id="edge28" class="edge"><title>edge_statement graph_definition&#45;&gt;graph_definition</title>
<path fill="none" stroke="grey" d="M513.897,-687.109C513.878,-707.089 510.89,-739.167 494.045,-760 479.202,-778.357 456.84,-790.656 435.3,-798.811"/>
<polygon fill="grey" stroke="grey" points="434.078,-795.531 425.818,-802.166 436.413,-802.13 434.078,-795.531"/>
</g>
<!-- edge_statement graph_definition&#45;&gt;edge_statement -->
<g id="edge27" class="edge"><title>edge_statement graph_definition&#45;&gt;edge_statement</title>
<path fill="none" stroke="grey" d="M524.4,-650.831C529.477,-642.708 535.567,-632.964 541.162,-624.012"/>
<polygon fill="grey" stroke="grey" points="544.204,-625.748 546.537,-615.413 538.268,-622.038 544.204,-625.748"/>
</g>
<!-- directed_edge -->
<g id="node26" class="node"><title>directed_edge</title>
<path fill="orchid" stroke="black" d="M722.045,-352.5C722.045,-352.5 790.045,-352.5 790.045,-352.5 796.045,-352.5 802.045,-358.5 802.045,-364.5 802.045,-364.5 802.045,-386.5 802.045,-386.5 802.045,-392.5 796.045,-398.5 790.045,-398.5 790.045,-398.5 722.045,-398.5 722.045,-398.5 716.045,-398.5 710.045,-392.5 710.045,-386.5 710.045,-386.5 710.045,-364.5 710.045,-364.5 710.045,-358.5 716.045,-352.5 722.045,-352.5"/>
<text text-anchor="middle" x="756.045" y="-383.3" font-family="Times,serif" font-size="14.00">lexeme</text>
<polyline fill="none" stroke="black" points="710.045,-375.5 802.045,-375.5 "/>
<text text-anchor="middle" x="756.045" y="-360.3" font-family="Times,serif" font-size="14.00">directed_edge</text>
</g>
<!-- edge_name&#45;&gt;directed_edge -->
<g id="edge37" class="edge"><title>edge_name&#45;&gt;directed_edge</title>
<path fill="none" stroke="grey" d="M773.594,-434.634C771.278,-426.828 768.504,-417.481 765.852,-408.546"/>
<polygon fill="grey" stroke="grey" points="769.142,-407.33 762.942,-398.739 762.431,-409.322 769.142,-407.33"/>
</g>
<!-- undirected_edge -->
<g id="node28" class="node"><title>undirected_edge</title>
<path fill="orchid" stroke="black" d="M833.045,-352.5C833.045,-352.5 915.045,-352.5 915.045,-352.5 921.045,-352.5 927.045,-358.5 927.045,-364.5 927.045,-364.5 927.045,-386.5 927.045,-386.5 927.045,-392.5 921.045,-398.5 915.045,-398.5 915.045,-398.5 833.045,-398.5 833.045,-398.5 827.045,-398.5 821.045,-392.5 821.045,-386.5 821.045,-386.5 821.045,-364.5 821.045,-364.5 821.045,-358.5 827.045,-352.5 833.045,-352.5"/>
<text text-anchor="middle" x="874.045" y="-383.3" font-family="Times,serif" font-size="14.00">lexeme</text>
<polyline fill="none" stroke="black" points="821.045,-375.5 927.045,-375.5 "/>
<text text-anchor="middle" x="874.045" y="-360.3" font-family="Times,serif" font-size="14.00">undirected_edge</text>
</g>
<!-- edge_name&#45;&gt;undirected_edge -->
<g id="edge39" class="edge"><title>edge_name&#45;&gt;undirected_edge</title>
<path fill="none" stroke="grey" d="M801.558,-434.634C812.361,-425.821 825.573,-415.043 837.745,-405.113"/>
<polygon fill="grey" stroke="grey" points="840.022,-407.773 845.558,-398.739 835.597,-402.349 840.022,-407.773"/>
</g>
<!-- edge_name attribute_definition&#45;&gt;attribute_definition -->
<g id="edge32" class="edge"><title>edge_name attribute_definition&#45;&gt;attribute_definition</title>
<path fill="none" stroke="grey" d="M703.997,-506.924C660.706,-495.91 605.603,-481.891 562.433,-470.908"/>
<polygon fill="grey" stroke="grey" points="563.127,-467.473 552.573,-468.399 561.401,-474.257 563.127,-467.473"/>
</g>
<!-- edge_name attribute_definition&#45;&gt;edge_name -->
<g id="edge31" class="edge"><title>edge_name attribute_definition&#45;&gt;edge_name</title>
<path fill="none" stroke="grey" d="M776.054,-506.831C776.482,-499.131 776.991,-489.974 777.466,-481.417"/>
<polygon fill="grey" stroke="grey" points="780.962,-481.592 778.022,-471.413 773.972,-481.204 780.962,-481.592"/>
</g>
<!-- edge_statement (&#39;,&#39;) edge_statement&#45;&gt;(&#39;,&#39;) -->
<g id="edge35" class="edge"><title>edge_statement (&#39;,&#39;) edge_statement&#45;&gt;(&#39;,&#39;)</title>
<path fill="none" stroke="grey" d="M511.614,-506.831C480.241,-494.555 439.409,-478.577 410.4,-467.226"/>
<polygon fill="grey" stroke="grey" points="411.634,-463.951 401.046,-463.566 409.083,-470.469 411.634,-463.951"/>
</g>
<!-- edge_statement (&#39;,&#39;) edge_statement&#45;&gt;edge_statement -->
<g id="edge34" class="edge"><title>edge_statement (&#39;,&#39;) edge_statement&#45;&gt;edge_statement</title>
<path fill="none" stroke="grey" d="M558.045,-543.413C558.045,-551.059 558.045,-560.108 558.045,-568.573"/>
<polygon fill="grey" stroke="grey" points="554.545,-568.831 558.045,-578.831 561.545,-568.831 554.545,-568.831"/>
</g>
<!-- edge_statement (&#39;,&#39;) edge_statement&#45;&gt;edge_statement -->
<g id="edge36" class="edge"><title>edge_statement (&#39;,&#39;) edge_statement&#45;&gt;edge_statement</title>
<path fill="none" stroke="grey" d="M569.997,-543.413C571.475,-551.144 571.895,-560.31 571.255,-568.854"/>
<polygon fill="grey" stroke="grey" points="567.777,-568.462 569.95,-578.831 574.718,-569.37 567.777,-568.462"/>
</g>
<!-- directed_edge_0 -->
<g id="node27" class="node"><title>directed_edge_0</title>
<path fill="lightblue" stroke="black" d="M695.045,-269.5C695.045,-269.5 817.045,-269.5 817.045,-269.5 823.045,-269.5 829.045,-275.5 829.045,-281.5 829.045,-281.5 829.045,-303.5 829.045,-303.5 829.045,-309.5 823.045,-315.5 817.045,-315.5 817.045,-315.5 695.045,-315.5 695.045,-315.5 689.045,-315.5 683.045,-309.5 683.045,-303.5 683.045,-303.5 683.045,-281.5 683.045,-281.5 683.045,-275.5 689.045,-269.5 695.045,-269.5"/>
<text text-anchor="middle" x="756.045" y="-300.3" font-family="Times,serif" font-size="14.00">event =&gt; directed_edge</text>
<polyline fill="none" stroke="black" points="683.045,-292.5 829.045,-292.5 "/>
<text text-anchor="middle" x="756.045" y="-277.3" font-family="Times,serif" font-size="14.00">pause =&gt; before</text>
</g>
<!-- directed_edge&#45;&gt;directed_edge_0 -->
<g id="edge38" class="edge"><title>directed_edge&#45;&gt;directed_edge_0</title>
<path fill="none" stroke="grey" d="M756.045,-352.38C756.045,-344.175 756.045,-334.768 756.045,-325.879"/>
<polygon fill="grey" stroke="grey" points="759.545,-325.784 756.045,-315.784 752.545,-325.784 759.545,-325.784"/>
</g>
<!-- &#39;&#45;\&gt;&#39; -->
<g id="node30" class="node"><title>&#39;&#45;\&gt;&#39;</title>
<polygon fill="white" stroke="black" points="665.045,-310.5 611.045,-310.5 611.045,-274.5 665.045,-274.5 665.045,-310.5"/>
<text text-anchor="middle" x="638.045" y="-288.8" font-family="Times,serif" font-size="14.00">&#39;&#45;&gt;&#39;</text>
</g>
<!-- directed_edge&#45;&gt;&#39;&#45;\&gt;&#39; -->
<g id="edge41" class="edge"><title>directed_edge&#45;&gt;&#39;&#45;\&gt;&#39;</title>
<path fill="none" stroke="grey" d="M723.175,-352.38C707.295,-341.21 688.249,-327.813 672.202,-316.526"/>
<polygon fill="grey" stroke="grey" points="673.828,-313.391 663.635,-310.5 669.801,-319.116 673.828,-313.391"/>
</g>
<!-- undirected_edge_0 -->
<g id="node29" class="node"><title>undirected_edge_0</title>
<path fill="lightblue" stroke="black" d="M930.545,-269.5C930.545,-269.5 1065.54,-269.5 1065.54,-269.5 1071.54,-269.5 1077.54,-275.5 1077.54,-281.5 1077.54,-281.5 1077.54,-303.5 1077.54,-303.5 1077.54,-309.5 1071.54,-315.5 1065.54,-315.5 1065.54,-315.5 930.545,-315.5 930.545,-315.5 924.545,-315.5 918.545,-309.5 918.545,-303.5 918.545,-303.5 918.545,-281.5 918.545,-281.5 918.545,-275.5 924.545,-269.5 930.545,-269.5"/>
<text text-anchor="middle" x="998.045" y="-300.3" font-family="Times,serif" font-size="14.00">event =&gt; undirected_edge</text>
<polyline fill="none" stroke="black" points="918.545,-292.5 1077.54,-292.5 "/>
<text text-anchor="middle" x="998.045" y="-277.3" font-family="Times,serif" font-size="14.00">pause =&gt; before</text>
</g>
<!-- undirected_edge&#45;&gt;undirected_edge_0 -->
<g id="edge40" class="edge"><title>undirected_edge&#45;&gt;undirected_edge_0</title>
<path fill="none" stroke="grey" d="M908.586,-352.38C922.843,-342.837 939.528,-331.669 954.601,-321.579"/>
<polygon fill="grey" stroke="grey" points="956.896,-324.255 963.259,-315.784 953.002,-318.438 956.896,-324.255"/>
</g>
<!-- &#39;&#45;&#45;&#39; -->
<g id="node31" class="node"><title>&#39;&#45;&#45;&#39;</title>
<polygon fill="white" stroke="black" points="901.045,-310.5 847.045,-310.5 847.045,-274.5 901.045,-274.5 901.045,-310.5"/>
<text text-anchor="middle" x="874.045" y="-288.8" font-family="Times,serif" font-size="14.00">&#39;&#45;&#45;&#39;</text>
</g>
<!-- undirected_edge&#45;&gt;&#39;&#45;&#45;&#39; -->
<g id="edge42" class="edge"><title>undirected_edge&#45;&gt;&#39;&#45;&#45;&#39;</title>
<path fill="none" stroke="grey" d="M874.045,-352.38C874.045,-342.554 874.045,-331.006 874.045,-320.686"/>
<polygon fill="grey" stroke="grey" points="877.545,-320.5 874.045,-310.5 870.545,-320.5 877.545,-320.5"/>
</g>
<!-- start_attributes end_attributes -->
<g id="node33" class="node"><title>start_attributes end_attributes</title>
<polygon fill="white" stroke="black" points="580.545,-310.5 403.545,-310.5 403.545,-274.5 580.545,-274.5 580.545,-310.5"/>
<text text-anchor="middle" x="492.045" y="-288.8" font-family="Times,serif" font-size="14.00">start_attributes end_attributes</text>
</g>
<!-- attribute_statement&#45;&gt;start_attributes end_attributes -->
<g id="edge44" class="edge"><title>attribute_statement&#45;&gt;start_attributes end_attributes</title>
<path fill="none" stroke="grey" d="M492.045,-357.49C492.045,-346.796 492.045,-332.999 492.045,-320.871"/>
<polygon fill="grey" stroke="grey" points="495.545,-320.761 492.045,-310.761 488.545,-320.761 495.545,-320.761"/>
</g>
<!-- start_attributes -->
<g id="node34" class="node"><title>start_attributes</title>
<path fill="orchid" stroke="black" d="M520.545,-186.5C520.545,-186.5 593.545,-186.5 593.545,-186.5 599.545,-186.5 605.545,-192.5 605.545,-198.5 605.545,-198.5 605.545,-220.5 605.545,-220.5 605.545,-226.5 599.545,-232.5 593.545,-232.5 593.545,-232.5 520.545,-232.5 520.545,-232.5 514.545,-232.5 508.545,-226.5 508.545,-220.5 508.545,-220.5 508.545,-198.5 508.545,-198.5 508.545,-192.5 514.545,-186.5 520.545,-186.5"/>
<text text-anchor="middle" x="557.045" y="-217.3" font-family="Times,serif" font-size="14.00">lexeme</text>
<polyline fill="none" stroke="black" points="508.545,-209.5 605.545,-209.5 "/>
<text text-anchor="middle" x="557.045" y="-194.3" font-family="Times,serif" font-size="14.00">start_attributes</text>
</g>
<!-- start_attributes end_attributes&#45;&gt;start_attributes -->
<g id="edge45" class="edge"><title>start_attributes end_attributes&#45;&gt;start_attributes</title>
<path fill="none" stroke="grey" d="M506.149,-274.49C513.901,-264.592 523.734,-252.035 532.687,-240.603"/>
<polygon fill="grey" stroke="grey" points="535.597,-242.563 539.007,-232.532 530.086,-238.247 535.597,-242.563"/>
</g>
<!-- end_attributes -->
<g id="node36" class="node"><title>end_attributes</title>
<polygon fill="white" stroke="black" points="486.545,-227.5 393.545,-227.5 393.545,-191.5 486.545,-191.5 486.545,-227.5"/>
<text text-anchor="middle" x="440.045" y="-205.8" font-family="Times,serif" font-size="14.00">end_attributes</text>
</g>
<!-- start_attributes end_attributes&#45;&gt;end_attributes -->
<g id="edge47" class="edge"><title>start_attributes end_attributes&#45;&gt;end_attributes</title>
<path fill="none" stroke="grey" d="M480.762,-274.49C473.791,-263.364 464.716,-248.879 456.903,-236.409"/>
<polygon fill="grey" stroke="grey" points="459.761,-234.377 451.486,-227.761 453.829,-238.094 459.761,-234.377"/>
</g>
<!-- start_attributes_0 -->
<g id="node35" class="node"><title>start_attributes_0</title>
<path fill="lightblue" stroke="black" d="M494.045,-63.5C494.045,-63.5 620.045,-63.5 620.045,-63.5 626.045,-63.5 632.045,-69.5 632.045,-75.5 632.045,-75.5 632.045,-97.5 632.045,-97.5 632.045,-103.5 626.045,-109.5 620.045,-109.5 620.045,-109.5 494.045,-109.5 494.045,-109.5 488.045,-109.5 482.045,-103.5 482.045,-97.5 482.045,-97.5 482.045,-75.5 482.045,-75.5 482.045,-69.5 488.045,-63.5 494.045,-63.5"/>
<text text-anchor="middle" x="557.045" y="-94.3" font-family="Times,serif" font-size="14.00">event =&gt; start_attributes</text>
<polyline fill="none" stroke="black" points="482.045,-86.5 632.045,-86.5 "/>
<text text-anchor="middle" x="557.045" y="-71.3" font-family="Times,serif" font-size="14.00">pause =&gt; before</text>
</g>
<!-- start_attributes&#45;&gt;start_attributes_0 -->
<g id="edge46" class="edge"><title>start_attributes&#45;&gt;start_attributes_0</title>
<path fill="none" stroke="grey" d="M557.045,-186.365C557.045,-167.552 557.045,-140.766 557.045,-119.671"/>
<polygon fill="grey" stroke="grey" points="560.545,-119.532 557.045,-109.532 553.545,-119.532 560.545,-119.532"/>
</g>
<!-- &#39;{&#39; -->
<g id="node37" class="node"><title>&#39;{&#39;</title>
<polygon fill="white" stroke="black" points="704.045,-104.5 650.045,-104.5 650.045,-68.5 704.045,-68.5 704.045,-104.5"/>
<text text-anchor="middle" x="677.045" y="-82.8" font-family="Times,serif" font-size="14.00">&#39;{&#39;</text>
</g>
<!-- start_attributes&#45;&gt;&#39;{&#39; -->
<g id="edge48" class="edge"><title>start_attributes&#45;&gt;&#39;{&#39;</title>
<path fill="none" stroke="grey" d="M597.108,-186.345C612.067,-176.429 628.46,-163.919 641.045,-150 650.702,-139.319 658.879,-125.61 664.987,-113.665"/>
<polygon fill="grey" stroke="grey" points="668.192,-115.078 669.43,-104.555 661.9,-112.009 668.192,-115.078"/>
</g>
<!-- &#39;}&#39; -->
<g id="node38" class="node"><title>&#39;}&#39;</title>
<polygon fill="white" stroke="black" points="464.045,-104.5 410.045,-104.5 410.045,-68.5 464.045,-68.5 464.045,-104.5"/>
<text text-anchor="middle" x="437.045" y="-82.8" font-family="Times,serif" font-size="14.00">&#39;}&#39;</text>
</g>
<!-- end_attributes&#45;&gt;&#39;}&#39; -->
<g id="edge49" class="edge"><title>end_attributes&#45;&gt;&#39;}&#39;</title>
<path fill="none" stroke="grey" d="M439.602,-191.351C439.11,-171.184 438.31,-138.364 437.735,-114.813"/>
<polygon fill="grey" stroke="grey" points="441.232,-114.635 437.489,-104.724 434.234,-114.806 441.232,-114.635"/>
</g>
<!-- Legend -->
<g id="node40" class="node"><title>Legend</title>
<polygon fill="lightgrey" stroke="none" points="976.045,-150 722.045,-150 722.045,-23 976.045,-23 976.045,-150"/>
<polygon fill="white" stroke="none" points="730.045,-27 730.045,-146 968.045,-146 968.045,-27 730.045,-27"/>
<polygon fill="lightgreen" stroke="none" points="733.045,-121.5 733.045,-142.5 965.045,-142.5 965.045,-121.5 733.045,-121.5"/>
<polygon fill="none" stroke="black" points="733.045,-121.5 733.045,-142.5 965.045,-142.5 965.045,-121.5 733.045,-121.5"/>
<text text-anchor="start" x="761.545" y="-128.3" font-family="Times,serif" font-size="14.00">The green node is the start node</text>
<polygon fill="lightblue" stroke="none" points="733.045,-98.5 733.045,-119.5 965.045,-119.5 965.045,-98.5 733.045,-98.5"/>
<polygon fill="none" stroke="black" points="733.045,-98.5 733.045,-119.5 965.045,-119.5 965.045,-98.5 733.045,-98.5"/>
<text text-anchor="start" x="736.045" y="-105.3" font-family="Times,serif" font-size="14.00">Lightblue nodes are for lexeme attributes</text>
<polygon fill="orchid" stroke="none" points="733.045,-75.5 733.045,-96.5 965.045,-96.5 965.045,-75.5 733.045,-75.5"/>
<polygon fill="none" stroke="black" points="733.045,-75.5 733.045,-96.5 965.045,-96.5 965.045,-75.5 733.045,-75.5"/>
<text text-anchor="start" x="768.045" y="-82.3" font-family="Times,serif" font-size="14.00">Orchid nodes are for lexemes</text>
<polygon fill="goldenrod" stroke="none" points="733.045,-52.5 733.045,-73.5 965.045,-73.5 965.045,-52.5 733.045,-52.5"/>
<polygon fill="none" stroke="black" points="733.045,-52.5 733.045,-73.5 965.045,-73.5 965.045,-52.5 733.045,-52.5"/>
<text text-anchor="start" x="770.545" y="-59.3" font-family="Times,serif" font-size="14.00">Golden nodes are for actions</text>
<polygon fill="#ff3030" stroke="none" points="733.045,-29.5 733.045,-50.5 965.045,-50.5 965.045,-29.5 733.045,-29.5"/>
<polygon fill="none" stroke="black" points="733.045,-29.5 733.045,-50.5 965.045,-50.5 965.045,-29.5 733.045,-29.5"/>
<text text-anchor="start" x="781.045" y="-36.3" font-family="Times,serif" font-size="14.00">Red nodes are for events</text>
<polygon fill="none" stroke="black" points="730.045,-27 730.045,-146 968.045,-146 968.045,-27 730.045,-27"/>
</g>
</g>
</svg>
