<?xml version="1.0" encoding="UTF-8" standalone="no"?>
<!DOCTYPE svg PUBLIC "-//W3C//DTD SVG 1.1//EN"
 "http://www.w3.org/Graphics/SVG/1.1/DTD/svg11.dtd">
<!-- Generated by graphviz version 2.38.0 (20140413.2041)
 -->
<!-- Title: Perl Pages: 1 -->
<svg width="1426pt" height="230pt"
 viewBox="0.00 0.00 1425.96 230.00" xmlns="http://www.w3.org/2000/svg" xmlns:xlink="http://www.w3.org/1999/xlink">
<g id="graph0" class="graph" transform="scale(1 1) rotate(0) translate(4 226)">
<title>Perl</title>
<polygon fill="white" stroke="none" points="-4,4 -4,-226 1421.96,-226 1421.96,4 -4,4"/>
<text text-anchor="middle" x="708.978" y="-7.8" font-family="Times,serif" font-size="14.00">stringparser.bnf</text>
<!-- rhs -->
<g id="node1" class="node"><title>rhs</title>
<polygon fill="white" stroke="black" points="158.456,-104.5 104.456,-104.5 104.456,-68.5 158.456,-68.5 158.456,-104.5"/>
</g>
<!-- BNF -->
<g id="node2" class="node"><title>BNF</title>
<polygon fill="lightgrey" stroke="black" points="314.456,-222 260.456,-222 260.456,-186 314.456,-186 314.456,-222"/>
<text text-anchor="middle" x="287.456" y="-200.3" font-family="Times,serif" font-size="14.00">BNF</text>
</g>
<!-- BNF&#45;&gt;rhs -->
<g id="edge1" class="edge"><title>BNF&#45;&gt;rhs</title>
<path fill="none" stroke="grey" d="M260.074,-202.838C125.153,-201.179 55.1544,-186.573 14.4562,-150 -7.24144,-130.502 -19.261,-94.734 94.0479,-88.4538"/>
<polygon fill="grey" stroke="grey" points="94.4499,-91.9391 104.278,-87.981 94.1266,-84.9465 94.4499,-91.9391"/>
</g>
<!-- BNF&#45;&gt;rhs -->
<g id="edge3" class="edge"><title>BNF&#45;&gt;rhs</title>
<path fill="none" stroke="grey" d="M260.209,-202.794C141.989,-200.935 72.8156,-186.268 32.4562,-150 11.0702,-130.782 -0.913755,-95.7581 94.2546,-88.7425"/>
<polygon fill="grey" stroke="grey" points="94.6748,-92.2235 104.443,-88.1206 94.2482,-85.2365 94.6748,-92.2235"/>
</g>
<!-- BNF&#45;&gt;rhs -->
<g id="edge4" class="edge"><title>BNF&#45;&gt;rhs</title>
<path fill="none" stroke="grey" d="M260.446,-202.731C158.541,-200.624 90.3921,-185.888 50.4562,-150 29.5333,-131.198 17.6097,-97.2676 94.0593,-89.2372"/>
<polygon fill="grey" stroke="grey" points="94.6961,-92.6955 104.36,-88.3522 94.0968,-85.7212 94.6961,-92.6955"/>
</g>
<!-- BNF&#45;&gt;rhs -->
<g id="edge12" class="edge"><title>BNF&#45;&gt;rhs</title>
<path fill="none" stroke="grey" d="M260.211,-202.621C174.38,-200.15 107.757,-185.317 68.4562,-150 48.2081,-131.804 36.3881,-99.4403 93.9126,-90.0936"/>
<polygon fill="grey" stroke="grey" points="94.7126,-93.5189 104.175,-88.753 93.8058,-86.5779 94.7126,-93.5189"/>
</g>
<!-- BNF&#45;&gt;rhs -->
<g id="edge14" class="edge"><title>BNF&#45;&gt;rhs</title>
<path fill="none" stroke="grey" d="M260.139,-202.444C189.521,-199.501 124.91,-184.556 86.4562,-150 67.2709,-132.76 55.6522,-102.799 94.0415,-91.7503"/>
<polygon fill="grey" stroke="grey" points="95.2607,-95.0646 104.26,-89.474 93.7387,-88.232 95.2607,-95.0646"/>
</g>
<!-- BNF&#45;&gt;rhs -->
<g id="edge17" class="edge"><title>BNF&#45;&gt;rhs</title>
<path fill="none" stroke="grey" d="M260.2,-202.137C203.561,-198.561 141.724,-183.49 104.456,-150 87.1891,-134.483 76.0512,-108.663 95.1475,-95.6"/>
<polygon fill="grey" stroke="grey" points="96.9254,-98.6281 104.407,-91.1262 93.8801,-92.3253 96.9254,-98.6281"/>
</g>
<!-- BNF&#45;&gt;rhs -->
<g id="edge19" class="edge"><title>BNF&#45;&gt;rhs</title>
<path fill="none" stroke="grey" d="M260.193,-201.546C215.714,-197.08 157.945,-181.892 122.456,-150 109.669,-138.509 100.242,-121.366 101.192,-107.939"/>
<polygon fill="grey" stroke="grey" points="104.611,-108.738 104.312,-98.1469 97.9416,-106.612 104.611,-108.738"/>
</g>
<!-- BNF&#45;&gt;rhs -->
<g id="edge21" class="edge"><title>BNF&#45;&gt;rhs</title>
<path fill="none" stroke="grey" d="M260.283,-200.376C225.288,-194.741 173.32,-179.532 140.456,-150 129.723,-140.355 121.358,-126.728 117.867,-114.659"/>
<polygon fill="grey" stroke="grey" points="121.278,-113.845 116.117,-104.593 114.381,-115.044 121.278,-113.845"/>
</g>
<!-- BNF&#45;&gt;rhs -->
<g id="edge23" class="edge"><title>BNF&#45;&gt;rhs</title>
<path fill="none" stroke="grey" d="M260.316,-198.083C231.747,-191.108 187.593,-176.183 158.456,-150 147.614,-140.257 139.189,-126.452 134.07,-114.293"/>
<polygon fill="grey" stroke="grey" points="137.256,-112.81 130.568,-104.593 130.672,-115.187 137.256,-112.81"/>
</g>
<!-- BNF&#45;&gt;rhs -->
<g id="edge25" class="edge"><title>BNF&#45;&gt;rhs</title>
<path fill="none" stroke="grey" d="M260.306,-194.114C236.012,-186.047 200.934,-171.997 176.456,-150 165.397,-140.062 156.853,-125.898 149.971,-113.566"/>
<polygon fill="grey" stroke="grey" points="152.915,-111.657 145.019,-104.593 146.786,-115.039 152.915,-111.657"/>
</g>
<!-- BNF&#45;&gt;rhs -->
<g id="edge26" class="edge"><title>BNF&#45;&gt;rhs</title>
<path fill="none" stroke="grey" d="M260.361,-188.299C239.904,-179.871 213.852,-167.43 194.456,-150 182.767,-139.495 173.886,-124.268 164.688,-111.474"/>
<polygon fill="grey" stroke="grey" points="167.429,-109.297 158.565,-103.492 161.875,-113.557 167.429,-109.297"/>
</g>
<!-- BNF&#45;&gt;rhs -->
<g id="edge28" class="edge"><title>BNF&#45;&gt;rhs</title>
<path fill="none" stroke="grey" d="M271.657,-185.998C253.404,-177.66 230.158,-165.908 212.456,-150 196.564,-135.719 185.864,-112.711 167.171,-98.9524"/>
<polygon fill="grey" stroke="grey" points="168.979,-95.955 158.632,-93.6747 165.299,-101.909 168.979,-95.955"/>
</g>
<!-- BNF&#45;&gt;rhs -->
<g id="edge30" class="edge"><title>BNF&#45;&gt;rhs</title>
<path fill="none" stroke="grey" d="M288.188,-185.878C271.182,-177.547 248.074,-165.832 230.456,-150 212.237,-133.628 200.842,-105.785 168.374,-93.56"/>
<polygon fill="grey" stroke="grey" points="169.222,-90.1588 158.635,-90.5485 167.154,-96.8464 169.222,-90.1588"/>
</g>
<!-- BNF&#45;&gt;rhs -->
<g id="edge32" class="edge"><title>BNF&#45;&gt;rhs</title>
<path fill="none" stroke="grey" d="M314.608,-201.931C345.32,-198.007 285.046,-182.881 248.456,-150 228.856,-132.387 217.154,-101.498 168.617,-91.0609"/>
<polygon fill="grey" stroke="grey" points="169.22,-87.6133 158.761,-89.3067 167.993,-94.505 169.22,-87.6133"/>
</g>
<!-- BNF&#45;&gt;rhs -->
<g id="edge34" class="edge"><title>BNF&#45;&gt;rhs</title>
<path fill="none" stroke="grey" d="M314.643,-202.444C369.521,-199.501 304.91,-184.556 266.456,-150 245.994,-131.612 234.139,-98.7546 168.617,-89.805"/>
<polygon fill="grey" stroke="grey" points="168.884,-86.3129 158.553,-88.6626 168.094,-93.2682 168.884,-86.3129"/>
</g>
<!-- BNF&#45;&gt;rhs -->
<g id="edge37" class="edge"><title>BNF&#45;&gt;rhs</title>
<path fill="none" stroke="grey" d="M314.467,-202.652C390.955,-200.278 323.926,-185.469 284.456,-150 263.425,-131.1 251.486,-96.9145 168.667,-89.1142"/>
<polygon fill="grey" stroke="grey" points="168.735,-85.6088 158.491,-88.3143 168.186,-92.5873 168.735,-85.6088"/>
</g>
<!-- BNF&#45;&gt;rhs -->
<g id="edge38" class="edge"><title>BNF&#45;&gt;rhs</title>
<path fill="none" stroke="grey" d="M314.73,-202.751C410.975,-200.718 342.519,-186.002 302.456,-150 281.004,-130.723 269.013,-95.5426 168.51,-88.6786"/>
<polygon fill="grey" stroke="grey" points="168.688,-85.1832 158.504,-88.1042 168.287,-92.1717 168.688,-85.1832"/>
</g>
<!-- BNF&#45;&gt;rhs -->
<g id="edge39" class="edge"><title>BNF&#45;&gt;rhs</title>
<path fill="none" stroke="grey" d="M314.613,-202.817C430.57,-201.057 360.985,-186.42 320.456,-150 298.714,-130.462 286.69,-94.5874 168.732,-88.4156"/>
<polygon fill="grey" stroke="grey" points="168.675,-84.9097 158.53,-87.9665 168.367,-91.903 168.675,-84.9097"/>
</g>
<!-- latm_specification -->
<g id="node3" class="node"><title>latm_specification</title>
<polygon fill="white" stroke="black" points="230.456,-104.5 176.456,-104.5 176.456,-68.5 230.456,-68.5 230.456,-104.5"/>
</g>
<!-- BNF&#45;&gt;latm_specification -->
<g id="edge2" class="edge"><title>BNF&#45;&gt;latm_specification</title>
<path fill="none" stroke="grey" d="M270.016,-185.662C260.434,-175.683 248.662,-162.646 239.456,-150 231.165,-138.611 223.209,-125.162 216.894,-113.663"/>
<polygon fill="grey" stroke="grey" points="219.817,-111.707 212.005,-104.55 213.649,-115.017 219.817,-111.707"/>
</g>
<!-- rhs rhs -->
<g id="node4" class="node"><title>rhs rhs</title>
<polygon fill="white" stroke="black" points="325.956,-104.5 248.956,-104.5 248.956,-68.5 325.956,-68.5 325.956,-104.5"/>
<text text-anchor="middle" x="287.456" y="-82.8" font-family="Times,serif" font-size="14.00">alternative</text>
</g>
<!-- BNF&#45;&gt;rhs rhs -->
<g id="edge5" class="edge"><title>BNF&#45;&gt;rhs rhs</title>
<path fill="none" stroke="grey" d="M262.679,-185.958C252.268,-166.935 250.917,-135.924 258.624,-113.789"/>
<polygon fill="grey" stroke="grey" points="261.837,-115.177 262.641,-104.612 255.425,-112.37 261.837,-115.177"/>
</g>
<!-- BNF&#45;&gt;rhs rhs -->
<g id="edge6" class="edge"><title>BNF&#45;&gt;rhs rhs</title>
<path fill="none" stroke="grey" d="M272.59,-185.958C266.4,-167.106 265.548,-136.479 270.034,-114.386"/>
<polygon fill="grey" stroke="grey" points="273.446,-115.171 272.567,-104.612 266.67,-113.414 273.446,-115.171"/>
</g>
<!-- BNF&#45;&gt;rhs rhs -->
<g id="edge9" class="edge"><title>BNF&#45;&gt;rhs rhs</title>
<path fill="none" stroke="grey" d="M282.501,-185.958C280.447,-167.191 280.156,-136.756 281.629,-114.687"/>
<polygon fill="grey" stroke="grey" points="285.125,-114.875 282.493,-104.612 278.151,-114.276 285.125,-114.875"/>
</g>
<!-- BNF&#45;&gt;rhs rhs -->
<g id="edge11" class="edge"><title>BNF&#45;&gt;rhs rhs</title>
<path fill="none" stroke="grey" d="M292.412,-185.958C294.466,-167.191 294.756,-136.756 293.284,-114.687"/>
<polygon fill="grey" stroke="grey" points="296.762,-114.276 292.419,-104.612 289.787,-114.875 296.762,-114.276"/>
</g>
<!-- BNF&#45;&gt;rhs rhs -->
<g id="edge13" class="edge"><title>BNF&#45;&gt;rhs rhs</title>
<path fill="none" stroke="grey" d="M302.322,-185.958C308.513,-167.106 309.365,-136.479 304.878,-114.386"/>
<polygon fill="grey" stroke="grey" points="308.242,-113.414 302.345,-104.612 301.466,-115.171 308.242,-113.414"/>
</g>
<!-- BNF&#45;&gt;rhs rhs -->
<g id="edge35" class="edge"><title>BNF&#45;&gt;rhs rhs</title>
<path fill="none" stroke="grey" d="M312.233,-185.958C322.644,-166.935 323.996,-135.924 316.288,-113.789"/>
<polygon fill="grey" stroke="grey" points="319.488,-112.37 312.271,-104.612 313.075,-115.177 319.488,-112.37"/>
</g>
<!-- rhs rhs alternative parenthesized_rhs_primary_list rhs -->
<g id="node5" class="node"><title>rhs rhs alternative parenthesized_rhs_primary_list rhs</title>
<polygon fill="white" stroke="black" points="642.956,-104.5 343.956,-104.5 343.956,-68.5 642.956,-68.5 642.956,-104.5"/>
<text text-anchor="middle" x="493.456" y="-82.8" font-family="Times,serif" font-size="14.00">alternative rhs rhs parenthesized_rhs_primary_list</text>
</g>
<!-- BNF&#45;&gt;rhs rhs alternative parenthesized_rhs_primary_list rhs -->
<g id="edge7" class="edge"><title>BNF&#45;&gt;rhs rhs alternative parenthesized_rhs_primary_list rhs</title>
<path fill="none" stroke="grey" d="M312.897,-185.958C346.955,-165.613 407.545,-131.555 449.141,-109.309"/>
<polygon fill="grey" stroke="grey" points="450.786,-112.398 457.972,-104.612 447.5,-106.217 450.786,-112.398"/>
</g>
<!-- BNF&#45;&gt;rhs rhs alternative parenthesized_rhs_primary_list rhs -->
<g id="edge10" class="edge"><title>BNF&#45;&gt;rhs rhs alternative parenthesized_rhs_primary_list rhs</title>
<path fill="none" stroke="grey" d="M314.721,-190.198C351.99,-170.814 418.445,-133.747 459.061,-109.849"/>
<polygon fill="grey" stroke="grey" points="460.989,-112.774 467.809,-104.666 457.421,-106.752 460.989,-112.774"/>
</g>
<!-- rhs alternative rhs -->
<g id="node6" class="node"><title>rhs alternative rhs</title>
<polygon fill="white" stroke="black" points="737.956,-104.5 660.956,-104.5 660.956,-68.5 737.956,-68.5 737.956,-104.5"/>
<text text-anchor="middle" x="699.456" y="-82.8" font-family="Times,serif" font-size="14.00">rhs rhs rhs</text>
</g>
<!-- BNF&#45;&gt;rhs alternative rhs -->
<g id="edge8" class="edge"><title>BNF&#45;&gt;rhs alternative rhs</title>
<path fill="none" stroke="grey" d="M314.56,-201.719C389.03,-197.789 595.033,-184.04 652.456,-150 666.974,-141.394 678.475,-126.408 686.466,-113.268"/>
<polygon fill="grey" stroke="grey" points="689.515,-114.987 691.431,-104.567 683.435,-111.518 689.515,-114.987"/>
</g>
<!-- rhs rhs parenthesized_rhs_primary_list -->
<g id="node7" class="node"><title>rhs rhs parenthesized_rhs_primary_list</title>
<polygon fill="white" stroke="black" points="1034.46,-104.5 756.456,-104.5 756.456,-68.5 1034.46,-68.5 1034.46,-104.5"/>
<text text-anchor="middle" x="895.456" y="-82.8" font-family="Times,serif" font-size="14.00">alternative parenthesized_rhs_primary_list rhs</text>
</g>
<!-- BNF&#45;&gt;rhs rhs parenthesized_rhs_primary_list -->
<g id="edge15" class="edge"><title>BNF&#45;&gt;rhs rhs parenthesized_rhs_primary_list</title>
<path fill="none" stroke="grey" d="M314.654,-202.551C386.549,-200.791 587.105,-192.167 747.456,-150 784.575,-140.239 824.552,-122.913 853.589,-108.975"/>
<polygon fill="grey" stroke="grey" points="855.154,-112.106 862.615,-104.583 852.091,-105.812 855.154,-112.106"/>
</g>
<!-- rhs event_specification -->
<g id="node8" class="node"><title>rhs event_specification</title>
<polygon fill="white" stroke="black" points="1106.46,-104.5 1052.46,-104.5 1052.46,-68.5 1106.46,-68.5 1106.46,-104.5"/>
<text text-anchor="middle" x="1079.46" y="-82.8" font-family="Times,serif" font-size="14.00">pause</text>
</g>
<!-- BNF&#45;&gt;rhs event_specification -->
<g id="edge16" class="edge"><title>BNF&#45;&gt;rhs event_specification</title>
<path fill="none" stroke="grey" d="M314.483,-201.912C443.851,-198.538 904.596,-186.203 962.456,-150 984.748,-136.052 994.692,-102.93 1042.26,-91.4777"/>
<polygon fill="grey" stroke="grey" points="1043.16,-94.8671 1052.29,-89.4881 1041.8,-88.0009 1043.16,-94.8671"/>
</g>
<!-- BNF&#45;&gt;rhs event_specification -->
<g id="edge18" class="edge"><title>BNF&#45;&gt;rhs event_specification</title>
<path fill="none" stroke="grey" d="M314.77,-202.108C442.808,-199.033 921.411,-186.945 980.456,-150 1001.17,-137.038 1011.22,-107.518 1042.74,-94.2174"/>
<polygon fill="grey" stroke="grey" points="1043.93,-97.5103 1052.23,-90.9233 1041.63,-90.8977 1043.93,-97.5103"/>
</g>
<!-- BNF&#45;&gt;rhs event_specification -->
<g id="edge20" class="edge"><title>BNF&#45;&gt;rhs event_specification</title>
<path fill="none" stroke="grey" d="M314.679,-202.283C441.427,-199.508 938.226,-187.686 998.456,-150 1016.31,-138.826 1026.25,-115.347 1043.73,-100.561"/>
<polygon fill="grey" stroke="grey" points="1046.21,-103.091 1052.35,-94.4547 1042.17,-97.3792 1046.21,-103.091"/>
</g>
<!-- BNF&#45;&gt;rhs event_specification -->
<g id="edge22" class="edge"><title>BNF&#45;&gt;rhs event_specification</title>
<path fill="none" stroke="grey" d="M314.599,-202.428C440.877,-199.937 955.11,-188.384 1016.46,-150 1029.78,-141.664 1038.69,-126.479 1047.5,-113.165"/>
<polygon fill="grey" stroke="grey" points="1050.49,-114.988 1053.31,-104.776 1044.74,-110.999 1050.49,-114.988"/>
</g>
<!-- BNF&#45;&gt;rhs event_specification -->
<g id="edge24" class="edge"><title>BNF&#45;&gt;rhs event_specification</title>
<path fill="none" stroke="grey" d="M314.465,-202.547C441.215,-200.323 972.065,-189.038 1034.46,-150 1047.53,-141.823 1056.35,-127.055 1062.99,-113.927"/>
<polygon fill="grey" stroke="grey" points="1066.22,-115.296 1067.47,-104.776 1059.93,-112.219 1066.22,-115.296"/>
</g>
<!-- BNF&#45;&gt;rhs event_specification -->
<g id="edge27" class="edge"><title>BNF&#45;&gt;rhs event_specification</title>
<path fill="none" stroke="grey" d="M314.651,-202.638C443.695,-200.645 989.158,-189.605 1052.46,-150 1065.27,-141.981 1074.01,-127.626 1078.71,-114.694"/>
<polygon fill="grey" stroke="grey" points="1082.17,-115.357 1081.63,-104.776 1075.45,-113.384 1082.17,-115.357"/>
</g>
<!-- BNF&#45;&gt;rhs event_specification -->
<g id="edge29" class="edge"><title>BNF&#45;&gt;rhs event_specification</title>
<path fill="none" stroke="grey" d="M314.701,-202.713C447.193,-200.932 1006.32,-190.129 1070.46,-150 1083.14,-142.061 1091.83,-127.91 1094.74,-115.078"/>
<polygon fill="grey" stroke="grey" points="1098.26,-115.078 1095.79,-104.776 1091.29,-114.372 1098.26,-115.078"/>
</g>
<!-- BNF&#45;&gt;rhs event_specification -->
<g id="edge31" class="edge"><title>BNF&#45;&gt;rhs event_specification</title>
<path fill="none" stroke="grey" d="M314.606,-202.773C451.752,-201.186 1023.56,-190.609 1088.46,-150 1103.66,-140.486 1113.12,-122.053 1110.62,-107.66"/>
<polygon fill="grey" stroke="grey" points="1113.7,-105.945 1106.6,-98.0781 1107.24,-108.653 1113.7,-105.945"/>
</g>
<!-- BNF&#45;&gt;rhs event_specification -->
<g id="edge33" class="edge"><title>BNF&#45;&gt;rhs event_specification</title>
<path fill="none" stroke="grey" d="M314.827,-202.816C458.649,-201.388 1040.93,-191.001 1106.46,-150 1126.31,-137.577 1136.37,-109.946 1115.78,-95.9598"/>
<polygon fill="grey" stroke="grey" points="1117.28,-92.7978 1106.77,-91.4777 1114.16,-99.0652 1117.28,-92.7978"/>
</g>
<!-- BNF&#45;&gt;rhs event_specification -->
<g id="edge36" class="edge"><title>BNF&#45;&gt;rhs event_specification</title>
<path fill="none" stroke="grey" d="M314.49,-202.855C465.452,-201.584 1058.3,-191.394 1124.46,-150 1146.41,-136.261 1156.39,-103.918 1116.68,-92.0066"/>
<polygon fill="grey" stroke="grey" points="1117.34,-88.5657 1106.8,-89.6715 1115.73,-95.378 1117.34,-88.5657"/>
</g>
<!-- Legend -->
<g id="node9" class="node"><title>Legend</title>
<polygon fill="lightgrey" stroke="none" points="1417.96,-150 1124.96,-150 1124.96,-23 1417.96,-23 1417.96,-150"/>
<polygon fill="white" stroke="none" points="1132.96,-27 1132.96,-146 1409.96,-146 1409.96,-27 1132.96,-27"/>
<polygon fill="lightgreen" stroke="none" points="1136.46,-121.5 1136.46,-142.5 1407.46,-142.5 1407.46,-121.5 1136.46,-121.5"/>
<polygon fill="none" stroke="black" points="1136.46,-121.5 1136.46,-142.5 1407.46,-142.5 1407.46,-121.5 1136.46,-121.5"/>
<text text-anchor="start" x="1182.96" y="-128.3" font-family="Times,serif" font-size="14.00">The green node is the start node</text>
<polygon fill="lightblue" stroke="none" points="1136.46,-98.5 1136.46,-119.5 1407.46,-119.5 1407.46,-98.5 1136.46,-98.5"/>
<polygon fill="none" stroke="black" points="1136.46,-98.5 1136.46,-119.5 1407.46,-119.5 1407.46,-98.5 1136.46,-98.5"/>
<text text-anchor="start" x="1139.46" y="-105.3" font-family="Times,serif" font-size="14.00">Lightblue nodes are for reserved rule names, etc</text>
<polygon fill="orchid" stroke="none" points="1136.46,-75.5 1136.46,-96.5 1407.46,-96.5 1407.46,-75.5 1136.46,-75.5"/>
<polygon fill="none" stroke="black" points="1136.46,-75.5 1136.46,-96.5 1407.46,-96.5 1407.46,-75.5 1136.46,-75.5"/>
<text text-anchor="start" x="1190.46" y="-82.3" font-family="Times,serif" font-size="14.00">Orchid nodes are for lexemes</text>
<polygon fill="goldenrod" stroke="none" points="1136.46,-52.5 1136.46,-73.5 1407.46,-73.5 1407.46,-52.5 1136.46,-52.5"/>
<polygon fill="none" stroke="black" points="1136.46,-52.5 1136.46,-73.5 1407.46,-73.5 1407.46,-52.5 1136.46,-52.5"/>
<text text-anchor="start" x="1191.96" y="-59.3" font-family="Times,serif" font-size="14.00">Golden nodes are for actions</text>
<polygon fill="#ff3030" stroke="none" points="1136.46,-29.5 1136.46,-50.5 1407.46,-50.5 1407.46,-29.5 1136.46,-29.5"/>
<polygon fill="none" stroke="black" points="1136.46,-29.5 1136.46,-50.5 1407.46,-50.5 1407.46,-29.5 1136.46,-29.5"/>
<text text-anchor="start" x="1203.96" y="-36.3" font-family="Times,serif" font-size="14.00">Red nodes are for events</text>
<polygon fill="none" stroke="black" points="1132.96,-27 1132.96,-146 1409.96,-146 1409.96,-27 1132.96,-27"/>
</g>
</g>
</svg>
