<?xml version="1.0" encoding="UTF-8" standalone="no"?>
<!DOCTYPE svg PUBLIC "-//W3C//DTD SVG 1.1//EN"
 "http://www.w3.org/Graphics/SVG/1.1/DTD/svg11.dtd">
<!-- Generated by graphviz version 2.30.1 (20130611.0131)
 -->
<!-- Title: Perl Pages: 1 -->
<svg width="989pt" height="653pt"
 viewBox="0.00 0.00 989.00 653.00" xmlns="http://www.w3.org/2000/svg" xmlns:xlink="http://www.w3.org/1999/xlink">
<g id="graph0" class="graph" transform="scale(1 1) rotate(0) translate(4 649)">
<title>Perl</title>
<polygon fill="white" stroke="white" points="-4,5 -4,-649 986,-649 986,5 -4,5"/>
<text text-anchor="middle" x="490.5" y="-7.8" font-family="Times,serif" font-size="14.00">stringparser.bnf</text>
<!-- :default -->
<g id="node1" class="node"><title>:default</title>
<polygon fill="lightblue" stroke="black" points="200.5,-561 143.5,-561 143.5,-525 200.5,-525 200.5,-561"/>
<text text-anchor="middle" x="172" y="-539.3" font-family="Times,serif" font-size="14.00">:default</text>
</g>
<!-- :default_1 -->
<g id="node3" class="node"><title>:default_1</title>
<path fill="lightblue" stroke="black" d="M106.5,-452C106.5,-452 199.5,-452 199.5,-452 205.5,-452 211.5,-458 211.5,-464 211.5,-464 211.5,-476 211.5,-476 211.5,-482 205.5,-488 199.5,-488 199.5,-488 106.5,-488 106.5,-488 100.5,-488 94.5,-482 94.5,-476 94.5,-476 94.5,-464 94.5,-464 94.5,-458 100.5,-452 106.5,-452"/>
<text text-anchor="middle" x="153" y="-466.3" font-family="Times,serif" font-size="14.00">action =&gt; [values]</text>
</g>
<!-- :default&#45;&gt;:default_1 -->
<g id="edge2" class="edge"><title>:default&#45;&gt;:default_1</title>
<path fill="none" stroke="grey" d="M167.401,-524.813C165.23,-516.702 162.59,-506.836 160.166,-497.777"/>
<polygon fill="grey" stroke="grey" points="163.523,-496.784 157.557,-488.029 156.761,-498.594 163.523,-496.784"/>
</g>
<!-- graph_grammar -->
<g id="node2" class="node"><title>graph_grammar</title>
<path fill="lightgreen" stroke="black" d="M228,-598C228,-598 308,-598 308,-598 314,-598 320,-604 320,-610 320,-610 320,-632 320,-632 320,-638 314,-644 308,-644 308,-644 228,-644 228,-644 222,-644 216,-638 216,-632 216,-632 216,-610 216,-610 216,-604 222,-598 228,-598"/>
<text text-anchor="middle" x="268" y="-628.8" font-family="Times,serif" font-size="14.00">:start</text>
<polyline fill="none" stroke="black" points="216,-621 320,-621 "/>
<text text-anchor="middle" x="268" y="-605.8" font-family="Times,serif" font-size="14.00">graph_grammar</text>
</g>
<!-- graph_grammar&#45;&gt;:default -->
<g id="edge1" class="edge"><title>graph_grammar&#45;&gt;:default</title>
<path fill="none" stroke="grey" d="M239.975,-597.813C227.924,-588.273 213.828,-577.114 201.607,-567.439"/>
<polygon fill="grey" stroke="grey" points="203.507,-564.479 193.494,-561.016 199.162,-569.967 203.507,-564.479"/>
</g>
<!-- :discard -->
<g id="node4" class="node"><title>:discard</title>
<polygon fill="lightblue" stroke="black" points="297.25,-561 238.75,-561 238.75,-525 297.25,-525 297.25,-561"/>
<text text-anchor="middle" x="268" y="-539.3" font-family="Times,serif" font-size="14.00">:discard</text>
</g>
<!-- graph_grammar&#45;&gt;:discard -->
<g id="edge3" class="edge"><title>graph_grammar&#45;&gt;:discard</title>
<path fill="none" stroke="grey" d="M268,-597.609C268,-589.481 268,-580.2 268,-571.671"/>
<polygon fill="grey" stroke="grey" points="271.5,-571.412 268,-561.412 264.5,-571.412 271.5,-571.412"/>
</g>
<!-- graph_definition -->
<g id="node6" class="node"><title>graph_definition</title>
<polygon fill="white" stroke="black" points="429.25,-561 322.75,-561 322.75,-525 429.25,-525 429.25,-561"/>
<text text-anchor="middle" x="376" y="-539.3" font-family="Times,serif" font-size="14.00">graph_definition</text>
</g>
<!-- graph_grammar&#45;&gt;graph_definition -->
<g id="edge5" class="edge"><title>graph_grammar&#45;&gt;graph_definition</title>
<path fill="none" stroke="grey" d="M299.528,-597.813C313.346,-588.09 329.554,-576.684 343.483,-566.882"/>
<polygon fill="grey" stroke="grey" points="345.656,-569.633 351.819,-561.016 341.627,-563.909 345.656,-569.633"/>
</g>
<!-- whitespace -->
<g id="node5" class="node"><title>whitespace</title>
<polygon fill="lightblue" stroke="black" points="306.25,-488 229.75,-488 229.75,-452 306.25,-452 306.25,-488"/>
<text text-anchor="middle" x="268" y="-466.3" font-family="Times,serif" font-size="14.00">whitespace</text>
</g>
<!-- :discard&#45;&gt;whitespace -->
<g id="edge4" class="edge"><title>:discard&#45;&gt;whitespace</title>
<path fill="none" stroke="grey" d="M268,-524.813C268,-516.789 268,-507.047 268,-498.069"/>
<polygon fill="grey" stroke="grey" points="271.5,-498.029 268,-488.029 264.5,-498.029 271.5,-498.029"/>
</g>
<!-- [\\s] -->
<g id="node28" class="node"><title>[\\s]</title>
<polygon fill="white" stroke="black" points="295,-415 241,-415 241,-379 295,-379 295,-415"/>
<text text-anchor="middle" x="268" y="-393.3" font-family="Times,serif" font-size="14.00">[\s]</text>
</g>
<!-- whitespace&#45;&gt;[\\s] -->
<g id="edge39" class="edge"><title>whitespace&#45;&gt;[\\s]</title>
<path fill="none" stroke="grey" d="M268,-451.813C268,-443.789 268,-434.047 268,-425.069"/>
<polygon fill="grey" stroke="grey" points="271.5,-425.029 268,-415.029 264.5,-425.029 271.5,-425.029"/>
</g>
<!-- node_definition -->
<g id="node7" class="node"><title>node_definition</title>
<polygon fill="white" stroke="black" points="426.5,-488 325.5,-488 325.5,-452 426.5,-452 426.5,-488"/>
<text text-anchor="middle" x="376" y="-466.3" font-family="Times,serif" font-size="14.00">node_definition</text>
</g>
<!-- graph_definition&#45;&gt;node_definition -->
<g id="edge6" class="edge"><title>graph_definition&#45;&gt;node_definition</title>
<path fill="none" stroke="grey" d="M370.122,-524.813C369.282,-516.789 369.049,-507.047 369.422,-498.069"/>
<polygon fill="grey" stroke="grey" points="372.918,-498.253 370.138,-488.029 365.936,-497.754 372.918,-498.253"/>
</g>
<!-- edge_definition -->
<g id="node8" class="node"><title>edge_definition</title>
<polygon fill="white" stroke="black" points="564.25,-488 463.75,-488 463.75,-452 564.25,-452 564.25,-488"/>
<text text-anchor="middle" x="514" y="-466.3" font-family="Times,serif" font-size="14.00">edge_definition</text>
</g>
<!-- graph_definition&#45;&gt;edge_definition -->
<g id="edge7" class="edge"><title>graph_definition&#45;&gt;edge_definition</title>
<path fill="none" stroke="grey" d="M403.195,-524.994C421.057,-515.273 444.803,-502.987 465.769,-492.59"/>
<polygon fill="grey" stroke="grey" points="467.439,-495.669 474.866,-488.114 464.349,-489.389 467.439,-495.669"/>
</g>
<!-- node_statement -->
<g id="node9" class="node"><title>node_statement</title>
<polygon fill="white" stroke="black" points="420.5,-415 319.5,-415 319.5,-379 420.5,-379 420.5,-415"/>
<text text-anchor="middle" x="370" y="-393.3" font-family="Times,serif" font-size="14.00">node_statement</text>
</g>
<!-- node_definition&#45;&gt;node_statement -->
<g id="edge8" class="edge"><title>node_definition&#45;&gt;node_statement</title>
<path fill="none" stroke="grey" d="M368.669,-451.813C367.152,-443.789 366.095,-434.047 365.71,-425.069"/>
<polygon fill="grey" stroke="grey" points="369.209,-424.982 365.577,-415.029 362.21,-425.074 369.209,-424.982"/>
</g>
<!-- node_definition&#45;&gt;graph_definition -->
<g id="edge9" class="edge"><title>node_definition&#45;&gt;graph_definition</title>
<path fill="none" stroke="grey" d="M381.862,-488.029C382.709,-496.029 382.95,-505.765 382.585,-514.753"/>
<polygon fill="grey" stroke="grey" points="379.088,-514.592 381.878,-524.813 386.071,-515.083 379.088,-514.592"/>
</g>
<!-- node_definition&#45;&gt;node_statement -->
<g id="edge10" class="edge"><title>node_definition&#45;&gt;node_statement</title>
<path fill="none" stroke="grey" d="M380.426,-451.813C380.587,-443.789 379.997,-434.047 378.865,-425.069"/>
<polygon fill="grey" stroke="grey" points="382.299,-424.371 377.301,-415.029 375.382,-425.449 382.299,-424.371"/>
</g>
<!-- edge_statement -->
<g id="node17" class="node"><title>edge_statement</title>
<polygon fill="white" stroke="black" points="576.25,-415 475.75,-415 475.75,-379 576.25,-379 576.25,-415"/>
<text text-anchor="middle" x="526" y="-393.3" font-family="Times,serif" font-size="14.00">edge_statement</text>
</g>
<!-- edge_definition&#45;&gt;edge_statement -->
<g id="edge21" class="edge"><title>edge_definition&#45;&gt;edge_statement</title>
<path fill="none" stroke="grey" d="M511.027,-451.813C511.549,-443.702 512.987,-433.836 514.909,-424.777"/>
<polygon fill="grey" stroke="grey" points="518.318,-425.571 517.26,-415.029 511.513,-423.929 518.318,-425.571"/>
</g>
<!-- edge_definition&#45;&gt;edge_statement -->
<g id="edge22" class="edge"><title>edge_definition&#45;&gt;edge_statement</title>
<path fill="none" stroke="grey" d="M522.783,-451.813C524.979,-443.789 526.858,-434.047 528.003,-425.069"/>
<polygon fill="grey" stroke="grey" points="531.495,-425.322 528.983,-415.029 524.528,-424.641 531.495,-425.322"/>
</g>
<!-- edge_definition&#45;&gt;graph_definition -->
<g id="edge23" class="edge"><title>edge_definition&#45;&gt;graph_definition</title>
<path fill="none" stroke="grey" d="M486.608,-488.114C468.703,-497.853 444.946,-510.142 424,-520.524"/>
<polygon fill="grey" stroke="grey" points="422.342,-517.439 414.914,-524.994 425.432,-523.72 422.342,-517.439"/>
</g>
<!-- node_name -->
<g id="node10" class="node"><title>node_name</title>
<polygon fill="white" stroke="black" points="304,-343 224,-343 224,-307 304,-307 304,-343"/>
<text text-anchor="middle" x="264" y="-321.3" font-family="Times,serif" font-size="14.00">node_name</text>
</g>
<!-- node_statement&#45;&gt;node_name -->
<g id="edge11" class="edge"><title>node_statement&#45;&gt;node_name</title>
<path fill="none" stroke="grey" d="M344.069,-378.876C330.338,-369.808 313.294,-358.552 298.464,-348.759"/>
<polygon fill="grey" stroke="grey" points="300.304,-345.78 290.03,-343.19 296.446,-351.621 300.304,-345.78"/>
</g>
<!-- attribute_definition -->
<g id="node11" class="node"><title>attribute_definition</title>
<polygon fill="white" stroke="black" points="449.25,-343 328.75,-343 328.75,-307 449.25,-307 449.25,-343"/>
<text text-anchor="middle" x="389" y="-321.3" font-family="Times,serif" font-size="14.00">attribute_definition</text>
</g>
<!-- node_statement&#45;&gt;attribute_definition -->
<g id="edge12" class="edge"><title>node_statement&#45;&gt;attribute_definition</title>
<path fill="none" stroke="grey" d="M374.697,-378.697C376.813,-370.898 379.362,-361.509 381.718,-352.829"/>
<polygon fill="grey" stroke="grey" points="385.116,-353.672 384.357,-343.104 378.36,-351.838 385.116,-353.672"/>
</g>
<!-- node_statement&#45;&gt;node_name -->
<g id="edge13" class="edge"><title>node_statement&#45;&gt;node_name</title>
<path fill="none" stroke="grey" d="M344.069,-378.876C330.338,-369.808 313.294,-358.552 298.464,-348.759"/>
<polygon fill="grey" stroke="grey" points="300.304,-345.78 290.03,-343.19 296.446,-351.621 300.304,-345.78"/>
</g>
<!-- (&#39;,&#39;) -->
<g id="node12" class="node"><title>(&#39;,&#39;)</title>
<polygon fill="white" stroke="black" points="534,-343 480,-343 480,-307 534,-307 534,-343"/>
<text text-anchor="middle" x="507" y="-321.3" font-family="Times,serif" font-size="14.00">(&#39;,&#39;)</text>
</g>
<!-- node_statement&#45;&gt;(&#39;,&#39;) -->
<g id="edge14" class="edge"><title>node_statement&#45;&gt;(&#39;,&#39;)</title>
<path fill="none" stroke="grey" d="M403.514,-378.876C423.848,-368.487 449.804,-355.224 470.634,-344.581"/>
<polygon fill="grey" stroke="grey" points="472.493,-347.562 479.805,-339.895 469.308,-341.328 472.493,-347.562"/>
</g>
<!-- node_statement&#45;&gt;node_statement -->
<g id="edge15" class="edge"><title>node_statement&#45;&gt;node_statement</title>
<path fill="none" stroke="grey" d="M420.711,-403.471C430.803,-402.743 438,-400.586 438,-397 438,-394.759 435.189,-393.076 430.616,-391.951"/>
<polygon fill="grey" stroke="grey" points="431.107,-388.485 420.711,-390.529 430.112,-395.414 431.107,-388.485"/>
</g>
<!-- node_statement&#45;&gt;node_statement -->
<g id="edge16" class="edge"><title>node_statement&#45;&gt;node_statement</title>
<path fill="none" stroke="grey" d="M420.78,-410.46C440.056,-410.979 456,-406.492 456,-397 456,-389.288 445.475,-384.88 431.188,-383.776"/>
<polygon fill="grey" stroke="grey" points="430.857,-380.268 420.78,-383.54 430.698,-387.266 430.857,-380.268"/>
</g>
<!-- end_node -->
<g id="node13" class="node"><title>end_node</title>
<polygon fill="white" stroke="black" points="295.25,-271 226.75,-271 226.75,-235 295.25,-235 295.25,-271"/>
<text text-anchor="middle" x="261" y="-249.3" font-family="Times,serif" font-size="14.00">end_node</text>
</g>
<!-- node_name&#45;&gt;end_node -->
<g id="edge17" class="edge"><title>node_name&#45;&gt;end_node</title>
<path fill="none" stroke="grey" d="M263.258,-306.697C262.928,-298.983 262.531,-289.712 262.162,-281.112"/>
<polygon fill="grey" stroke="grey" points="265.658,-280.945 261.733,-271.104 258.665,-281.245 265.658,-280.945"/>
</g>
<!-- start_node -->
<g id="node14" class="node"><title>start_node</title>
<polygon fill="white" stroke="black" points="207.25,-271 134.75,-271 134.75,-235 207.25,-235 207.25,-271"/>
<text text-anchor="middle" x="171" y="-249.3" font-family="Times,serif" font-size="14.00">start_node</text>
</g>
<!-- node_name&#45;&gt;start_node -->
<g id="edge18" class="edge"><title>node_name&#45;&gt;start_node</title>
<path fill="none" stroke="grey" d="M241.011,-306.697C229.186,-297.796 214.608,-286.823 201.821,-277.199"/>
<polygon fill="grey" stroke="grey" points="203.819,-274.322 193.724,-271.104 199.609,-279.915 203.819,-274.322"/>
</g>
<!-- attribute_statement -->
<g id="node23" class="node"><title>attribute_statement</title>
<polygon fill="white" stroke="black" points="449.25,-271 328.75,-271 328.75,-235 449.25,-235 449.25,-271"/>
<text text-anchor="middle" x="389" y="-249.3" font-family="Times,serif" font-size="14.00">attribute_statement</text>
</g>
<!-- attribute_definition&#45;&gt;attribute_statement -->
<g id="edge34" class="edge"><title>attribute_definition&#45;&gt;attribute_statement</title>
<path fill="none" stroke="grey" d="M389,-306.697C389,-298.983 389,-289.712 389,-281.112"/>
<polygon fill="grey" stroke="grey" points="392.5,-281.104 389,-271.104 385.5,-281.104 392.5,-281.104"/>
</g>
<!-- &#39;]&#39; -->
<g id="node16" class="node"><title>&#39;]&#39;</title>
<polygon fill="white" stroke="black" points="270,-182 216,-182 216,-146 270,-146 270,-182"/>
<text text-anchor="middle" x="243" y="-160.3" font-family="Times,serif" font-size="14.00">&#39;]&#39;</text>
</g>
<!-- end_node&#45;&gt;&#39;]&#39; -->
<g id="edge20" class="edge"><title>end_node&#45;&gt;&#39;]&#39;</title>
<path fill="none" stroke="grey" d="M257.444,-234.812C254.929,-222.657 251.506,-206.114 248.624,-192.182"/>
<polygon fill="grey" stroke="grey" points="252.002,-191.236 246.549,-182.153 245.148,-192.654 252.002,-191.236"/>
</g>
<!-- &#39;[&#39; -->
<g id="node15" class="node"><title>&#39;[&#39;</title>
<polygon fill="white" stroke="black" points="198,-182 144,-182 144,-146 198,-146 198,-182"/>
<text text-anchor="middle" x="171" y="-160.3" font-family="Times,serif" font-size="14.00">&#39;[&#39;</text>
</g>
<!-- start_node&#45;&gt;&#39;[&#39; -->
<g id="edge19" class="edge"><title>start_node&#45;&gt;&#39;[&#39;</title>
<path fill="none" stroke="grey" d="M171,-234.812C171,-222.657 171,-206.114 171,-192.182"/>
<polygon fill="grey" stroke="grey" points="174.5,-192.153 171,-182.153 167.5,-192.153 174.5,-192.153"/>
</g>
<!-- :lexeme_2 -->
<g id="node29" class="node"><title>:lexeme_2</title>
<path fill="lightblue" stroke="black" d="M12,-129.5C12,-129.5 114,-129.5 114,-129.5 120,-129.5 126,-135.5 126,-141.5 126,-141.5 126,-186.5 126,-186.5 126,-192.5 120,-198.5 114,-198.5 114,-198.5 12,-198.5 12,-198.5 6,-198.5 0,-192.5 0,-186.5 0,-186.5 0,-141.5 0,-141.5 0,-135.5 6,-129.5 12,-129.5"/>
<text text-anchor="middle" x="63" y="-183.3" font-family="Times,serif" font-size="14.00">:lexeme</text>
<polyline fill="none" stroke="black" points="0,-175.5 126,-175.5 "/>
<text text-anchor="middle" x="63" y="-160.3" font-family="Times,serif" font-size="14.00">pause =&gt; before</text>
<polyline fill="none" stroke="black" points="0,-152.5 126,-152.5 "/>
<text text-anchor="middle" x="63" y="-137.3" font-family="Times,serif" font-size="14.00">event =&gt; start_node</text>
</g>
<!-- start_node&#45;&gt;:lexeme_2 -->
<g id="edge40" class="edge"><title>start_node&#45;&gt;:lexeme_2</title>
<path fill="none" stroke="grey" d="M149.663,-234.812C139.074,-226.282 125.801,-215.59 112.849,-205.156"/>
<polygon fill="grey" stroke="grey" points="114.835,-202.262 104.852,-198.714 110.444,-207.713 114.835,-202.262"/>
</g>
<!-- edge_name -->
<g id="node18" class="node"><title>edge_name</title>
<polygon fill="white" stroke="black" points="632.25,-343 553.75,-343 553.75,-307 632.25,-307 632.25,-343"/>
<text text-anchor="middle" x="593" y="-321.3" font-family="Times,serif" font-size="14.00">edge_name</text>
</g>
<!-- edge_statement&#45;&gt;edge_name -->
<g id="edge24" class="edge"><title>edge_statement&#45;&gt;edge_name</title>
<path fill="none" stroke="grey" d="M542.562,-378.697C550.675,-370.22 560.588,-359.864 569.471,-350.583"/>
<polygon fill="grey" stroke="grey" points="572.243,-352.749 576.629,-343.104 567.186,-347.908 572.243,-352.749"/>
</g>
<!-- edge_statement&#45;&gt;attribute_definition -->
<g id="edge25" class="edge"><title>edge_statement&#45;&gt;attribute_definition</title>
<path fill="none" stroke="grey" d="M492.486,-378.876C474.159,-369.512 451.264,-357.814 431.672,-347.803"/>
<polygon fill="grey" stroke="grey" points="433.14,-344.623 422.643,-343.19 429.955,-350.857 433.14,-344.623"/>
</g>
<!-- edge_statement&#45;&gt;edge_name -->
<g id="edge26" class="edge"><title>edge_statement&#45;&gt;edge_name</title>
<path fill="none" stroke="grey" d="M542.562,-378.697C550.675,-370.22 560.588,-359.864 569.471,-350.583"/>
<polygon fill="grey" stroke="grey" points="572.243,-352.749 576.629,-343.104 567.186,-347.908 572.243,-352.749"/>
</g>
<!-- edge_statement&#45;&gt;(&#39;,&#39;) -->
<g id="edge27" class="edge"><title>edge_statement&#45;&gt;(&#39;,&#39;)</title>
<path fill="none" stroke="grey" d="M521.303,-378.697C519.187,-370.898 516.638,-361.509 514.282,-352.829"/>
<polygon fill="grey" stroke="grey" points="517.64,-351.838 511.643,-343.104 510.884,-353.672 517.64,-351.838"/>
</g>
<!-- edge_statement&#45;&gt;edge_statement -->
<g id="edge28" class="edge"><title>edge_statement&#45;&gt;edge_statement</title>
<path fill="none" stroke="grey" d="M576.413,-403.493C586.661,-402.785 594,-400.621 594,-397 594,-394.737 591.133,-393.043 586.481,-391.918"/>
<polygon fill="grey" stroke="grey" points="586.802,-388.429 576.413,-390.507 585.831,-395.361 586.802,-388.429"/>
</g>
<!-- edge_statement&#45;&gt;edge_statement -->
<g id="edge29" class="edge"><title>edge_statement&#45;&gt;edge_statement</title>
<path fill="none" stroke="grey" d="M576.351,-410.447C595.819,-411.045 612,-406.562 612,-397 612,-389.156 601.112,-384.73 586.452,-383.723"/>
<polygon fill="grey" stroke="grey" points="586.409,-380.221 576.351,-383.553 586.291,-387.221 586.409,-380.221"/>
</g>
<!-- directed_edge -->
<g id="node19" class="node"><title>directed_edge</title>
<polygon fill="white" stroke="black" points="882,-271 790,-271 790,-235 882,-235 882,-271"/>
<text text-anchor="middle" x="836" y="-249.3" font-family="Times,serif" font-size="14.00">directed_edge</text>
</g>
<!-- edge_name&#45;&gt;directed_edge -->
<g id="edge30" class="edge"><title>edge_name&#45;&gt;directed_edge</title>
<path fill="none" stroke="grey" d="M632.312,-312.675C672.358,-301.14 734.828,-283.144 780.03,-270.123"/>
<polygon fill="grey" stroke="grey" points="781.045,-273.473 789.686,-267.342 779.108,-266.746 781.045,-273.473"/>
</g>
<!-- undirected_edge -->
<g id="node20" class="node"><title>undirected_edge</title>
<polygon fill="white" stroke="black" points="646.5,-271 541.5,-271 541.5,-235 646.5,-235 646.5,-271"/>
<text text-anchor="middle" x="594" y="-249.3" font-family="Times,serif" font-size="14.00">undirected_edge</text>
</g>
<!-- edge_name&#45;&gt;undirected_edge -->
<g id="edge31" class="edge"><title>edge_name&#45;&gt;undirected_edge</title>
<path fill="none" stroke="grey" d="M593.247,-306.697C593.357,-298.983 593.49,-289.712 593.613,-281.112"/>
<polygon fill="grey" stroke="grey" points="597.112,-281.153 593.756,-271.104 590.113,-281.053 597.112,-281.153"/>
</g>
<!-- &#39;&#45;\&gt;&#39; -->
<g id="node21" class="node"><title>&#39;&#45;\&gt;&#39;</title>
<polygon fill="white" stroke="black" points="981,-182 927,-182 927,-146 981,-146 981,-182"/>
<text text-anchor="middle" x="954" y="-160.3" font-family="Times,serif" font-size="14.00">&#39;&#45;&gt;&#39;</text>
</g>
<!-- directed_edge&#45;&gt;&#39;&#45;\&gt;&#39; -->
<g id="edge32" class="edge"><title>directed_edge&#45;&gt;&#39;&#45;\&gt;&#39;</title>
<path fill="none" stroke="grey" d="M865.346,-234.844C881.389,-225.023 901.33,-212.08 918,-199 921.855,-195.975 925.778,-192.612 929.548,-189.21"/>
<polygon fill="grey" stroke="grey" points="932.066,-191.648 936.999,-182.272 927.296,-186.525 932.066,-191.648"/>
</g>
<!-- :lexeme_4 -->
<g id="node30" class="node"><title>:lexeme_4</title>
<path fill="lightblue" stroke="black" d="M775,-129.5C775,-129.5 897,-129.5 897,-129.5 903,-129.5 909,-135.5 909,-141.5 909,-141.5 909,-186.5 909,-186.5 909,-192.5 903,-198.5 897,-198.5 897,-198.5 775,-198.5 775,-198.5 769,-198.5 763,-192.5 763,-186.5 763,-186.5 763,-141.5 763,-141.5 763,-135.5 769,-129.5 775,-129.5"/>
<text text-anchor="middle" x="836" y="-183.3" font-family="Times,serif" font-size="14.00">:lexeme</text>
<polyline fill="none" stroke="black" points="763,-175.5 909,-175.5 "/>
<text text-anchor="middle" x="836" y="-160.3" font-family="Times,serif" font-size="14.00">pause =&gt; before</text>
<polyline fill="none" stroke="black" points="763,-152.5 909,-152.5 "/>
<text text-anchor="middle" x="836" y="-137.3" font-family="Times,serif" font-size="14.00">event =&gt; directed_edge</text>
</g>
<!-- directed_edge&#45;&gt;:lexeme_4 -->
<g id="edge41" class="edge"><title>directed_edge&#45;&gt;:lexeme_4</title>
<path fill="none" stroke="grey" d="M836,-234.812C836,-227.328 836,-218.18 836,-209.002"/>
<polygon fill="grey" stroke="grey" points="839.5,-208.714 836,-198.714 832.5,-208.714 839.5,-208.714"/>
</g>
<!-- &#39;&#45;&#45;&#39; -->
<g id="node22" class="node"><title>&#39;&#45;&#45;&#39;</title>
<polygon fill="white" stroke="black" points="745,-182 691,-182 691,-146 745,-146 745,-182"/>
<text text-anchor="middle" x="718" y="-160.3" font-family="Times,serif" font-size="14.00">&#39;&#45;&#45;&#39;</text>
</g>
<!-- undirected_edge&#45;&gt;&#39;&#45;&#45;&#39; -->
<g id="edge33" class="edge"><title>undirected_edge&#45;&gt;&#39;&#45;&#45;&#39;</title>
<path fill="none" stroke="grey" d="M626.014,-234.926C643.191,-225.227 664.387,-212.374 682,-199 685.984,-195.975 690.017,-192.568 693.87,-189.11"/>
<polygon fill="grey" stroke="grey" points="696.523,-191.422 701.455,-182.045 691.752,-186.3 696.523,-191.422"/>
</g>
<!-- :lexeme_5 -->
<g id="node31" class="node"><title>:lexeme_5</title>
<path fill="lightblue" stroke="black" d="M526.5,-129.5C526.5,-129.5 661.5,-129.5 661.5,-129.5 667.5,-129.5 673.5,-135.5 673.5,-141.5 673.5,-141.5 673.5,-186.5 673.5,-186.5 673.5,-192.5 667.5,-198.5 661.5,-198.5 661.5,-198.5 526.5,-198.5 526.5,-198.5 520.5,-198.5 514.5,-192.5 514.5,-186.5 514.5,-186.5 514.5,-141.5 514.5,-141.5 514.5,-135.5 520.5,-129.5 526.5,-129.5"/>
<text text-anchor="middle" x="594" y="-183.3" font-family="Times,serif" font-size="14.00">:lexeme</text>
<polyline fill="none" stroke="black" points="514.5,-175.5 673.5,-175.5 "/>
<text text-anchor="middle" x="594" y="-160.3" font-family="Times,serif" font-size="14.00">pause =&gt; before</text>
<polyline fill="none" stroke="black" points="514.5,-152.5 673.5,-152.5 "/>
<text text-anchor="middle" x="594" y="-137.3" font-family="Times,serif" font-size="14.00">event =&gt; undirected_edge</text>
</g>
<!-- undirected_edge&#45;&gt;:lexeme_5 -->
<g id="edge42" class="edge"><title>undirected_edge&#45;&gt;:lexeme_5</title>
<path fill="none" stroke="grey" d="M594,-234.812C594,-227.328 594,-218.18 594,-209.002"/>
<polygon fill="grey" stroke="grey" points="597.5,-208.714 594,-198.714 590.5,-208.714 597.5,-208.714"/>
</g>
<!-- end_attributes -->
<g id="node24" class="node"><title>end_attributes</title>
<polygon fill="white" stroke="black" points="496.25,-182 403.75,-182 403.75,-146 496.25,-146 496.25,-182"/>
<text text-anchor="middle" x="450" y="-160.3" font-family="Times,serif" font-size="14.00">end_attributes</text>
</g>
<!-- attribute_statement&#45;&gt;end_attributes -->
<g id="edge35" class="edge"><title>attribute_statement&#45;&gt;end_attributes</title>
<path fill="none" stroke="grey" d="M401.052,-234.812C409.908,-222.181 422.088,-204.809 432.082,-190.555"/>
<polygon fill="grey" stroke="grey" points="435.098,-192.35 437.973,-182.153 429.367,-188.331 435.098,-192.35"/>
</g>
<!-- start_attributes -->
<g id="node25" class="node"><title>start_attributes</title>
<polygon fill="white" stroke="black" points="385.25,-182 288.75,-182 288.75,-146 385.25,-146 385.25,-182"/>
<text text-anchor="middle" x="337" y="-160.3" font-family="Times,serif" font-size="14.00">start_attributes</text>
</g>
<!-- attribute_statement&#45;&gt;start_attributes -->
<g id="edge36" class="edge"><title>attribute_statement&#45;&gt;start_attributes</title>
<path fill="none" stroke="grey" d="M378.726,-234.812C371.248,-222.3 360.99,-205.137 352.516,-190.959"/>
<polygon fill="grey" stroke="grey" points="355.387,-188.941 347.252,-182.153 349.378,-192.532 355.387,-188.941"/>
</g>
<!-- &#39;}&#39; -->
<g id="node27" class="node"><title>&#39;}&#39;</title>
<polygon fill="white" stroke="black" points="477,-76 423,-76 423,-40 477,-40 477,-76"/>
<text text-anchor="middle" x="450" y="-54.3" font-family="Times,serif" font-size="14.00">&#39;}&#39;</text>
</g>
<!-- end_attributes&#45;&gt;&#39;}&#39; -->
<g id="edge38" class="edge"><title>end_attributes&#45;&gt;&#39;}&#39;</title>
<path fill="none" stroke="grey" d="M450,-145.827C450,-129.643 450,-105.131 450,-86.2733"/>
<polygon fill="grey" stroke="grey" points="453.5,-86.199 450,-76.199 446.5,-86.199 453.5,-86.199"/>
</g>
<!-- &#39;{&#39; -->
<g id="node26" class="node"><title>&#39;{&#39;</title>
<polygon fill="white" stroke="black" points="385,-76 331,-76 331,-40 385,-40 385,-76"/>
<text text-anchor="middle" x="358" y="-54.3" font-family="Times,serif" font-size="14.00">&#39;{&#39;</text>
</g>
<!-- start_attributes&#45;&gt;&#39;{&#39; -->
<g id="edge37" class="edge"><title>start_attributes&#45;&gt;&#39;{&#39;</title>
<path fill="none" stroke="grey" d="M340.468,-145.827C343.751,-129.568 348.731,-104.903 352.546,-86.0105"/>
<polygon fill="grey" stroke="grey" points="355.979,-86.6939 354.527,-76.199 349.117,-85.3084 355.979,-86.6939"/>
</g>
<!-- :lexeme_6 -->
<g id="node32" class="node"><title>:lexeme_6</title>
<path fill="lightblue" stroke="black" d="M175,-23.5C175,-23.5 301,-23.5 301,-23.5 307,-23.5 313,-29.5 313,-35.5 313,-35.5 313,-80.5 313,-80.5 313,-86.5 307,-92.5 301,-92.5 301,-92.5 175,-92.5 175,-92.5 169,-92.5 163,-86.5 163,-80.5 163,-80.5 163,-35.5 163,-35.5 163,-29.5 169,-23.5 175,-23.5"/>
<text text-anchor="middle" x="238" y="-77.3" font-family="Times,serif" font-size="14.00">:lexeme</text>
<polyline fill="none" stroke="black" points="163,-69.5 313,-69.5 "/>
<text text-anchor="middle" x="238" y="-54.3" font-family="Times,serif" font-size="14.00">pause =&gt; before</text>
<polyline fill="none" stroke="black" points="163,-46.5 313,-46.5 "/>
<text text-anchor="middle" x="238" y="-31.3" font-family="Times,serif" font-size="14.00">event =&gt; start_attributes</text>
</g>
<!-- start_attributes&#45;&gt;:lexeme_6 -->
<g id="edge43" class="edge"><title>start_attributes&#45;&gt;:lexeme_6</title>
<path fill="none" stroke="grey" d="M320.652,-145.827C308.853,-133.431 292.403,-116.151 277.283,-100.267"/>
<polygon fill="grey" stroke="grey" points="279.423,-97.4386 269.993,-92.6087 274.353,-102.265 279.423,-97.4386"/>
</g>
</g>
</svg>
