<?xml version="1.0" encoding="UTF-8" standalone="no"?>
<!DOCTYPE svg PUBLIC "-//W3C//DTD SVG 1.1//EN"
 "http://www.w3.org/Graphics/SVG/1.1/DTD/svg11.dtd">
<!-- Generated by graphviz version 2.30.1 (20130611.0131)
 -->
<!-- Title: Perl Pages: 1 -->
<svg width="966pt" height="574pt"
 viewBox="0.00 0.00 966.00 574.00" xmlns="http://www.w3.org/2000/svg" xmlns:xlink="http://www.w3.org/1999/xlink">
<g id="graph0" class="graph" transform="scale(1 1) rotate(0) translate(4 570)">
<title>Perl</title>
<polygon fill="white" stroke="white" points="-4,5 -4,-570 963,-570 963,5 -4,5"/>
<!-- graph_grammar -->
<g id="node1" class="node"><title>graph_grammar</title>
<polygon fill="lightgreen" stroke="black" points="676,-566 572,-566 572,-530 676,-530 676,-566"/>
<text text-anchor="middle" x="624" y="-544.3" font-family="Times,serif" font-size="14.00">graph_grammar</text>
</g>
<!-- graph_definition -->
<g id="node2" class="node"><title>graph_definition</title>
<polygon fill="none" stroke="black" points="445.25,-494 338.75,-494 338.75,-458 445.25,-458 445.25,-494"/>
<text text-anchor="middle" x="392" y="-472.3" font-family="Times,serif" font-size="14.00">graph_definition</text>
</g>
<!-- graph_grammar&#45;&gt;graph_definition -->
<g id="edge1" class="edge"><title>graph_grammar&#45;&gt;graph_definition</title>
<path fill="none" stroke="grey" d="M571.935,-531.291C537.351,-520.856 491.741,-507.094 455.096,-496.038"/>
<polygon fill="grey" stroke="grey" points="456.086,-492.68 445.501,-493.142 454.064,-499.382 456.086,-492.68"/>
</g>
<!-- :default -->
<g id="node29" class="node"><title>:default</title>
<polygon fill="lightblue" stroke="black" points="608.5,-494 551.5,-494 551.5,-458 608.5,-458 608.5,-494"/>
<text text-anchor="middle" x="580" y="-472.3" font-family="Times,serif" font-size="14.00">:default</text>
</g>
<!-- graph_grammar&#45;&gt;:default -->
<g id="edge36" class="edge"><title>graph_grammar&#45;&gt;:default</title>
<path fill="none" stroke="grey" d="M613.124,-529.697C608.008,-521.559 601.805,-511.689 596.155,-502.701"/>
<polygon fill="grey" stroke="grey" points="599.036,-500.708 590.751,-494.104 593.11,-504.433 599.036,-500.708"/>
</g>
<!-- :discard -->
<g id="node31" class="node"><title>:discard</title>
<polygon fill="lightblue" stroke="black" points="697.25,-494 638.75,-494 638.75,-458 697.25,-458 697.25,-494"/>
<text text-anchor="middle" x="668" y="-472.3" font-family="Times,serif" font-size="14.00">:discard</text>
</g>
<!-- graph_grammar&#45;&gt;:discard -->
<g id="edge38" class="edge"><title>graph_grammar&#45;&gt;:discard</title>
<path fill="none" stroke="grey" d="M634.876,-529.697C639.992,-521.559 646.195,-511.689 651.845,-502.701"/>
<polygon fill="grey" stroke="grey" points="654.89,-504.433 657.249,-494.104 648.964,-500.708 654.89,-504.433"/>
</g>
<!-- lexeme default -->
<g id="node34" class="node"><title>lexeme default</title>
<polygon fill="lightblue" stroke="black" points="818.5,-494 721.5,-494 721.5,-458 818.5,-458 818.5,-494"/>
<text text-anchor="middle" x="770" y="-472.3" font-family="Times,serif" font-size="14.00">lexeme default</text>
</g>
<!-- graph_grammar&#45;&gt;lexeme default -->
<g id="edge41" class="edge"><title>graph_grammar&#45;&gt;lexeme default</title>
<path fill="none" stroke="grey" d="M659.716,-529.876C679.497,-520.392 704.272,-508.513 725.326,-498.419"/>
<polygon fill="grey" stroke="grey" points="726.896,-501.548 734.4,-494.068 723.87,-495.236 726.896,-501.548"/>
</g>
<!-- graph -->
<g id="node3" class="node"><title>graph</title>
<polygon fill="lightblue" stroke="black" points="167,-385 167,-421 263,-421 263,-385 167,-385"/>
<text text-anchor="middle" x="215" y="-399.3" font-family="Times,serif" font-size="14.00">action = graph</text>
</g>
<!-- graph_definition&#45;&gt;graph -->
<g id="edge2" class="edge"><title>graph_definition&#45;&gt;graph</title>
<path fill="none" stroke="grey" d="M349.604,-457.994C324.828,-448.055 293.364,-435.434 267.088,-424.894"/>
<polygon fill="grey" stroke="grey" points="268.248,-421.588 257.663,-421.114 265.642,-428.085 268.248,-421.588"/>
</g>
<!-- node_definition -->
<g id="node4" class="node"><title>node_definition</title>
<polygon fill="none" stroke="black" points="382.5,-421 281.5,-421 281.5,-385 382.5,-385 382.5,-421"/>
<text text-anchor="middle" x="332" y="-399.3" font-family="Times,serif" font-size="14.00">node_definition</text>
</g>
<!-- graph_definition&#45;&gt;node_definition -->
<g id="edge3" class="edge"><title>graph_definition&#45;&gt;node_definition</title>
<path fill="none" stroke="grey" d="M371.597,-457.813C363.398,-449.179 354.219,-438.555 346.673,-429.034"/>
<polygon fill="grey" stroke="grey" points="349.394,-426.831 340.529,-421.029 343.841,-431.093 349.394,-426.831"/>
</g>
<!-- edge_definition -->
<g id="node20" class="node"><title>edge_definition</title>
<polygon fill="none" stroke="black" points="502.25,-421 401.75,-421 401.75,-385 502.25,-385 502.25,-421"/>
<text text-anchor="middle" x="452" y="-399.3" font-family="Times,serif" font-size="14.00">edge_definition</text>
</g>
<!-- graph_definition&#45;&gt;edge_definition -->
<g id="edge22" class="edge"><title>graph_definition&#45;&gt;edge_definition</title>
<path fill="none" stroke="grey" d="M400.646,-457.813C407.168,-449.005 416.171,-438.125 424.88,-428.458"/>
<polygon fill="grey" stroke="grey" points="427.53,-430.748 431.748,-421.029 422.39,-425.996 427.53,-430.748"/>
</g>
<!-- node_statement -->
<g id="node5" class="node"><title>node_statement</title>
<polygon fill="none" stroke="black" points="382.5,-348 281.5,-348 281.5,-312 382.5,-312 382.5,-348"/>
<text text-anchor="middle" x="332" y="-326.3" font-family="Times,serif" font-size="14.00">node_statement</text>
</g>
<!-- node_definition&#45;&gt;node_statement -->
<g id="edge4" class="edge"><title>node_definition&#45;&gt;node_statement</title>
<path fill="none" stroke="grey" d="M326.122,-384.813C325.282,-376.789 325.049,-367.047 325.422,-358.069"/>
<polygon fill="grey" stroke="grey" points="328.918,-358.253 326.138,-348.029 321.936,-357.754 328.918,-358.253"/>
</g>
<!-- node_definition&#45;&gt;node_statement -->
<g id="edge20" class="edge"><title>node_definition&#45;&gt;node_statement</title>
<path fill="none" stroke="grey" d="M337.878,-384.813C338.718,-376.789 338.951,-367.047 338.578,-358.069"/>
<polygon fill="grey" stroke="grey" points="342.064,-357.754 337.862,-348.029 335.082,-358.253 342.064,-357.754"/>
</g>
<!-- node_definition&#45;&gt;graph_definition -->
<g id="edge21" class="edge"><title>node_definition&#45;&gt;graph_definition</title>
<path fill="none" stroke="grey" d="M352.252,-421.029C360.44,-429.638 369.623,-440.257 377.188,-449.791"/>
<polygon fill="grey" stroke="grey" points="374.485,-452.017 383.354,-457.813 380.035,-447.751 374.485,-452.017"/>
</g>
<!-- node_name -->
<g id="node6" class="node"><title>node_name</title>
<polygon fill="none" stroke="black" points="280,-276 200,-276 200,-240 280,-240 280,-276"/>
<text text-anchor="middle" x="240" y="-254.3" font-family="Times,serif" font-size="14.00">node_name</text>
</g>
<!-- node_statement&#45;&gt;node_name -->
<g id="edge5" class="edge"><title>node_statement&#45;&gt;node_name</title>
<path fill="none" stroke="grey" d="M303.597,-311.876C291.092,-303.063 276.617,-292.182 264.579,-282.586"/>
<polygon fill="grey" stroke="grey" points="266.661,-279.768 256.688,-276.19 262.252,-285.206 266.661,-279.768"/>
</g>
<!-- node_statement&#45;&gt;node_name -->
<g id="edge11" class="edge"><title>node_statement&#45;&gt;node_name</title>
<path fill="none" stroke="grey" d="M315.174,-311.697C304.292,-302.711 289.861,-291.614 276.508,-281.924"/>
<polygon fill="grey" stroke="grey" points="278.544,-279.077 268.375,-276.104 274.471,-284.77 278.544,-279.077"/>
</g>
<!-- attribute_definition -->
<g id="node12" class="node"><title>attribute_definition</title>
<polygon fill="none" stroke="black" points="498.25,-276 377.75,-276 377.75,-240 498.25,-240 498.25,-276"/>
<text text-anchor="middle" x="438" y="-254.3" font-family="Times,serif" font-size="14.00">attribute_definition</text>
</g>
<!-- node_statement&#45;&gt;attribute_definition -->
<g id="edge12" class="edge"><title>node_statement&#45;&gt;attribute_definition</title>
<path fill="none" stroke="grey" d="M357.931,-311.876C371.662,-302.808 388.706,-291.552 403.536,-281.759"/>
<polygon fill="grey" stroke="grey" points="405.554,-284.621 411.97,-276.19 401.696,-278.78 405.554,-284.621"/>
</g>
<!-- (&#39;,&#39;) -->
<g id="node19" class="node"><title>(&#39;,&#39;)</title>
<polygon fill="none" stroke="black" points="359,-276 305,-276 305,-240 359,-240 359,-276"/>
<text text-anchor="middle" x="332" y="-254.3" font-family="Times,serif" font-size="14.00">(&#39;,&#39;)</text>
</g>
<!-- node_statement&#45;&gt;(&#39;,&#39;) -->
<g id="edge19" class="edge"><title>node_statement&#45;&gt;(&#39;,&#39;)</title>
<path fill="none" stroke="grey" d="M332,-311.697C332,-303.983 332,-294.712 332,-286.112"/>
<polygon fill="grey" stroke="grey" points="335.5,-286.104 332,-276.104 328.5,-286.104 335.5,-286.104"/>
</g>
<!-- start_node -->
<g id="node7" class="node"><title>start_node</title>
<polygon fill="none" stroke="black" points="167.25,-204 94.75,-204 94.75,-168 167.25,-168 167.25,-204"/>
<text text-anchor="middle" x="131" y="-182.3" font-family="Times,serif" font-size="14.00">start_node</text>
</g>
<!-- node_name&#45;&gt;start_node -->
<g id="edge6" class="edge"><title>node_name&#45;&gt;start_node</title>
<path fill="none" stroke="grey" d="M213.336,-239.876C199.216,-230.808 181.689,-219.552 166.439,-209.759"/>
<polygon fill="grey" stroke="grey" points="168.073,-206.648 157.767,-204.19 164.29,-212.538 168.073,-206.648"/>
</g>
<!-- end_node -->
<g id="node10" class="node"><title>end_node</title>
<polygon fill="none" stroke="black" points="272.25,-204 203.75,-204 203.75,-168 272.25,-168 272.25,-204"/>
<text text-anchor="middle" x="238" y="-182.3" font-family="Times,serif" font-size="14.00">end_node</text>
</g>
<!-- node_name&#45;&gt;end_node -->
<g id="edge9" class="edge"><title>node_name&#45;&gt;end_node</title>
<path fill="none" stroke="grey" d="M239.506,-239.697C239.285,-231.983 239.02,-222.712 238.775,-214.112"/>
<polygon fill="grey" stroke="grey" points="242.273,-214 238.489,-204.104 235.276,-214.2 242.273,-214"/>
</g>
<!-- before/start_node -->
<g id="node8" class="node"><title>before/start_node</title>
<polygon fill="lightblue" stroke="black" points="72,-85 72,-131 190,-131 190,-85 72,-85"/>
<text text-anchor="middle" x="131" y="-115.8" font-family="Times,serif" font-size="14.00">event = start_node</text>
<polyline fill="none" stroke="black" points="72,-108 190,-108 "/>
<text text-anchor="middle" x="131" y="-92.8" font-family="Times,serif" font-size="14.00">pause = before</text>
</g>
<!-- start_node&#45;&gt;before/start_node -->
<g id="edge7" class="edge"><title>start_node&#45;&gt;before/start_node</title>
<path fill="none" stroke="grey" d="M131,-167.754C131,-159.863 131,-150.249 131,-141.102"/>
<polygon fill="grey" stroke="grey" points="134.5,-141.091 131,-131.091 127.5,-141.091 134.5,-141.091"/>
</g>
<!-- &#39;[&#39; -->
<g id="node9" class="node"><title>&#39;[&#39;</title>
<polygon fill="none" stroke="black" points="54,-126 0,-126 0,-90 54,-90 54,-126"/>
<text text-anchor="middle" x="27" y="-104.3" font-family="Times,serif" font-size="14.00">&#39;[&#39;</text>
</g>
<!-- start_node&#45;&gt;&#39;[&#39; -->
<g id="edge8" class="edge"><title>start_node&#45;&gt;&#39;[&#39;</title>
<path fill="none" stroke="grey" d="M107.66,-167.944C93.3097,-157.457 74.7239,-143.875 59.0105,-132.392"/>
<polygon fill="grey" stroke="grey" points="60.7606,-129.336 50.6216,-126.262 56.6304,-134.988 60.7606,-129.336"/>
</g>
<!-- &#39;]&#39; -->
<g id="node11" class="node"><title>&#39;]&#39;</title>
<polygon fill="none" stroke="black" points="262,-126 208,-126 208,-90 262,-90 262,-126"/>
<text text-anchor="middle" x="235" y="-104.3" font-family="Times,serif" font-size="14.00">&#39;]&#39;</text>
</g>
<!-- end_node&#45;&gt;&#39;]&#39; -->
<g id="edge10" class="edge"><title>end_node&#45;&gt;&#39;]&#39;</title>
<path fill="none" stroke="grey" d="M237.319,-167.754C236.955,-158.523 236.497,-146.935 236.085,-136.495"/>
<polygon fill="grey" stroke="grey" points="239.57,-136.031 235.678,-126.177 232.575,-136.308 239.57,-136.031"/>
</g>
<!-- attribute_statement -->
<g id="node13" class="node"><title>attribute_statement</title>
<polygon fill="none" stroke="black" points="496.25,-204 375.75,-204 375.75,-168 496.25,-168 496.25,-204"/>
<text text-anchor="middle" x="436" y="-182.3" font-family="Times,serif" font-size="14.00">attribute_statement</text>
</g>
<!-- attribute_definition&#45;&gt;attribute_statement -->
<g id="edge13" class="edge"><title>attribute_definition&#45;&gt;attribute_statement</title>
<path fill="none" stroke="grey" d="M437.506,-239.697C437.285,-231.983 437.02,-222.712 436.775,-214.112"/>
<polygon fill="grey" stroke="grey" points="440.273,-214 436.489,-204.104 433.276,-214.2 440.273,-214"/>
</g>
<!-- start_attributes -->
<g id="node14" class="node"><title>start_attributes</title>
<polygon fill="none" stroke="black" points="488.25,-126 391.75,-126 391.75,-90 488.25,-90 488.25,-126"/>
<text text-anchor="middle" x="440" y="-104.3" font-family="Times,serif" font-size="14.00">start_attributes</text>
</g>
<!-- attribute_statement&#45;&gt;start_attributes -->
<g id="edge14" class="edge"><title>attribute_statement&#45;&gt;start_attributes</title>
<path fill="none" stroke="grey" d="M436.908,-167.754C437.399,-158.426 438.016,-146.691 438.57,-136.165"/>
<polygon fill="grey" stroke="grey" points="442.065,-136.347 439.096,-126.177 435.075,-135.98 442.065,-136.347"/>
</g>
<!-- end_attributes -->
<g id="node17" class="node"><title>end_attributes</title>
<polygon fill="none" stroke="black" points="373.25,-126 280.75,-126 280.75,-90 373.25,-90 373.25,-126"/>
<text text-anchor="middle" x="327" y="-104.3" font-family="Times,serif" font-size="14.00">end_attributes</text>
</g>
<!-- attribute_statement&#45;&gt;end_attributes -->
<g id="edge17" class="edge"><title>attribute_statement&#45;&gt;end_attributes</title>
<path fill="none" stroke="grey" d="M411.538,-167.944C396.358,-157.36 376.657,-143.623 360.093,-132.074"/>
<polygon fill="grey" stroke="grey" points="361.962,-129.11 351.757,-126.262 357.958,-134.852 361.962,-129.11"/>
</g>
<!-- before/start_attributes -->
<g id="node15" class="node"><title>before/start_attributes</title>
<polygon fill="lightblue" stroke="black" points="369,-1 369,-47 511,-47 511,-1 369,-1"/>
<text text-anchor="middle" x="440" y="-31.8" font-family="Times,serif" font-size="14.00">event = start_attributes</text>
<polyline fill="none" stroke="black" points="369,-24 511,-24 "/>
<text text-anchor="middle" x="440" y="-8.8" font-family="Times,serif" font-size="14.00">pause = before</text>
</g>
<!-- start_attributes&#45;&gt;before/start_attributes -->
<g id="edge15" class="edge"><title>start_attributes&#45;&gt;before/start_attributes</title>
<path fill="none" stroke="grey" d="M440,-89.6099C440,-80.2045 440,-68.2845 440,-57.2511"/>
<polygon fill="grey" stroke="grey" points="443.5,-57.0553 440,-47.0554 436.5,-57.0554 443.5,-57.0553"/>
</g>
<!-- &#39;{&#39; -->
<g id="node16" class="node"><title>&#39;{&#39;</title>
<polygon fill="none" stroke="black" points="583,-42 529,-42 529,-6 583,-6 583,-42"/>
<text text-anchor="middle" x="556" y="-20.3" font-family="Times,serif" font-size="14.00">&#39;{&#39;</text>
</g>
<!-- start_attributes&#45;&gt;&#39;{&#39; -->
<g id="edge16" class="edge"><title>start_attributes&#45;&gt;&#39;{&#39;</title>
<path fill="none" stroke="grey" d="M464.317,-89.8101C481.486,-77.6739 504.68,-61.2781 523.443,-48.0144"/>
<polygon fill="grey" stroke="grey" points="525.569,-50.7977 531.715,-42.1673 521.528,-45.0816 525.569,-50.7977"/>
</g>
<!-- &#39;}&#39; -->
<g id="node18" class="node"><title>&#39;}&#39;</title>
<polygon fill="none" stroke="black" points="351,-42 297,-42 297,-6 351,-6 351,-42"/>
<text text-anchor="middle" x="324" y="-20.3" font-family="Times,serif" font-size="14.00">&#39;}&#39;</text>
</g>
<!-- end_attributes&#45;&gt;&#39;}&#39; -->
<g id="edge18" class="edge"><title>end_attributes&#45;&gt;&#39;}&#39;</title>
<path fill="none" stroke="grey" d="M326.364,-89.6099C325.967,-78.7743 325.449,-64.6012 324.998,-52.2913"/>
<polygon fill="grey" stroke="grey" points="328.488,-51.9492 324.625,-42.0838 321.493,-52.2052 328.488,-51.9492"/>
</g>
<!-- edge_statement -->
<g id="node21" class="node"><title>edge_statement</title>
<polygon fill="none" stroke="black" points="502.25,-348 401.75,-348 401.75,-312 502.25,-312 502.25,-348"/>
<text text-anchor="middle" x="452" y="-326.3" font-family="Times,serif" font-size="14.00">edge_statement</text>
</g>
<!-- edge_definition&#45;&gt;edge_statement -->
<g id="edge23" class="edge"><title>edge_definition&#45;&gt;edge_statement</title>
<path fill="none" stroke="grey" d="M446.122,-384.813C445.282,-376.789 445.049,-367.047 445.422,-358.069"/>
<polygon fill="grey" stroke="grey" points="448.918,-358.253 446.138,-348.029 441.936,-357.754 448.918,-358.253"/>
</g>
<!-- edge_definition&#45;&gt;edge_statement -->
<g id="edge34" class="edge"><title>edge_definition&#45;&gt;edge_statement</title>
<path fill="none" stroke="grey" d="M457.878,-384.813C458.718,-376.789 458.951,-367.047 458.578,-358.069"/>
<polygon fill="grey" stroke="grey" points="462.064,-357.754 457.862,-348.029 455.082,-358.253 462.064,-357.754"/>
</g>
<!-- edge_definition&#45;&gt;graph_definition -->
<g id="edge35" class="edge"><title>edge_definition&#45;&gt;graph_definition</title>
<path fill="none" stroke="grey" d="M443.471,-421.029C436.979,-429.812 427.989,-440.686 419.277,-450.367"/>
<polygon fill="grey" stroke="grey" points="416.615,-448.091 412.403,-457.813 421.758,-452.84 416.615,-448.091"/>
</g>
<!-- edge_name -->
<g id="node22" class="node"><title>edge_name</title>
<polygon fill="none" stroke="black" points="598.25,-276 519.75,-276 519.75,-240 598.25,-240 598.25,-276"/>
<text text-anchor="middle" x="559" y="-254.3" font-family="Times,serif" font-size="14.00">edge_name</text>
</g>
<!-- edge_statement&#45;&gt;edge_name -->
<g id="edge24" class="edge"><title>edge_statement&#45;&gt;edge_name</title>
<path fill="none" stroke="grey" d="M472.278,-311.876C485.311,-302.724 502.557,-291.342 518.279,-281.485"/>
<polygon fill="grey" stroke="grey" points="520.165,-284.434 526.82,-276.19 516.477,-278.484 520.165,-284.434"/>
</g>
<!-- edge_statement&#45;&gt;edge_name -->
<g id="edge31" class="edge"><title>edge_statement&#45;&gt;edge_name</title>
<path fill="none" stroke="grey" d="M484.072,-311.876C498.743,-302.893 515.92,-291.763 530.177,-282.034"/>
<polygon fill="grey" stroke="grey" points="532.394,-284.756 538.628,-276.19 528.413,-278.999 532.394,-284.756"/>
</g>
<!-- edge_statement&#45;&gt;attribute_definition -->
<g id="edge32" class="edge"><title>edge_statement&#45;&gt;attribute_definition</title>
<path fill="none" stroke="grey" d="M448.539,-311.697C446.997,-303.983 445.142,-294.712 443.422,-286.112"/>
<polygon fill="grey" stroke="grey" points="446.814,-285.224 441.421,-276.104 439.95,-286.597 446.814,-285.224"/>
</g>
<!-- edge_statement&#45;&gt;(&#39;,&#39;) -->
<g id="edge33" class="edge"><title>edge_statement&#45;&gt;(&#39;,&#39;)</title>
<path fill="none" stroke="grey" d="M422.645,-311.876C406.1,-302.225 385.307,-290.096 367.81,-279.889"/>
<polygon fill="grey" stroke="grey" points="369.402,-276.766 359,-274.75 365.875,-282.812 369.402,-276.766"/>
</g>
<!-- directed_edge -->
<g id="node23" class="node"><title>directed_edge</title>
<polygon fill="none" stroke="black" points="607,-204 515,-204 515,-168 607,-168 607,-204"/>
<text text-anchor="middle" x="561" y="-182.3" font-family="Times,serif" font-size="14.00">directed_edge</text>
</g>
<!-- edge_name&#45;&gt;directed_edge -->
<g id="edge25" class="edge"><title>edge_name&#45;&gt;directed_edge</title>
<path fill="none" stroke="grey" d="M559.494,-239.697C559.715,-231.983 559.98,-222.712 560.225,-214.112"/>
<polygon fill="grey" stroke="grey" points="563.724,-214.2 560.511,-204.104 556.727,-214 563.724,-214.2"/>
</g>
<!-- undirected_edge -->
<g id="node26" class="node"><title>undirected_edge</title>
<polygon fill="none" stroke="black" points="773.5,-204 668.5,-204 668.5,-168 773.5,-168 773.5,-204"/>
<text text-anchor="middle" x="721" y="-182.3" font-family="Times,serif" font-size="14.00">undirected_edge</text>
</g>
<!-- edge_name&#45;&gt;undirected_edge -->
<g id="edge28" class="edge"><title>edge_name&#45;&gt;undirected_edge</title>
<path fill="none" stroke="grey" d="M598.63,-239.876C620.776,-230.307 648.563,-218.3 672.058,-208.148"/>
<polygon fill="grey" stroke="grey" points="673.708,-211.248 681.499,-204.068 670.931,-204.822 673.708,-211.248"/>
</g>
<!-- before/directed_edge -->
<g id="node24" class="node"><title>before/directed_edge</title>
<polygon fill="lightblue" stroke="black" points="579.5,-85 579.5,-131 716.5,-131 716.5,-85 579.5,-85"/>
<text text-anchor="middle" x="648" y="-115.8" font-family="Times,serif" font-size="14.00">event = directed_edge</text>
<polyline fill="none" stroke="black" points="579.5,-108 716.5,-108 "/>
<text text-anchor="middle" x="648" y="-92.8" font-family="Times,serif" font-size="14.00">pause = before</text>
</g>
<!-- directed_edge&#45;&gt;before/directed_edge -->
<g id="edge26" class="edge"><title>directed_edge&#45;&gt;before/directed_edge</title>
<path fill="none" stroke="grey" d="M580.742,-167.754C590.844,-158.93 603.412,-147.951 614.94,-137.88"/>
<polygon fill="grey" stroke="grey" points="617.483,-140.306 622.712,-131.091 612.878,-135.034 617.483,-140.306"/>
</g>
<!-- &#39;&#45;&gt;&#39; -->
<g id="node25" class="node"><title>&#39;&#45;&gt;&#39;</title>
<polygon fill="none" stroke="black" points="561,-126 507,-126 507,-90 561,-90 561,-126"/>
<text text-anchor="middle" x="534" y="-104.3" font-family="Times,serif" font-size="14.00">&#39;&#45;&gt;&#39;</text>
</g>
<!-- directed_edge&#45;&gt;&#39;&#45;&gt;&#39; -->
<g id="edge27" class="edge"><title>directed_edge&#45;&gt;&#39;&#45;&gt;&#39;</title>
<path fill="none" stroke="grey" d="M554.873,-167.754C551.525,-158.329 547.303,-146.446 543.534,-135.837"/>
<polygon fill="grey" stroke="grey" points="546.748,-134.429 540.102,-126.177 540.152,-136.772 546.748,-134.429"/>
</g>
<!-- before/undirected_edge -->
<g id="node27" class="node"><title>before/undirected_edge</title>
<polygon fill="lightblue" stroke="black" points="807.5,-85 807.5,-131 958.5,-131 958.5,-85 807.5,-85"/>
<text text-anchor="middle" x="883" y="-115.8" font-family="Times,serif" font-size="14.00">event = undirected_edge</text>
<polyline fill="none" stroke="black" points="807.5,-108 958.5,-108 "/>
<text text-anchor="middle" x="883" y="-92.8" font-family="Times,serif" font-size="14.00">pause = before</text>
</g>
<!-- undirected_edge&#45;&gt;before/undirected_edge -->
<g id="edge29" class="edge"><title>undirected_edge&#45;&gt;before/undirected_edge</title>
<path fill="none" stroke="grey" d="M757.356,-167.944C777.772,-158.366 803.69,-146.207 826.677,-135.423"/>
<polygon fill="grey" stroke="grey" points="828.422,-138.47 835.989,-131.055 825.449,-132.133 828.422,-138.47"/>
</g>
<!-- &#39;&#45;&#45;&#39; -->
<g id="node28" class="node"><title>&#39;&#45;&#45;&#39;</title>
<polygon fill="none" stroke="black" points="789,-126 735,-126 735,-90 789,-90 789,-126"/>
<text text-anchor="middle" x="762" y="-104.3" font-family="Times,serif" font-size="14.00">&#39;&#45;&#45;&#39;</text>
</g>
<!-- undirected_edge&#45;&gt;&#39;&#45;&#45;&#39; -->
<g id="edge30" class="edge"><title>undirected_edge&#45;&gt;&#39;&#45;&#45;&#39;</title>
<path fill="none" stroke="grey" d="M730.304,-167.754C735.493,-158.135 742.064,-145.955 747.875,-135.182"/>
<polygon fill="grey" stroke="grey" points="751.066,-136.64 752.733,-126.177 744.905,-133.317 751.066,-136.64"/>
</g>
<!-- action = [values] -->
<g id="node30" class="node"><title>action = [values]</title>
<polygon fill="lightblue" stroke="black" points="631.25,-421 522.75,-421 522.75,-385 631.25,-385 631.25,-421"/>
<text text-anchor="middle" x="577" y="-399.3" font-family="Times,serif" font-size="14.00">action = [values]</text>
</g>
<!-- :default&#45;&gt;action = [values] -->
<g id="edge37" class="edge"><title>:default&#45;&gt;action = [values]</title>
<path fill="none" stroke="grey" d="M579.274,-457.813C578.935,-449.789 578.523,-440.047 578.144,-431.069"/>
<polygon fill="grey" stroke="grey" points="581.639,-430.872 577.72,-421.029 574.645,-431.168 581.639,-430.872"/>
</g>
<!-- whitespace -->
<g id="node32" class="node"><title>whitespace</title>
<polygon fill="lightblue" stroke="black" points="726.25,-421 649.75,-421 649.75,-385 726.25,-385 726.25,-421"/>
<text text-anchor="middle" x="688" y="-399.3" font-family="Times,serif" font-size="14.00">whitespace</text>
</g>
<!-- :discard&#45;&gt;whitespace -->
<g id="edge39" class="edge"><title>:discard&#45;&gt;whitespace</title>
<path fill="none" stroke="grey" d="M672.841,-457.813C675.126,-449.702 677.905,-439.836 680.457,-430.777"/>
<polygon fill="grey" stroke="grey" points="683.861,-431.603 683.203,-421.029 677.123,-429.705 683.861,-431.603"/>
</g>
<!-- [\\s]+ -->
<g id="node33" class="node"><title>[\\s]+</title>
<polygon fill="lightblue" stroke="black" points="715,-348 661,-348 661,-312 715,-312 715,-348"/>
<text text-anchor="middle" x="688" y="-326.3" font-family="Times,serif" font-size="14.00">[\s]+</text>
</g>
<!-- whitespace&#45;&gt;[\\s]+ -->
<g id="edge40" class="edge"><title>whitespace&#45;&gt;[\\s]+</title>
<path fill="none" stroke="grey" d="M688,-384.813C688,-376.789 688,-367.047 688,-358.069"/>
<polygon fill="grey" stroke="grey" points="691.5,-358.029 688,-348.029 684.5,-358.029 691.5,-358.029"/>
</g>
<!-- action -->
<g id="node35" class="node"><title>action</title>
<polygon fill="lightblue" stroke="black" points="800,-421 746,-421 746,-385 800,-385 800,-421"/>
<text text-anchor="middle" x="773" y="-399.3" font-family="Times,serif" font-size="14.00">action</text>
</g>
<!-- lexeme default&#45;&gt;action -->
<g id="edge42" class="edge"><title>lexeme default&#45;&gt;action</title>
<path fill="none" stroke="grey" d="M770.726,-457.813C771.065,-449.789 771.477,-440.047 771.856,-431.069"/>
<polygon fill="grey" stroke="grey" points="775.355,-431.168 772.28,-421.029 768.361,-430.872 775.355,-431.168"/>
</g>
<!-- =&gt; -->
<g id="node36" class="node"><title>=&gt;</title>
<polygon fill="lightblue" stroke="black" points="804,-348 750,-348 750,-312 804,-312 804,-348"/>
<text text-anchor="middle" x="777" y="-326.3" font-family="Times,serif" font-size="14.00">=&gt;</text>
</g>
<!-- action&#45;&gt;=&gt; -->
<g id="edge43" class="edge"><title>action&#45;&gt;=&gt;</title>
<path fill="none" stroke="grey" d="M773.968,-384.813C774.42,-376.789 774.969,-367.047 775.475,-358.069"/>
<polygon fill="grey" stroke="grey" points="778.973,-358.21 776.041,-348.029 771.984,-357.816 778.973,-358.21"/>
</g>
<!-- [start,length,value] -->
<g id="node37" class="node"><title>[start,length,value]</title>
<polygon fill="lightblue" stroke="black" points="878.25,-276 759.75,-276 759.75,-240 878.25,-240 878.25,-276"/>
<text text-anchor="middle" x="819" y="-254.3" font-family="Times,serif" font-size="14.00">[start,length,value]</text>
</g>
<!-- =&gt;&#45;&gt;[start,length,value] -->
<g id="edge44" class="edge"><title>=&gt;&#45;&gt;[start,length,value]</title>
<path fill="none" stroke="grey" d="M787.382,-311.697C792.265,-303.559 798.187,-293.689 803.579,-284.701"/>
<polygon fill="grey" stroke="grey" points="806.594,-286.48 808.737,-276.104 800.591,-282.879 806.594,-286.48"/>
</g>
<!-- ::name -->
<g id="node39" class="node"><title>::name</title>
<polygon fill="lightblue" stroke="black" points="951,-276 897,-276 897,-240 951,-240 951,-276"/>
<text text-anchor="middle" x="924" y="-254.3" font-family="Times,serif" font-size="14.00">::name</text>
</g>
<!-- =&gt;&#45;&gt;::name -->
<g id="edge47" class="edge"><title>=&gt;&#45;&gt;::name</title>
<path fill="none" stroke="grey" d="M804.305,-315.998C827.821,-304.8 861.946,-288.55 887.747,-276.263"/>
<polygon fill="grey" stroke="grey" points="889.317,-279.392 896.841,-271.933 886.308,-273.072 889.317,-279.392"/>
</g>
<!-- bless -->
<g id="node38" class="node"><title>bless</title>
<polygon fill="lightblue" stroke="black" points="846,-204 792,-204 792,-168 846,-168 846,-204"/>
<text text-anchor="middle" x="819" y="-182.3" font-family="Times,serif" font-size="14.00">bless</text>
</g>
<!-- [start,length,value]&#45;&gt;bless -->
<g id="edge45" class="edge"><title>[start,length,value]&#45;&gt;bless</title>
<path fill="none" stroke="grey" d="M819,-239.697C819,-231.983 819,-222.712 819,-214.112"/>
<polygon fill="grey" stroke="grey" points="822.5,-214.104 819,-204.104 815.5,-214.104 822.5,-214.104"/>
</g>
<!-- bless&#45;&gt;=&gt; -->
<g id="edge46" class="edge"><title>bless&#45;&gt;=&gt;</title>
<path fill="none" stroke="grey" d="M791.655,-200.38C776.675,-209.328 759.474,-222.651 751,-240 741.088,-260.293 749.849,-285.073 759.793,-303.329"/>
<polygon fill="grey" stroke="grey" points="756.779,-305.107 764.851,-311.969 762.82,-301.571 756.779,-305.107"/>
</g>
</g>
</svg>
