<?xml version="1.0" encoding="UTF-8" standalone="no"?>
<!DOCTYPE svg PUBLIC "-//W3C//DTD SVG 1.1//EN"
 "http://www.w3.org/Graphics/SVG/1.1/DTD/svg11.dtd">
<!-- Generated by graphviz version 2.30.1 (20130611.0131)
 -->
<!-- Title: Perl Pages: 1 -->
<svg width="124pt" height="225pt"
 viewBox="0.00 0.00 124.00 225.00" xmlns="http://www.w3.org/2000/svg" xmlns:xlink="http://www.w3.org/1999/xlink">
<g id="graph0" class="graph" transform="scale(1 1) rotate(0) translate(4 221)">
<title>Perl</title>
<polygon fill="white" stroke="white" points="-4,5 -4,-221 121,-221 121,5 -4,5"/>
<text text-anchor="middle" x="58" y="-7.8" font-family="Times,serif" font-size="14.00">termcap.info.bnf</text>
<!-- units -->
<g id="node1" class="node"><title>units</title>
<path fill="lightgreen" stroke="black" d="M43,-170C43,-170 73,-170 73,-170 79,-170 85,-176 85,-182 85,-182 85,-204 85,-204 85,-210 79,-216 73,-216 73,-216 43,-216 43,-216 37,-216 31,-210 31,-204 31,-204 31,-182 31,-182 31,-176 37,-170 43,-170"/>
<text text-anchor="middle" x="58" y="-200.8" font-family="Times,serif" font-size="14.00">:start</text>
<polyline fill="none" stroke="black" points="31,-193 85,-193 "/>
<text text-anchor="middle" x="58" y="-177.8" font-family="Times,serif" font-size="14.00">units</text>
</g>
<!-- ꞉default -->
<g id="node2" class="node"><title>꞉default</title>
<polygon fill="lightblue" stroke="black" points="86.5,-133 29.5,-133 29.5,-97 86.5,-97 86.5,-133"/>
<text text-anchor="middle" x="58" y="-111.3" font-family="Times,serif" font-size="14.00">꞉default</text>
</g>
<!-- units&#45;&gt;꞉default -->
<g id="edge1" class="edge"><title>units&#45;&gt;꞉default</title>
<path fill="none" stroke="grey" d="M58,-169.609C58,-161.481 58,-152.2 58,-143.671"/>
<polygon fill="grey" stroke="grey" points="61.5001,-143.412 58,-133.412 54.5001,-143.412 61.5001,-143.412"/>
</g>
<!-- ꞉default_1 -->
<g id="node3" class="node"><title>꞉default_1</title>
<path fill="lightblue" stroke="black" d="M11.5,-24C11.5,-24 104.5,-24 104.5,-24 110.5,-24 116.5,-30 116.5,-36 116.5,-36 116.5,-48 116.5,-48 116.5,-54 110.5,-60 104.5,-60 104.5,-60 11.5,-60 11.5,-60 5.5,-60 -0.5,-54 -0.5,-48 -0.5,-48 -0.5,-36 -0.5,-36 -0.5,-30 5.5,-24 11.5,-24"/>
<text text-anchor="middle" x="58" y="-38.3" font-family="Times,serif" font-size="14.00">action =&gt; [values]</text>
</g>
<!-- ꞉default&#45;&gt;꞉default_1 -->
<g id="edge2" class="edge"><title>꞉default&#45;&gt;꞉default_1</title>
<path fill="none" stroke="grey" d="M58,-96.8129C58,-88.7895 58,-79.0475 58,-70.0691"/>
<polygon fill="grey" stroke="grey" points="61.5001,-70.0288 58,-60.0288 54.5001,-70.0289 61.5001,-70.0288"/>
</g>
</g>
</svg>
