<?xml version="1.0" encoding="UTF-8" standalone="no"?>
<!DOCTYPE svg PUBLIC "-//W3C//DTD SVG 1.1//EN"
 "http://www.w3.org/Graphics/SVG/1.1/DTD/svg11.dtd">
<!-- Generated by graphviz version 2.30.1 (20130611.0131)
 -->
<!-- Title: Perl Pages: 1 -->
<svg width="6887pt" height="225pt"
 viewBox="0.00 0.00 6887.00 225.00" xmlns="http://www.w3.org/2000/svg" xmlns:xlink="http://www.w3.org/1999/xlink">
<g id="graph0" class="graph" transform="scale(1 1) rotate(0) translate(4 221)">
<title>Perl</title>
<polygon fill="white" stroke="white" points="-4,5 -4,-221 6884,-221 6884,5 -4,5"/>
<text text-anchor="middle" x="3439.5" y="-7.8" font-family="Times,serif" font-size="14.00">termcap.info.bnf</text>
<!-- units -->
<g id="node1" class="node"><title>units</title>
<path fill="lightgreen" stroke="black" d="M43,-170C43,-170 73,-170 73,-170 79,-170 85,-176 85,-182 85,-182 85,-204 85,-204 85,-210 79,-216 73,-216 73,-216 43,-216 43,-216 37,-216 31,-210 31,-204 31,-204 31,-182 31,-182 31,-176 37,-170 43,-170"/>
<text text-anchor="middle" x="58" y="-200.8" font-family="Times,serif" font-size="14.00">:start</text>
<polyline fill="none" stroke="black" points="31,-193 85,-193 "/>
<text text-anchor="middle" x="58" y="-177.8" font-family="Times,serif" font-size="14.00">units</text>
</g>
<!-- ꞉default -->
<g id="node2" class="node"><title>꞉default</title>
<polygon fill="lightblue" stroke="black" points="86.5,-133 29.5,-133 29.5,-97 86.5,-97 86.5,-133"/>
<text text-anchor="middle" x="58" y="-111.3" font-family="Times,serif" font-size="14.00">꞉default</text>
</g>
<!-- units&#45;&gt;꞉default -->
<g id="edge1" class="edge"><title>units&#45;&gt;꞉default</title>
<path fill="none" stroke="grey" d="M58,-169.609C58,-161.481 58,-152.2 58,-143.671"/>
<polygon fill="grey" stroke="grey" points="61.5001,-143.412 58,-133.412 54.5001,-143.412 61.5001,-143.412"/>
</g>
<!-- ꞉default_1 -->
<g id="node3" class="node"><title>꞉default_1</title>
<path fill="lightblue" stroke="black" d="M11.5,-24C11.5,-24 104.5,-24 104.5,-24 110.5,-24 116.5,-30 116.5,-36 116.5,-36 116.5,-48 116.5,-48 116.5,-54 110.5,-60 104.5,-60 104.5,-60 11.5,-60 11.5,-60 5.5,-60 -0.5,-54 -0.5,-48 -0.5,-48 -0.5,-36 -0.5,-36 -0.5,-30 5.5,-24 11.5,-24"/>
<text text-anchor="middle" x="58" y="-38.3" font-family="Times,serif" font-size="14.00">action =&gt; [values]</text>
</g>
<!-- ꞉default&#45;&gt;꞉default_1 -->
<g id="edge2" class="edge"><title>꞉default&#45;&gt;꞉default_1</title>
<path fill="none" stroke="grey" d="M58,-96.8129C58,-88.7895 58,-79.0475 58,-70.0691"/>
<polygon fill="grey" stroke="grey" points="61.5001,-70.0288 58,-60.0288 54.5001,-70.0289 61.5001,-70.0288"/>
</g>
<!-- unit -->
<g id="node4" class="node"><title>unit</title>
<polygon fill="white" stroke="black" points="157,-211 103,-211 103,-175 157,-175 157,-211"/>
<text text-anchor="middle" x="130" y="-189.3" font-family="Times,serif" font-size="14.00">unit</text>
</g>
<!-- elifUnit -->
<g id="node5" class="node"><title>elifUnit</title>
<polygon fill="white" stroke="black" points="234.25,-211 175.75,-211 175.75,-175 234.25,-175 234.25,-211"/>
<text text-anchor="middle" x="205" y="-189.3" font-family="Times,serif" font-size="14.00">elifUnit</text>
</g>
<!-- elifUnits -->
<g id="node6" class="node"><title>elifUnits</title>
<polygon fill="white" stroke="black" points="317,-211 253,-211 253,-175 317,-175 317,-211"/>
<text text-anchor="middle" x="285" y="-189.3" font-family="Times,serif" font-size="14.00">elifUnits</text>
</g>
<!-- _CONST -->
<g id="node7" class="node"><title>_CONST</title>
<polygon fill="white" stroke="black" points="403,-211 335,-211 335,-175 403,-175 403,-211"/>
<text text-anchor="middle" x="369" y="-189.3" font-family="Times,serif" font-size="14.00">_CONST</text>
</g>
<!-- _DIGITS -->
<g id="node8" class="node"><title>_DIGITS</title>
<polygon fill="white" stroke="black" points="489,-211 421,-211 421,-175 489,-175 489,-211"/>
<text text-anchor="middle" x="455" y="-189.3" font-family="Times,serif" font-size="14.00">_DIGITS</text>
</g>
<!-- _DIGIT -->
<g id="node9" class="node"><title>_DIGIT</title>
<polygon fill="white" stroke="black" points="566.5,-211 507.5,-211 507.5,-175 566.5,-175 566.5,-211"/>
<text text-anchor="middle" x="537" y="-189.3" font-family="Times,serif" font-size="14.00">_DIGIT</text>
</g>
<!-- _LCHAR -->
<g id="node10" class="node"><title>_LCHAR</title>
<polygon fill="white" stroke="black" points="654.25,-211 585.75,-211 585.75,-175 654.25,-175 654.25,-211"/>
<text text-anchor="middle" x="620" y="-189.3" font-family="Times,serif" font-size="14.00">_LCHAR</text>
</g>
<!-- _UCHAR -->
<g id="node11" class="node"><title>_UCHAR</title>
<polygon fill="white" stroke="black" points="743.25,-211 672.75,-211 672.75,-175 743.25,-175 743.25,-211"/>
<text text-anchor="middle" x="708" y="-189.3" font-family="Times,serif" font-size="14.00">_UCHAR</text>
</g>
<!-- _PERCENT -->
<g id="node12" class="node"><title>_PERCENT</title>
<polygon fill="white" stroke="black" points="844.25,-211 761.75,-211 761.75,-175 844.25,-175 844.25,-211"/>
<text text-anchor="middle" x="803" y="-189.3" font-family="Times,serif" font-size="14.00">_PERCENT</text>
</g>
<!-- PERCENT -->
<g id="node13" class="node"><title>PERCENT</title>
<polygon fill="white" stroke="black" points="939.25,-211 862.75,-211 862.75,-175 939.25,-175 939.25,-211"/>
<text text-anchor="middle" x="901" y="-189.3" font-family="Times,serif" font-size="14.00">PERCENT</text>
</g>
<!-- _C -->
<g id="node14" class="node"><title>_C</title>
<polygon fill="white" stroke="black" points="1012,-211 958,-211 958,-175 1012,-175 1012,-211"/>
<text text-anchor="middle" x="985" y="-189.3" font-family="Times,serif" font-size="14.00">_C</text>
</g>
<!-- C -->
<g id="node15" class="node"><title>C</title>
<polygon fill="white" stroke="black" points="1084,-211 1030,-211 1030,-175 1084,-175 1084,-211"/>
<text text-anchor="middle" x="1057" y="-189.3" font-family="Times,serif" font-size="14.00">C</text>
</g>
<!-- _COLON -->
<g id="node16" class="node"><title>_COLON</title>
<polygon fill="white" stroke="black" points="1172,-211 1102,-211 1102,-175 1172,-175 1172,-211"/>
<text text-anchor="middle" x="1137" y="-189.3" font-family="Times,serif" font-size="14.00">_COLON</text>
</g>
<!-- _DOT -->
<g id="node17" class="node"><title>_DOT</title>
<polygon fill="white" stroke="black" points="1244,-211 1190,-211 1190,-175 1244,-175 1244,-211"/>
<text text-anchor="middle" x="1217" y="-189.3" font-family="Times,serif" font-size="14.00">_DOT</text>
</g>
<!-- __FLAGS -->
<g id="node18" class="node"><title>__FLAGS</title>
<polygon fill="white" stroke="black" points="1335.25,-211 1262.75,-211 1262.75,-175 1335.25,-175 1335.25,-211"/>
<text text-anchor="middle" x="1299" y="-189.3" font-family="Times,serif" font-size="14.00">__FLAGS</text>
</g>
<!-- _FLAGS -->
<g id="node19" class="node"><title>_FLAGS</title>
<polygon fill="white" stroke="black" points="1420,-211 1354,-211 1354,-175 1420,-175 1420,-211"/>
<text text-anchor="middle" x="1387" y="-189.3" font-family="Times,serif" font-size="14.00">_FLAGS</text>
</g>
<!-- _FORMAT -->
<g id="node20" class="node"><title>_FORMAT</title>
<polygon fill="white" stroke="black" points="1518,-211 1438,-211 1438,-175 1518,-175 1518,-211"/>
<text text-anchor="middle" x="1478" y="-189.3" font-family="Times,serif" font-size="14.00">_FORMAT</text>
</g>
<!-- PRINT -->
<g id="node21" class="node"><title>PRINT</title>
<polygon fill="white" stroke="black" points="1591.5,-211 1536.5,-211 1536.5,-175 1591.5,-175 1591.5,-211"/>
<text text-anchor="middle" x="1564" y="-189.3" font-family="Times,serif" font-size="14.00">PRINT</text>
</g>
<!-- PUSH -->
<g id="node22" class="node"><title>PUSH</title>
<polygon fill="white" stroke="black" points="1664,-211 1610,-211 1610,-175 1664,-175 1664,-211"/>
<text text-anchor="middle" x="1637" y="-189.3" font-family="Times,serif" font-size="14.00">PUSH</text>
</g>
<!-- DYNPOP -->
<g id="node23" class="node"><title>DYNPOP</title>
<polygon fill="white" stroke="black" points="1753.25,-211 1682.75,-211 1682.75,-175 1753.25,-175 1753.25,-211"/>
<text text-anchor="middle" x="1718" y="-189.3" font-family="Times,serif" font-size="14.00">DYNPOP</text>
</g>
<!-- DYNPUSH -->
<g id="node24" class="node"><title>DYNPUSH</title>
<polygon fill="white" stroke="black" points="1852,-211 1772,-211 1772,-175 1852,-175 1852,-211"/>
<text text-anchor="middle" x="1812" y="-189.3" font-family="Times,serif" font-size="14.00">DYNPUSH</text>
</g>
<!-- STATICPOP -->
<g id="node25" class="node"><title>STATICPOP</title>
<polygon fill="white" stroke="black" points="1959.25,-211 1870.75,-211 1870.75,-175 1959.25,-175 1959.25,-211"/>
<text text-anchor="middle" x="1915" y="-189.3" font-family="Times,serif" font-size="14.00">STATICPOP</text>
</g>
<!-- STATICPUSH -->
<g id="node26" class="node"><title>STATICPUSH</title>
<polygon fill="white" stroke="black" points="2074.5,-211 1977.5,-211 1977.5,-175 2074.5,-175 2074.5,-211"/>
<text text-anchor="middle" x="2026" y="-189.3" font-family="Times,serif" font-size="14.00">STATICPUSH</text>
</g>
<!-- L -->
<g id="node27" class="node"><title>L</title>
<polygon fill="white" stroke="black" points="2147,-211 2093,-211 2093,-175 2147,-175 2147,-211"/>
<text text-anchor="middle" x="2120" y="-189.3" font-family="Times,serif" font-size="14.00">L</text>
</g>
<!-- _SQUOTE -->
<g id="node28" class="node"><title>_SQUOTE</title>
<polygon fill="white" stroke="black" points="2242.25,-211 2165.75,-211 2165.75,-175 2242.25,-175 2242.25,-211"/>
<text text-anchor="middle" x="2204" y="-189.3" font-family="Times,serif" font-size="14.00">_SQUOTE</text>
</g>
<!-- PUSHCONST -->
<g id="node29" class="node"><title>PUSHCONST</title>
<polygon fill="white" stroke="black" points="2355.25,-211 2260.75,-211 2260.75,-175 2355.25,-175 2355.25,-211"/>
<text text-anchor="middle" x="2308" y="-189.3" font-family="Times,serif" font-size="14.00">PUSHCONST</text>
</g>
<!-- _LCURLY -->
<g id="node30" class="node"><title>_LCURLY</title>
<polygon fill="white" stroke="black" points="2450.25,-211 2373.75,-211 2373.75,-175 2450.25,-175 2450.25,-211"/>
<text text-anchor="middle" x="2412" y="-189.3" font-family="Times,serif" font-size="14.00">_LCURLY</text>
</g>
<!-- _RCURLY -->
<g id="node31" class="node"><title>_RCURLY</title>
<polygon fill="white" stroke="black" points="2547,-211 2469,-211 2469,-175 2547,-175 2547,-211"/>
<text text-anchor="middle" x="2508" y="-189.3" font-family="Times,serif" font-size="14.00">_RCURLY</text>
</g>
<!-- PUSHINT -->
<g id="node32" class="node"><title>PUSHINT</title>
<polygon fill="white" stroke="black" points="2639,-211 2565,-211 2565,-175 2639,-175 2639,-211"/>
<text text-anchor="middle" x="2602" y="-189.3" font-family="Times,serif" font-size="14.00">PUSHINT</text>
</g>
<!-- _PLUS -->
<g id="node33" class="node"><title>_PLUS</title>
<polygon fill="white" stroke="black" points="2712.5,-211 2657.5,-211 2657.5,-175 2712.5,-175 2712.5,-211"/>
<text text-anchor="middle" x="2685" y="-189.3" font-family="Times,serif" font-size="14.00">_PLUS</text>
</g>
<!-- PLUS -->
<g id="node34" class="node"><title>PLUS</title>
<polygon fill="white" stroke="black" points="2785,-211 2731,-211 2731,-175 2785,-175 2785,-211"/>
<text text-anchor="middle" x="2758" y="-189.3" font-family="Times,serif" font-size="14.00">PLUS</text>
</g>
<!-- _MINUS -->
<g id="node35" class="node"><title>_MINUS</title>
<polygon fill="white" stroke="black" points="2871,-211 2803,-211 2803,-175 2871,-175 2871,-211"/>
<text text-anchor="middle" x="2837" y="-189.3" font-family="Times,serif" font-size="14.00">_MINUS</text>
</g>
<!-- MINUS -->
<g id="node36" class="node"><title>MINUS</title>
<polygon fill="white" stroke="black" points="2950.25,-211 2889.75,-211 2889.75,-175 2950.25,-175 2950.25,-211"/>
<text text-anchor="middle" x="2920" y="-189.3" font-family="Times,serif" font-size="14.00">MINUS</text>
</g>
<!-- _STAR -->
<g id="node37" class="node"><title>_STAR</title>
<polygon fill="white" stroke="black" points="3026.5,-211 2969.5,-211 2969.5,-175 3026.5,-175 3026.5,-211"/>
<text text-anchor="middle" x="2998" y="-189.3" font-family="Times,serif" font-size="14.00">_STAR</text>
</g>
<!-- STAR -->
<g id="node38" class="node"><title>STAR</title>
<polygon fill="white" stroke="black" points="3099,-211 3045,-211 3045,-175 3099,-175 3099,-211"/>
<text text-anchor="middle" x="3072" y="-189.3" font-family="Times,serif" font-size="14.00">STAR</text>
</g>
<!-- _DIV -->
<g id="node39" class="node"><title>_DIV</title>
<polygon fill="white" stroke="black" points="3171,-211 3117,-211 3117,-175 3171,-175 3171,-211"/>
<text text-anchor="middle" x="3144" y="-189.3" font-family="Times,serif" font-size="14.00">_DIV</text>
</g>
<!-- DIV -->
<g id="node40" class="node"><title>DIV</title>
<polygon fill="white" stroke="black" points="3243,-211 3189,-211 3189,-175 3243,-175 3243,-211"/>
<text text-anchor="middle" x="3216" y="-189.3" font-family="Times,serif" font-size="14.00">DIV</text>
</g>
<!-- _MOD -->
<g id="node41" class="node"><title>_MOD</title>
<polygon fill="white" stroke="black" points="3316.5,-211 3261.5,-211 3261.5,-175 3316.5,-175 3316.5,-211"/>
<text text-anchor="middle" x="3289" y="-189.3" font-family="Times,serif" font-size="14.00">_MOD</text>
</g>
<!-- MOD -->
<g id="node42" class="node"><title>MOD</title>
<polygon fill="white" stroke="black" points="3389,-211 3335,-211 3335,-175 3389,-175 3389,-211"/>
<text text-anchor="middle" x="3362" y="-189.3" font-family="Times,serif" font-size="14.00">MOD</text>
</g>
<!-- _BITAND -->
<g id="node43" class="node"><title>_BITAND</title>
<polygon fill="white" stroke="black" points="3481,-211 3407,-211 3407,-175 3481,-175 3481,-211"/>
<text text-anchor="middle" x="3444" y="-189.3" font-family="Times,serif" font-size="14.00">_BITAND</text>
</g>
<!-- BITAND -->
<g id="node44" class="node"><title>BITAND</title>
<polygon fill="white" stroke="black" points="3567,-211 3499,-211 3499,-175 3567,-175 3567,-211"/>
<text text-anchor="middle" x="3533" y="-189.3" font-family="Times,serif" font-size="14.00">BITAND</text>
</g>
<!-- _BITOR -->
<g id="node45" class="node"><title>_BITOR</title>
<polygon fill="white" stroke="black" points="3649,-211 3585,-211 3585,-175 3649,-175 3649,-211"/>
<text text-anchor="middle" x="3617" y="-189.3" font-family="Times,serif" font-size="14.00">_BITOR</text>
</g>
<!-- BITOR -->
<g id="node46" class="node"><title>BITOR</title>
<polygon fill="white" stroke="black" points="3724.25,-211 3667.75,-211 3667.75,-175 3724.25,-175 3724.25,-211"/>
<text text-anchor="middle" x="3696" y="-189.3" font-family="Times,serif" font-size="14.00">BITOR</text>
</g>
<!-- _BITXOR -->
<g id="node47" class="node"><title>_BITXOR</title>
<polygon fill="white" stroke="black" points="3817,-211 3743,-211 3743,-175 3817,-175 3817,-211"/>
<text text-anchor="middle" x="3780" y="-189.3" font-family="Times,serif" font-size="14.00">_BITXOR</text>
</g>
<!-- BITXOR -->
<g id="node48" class="node"><title>BITXOR</title>
<polygon fill="white" stroke="black" points="3902.25,-211 3835.75,-211 3835.75,-175 3902.25,-175 3902.25,-211"/>
<text text-anchor="middle" x="3869" y="-189.3" font-family="Times,serif" font-size="14.00">BITXOR</text>
</g>
<!-- _EQUAL -->
<g id="node49" class="node"><title>_EQUAL</title>
<polygon fill="white" stroke="black" points="3989.25,-211 3920.75,-211 3920.75,-175 3989.25,-175 3989.25,-211"/>
<text text-anchor="middle" x="3955" y="-189.3" font-family="Times,serif" font-size="14.00">_EQUAL</text>
</g>
<!-- EQUAL -->
<g id="node50" class="node"><title>EQUAL</title>
<polygon fill="white" stroke="black" points="4069.5,-211 4008.5,-211 4008.5,-175 4069.5,-175 4069.5,-211"/>
<text text-anchor="middle" x="4039" y="-189.3" font-family="Times,serif" font-size="14.00">EQUAL</text>
</g>
<!-- _GREATER -->
<g id="node51" class="node"><title>_GREATER</title>
<polygon fill="white" stroke="black" points="4174,-211 4088,-211 4088,-175 4174,-175 4174,-211"/>
<text text-anchor="middle" x="4131" y="-189.3" font-family="Times,serif" font-size="14.00">_GREATER</text>
</g>
<!-- GREATER -->
<g id="node52" class="node"><title>GREATER</title>
<polygon fill="white" stroke="black" points="4271.25,-211 4192.75,-211 4192.75,-175 4271.25,-175 4271.25,-211"/>
<text text-anchor="middle" x="4232" y="-189.3" font-family="Times,serif" font-size="14.00">GREATER</text>
</g>
<!-- _LOWER -->
<g id="node53" class="node"><title>_LOWER</title>
<polygon fill="white" stroke="black" points="4362,-211 4290,-211 4290,-175 4362,-175 4362,-211"/>
<text text-anchor="middle" x="4326" y="-189.3" font-family="Times,serif" font-size="14.00">_LOWER</text>
</g>
<!-- LOWER -->
<g id="node54" class="node"><title>LOWER</title>
<polygon fill="white" stroke="black" points="4445.25,-211 4380.75,-211 4380.75,-175 4445.25,-175 4445.25,-211"/>
<text text-anchor="middle" x="4413" y="-189.3" font-family="Times,serif" font-size="14.00">LOWER</text>
</g>
<!-- _AND -->
<g id="node55" class="node"><title>_AND</title>
<polygon fill="white" stroke="black" points="4518,-211 4464,-211 4464,-175 4518,-175 4518,-211"/>
<text text-anchor="middle" x="4491" y="-189.3" font-family="Times,serif" font-size="14.00">_AND</text>
</g>
<!-- AND -->
<g id="node56" class="node"><title>AND</title>
<polygon fill="white" stroke="black" points="4590,-211 4536,-211 4536,-175 4590,-175 4590,-211"/>
<text text-anchor="middle" x="4563" y="-189.3" font-family="Times,serif" font-size="14.00">AND</text>
</g>
<!-- _OR -->
<g id="node57" class="node"><title>_OR</title>
<polygon fill="white" stroke="black" points="4662,-211 4608,-211 4608,-175 4662,-175 4662,-211"/>
<text text-anchor="middle" x="4635" y="-189.3" font-family="Times,serif" font-size="14.00">_OR</text>
</g>
<!-- OR -->
<g id="node58" class="node"><title>OR</title>
<polygon fill="white" stroke="black" points="4734,-211 4680,-211 4680,-175 4734,-175 4734,-211"/>
<text text-anchor="middle" x="4707" y="-189.3" font-family="Times,serif" font-size="14.00">OR</text>
</g>
<!-- _NOT -->
<g id="node59" class="node"><title>_NOT</title>
<polygon fill="white" stroke="black" points="4806,-211 4752,-211 4752,-175 4806,-175 4806,-211"/>
<text text-anchor="middle" x="4779" y="-189.3" font-family="Times,serif" font-size="14.00">_NOT</text>
</g>
<!-- NOT -->
<g id="node60" class="node"><title>NOT</title>
<polygon fill="white" stroke="black" points="4878,-211 4824,-211 4824,-175 4878,-175 4878,-211"/>
<text text-anchor="middle" x="4851" y="-189.3" font-family="Times,serif" font-size="14.00">NOT</text>
</g>
<!-- _COMPLEMENT -->
<g id="node61" class="node"><title>_COMPLEMENT</title>
<polygon fill="white" stroke="black" points="5014,-211 4896,-211 4896,-175 5014,-175 5014,-211"/>
<text text-anchor="middle" x="4955" y="-189.3" font-family="Times,serif" font-size="14.00">_COMPLEMENT</text>
</g>
<!-- COMPLEMENT -->
<g id="node62" class="node"><title>COMPLEMENT</title>
<polygon fill="white" stroke="black" points="5143.25,-211 5032.75,-211 5032.75,-175 5143.25,-175 5143.25,-211"/>
<text text-anchor="middle" x="5088" y="-189.3" font-family="Times,serif" font-size="14.00">COMPLEMENT</text>
</g>
<!-- _ADDONE -->
<g id="node63" class="node"><title>_ADDONE</title>
<polygon fill="white" stroke="black" points="5242,-211 5162,-211 5162,-175 5242,-175 5242,-211"/>
<text text-anchor="middle" x="5202" y="-189.3" font-family="Times,serif" font-size="14.00">_ADDONE</text>
</g>
<!-- ADDONE -->
<g id="node64" class="node"><title>ADDONE</title>
<polygon fill="white" stroke="black" points="5334,-211 5260,-211 5260,-175 5334,-175 5334,-211"/>
<text text-anchor="middle" x="5297" y="-189.3" font-family="Times,serif" font-size="14.00">ADDONE</text>
</g>
<!-- _IF -->
<g id="node65" class="node"><title>_IF</title>
<polygon fill="white" stroke="black" points="5406,-211 5352,-211 5352,-175 5406,-175 5406,-211"/>
<text text-anchor="middle" x="5379" y="-189.3" font-family="Times,serif" font-size="14.00">_IF</text>
</g>
<!-- IF -->
<g id="node66" class="node"><title>IF</title>
<polygon fill="white" stroke="black" points="5478,-211 5424,-211 5424,-175 5478,-175 5478,-211"/>
<text text-anchor="middle" x="5451" y="-189.3" font-family="Times,serif" font-size="14.00">IF</text>
</g>
<!-- _THEN -->
<g id="node67" class="node"><title>_THEN</title>
<polygon fill="white" stroke="black" points="5555.25,-211 5496.75,-211 5496.75,-175 5555.25,-175 5555.25,-211"/>
<text text-anchor="middle" x="5526" y="-189.3" font-family="Times,serif" font-size="14.00">_THEN</text>
</g>
<!-- THEN -->
<g id="node68" class="node"><title>THEN</title>
<polygon fill="white" stroke="black" points="5628,-211 5574,-211 5574,-175 5628,-175 5628,-211"/>
<text text-anchor="middle" x="5601" y="-189.3" font-family="Times,serif" font-size="14.00">THEN</text>
</g>
<!-- _ELSE -->
<g id="node69" class="node"><title>_ELSE</title>
<polygon fill="white" stroke="black" points="5701.5,-211 5646.5,-211 5646.5,-175 5701.5,-175 5701.5,-211"/>
<text text-anchor="middle" x="5674" y="-189.3" font-family="Times,serif" font-size="14.00">_ELSE</text>
</g>
<!-- ELSE -->
<g id="node70" class="node"><title>ELSE</title>
<polygon fill="white" stroke="black" points="5774,-211 5720,-211 5720,-175 5774,-175 5774,-211"/>
<text text-anchor="middle" x="5747" y="-189.3" font-family="Times,serif" font-size="14.00">ELSE</text>
</g>
<!-- _ENDIF -->
<g id="node71" class="node"><title>_ENDIF</title>
<polygon fill="white" stroke="black" points="5855.25,-211 5792.75,-211 5792.75,-175 5855.25,-175 5855.25,-211"/>
<text text-anchor="middle" x="5824" y="-189.3" font-family="Times,serif" font-size="14.00">_ENDIF</text>
</g>
<!-- ENDIF -->
<g id="node72" class="node"><title>ENDIF</title>
<polygon fill="white" stroke="black" points="5929.5,-211 5874.5,-211 5874.5,-175 5929.5,-175 5929.5,-211"/>
<text text-anchor="middle" x="5902" y="-189.3" font-family="Times,serif" font-size="14.00">ENDIF</text>
</g>
<!-- _EOF -->
<g id="node73" class="node"><title>_EOF</title>
<polygon fill="white" stroke="black" points="6002,-211 5948,-211 5948,-175 6002,-175 6002,-211"/>
<text text-anchor="middle" x="5975" y="-189.3" font-family="Times,serif" font-size="14.00">_EOF</text>
</g>
<!-- _CARET -->
<g id="node74" class="node"><title>_CARET</title>
<polygon fill="white" stroke="black" points="6088,-211 6020,-211 6020,-175 6088,-175 6088,-211"/>
<text text-anchor="middle" x="6054" y="-189.3" font-family="Times,serif" font-size="14.00">_CARET</text>
</g>
<!-- _BS -->
<g id="node75" class="node"><title>_BS</title>
<polygon fill="white" stroke="black" points="6160,-211 6106,-211 6106,-175 6160,-175 6160,-211"/>
<text text-anchor="middle" x="6133" y="-189.3" font-family="Times,serif" font-size="14.00">_BS</text>
</g>
<!-- _ALLOWED_BS -->
<g id="node76" class="node"><title>_ALLOWED_BS</title>
<polygon fill="white" stroke="black" points="6292,-211 6178,-211 6178,-175 6292,-175 6292,-211"/>
<text text-anchor="middle" x="6235" y="-189.3" font-family="Times,serif" font-size="14.00">_ALLOWED_BS</text>
</g>
<!-- _C0_AND_DEL -->
<g id="node77" class="node"><title>_C0_AND_DEL</title>
<polygon fill="white" stroke="black" points="6418,-211 6310,-211 6310,-175 6418,-175 6418,-211"/>
<text text-anchor="middle" x="6364" y="-189.3" font-family="Times,serif" font-size="14.00">_C0_AND_DEL</text>
</g>
<!-- ESCAPED_CHARACTER -->
<g id="node78" class="node"><title>ESCAPED_CHARACTER</title>
<polygon fill="white" stroke="black" points="6601.25,-211 6436.75,-211 6436.75,-175 6601.25,-175 6601.25,-211"/>
<text text-anchor="middle" x="6519" y="-189.3" font-family="Times,serif" font-size="14.00">ESCAPED_CHARACTER</text>
</g>
<!-- INISPRINTEXCEPTCOMMA -->
<g id="node79" class="node"><title>INISPRINTEXCEPTCOMMA</title>
<polygon fill="white" stroke="black" points="6806.25,-211 6619.75,-211 6619.75,-175 6806.25,-175 6806.25,-211"/>
<text text-anchor="middle" x="6713" y="-189.3" font-family="Times,serif" font-size="14.00">INISPRINTEXCEPTCOMMA</text>
</g>
<!-- EOF -->
<g id="node80" class="node"><title>EOF</title>
<polygon fill="white" stroke="black" points="6879,-211 6825,-211 6825,-175 6879,-175 6879,-211"/>
<text text-anchor="middle" x="6852" y="-189.3" font-family="Times,serif" font-size="14.00">EOF</text>
</g>
</g>
</svg>
