<?xml version="1.0" encoding="UTF-8" standalone="no"?>
<!DOCTYPE svg PUBLIC "-//W3C//DTD SVG 1.1//EN"
 "http://www.w3.org/Graphics/SVG/1.1/DTD/svg11.dtd">
<!-- Generated by graphviz version 2.38.0 (20140413.2041)
 -->
<!-- Title: Perl Pages: 1 -->
<svg width="451pt" height="230pt"
 viewBox="0.00 0.00 451.00 230.00" xmlns="http://www.w3.org/2000/svg" xmlns:xlink="http://www.w3.org/1999/xlink">
<g id="graph0" class="graph" transform="scale(1 1) rotate(0) translate(4 226)">
<title>Perl</title>
<polygon fill="white" stroke="none" points="-4,4 -4,-226 447,-226 447,4 -4,4"/>
<text text-anchor="middle" x="221.5" y="-7.8" font-family="Times,serif" font-size="14.00">termcap.info.bnf</text>
<!-- ꞉default -->
<g id="node1" class="node"><title>꞉default</title>
<polygon fill="lightblue" stroke="black" points="59,-104.5 0,-104.5 0,-68.5 59,-68.5 59,-104.5"/>
<text text-anchor="middle" x="29.5" y="-82.8" font-family="Times,serif" font-size="14.00">꞉default</text>
</g>
<!-- BNF -->
<g id="node2" class="node"><title>BNF</title>
<polygon fill="lightgrey" stroke="black" points="93.5,-222 39.5,-222 39.5,-186 93.5,-186 93.5,-222"/>
<text text-anchor="middle" x="66.5" y="-200.3" font-family="Times,serif" font-size="14.00">BNF</text>
</g>
<!-- BNF&#45;&gt;꞉default -->
<g id="edge1" class="edge"><title>BNF&#45;&gt;꞉default</title>
<path fill="none" stroke="grey" d="M61.0405,-185.958C55.0015,-167.106 45.1903,-136.479 38.1129,-114.386"/>
<polygon fill="grey" stroke="grey" points="41.3658,-113.068 34.9819,-104.612 34.6995,-115.203 41.3658,-113.068"/>
</g>
<!-- units -->
<g id="node3" class="node"><title>units</title>
<path fill="lightgreen" stroke="black" d="M89.5,-63.5C89.5,-63.5 119.5,-63.5 119.5,-63.5 125.5,-63.5 131.5,-69.5 131.5,-75.5 131.5,-75.5 131.5,-97.5 131.5,-97.5 131.5,-103.5 125.5,-109.5 119.5,-109.5 119.5,-109.5 89.5,-109.5 89.5,-109.5 83.5,-109.5 77.5,-103.5 77.5,-97.5 77.5,-97.5 77.5,-75.5 77.5,-75.5 77.5,-69.5 83.5,-63.5 89.5,-63.5"/>
<text text-anchor="middle" x="104.5" y="-94.3" font-family="Times,serif" font-size="14.00">:start</text>
<polyline fill="none" stroke="black" points="77.5,-86.5 131.5,-86.5 "/>
<text text-anchor="middle" x="104.5" y="-71.3" font-family="Times,serif" font-size="14.00">units</text>
</g>
<!-- BNF&#45;&gt;units -->
<g id="edge2" class="edge"><title>BNF&#45;&gt;units</title>
<path fill="none" stroke="grey" d="M72.107,-185.958C77.8459,-168.514 86.9016,-140.99 93.9809,-119.473"/>
<polygon fill="grey" stroke="grey" points="97.374,-120.358 97.1746,-109.765 90.7246,-118.171 97.374,-120.358"/>
</g>
<!-- Legend -->
<g id="node4" class="node"><title>Legend</title>
<polygon fill="lightgrey" stroke="none" points="443,-150 150,-150 150,-23 443,-23 443,-150"/>
<polygon fill="white" stroke="none" points="158,-27 158,-146 435,-146 435,-27 158,-27"/>
<polygon fill="lightgreen" stroke="none" points="161.5,-121.5 161.5,-142.5 432.5,-142.5 432.5,-121.5 161.5,-121.5"/>
<polygon fill="none" stroke="black" points="161.5,-121.5 161.5,-142.5 432.5,-142.5 432.5,-121.5 161.5,-121.5"/>
<text text-anchor="start" x="208" y="-128.3" font-family="Times,serif" font-size="14.00">The green node is the start node</text>
<polygon fill="lightblue" stroke="none" points="161.5,-98.5 161.5,-119.5 432.5,-119.5 432.5,-98.5 161.5,-98.5"/>
<polygon fill="none" stroke="black" points="161.5,-98.5 161.5,-119.5 432.5,-119.5 432.5,-98.5 161.5,-98.5"/>
<text text-anchor="start" x="164.5" y="-105.3" font-family="Times,serif" font-size="14.00">Lightblue nodes are for reserved rule names, etc</text>
<polygon fill="orchid" stroke="none" points="161.5,-75.5 161.5,-96.5 432.5,-96.5 432.5,-75.5 161.5,-75.5"/>
<polygon fill="none" stroke="black" points="161.5,-75.5 161.5,-96.5 432.5,-96.5 432.5,-75.5 161.5,-75.5"/>
<text text-anchor="start" x="215.5" y="-82.3" font-family="Times,serif" font-size="14.00">Orchid nodes are for lexemes</text>
<polygon fill="goldenrod" stroke="none" points="161.5,-52.5 161.5,-73.5 432.5,-73.5 432.5,-52.5 161.5,-52.5"/>
<polygon fill="none" stroke="black" points="161.5,-52.5 161.5,-73.5 432.5,-73.5 432.5,-52.5 161.5,-52.5"/>
<text text-anchor="start" x="217" y="-59.3" font-family="Times,serif" font-size="14.00">Golden nodes are for actions</text>
<polygon fill="#ff3030" stroke="none" points="161.5,-29.5 161.5,-50.5 432.5,-50.5 432.5,-29.5 161.5,-29.5"/>
<polygon fill="none" stroke="black" points="161.5,-29.5 161.5,-50.5 432.5,-50.5 432.5,-29.5 161.5,-29.5"/>
<text text-anchor="start" x="229" y="-36.3" font-family="Times,serif" font-size="14.00">Red nodes are for events</text>
<polygon fill="none" stroke="black" points="158,-27 158,-146 435,-146 435,-27 158,-27"/>
</g>
</g>
</svg>
