<?xml version="1.0" encoding="UTF-8" standalone="no"?>
<!DOCTYPE svg PUBLIC "-//W3C//DTD SVG 1.1//EN"
 "http://www.w3.org/Graphics/SVG/1.1/DTD/svg11.dtd">
<!-- Generated by graphviz version 2.38.0 (20140413.2041)
 -->
<!-- Title: Perl Pages: 1 -->
<svg width="3593pt" height="230pt"
 viewBox="0.00 0.00 3593.09 230.00" xmlns="http://www.w3.org/2000/svg" xmlns:xlink="http://www.w3.org/1999/xlink">
<g id="graph0" class="graph" transform="scale(1 1) rotate(0) translate(4 226)">
<title>Perl</title>
<polygon fill="white" stroke="none" points="-4,4 -4,-226 3589.09,-226 3589.09,4 -4,4"/>
<text text-anchor="middle" x="1792.54" y="-7.8" font-family="Times,serif" font-size="14.00">termcap.info.bnf</text>
<!-- rhs -->
<g id="node1" class="node"><title>rhs</title>
<polygon fill="white" stroke="black" points="526.589,-104.5 472.589,-104.5 472.589,-68.5 526.589,-68.5 526.589,-104.5"/>
</g>
<!-- BNF -->
<g id="node2" class="node"><title>BNF</title>
<polygon fill="lightgrey" stroke="black" points="526.589,-222 472.589,-222 472.589,-186 526.589,-186 526.589,-222"/>
<text text-anchor="middle" x="499.589" y="-200.3" font-family="Times,serif" font-size="14.00">BNF</text>
</g>
<!-- BNF&#45;&gt;rhs -->
<g id="edge1" class="edge"><title>BNF&#45;&gt;rhs</title>
<path fill="none" stroke="grey" d="M472.171,-202.934C-154.016,-199.868 -157.255,-91.7751 462.454,-87.6228"/>
<polygon fill="grey" stroke="grey" points="462.568,-91.1223 472.548,-87.5647 462.528,-84.1224 462.568,-91.1223"/>
</g>
<!-- BNF&#45;&gt;rhs -->
<g id="edge2" class="edge"><title>BNF&#45;&gt;rhs</title>
<path fill="none" stroke="grey" d="M472.451,-202.931C-135.905,-199.816 -139.346,-91.933 462.128,-87.6321"/>
<polygon fill="grey" stroke="grey" points="462.397,-91.1306 472.375,-87.5692 462.354,-84.1308 462.397,-91.1306"/>
</g>
<!-- BNF&#45;&gt;rhs -->
<g id="edge3" class="edge"><title>BNF&#45;&gt;rhs</title>
<path fill="none" stroke="grey" d="M472.309,-202.926C-117.824,-199.709 -121.298,-92.0882 461.888,-87.6417"/>
<polygon fill="grey" stroke="grey" points="462.284,-91.1393 472.261,-87.5739 462.238,-84.1394 462.284,-91.1393"/>
</g>
<!-- BNF&#45;&gt;rhs -->
<g id="edge6" class="edge"><title>BNF&#45;&gt;rhs</title>
<path fill="none" stroke="grey" d="M472.218,-202.921C-99.9092,-199.602 -103.268,-92.1903 462.141,-87.6483"/>
<polygon fill="grey" stroke="grey" points="462.223,-91.1479 472.198,-87.5787 462.174,-84.148 462.223,-91.1479"/>
</g>
<!-- BNF&#45;&gt;rhs -->
<g id="edge7" class="edge"><title>BNF&#45;&gt;rhs</title>
<path fill="none" stroke="grey" d="M472.18,-202.916C-81.8749,-199.495 -85.2544,-92.3447 462.041,-87.6584"/>
<polygon fill="grey" stroke="grey" points="462.213,-91.1573 472.186,-87.5837 462.161,-84.1575 462.213,-91.1573"/>
</g>
<!-- BNF&#45;&gt;rhs -->
<g id="edge8" class="edge"><title>BNF&#45;&gt;rhs</title>
<path fill="none" stroke="grey" d="M472.193,-202.911C-63.8661,-199.389 -67.2581,-92.4987 462.017,-87.6688"/>
<polygon fill="grey" stroke="grey" points="462.254,-91.1672 472.226,-87.5888 462.199,-84.1674 462.254,-91.1672"/>
</g>
<!-- BNF&#45;&gt;rhs -->
<g id="edge9" class="edge"><title>BNF&#45;&gt;rhs</title>
<path fill="none" stroke="grey" d="M472.259,-202.906C-45.8825,-199.283 -49.2791,-92.6522 462.069,-87.6795"/>
<polygon fill="grey" stroke="grey" points="462.346,-91.1775 472.316,-87.594 462.288,-84.1777 462.346,-91.1775"/>
</g>
<!-- BNF&#45;&gt;rhs -->
<g id="edge10" class="edge"><title>BNF&#45;&gt;rhs</title>
<path fill="none" stroke="grey" d="M472.376,-202.9C-27.9242,-199.178 -31.3174,-92.8053 462.197,-87.6906"/>
<polygon fill="grey" stroke="grey" points="462.489,-91.1882 472.458,-87.5994 462.427,-84.1885 462.489,-91.1882"/>
</g>
<!-- BNF&#45;&gt;rhs -->
<g id="edge11" class="edge"><title>BNF&#45;&gt;rhs</title>
<path fill="none" stroke="grey" d="M472.545,-202.894C-9.87104,-199.073 -13.3713,-93.0106 462.044,-87.7059"/>
<polygon fill="grey" stroke="grey" points="462.321,-91.2035 472.287,-87.6079 462.254,-84.2038 462.321,-91.2035"/>
</g>
<!-- BNF&#45;&gt;rhs -->
<g id="edge12" class="edge"><title>BNF&#45;&gt;rhs</title>
<path fill="none" stroke="grey" d="M472.41,-202.885C8.02804,-198.914 4.67255,-93.1598 462.344,-87.7176"/>
<polygon fill="grey" stroke="grey" points="462.585,-91.2154 472.549,-87.6136 462.514,-84.2157 462.585,-91.2154"/>
</g>
<!-- BNF&#45;&gt;rhs -->
<g id="edge13" class="edge"><title>BNF&#45;&gt;rhs</title>
<path fill="none" stroke="grey" d="M472.353,-202.876C26.0135,-198.756 22.6921,-93.3609 462.389,-87.7337"/>
<polygon fill="grey" stroke="grey" points="462.564,-91.2321 472.525,-87.6225 462.488,-84.2325 462.564,-91.2321"/>
</g>
<!-- BNF&#45;&gt;rhs -->
<g id="edge14" class="edge"><title>BNF&#45;&gt;rhs</title>
<path fill="none" stroke="grey" d="M472.373,-202.866C43.9655,-198.599 40.6858,-93.5611 462.534,-87.7504"/>
<polygon fill="grey" stroke="grey" points="462.62,-91.2497 472.578,-87.6317 462.537,-84.2502 462.62,-91.2497"/>
</g>
<!-- BNF&#45;&gt;rhs -->
<g id="edge15" class="edge"><title>BNF&#45;&gt;rhs</title>
<path fill="none" stroke="grey" d="M472.471,-202.856C62.0878,-198.444 58.6568,-93.8641 462.178,-87.7766"/>
<polygon fill="grey" stroke="grey" points="462.442,-91.2736 472.396,-87.6445 462.352,-84.2741 462.442,-91.2736"/>
</g>
<!-- BNF&#45;&gt;rhs -->
<g id="edge16" class="edge"><title>BNF&#45;&gt;rhs</title>
<path fill="none" stroke="grey" d="M472.343,-202.842C80.0581,-198.235 76.6994,-94.111 462.267,-87.7992"/>
<polygon fill="grey" stroke="grey" points="462.373,-91.2981 472.323,-87.6579 462.275,-84.2988 462.373,-91.2981"/>
</g>
<!-- BNF&#45;&gt;rhs -->
<g id="edge17" class="edge"><title>BNF&#45;&gt;rhs</title>
<path fill="none" stroke="grey" d="M472.319,-202.828C98.0792,-198.027 94.7092,-94.4076 462.209,-87.8274"/>
<polygon fill="grey" stroke="grey" points="462.406,-91.3249 472.351,-87.6718 462.298,-84.3257 462.406,-91.3249"/>
</g>
<!-- BNF&#45;&gt;rhs -->
<g id="edge18" class="edge"><title>BNF&#45;&gt;rhs</title>
<path fill="none" stroke="grey" d="M472.397,-202.813C116.051,-197.821 112.684,-94.7023 462.299,-87.8568"/>
<polygon fill="grey" stroke="grey" points="462.54,-91.3533 472.48,-87.6862 462.422,-84.3543 462.54,-91.3533"/>
</g>
<!-- BNF&#45;&gt;rhs -->
<g id="edge19" class="edge"><title>BNF&#45;&gt;rhs</title>
<path fill="none" stroke="grey" d="M472.579,-202.797C134.141,-197.618 130.629,-95.0972 462.043,-87.898"/>
<polygon fill="grey" stroke="grey" points="462.518,-91.3899 472.451,-87.7051 462.388,-84.3911 462.518,-91.3899"/>
</g>
<!-- BNF&#45;&gt;rhs -->
<g id="edge21" class="edge"><title>BNF&#45;&gt;rhs</title>
<path fill="none" stroke="grey" d="M472.363,-202.772C152.076,-197.308 148.7,-95.4313 462.235,-87.9352"/>
<polygon fill="grey" stroke="grey" points="462.635,-91.4279 472.561,-87.7247 462.492,-84.4294 462.635,-91.4279"/>
</g>
<!-- BNF&#45;&gt;rhs -->
<g id="edge24" class="edge"><title>BNF&#45;&gt;rhs</title>
<path fill="none" stroke="grey" d="M472.301,-202.746C170.029,-197.002 166.721,-95.8133 462.376,-87.9799"/>
<polygon fill="grey" stroke="grey" points="462.647,-91.4747 472.566,-87.7493 462.489,-84.4765 462.647,-91.4747"/>
</g>
<!-- BNF&#45;&gt;rhs -->
<g id="edge25" class="edge"><title>BNF&#45;&gt;rhs</title>
<path fill="none" stroke="grey" d="M472.393,-202.718C188.202,-196.702 184.697,-96.3922 461.88,-88.0511"/>
<polygon fill="grey" stroke="grey" points="462.378,-91.5396 472.285,-87.7844 462.198,-84.5419 462.378,-91.5396"/>
</g>
<!-- BNF&#45;&gt;rhs -->
<g id="edge26" class="edge"><title>BNF&#45;&gt;rhs</title>
<path fill="none" stroke="grey" d="M472.218,-202.679C206.134,-196.297 202.756,-96.8575 462.084,-88.1131"/>
<polygon fill="grey" stroke="grey" points="462.323,-91.6078 472.218,-87.8212 462.121,-84.6107 462.323,-91.6078"/>
</g>
<!-- BNF&#45;&gt;rhs -->
<g id="edge27" class="edge"><title>BNF&#45;&gt;rhs</title>
<path fill="none" stroke="grey" d="M472.248,-202.637C224.108,-195.898 220.748,-97.415 462.169,-88.1916"/>
<polygon fill="grey" stroke="grey" points="462.468,-91.6838 472.349,-87.86 462.24,-84.6875 462.468,-91.6838"/>
</g>
<!-- BNF&#45;&gt;rhs -->
<g id="edge28" class="edge"><title>BNF&#45;&gt;rhs</title>
<path fill="none" stroke="grey" d="M472.481,-202.593C242.103,-195.506 238.676,-98.0643 462.202,-88.289"/>
<polygon fill="grey" stroke="grey" points="462.458,-91.782 472.321,-87.9118 462.198,-84.7868 462.458,-91.782"/>
</g>
<!-- BNF&#45;&gt;rhs -->
<g id="edge29" class="edge"><title>BNF&#45;&gt;rhs</title>
<path fill="none" stroke="grey" d="M472.575,-202.535C260.081,-195.016 256.649,-98.7897 462.28,-88.4065"/>
<polygon fill="grey" stroke="grey" points="462.711,-91.8914 472.552,-87.9662 462.411,-84.8978 462.711,-91.8914"/>
</g>
<!-- BNF&#45;&gt;rhs -->
<g id="edge30" class="edge"><title>BNF&#45;&gt;rhs</title>
<path fill="none" stroke="grey" d="M472.291,-202.446C278.111,-194.335 274.747,-99.6728 462.199,-88.5625"/>
<polygon fill="grey" stroke="grey" points="462.633,-92.0452 472.444,-88.0474 462.281,-85.0541 462.633,-92.0452"/>
</g>
<!-- BNF&#45;&gt;rhs -->
<g id="edge32" class="edge"><title>BNF&#45;&gt;rhs</title>
<path fill="none" stroke="grey" d="M472.363,-202.35C296.073,-193.666 292.728,-100.632 462.329,-88.7469"/>
<polygon fill="grey" stroke="grey" points="462.627,-92.2355 472.401,-88.1477 462.211,-85.2478 462.627,-92.2355"/>
</g>
<!-- BNF&#45;&gt;rhs -->
<g id="edge33" class="edge"><title>BNF&#45;&gt;rhs</title>
<path fill="none" stroke="grey" d="M472.525,-202.232C314.095,-192.919 310.685,-101.832 462.296,-88.9996"/>
<polygon fill="grey" stroke="grey" points="462.781,-92.4739 472.506,-88.2692 462.282,-85.4917 462.781,-92.4739"/>
</g>
<!-- BNF&#45;&gt;rhs -->
<g id="edge35" class="edge"><title>BNF&#45;&gt;rhs</title>
<path fill="none" stroke="grey" d="M472.143,-202.036C332.221,-191.811 328.822,-103.394 461.946,-89.3705"/>
<polygon fill="grey" stroke="grey" points="462.546,-92.8311 472.197,-88.4599 461.926,-85.8586 462.546,-92.8311"/>
</g>
<!-- BNF&#45;&gt;rhs -->
<g id="edge36" class="edge"><title>BNF&#45;&gt;rhs</title>
<path fill="none" stroke="grey" d="M472.362,-201.819C350.119,-190.733 346.759,-104.986 462.284,-89.7962"/>
<polygon fill="grey" stroke="grey" points="462.755,-93.2655 472.309,-88.6856 461.984,-86.308 462.755,-93.2655"/>
</g>
<!-- BNF&#45;&gt;rhs -->
<g id="edge37" class="edge"><title>BNF&#45;&gt;rhs</title>
<path fill="none" stroke="grey" d="M472.441,-201.497C368.114,-189.342 364.75,-107.119 462.35,-90.4458"/>
<polygon fill="grey" stroke="grey" points="463.032,-93.8839 472.436,-89.0032 462.041,-86.9544 463.032,-93.8839"/>
</g>
<!-- BNF&#45;&gt;rhs -->
<g id="edge38" class="edge"><title>BNF&#45;&gt;rhs</title>
<path fill="none" stroke="grey" d="M472.364,-200.995C386.096,-187.495 382.795,-109.824 462.462,-91.413"/>
<polygon fill="grey" stroke="grey" points="463.427,-94.7917 472.589,-89.4698 462.108,-87.9171 463.427,-94.7917"/>
</g>
<!-- BNF&#45;&gt;rhs -->
<g id="edge39" class="edge"><title>BNF&#45;&gt;rhs</title>
<path fill="none" stroke="grey" d="M472.577,-200.259C404.145,-185.312 400.768,-113.565 462.447,-93.0126"/>
<polygon fill="grey" stroke="grey" points="463.741,-96.2868 472.46,-90.2668 461.89,-89.536 463.741,-96.2868"/>
</g>
<!-- BNF&#45;&gt;rhs -->
<g id="edge40" class="edge"><title>BNF&#45;&gt;rhs</title>
<path fill="none" stroke="grey" d="M472.467,-198.889C422.061,-182.087 418.848,-118.44 462.829,-95.666"/>
<polygon fill="grey" stroke="grey" points="464.406,-98.7993 472.254,-91.6822 461.681,-92.3516 464.406,-98.7993"/>
</g>
<!-- BNF&#45;&gt;rhs -->
<g id="edge41" class="edge"><title>BNF&#45;&gt;rhs</title>
<path fill="none" stroke="grey" d="M472.583,-196.291C439.694,-177.632 436.858,-124.885 464.076,-100.348"/>
<polygon fill="grey" stroke="grey" points="466.493,-102.92 472.55,-94.2275 462.394,-97.2457 466.493,-102.92"/>
</g>
<!-- BNF&#45;&gt;rhs -->
<g id="edge42" class="edge"><title>BNF&#45;&gt;rhs</title>
<path fill="none" stroke="grey" d="M472.261,-189.297C456.668,-169.568 454.919,-132.951 467.013,-109.432"/>
<polygon fill="grey" stroke="grey" points="470.083,-111.13 472.561,-100.829 464.2,-107.336 470.083,-111.13"/>
</g>
<!-- BNF&#45;&gt;rhs -->
<g id="edge43" class="edge"><title>BNF&#45;&gt;rhs</title>
<path fill="none" stroke="grey" d="M479.767,-185.958C471.476,-167.021 470.367,-136.202 476.441,-114.087"/>
<polygon fill="grey" stroke="grey" points="479.756,-115.207 479.737,-104.612 473.145,-112.907 479.756,-115.207"/>
</g>
<!-- BNF&#45;&gt;rhs -->
<g id="edge44" class="edge"><title>BNF&#45;&gt;rhs</title>
<path fill="none" stroke="grey" d="M489.678,-185.958C485.57,-167.191 484.988,-136.756 487.933,-114.687"/>
<polygon fill="grey" stroke="grey" points="491.42,-115.06 489.663,-104.612 484.521,-113.876 491.42,-115.06"/>
</g>
<!-- BNF&#45;&gt;rhs -->
<g id="edge45" class="edge"><title>BNF&#45;&gt;rhs</title>
<path fill="none" stroke="grey" d="M499.589,-185.958C499.589,-167.191 499.589,-136.756 499.589,-114.687"/>
<polygon fill="grey" stroke="grey" points="503.089,-114.612 499.589,-104.612 496.089,-114.612 503.089,-114.612"/>
</g>
<!-- BNF&#45;&gt;rhs -->
<g id="edge46" class="edge"><title>BNF&#45;&gt;rhs</title>
<path fill="none" stroke="grey" d="M509.499,-185.958C513.608,-167.191 514.189,-136.756 511.244,-114.687"/>
<polygon fill="grey" stroke="grey" points="514.656,-113.876 509.515,-104.612 507.757,-115.06 514.656,-113.876"/>
</g>
<!-- BNF&#45;&gt;rhs -->
<g id="edge47" class="edge"><title>BNF&#45;&gt;rhs</title>
<path fill="none" stroke="grey" d="M519.41,-185.958C527.701,-167.021 528.81,-136.202 522.737,-114.087"/>
<polygon fill="grey" stroke="grey" points="526.032,-112.907 519.441,-104.612 519.421,-115.207 526.032,-112.907"/>
</g>
<!-- BNF&#45;&gt;rhs -->
<g id="edge48" class="edge"><title>BNF&#45;&gt;rhs</title>
<path fill="none" stroke="grey" d="M526.916,-189.297C542.509,-169.568 544.258,-132.951 532.165,-109.432"/>
<polygon fill="grey" stroke="grey" points="534.977,-107.336 526.617,-100.829 529.095,-111.13 534.977,-107.336"/>
</g>
<!-- BNF&#45;&gt;rhs -->
<g id="edge49" class="edge"><title>BNF&#45;&gt;rhs</title>
<path fill="none" stroke="grey" d="M526.594,-196.291C559.484,-177.632 562.319,-124.885 535.101,-100.348"/>
<polygon fill="grey" stroke="grey" points="536.783,-97.2457 526.627,-94.2275 532.684,-102.92 536.783,-97.2457"/>
</g>
<!-- BNF&#45;&gt;rhs -->
<g id="edge50" class="edge"><title>BNF&#45;&gt;rhs</title>
<path fill="none" stroke="grey" d="M526.71,-198.889C577.117,-182.087 580.329,-118.44 536.348,-95.666"/>
<polygon fill="grey" stroke="grey" points="537.497,-92.3516 526.923,-91.6822 534.771,-98.7993 537.497,-92.3516"/>
</g>
<!-- BNF&#45;&gt;rhs -->
<g id="edge51" class="edge"><title>BNF&#45;&gt;rhs</title>
<path fill="none" stroke="grey" d="M526.601,-200.259C595.033,-185.312 598.409,-113.565 536.731,-93.0126"/>
<polygon fill="grey" stroke="grey" points="537.287,-89.536 526.718,-90.2668 535.436,-96.2868 537.287,-89.536"/>
</g>
<!-- BNF&#45;&gt;rhs -->
<g id="edge52" class="edge"><title>BNF&#45;&gt;rhs</title>
<path fill="none" stroke="grey" d="M526.813,-200.995C613.082,-187.495 616.383,-109.824 536.715,-91.413"/>
<polygon fill="grey" stroke="grey" points="537.069,-87.9171 526.589,-89.4698 535.75,-94.7917 537.069,-87.9171"/>
</g>
<!-- BNF&#45;&gt;rhs -->
<g id="edge53" class="edge"><title>BNF&#45;&gt;rhs</title>
<path fill="none" stroke="grey" d="M526.736,-201.497C631.064,-189.342 634.427,-107.119 536.827,-90.4458"/>
<polygon fill="grey" stroke="grey" points="537.136,-86.9544 526.741,-89.0032 536.145,-93.8839 537.136,-86.9544"/>
</g>
<!-- BNF&#45;&gt;rhs -->
<g id="edge54" class="edge"><title>BNF&#45;&gt;rhs</title>
<path fill="none" stroke="grey" d="M526.815,-201.819C649.059,-190.733 652.418,-104.986 536.894,-89.7962"/>
<polygon fill="grey" stroke="grey" points="537.193,-86.308 526.869,-88.6856 536.422,-93.2655 537.193,-86.308"/>
</g>
<!-- BNF&#45;&gt;rhs -->
<g id="edge55" class="edge"><title>BNF&#45;&gt;rhs</title>
<path fill="none" stroke="grey" d="M527.035,-202.036C666.956,-191.811 670.355,-103.394 537.231,-89.3705"/>
<polygon fill="grey" stroke="grey" points="537.251,-85.8586 526.98,-88.4599 536.631,-92.8311 537.251,-85.8586"/>
</g>
<!-- BNF&#45;&gt;rhs -->
<g id="edge56" class="edge"><title>BNF&#45;&gt;rhs</title>
<path fill="none" stroke="grey" d="M526.652,-202.232C685.083,-192.919 688.492,-101.832 536.882,-88.9996"/>
<polygon fill="grey" stroke="grey" points="536.895,-85.4917 526.671,-88.2692 536.396,-92.4739 536.895,-85.4917"/>
</g>
<!-- BNF&#45;&gt;rhs -->
<g id="edge57" class="edge"><title>BNF&#45;&gt;rhs</title>
<path fill="none" stroke="grey" d="M526.814,-202.35C703.104,-193.666 706.449,-100.632 536.849,-88.7469"/>
<polygon fill="grey" stroke="grey" points="536.966,-85.2478 526.776,-88.1477 536.55,-92.2355 536.966,-85.2478"/>
</g>
<!-- BNF&#45;&gt;rhs -->
<g id="edge58" class="edge"><title>BNF&#45;&gt;rhs</title>
<path fill="none" stroke="grey" d="M526.886,-202.446C721.066,-194.335 724.43,-99.6728 536.978,-88.5625"/>
<polygon fill="grey" stroke="grey" points="536.896,-85.0541 526.733,-88.0474 536.544,-92.0452 536.896,-85.0541"/>
</g>
<!-- BNF&#45;&gt;rhs -->
<g id="edge59" class="edge"><title>BNF&#45;&gt;rhs</title>
<path fill="none" stroke="grey" d="M526.602,-202.535C739.096,-195.016 742.528,-98.7897 536.897,-88.4065"/>
<polygon fill="grey" stroke="grey" points="536.766,-84.8978 526.626,-87.9662 536.466,-91.8914 536.766,-84.8978"/>
</g>
<!-- BNF&#45;&gt;rhs -->
<g id="edge60" class="edge"><title>BNF&#45;&gt;rhs</title>
<path fill="none" stroke="grey" d="M526.696,-202.593C757.075,-195.506 760.501,-98.0643 536.975,-88.289"/>
<polygon fill="grey" stroke="grey" points="536.98,-84.7868 526.856,-87.9118 536.719,-91.782 536.98,-84.7868"/>
</g>
<!-- BNF&#45;&gt;rhs -->
<g id="edge61" class="edge"><title>BNF&#45;&gt;rhs</title>
<path fill="none" stroke="grey" d="M526.93,-202.637C775.069,-195.898 778.429,-97.415 537.008,-88.1916"/>
<polygon fill="grey" stroke="grey" points="536.937,-84.6875 526.828,-87.86 536.709,-91.6838 536.937,-84.6875"/>
</g>
<!-- BNF&#45;&gt;rhs -->
<g id="edge62" class="edge"><title>BNF&#45;&gt;rhs</title>
<path fill="none" stroke="grey" d="M526.959,-202.679C793.044,-196.297 796.422,-96.8575 537.093,-88.1131"/>
<polygon fill="grey" stroke="grey" points="537.056,-84.6107 526.959,-87.8212 536.854,-91.6078 537.056,-84.6107"/>
</g>
<!-- BNF&#45;&gt;rhs -->
<g id="edge63" class="edge"><title>BNF&#45;&gt;rhs</title>
<path fill="none" stroke="grey" d="M526.784,-202.718C810.975,-196.702 814.48,-96.3922 537.297,-88.0511"/>
<polygon fill="grey" stroke="grey" points="536.979,-84.5419 526.892,-87.7844 536.799,-91.5396 536.979,-84.5419"/>
</g>
<!-- BNF&#45;&gt;rhs -->
<g id="edge64" class="edge"><title>BNF&#45;&gt;rhs</title>
<path fill="none" stroke="grey" d="M526.876,-202.746C829.148,-197.002 832.456,-95.8133 536.801,-87.9799"/>
<polygon fill="grey" stroke="grey" points="536.688,-84.4765 526.612,-87.7493 536.53,-91.4747 536.688,-84.4765"/>
</g>
<!-- BNF&#45;&gt;rhs -->
<g id="edge65" class="edge"><title>BNF&#45;&gt;rhs</title>
<path fill="none" stroke="grey" d="M526.815,-202.772C847.102,-197.308 850.477,-95.4313 536.942,-87.9352"/>
<polygon fill="grey" stroke="grey" points="536.685,-84.4294 526.616,-87.7247 536.542,-91.4279 536.685,-84.4294"/>
</g>
<!-- BNF&#45;&gt;rhs -->
<g id="edge66" class="edge"><title>BNF&#45;&gt;rhs</title>
<path fill="none" stroke="grey" d="M526.598,-202.797C865.037,-197.618 868.549,-95.0972 537.134,-87.898"/>
<polygon fill="grey" stroke="grey" points="536.789,-84.3911 526.726,-87.7051 536.659,-91.3899 536.789,-84.3911"/>
</g>
<!-- BNF&#45;&gt;rhs -->
<g id="edge67" class="edge"><title>BNF&#45;&gt;rhs</title>
<path fill="none" stroke="grey" d="M526.78,-202.813C883.127,-197.821 886.493,-94.7023 536.878,-87.8568"/>
<polygon fill="grey" stroke="grey" points="536.755,-84.3543 526.698,-87.6862 536.638,-91.3533 536.755,-84.3543"/>
</g>
<!-- BNF&#45;&gt;rhs -->
<g id="edge68" class="edge"><title>BNF&#45;&gt;rhs</title>
<path fill="none" stroke="grey" d="M526.858,-202.828C901.098,-198.027 904.468,-94.4076 536.969,-87.8274"/>
<polygon fill="grey" stroke="grey" points="536.879,-84.3257 526.826,-87.6718 536.771,-91.3249 536.879,-84.3257"/>
</g>
<!-- BNF&#45;&gt;rhs -->
<g id="edge69" class="edge"><title>BNF&#45;&gt;rhs</title>
<path fill="none" stroke="grey" d="M526.834,-202.842C919.119,-198.235 922.478,-94.111 536.91,-87.7992"/>
<polygon fill="grey" stroke="grey" points="536.902,-84.2988 526.854,-87.6579 536.804,-91.2981 536.902,-84.2988"/>
</g>
<!-- BNF&#45;&gt;rhs -->
<g id="edge70" class="edge"><title>BNF&#45;&gt;rhs</title>
<path fill="none" stroke="grey" d="M526.706,-202.856C937.089,-198.444 940.52,-93.8641 536.999,-87.7766"/>
<polygon fill="grey" stroke="grey" points="536.825,-84.2741 526.781,-87.6445 536.735,-91.2736 536.825,-84.2741"/>
</g>
<!-- BNF&#45;&gt;rhs -->
<g id="edge71" class="edge"><title>BNF&#45;&gt;rhs</title>
<path fill="none" stroke="grey" d="M526.804,-202.866C955.212,-198.599 958.491,-93.5611 536.644,-87.7504"/>
<polygon fill="grey" stroke="grey" points="536.64,-84.2502 526.6,-87.6317 536.557,-91.2497 536.64,-84.2502"/>
</g>
<!-- BNF&#45;&gt;rhs -->
<g id="edge72" class="edge"><title>BNF&#45;&gt;rhs</title>
<path fill="none" stroke="grey" d="M526.825,-202.876C973.164,-198.756 976.485,-93.3609 536.789,-87.7337"/>
<polygon fill="grey" stroke="grey" points="536.69,-84.2325 526.652,-87.6225 536.613,-91.2321 536.69,-84.2325"/>
</g>
<!-- BNF&#45;&gt;rhs -->
<g id="edge73" class="edge"><title>BNF&#45;&gt;rhs</title>
<path fill="none" stroke="grey" d="M526.767,-202.885C991.149,-198.914 994.505,-93.1598 536.834,-87.7176"/>
<polygon fill="grey" stroke="grey" points="536.663,-84.2157 526.628,-87.6136 536.592,-91.2154 536.663,-84.2157"/>
</g>
<!-- BNF&#45;&gt;rhs -->
<g id="edge74" class="edge"><title>BNF&#45;&gt;rhs</title>
<path fill="none" stroke="grey" d="M526.632,-202.894C1009.05,-199.073 1012.55,-93.0106 537.133,-87.7059"/>
<polygon fill="grey" stroke="grey" points="536.923,-84.2038 526.89,-87.6079 536.856,-91.2035 536.923,-84.2038"/>
</g>
<!-- BNF&#45;&gt;rhs -->
<g id="edge75" class="edge"><title>BNF&#45;&gt;rhs</title>
<path fill="none" stroke="grey" d="M526.801,-202.9C1027.1,-199.178 1030.49,-92.8053 536.981,-87.6906"/>
<polygon fill="grey" stroke="grey" points="536.75,-84.1885 526.719,-87.5994 536.688,-91.1882 536.75,-84.1885"/>
</g>
<!-- BNF&#45;&gt;rhs -->
<g id="edge76" class="edge"><title>BNF&#45;&gt;rhs</title>
<path fill="none" stroke="grey" d="M526.918,-202.906C1045.06,-199.283 1048.46,-92.6522 537.108,-87.6795"/>
<polygon fill="grey" stroke="grey" points="536.89,-84.1777 526.861,-87.594 536.831,-91.1775 536.89,-84.1777"/>
</g>
<!-- BNF&#45;&gt;rhs -->
<g id="edge77" class="edge"><title>BNF&#45;&gt;rhs</title>
<path fill="none" stroke="grey" d="M526.984,-202.911C1063.04,-199.389 1066.44,-92.4987 537.16,-87.6688"/>
<polygon fill="grey" stroke="grey" points="536.978,-84.1674 526.951,-87.5888 536.923,-91.1672 536.978,-84.1674"/>
</g>
<!-- BNF&#45;&gt;rhs -->
<g id="edge78" class="edge"><title>BNF&#45;&gt;rhs</title>
<path fill="none" stroke="grey" d="M526.997,-202.916C1081.05,-199.495 1084.43,-92.3447 537.136,-87.6584"/>
<polygon fill="grey" stroke="grey" points="537.016,-84.1575 526.991,-87.5837 536.965,-91.1573 537.016,-84.1575"/>
</g>
<!-- BNF&#45;&gt;rhs -->
<g id="edge79" class="edge"><title>BNF&#45;&gt;rhs</title>
<path fill="none" stroke="grey" d="M526.959,-202.921C1099.09,-199.602 1102.45,-92.1903 537.036,-87.6483"/>
<polygon fill="grey" stroke="grey" points="537.003,-84.148 526.979,-87.5787 536.955,-91.1479 537.003,-84.148"/>
</g>
<!-- BNF&#45;&gt;rhs -->
<g id="edge81" class="edge"><title>BNF&#45;&gt;rhs</title>
<path fill="none" stroke="grey" d="M526.869,-202.926C1117,-199.709 1120.47,-92.0882 537.289,-87.6417"/>
<polygon fill="grey" stroke="grey" points="536.939,-84.1394 526.916,-87.5739 536.893,-91.1393 536.939,-84.1394"/>
</g>
<!-- BNF&#45;&gt;rhs -->
<g id="edge83" class="edge"><title>BNF&#45;&gt;rhs</title>
<path fill="none" stroke="grey" d="M526.726,-202.931C1135.08,-199.816 1138.52,-91.933 537.049,-87.6321"/>
<polygon fill="grey" stroke="grey" points="536.823,-84.1308 526.802,-87.5692 536.78,-91.1306 536.823,-84.1308"/>
</g>
<!-- BNF&#45;&gt;rhs -->
<g id="edge84" class="edge"><title>BNF&#45;&gt;rhs</title>
<path fill="none" stroke="grey" d="M527.006,-202.934C1153.19,-199.868 1156.43,-91.7751 536.724,-87.6228"/>
<polygon fill="grey" stroke="grey" points="536.65,-84.1224 526.63,-87.5647 536.609,-91.1223 536.65,-84.1224"/>
</g>
<!-- rhs alternative action rhs alternative action rhs alternative action rhs alternative action rhs alternative action rhs alternative action rhs alternative action rhs alternative action rhs alternative action rhs alternative action rhs alternative action rhs alternative action rhs alternative action rhs alternative action rhs alternative rhs rhs rhs rhs alternative rhs rhs rhs alternative rhs alternative action -->
<g id="node3" class="node"><title>rhs alternative action rhs alternative action rhs alternative action rhs alternative action rhs alternative action rhs alternative action rhs alternative action rhs alternative action rhs alternative action rhs alternative action rhs alternative action rhs alternative action rhs alternative action rhs alternative action rhs alternative rhs rhs rhs rhs alternative rhs rhs rhs alternative rhs alternative action</title>
<polygon fill="white" stroke="black" points="2598.59,-104.5 544.589,-104.5 544.589,-68.5 2598.59,-68.5 2598.59,-104.5"/>
<text text-anchor="middle" x="1571.59" y="-82.8" font-family="Times,serif" font-size="14.00">action rhs alternative action rhs alternative action rhs alternative action rhs alternative action rhs alternative action rhs alternative action rhs alternative action rhs alternative action rhs alternative action rhs alternative action rhs alternative action rhs alternative action rhs alternative action rhs alternative action rhs rhs rhs rhs action rhs rhs rhs action rhs action rhs</text>
</g>
<!-- BNF&#45;&gt;rhs alternative action rhs alternative action rhs alternative action rhs alternative action rhs alternative action rhs alternative action rhs alternative action rhs alternative action rhs alternative action rhs alternative action rhs alternative action rhs alternative action rhs alternative action rhs alternative action rhs alternative rhs rhs rhs rhs alternative rhs rhs rhs alternative rhs alternative action -->
<g id="edge4" class="edge"><title>BNF&#45;&gt;rhs alternative action rhs alternative action rhs alternative action rhs alternative action rhs alternative action rhs alternative action rhs alternative action rhs alternative action rhs alternative action rhs alternative action rhs alternative action rhs alternative action rhs alternative action rhs alternative action rhs alternative rhs rhs rhs rhs alternative rhs rhs rhs alternative rhs alternative action</title>
<path fill="none" stroke="grey" d="M526.624,-200.087C647.02,-187.115 1140.02,-133.998 1403.57,-105.603"/>
<polygon fill="grey" stroke="grey" points="1404.05,-109.071 1413.62,-104.52 1403.3,-102.111 1404.05,-109.071"/>
</g>
<!-- rhs rhs action -->
<g id="node4" class="node"><title>rhs rhs action</title>
<polygon fill="white" stroke="black" points="2672.59,-104.5 2616.59,-104.5 2616.59,-68.5 2672.59,-68.5 2672.59,-104.5"/>
<text text-anchor="middle" x="2644.59" y="-82.8" font-family="Times,serif" font-size="14.00">rhs rhs</text>
</g>
<!-- BNF&#45;&gt;rhs rhs action -->
<g id="edge5" class="edge"><title>BNF&#45;&gt;rhs rhs action</title>
<path fill="none" stroke="grey" d="M526.851,-203.066C766.904,-203.556 2513.51,-205.212 2607.59,-150 2620.93,-142.168 2629.99,-127.482 2635.8,-114.314"/>
<polygon fill="grey" stroke="grey" points="2639.19,-115.264 2639.62,-104.678 2632.68,-112.68 2639.19,-115.264"/>
</g>
<!-- rhs alternative -->
<g id="node5" class="node"><title>rhs alternative</title>
<polygon fill="white" stroke="black" points="2746.59,-104.5 2690.59,-104.5 2690.59,-68.5 2746.59,-68.5 2746.59,-104.5"/>
<text text-anchor="middle" x="2718.59" y="-82.8" font-family="Times,serif" font-size="14.00">rhs rhs</text>
</g>
<!-- BNF&#45;&gt;rhs alternative -->
<g id="edge20" class="edge"><title>BNF&#45;&gt;rhs alternative</title>
<path fill="none" stroke="grey" d="M526.646,-203.09C770.593,-203.806 2584.03,-207.197 2681.59,-150 2694.94,-142.173 2703.99,-127.488 2709.8,-114.319"/>
<polygon fill="grey" stroke="grey" points="2713.19,-115.268 2713.63,-104.682 2706.68,-112.684 2713.19,-115.268"/>
</g>
<!-- rhs alternative rhs alternative rhs rhs -->
<g id="node6" class="node"><title>rhs alternative rhs alternative rhs rhs</title>
<polygon fill="white" stroke="black" points="2904.59,-104.5 2764.59,-104.5 2764.59,-68.5 2904.59,-68.5 2904.59,-104.5"/>
<text text-anchor="middle" x="2834.59" y="-82.8" font-family="Times,serif" font-size="14.00">rhs rhs rhs rhs rhs rhs</text>
</g>
<!-- BNF&#45;&gt;rhs alternative rhs alternative rhs rhs -->
<g id="edge22" class="edge"><title>BNF&#45;&gt;rhs alternative rhs alternative rhs rhs</title>
<path fill="none" stroke="grey" d="M526.656,-202.856C774.644,-201.472 2645.5,-189.738 2755.59,-150 2777.3,-142.163 2797.62,-125.792 2812.22,-111.772"/>
<polygon fill="grey" stroke="grey" points="2814.69,-114.249 2819.31,-104.711 2809.75,-109.289 2814.69,-114.249"/>
</g>
<!-- rhs rhs rhs rhs alternative rhs rhs rhs -->
<g id="node7" class="node"><title>rhs rhs rhs rhs alternative rhs rhs rhs</title>
<polygon fill="white" stroke="black" points="3126.09,-104.5 2923.09,-104.5 2923.09,-68.5 3126.09,-68.5 3126.09,-104.5"/>
<text text-anchor="middle" x="3024.59" y="-82.8" font-family="Times,serif" font-size="14.00">rhs alternative rhs rhs rhs rhs rhs</text>
</g>
<!-- BNF&#45;&gt;rhs rhs rhs rhs alternative rhs rhs rhs -->
<g id="edge23" class="edge"><title>BNF&#45;&gt;rhs rhs rhs rhs alternative rhs rhs rhs</title>
<path fill="none" stroke="grey" d="M526.872,-202.781C785.137,-200.662 2792.55,-183.158 2913.59,-150 2942.65,-142.04 2972.21,-124.853 2993.51,-110.513"/>
<polygon fill="grey" stroke="grey" points="2995.58,-113.339 3001.83,-104.78 2991.61,-107.576 2995.58,-113.339"/>
</g>
<!-- rhs rhs -->
<g id="node8" class="node"><title>rhs rhs</title>
<polygon fill="white" stroke="black" points="3199.59,-104.5 3143.59,-104.5 3143.59,-68.5 3199.59,-68.5 3199.59,-104.5"/>
<text text-anchor="middle" x="3171.59" y="-82.8" font-family="Times,serif" font-size="14.00">rhs rhs</text>
</g>
<!-- BNF&#45;&gt;rhs rhs -->
<g id="edge31" class="edge"><title>BNF&#45;&gt;rhs rhs</title>
<path fill="none" stroke="grey" d="M526.602,-202.806C800.478,-200.901 3058.59,-184.901 3117.59,-150 3131.07,-142.023 3139.98,-126.913 3147.66,-113.548"/>
<polygon fill="grey" stroke="grey" points="3150.81,-115.086 3152.82,-104.684 3144.76,-111.563 3150.81,-115.086"/>
</g>
<!-- BNF&#45;&gt;rhs rhs -->
<g id="edge34" class="edge"><title>BNF&#45;&gt;rhs rhs</title>
<path fill="none" stroke="grey" d="M526.757,-202.826C801.957,-201.018 3076.37,-185.029 3135.59,-150 3148.81,-142.177 3157.63,-127.491 3163.23,-114.321"/>
<polygon fill="grey" stroke="grey" points="3166.61,-115.275 3166.9,-104.684 3160.07,-112.782 3166.61,-115.275"/>
</g>
<!-- BNF&#45;&gt;rhs rhs -->
<g id="edge80" class="edge"><title>BNF&#45;&gt;rhs rhs</title>
<path fill="none" stroke="grey" d="M526.745,-202.845C803.378,-201.134 3094.15,-185.156 3153.59,-150 3166.69,-142.253 3175.46,-127.779 3179.14,-114.709"/>
<polygon fill="grey" stroke="grey" points="3182.62,-115.152 3180.98,-104.684 3175.73,-113.885 3182.62,-115.152"/>
</g>
<!-- rhs alternative rhs -->
<g id="node9" class="node"><title>rhs alternative rhs</title>
<polygon fill="white" stroke="black" points="3273.59,-104.5 3217.59,-104.5 3217.59,-68.5 3273.59,-68.5 3273.59,-104.5"/>
<text text-anchor="middle" x="3245.59" y="-82.8" font-family="Times,serif" font-size="14.00">rhs rhs</text>
</g>
<!-- BNF&#45;&gt;rhs alternative rhs -->
<g id="edge82" class="edge"><title>BNF&#45;&gt;rhs alternative rhs</title>
<path fill="none" stroke="grey" d="M526.632,-202.838C805.443,-201.122 3147.44,-185.655 3208.59,-150 3221.96,-142.205 3231.01,-127.521 3236.81,-114.344"/>
<polygon fill="grey" stroke="grey" points="3240.21,-115.287 3240.64,-104.701 3233.7,-112.707 3240.21,-115.287"/>
</g>
<!-- Legend -->
<g id="node10" class="node"><title>Legend</title>
<polygon fill="lightgrey" stroke="none" points="3585.09,-150 3292.09,-150 3292.09,-23 3585.09,-23 3585.09,-150"/>
<polygon fill="white" stroke="none" points="3300.09,-27 3300.09,-146 3577.09,-146 3577.09,-27 3300.09,-27"/>
<polygon fill="lightgreen" stroke="none" points="3303.59,-121.5 3303.59,-142.5 3574.59,-142.5 3574.59,-121.5 3303.59,-121.5"/>
<polygon fill="none" stroke="black" points="3303.59,-121.5 3303.59,-142.5 3574.59,-142.5 3574.59,-121.5 3303.59,-121.5"/>
<text text-anchor="start" x="3350.09" y="-128.3" font-family="Times,serif" font-size="14.00">The green node is the start node</text>
<polygon fill="lightblue" stroke="none" points="3303.59,-98.5 3303.59,-119.5 3574.59,-119.5 3574.59,-98.5 3303.59,-98.5"/>
<polygon fill="none" stroke="black" points="3303.59,-98.5 3303.59,-119.5 3574.59,-119.5 3574.59,-98.5 3303.59,-98.5"/>
<text text-anchor="start" x="3306.59" y="-105.3" font-family="Times,serif" font-size="14.00">Lightblue nodes are for reserved rule names, etc</text>
<polygon fill="orchid" stroke="none" points="3303.59,-75.5 3303.59,-96.5 3574.59,-96.5 3574.59,-75.5 3303.59,-75.5"/>
<polygon fill="none" stroke="black" points="3303.59,-75.5 3303.59,-96.5 3574.59,-96.5 3574.59,-75.5 3303.59,-75.5"/>
<text text-anchor="start" x="3357.59" y="-82.3" font-family="Times,serif" font-size="14.00">Orchid nodes are for lexemes</text>
<polygon fill="goldenrod" stroke="none" points="3303.59,-52.5 3303.59,-73.5 3574.59,-73.5 3574.59,-52.5 3303.59,-52.5"/>
<polygon fill="none" stroke="black" points="3303.59,-52.5 3303.59,-73.5 3574.59,-73.5 3574.59,-52.5 3303.59,-52.5"/>
<text text-anchor="start" x="3359.09" y="-59.3" font-family="Times,serif" font-size="14.00">Golden nodes are for actions</text>
<polygon fill="#ff3030" stroke="none" points="3303.59,-29.5 3303.59,-50.5 3574.59,-50.5 3574.59,-29.5 3303.59,-29.5"/>
<polygon fill="none" stroke="black" points="3303.59,-29.5 3303.59,-50.5 3574.59,-50.5 3574.59,-29.5 3303.59,-29.5"/>
<text text-anchor="start" x="3371.09" y="-36.3" font-family="Times,serif" font-size="14.00">Red nodes are for events</text>
<polygon fill="none" stroke="black" points="3300.09,-27 3300.09,-146 3577.09,-146 3577.09,-27 3300.09,-27"/>
</g>
</g>
</svg>
